<?xml version="1.0" encoding="utf-8"?>
<svg version="1.1" xmlns:xlink="http://www.w3.org/1999/xlink" width="18px" height="18px" xmlns="http://www.w3.org/2000/svg">
  <g transform="matrix(1 0 0 1 -1271 -841 )">
    <path d="M 1280 842  C 1284.48 842  1288 845.52  1288 850  C 1288 854.48  1284.48 858  1280 858  C 1275.52 858  1272 854.48  1272 850  C 1272 845.52  1275.52 842  1280 842  Z " fill-rule="nonzero" fill="#ffffff" stroke="none" fill-opacity="0" />
    <path d="M 1280 842  C 1284.48 842  1288 845.52  1288 850  C 1288 854.48  1284.48 858  1280 858  C 1275.52 858  1272 854.48  1272 850  C 1272 845.52  1275.52 842  1280 842  Z " stroke-width="2" stroke="#ffffff" fill="none" />
  </g>
</svg>