<?xml version="1.0" encoding="utf-8"?>
<svg version="1.1" xmlns:xlink="http://www.w3.org/1999/xlink" width="30px" height="30px" xmlns="http://www.w3.org/2000/svg">
  <g transform="matrix(1 0 0 1 -1265 -835 )">
    <path d="M 1280 836  C 1287.84 836  1294 842.16  1294 850  C 1294 857.84  1287.84 864  1280 864  C 1272.16 864  1266 857.84  1266 850  C 1266 842.16  1272.16 836  1280 836  Z " fill-rule="nonzero" fill="#ffffff" stroke="none" fill-opacity="0" />
    <path d="M 1280 836  C 1287.84 836  1294 842.16  1294 850  C 1294 857.84  1287.84 864  1280 864  C 1272.16 864  1266 857.84  1266 850  C 1266 842.16  1272.16 836  1280 836  Z " stroke-width="2" stroke="#ffffff" fill="none" />
  </g>
</svg>