<?xml version="1.0" encoding="utf-8"?>
<svg version="1.1" xmlns:xlink="http://www.w3.org/1999/xlink" width="41px" height="41px" xmlns="http://www.w3.org/2000/svg">
  <g transform="matrix(1 0 0 1 -970 -1746 )">
    <path d="M 20.417773437500003 0.07828125  C 19.389335937500004 0.08433593749999999  18.565859375000002 0.9171875  18.555429687500002 1.9817578125  C 18.545390625000003 3.0163281249999994  18.55328125 4.051054687500001  18.553476562500002 5.085703124999999  C 18.553632812500002 6.150390625  18.539179687500003 7.2153125  18.557773437500003 8.279609375  C 18.576289062500003 9.336953124999999  19.417929687500003 10.121093749999998  20.4854296875 10.111875  C 21.5095703125 10.103046874999999  22.344023437500002 9.291171875  22.3494921875 8.2584375  C 22.3608203125 6.159101562499999  22.3616796875 4.059726562499998  22.34859375 1.9605078124999986  C 22.341835937499997 0.8792578124999986  21.494296875 0.07199218749999875  20.417734375000002 0.07828124999999853  Z M 15.925625 9.0060546875  C 14.892226562500001 7.165546875000002  13.832968750000001 5.339492187500002  12.765351562500001 3.5186328125  C 12.440156250000001 2.9639453125  11.9198046875 2.6881250000000003  11.269101562500003 2.6848828125  C 9.896328125000002 2.6853125  9.058945312500002 4.128789062499999  9.746171875000002 5.3481250000000005  C 10.760507812500002 7.147890625  11.792734375000002 8.93765625  12.831601562500003 10.7234765625  C 13.337773437500003 11.5936328125  14.395937500000002 11.869023437500001  15.2463671875 11.3830078125  C 16.07890625 10.9071484375  16.4056640625 9.861054687500001  15.925625 9.0060546875  Z M 3.1296484374999984 10.376640624999997  C 2.6529296874999986 11.207109374999998  2.9354296874999983 12.158828125  3.8314453124999996 12.680156250000001  C 5.5628515625 13.6876171875  7.2998046875 14.685429687500001  9.034570312499998 15.687187500000002  C 9.296953125 15.838632812500002  9.569140625 15.956914062500001  9.881835937499998 15.937460937500001  C 10.668476562499997 15.943515624999998  11.2870703125 15.471171875  11.4960546875 14.70515625  C 11.6908984375 13.9912109375  11.39109375 13.269609375  10.705234375 12.8692578125  C 8.9623046875 11.851796874999998  7.214804687499998 10.8423046875  5.466796874999998 9.833671874999997  C 4.5867187499999975 9.325859374999997  3.5988671874999985 9.559179687499999  3.1296484374999984 10.376640624999997  Z M 2.161523437500001 21.896874999999998  C 3.162968750000001 21.901757812499998  4.1643750000000015 21.898046875  5.165859375 21.897617187499996  C 6.197187500000001 21.897148437500004  7.228593750000001 21.905625  8.2598046875 21.894648437499995  C 9.1739453125 21.884882812499995  9.78921875 21.253476562499998  9.775117187500001 20.365937499999998  C 9.761718750000002 19.521992187499997  9.114648437500001 18.906171875  8.2293359375 18.905273437499993  C 6.211445312500001 18.903203124999997  4.193671875000001 18.9030078125  2.175820312500001 18.906992187499995  C 1.2317187500000009 18.908867187499997  0.5851953125000009 19.530937499999997  0.5909375000000008 20.418203124999998  C 0.5966015625000008 21.283593749999994  1.2385937500000008 21.892460937499997  2.161523437500001 21.896874999999998  Z M 11.091796875 25.812109374999995  C 10.725507812499998 25.1759765625  9.92234375 24.9303125  9.261328124999999 25.306796874999996  C 7.443398437499999 26.342148437499997  5.636796874999998 27.397890625  3.8309765624999996 28.454453125  C 3.3973046874999993 28.708203124999997  3.193789062499999 29.1128125  3.187617187499999 29.4451171875  C 3.189570312499999 30.6387109375  4.2508984375 31.318515624999993  5.156054687499999 30.8154296875  C 6.9976171874999995 29.7921484375  8.816601562499999 28.727148437499995  10.630078125 27.6541796875  C 11.300898437499999 27.25734375  11.46953125 26.468203125000002  11.091796875 25.812070312499998  Z M 15.597500000000002 31.106484374999997  C 15.598203125000001 30.410468749999996  15.235625000000002 29.940273437499997  14.681640625 29.782890625000004  C 14.123984375000001 29.624453125  13.60171875 29.8396484375  13.280078125000001 30.395039062499997  C 12.268339106603893 32.142654123286654  11.26216214038382 33.893483294920706  10.2615625 35.647499999999994  C 9.870390625000002 36.3330078125  10.032265625 37.0413671875  10.642812500000002 37.4062890625  C 11.2690625 37.780507812500005  11.9806640625 37.564882812499995  12.3896875 36.859453125  C 13.387851562500002 35.13835937499999  14.378007812500002 33.4125390625  15.3729296875 31.689531249999998  C 15.502148437500002 31.465703124999994  15.5953125 31.233125  15.597500000000002 31.106484374999997  Z M 20.44140625 31.513437500000002  C 19.800624999999997 31.516953125  19.373437499999998 31.97875  19.369140625 32.6916796875  C 19.363125 33.6818359375  19.367578125 34.6720703125  19.367578125 35.66234375  L 19.36484375 35.66234375  C 19.36484375 36.6825  19.359609374999998 37.70281250000001  19.366640625 38.72296874999999  C 19.371484374999998 39.436718750000004  19.7984765625 39.8976953125  20.43875 39.903046875  C 21.100624999999997 39.908437500000005  21.534843749999997 39.4411328125  21.536562500000002 38.7021484375  C 21.5411328125 36.706835937499996  21.5418359375 34.7113671875  21.539296875 32.7159375  C 21.5384375 31.9820703125  21.100742187500003 31.50984375  20.4414453125 31.513437500000002  Z M 30.466679687500005 35.899609375000004  C 29.449453125 34.0876171875  28.409531250000004 32.288281250000004  27.36265625 30.493281250000003  C 27.0705078125 29.992382812500004  26.50703125 29.867343750000003  26.042890625000005 30.146523437500004  C 25.595312500000006 30.415820312500003  25.435156250000006 30.952187500000004  25.710312500000004 31.436484375000006  C 26.736796875000003 33.243398437500005  27.777343750000007 35.042187500000004  28.820078125000002 36.839687500000004  C 28.996367187500006 37.143476562500005  29.275468750000005 37.3070703125  29.637421875 37.301484375  C 30.36234375 37.2960546875  30.829765625000004 36.546445312500005  30.466679687500005 35.899609375000004  Z M 36.735312500000006 28.884375000000006  C 34.96627009274144 27.858711291601463  33.19621714925037 26.834791523194014  31.425156249999997 25.812617187500003  C 31.241328124999995 25.706523437500003  31.044531249999995 25.643085937500004  30.825156249999996 25.6969921875  C 30.468789062499994 25.784453125000006  30.241445312499998 26.0108203125  30.180156249999996 26.3648828125  C 30.106562499999995 26.789648437500002  30.330312499999998 27.076093750000002  30.683671874999995 27.2798828125  C 31.847343749999993 27.9510546875  33.010195312499995 28.6234375  34.17351562499999 29.2951171875  C 34.768203125 29.6384765625  35.354609374999995 29.9973046875  35.960351562499994 30.3198046875  C 36.5334765625 30.624921875000002  37.17285156249999 30.240351562500003  37.1734765625 29.6153125  C 37.1707421875 29.285703125  37.013515625 29.045625000000005  36.735312500000006 28.884335937500005  Z M 38.6441796875 19.7190234375  C 37.672695312500004 19.715429687500002  36.70125 19.718046875000002  35.729726562500005 19.718046875000002  L 35.729726562500005 19.715976562500003  C 34.7433203125 19.715976562500003  33.7568359375 19.713164062500002  32.770468750000006 19.7171484375  C 32.245078125 19.7191015625  31.951562500000005 19.96453125  31.94375 20.392421875000004  C 31.935859374999996 20.827304687500003  32.219921875000004 21.0768359375  32.750781249999996 21.078007812500005  C 34.7236328125 21.082421875000005  36.696484375 21.083242187500005  38.669374999999995 21.080898437500004  C 39.19125 21.080351562500002  39.49640625 20.8280078125  39.504687499999996 20.411640625  C 39.513046875 19.9879296875  39.1877734375 19.72109375  38.6441796875 19.7190625  Z M 30.52453125 14.583320312500001  C 30.7133984375 14.890156250000002  30.996640625 14.928242187499999  31.302343750000002 14.751757812499998  C 33.06337535978467 13.735119485176398  34.82333727079545 12.716629338472272  36.5822265625 11.696289062499998  C 36.7721875 11.586015624999998  36.9041015625 11.428515624999998  36.8994921875 11.190624999999999  C 36.894648437499995 10.759648437499997  36.4626171875 10.510156249999998  36.06042968749999 10.7403515625  C 34.2825 11.7578125  32.51132812499999 12.786796875  30.7421875 13.819375  C 30.442968750000002 13.993984375000002  30.331328125 14.269375  30.52453125 14.583320312500001  Z M 26.172500000000007 9.675859374999998  C 26.05039062500001 9.9569921875  26.237734375000006 10.248046875  26.5252734375 10.255546874999999  C 26.727734375 10.2458984375  26.845078125 10.122304687499998  26.939101562500003 9.956640624999999  C 27.13109375 9.618359374999999  27.330703125000003 9.2844921875  27.524804687500005 8.947382812499999  C 28.323632812500005 7.559921875  29.123281250000005 6.173046875  29.918632812500007 4.7836328125  C 30.117226562500004 4.4367578125  30.036796875000004 4.132734375  29.732460937500008 4.059765625000001  C 29.43269531250001 3.9878906250000004  29.306406250000006 4.203906250000001  29.183515625000005 4.417578125  C 28.288046875000006 5.97375  27.391718750000006 7.529570312500001  26.496523437500006 9.086015625  C 26.384648437500005 9.280546874999999  26.261367187500003 9.470859375  26.172500000000007 9.675859374999998  Z " fill-rule="nonzero" fill="#000000" stroke="none" transform="matrix(1 0 0 1 970 1746 )" />
  </g>
</svg>