<?xml version="1.0" encoding="utf-8"?>
<svg version="1.1" xmlns:xlink="http://www.w3.org/1999/xlink" width="4px" height="4px" xmlns="http://www.w3.org/2000/svg">
  <g transform="matrix(1 0 0 1 -1027 -265 )">
    <path d="M 1.2791980000000027 3.6872180476190475  C 1.1578291940399617 3.8037852610892577  0.9981885564487053 3.872202672363745  0.8300751904761932 3.8796992380952404  C 0.659394275150213 3.8844556914092165  0.4952190352716538 3.814094879291826  0.38095238095238093 3.6872180476190475  C 0.2580942809206062 3.570125522680734  0.18856735419592632 3.4078149250494842  0.18856735419592632 3.238095238095238  C 0.18856735419592632 3.0683755511409907  0.2580942809206062 2.9060649535097425  0.38095238095238093 2.788972428571429  L 2.883208023809524 0.28671678571428555  C 3.0019388801721982 0.1703607651260822  3.1615538108068058 0.10518863501815054  3.327793817362798 0.10518863501815054  C 3.6785984498886846 0.10518863501815054  3.962981793553275 0.38957197868274124  3.962981793553275 0.7403766112086262  C 3.962981793553275 0.9066166177646199  3.8978096634453463 1.0662315483992275  3.781453642857143 1.1849624047619045  L 1.2791980000000027 3.6872180476190475  Z " fill-rule="nonzero" fill="#000000" stroke="none" transform="matrix(1 0 0 1 1027 265 )" />
  </g>
</svg>