<?xml version="1.0" encoding="utf-8"?>
<svg version="1.1" xmlns:xlink="http://www.w3.org/1999/xlink" width="17px" height="20px" xmlns="http://www.w3.org/2000/svg">
  <g transform="matrix(1 0 0 1 -711 -936 )">
    <path d="M 11.025807013942307 5.891084068617022  L 14.537800709134617 5.891084068617022  L 11.025807013942307 2.4641824212765955  L 11.025807013942307 5.891084068617022  Z M 15.234273183605765 7.534650437500002  L 9.341800989631409 7.534650437234043  L 9.341800989631409 1.782168118351064  L 2.60739311153846 1.782168118351064  C 2.3707460257532036 1.782168118351064  2.1710034817788437 1.8615852518617027  2.008973628830126 2.020550991755319  C 1.84653971094551 2.179385239893617  1.7657268169391005 2.3738520135638295  2 2.6039513122340425  L 2 17.396048688031915  C 1.7657268163942283 17.626147986968085  1.8465397106730739 17.823375951861703  2.008973628830126 17.979580499999997  C 2.170868787291664 18.1384147481383  2.3707460257532023 18.217831881648937  2.6072584363942286 18  L 14.392741563605766 18  C 14.630062103301281 18.217831881648937  14.829400562996792 18.1384147481383  14.991565110977561 17.979449008244682  C 15.152921529903844 17.823375951595743  15.23427316399038 17.62614798643617  15.234273183605765 17.396048688031915  L 15.234273183605765 7.534650437500002  Z M 2.6077971759294867 0.13860174946808546  L 11.025807013942307 0.13860174946808546  L 17 5.891084068617022  L 17 17.39604868776596  C 16.918009837740385 18.07543329095745  16.671530509631406 18.658833611436172  16.178571854230768 19.138229039361704  C 15.685209134166664 19.620385677659577  15.09029153676282 19.861398250531913  14.39260688846154 19.861398250531913  L 2.607393111538461 19.861398250531913  C 1.9107859619230774 19.861398250531913  1.3153296249839748 19.62038567712766  0.8219669046474358 19.138229039361704  C 0.328604184583333 18.658833611436172  0.08199016225961554 18.07543329095745  0 17.396048688031915  L 0 2.603951311968085  C 0.08199016225961554 1.9245667090425533  0.328604184583333 1.3439275800531916  0.8219669046474358 0.8617709609042552  C 1.3153296247115387 0.3796143417553188  1.9107859619230774 0.13860174946808546  2.607393111538461 0.13860174946808546  Z " fill-rule="nonzero" fill="#7f7f7f" stroke="none" transform="matrix(1 0 0 1 711 936 )" />
  </g>
</svg>