<?xml version="1.0" encoding="utf-8"?>
<svg version="1.1" xmlns:xlink="http://www.w3.org/1999/xlink" width="19px" height="20px" xmlns="http://www.w3.org/2000/svg">
  <g transform="matrix(1 0 0 1 -978 -257 )">
    <path d="M 9.918985849056604 1.2876106194690276  C 10.781603773584907 0.43141592920354077  11.933254716981134 0.004424778761062953  13.087146226415095 0.004424778761062009  C 13.662971698113209 0.004424778761062009  14.23879716981132 0.14601769911504445  14.671226415094342 0.2898230088495577  C 16.400943396226413 1  17.409198113207548 2.566371681415929  17.409198113207548 4.415929203539823  C 17.409198113207548 5.553097345132744  16.97676886792453 6.692477876106194  16.11191037735849 7.546460176991151  L 8.043632075471699 15.654867256637168  C 7.754599056603774 15.940265486725664  7.467806603773585 16.081858407079647  7.17877358490566 16.22345132743363  C 6.8897405660377355 16.365044247787612  6.602948113207547 16.365044247787612  6.170518867924528 16.365044247787612  C 5.881485849056603 16.365044247787612  5.449056603773585 16.365044247787612  5.162264150943396 16.22345132743363  C 4.873231132075471 16.081858407079647  4.586438679245283 15.938053097345135  4.440801886792452 15.654867256637168  C 4.151768867924528 15.369469026548675  4.008372641509434 15.086283185840708  3.8649764150943393 14.800884955752212  C 3.721580188679245 14.515486725663717  3.721580188679245 14.09070796460177  3.721580188679245 13.805309734513273  C 3.721580188679245 13.0929203539823  4.01061320754717 12.382743362831858  4.4430424528301895 11.955752212389381  L 11.792099056603773 4.4159292035398225  C 11.935495283018867 4.274336283185841  12.22452830188679 4.130530973451327  12.367924528301886 4.130530973451327  C 12.656957547169812 4.130530973451327  12.94375 4.272123893805309  13.089386792452832 4.4159292035398225  C 13.232783018867925 4.557522123893804  13.378419811320756 4.8429203539823  13.378419811320756 4.984513274336282  C 13.235023584905662 5.269911504424777  13.235023584905662 5.4115044247787605  13.089386792452832 5.696902654867255  L 5.594693396226415 13.0929203539823  C 5.451297169811321 13.234513274336281  5.305660377358491 13.519911504424778  5.305660377358491 13.805309734513273  C 5.305660377358491 14.232300884955752  5.73808962264151 14.65929203539823  6.170518867924529 14.65929203539823  C 6.459551886792453 14.65929203539823  6.602948113207548 14.517699115044248  6.746344339622643 14.373893805309736  L 14.814622641509436 6.265486725663719  C 15.39044811320755 5.696902654867257  15.533844339622643 5.128318584070798  15.533844339622643 4.415929203539823  C 15.533844339622643 3.70353982300885  15.24481132075472 3.13495575221239  14.814622641509436 2.56637168141593  C 14.382193396226418 1.99778761061947  13.806367924528303 1.7123893805309742  13.084905660377357 1.7123893805309742  C 12.363443396226414 1.7123893805309742  11.644221698113208 1.99778761061947  11.211792452830188 2.56637168141593  L 3.1457547169811315 10.674778761061948  C 2.7133254716981123 11.101769911504425  2.4242924528301883 11.528761061946904  2.1374999999999997 12.097345132743362  C 1.7050707547169803 13.0929203539823  1.7050707547169803 14.373893805309732  2.1374999999999997 15.36946902654867  C 2.426533018867924 15.938053097345133  2.7133254716981123 16.36504424778761  3.1457547169811315 16.792035398230084  C 4.01061320754717 17.646017699115042  5.018867924528302 18.073008849557517  6.170518867924528 18.073008849557517  C 7.322169811320753 18.073008849557517  8.476061320754717 17.646017699115042  9.195283018867924 16.792035398230084  L 17.409198113207548 8.825221238938052  C 17.55259433962264 8.539823008849558  17.69823113207547 8.539823008849558  17.98502358490566 8.539823008849558  C 18.274056603773584 8.539823008849558  18.41745283018868 8.68141592920354  18.560849056603775 8.825221238938052  C 18.70424528301887 8.966814159292035  18.849882075471697 9.110619469026547  18.849882075471697 9.393805309734512  C 18.849882075471697 9.676991150442477  18.706485849056605 9.82079646017699  18.560849056603775 9.962389380530972  L 10.49257075471698 18.07300884955752  C 9.916745283018866 18.641592920353983  9.195283018867924 19.068584070796458  8.476061320754717 19.495575221238937  C 7.754599056603772 19.780973451327434  7.035377358490565 19.922566371681413  6.170518867924528 19.922566371681413  C 5.305660377358489 19.922566371681413  4.586438679245283 19.780973451327434  3.8649764150943393 19.495575221238937  C 3.1435141509433966 19.21017699115044  2.4242924528301883 18.78318584070796  1.8484669811320755 18.07300884955752  C 1.2726415094339625 17.50442477876106  0.8402122641509433 16.792035398230087  0.5511792452830188 16.081858407079647  C 0.26438679245283014 15.36946902654867  0.12099056603773566 14.515486725663717  0.12099056603773566 13.805309734513273  C 0.12099056603773566 12.951327433628318  0.26438679245283014 12.241150442477874  0.5534198113207545 11.38716814159292  C 0.8424528301886791 10.674778761061948  1.2748820754716976 9.964601769911507  1.8507075471698111 9.396017699115045  L 9.918985849056604 1.2876106194690276  Z " fill-rule="nonzero" fill="#000000" stroke="none" transform="matrix(1 0 0 1 978 257 )" />
  </g>
</svg>