<?xml version="1.0" encoding="utf-8"?>
<svg version="1.1" xmlns:xlink="http://www.w3.org/1999/xlink" width="21px" height="20px" preserveAspectRatio="xMinYMid meet" viewBox="1483 886  21 18" xmlns="http://www.w3.org/2000/svg">
  <path d="M 1492 895  L 1535 895  A 5 5 0 0 0 1540 890 L 1540 594  A 5 5 0 0 1 1545 589 L 1588 589  " stroke-width="2" stroke="#0066ff" fill="none" />
  <path d="M 1493.5 891.5  A 3.5 3.5 0 0 0 1490 895 A 3.5 3.5 0 0 0 1493.5 898.5 A 3.5 3.5 0 0 0 1497 895 A 3.5 3.5 0 0 0 1493.5 891.5 Z M 1580.6 597  L 1590 589  L 1580.6 581  L 1584.2 589  L 1580.6 597  Z " fill-rule="nonzero" fill="#0066ff" stroke="none" />
</svg>