<?xml version="1.0" encoding="utf-8"?>
<svg version="1.1" xmlns:xlink="http://www.w3.org/1999/xlink" width="897px" height="10px" preserveAspectRatio="xMinYMid meet" viewBox="823 106  897 8" xmlns="http://www.w3.org/2000/svg">
  <path d="M 828 303  L 828 115  A 5 5 0 0 1 833 110 L 1710 110  A 5 5 0 0 1 1715 115 L 1715 126  " stroke-width="2" stroke="#0066ff" fill="none" />
  <path d="M 828 298  A 3.5 3.5 0 0 0 824.5 301.5 A 3.5 3.5 0 0 0 828 305 A 3.5 3.5 0 0 0 831.5 301.5 A 3.5 3.5 0 0 0 828 298 Z M 1707 118.6  L 1715 128  L 1723 118.6  L 1715 122.2  L 1707 118.6  Z " fill-rule="nonzero" fill="#0066ff" stroke="none" />
</svg>