<?xml version="1.0" encoding="utf-8"?>
<svg version="1.1" xmlns:xlink="http://www.w3.org/1999/xlink" width="10px" height="1256px" preserveAspectRatio="xMidYMin meet" viewBox="1046 425  8 1256" xmlns="http://www.w3.org/2000/svg">
  <path d="M 997 445  L 997 435  A 5 5 0 0 1 1002 430 L 1045 430  A 5 5 0 0 1 1050 435 L 1050 1671  A 5 5 0 0 0 1055 1676 L 1113 1676  " stroke-width="2" stroke="#0066ff" fill="none" />
  <path d="M 997 440  A 3.5 3.5 0 0 0 993.5 443.5 A 3.5 3.5 0 0 0 997 447 A 3.5 3.5 0 0 0 1000.5 443.5 A 3.5 3.5 0 0 0 997 440 Z M 1105.6 1684  L 1115 1676  L 1105.6 1668  L 1109.2 1676  L 1105.6 1684  Z " fill-rule="nonzero" fill="#0066ff" stroke="none" />
</svg>