<?xml version="1.0" encoding="utf-8"?>
<svg version="1.1" xmlns:xlink="http://www.w3.org/1999/xlink" width="67px" height="10px" preserveAspectRatio="xMinYMid meet" viewBox="515 751  67 8" xmlns="http://www.w3.org/2000/svg">
  <path d="M 517 755  L 572 755  A 5 5 0 0 0 577 750 L 577 594  A 5 5 0 0 1 582 589 L 638 589  " stroke-width="2" stroke="#0066ff" fill="none" />
  <path d="M 518.5 751.5  A 3.5 3.5 0 0 0 515 755 A 3.5 3.5 0 0 0 518.5 758.5 A 3.5 3.5 0 0 0 522 755 A 3.5 3.5 0 0 0 518.5 751.5 Z M 630.6 597  L 640 589  L 630.6 581  L 634.2 589  L 630.6 597  Z " fill-rule="nonzero" fill="#0066ff" stroke="none" />
</svg>