<?xml version="1.0" encoding="utf-8"?>
<svg version="1.1" xmlns:xlink="http://www.w3.org/1999/xlink" width="34px" height="34px" preserveAspectRatio="xMinYMid meet" viewBox="1571 1660  34 32" xmlns="http://www.w3.org/2000/svg">
  <path d="M 1492 1982  L 1535 1982  A 5 5 0 0 0 1540 1977 L 1540 1681  A 5 5 0 0 1 1545 1676 L 1588 1676  " stroke-width="2" stroke="#0066ff" fill="none" />
  <path d="M 1493.5 1978.5  A 3.5 3.5 0 0 0 1490 1982 A 3.5 3.5 0 0 0 1493.5 1985.5 A 3.5 3.5 0 0 0 1497 1982 A 3.5 3.5 0 0 0 1493.5 1978.5 Z M 1580.6 1684  L 1590 1676  L 1580.6 1668  L 1584.2 1676  L 1580.6 1684  Z " fill-rule="nonzero" fill="#0066ff" stroke="none" />
</svg>