<?xml version="1.0" encoding="utf-8"?>
<svg version="1.1" xmlns:xlink="http://www.w3.org/1999/xlink" width="20px" height="19px" xmlns="http://www.w3.org/2000/svg">
  <g transform="matrix(1 0 0 1 -2940 -259 )">
    <path d="M 3.2701285491071492 1.3869319454545432  C 3.4913499999999997 1.2703192079545453  3.6575687500000003 1.2086324477272727  3.762206361607143 1.1785181818181818  C 3.8620472321428565 1.2503461272727272  4.045511428571428 1.4022210511363635  4.320136651785714 1.704225468181818  C 4.632793236607143 2.048076111363636  4.984006540178572 2.498552940909091  5.335882254464286 3.0069384454545456  C 6.048793191964286 4.037010102272728  6.472802857142858 4.87256517840909  6.570839241071429 5.151746385227273  C 6.548088950892858 5.305300455681819  6.451263169642857 5.465173451136365  6.285775379464286 5.727761957954546  C 6.0264312053571425 6.139264778409091  5.671266294642857 6.7028634625  5.671266294642857 7.488242820454546  C 5.671266294642857 7.77696865568182  5.671266294642857 8.655585180681818  8.158585602678572 11.038876953409092  C 8.771404397321428 11.626072147727273  9.402953348214286 12.166980168181821  9.936877053571429 12.561934506818181  C 10.747984263392855 13.161900097727273  11.284877388392857 13.4066144625  11.790020625000002 13.4066144625  C 12.505649709821432 13.4066144625  13.098367857142858 13.107879988636364  13.574639218750002 12.867871664772727  C 13.912010491071431 12.697835375  14.20605111607143 12.549672273863637  14.458314375000004 12.533057507954544  C 14.69776345982143 12.596202475  15.516979464285717 12.9700348375  16.793234151785718 13.831417952272727  C 17.31162553571429 14.181300296590909  17.811104040178577 14.550735929545453  18.199572075892863 14.87165288181818  C 18.501013415178576 15.120653517045453  18.67625459821429 15.2908444625  18.77344584821429 15.394355361363635  C 18.696423772321435 15.931883001136365  18.374973147321434 16.48675448863636  17.865261607142862 16.949537747727273  C 17.32204133928572 17.442722496590907  16.624365781250006 17.761407963636362  16.087860959821434 17.761407963636362  C 14.840135491071432 17.761407963636362  13.27164464285715 17.250150242045454  11.552010558035718 16.28293632840909  C 9.89308959821429 15.349879923863634  8.164044732142862 14.035965237499997  6.551789285714291 12.48325738522727  C 4.967994531250006 10.957968325  3.6189206250000057 9.322473845454542  2.6504343973214346 7.75361521590909  C 2.165780133928577 6.96852308181818  1.7923418973214345 6.223399174999999  1.540444107142863 5.538923613636362  C 1.2941653794642916 4.869692982954543  1.1692900446428631 4.274102034090907  1.1692900446428631 3.768655052272725  C 1.1692900446428631 3.564107767045452  1.260565312500006 3.3086777477272706  1.4332025446428633 3.0300268136363613  C 1.6237247991071488 2.7225430772727246  1.9052482142857206 2.4010295681818157  2.2473248660714344 2.100240330681816  C 2.5661943973214347 1.8198881624999976  2.9294452455357205 1.5665570818181795  3.2701285491071492 1.3869319454545432  Z M 3.8727143080357145 0.048956760227272744  C 2.7416183258928575 0.048956760227272744  0.02716158482142842 1.9908523647727272  0.02716158482142842 3.7686550306818187  C 0.02716158482142842 8.965300423863637  9.923697455357143 18.866113498863637  16.087815312500002 18.866113498863637  C 17.78433363839286 18.866113498863637  19.93345939732143 17.143015870454544  19.93345939732143 15.146437337500002  C 19.93345939732143 14.462735076136365  15.522324441964289 11.426827460227274  14.504294665178572 11.426827460227274  C 13.458215334821428 11.426827460227274  12.694664441964287 12.301908927272729  11.789974977678572 12.301908927272729  C 10.885057075892856 12.301908927272729  6.813326294642858 8.445536488636366  6.813326294642858 7.488242842045455  C 6.813326294642858 6.531059676136365  7.718129977678573 6.066111194318183  7.718129977678573 5.081531323863636  C 7.7181528125 4.3704102272727265  5.00371890625 0.048956760227272744  3.8727143080357145 0.048956760227272744  Z " fill-rule="nonzero" fill="#000000" stroke="none" transform="matrix(1 0 0 1 2940 259 )" />
  </g>
</svg>