<?xml version="1.0" encoding="utf-8"?>
<svg version="1.1" xmlns:xlink="http://www.w3.org/1999/xlink" width="20px" height="13px" xmlns="http://www.w3.org/2000/svg">
  <g transform="matrix(1 0 0 1 -3221 -706 )">
    <path d="M 14.069655172413793 6.184623376623377  L 18.528275862068966 9.509246753246753  L 18.471724137931034 3.123376623376623  L 14.069655172413793 6.184623376623377  Z M 13.27103448275862 5.083168831168833  L 17.67310344827586 2.0219220779220777  C 17.906447892720575 1.8596426634050094  18.185565909155798 1.7724612772869186  18.471771684145764 1.7724612772869186  C 19.229075058661167 1.7724612772869186  19.84474654659287 2.370354465963783  19.85103448275862 3.1118961038961044  L 19.907586206896553 9.497766233766233  C 19.907616972744083 9.501448995529653  19.907632355860855 9.505131865112  19.907632355860855 9.508814750097384  C 19.907632355860855 10.254757788829885  19.290094079765396 10.859464100746735  18.528322011033268 10.859464100746735  C 18.22660698205872 10.859464100746735  17.933214256920216 10.76259052311461  17.693103448275863 10.583688311688311  L 13.23379310344828 7.259064935064937  C 12.891231703076485 7.003612020344622  12.690150058289454 6.606163572672722  12.690150058289454 6.184525861074155  C 12.690150058289454 5.7469396763417055  12.906642766476955 5.336469441572656  13.27103448275862 5.083168831168833  Z M 11.903448275862068 1.3506493506493507  L 2.0689655172413794 1.3506493506493507  C 1.6880794828753152 1.3506493506493507  1.3793103448275863 1.6530025066077763  1.3793103448275863 2.0259740259740258  L 1.3793103448275863 10.834233766233766  C 1.3793103448275863 11.207205285600015  1.6880794828753152 11.509558441558442  2.0689655172413794 11.509558441558442  L 11.903448275862068 11.509558441558442  C 12.28433431022813 11.509558441558442  12.59310344827586 11.207205285600015  12.59310344827586 10.834233766233766  L 12.59310344827586 2.0259740259740258  C 12.59310344827586 1.6530025066077763  12.28433431022813 1.3506493506493507  11.903448275862068 1.3506493506493507  Z M 0 2.0259740259740258  C 0 0.9070594678752761  0.9263074141431858 0  2.0689655172413794 0  L 11.903448275862068 0  C 13.046106378960259 0  13.972413793103446 0.9070594678752761  13.972413793103446 2.0259740259740258  L 13.972413793103446 10.834233766233766  C 13.972413793103444 11.953148324332515  13.046106378960259 12.86020779220779  11.903448275862068 12.860207792207792  L 2.0689655172413794 12.86020779220779  C 0.9263074141431871 12.86020779220779  0 11.953148324332515  0 10.834233766233766  L 0 2.0259740259740258  Z " fill-rule="nonzero" fill="#ffffff" stroke="none" transform="matrix(1 0 0 1 3221 706 )" />
  </g>
</svg>