<?xml version="1.0" encoding="utf-8"?>
<svg version="1.1" xmlns:xlink="http://www.w3.org/1999/xlink" width="50px" height="42px" xmlns="http://www.w3.org/2000/svg">
  <defs>
    <mask fill="white" id="clip6683">
      <path d="M 0 35  L 0 0  L 50 0  L 50 35  L 7.591901058617932 35  L 4.701393706249582 42  L 1.6666666666666705 35  L 0 35  Z " fill-rule="evenodd" />
    </mask>
  </defs>
  <g transform="matrix(1 0 0 1 -302 -451 )">
    <path d="M 0 35  L 0 0  L 50 0  L 50 35  L 7.591901058617932 35  L 4.701393706249582 42  L 1.6666666666666705 35  L 0 35  Z " fill-rule="nonzero" fill="#999999" stroke="none" transform="matrix(1 0 0 1 302 451 )" />
    <path d="M 0 35  L 0 0  L 50 0  L 50 35  L 7.591901058617932 35  L 4.701393706249582 42  L 1.6666666666666705 35  L 0 35  Z " stroke-width="2" stroke="#999999" fill="none" transform="matrix(1 0 0 1 302 451 )" mask="url(#clip6683)" />
  </g>
</svg>