<?xml version="1.0" encoding="utf-8"?>
<svg version="1.1" xmlns:xlink="http://www.w3.org/1999/xlink" width="24px" height="24px" xmlns="http://www.w3.org/2000/svg">
  <g transform="matrix(1 0 0 1 -642 -1447 )">
    <path d="M 654 1447  C 660.72 1447  666 1452.28  666 1459  C 666 1465.72  660.72 1471  654 1471  C 647.28 1471  642 1465.72  642 1459  C 642 1452.28  647.28 1447  654 1447  Z " fill-rule="nonzero" fill="#ffffff" stroke="none" />
    <path d="M 654 1447.5  C 660.44 1447.5  665.5 1452.56  665.5 1459  C 665.5 1465.44  660.44 1470.5  654 1470.5  C 647.56 1470.5  642.5 1465.44  642.5 1459  C 642.5 1452.56  647.56 1447.5  654 1447.5  Z " stroke-width="1" stroke="#0066ff" fill="none" />
  </g>
</svg>