<?xml version="1.0" encoding="utf-8"?>
<svg version="1.1" xmlns:xlink="http://www.w3.org/1999/xlink" width="30px" height="26px" xmlns="http://www.w3.org/2000/svg">
  <g transform="matrix(1 0 0 1 -642 -1350 )">
    <path d="M 29.743421052631586 10.637886597938147  L 26.50986842105263 23.9729381443299  C 26.50986842105263 25.01494845360825  25.680921052631575 25.855927835051546  24.661184210526315 25.855927835051546  L 1.5625 25.855927835051546  L 4.796052631578948 10.637886597938147  C 4.796052631578948 9.599226804123713  5.618421052631579 8.754896907216496  6.641447368421054 9  L 27.89802631578948 9  C 28.91776315789474 8.754896907216496  29.743421052631586 9.599226804123713  29.743421052631586 10.637886597938147  Z M 3.407894736842105 9.220618556701034  C 3.407894736842105 8.18530927835052  4.2368421052631575 7.340979381443302  5.256578947368421 7.3409793814433  L 26.046052631578945 7.3409793814433  L 26.046052631578945 5.491494845360826  C 26.046052631578945 4.452835051546393  25.21710526315789 3.608505154639177  24.19736842105263 4  L 13.111842105263154 4  L 13.111842105263154 1.9030927835051559  C 13.111842105263154 0.8644329896907229  12.282894736842103 0.020103092783505916  11.263157894736839 0.020103092783505916  L 2.026315789473684 0.020103092783505916  C 1.0065789473684208 0.020103092783505916  0.17763157894736814 0.864432989690722  0.17763157894736814 1.903092783505155  L 0.17763157894736814 23.969587628865984  L 3.407894736842105 9.220618556701034  Z " fill-rule="nonzero" fill="#7f7f7f" stroke="none" transform="matrix(1 0 0 1 642 1350 )" />
  </g>
</svg>