<?xml version="1.0" encoding="utf-8"?>
<svg version="1.1" xmlns:xlink="http://www.w3.org/1999/xlink" width="34px" height="34px" preserveAspectRatio="xMinYMid meet" viewBox="600 1592  34 32" xmlns="http://www.w3.org/2000/svg">
  <path d="M 417 911  L 417 895  A 5 5 0 0 1 422 890 L 505 890  A 5 5 0 0 1 510 895 L 510 1603  A 5 5 0 0 0 515 1608 L 617 1608  " stroke-width="2" stroke="#0066ff" fill="none" />
  <path d="M 417 906  A 3.5 3.5 0 0 0 413.5 909.5 A 3.5 3.5 0 0 0 417 913 A 3.5 3.5 0 0 0 420.5 909.5 A 3.5 3.5 0 0 0 417 906 Z M 609.6 1616  L 619 1608  L 609.6 1600  L 613.2 1608  L 609.6 1616  Z " fill-rule="nonzero" fill="#0066ff" stroke="none" />
</svg>