<?xml version="1.0" encoding="utf-8"?>
<svg version="1.1" xmlns:xlink="http://www.w3.org/1999/xlink" width="34px" height="34px" preserveAspectRatio="xMinYMid meet" viewBox="1550 575  34 32" xmlns="http://www.w3.org/2000/svg">
  <path d="M 996 442  L 1276 442  A 5 5 0 0 1 1281 447 L 1281 586  A 5 5 0 0 0 1286 591 L 1567 591  " stroke-width="2" stroke="#0066ff" fill="none" />
  <path d="M 997.5 438.5  A 3.5 3.5 0 0 0 994 442 A 3.5 3.5 0 0 0 997.5 445.5 A 3.5 3.5 0 0 0 1001 442 A 3.5 3.5 0 0 0 997.5 438.5 Z M 1559.6 599  L 1569 591  L 1559.6 583  L 1563.2 591  L 1559.6 599  Z " fill-rule="nonzero" fill="#0066ff" stroke="none" />
</svg>