<?xml version="1.0" encoding="utf-8"?>
<svg version="1.1" xmlns:xlink="http://www.w3.org/1999/xlink" width="30px" height="25px" xmlns="http://www.w3.org/2000/svg">
  <g transform="matrix(1 0 0 1 -642 -368 )">
    <path d="M 28.810096153846153 5.717329545454544  C 29.603365384615383 6.498579545454544  30 7.433712121212118  30 8.522727272727273  L 30 21.022727272727273  C 30 22.111742424242422  29.603365384615383 23.046875  28.810096153846153 23.828125  C 28.016826923076923 24.609375  27.067307692307697 25  25.961538461538463 25  L 4.038461538461538 25  C 2.932692307692308 25  1.9831730769230773 24.609375  1.189903846153846 23.828125  C 0.39663461538461536 23.046875  0 22.111742424242422  0 21.022727272727273  L 0 3.9772727272727266  C 0 2.8882575757575717  0.39663461538461536 1.953125  1.189903846153846 1.171875  C 1.9831730769230773 0.390625  2.932692307692308 0  4.038461538461538 0  L 9.807692307692308 0  C 10.91346153846154 0  11.862980769230768 0.390625  12.65625 1.171875  C 13.449519230769232 1.953125  13.846153846153847 2.8882575757575717  13.846153846153847 3.9772727272727266  L 13.846153846153847 5  L 25.961538461538463 5  C 27.067307692307697 4.545454545454544  28.016826923076923 4.936079545454544  28.810096153846153 5.717329545454544  Z " fill-rule="nonzero" fill="#018bfe" stroke="none" transform="matrix(1 0 0 1 642 368 )" />
  </g>
</svg>