<?xml version="1.0" encoding="utf-8"?>
<svg version="1.1" xmlns:xlink="http://www.w3.org/1999/xlink" width="116px" height="98px" xmlns="http://www.w3.org/2000/svg">
  <g transform="matrix(1 0 0 1 -315 -395 )">
    <path d="M 115 8.25  C 115.25 4.225000000000001  111.97500000000001 0.9625000000000004  107.9625 1  L 8.0375 1  C 4.025 0.9625000000000004  0.75 4.225000000000001  1 8.25  L 1 73.225  C 0.75 77.2375  4.025 80.51249999999999  8.0375 80  L 44.9625 80  L 44.9625 88.29999999999998  C 44.9625 89.24999999999999  44.637499999999996 90.17499999999998  44.05 90.92499999999998  L 42.074999999999996 92.53749999999998  C 41.2375 93.22499999999998  40.925 94.33749999999998  41.287499999999994 95.36249999999998  C 41.64999999999999 96.38749999999999  42.58749999999999 97.04999999999998  43.68749999999999 97  L 72.32499999999999 97  C 73.4125 97.04999999999998  74.35 96.38749999999999  74.725 95.36249999999998  C 75.08749999999999 94.33749999999998  74.7875 93.22499999999998  73.9375 92.53749999999998  L 71.9625 90.92499999999998  C 71.375 90.17499999999998  71.05000000000001 89.24999999999999  71.05000000000001 88.29999999999998  L 71.05000000000001 80  L 107.97500000000001 80  C 111.98750000000001 80.51249999999999  115.2625 77.23749999999998  115 73.225  L 115 8.25  Z M 68.53750000000001 88.2875  C 68.53750000000001 89.8625  69.10000000000001 91.39999999999999  70.1125 92.6  C 70.1625 92.6625  70.225 92.71249999999999  70.27499999999999 92.76249999999999  L 72.35 94.44999999999999  L 72.3625 94.46249999999999  C 72.3625 94.475  72.35 94.51249999999999  72.35 94  L 43.6625 94  C 43.65 94.51249999999999  43.6375 94.475  43.6375 94.475  L 43.6625 94.44999999999999  L 45.737500000000004 92.76249999999999  C 45.800000000000004 92.71249999999999  45.85 92.6625  45.900000000000006 92.6  C 46.91250000000001 91.38749999999999  47.462500000000006 89.8625  47.462500000000006 88.2875  L 47.462500000000006 80  L 68.53750000000001 80  L 68.53750000000001 88.2875  Z M 112 8.25  L 112 73.225  C 112.75 75.8625  110.6 78.01249999999999  107.9625 78  L 8.0375 78  C 5.399999999999999 78.01249999999999  3.25 75.86249999999998  4 73.225  L 4 8.25  C 3.25 5.612500000000001  5.4 3.4624999999999986  8.0375 4  L 107.96249999999999 4  C 110.6 3.4624999999999986  112.74999999999999 5.612499999999997  112 8.25  Z " fill-rule="nonzero" fill="#2d2e2c" stroke="none" transform="matrix(1 0 0 1 315 395 )" />
  </g>
</svg>