<?xml version="1.0" encoding="utf-8"?>
<svg version="1.1" xmlns:xlink="http://www.w3.org/1999/xlink" width="98px" height="58px" xmlns="http://www.w3.org/2000/svg">
  <g transform="matrix(1 0 0 1 -324 -405 )">
    <path d="M 97 4.5  C 97.38749999999999 2.1750000000000007  95.48749999999998 0.2875000000000014  93.1625 1  L 4.837499999999999 1  C 2.5124999999999993 0.2875000000000014  0.6124999999999989 2.1750000000000007  1 4.512500000000003  L 1 52.912499999999994  C 0.6124999999999989 55.2375  2.5 57.13749999999999  4.837499999999999 57  L 93.1625 57  C 95.4875 57.13749999999999  97.38749999999999 55.249999999999986  97 52.912499999999994  L 97 4.5  Z M 94 4.5  L 94 52.900000000000006  C 94.88749999999999 53.85000000000001  94.11249999999998 54.625  93.1625 54  L 4.837499999999999 54  C 3.887499999999999 54.625  3.112499999999997 53.849999999999994  4 52.900000000000006  L 4 4.5  C 3.112499999999997 3.5500000000000007  3.8874999999999957 2.7749999999999986  4.837499999999999 3  L 93.1625 3  C 94.1125 2.7749999999999986  94.88749999999999 3.549999999999997  94 4.5  Z " fill-rule="nonzero" fill="#2d2e2c" stroke="none" transform="matrix(1 0 0 1 324 405 )" />
  </g>
</svg>