<?xml version="1.0" encoding="utf-8"?>
<svg version="1.1" xmlns:xlink="http://www.w3.org/1999/xlink" width="20px" height="17px" xmlns="http://www.w3.org/2000/svg">
  <g transform="matrix(1 0 0 1 -676 -320 )">
    <path d="M 19.872844827586206 1.4311224489795917  C 19.870689655172413 0.7329081632653064  19.306034482758623 0.16696428571428576  18.614224137931036 0.16696428571428576  L 1.3857758620689655 0.16696428571428576  C 0.6939655172413793 0.16696428571428576  0.12931034482758622 0.7329081632653064  0.12931034482758622 1.4311224489795917  L 0.12931034482758622 12.702295918367346  C 0.12931034482758622 13.398341836734692  0.6939655172413793 13.966454081632651  1.3857758620689655 13.966454081632651  L 7.752155172413793 13.966454081632651  L 7.752155172413793 15.317346938775508  C 7.752155172413793 15.482142857142854  7.696120689655172 15.642602040816323  7.594827586206896 15.77270408163265  L 7.254310344827585 16.05242346938775  C 7.1099137931034475 16.171683673469385  7.056034482758619 16.364668367346937  7.118534482758619 16.542474489795914  C 7.181034482758619 16.720280612244895  7.342672413793102 16.83520408163265  7.532327586206895 16.83520408163265  L 12.469827586206893 16.83520408163265  C 12.657327586206895 16.83520408163265  12.818965517241379 16.720280612244895  12.88362068965517 16.542474489795914  C 12.94612068965517 16.364668367346937  12.894396551724137 16.171683673469385  12.747844827586208 16.05242346938775  L 12.407327586206897 15.77270408163265  C 12.306034482758621 15.642602040816323  12.25 15.482142857142854  12.25 15.317346938775508  L 12.25 13.966454081632651  L 18.61637931034483 13.966454081632651  C 19.308189655172416 13.966454081632651  19.872844827586206 13.39834183673469  19.872844827586206 12.702295918367346  L 19.872844827586206 1.4311224489795917  Z M 11.816810344827589 15.31517857142857  C 11.816810344827589 15.588392857142857  11.913793103448278 15.855102040816323  12.088362068965516 16.063265306122446  C 12.096982758620689 16.07410714285714  12.107758620689655 16.082780612244896  12.116379310344827 16.09145408163265  L 12.47413793103448 16.384183673469384  L 12.476293103448274 16.386352040816323  C 12.476293103448274 16.388520408163266  12.47413793103448 16.39502551020408  12.47413793103448 16.397193877551018  L 7.52801724137931 16.397193877551018  C 7.525862068965516 16.39502551020408  7.523706896551725 16.388520408163266  7.523706896551725 16.388520408163266  L 7.52801724137931 16.384183673469384  L 7.885775862068966 16.09145408163265  C 7.8965517241379315 16.082780612244896  7.905172413793103 16.07410714285714  7.913793103448277 16.063265306122446  C 8.08836206896552 15.852933673469385  8.183189655172415 15.588392857142857  8.183189655172415 15.31517857142857  L 8.183189655172415 13.964285714285714  L 11.816810344827589 13.964285714285714  L 11.816810344827589 15.31517857142857  Z M 19.43965517241379 1.4311224489795917  L 19.439655172413794 12.702295918367346  C 19.439655172413794 13.15982142857143  19.068965517241377 13.532780612244895  18.614224137931036 13.532780612244895  L 1.3857758620689655 13.532780612244895  C 0.9310344827586204 13.532780612244895  0.5603448275862069 13.159821428571425  0.5603448275862069 12.702295918367346  L 0.5603448275862069 1.4311224489795917  C 0.5603448275862069 0.9735969387755103  0.9310344827586208 0.6006377551020405  1.3857758620689655 0.6006377551020405  L 18.614224137931032 0.6006377551020405  C 19.068965517241377 0.6006377551020405  19.43965517241379 0.9735969387755097  19.43965517241379 1.4311224489795917  Z " fill-rule="nonzero" fill="#2d2e2c" stroke="none" transform="matrix(1 0 0 1 676 320 )" />
  </g>
</svg>