<?xml version="1.0" encoding="utf-8"?>
<svg version="1.1" xmlns:xlink="http://www.w3.org/1999/xlink" width="16px" height="10px" xmlns="http://www.w3.org/2000/svg">
  <g transform="matrix(1 0 0 1 -678 -322 )">
    <path d="M 15.899999999999999 0.7758620689655172  C 15.899999999999999 0.3750000000000001  15.589795918367344 0.049568965517241624  15.210204081632652 0  L 0.7897959183673467 0  C 0.41020408163265293 0.049568965517241624  0.09999999999999983 0.3750000000000001  0.09999999999999983 0.7780172413793108  L 0.09999999999999983 9.122844827586206  C 0.09999999999999983 9.523706896551724  0.40816326530612246 9.851293103448274  0.7897959183673467 9.851293103448274  L 15.210204081632652 9.851293103448274  C 15.589795918367347 9.851293103448274  15.899999999999999 9.525862068965514  15.899999999999999 9.122844827586206  L 15.899999999999999 0.7758620689655172  Z M 15.491836734693877 0.7758620689655172  L 15.491836734693877 9.120689655172415  C 15.491836734693877 9.28448275862069  15.365306122448978 9.418103448275861  15.210204081632652 9.418103448275861  L 0.7897959183673467 9.418103448275861  C 0.6346938775510202 9.418103448275861  0.508163265306122 9.284482758620689  0.508163265306122 9.120689655172415  L 0.508163265306122 0.7758620689655172  C 0.508163265306122 0.6120689655172415  0.6346938775510197 0.47844827586206873  0.7897959183673467 0.47844827586206873  L 15.210204081632652 0.47844827586206873  C 15.36530612244898 0.47844827586206873  15.491836734693877 0.6120689655172409  15.491836734693877 0.7758620689655172  Z " fill-rule="nonzero" fill="#2d2e2c" stroke="none" transform="matrix(1 0 0 1 678 322 )" />
  </g>
</svg>