<?xml version="1.0" encoding="utf-8"?>
<svg version="1.1" xmlns:xlink="http://www.w3.org/1999/xlink" width="11px" height="16px" xmlns="http://www.w3.org/2000/svg">
  <g transform="matrix(1 0 0 1 -1374 -454 )">
    <path d="M 0.9749019540441183 8.448888895833337  L 0.9619607775735292 5.853333333333334  C 0.9619607775735292 3.64419433401016  2.7001493958775096 1.8533333333333337  4.844313718750001 1.8533333333333337  L 5.107450987132354 1.8533333333333337  C 5.718865627728373 1.892693379010934  6.3114699843634865 2.0865468328339545  6.83294117647059 2.4177777708333337  L 7.445490189338238 1.777777770833335  C 6.789583853433056 1.3205170641282793  6.030432378080953 1.0450022065488982  5.241176470588236 0.9777777708333343  L 5.241176470588236 0.4444444375000011  C 5.241176470588239 -0.7407407291666696  5.2411764705882335 1.6296296041666674  5.2411764705882335 0.4444444375000011  C 5.2411764705882335 0.19898455252162575  5.048044404905481 0  4.809803928308824 0  C 4.571563431491576 0  4.378431365808823 0.19898455252162517  4.378431365808823 0.4444444374999999  L 4.378431365808823 0.9866666666666678  C 3.3448668397456283 1.0920999491248002  2.374183296363916 1.5468320988248847  1.6176470588235283 2.2800000000000007  C 0.6639473011795667 3.202430511279671  0.11967768851561951 4.487846293137179  0.11215686948529438 5.8355555625000015  L 0.11215686948529438 9.337777770833336  L 0.9749019540441183 8.448888895833337  Z M 10.870588235294116 11.6355555625  L 10.870588235294118 11.626666666666667  L 9.662745104779415 9.573333333333334  C 9.623820214167209 9.5028607098485  9.60303109424725 9.423304089043471  9.60235294117647 9.342222229166667  L 9.60235294117647 6.008888895833333  C 9.601828017531416 5.252957212511663  9.439825953162622 4.5064088669834765  9.127843130514705 3.8222222291666674  L 8.472156869485296 4.5022222291666685  C 8.64631641210688 4.9842745674908  8.735430622388481 5.494523158655944  8.735294117647058 6.0088888958333335  L 8.735294117647058 9.333333333333334  C 8.73483364242755 9.576725926372808  8.800588085076974 9.815380130195162  8.925098045955883 10.022222229166669  L 10.132941176470588 12.08  L 1.108627457720588 12.08  L 0.24588235294117583 12.968888895833333  L 10.132941176470585 12.968888895833333  C 10.605694745622166 12.963535304669522  10.986204243466942 12.567162542188465  10.986204243466942 12.080053686977712  C 10.986204243466942 11.924000077347154  10.946329280398093 11.770696511709192  10.870588235294116 11.6355555625  Z M 6.142745104779411 13.777777770833334  C 6.142745104779411 14.514157437274392  5.563348898678085 15.111111104166667  4.848627457720587 15.111111104166667  C 4.13390601676309 15.111111104166667  3.5545098106617643 14.514157437274392  3.5545098106617643 13.777777770833334  L 2.6917647058823517 13.777777770833337  C 2.691880035664783 15.00499318637631  3.6575065975293217 15.99978483425407  4.848627447610292 15.99978483425407  C 6.039748297691264 15.99978483425407  7.005374859555803 15.00499318637631  7.005490189338234 13.777777770833334  L 6.142745104779411 13.777777770833334  Z " fill-rule="nonzero" fill="#333333" stroke="none" transform="matrix(1 0 0 1 1374 454 )" />
  </g>
</svg>