<?xml version="1.0" encoding="utf-8"?>
<svg version="1.1" xmlns:xlink="http://www.w3.org/1999/xlink" width="20px" height="17px" xmlns="http://www.w3.org/2000/svg">
  <g transform="matrix(1 0 0 1 -1377 -594 )">
    <path d="M 20 14.559820671052634  C 20 15.898081865131578  18.880555546875 16.983430797149122  17.5 17  L 2.5 17  C 1.119444453125 16.983430797149122  0 15.898081865131578  0 14.559820671052632  L 0 2.4396491228070176  C 0 1.1019181348684208  1.119444453125 0.016569202850877172  2.5 0.016569202850877172  L 6.083333339843749 0.01656920285087704  C 7.048355389573183 0.020951388709213512  7.924359208396938 0.555607805736899  8.333333339843751 1.389824561403509  L 8.85 2.4401793289473686  L 17.5 2.4401793289473686  C 18.880555546875 2.4401793289473686  20 3.5255282609649123  20 4.864319679824562  L 20 14.559820671052634  Z M 18.333333339843747 7.11030799013158  L 1.6666666601562499 7.110307990131579  L 1.6666666601562499 14.559820671052634  C 1.6666666601562499 15.00573100657895  2.04 15.367337242324563  2.5 15.367337223684212  L 17.5 15.367337223684212  C 17.96 15.367337223684212  18.333333339843747 15.005730987938598  18.333333339843747 14.559820671052634  L 18.333333339843747 7.11030799013158  Z M 1.6666666601562503 2.4401793289473694  L 1.6666666601562499 5.494214416666667  L 18.33333333984375 5.494214416666667  L 18.33333333984375 4.864319679824562  C 18.33333333984375 4.417879138157895  17.96 4.056272902412282  17.500000000000004 4.056272902412282  L 8.333333339843751 4.056272902412282  C 8.010921668912586 4.054309289157851  7.718707999538042 3.874790224877751  7.583333339843751 3.5955165712719306  L 6.841666660156251 2.0928888826754397  C 6.704860007431897 1.811215291136849  6.408632633175472 1.6314373921583416  6.083333339843751 1.6326627763157908  L 2.5 1.6326627763157908  C 2.04 1.6326627763157908  1.6666666601562503 1.9942690120614046  1.6666666601562503 2.4401793289473694  Z " fill-rule="nonzero" fill="#333333" stroke="none" transform="matrix(1 0 0 1 1377 594 )" />
  </g>
</svg>