<?xml version="1.0" encoding="utf-8"?>
<svg version="1.1" xmlns:xlink="http://www.w3.org/1999/xlink" width="13px" height="20px" xmlns="http://www.w3.org/2000/svg">
  <g transform="matrix(1 0 0 1 -1255 -592 )">
    <path d="M 1.1521568547794125 10.56111111979167  L 1.1368627371323528 7.316666666666668  C 1.1368627371323528 4.5552429175127  3.1910856496734206 2.3166666666666673  5.725098031250002 2.3166666666666673  L 6.036078439338236 2.3166666666666673  C 6.758659378224442 2.3658667237636672  7.459009981520484 2.608183541042443  8.075294117647061 3.022222213541667  L 8.799215678308826 2.2222222135416687  C 8.024053644966338 1.6506463301603491  7.126874628641126 1.3062527581861227  6.194117647058825 1.2222222135416678  L 6.194117647058825 0.5555555468750014  C 6.194117647058827 -0.9259259114583369  6.194117647058822 2.037037005208334  6.194117647058822 0.5555555468750014  C 6.194117647058822 0.24873069065203218  5.965870660342841 0  5.684313733455883 0  C 5.4027567826718625 0  5.174509795955881 0.24873069065203146  5.174509795955881 0.5555555468749999  L 5.174509795955881 1.2333333333333347  C 3.9530244469721056 1.3651249364060003  2.805852986611901 1.9335401235311058  1.9117647058823515 2.850000000000001  C 0.7846649923031241 4.003038139099589  0.14143726824573216 5.609807866421473  0.13254902757352974 7.294444453125002  L 0.13254902757352974 11.67222221354167  L 1.1521568547794125 10.56111111979167  Z M 12.847058823529409 14.544444453125001  L 12.847058823529412 14.533333333333333  L 11.419607851102944 11.966666666666669  C 11.373605707652155 11.878575887310625  11.349036747746752 11.779130111304339  11.348235294117647 11.677777786458334  L 11.348235294117647 7.511111119791666  C 11.347614929809856 6.566196515639579  11.156157944646733 5.633011083729346  10.78745097242647 4.777777786458334  L 10.012549027573533 5.627777786458336  C 10.21837394158086 6.2303432093635  10.323690735550024 6.8681539483199305  10.323529411764705 7.511111119791667  L 10.323529411764705 11.666666666666668  C 10.322985213778015 11.97090740796601  10.400695009636424 12.269225162743954  10.547843145220588 12.527777786458337  L 11.975294117647058 15  L 1.3101960863970585 15  L 0.29058823529411687 16  L 11.975294117647056 16  C 12.534002881189835 16.204419130836904  12.983695924097296 15.70895317773558  12.983695924097296 15.10006710872214  C 12.983695924097296 14.905000096683942  12.9365709677432 14.713370639636489  12.847058823529409 14.544444453125001  Z M 7.25960785110294 17.222222213541666  C 7.25960785110294 18.14269679659299  6.574866880255919 18.888888880208334  5.730196086397058 18.888888880208334  C 4.885525292538198 18.888888880208334  4.2007843216911755 18.14269679659299  4.2007843216911755 17.222222213541666  L 3.181176470588234 17.22222221354167  C 3.1813127694220165 18.75624148297039  4.322507797080108 19.999731042817587  5.730196074448528 19.999731042817587  C 7.137884351816949 19.999731042817587  8.27907937947504 18.75624148297039  8.279215678308821 17.222222213541666  L 7.25960785110294 17.222222213541666  Z " fill-rule="nonzero" fill="#ffffff" stroke="none" transform="matrix(1 0 0 1 1255 592 )" />
  </g>
</svg>