<?xml version="1.0" encoding="utf-8"?>
<svg version="1.1" xmlns:xlink="http://www.w3.org/1999/xlink" width="21px" height="20px" preserveAspectRatio="xMinYMid meet" viewBox="467 863  21 18" xmlns="http://www.w3.org/2000/svg">
  <path d="M 476 872  L 605 872  A 5 5 0 0 0 610 867 L 610 334  A 5 5 0 0 1 615 329 L 658 329  " stroke-width="2" stroke="#0066ff" fill="none" />
  <path d="M 477.5 868.5  A 3.5 3.5 0 0 0 474 872 A 3.5 3.5 0 0 0 477.5 875.5 A 3.5 3.5 0 0 0 481 872 A 3.5 3.5 0 0 0 477.5 868.5 Z M 650.6 337  L 660 329  L 650.6 321  L 654.2 329  L 650.6 337  Z " fill-rule="nonzero" fill="#0066ff" stroke="none" />
</svg>