<?xml version="1.0" encoding="utf-8"?>
<svg version="1.1" xmlns:xlink="http://www.w3.org/1999/xlink" width="34px" height="34px" preserveAspectRatio="xMinYMid meet" viewBox="3145 112  34 32" xmlns="http://www.w3.org/2000/svg">
  <path d="M 2124 226  L 2124 105  A 5 5 0 0 1 2129 100 L 3157 100  A 5 5 0 0 1 3162 105 L 3162 128  " stroke-width="2" stroke="#0066ff" fill="none" />
  <path d="M 2124 221  A 3.5 3.5 0 0 0 2120.5 224.5 A 3.5 3.5 0 0 0 2124 228 A 3.5 3.5 0 0 0 2127.5 224.5 A 3.5 3.5 0 0 0 2124 221 Z M 3154 120.6  L 3162 130  L 3170 120.6  L 3162 124.2  L 3154 120.6  Z " fill-rule="nonzero" fill="#0066ff" stroke="none" />
</svg>