<?xml version="1.0" encoding="utf-8"?>
<svg version="1.1" xmlns:xlink="http://www.w3.org/1999/xlink" width="10px" height="143px" preserveAspectRatio="xMidYMin meet" viewBox="1170 85  8 143" xmlns="http://www.w3.org/2000/svg">
  <path d="M 1174 226  L 1174 95  A 5 5 0 0 0 1169 90 L 791 90  A 5 5 0 0 0 786 95 L 786 128  " stroke-width="2" stroke="#0066ff" fill="none" />
  <path d="M 1174 221  A 3.5 3.5 0 0 0 1170.5 224.5 A 3.5 3.5 0 0 0 1174 228 A 3.5 3.5 0 0 0 1177.5 224.5 A 3.5 3.5 0 0 0 1174 221 Z M 778 120.6  L 786 130  L 794 120.6  L 786 124.2  L 778 120.6  Z " fill-rule="nonzero" fill="#0066ff" stroke="none" />
</svg>