<?xml version="1.0" encoding="utf-8"?>
<svg version="1.1" xmlns:xlink="http://www.w3.org/1999/xlink" width="1435px" height="10px" preserveAspectRatio="xMinYMid meet" viewBox="1319 1036  1435 8" xmlns="http://www.w3.org/2000/svg">
  <path d="M 2749 926  L 2749 1035  A 5 5 0 0 1 2744 1040 L 1329 1040  A 5 5 0 0 1 1324 1035 L 1324 999  " stroke-width="2" stroke="#0066ff" fill="none" />
  <path d="M 2749 924  A 3.5 3.5 0 0 0 2745.5 927.5 A 3.5 3.5 0 0 0 2749 931 A 3.5 3.5 0 0 0 2752.5 927.5 A 3.5 3.5 0 0 0 2749 924 Z M 1332 1006.4  L 1324 997  L 1316 1006.4  L 1324 1002.8  L 1332 1006.4  Z " fill-rule="nonzero" fill="#0066ff" stroke="none" />
</svg>