<?xml version="1.0" encoding="utf-8"?>
<svg version="1.1" xmlns:xlink="http://www.w3.org/1999/xlink" width="10px" height="18px" preserveAspectRatio="xMidYMin meet" viewBox="2270 997  8 18" xmlns="http://www.w3.org/2000/svg">
  <path d="M 1799 926  L 1799 1005  A 5 5 0 0 0 1804 1010 L 2269 1010  A 5 5 0 0 0 2274 1005 L 2274 999  " stroke-width="2" stroke="#0066ff" fill="none" />
  <path d="M 1799 924  A 3.5 3.5 0 0 0 1795.5 927.5 A 3.5 3.5 0 0 0 1799 931 A 3.5 3.5 0 0 0 1802.5 927.5 A 3.5 3.5 0 0 0 1799 924 Z M 2282 1006.4  L 2274 997  L 2266 1006.4  L 2274 1002.8  L 2282 1006.4  Z " fill-rule="nonzero" fill="#0066ff" stroke="none" />
</svg>