<?xml version="1.0" encoding="utf-8"?>
<svg version="1.1" xmlns:xlink="http://www.w3.org/1999/xlink" width="34px" height="34px" preserveAspectRatio="xMinYMid meet" viewBox="2542 575  34 32" xmlns="http://www.w3.org/2000/svg">
  <path d="M 2211 572  L 2211 565  A 5 5 0 0 1 2216 560 L 2545 560  A 5 5 0 0 1 2550 565 L 2550 586  A 5 5 0 0 0 2555 591 L 2559 591  " stroke-width="2" stroke="#0066ff" fill="none" />
  <path d="M 2211 567  A 3.5 3.5 0 0 0 2207.5 570.5 A 3.5 3.5 0 0 0 2211 574 A 3.5 3.5 0 0 0 2214.5 570.5 A 3.5 3.5 0 0 0 2211 567 Z M 2551.6 599  L 2561 591  L 2551.6 583  L 2555.2 591  L 2551.6 599  Z " fill-rule="nonzero" fill="#0066ff" stroke="none" />
</svg>