<?xml version="1.0" encoding="utf-8"?>
<svg version="1.1" xmlns:xlink="http://www.w3.org/1999/xlink" width="56px" height="10px" preserveAspectRatio="xMinYMid meet" viewBox="1080 587  56 8" xmlns="http://www.w3.org/2000/svg">
  <path d="M 1037 329  L 1080 329  A 5 5 0 0 1 1085 334 L 1085 586  A 5 5 0 0 0 1090 591 L 1134 591  " stroke-width="2" stroke="#0066ff" fill="none" />
  <path d="M 1038.5 325.5  A 3.5 3.5 0 0 0 1035 329 A 3.5 3.5 0 0 0 1038.5 332.5 A 3.5 3.5 0 0 0 1042 329 A 3.5 3.5 0 0 0 1038.5 325.5 Z M 1126.6 599  L 1136 591  L 1126.6 583  L 1130.2 591  L 1126.6 599  Z " fill-rule="nonzero" fill="#0066ff" stroke="none" />
</svg>