<?xml version="1.0" encoding="utf-8"?>
<svg version="1.1" xmlns:xlink="http://www.w3.org/1999/xlink" width="16px" height="20px" xmlns="http://www.w3.org/2000/svg">
  <g transform="matrix(1 0 0 1 -657 -916 )">
    <path d="M 0 3.333333333333333  L 0 0  L 16 0  L 16 3.333333333333333  L 0 3.333333333333333  Z M 7 17.5  L 7 3.333333333333333  L 9 3.333333333333333  L 9 17.5  L 7 17.5  Z M 3.3684210526315788 20  L 3.3684210526315788 17.5  L 12.631578947368421 17.5  L 12.631578947368421 20  L 3.3684210526315788 20  Z M 13.473684210526315 6.666666666666666  L 13.473684210526315 3.333333333333333  L 16 3.333333333333333  L 16 6.666666666666666  L 13.473684210526315 6.666666666666666  Z M 0 6.666666666666666  L 0 3.333333333333333  L 2.526315789473684 3.333333333333333  L 2.526315789473684 6.666666666666666  L 0 6.666666666666666  Z " fill-rule="nonzero" fill="#5866d0" stroke="none" transform="matrix(1 0 0 1 657 916 )" />
  </g>
</svg>