<?xml version="1.0" encoding="utf-8"?>
<svg version="1.1" xmlns:xlink="http://www.w3.org/1999/xlink" width="8px" height="10px" xmlns="http://www.w3.org/2000/svg">
  <g transform="matrix(1 0 0 1 -671 -926 )">
    <path d="M 0 1.6666666666666665  L 0 0  L 8 0  L 8 1.6666666666666665  L 0 1.6666666666666665  Z M 3.5555555555555554 8.333333333333334  L 3.5555555555555554 1.6666666666666665  L 4.444444444444445 1.6666666666666665  L 4.444444444444445 8.333333333333334  L 3.5555555555555554 8.333333333333334  Z M 1.7777777777777777 10  L 1.7777777777777777 8.333333333333334  L 6.222222222222222 8.333333333333334  L 6.222222222222222 10  L 1.7777777777777777 10  Z M 7.111111111111111 3.333333333333333  L 7.111111111111111 1.6666666666666665  L 8 1.6666666666666665  L 8 3.333333333333333  L 7.111111111111111 3.333333333333333  Z M 0 3.333333333333333  L 0 1.6666666666666665  L 0.8888888888888888 1.6666666666666665  L 0.8888888888888888 3.333333333333333  L 0 3.333333333333333  Z " fill-rule="nonzero" fill="#f17254" stroke="none" transform="matrix(1 0 0 1 671 926 )" />
  </g>
</svg>