<?xml version="1.0" encoding="utf-8"?>
<svg version="1.1" xmlns:xlink="http://www.w3.org/1999/xlink" width="55px" height="10px" preserveAspectRatio="xMinYMid meet" viewBox="535 426  55 8" xmlns="http://www.w3.org/2000/svg">
  <path d="M 537 430  L 580 430  A 5 5 0 0 1 585 435 L 585 606  A 5 5 0 0 0 590 611 L 633 611  " stroke-width="2" stroke="#0066ff" fill="none" />
  <path d="M 538.5 426.5  A 3.5 3.5 0 0 0 535 430 A 3.5 3.5 0 0 0 538.5 433.5 A 3.5 3.5 0 0 0 542 430 A 3.5 3.5 0 0 0 538.5 426.5 Z M 625.6 619  L 635 611  L 625.6 603  L 629.2 611  L 625.6 619  Z " fill-rule="nonzero" fill="#0066ff" stroke="none" />
</svg>