<?xml version="1.0" encoding="utf-8"?>
<svg version="1.1" xmlns:xlink="http://www.w3.org/1999/xlink" width="10px" height="17px" xmlns="http://www.w3.org/2000/svg">
  <g transform="matrix(1 0 0 1 -600 -370 )">
    <path d="M 9.665178571428571 16.326450892857142  C 9.53125 16.383370535714285  9.397321428571429 16.44029017857143  9.296875 16.44029017857143  C 9.16294642857143 16.44029017857143  9.02901785714286 16.411830357142858  8.928571428571429 16.326450892857142  L 0.2566964285714298 8.926897321428571  C 0.12276785714285779 8.813058035714286  0.055803571428572694 8.642299107142858  0.055803571428572694 8.5  C 0.055803571428572694 8.357700892857142  0.12276785714285779 8.186941964285715  0.2566964285714298 8.073102678571429  L 8.928571428571429 0.6735491071428571  C 9.129464285714286 0.5027901785714286  9.430803571428571 0.5027901785714286  9.631696428571429 0.6735491071428571  C 9.832589285714288 0.8443080357142857  9.832589285714288 1.1004464285714286  9.631696428571429 1.2712053571428572  L 1.1607142857142858 8.5  L 9.665178571428571 15.728794642857142  C 9.866071428571429 15.899553571428571  9.866071428571429 16.155691964285715  9.665178571428571 16.326450892857142  Z " fill-rule="nonzero" fill="#f44944" stroke="none" transform="matrix(1 0 0 1 600 370 )" />
  </g>
</svg>