<?xml version="1.0" encoding="utf-8"?>
<svg version="1.1" xmlns:xlink="http://www.w3.org/1999/xlink" width="128px" height="90px" xmlns="http://www.w3.org/2000/svg">
  <g transform="matrix(1 0 0 1 -851 -491 )">
    <path d="M 64 64.2  C 71.06920000000001 64.2  76.80000000000001 69.9308  76.80000000000001 77  C 76.80000000000001 84.06920000000001  71.06920000000001 89.8  64 89.8  C 56.930800000000005 89.8  51.2 84.06920000000001  51.2 77  C 51.2 69.9308  56.930800000000005 64.2  64 64.2  Z M 97.3306 58.9126  L 104.1318 52.1114  C 105.4248 50.81840000000001  105.38080000000001 48.69840000000001  104.019 47.477999999999994  C 81.2604 27.080999999999996  46.713800000000006 27.1042  23.98100000000001 47.477999999999994  C 22.619200000000006 48.698399999999985  22.57520000000001 50.8184  23.86820000000001 52.1114  L 30.66940000000001 58.9126  C 31.854800000000008 60.098  33.76220000000001 60.17659999999999  35.02320000000001 59.0718  C 51.59920000000001 44.55  76.43800000000002 44.58239999999999  92.97680000000001 59.0718  C 94.23780000000001 60.17659999999999  96.1452 60.09819999999999  97.3306 58.9126  Z M 119.7604 36.161  L 126.55380000000001 29.367799999999992  C 127.83080000000001 28.0908  127.80460000000001 26.004599999999996  126.4838 24.773199999999996  C 91.33019999999999 -7.998800000000009  36.657 -7.986800000000008  1.5163999999999989 24.773199999999996  C 0.19559999999999872 26.004599999999996  0.16939999999999866 28.09099999999999  1.4463999999999988 29.367799999999992  L 8.2396 36.161  C 9.458599999999999 37.38  11.4178 37.4072  12.6844 36.2376  C 41.637 9.503999999999998  86.35560000000001 9.4972  115.3156 36.2376  C 116.5822 37.4072  118.54140000000001 37.38  119.7604 36.161  Z " fill-rule="nonzero" fill="#999999" stroke="none" transform="matrix(1 0 0 1 851 491 )" />
  </g>
</svg>