<?xml version="1.0" encoding="utf-8"?>
<svg version="1.1" xmlns:xlink="http://www.w3.org/1999/xlink" width="18px" height="18px" xmlns="http://www.w3.org/2000/svg">
  <g transform="matrix(1 0 0 1 -695 -910 )">
    <path d="M 704 910  C 709.04 910  713 913.96  713 919  C 713 924.04  709.04 928  704 928  C 698.96 928  695 924.04  695 919  C 695 913.96  698.96 910  704 910  Z " fill-rule="nonzero" fill="#ffffff" stroke="none" />
    <path d="M 704 910.5  C 708.76 910.5  712.5 914.24  712.5 919  C 712.5 923.76  708.76 927.5  704 927.5  C 699.24 927.5  695.5 923.76  695.5 919  C 695.5 914.24  699.24 910.5  704 910.5  Z " stroke-width="1" stroke="#0066ff" fill="none" />
  </g>
</svg>