<?xml version="1.0" encoding="utf-8"?>
<svg version="1.1" xmlns:xlink="http://www.w3.org/1999/xlink" width="39px" height="30px" xmlns="http://www.w3.org/2000/svg">
  <g transform="matrix(1 0 0 1 -747 -593 )">
    <path d="M 25.998549107142857 16.95348837209302  C 25.998549107142857 13.356104651162788  23.090959821428573 10.443313953488369  19.5 10.443313953488373  C 15.909040178571429 10.443313953488373  13.001450892857143 13.36046511627907  13.001450892857143 16.95348837209302  C 13.001450892857143 20.550872093023255  15.91339285714286 23.46366279069767  19.5 23.46366279069767  C 23.090959821428573 23.46366279069767  25.998549107142857 20.546511627906973  25.998549107142857 16.95348837209302  Z M 39 6.536337209302324  C 39.00000000000001 5.097383720930232  37.83783482142857 3.9287790697674403  36.40145089285714 3.9287790697674425  L 28.601450892857144 3.9287790697674425  L 26.002901785714286 0  L 13.001450892857143 0  L 10.402901785714286 3.9287790697674425  L 2.598549107142857 3.9287790697674425  C 1.1621651785714286 3.9287790697674425  0 5.093023255813954  0 6.531976744186047  L 0 27.370639534883725  C 0 28.809593023255815  1.1621651785714286 29.97383720930233  2.598549107142857 30  L 36.39709821428572 30  C 37.83348214285714 29.97383720930233  38.99564732142857 28.809593023255815  39 27.370639534883725  L 39 6.536337209302324  Z M 27.948549107142856 16.95348837209302  C 27.948549107142856 21.627906976744182  24.166071428571428 25.417151162790695  19.5 25.417151162790695  C 14.833928571428572 25.417151162790695  11.05145089285714 21.627906976744185  11.05145089285714 16.95348837209302  C 11.05145089285714 12.279069767441857  14.833928571428572 8.489825581395348  19.5 8.489825581395348  C 24.166071428571428 8.489825581395348  27.948549107142856 12.279069767441863  27.948549107142856 16.95348837209302  Z M 33.80290178571429 7.186046511627907  C 33.80290178571429 7.905523255813954  33.21964285714286 8.489825581395348  32.50145089285714 8.489825581395348  C 31.783258928571428 8.489825581395348  31.200000000000003 7.905523255813954  31.200000000000003 7.186046511627907  C 31.200000000000003 6.466569767441861  31.783258928571428 5.882267441860467  32.50145089285714 5.882267441860467  C 33.21964285714286 5.882267441860467  33.80290178571429 6.466569767441861  33.80290178571429 7.186046511627907  Z " fill-rule="nonzero" fill="#7f7f7f" stroke="none" transform="matrix(1 0 0 1 747 593 )" />
  </g>
</svg>