<?xml version="1.0" encoding="utf-8"?>
<svg version="1.1" xmlns:xlink="http://www.w3.org/1999/xlink" width="10px" height="85px" preserveAspectRatio="xMidYMin meet" viewBox="2281 75  8 85" xmlns="http://www.w3.org/2000/svg">
  <path d="M 678 254  L 678 85  A 5 5 0 0 1 683 80 L 2280 80  A 5 5 0 0 1 2285 85 L 2285 158  " stroke-width="2" stroke="#0066ff" fill="none" />
  <path d="M 678 249  A 3.5 3.5 0 0 0 674.5 252.5 A 3.5 3.5 0 0 0 678 256 A 3.5 3.5 0 0 0 681.5 252.5 A 3.5 3.5 0 0 0 678 249 Z M 2277 150.6  L 2285 160  L 2293 150.6  L 2285 154.2  L 2277 150.6  Z " fill-rule="nonzero" fill="#0066ff" stroke="none" />
</svg>