<?xml version="1.0" encoding="utf-8"?>
<svg version="1.1" xmlns:xlink="http://www.w3.org/1999/xlink" width="10px" height="18px" preserveAspectRatio="xMidYMin meet" viewBox="577 581  8 18" xmlns="http://www.w3.org/2000/svg">
  <path d="M 526 594  L 577 594  A 4 4 0 0 0 581 590 A 4 4 0 0 1 585 586 L 637 586  " stroke-width="2" stroke="#0066ff" fill="none" />
  <path d="M 527.5 590.5  A 3.5 3.5 0 0 0 524 594 A 3.5 3.5 0 0 0 527.5 597.5 A 3.5 3.5 0 0 0 531 594 A 3.5 3.5 0 0 0 527.5 590.5 Z M 629.6 594  L 639 586  L 629.6 578  L 633.2 586  L 629.6 594  Z " fill-rule="nonzero" fill="#0066ff" stroke="none" />
</svg>