<?xml version="1.0" encoding="utf-8"?>
<svg version="1.1" xmlns:xlink="http://www.w3.org/1999/xlink" width="65px" height="10px" preserveAspectRatio="xMinYMid meet" viewBox="1695 1695  65 8" xmlns="http://www.w3.org/2000/svg">
  <path d="M 1640 1400  L 1640 1385  A 5 5 0 0 1 1645 1380 L 1695 1380  A 5 5 0 0 1 1700 1385 L 1700 1694  A 5 5 0 0 0 1705 1699 L 1758 1699  " stroke-width="2" stroke="#0066ff" fill="none" />
  <path d="M 1640 1395  A 3.5 3.5 0 0 0 1636.5 1398.5 A 3.5 3.5 0 0 0 1640 1402 A 3.5 3.5 0 0 0 1643.5 1398.5 A 3.5 3.5 0 0 0 1640 1395 Z M 1750.6 1707  L 1760 1699  L 1750.6 1691  L 1754.2 1699  L 1750.6 1707  Z " fill-rule="nonzero" fill="#0066ff" stroke="none" />
</svg>