<?xml version="1.0" encoding="utf-8"?>
<svg version="1.1" xmlns:xlink="http://www.w3.org/1999/xlink" width="101px" height="10px" preserveAspectRatio="xMinYMid meet" viewBox="2087 3919  101 8" xmlns="http://www.w3.org/2000/svg">
  <path d="M 2089 3923  L 2178 3923  A 5 5 0 0 0 2183 3918 L 2183 3871  A 5 5 0 0 1 2188 3866 L 2278 3866  " stroke-width="2" stroke="#0066ff" fill="none" />
  <path d="M 2090.5 3919.5  A 3.5 3.5 0 0 0 2087 3923 A 3.5 3.5 0 0 0 2090.5 3926.5 A 3.5 3.5 0 0 0 2094 3923 A 3.5 3.5 0 0 0 2090.5 3919.5 Z M 2270.6 3874  L 2280 3866  L 2270.6 3858  L 2274.2 3866  L 2270.6 3874  Z " fill-rule="nonzero" fill="#0066ff" stroke="none" />
</svg>