<?xml version="1.0" encoding="utf-8"?>
<svg version="1.1" xmlns:xlink="http://www.w3.org/1999/xlink" width="10px" height="60px" preserveAspectRatio="xMidYMin meet" viewBox="2632 3868  8 60" xmlns="http://www.w3.org/2000/svg">
  <path d="M 2564 3923  L 2631 3923  A 5 5 0 0 0 2636 3918 L 2636 3878  A 5 5 0 0 1 2641 3873 L 2708 3873  " stroke-width="2" stroke="#0066ff" fill="none" />
  <path d="M 2565.5 3919.5  A 3.5 3.5 0 0 0 2562 3923 A 3.5 3.5 0 0 0 2565.5 3926.5 A 3.5 3.5 0 0 0 2569 3923 A 3.5 3.5 0 0 0 2565.5 3919.5 Z M 2700.6 3881  L 2710 3873  L 2700.6 3865  L 2704.2 3873  L 2700.6 3881  Z " fill-rule="nonzero" fill="#0066ff" stroke="none" />
</svg>