<?xml version="1.0" encoding="utf-8"?>
<svg version="1.1" xmlns:xlink="http://www.w3.org/1999/xlink" width="79px" height="10px" preserveAspectRatio="xMinYMid meet" viewBox="2631 2782  79 8" xmlns="http://www.w3.org/2000/svg">
  <path d="M 2564 2836  L 2631 2836  A 5 5 0 0 0 2636 2831 L 2636 2791  A 5 5 0 0 1 2641 2786 L 2708 2786  " stroke-width="2" stroke="#0066ff" fill="none" />
  <path d="M 2565.5 2832.5  A 3.5 3.5 0 0 0 2562 2836 A 3.5 3.5 0 0 0 2565.5 2839.5 A 3.5 3.5 0 0 0 2569 2836 A 3.5 3.5 0 0 0 2565.5 2832.5 Z M 2700.6 2794  L 2710 2786  L 2700.6 2778  L 2704.2 2786  L 2700.6 2794  Z " fill-rule="nonzero" fill="#0066ff" stroke="none" />
</svg>