<?xml version="1.0" encoding="utf-8"?>
<svg version="1.1" xmlns:xlink="http://www.w3.org/1999/xlink" width="79px" height="10px" preserveAspectRatio="xMinYMid meet" viewBox="2156 2782  79 8" xmlns="http://www.w3.org/2000/svg">
  <path d="M 2089 2836  L 2156 2836  A 5 5 0 0 0 2161 2831 L 2161 2791  A 5 5 0 0 1 2166 2786 L 2233 2786  " stroke-width="2" stroke="#0066ff" fill="none" />
  <path d="M 2090.5 2832.5  A 3.5 3.5 0 0 0 2087 2836 A 3.5 3.5 0 0 0 2090.5 2839.5 A 3.5 3.5 0 0 0 2094 2836 A 3.5 3.5 0 0 0 2090.5 2832.5 Z M 2225.6 2794  L 2235 2786  L 2225.6 2778  L 2229.2 2786  L 2225.6 2794  Z " fill-rule="nonzero" fill="#0066ff" stroke="none" />
</svg>