<?xml version="1.0" encoding="utf-8"?>
<svg version="1.1" xmlns:xlink="http://www.w3.org/1999/xlink" width="34px" height="34px" preserveAspectRatio="xMinYMid meet" viewBox="1741 596  34 32" xmlns="http://www.w3.org/2000/svg">
  <path d="M 1645.9193953882636 259.68294196961574  A 2 2 0 0 0 1647 260 L 1697 260  A 5 5 0 0 1 1702 265 L 1702 607  A 5 5 0 0 0 1707 612 L 1758 612  " stroke-width="2" stroke="#0066ff" fill="none" />
  <path d="M 1647.35840734641 256.5  A 3.5 3.5 0 0 0 1643.85840734641 260 A 3.5 3.5 0 0 0 1647.35840734641 263.5 A 3.5 3.5 0 0 0 1650.85840734641 260 A 3.5 3.5 0 0 0 1647.35840734641 256.5 Z M 1750.6 620  L 1760 612  L 1750.6 604  L 1754.2 612  L 1750.6 620  Z " fill-rule="nonzero" fill="#0066ff" stroke="none" />
</svg>