<?xml version="1.0" encoding="utf-8"?>
<svg version="1.1" xmlns:xlink="http://www.w3.org/1999/xlink" width="93px" height="10px" preserveAspectRatio="xMinYMid meet" viewBox="3567 3869  93 8" xmlns="http://www.w3.org/2000/svg">
  <path d="M 3487 4098  L 3567 4098  A 5 5 0 0 0 3572 4093 L 3572 3878  A 5 5 0 0 1 3577 3873 L 3658 3873  " stroke-width="2" stroke="#0066ff" fill="none" />
  <path d="M 3488.5 4094.5  A 3.5 3.5 0 0 0 3485 4098 A 3.5 3.5 0 0 0 3488.5 4101.5 A 3.5 3.5 0 0 0 3492 4098 A 3.5 3.5 0 0 0 3488.5 4094.5 Z M 3650.6 3881  L 3660 3873  L 3650.6 3865  L 3654.2 3873  L 3650.6 3881  Z " fill-rule="nonzero" fill="#0066ff" stroke="none" />
</svg>