<?xml version="1.0" encoding="utf-8"?>
<svg version="1.1" xmlns:xlink="http://www.w3.org/1999/xlink" width="10px" height="229px" preserveAspectRatio="xMidYMin meet" viewBox="582 387  8 229" xmlns="http://www.w3.org/2000/svg">
  <path d="M 535 392  L 581 392  A 5 5 0 0 1 586 397 L 586 606  A 5 5 0 0 0 591 611 L 638 611  " stroke-width="2" stroke="#0066ff" fill="none" />
  <path d="M 536.5 388.5  A 3.5 3.5 0 0 0 533 392 A 3.5 3.5 0 0 0 536.5 395.5 A 3.5 3.5 0 0 0 540 392 A 3.5 3.5 0 0 0 536.5 388.5 Z M 630.6 619  L 640 611  L 630.6 603  L 634.2 611  L 630.6 619  Z " fill-rule="nonzero" fill="#0066ff" stroke="none" />
</svg>