<?xml version="1.0" encoding="utf-8"?>
<svg version="1.1" xmlns:xlink="http://www.w3.org/1999/xlink" width="50px" height="50px" xmlns="http://www.w3.org/2000/svg">
  <g transform="matrix(1 0 0 1 -2031 -548 )">
    <path d="M 46.875 25  C 46.875 12.812499999999998  37.1875 3.125  25 3.125  C 12.812499999999998 3.125  3.125 12.812499999999998  3.125 25  C 3.125 37.1875  12.812499999999998 46.875  25 46.875  C 37.1875 46.875  46.875 37.1875  46.875 25  Z M 0 25  C 0 11.249999999999998  11.25 0  25 0  C 38.75 0  50 11.25  50 25  C 50 38.75  38.75 50  25 50  C 11.249999999999998 50  0 38.75  0 25  Z M 23 12.5  C 22.5 11.25  23.75 10  25 10  C 26.25 10  27.500000000000004 10.9375  27 12.5  L 27 29.6875  C 27.500000000000004 30.9375  26.5625 32.1875  25 32.1875  C 23.4375 32.1875  22.5 31.25  23 29.6875  L 23 12.5  Z M 27.500000000000004 37.5  C 27.500000000000004 39.0625  26.25 40  25 40  C 23.75 40  22.5 39.0625  22.5 37.5  C 22.5 35.9375  23.4375 35  25 35  C 26.5625 35  27.500000000000004 35.9375  27.500000000000004 37.5  Z " fill-rule="nonzero" fill="#ffffff" stroke="none" transform="matrix(1 0 0 1 2031 548 )" />
  </g>
</svg>