<?xml version="1.0" encoding="utf-8"?>
<svg version="1.1" xmlns:xlink="http://www.w3.org/1999/xlink" width="10px" height="6px" preserveAspectRatio="xMinYMid meet" viewBox="745 1586  10 4" xmlns="http://www.w3.org/2000/svg">
  <path d="M 751 1590  L 803 1590  A 5 5 0 0 1 808 1595 L 808 1783  A 5 5 0 0 0 813 1788 L 865 1788  " stroke-width="2" stroke="#0066ff" fill="none" />
  <path d="M 752.929203673205 1586.5  A 3.5 3.5 0 0 0 749.429203673205 1590 A 3.5 3.5 0 0 0 752.929203673205 1593.5 A 3.5 3.5 0 0 0 756.429203673205 1590 A 3.5 3.5 0 0 0 752.929203673205 1586.5 Z M 857.6 1796  L 867 1788  L 857.6 1780  L 861.2 1788  L 857.6 1796  Z " fill-rule="nonzero" fill="#0066ff" stroke="none" />
</svg>