<?xml version="1.0" encoding="utf-8"?>
<svg version="1.1" xmlns:xlink="http://www.w3.org/1999/xlink" width="17px" height="20px" xmlns="http://www.w3.org/2000/svg">
  <g transform="matrix(1 0 0 1 -3442 -428 )">
    <path d="M 10.748062343181818 13.831937984496124  L 10.749475332954546 13.831937984496124  C 10.787625979545457 13.809258023255813  11.208696120454546 13.559778507751938  11.331625979545455 13.490321143410853  C 11.526039240660104 13.375533233756723  11.727032435501433 13.272349253672838  11.933558444318184 13.181306763565889  C 13.253288322727274 12.611472868217053  14.417589615909092 13.014042093023255  15.956332464772728 14.719291259689921  C 16.908685717045454 15.775326705426355  17.18987012159091 16.712292364341085  16.822493514772727 17.545780736434107  C 16.54837403977273 18.169479515503873  16.021329878409095 18.60039868217054  15.081693514772729 19.131960135658915  C 15.020935070454549 19.16598007751938  14.481174039772728 19.46365449612403  14.341288303409092 19.545869321705425  C 12.15681038409091 20.824451821705424  7.1463584250000025 17.89590253875969  3.54324155568182 12.892137325581391  C -0.06835325227272726 7.877032112403101  -1.003750646590909 2.5288150581395348  1.211812989772727 1.2303875968992248  L 1.5043012931818178 1.054617945736434  L 1.8208103840909091 0.8590033139534885  C 2.941309090909091 0.17151715116279082  3.6576934954545455 -0.10205980620155027  4.5068987068181805 0.034019941860465246  C 5.356103898863636 0.1715171705426358  6.0781402625 0.768283507751938  6.688550646590908 1.8526688759689924  C 7.977194807954545 4.147596899224807  7.691771434090908 5.236234767441861  6.035750646590909 6.225647848837209  C 5.9170597375 6.297940213178293  5.4945766261363636 6.5403322286821695  5.4536 6.564429670542635  C 5.048072727272727 6.802569205426357  5.736197394318182 8.398671085271317  7.334285717045454 10.618471763565891  C 8.952155838636363 12.862369883720932  10.305797394318182 14.089922480620153  10.748062343181818 13.831937984496124  Z " fill-rule="nonzero" fill="#949494" stroke="none" transform="matrix(1 0 0 1 3442 428 )" />
  </g>
</svg>