<?xml version="1.0" encoding="utf-8"?>
<svg version="1.1" xmlns:xlink="http://www.w3.org/1999/xlink" width="34px" height="34px" preserveAspectRatio="xMinYMid meet" viewBox="1171 625  34 32" xmlns="http://www.w3.org/2000/svg">
  <path d="M 1074 285  L 1074 275  A 5 5 0 0 1 1079 270 L 1135 270  A 5 5 0 0 1 1140 275 L 1140 636  A 5 5 0 0 0 1145 641 L 1188 641  " stroke-width="2" stroke="#0066ff" fill="none" />
  <path d="M 1074 280  A 3.5 3.5 0 0 0 1070.5 283.5 A 3.5 3.5 0 0 0 1074 287 A 3.5 3.5 0 0 0 1077.5 283.5 A 3.5 3.5 0 0 0 1074 280 Z M 1180.6 649  L 1190 641  L 1180.6 633  L 1184.2 641  L 1180.6 649  Z " fill-rule="nonzero" fill="#0066ff" stroke="none" />
</svg>