<?xml version="1.0" encoding="utf-8"?>
<svg version="1.1" xmlns:xlink="http://www.w3.org/1999/xlink" width="21px" height="20px" preserveAspectRatio="xMinYMid meet" viewBox="1558 879  21 18" xmlns="http://www.w3.org/2000/svg">
  <path d="M 1567 888  L 1610 888  A 5 5 0 0 0 1615 883 L 1615 646  A 5 5 0 0 1 1620 641 L 1663 641  " stroke-width="2" stroke="#0066ff" fill="none" />
  <path d="M 1568.5 884.5  A 3.5 3.5 0 0 0 1565 888 A 3.5 3.5 0 0 0 1568.5 891.5 A 3.5 3.5 0 0 0 1572 888 A 3.5 3.5 0 0 0 1568.5 884.5 Z M 1655.6 649  L 1665 641  L 1655.6 633  L 1659.2 641  L 1655.6 649  Z " fill-rule="nonzero" fill="#0066ff" stroke="none" />
</svg>