<?xml version="1.0" encoding="utf-8"?>
<svg version="1.1" xmlns:xlink="http://www.w3.org/1999/xlink" width="10px" height="173px" preserveAspectRatio="xMidYMin meet" viewBox="1606 942  8 173" xmlns="http://www.w3.org/2000/svg">
  <path d="M 1567 947  L 1605 947  A 5 5 0 0 1 1610 952 L 1610 1105  A 5 5 0 0 0 1615 1110 L 2798 1110  A 5 5 0 0 0 2803 1105 L 2803 1049  " stroke-width="2" stroke="#0066ff" fill="none" />
  <path d="M 1568.5 943.5  A 3.5 3.5 0 0 0 1565 947 A 3.5 3.5 0 0 0 1568.5 950.5 A 3.5 3.5 0 0 0 1572 947 A 3.5 3.5 0 0 0 1568.5 943.5 Z M 2811 1056.4  L 2803 1047  L 2795 1056.4  L 2803 1052.8  L 2811 1056.4  Z " fill-rule="nonzero" fill="#0066ff" stroke="none" />
</svg>