<?xml version="1.0" encoding="utf-8"?>
<svg version="1.1" xmlns:xlink="http://www.w3.org/1999/xlink" width="70px" height="10px" preserveAspectRatio="xMinYMid meet" viewBox="589 316  70 8" xmlns="http://www.w3.org/2000/svg">
  <path d="M 594 340  L 594 325  A 5 5 0 0 1 599 320 L 649 320  A 5 5 0 0 1 654 325 L 654 697  A 5 5 0 0 0 659 702 L 713 702  " stroke-width="2" stroke="#0066ff" fill="none" />
  <path d="M 594 335  A 3.5 3.5 0 0 0 590.5 338.5 A 3.5 3.5 0 0 0 594 342 A 3.5 3.5 0 0 0 597.5 338.5 A 3.5 3.5 0 0 0 594 335 Z M 705.6 710  L 715 702  L 705.6 694  L 709.2 702  L 705.6 710  Z " fill-rule="nonzero" fill="#0066ff" stroke="none" />
</svg>