<?xml version="1.0" encoding="utf-8"?>
<svg version="1.1" xmlns:xlink="http://www.w3.org/1999/xlink" width="40px" height="40px" xmlns="http://www.w3.org/2000/svg">
  <g transform="matrix(1 0 0 1 -908 -588 )">
    <path d="M 37.5 20  C 37.5 10.25  29.75 2.5  20 2.5  C 10.25 2.5  2.5 10.25  2.5 20  C 2.5 29.75  10.25 37.5  20 37.5  C 29.75 37.5  37.5 29.75  37.5 20  Z M 0 20  C 0 9  9 0  20 0  C 31 0  40 9  40 20  C 40 31  31 40  20 40  C 9 40  0 31  0 20  Z M 18 10  C 18 9  19 8  20 8  C 21 8  22 8.75  22 10  L 22 23.75  C 22 24.75  21.25 25.75  20 25.75  C 18.75 25.75  18 25  18 23.75  L 18 10  Z M 22 30  C 22 31.25  21 32  20 32  C 19 32  18 31.25  18 30  C 18 28.75  18.75 28  20 28  C 21.25 28  22 28.75  22 30  Z " fill-rule="nonzero" fill="#ff9900" stroke="none" transform="matrix(1 0 0 1 908 588 )" />
  </g>
</svg>