<?xml version="1.0" encoding="utf-8"?>
<svg version="1.1" xmlns:xlink="http://www.w3.org/1999/xlink" width="10px" height="145px" preserveAspectRatio="xMidYMin meet" viewBox="1081 687  8 145" xmlns="http://www.w3.org/2000/svg">
  <path d="M 956 827  L 1080 827  A 5 5 0 0 0 1085 822 L 1085 697  A 5 5 0 0 1 1090 692 L 1215 692  " stroke-width="2" stroke="#0066ff" fill="none" />
  <path d="M 957.5 823.5  A 3.5 3.5 0 0 0 954 827 A 3.5 3.5 0 0 0 957.5 830.5 A 3.5 3.5 0 0 0 961 827 A 3.5 3.5 0 0 0 957.5 823.5 Z M 1207.6 700  L 1217 692  L 1207.6 684  L 1211.2 692  L 1207.6 700  Z " fill-rule="nonzero" fill="#0066ff" stroke="none" />
</svg>