<?xml version="1.0" encoding="utf-8"?>
<svg version="1.1" xmlns:xlink="http://www.w3.org/1999/xlink" width="34px" height="34px" preserveAspectRatio="xMinYMid meet" viewBox="721 1744  34 32" xmlns="http://www.w3.org/2000/svg">
  <path d="M 595 781  L 655 781  A 5 5 0 0 1 660 786 L 660 1755  A 5 5 0 0 0 665 1760 L 738 1760  " stroke-width="2" stroke="#0066ff" fill="none" />
  <path d="M 596.5 777.5  A 3.5 3.5 0 0 0 593 781 A 3.5 3.5 0 0 0 596.5 784.5 A 3.5 3.5 0 0 0 600 781 A 3.5 3.5 0 0 0 596.5 777.5 Z M 730.6 1768  L 740 1760  L 730.6 1752  L 734.2 1760  L 730.6 1768  Z " fill-rule="nonzero" fill="#0066ff" stroke="none" />
</svg>