<?xml version="1.0" encoding="utf-8"?>
<svg version="1.1" xmlns:xlink="http://www.w3.org/1999/xlink" width="15px" height="10px" preserveAspectRatio="xMinYMid meet" viewBox="725 1756  15 8" xmlns="http://www.w3.org/2000/svg">
  <path d="M 788 780  L 735 780  A 5 5 0 0 0 730 785 L 730 1755  A 5 5 0 0 0 735 1760 L 738 1760  " stroke-width="2" stroke="#0066ff" fill="none" />
  <path d="M 786.5 776.5  A 3.5 3.5 0 0 0 783 780 A 3.5 3.5 0 0 0 786.5 783.5 A 3.5 3.5 0 0 0 790 780 A 3.5 3.5 0 0 0 786.5 776.5 Z M 730.6 1768  L 740 1760  L 730.6 1752  L 734.2 1760  L 730.6 1768  Z " fill-rule="nonzero" fill="#0066ff" stroke="none" />
</svg>