<?xml version="1.0" encoding="utf-8"?>
<svg version="1.1" xmlns:xlink="http://www.w3.org/1999/xlink" width="771px" height="10px" preserveAspectRatio="xMinYMid meet" viewBox="725 1336  771 8" xmlns="http://www.w3.org/2000/svg">
  <path d="M 1491 749  L 1491 1335  A 5 5 0 0 1 1486 1340 L 735 1340  A 5 5 0 0 0 730 1345 L 730 1755  A 5 5 0 0 0 735 1760 L 738 1760  " stroke-width="2" stroke="#0066ff" fill="none" />
  <path d="M 1491 747  A 3.5 3.5 0 0 0 1487.5 750.5 A 3.5 3.5 0 0 0 1491 754 A 3.5 3.5 0 0 0 1494.5 750.5 A 3.5 3.5 0 0 0 1491 747 Z M 730.6 1768  L 740 1760  L 730.6 1752  L 734.2 1760  L 730.6 1768  Z " fill-rule="nonzero" fill="#0066ff" stroke="none" />
</svg>