<?xml version="1.0" encoding="utf-8"?>
<svg version="1.1" xmlns:xlink="http://www.w3.org/1999/xlink" width="19px" height="20px" xmlns="http://www.w3.org/2000/svg">
  <g transform="matrix(1 0 0 1 -879 -2116 )">
    <path d="M 9.589397892137097 15.77858021484375  C 9.6852440625 15.77858021484375  9.782764033266128 15.77256427734375  9.880942568548386 15.76067232421875  C 10.822474103830647 15.645446289062498  11.621978781250002 14.974348359375  11.917063146169355 14.04954607421875  C 11.939344017137095 13.980376875000001  11.907184927419353 13.906255019531251  11.842235630040323 13.875867578125  C 11.77802719858871 13.845368222656251  11.700318539314516 13.87172638671875  11.663988643145162 13.933788398437501  C 11.660558702620968 13.93969240234375  11.286476015120966 14.55583552734375  9.830152044354838 14.756403808593749  C 9.612145220766127 14.786231621093751  9.400010450604837 14.801873046875  9.198933814516128 14.801873046875  C 8.178623490927418 14.801201503906249  7.723950981854838 14.4090468359375  7.7197801754032245 14.405437265625  C 7.66844087298387 14.358876777343749  7.590073668346773 14.357673574218751  7.537444702620966 14.403030898437502  C 7.484294386088708 14.448388203125003  7.472056374999999 14.527210878906251  7.508303950604837 14.587538066406252  C 7.952467142137097 15.321817265625  8.749502260080645 15.77858021484375  9.589397892137097 15.77858021484375  Z M 17.419944907258063 6.57487943359375  C 17.407103224798387 6.57487943359375  17.395413991935484 6.577285800781249  17.383203427419357 6.577285800781249  C 16.529889868951614 2.81013865234375  13.269418848790325 0  9.360250633064517 0  C 5.343574460685485 0  2.008275924395162 2.96532166015625  1.2690283870967742 6.88837931640625  C 0.5502507066532258 7.020282070312501  0.003161967741935499 7.66451818359375  0.003161967741935499 8.443623046875  L 0.003161967741935499 11.56186125  C 0.003161967741935499 12.43582193359375  0.6904391038306453 13.144526425781251  1.5390330393145162 13.144526425781251  C 2.01771509375 13.144526425781251  2.4402284939516132 12.91401837890625  2.7212912993951615 12.560001914062502  C 3.4004188911290316 14.391670605468752  4.782985493951613 15.868539355468751  6.532692582661291 16.6477561328125  C 6.536863389112903 16.63846642578125  6.569982859879033 16.572766875  6.609852444556452 16.520414296875  C 6.637401697580645 16.484122851562503  6.668271143145161 16.454406953125  6.694750247983872 16.454406953125  C 6.722189753024194 16.454406953125  6.747379213709678 16.46456408203125  6.768919218750002 16.4800655859375  C 6.363967085685485 16.172609609374998  4.90122228326613 14.59223888671875  4.584378398185485 12.386855058593751  C 4.445369897177421 11.416163828125  5.158357844758066 10.463268554687502  5.988731948588711 10.305651191406252  C 7.321797690524195 10.052534453125002  8.647893784274196 9.76418955078125  9.980959526209679 9.515857558593751  C 10.828373565524195 9.3582401953125  11.407484199596777 8.8842129296875  11.761618361895161 8.0949509375  C 11.844595403225807 7.91044376953125  11.964423691532257 7.537400175781251  12.019412449596775 6.999408183593751  C 12.033982825604838 6.9194103125  12.098301005040323 6.857991875  12.18072926814516 6.857991875  C 12.235718026209677 6.857991875  12.282447491935482 6.88661650390625  12.313426685483872 6.927832617187501  L 12.350195611895161 6.90455236328125  C 12.875607132056452 7.6824260546875  13.917567227822582 9.404800703125  14.067194813508063 11.22093990234375  C 14.239020949596773 13.297331015625  14.14317477923387 14.7194687890625  12.584611253024192 16.17437240234375  C 12.582772811491935 16.17621916015625  12.580413019153225 16.178513593749997  12.578162974798385 16.18038833984375  C 12.556513202620966 16.204200234374998  12.543644092741934 16.23523123046875  12.543644092741934 16.26934015625  C 12.543644092741934 16.31405390625  12.567022539314515 16.352304023437497  12.600882895161291 16.375584277343748  C 12.61375202419355 16.380956640625  12.626621153225805 16.3881477734375  12.63949026310484 16.39352013671875  C 12.649972153225807 16.39592650390625  12.65996011995968 16.399424140624998  12.670469456653226 16.399424140624998  C 12.681061094758064 16.399424140624998  12.690390535282257 16.39592650390625  12.699719956653226 16.39352013671875  C 12.721918507056452 16.381600195312497  12.742909733870968 16.367833515624998  12.764559486895163 16.355913574218746  C 14.340739192540324 15.470452675781248  15.549888141129035 13.991737167968747  16.108638666330645 12.21317654296875  C 16.33482246169355 12.5558326953125  16.68895662399194 12.802429863281247  17.10032958870968 12.88844365234375  C 16.440491976814517 15.948649140625  13.763960942540322 17.8639532421875  10.447952366935485 18.15467654296875  C 10.249235523185487 17.65199666015625  9.760044132056452 17.29501419921875  9.185543334677421 17.29501419921875  C 8.435237682459677 17.29501419921875  7.826849101814516 17.9010001953125  7.826849101814516 18.64784287109375  C 7.826849101814516 19.39471353515625  8.43512791532258 20  9.18554333467742 20  C 9.790501974798387 20  10.297144885080645 19.60367615234375  10.473032060483872 19.05913658203125  C 14.311461245967742 18.740963867187503  17.38844434375 16.4143940234375  18.03080300907258 12.799463867187502  C 18.598251856854837 12.557595507812502  18.996755692540322 11.989887617187502  18.996755692540322 11.327184003906252  L 18.99675571169355 8.172010820312499  C 18.99675571169355 7.29015947265625  18.29073739314516 6.57487943359375  17.419944907258063 6.57487943359375  Z M 16.00392955141129 7.48121421875  C 15.002826887096774 4.715789296875  12.408614329637096 2.74026994140625  9.356820692540323 2.74026994140625  C 6.31778641733871 2.74026994140625  3.7329033004032266 4.69905662109375  2.7224711955645167 7.44657365234375  C 2.672202041330645 7.38384009765625  2.6132345453629036 7.33017240234375  2.5553646441532263 7.2758331835937495  C 3.127395882056452 3.9277304882812505  5.953142918346774 1.3820968750000002  9.360250633064517 1.3820968750000002  C 12.751059278225807 1.3820968750000002  15.567998243951614 3.90268744140625  16.15879809173387 7.2275378515625  C 16.100406839717742 7.30753572265625  16.046597977822582 7.39103123046875  16.00392955141129 7.48121421875  Z M 6.53269258266129 16.6477561328125  C 6.532061483870968 16.64915517578125  6.532061483870968 16.6493790234375  6.5329120977822575 16.6477561328125  Z " fill-rule="nonzero" fill="#0066ff" stroke="none" transform="matrix(1 0 0 1 879 2116 )" />
  </g>
</svg>