<?xml version="1.0" encoding="utf-8"?>
<svg version="1.1" xmlns:xlink="http://www.w3.org/1999/xlink" width="10px" height="174px" preserveAspectRatio="xMidYMin meet" viewBox="1627 1591  8 174" xmlns="http://www.w3.org/2000/svg">
  <path d="M 1574 1596  L 1626 1596  A 5 5 0 0 1 1631 1601 L 1631 1755  A 5 5 0 0 0 1636 1760 L 1688 1760  " stroke-width="2" stroke="#0066ff" fill="none" />
  <path d="M 1575.5 1592.5  A 3.5 3.5 0 0 0 1572 1596 A 3.5 3.5 0 0 0 1575.5 1599.5 A 3.5 3.5 0 0 0 1579 1596 A 3.5 3.5 0 0 0 1575.5 1592.5 Z M 1680.6 1768  L 1690 1760  L 1680.6 1752  L 1684.2 1760  L 1680.6 1768  Z " fill-rule="nonzero" fill="#0066ff" stroke="none" />
</svg>