<?xml version="1.0" encoding="utf-8"?>
<svg version="1.1" xmlns:xlink="http://www.w3.org/1999/xlink" width="102px" height="90px" xmlns="http://www.w3.org/2000/svg">
  <g transform="matrix(1 0 0 1 -3246 -1582 )">
    <path d="M 101.13718032786886 89  C 102.36786885245901 76.42666666666668  61.9959344262295 64.18666666666667  61.9959344262295 64.18666666666667  L 61.9959344262295 54.38666666666666  C 65.44721311475409 51.93333333333333  67.5607868852459 45  67.5607868852459 45  C 67.5607868852459 41.73333333333333  70.83816393442625 40.68  70.83816393442625 40.68  C 75.34622950819673 36.36  70.83816393442625 28.680000000000003  70 28.680000000000003  L 70 14.8  C 66.73140983606558 2.146666666666667  51.1471475409836 0.5066666666666672  51.1471475409836 0.5066666666666672  C 51.1471475409836 0.5066666666666672  35.469245901639354 2.1333333333333337  32 14.786666666666667  L 32 28.666666666666664  C 31.349114754098363 28.666666666666664  26.814295081967217 36.36  31.349114754098363 40.666666666666664  C 31.349114754098363 40.666666666666664  34.63986885245902 41.72  34.63986885245902 44.986666666666665  C 34.63986885245902 44.986666666666665  36.76681967213115 51.92  40.2448524590164 54.37333333333333  L 40.2448524590164 64.17333333333333  C 40.2448524590164 64.17333333333333  -0.36786885245901635 76.41333333333333  0.8628196721311476 89  L 101.13718032786886 89  Z " fill-rule="nonzero" fill="#ddeffc" stroke="none" transform="matrix(1 0 0 1 3246 1582 )" />
  </g>
</svg>