<?xml version="1.0" encoding="utf-8"?>
<svg version="1.1" xmlns:xlink="http://www.w3.org/1999/xlink" width="27px" height="27px" xmlns="http://www.w3.org/2000/svg">
  <g transform="matrix(1 0 0 1 -3333 -1645 )">
    <path d="M 26.022883984375 13.881582880859371  C 26.022883984375 6.743579462890624  20.23693416015625 0.9606275585937483  13.101928662109374 0.9606275585937499  C 5.966923164062499 0.9606275585937499  0.18097333984374853 6.743579492187499  0.18097331054687382 13.881582880859375  C 0.18097328124999867 21.019586269531253  5.963925244140623 26.802538203125003  13.101928662109374 26.802538232421874  C 20.239932080078127 26.802538261718745  26.022883984375 21.019586298828123  26.022883984375 13.881582880859371  Z M 20.911461982421876 9.1718796875  C 21.37014091796875 9.621564921875002  21.37014091796875 10.359048681640626  20.917457792968747 10.811731777343748  L 12.247526728515625 19.481662841796876  C 12.019686220703125 19.709503349609378  11.72289396484375 19.823423603515625  11.42610173828125 19.823423603515625  C 11.129309482421874 19.823423603515625  10.832517255859376 19.709503349609378  10.60467671875 19.481662841796876  L 6.350654541015626 15.230638554687502  C 5.8949735253906255 14.7779554296875  5.8949735253906255 14.040471669921875  6.350654541015626 13.587788544921876  C 6.806335556640627 13.132107529296876  7.540821425781252 13.132107529296876  7.99350455078125 13.587788544921876  L 11.423103818359374 17.017387841796875  L 19.26861197265625 9.1718796875  C 19.72429298828125 8.716198671875  20.458778857421876 8.716198671875  20.911461982421876 9.1718796875  Z " fill-rule="nonzero" fill="#0066ff" stroke="none" transform="matrix(1 0 0 1 3333 1645 )" />
  </g>
</svg>