<?xml version="1.0" encoding="utf-8"?>
<svg version="1.1" xmlns:xlink="http://www.w3.org/1999/xlink" width="60px" height="60px" xmlns="http://www.w3.org/2000/svg">
  <g transform="matrix(1 0 0 1 -2798 -1483 )">
    <path d="M 59.47277227722772 30.0825  C 59.46534653465346 13.597500000000002  46.180693069306926 0.17250000000000085  29.85148514851485 0.1724999999999998  C 13.522277227722775 0.1724999999999998  0.23762376237623678 13.589999999999998  0.23762376237623678 30.0825  C 0.23762376237623678 46.5825  13.522277227722775 60  29.85148514851485 60  C 46.180693069306926 60  59.47277227722772 46.5825  59.47277227722772 30.0825  Z M 36.63861386138615 42.397499999999994  C 35.04950495049505 55.785  23.524752475247524 54.225  24.95792079207921 43.050000000000004  C 27.67574257425743 21.78  23.606435643564357 28.2  23.034653465346537 29.167499999999997  C 23.019801980198025 29.189999999999998  22.99752475247525 29.175  22.99752475247525 29.1525  C 25.633663366336638 17.377499999999998  37.6410891089109 20.595000000000002  36.11881188118812 29.497500000000002  C 32.43564356435644 51.074999999999996  35.53217821782179 45.457499999999996  36.50495049504952 42.3675  C 36.52722772277229 42.285  36.65346534653467 42.315  36.63861386138615 42.397499999999994  Z M 37.5 13.477500000000003  C 38.16089108910891 16.522500000000004  36.25247524752476 19.530000000000005  33.23762376237624 20.1975  C 30.222772277227723 20.865000000000002  27.245049504950497 18.9375  26.584158415841586 15.892500000000002  C 25.923267326732677 12.8475  27.831683168316832 9.840000000000003  30.846534653465348 9.172500000000003  C 33.86138613861386 8.505000000000003  36.83910891089109 10.432500000000003  37.5 13.477500000000003  Z " fill-rule="nonzero" fill="#0066ff" stroke="none" transform="matrix(1 0 0 1 2798 1483 )" />
  </g>
</svg>