<?xml version="1.0" encoding="utf-8"?>
<svg version="1.1" xmlns:xlink="http://www.w3.org/1999/xlink" width="23px" height="18px" xmlns="http://www.w3.org/2000/svg">
  <g transform="matrix(1 0 0 1 -1671 -533 )">
    <path d="M 22.826141732283464 17.416800000000002  L 21.898897637795276 15.688799999999999  C 21.898897637795276 15.458400000000001  21.66708661417323 15.228  21.435275590551182 15.228  L 12.684409448818897 15.228  L 19.92850393700787 8.027999999999999  C 20.276220472440944 7.682399999999999  20.276220472440944 7.048799999999999  19.92850393700787 6.703199999999999  L 13.49574803149606 0.3671999999999986  C 13.14803149606299 0.021599999999998582  12.510551181102361 0.021599999999998582  12.162834645669287 0.3671999999999986  L 3.6437795275590523 8.834399999999999  C 3.2960629921259805 9.179999999999998  3.2960629921259805 9.813599999999997  3.6437795275590523 10.1592  L 8.743622047244093 15.1704  L 1.4415748031496038 15.1704  C 1.2097637795275564 15.1704  0.9779527559055092 15.4008  0.9779527559055092 15.631200000000002  L 0.050708661417320305 17.416800000000002  C 0.050708661417320305 17.6472  0.2825196850393676 17.8776  0.5143307086614147 17.8776  L 22.362519685039366 17.8776  C 22.594330708661417 17.8776  22.826141732283464 17.6472  22.826141732283464 17.416800000000002  Z M 9.14929133858268 8.661599999999998  L 9.670866141732285 8.1432  L 11.177637795275592 9.755999999999998  L 14.249133858267717 6.645599999999997  L 14.712755905511813 7.163999999999998  L 11.177637795275594 10.735199999999997  L 9.14929133858268 8.661599999999998  Z M 16.50929133858268 17  L 6.367559055118113 17  L 6.831181102362207 16.322400000000002  L 16.045669291338587 16.322400000000002  L 16.50929133858268 17  Z " fill-rule="nonzero" fill="#0066ff" stroke="none" transform="matrix(1 0 0 1 1671 533 )" />
  </g>
</svg>