<?xml version="1.0" encoding="utf-8"?>
<svg version="1.1" xmlns:xlink="http://www.w3.org/1999/xlink" width="18px" height="18px" xmlns="http://www.w3.org/2000/svg">
  <g transform="matrix(1 0 0 1 -3292 -736 )">
    <path d="M 0 9  C 0 4.029428571428572  4.029428571428572 0  9 0  C 13.970571428571429 0  18 4.029428571428572  18 9  C 18 13.970571428571429  13.970571428571429 18  9 18  C 4.029428571428572 18  0 13.970571428571429  0 9  Z M 16.714285714285715 9  C 16.714285714285715 4.739524553571428  13.260475446428572 1.2857142857142856  9 1.2857142857142856  C 4.739524553571428 1.2857142857142856  1.2857142857142856 4.739524553571428  1.2857142857142856 9  C 1.2857142857142856 13.260475446428572  4.739524553571428 16.714285714285715  9 16.714285714285715  C 13.260475446428572 16.714285714285715  16.714285714285715 13.260475446428572  16.714285714285715 9  Z M 9.642555803571428 5.786377232142858  C 9.642555803571428 5.430957589285715  9.354816964285714 5.142857142857142  8.999859375 5.142857142857142  C 8.644881696428572 5.142857142857142  8.357142857142858 5.430957589285715  8.357142857142858 5.786377232142858  L 8.357142857142858 8.747015625000001  C 8.357138676614253 9.089417890018847  8.493712559547824 9.417678221309517  8.736589285714285 9.659029017857144  L 10.917944196428572 11.826622767857144  C 11.169863839285714 12.076975446428571  11.576812499999999 12.075448660714288  11.826863839285716 11.823187500000001  C 12.07691517857143 11.570926339285714  12.07536830357143 11.16347544642857  11.82342857142857 10.91314285714286  L 9.832299107142857 8.934549107142859  C 9.710848432876338 8.813872108470434  9.642553679338137 8.6497333148953  9.642555803571426 8.478522321428573  L 9.642555803571426 5.7863571428571445  Z " fill-rule="nonzero" fill="#0066ff" stroke="none" transform="matrix(1 0 0 1 3292 736 )" />
  </g>
</svg>