<?xml version="1.0" encoding="utf-8"?>
<svg version="1.1" xmlns:xlink="http://www.w3.org/1999/xlink" width="49px" height="10px" preserveAspectRatio="xMinYMid meet" viewBox="3221 607  49 8" xmlns="http://www.w3.org/2000/svg">
  <path d="M 3118 664  L 3221 664  A 5 5 0 0 0 3226 659 L 3226 616  A 5 5 0 0 1 3231 611 L 3268 611  " stroke-width="2" stroke="#0066ff" fill="none" />
  <path d="M 3119.5 660.5  A 3.5 3.5 0 0 0 3116 664 A 3.5 3.5 0 0 0 3119.5 667.5 A 3.5 3.5 0 0 0 3123 664 A 3.5 3.5 0 0 0 3119.5 660.5 Z M 3260.6 619  L 3270 611  L 3260.6 603  L 3264.2 611  L 3260.6 619  Z " fill-rule="nonzero" fill="#0066ff" stroke="none" />
</svg>