<?xml version="1.0" encoding="utf-8"?>
<svg version="1.1" xmlns:xlink="http://www.w3.org/1999/xlink" width="10px" height="101px" preserveAspectRatio="xMidYMin meet" viewBox="3220 515  8 101" xmlns="http://www.w3.org/2000/svg">
  <path d="M 3017 533  L 3017 525  A 5 5 0 0 1 3022 520 L 3219 520  A 5 5 0 0 1 3224 525 L 3224 606  A 5 5 0 0 0 3229 611 L 3268 611  " stroke-width="2" stroke="#0066ff" fill="none" />
  <path d="M 3017 528  A 3.5 3.5 0 0 0 3013.5 531.5 A 3.5 3.5 0 0 0 3017 535 A 3.5 3.5 0 0 0 3020.5 531.5 A 3.5 3.5 0 0 0 3017 528 Z M 3260.6 619  L 3270 611  L 3260.6 603  L 3264.2 611  L 3260.6 619  Z " fill-rule="nonzero" fill="#0066ff" stroke="none" />
</svg>