<?xml version="1.0" encoding="utf-8"?>
<svg version="1.1" xmlns:xlink="http://www.w3.org/1999/xlink" width="180px" height="10px" preserveAspectRatio="xMinYMid meet" viewBox="3645 607  180 8" xmlns="http://www.w3.org/2000/svg">
  <path d="M 3647 611  L 3815 611  A 5 5 0 0 1 3820 616 L 3820 686  A 5 5 0 0 0 3825 691 L 3993 691  " stroke-width="2" stroke="#0066ff" fill="none" />
  <path d="M 3648.5 607.5  A 3.5 3.5 0 0 0 3645 611 A 3.5 3.5 0 0 0 3648.5 614.5 A 3.5 3.5 0 0 0 3652 611 A 3.5 3.5 0 0 0 3648.5 607.5 Z M 3985.6 699  L 3995 691  L 3985.6 683  L 3989.2 691  L 3985.6 699  Z " fill-rule="nonzero" fill="#0066ff" stroke="none" />
</svg>