<?xml version="1.0" encoding="utf-8"?>
<svg version="1.1" xmlns:xlink="http://www.w3.org/1999/xlink" width="65px" height="10px" preserveAspectRatio="xMinYMid meet" viewBox="1055 1691  65 8" xmlns="http://www.w3.org/2000/svg">
  <path d="M 1007 274  L 1055 274  A 5 5 0 0 1 1060 279 L 1060 1690  A 5 5 0 0 0 1065 1695 L 1118 1695  " stroke-width="2" stroke="#0066ff" fill="none" />
  <path d="M 1008.5 270.5  A 3.5 3.5 0 0 0 1005 274 A 3.5 3.5 0 0 0 1008.5 277.5 A 3.5 3.5 0 0 0 1012 274 A 3.5 3.5 0 0 0 1008.5 270.5 Z M 1110.6 1703  L 1120 1695  L 1110.6 1687  L 1114.2 1695  L 1110.6 1703  Z " fill-rule="nonzero" fill="#0066ff" stroke="none" />
</svg>