<?xml version="1.0" encoding="utf-8"?>
<svg version="1.1" xmlns:xlink="http://www.w3.org/1999/xlink" width="20px" height="21px" preserveAspectRatio="xMidYMin meet" viewBox="1776 743  18 21" xmlns="http://www.w3.org/2000/svg">
  <path d="M 1785 752  L 1785 755  A 5 5 0 0 0 1790 760 L 2212 760  A 5 5 0 0 1 2217 765 L 2217 1232  " stroke-width="2" stroke="#0066ff" fill="none" />
  <path d="M 1785 750  A 3.5 3.5 0 0 0 1781.5 753.5 A 3.5 3.5 0 0 0 1785 757 A 3.5 3.5 0 0 0 1788.5 753.5 A 3.5 3.5 0 0 0 1785 750 Z M 2209 1224.6  L 2217 1234  L 2225 1224.6  L 2217 1228.2  L 2209 1224.6  Z " fill-rule="nonzero" fill="#0066ff" stroke="none" />
</svg>