<?xml version="1.0" encoding="utf-8"?>
<svg version="1.1" xmlns:xlink="http://www.w3.org/1999/xlink" width="60px" height="10px" preserveAspectRatio="xMinYMid meet" viewBox="1485 1464  60 8" xmlns="http://www.w3.org/2000/svg">
  <path d="M 1487 1468  L 1535 1468  A 5 5 0 0 1 1540 1473 L 1540 1690  A 5 5 0 0 0 1545 1695 L 1593 1695  " stroke-width="2" stroke="#0066ff" fill="none" />
  <path d="M 1488.5 1464.5  A 3.5 3.5 0 0 0 1485 1468 A 3.5 3.5 0 0 0 1488.5 1471.5 A 3.5 3.5 0 0 0 1492 1468 A 3.5 3.5 0 0 0 1488.5 1464.5 Z M 1585.6 1703  L 1595 1695  L 1585.6 1687  L 1589.2 1695  L 1585.6 1703  Z " fill-rule="nonzero" fill="#0066ff" stroke="none" />
</svg>