<?xml version="1.0" encoding="utf-8"?>
<svg version="1.1" xmlns:xlink="http://www.w3.org/1999/xlink" width="10px" height="92px" preserveAspectRatio="xMidYMin meet" viewBox="601 646  8 92" xmlns="http://www.w3.org/2000/svg">
  <path d="M 557 733  L 600 733  A 5 5 0 0 0 605 728 L 605 656  A 5 5 0 0 1 610 651 L 653 651  " stroke-width="2" stroke="#0066ff" fill="none" />
  <path d="M 558.5 729.5  A 3.5 3.5 0 0 0 555 733 A 3.5 3.5 0 0 0 558.5 736.5 A 3.5 3.5 0 0 0 562 733 A 3.5 3.5 0 0 0 558.5 729.5 Z M 645.6 659  L 655 651  L 645.6 643  L 649.2 651  L 645.6 659  Z " fill-rule="nonzero" fill="#0066ff" stroke="none" />
</svg>