<?xml version="1.0" encoding="utf-8"?>
<svg version="1.1" xmlns:xlink="http://www.w3.org/1999/xlink" width="8px" height="12px" xmlns="http://www.w3.org/2000/svg">
  <g transform="matrix(1 0 0 1 -1007 -364 )">
    <path d="M 7.732142857142857 11.524553571428571  C 7.625 11.564732142857142  7.517857142857143 11.604910714285715  7.4375 11.604910714285715  C 7.330357142857145 11.604910714285715  7.223214285714287 11.584821428571429  7.142857142857143 11.524553571428571  L 0.20535714285714388 6.301339285714285  C 0.09821428571428623 6.220982142857143  0.04464285714285816 6.100446428571429  0.04464285714285816 6  C 0.04464285714285816 5.899553571428571  0.09821428571428623 5.779017857142858  0.20535714285714388 5.698660714285714  L 7.142857142857143 0.47544642857142855  C 7.303571428571429 0.3549107142857143  7.544642857142857 0.3549107142857143  7.705357142857143 0.47544642857142855  C 7.866071428571431 0.5959821428571428  7.866071428571431 0.7767857142857144  7.705357142857143 0.8973214285714286  L 0.9285714285714286 6  L 7.732142857142857 11.102678571428571  C 7.892857142857143 11.223214285714285  7.892857142857143 11.404017857142858  7.732142857142857 11.524553571428571  Z " fill-rule="nonzero" fill="#7f7f7f" stroke="none" transform="matrix(1 0 0 1 1007 364 )" />
  </g>
</svg>