<?xml version="1.0" encoding="utf-8"?>
<svg version="1.1" xmlns:xlink="http://www.w3.org/1999/xlink" width="22px" height="20px" xmlns="http://www.w3.org/2000/svg">
  <g transform="matrix(1 0 0 1 -993 -246 )">
    <path d="M 8.844248595338984 0.5629629629629631  L 10.53762711864407 3.0864197453703706  L 18.954802252118643 3.0864197453703706  C 20.602295743139315 3.0864197453703706  21.93785309957627 4.412983449575428  22 6.049382708333334  L 22 16.91358025462963  C 21.93785309957627 18.549979513387534  20.602295743139315 19.87654321759259  18.954802252118643 19.87654321759259  L 3.0451977478813554 19.87654321759259  C 1.3977042568606837 19.87654321759259  0.06214690042372857 18.549979513387534  0 16.91358025462963  L 0 3.0864197453703706  C 0.06214690042372857 1.4500204866124642  1.3977042568606837 0.12345678240740765  3.0451977478813554 0.12345678240740765  L 8.016949152542372 0.12345678240740765  C 8.349339111149762 0.12340737725009  8.659772171409237 0.28832619814473576  8.844248595338984 0.5629629629629631  Z M 9.178350290254235 4.622222222222221  L 7.484971743644069 2.0987654398148154  L 3.0451977478813554 2.0987654398148154  C 2.4960332556853193 2.0987654398148146  2.0508474704981614 2.54095333056286  2 3.0864197453703706  L 2 16.913580254629636  C 2.0508474704981623 17.459046669437143  2.4960332556853193 17.901234560185188  3.0451977478813554 18  L 18.954802252118643 18  C 19.503966744314678 17.901234560185188  19.949152529501834 17.459046669437143  20 16.913580254629633  L 20 6.049382708333333  C 19.949152529501834 5.503916293525821  19.503966744314678 5.061728402777776  18.954802252118643 5.061728402777776  L 10.00564970974576 5.061728402777776  C 9.673259759394508 5.061777800196711  9.362826709602345 4.896858980217092  9.178350290254235 4.622222222222221  Z M 10.883661016949153 7.900246921296299  L 11 7.893333333333335  C 11.549164501297238 7.893333333333335  11.994350290254237 8.335521238189614  11.994350290254237 8.880987662037038  L 11.994350290254237 10.856296296296296  L 13.983050847457626 10.856296296296296  C 14.487161413788831 10.856362352535067  14.91145974603962 11.231118141557289  14.970440677966103 11.728395069444446  L 14.977401137711865 11.843950625000002  C 14.977401124840823 12.389417039807514  14.532215339653664 12.831604930555557  13.98305084745763 12.831604930555557  L 11.99435029025424 12.831604930555557  L 11.99435029025424 14.806913587962963  C 11.994283786176563 15.307629470345812  11.616987279940636 15.729070574769995  11.116338983050849 15.787654328703706  L 11.000000000000002 15.794567893518522  C 10.450835507803966 15.794567893518522  10.005649722616807 15.352380002770477  10.005649709745764 14.806913587962967  L 10.005649709745764 12.831604930555558  L 8.016949152542372 12.831604930555558  C 7.51283859411658 12.8315388757004  7.0885402648507005 12.456783099261717  7.029559322033898 11.95950618055556  L 7.022598862288135 11.843950625000002  C 7.022598862288135 11.298484201152576  7.467784651245134 10.856296296296296  8.016949152542372 10.856296296296296  L 10.005649709745763 10.856296296296296  L 10.005649709745764 8.880987662037041  C 10.005716213823439 8.380271779654196  10.38301272005937 7.9588306752300095  10.883661016949153 7.900246921296299  Z " fill-rule="nonzero" fill="#000000" stroke="none" transform="matrix(1 0 0 1 993 246 )" />
  </g>
</svg>