<?xml version="1.0" encoding="utf-8"?>
<svg version="1.1" xmlns:xlink="http://www.w3.org/1999/xlink" width="30px" height="33px" xmlns="http://www.w3.org/2000/svg">
  <g transform="matrix(1 0 0 1 -678 -509 )">
    <path d="M 29.896551724137936 10.725  L 19.30344827586207 0  L 4.737931034482759 0  C 2.089655172413793 0  0.10344827586206906 2.145  0.10344827586206906 4.62  L 0.10344827586206906 28.38  C 0.10344827586206906 30.855  2.089655172413793 33  4.737931034482759 33  L 25.262068965517244 33  C 27.744827586206895 33  29.896551724137936 30.855  29.896551724137936 28.38  L 29.896551724137936 10.725  Z M 19.96551724137931 9.9  L 19.96551724137931 5.445  L 24.43448275862069 9.9  L 19.96551724137931 9.9  Z M 26 13.200000000000001  L 26 28.38  C 26.586206896551726 29.04  26.089655172413796 29.7  25.262068965517244 29.7  L 4.737931034482759 29.7  C 3.9103448275862074 29.7  3.413793103448276 29.04  4 28.38  L 4 4.62  C 3.413793103448276 3.9600000000000004  3.9103448275862065 3.3000000000000003  4.737931034482759 3.3000000000000003  L 16.655172413793103 3.3000000000000003  L 16.655172413793103 10.23  C 16.655172413793103 11.879999999999999  17.97931034482759 13.200000000000001  19.634482758620692 13.200000000000001  L 26 13.200000000000001  Z " fill-rule="nonzero" fill="#d7d7d7" stroke="none" transform="matrix(1 0 0 1 678 509 )" />
  </g>
</svg>