<?xml version="1.0" encoding="utf-8"?>
<svg version="1.1" xmlns:xlink="http://www.w3.org/1999/xlink" width="65px" height="10px" preserveAspectRatio="xMinYMid meet" viewBox="1045 570  65 8" xmlns="http://www.w3.org/2000/svg">
  <path d="M 992 276  L 1045 276  A 5 5 0 0 1 1050 281 L 1050 569  A 5 5 0 0 0 1055 574 L 1108 574  " stroke-width="2" stroke="#0066ff" fill="none" />
  <path d="M 993.5 272.5  A 3.5 3.5 0 0 0 990 276 A 3.5 3.5 0 0 0 993.5 279.5 A 3.5 3.5 0 0 0 997 276 A 3.5 3.5 0 0 0 993.5 272.5 Z M 1100.6 582  L 1110 574  L 1100.6 566  L 1104.2 574  L 1100.6 582  Z " fill-rule="nonzero" fill="#0066ff" stroke="none" />
</svg>