<?xml version="1.0" encoding="utf-8"?>
<svg version="1.1" xmlns:xlink="http://www.w3.org/1999/xlink" width="10px" height="18px" preserveAspectRatio="xMidYMin meet" viewBox="1883 1315  8 18" xmlns="http://www.w3.org/2000/svg">
  <path d="M 688 1430  L 688 1325  A 5 5 0 0 1 693 1320 L 1882 1320  A 5 5 0 0 1 1887 1325 L 1887 1331  " stroke-width="2" stroke="#0066ff" fill="none" />
  <path d="M 688 1425  A 3.5 3.5 0 0 0 684.5 1428.5 A 3.5 3.5 0 0 0 688 1432 A 3.5 3.5 0 0 0 691.5 1428.5 A 3.5 3.5 0 0 0 688 1425 Z M 1879 1323.6  L 1887 1333  L 1895 1323.6  L 1887 1327.2  L 1879 1323.6  Z " fill-rule="nonzero" fill="#0066ff" stroke="none" />
</svg>