<?xml version="1.0" encoding="utf-8"?>
<svg version="1.1" xmlns:xlink="http://www.w3.org/1999/xlink" width="55px" height="10px" preserveAspectRatio="xMinYMid meet" viewBox="1400 775  55 8" xmlns="http://www.w3.org/2000/svg">
  <path d="M 1402 779  L 1445 779  A 5 5 0 0 0 1450 774 L 1450 596  A 5 5 0 0 1 1455 591 L 1498 591  " stroke-width="2" stroke="#0066ff" fill="none" />
  <path d="M 1403.5 775.5  A 3.5 3.5 0 0 0 1400 779 A 3.5 3.5 0 0 0 1403.5 782.5 A 3.5 3.5 0 0 0 1407 779 A 3.5 3.5 0 0 0 1403.5 775.5 Z M 1490.6 599  L 1500 591  L 1490.6 583  L 1494.2 591  L 1490.6 599  Z " fill-rule="nonzero" fill="#0066ff" stroke="none" />
</svg>