<?xml version="1.0" encoding="utf-8"?>
<svg version="1.1" xmlns:xlink="http://www.w3.org/1999/xlink" width="34px" height="34px" preserveAspectRatio="xMinYMid meet" viewBox="2146 983  34 32" xmlns="http://www.w3.org/2000/svg">
  <path d="M 1402 897  L 1445 897  A 5 5 0 0 1 1450 902 L 1450 1035  A 5 5 0 0 0 1455 1040 L 2158 1040  A 5 5 0 0 0 2163 1035 L 2163 999  " stroke-width="2" stroke="#0066ff" fill="none" />
  <path d="M 1403.5 893.5  A 3.5 3.5 0 0 0 1400 897 A 3.5 3.5 0 0 0 1403.5 900.5 A 3.5 3.5 0 0 0 1407 897 A 3.5 3.5 0 0 0 1403.5 893.5 Z M 2171 1006.4  L 2163 997  L 2155 1006.4  L 2163 1002.8  L 2171 1006.4  Z " fill-rule="nonzero" fill="#0066ff" stroke="none" />
</svg>