<?xml version="1.0" encoding="utf-8"?>
<svg version="1.1" xmlns:xlink="http://www.w3.org/1999/xlink" width="21px" height="20px" preserveAspectRatio="xMinYMid meet" viewBox="823 821  21 18" xmlns="http://www.w3.org/2000/svg">
  <path d="M 832 830  L 990 830  A 5 5 0 0 0 995 825 L 995 596  A 5 5 0 0 1 1000 591 L 1023 591  " stroke-width="2" stroke="#0066ff" fill="none" />
  <path d="M 833.5 826.5  A 3.5 3.5 0 0 0 830 830 A 3.5 3.5 0 0 0 833.5 833.5 A 3.5 3.5 0 0 0 837 830 A 3.5 3.5 0 0 0 833.5 826.5 Z M 1015.6 599  L 1025 591  L 1015.6 583  L 1019.2 591  L 1015.6 599  Z " fill-rule="nonzero" fill="#0066ff" stroke="none" />
</svg>