<?xml version="1.0" encoding="utf-8"?>
<svg version="1.1" xmlns:xlink="http://www.w3.org/1999/xlink" width="10px" height="66px" preserveAspectRatio="xMidYMin meet" viewBox="1726 1305  8 66" xmlns="http://www.w3.org/2000/svg">
  <path d="M 650 1668  L 650 1315  A 5 5 0 0 1 655 1310 L 1725 1310  A 5 5 0 0 1 1730 1315 L 1730 1369  " stroke-width="2" stroke="#0066ff" fill="none" />
  <path d="M 650 1663  A 3.5 3.5 0 0 0 646.5 1666.5 A 3.5 3.5 0 0 0 650 1670 A 3.5 3.5 0 0 0 653.5 1666.5 A 3.5 3.5 0 0 0 650 1663 Z M 1722 1361.6  L 1730 1371  L 1738 1361.6  L 1730 1365.2  L 1722 1361.6  Z " fill-rule="nonzero" fill="#0066ff" stroke="none" />
</svg>