<?xml version="1.0" encoding="utf-8"?>
<svg version="1.1" xmlns:xlink="http://www.w3.org/1999/xlink" width="10px" height="329px" preserveAspectRatio="xMidYMin meet" viewBox="2996 1827  8 329" xmlns="http://www.w3.org/2000/svg">
  <path d="M 2942 2151  L 2995 2151  A 5 5 0 0 0 3000 2146 L 3000 1837  A 5 5 0 0 1 3005 1832 L 3058 1832  " stroke-width="2" stroke="#0066ff" fill="none" />
  <path d="M 2943.5 2147.5  A 3.5 3.5 0 0 0 2940 2151 A 3.5 3.5 0 0 0 2943.5 2154.5 A 3.5 3.5 0 0 0 2947 2151 A 3.5 3.5 0 0 0 2943.5 2147.5 Z M 3050.6 1840  L 3060 1832  L 3050.6 1824  L 3054.2 1832  L 3050.6 1840  Z " fill-rule="nonzero" fill="#0066ff" stroke="none" />
</svg>