<?xml version="1.0" encoding="utf-8"?>
<svg version="1.1" xmlns:xlink="http://www.w3.org/1999/xlink" width="20px" height="20px" xmlns="http://www.w3.org/2000/svg">
  <g transform="matrix(1 0 0 1 -752 -737 )">
    <path d="M 9.882461138601489 16.53939787740957  C 5.891580613451958 16.53939787740957  4.232214724846304 12.951917495543228  4.16301227903567 12.798819079988668  L 5.505816964062578 12.19514769830559  C 5.5588330750903845 12.31222672064777  6.832435314306658 15.067038536512218  9.881757384915279 15.067038536512218  C 13.146044217857082 15.02875860115626  14.387956215324637 12.311458989353724  14.438775761816697 12.19587277786108  L 15.784502090934838 12.79291181419836  C 15.717517535529229 12.94383499108645  14.098606820946 16.490049815897766  9.959767414738174 16.538651471984803  L 9.882461138601487 16.53937655154029  Z M 19.921166258476198 10.024813981773047  C 19.921166258476198 15.505007913896804  15.462780026990552 19.96339414538245  9.982586094866797 19.96339414538245  C 4.502392162743041 19.96339414538245  0.044005931257393924 15.505007913896804  0.044005931257393924 10.024813981773047  C 0.044005931257393924 4.544620049649289  4.502392162743041 0.08623381816364373  9.982586094866797 0.08623381816364373  C 15.462780026990552 0.08623381816364373  19.921166258476198 4.544620049649291  19.921166258476198 10.024813981773047  Z M 18.448764265840293 10.024813981773047  C 18.448764265840293 5.356645174189033  14.651501307875579 1.5586358107995544  9.982586094866797 1.5586358107995544  C 5.314417287282785 1.5586358107995544  1.5164079238933046 5.356645174189033  1.5164079238933046 10.024813981773047  C 1.5164079238933046 14.69298278935706  5.314417287282785 18.49099215274654  9.982586094866797 18.49099215274654  C 14.650754902450808 18.49099215274654  18.448764265840293 14.69298278935706  18.448764265840293 10.024813981773047  Z M 7.098176971393347 7.15147298445544  C 6.463604405124873 7.15147298445544  5.950461338531515 7.665341130604288  5.950461338531515 8.299188617317272  C 5.950461338531515 8.932332350344046  6.463604405124873 9.446904250179104  7.098176971393347 9.446904250179104  C 7.732749537661817 9.446904250179104  8.245892604255177 8.933036104030256  8.245892604255177 8.299188617317272  C 8.245892604255177 7.665341130604288  7.732749537661817 7.15147298445544  7.098176971393347 7.15147298445544  Z M 12.849273420969325 7.15147298445544  C 12.214700854700853 7.15147298445544  11.701557788107493 7.665341130604288  11.701557788107493 8.299188617317272  C 11.701557788107493 8.932332350344046  12.214700854700853 9.446904250179104  12.849273420969325 9.446904250179104  C 13.4838459872378 9.446904250179104  13.996989053831157 8.933036104030256  13.996989053831157 8.299188617317272  C 13.996989053831157 7.665341130604288  13.4838459872378 7.15147298445544  12.849273420969325 7.15147298445544  Z " fill-rule="nonzero" fill="#000000" stroke="none" transform="matrix(1 0 0 1 752 737 )" />
  </g>
</svg>