<?xml version="1.0" encoding="utf-8"?>
<svg version="1.1" xmlns:xlink="http://www.w3.org/1999/xlink" width="21px" height="20px" preserveAspectRatio="xMinYMid meet" viewBox="568 1146  21 18" xmlns="http://www.w3.org/2000/svg">
  <path d="M 577 1155  L 615 1155  A 5 5 0 0 0 620 1150 L 620 623  A 5 5 0 0 1 625 618 L 675 618  " stroke-width="2" stroke="#0066ff" fill="none" />
  <path d="M 578.5 1151.5  A 3.5 3.5 0 0 0 575 1155 A 3.5 3.5 0 0 0 578.5 1158.5 A 3.5 3.5 0 0 0 582 1155 A 3.5 3.5 0 0 0 578.5 1151.5 Z M 667.6 626  L 677 618  L 667.6 610  L 671.2 618  L 667.6 626  Z " fill-rule="nonzero" fill="#0066ff" stroke="none" />
</svg>