<?xml version="1.0" encoding="utf-8"?>
<svg version="1.1" xmlns:xlink="http://www.w3.org/1999/xlink" width="48px" height="48px" xmlns="http://www.w3.org/2000/svg">
  <g transform="matrix(1 0 0 1 -286 -359 )">
    <path d="M 47.82300685714286 24.04062160714286  C 47.82300685714286 37.18009248214286  37.15937051785715 47.83369676785714  24.00433076785714 47.83369676785714  C 10.85049707142857 47.83369676785714  0.19064330357142523 37.18003767857143  0.19064330357142523 24.04062160714286  C 0.19064330357142523 13.955007107142858  6.468243107142854 5.338403410714289  15.333948696428568 1.8755900892857167  C 18.01267194642857 0.7949787321428593  20.939181482142853 0.1982085000000026  24.004933767857143 0.1982085000000026  C 27.074468625 0.1982085000000026  29.99845644642857 0.7943757321428597  32.67970141071429 1.8755900892857167  C 41.544858857142856 5.338403410714285  47.82300685714286 13.955061910714285  47.82300685714286 24.04062160714286  Z M 14.850765482142858 19.02278485714286  C 14.850765482142858 23.032427464285714  16.905198857142857 26.503957178571426  19.89168144642857 28.203211982142857  C 21.130229142857143 28.90797755357143  22.52479446428572 29.314412892857145  24.00433076785714 29.314412892857145  C 25.431952553571428 29.314412892857145  26.77789258928571 28.934236392857148  27.98398682142857 28.277493053571437  C 31.041022714285717 26.610691714285725  33.161678625 23.096731339285718  33.161678625 19.02344271428572  C 33.161678625 13.351987392857147  29.05467573214286 8.735597303571435  24.00438557142857 8.735597303571435  C 18.95716532142857 8.73499425  14.850765482142858 13.351439142857142  14.850765482142858 19.02278485714286  Z M 24.101088053571427 46.291830160714284  C 31.059113357142863 46.291830160714284  37.26610505357143 43.09187860714285  41.334405000000004 38.084073857142855  C 40.85379830357143 34.13374644642857  37.00450408928572 30.77086992857143  31.556659446428572 29.093433535714283  C 29.49910130357143 30.944375142857144  26.87031905357143 32.05809776785714  24.00367296428571 32.05809776785714  C 21.073380857142855 32.05809776785714  18.39098464285714 30.88445694642857  16.313417249999993 28.952984732142856  C 11.01402508928571 30.465522642857138  7.132387124999994 33.55068123214285  6.222265928571424 37.24752101785714  C 10.259318464285716 42.7316565  16.766010910714286 46.291830160714284  24.101088053571427 46.291830160714284  Z " fill-rule="nonzero" fill="#cccccc" stroke="none" transform="matrix(1 0 0 1 286 359 )" />
  </g>
</svg>