<?xml version="1.0" encoding="utf-8"?>
<svg version="1.1" xmlns:xlink="http://www.w3.org/1999/xlink" width="48px" height="48px" xmlns="http://www.w3.org/2000/svg">
  <g transform="matrix(1 0 0 1 -582 -359 )">
    <path d="M 606 359  C 619.44 359  630 369.56  630 383  C 630 396.44  619.44 407  606 407  C 592.56 407  582 396.44  582 383  C 582 369.56  592.56 359  606 359  Z " fill-rule="nonzero" fill="#cccccc" stroke="none" />
    <path d="M 606 359.5  C 619.16 359.5  629.5 369.84  629.5 383  C 629.5 396.16  619.16 406.5  606 406.5  C 592.84 406.5  582.5 396.16  582.5 383  C 582.5 369.84  592.84 359.5  606 359.5  Z " stroke-width="1" stroke="#cccccc" fill="none" />
  </g>
</svg>