<?xml version="1.0" encoding="utf-8"?>
<svg version="1.1" xmlns:xlink="http://www.w3.org/1999/xlink" width="12px" height="3px" xmlns="http://www.w3.org/2000/svg">
  <g transform="matrix(1 0 0 1 -675 -366 )">
    <path d="M 3.1355619076704544 1.4988241230468748  C 3.1355619076704544 2.2231647910156243  2.4941740610795455 2.811103650390626  1.7039842414772726 2.811103650390626  C 0.913794421875 2.811103650390626  0.2724065752840908 2.223164791015626  0.2724065752840908 1.4988241230468748  C 0.2724065752840908 0.7744834550781245  0.913794421875 0.18654459570312465  1.7039842414772726 0.18654459570312465  C 2.4941740610795455 0.18654459570312465  3.1355619076704544 0.7744834550781254  3.1355619076704544 1.4988241230468748  Z M 7.430294891335228 1.4988241230468748  C 7.430294891335228 2.2231647910156243  6.788907044744318 2.811103650390626  5.9987172251420455 2.811103650390626  C 5.2085274055397734 2.811103650390626  4.567139558948863 2.223164791015626  4.567139558948863 1.4988241230468748  C 4.567139558948863 0.7744834550781245  5.2085274055397734 0.18654459570312465  5.9987172251420455 0.18654459570312465  C 6.788907044744318 0.18654459570312465  7.430294891335228 0.7744834550781254  7.430294891335228 1.4988241230468748  Z M 11.727593424715911 1.4988241230468748  C 11.727593424715911 2.2231647910156243  11.083640028409091 2.811103650390626  10.296015758522728 2.811103650390626  C 9.505825938920454 2.811103650390626  8.864438092329545 2.223164791015626  8.864438092329545 1.4988241230468748  C 8.864438092329545 0.7744834550781245  9.505825938920454 0.18654459570312465  10.296015758522728 0.18654459570312465  C 11.086205578125002 0.18654459570312465  11.727593424715911 0.7744834550781254  11.727593424715911 1.4988241230468748  Z " fill-rule="nonzero" fill="#ffffff" stroke="none" transform="matrix(1 0 0 1 675 366 )" />
  </g>
</svg>