<?xml version="1.0" encoding="utf-8"?>
<svg version="1.1" xmlns:xlink="http://www.w3.org/1999/xlink" width="20px" height="21px" preserveAspectRatio="xMidYMin meet" viewBox="2934 344  18 21" xmlns="http://www.w3.org/2000/svg">
  <path d="M 2943 356  L 2943 345  A 5 5 0 0 0 2938 340 L 2472 340  A 5 5 0 0 0 2467 345 L 2467 356  " stroke-width="2" stroke="#0066ff" fill="none" />
  <path d="M 2943 351  A 3.5 3.5 0 0 0 2939.5 354.5 A 3.5 3.5 0 0 0 2943 358 A 3.5 3.5 0 0 0 2946.5 354.5 A 3.5 3.5 0 0 0 2943 351 Z M 2459 348.6  L 2467 358  L 2475 348.6  L 2467 352.2  L 2459 348.6  Z " fill-rule="nonzero" fill="#0066ff" stroke="none" />
</svg>