<?xml version="1.0" encoding="utf-8"?>
<svg version="1.1" xmlns:xlink="http://www.w3.org/1999/xlink" width="21px" height="20px" preserveAspectRatio="xMinYMid meet" viewBox="1469 683  21 18" xmlns="http://www.w3.org/2000/svg">
  <path d="M 1478 692  L 1545 692  A 5 5 0 0 0 1550 687 L 1550 640  A 5 5 0 0 1 1555 635 L 1623 635  " stroke-width="2" stroke="#0066ff" fill="none" />
  <path d="M 1479.5 688.5  A 3.5 3.5 0 0 0 1476 692 A 3.5 3.5 0 0 0 1479.5 695.5 A 3.5 3.5 0 0 0 1483 692 A 3.5 3.5 0 0 0 1479.5 688.5 Z M 1615.6 643  L 1625 635  L 1615.6 627  L 1619.2 635  L 1615.6 643  Z " fill-rule="nonzero" fill="#0066ff" stroke="none" />
</svg>