<?xml version="1.0" encoding="utf-8"?>
<svg version="1.1" xmlns:xlink="http://www.w3.org/1999/xlink" width="34px" height="34px" preserveAspectRatio="xMinYMid meet" viewBox="696 612  34 32" xmlns="http://www.w3.org/2000/svg">
  <path d="M 617 955  L 660 955  A 5 5 0 0 0 665 950 L 665 633  A 5 5 0 0 1 670 628 L 713 628  " stroke-width="2" stroke="#0066ff" fill="none" />
  <path d="M 618.5 951.5  A 3.5 3.5 0 0 0 615 955 A 3.5 3.5 0 0 0 618.5 958.5 A 3.5 3.5 0 0 0 622 955 A 3.5 3.5 0 0 0 618.5 951.5 Z M 705.6 636  L 715 628  L 705.6 620  L 709.2 628  L 705.6 636  Z " fill-rule="nonzero" fill="#0066ff" stroke="none" />
</svg>