<?xml version="1.0" encoding="utf-8"?>
<svg version="1.1" xmlns:xlink="http://www.w3.org/1999/xlink" width="34px" height="34px" preserveAspectRatio="xMinYMid meet" viewBox="1166 695  34 32" xmlns="http://www.w3.org/2000/svg">
  <path d="M 1077 370  L 1125 370  A 5 5 0 0 1 1130 375 L 1130 706  A 5 5 0 0 0 1135 711 L 1183 711  " stroke-width="2" stroke="#0066ff" fill="none" />
  <path d="M 1078.5 366.5  A 3.5 3.5 0 0 0 1075 370 A 3.5 3.5 0 0 0 1078.5 373.5 A 3.5 3.5 0 0 0 1082 370 A 3.5 3.5 0 0 0 1078.5 366.5 Z M 1175.6 719  L 1185 711  L 1175.6 703  L 1179.2 711  L 1175.6 719  Z " fill-rule="nonzero" fill="#0066ff" stroke="none" />
</svg>