<?xml version="1.0" encoding="utf-8"?>
<svg version="1.1" xmlns:xlink="http://www.w3.org/1999/xlink" width="16px" height="16px" xmlns="http://www.w3.org/2000/svg">
  <g transform="matrix(1 0 0 1 -1466 -6898 )">
    <path d="M 16 8  C 16 3.5817187500000003  12.41828125 0  8 0  C 3.58171875 0  0 3.58171875  0 8  C 0 12.41828125  3.58171875 16  8 16  C 12.41828125 16  16 12.41828125  16 8  Z M 14.74346875 8  C 14.74346875 11.7243125  11.7243125 14.74346875  8 14.74346875  C 4.2756875 14.74346875  1.25653125 11.7243125  1.25653125 8  C 1.25653125 4.275703125  4.2756875 1.25653125  8 1.25653125  C 11.7243125 1.25653125  14.74346875 4.275703125  14.74346875 8  Z M 6.554625 11.75  L 6.554625 8  L 6.554625 4.25  L 9.054625 6.125  L 11.554625 8  L 9.054625 9.875  L 6.554625 11.75  Z " fill-rule="nonzero" fill="#000000" stroke="none" transform="matrix(1 0 0 1 1466 6898 )" />
  </g>
</svg>