<?xml version="1.0" encoding="utf-8"?>
<svg version="1.1" xmlns:xlink="http://www.w3.org/1999/xlink" width="10px" height="377px" preserveAspectRatio="xMidYMin meet" viewBox="1261 235  8 377" xmlns="http://www.w3.org/2000/svg">
  <path d="M 970 251  L 970 245  A 5 5 0 0 1 975 240 L 1260 240  A 5 5 0 0 1 1265 245 L 1265 602  A 5 5 0 0 0 1270 607 L 1558 607  " stroke-width="2" stroke="#0066ff" fill="none" />
  <path d="M 970 246  A 3.5 3.5 0 0 0 966.5 249.5 A 3.5 3.5 0 0 0 970 253 A 3.5 3.5 0 0 0 973.5 249.5 A 3.5 3.5 0 0 0 970 246 Z M 1550.6 615  L 1560 607  L 1550.6 599  L 1554.2 607  L 1550.6 615  Z " fill-rule="nonzero" fill="#0066ff" stroke="none" />
</svg>