<?xml version="1.0" encoding="utf-8"?>
<svg version="1.1" xmlns:xlink="http://www.w3.org/1999/xlink" width="20px" height="20px" xmlns="http://www.w3.org/2000/svg">
  <g transform="matrix(1 0 0 1 -1582 -6899 )">
    <path d="M 0.9726896551724139 0.06896551724137936  L 7.291917241379311 0.06896551724137936  C 7.788468965517242 0.06896551724137936  8.193986206896552 0.476137931034483  8.193986206896552 0.9710344827586209  C 8.193986206896552 1.4675862068965517  7.788468965517242 1.8747586206896558  7.291917241379311 1.8747586206896558  L 1.8747586206896552 1.8747586206896558  L 1.8747586206896552 7.292027586206897  C 1.8747586206896552 7.788579310344828  1.4675862068965517 8.19409655172414  0.9726896551724139 8.19409655172414  C 0.476137931034483 8.19409655172414  0.06896551724137936 7.788579310344828  0.06896551724137936 7.292027586206897  L 0.06896551724137936 0.9710344827586206  C 0.06896551724137936 0.4761379310344827  0.4761379310344827 0.06896551724137936  0.9726896551724139 0.06896551724137936  Z M 7.291917241379311 18.125241379310346  C 7.788468965517242 18.125241379310346  8.193986206896552 18.530758620689657  8.193986206896552 19.027310344827587  C 8.193986206896552 19.525517241379312  7.788468965517242 19.931034482758623  7.291917241379311 19.931034482758623  L 0.9726896551724139 19.931034482758623  C 0.9511724137931034 19.931034482758623  0.9296551724137934 19.929379310344828  0.9097931034482758 19.927724137931037  C 0.9015172413793103 19.927724137931037  0.8915862068965517 19.927724137931037  0.883310344827586 19.926068965517242  L 0.8468965517241378 19.921103448275865  C 0.8286896551724134 19.917793103448275  0.8104827586206895 19.916137931034484  0.7939310344827586 19.912827586206895  C 0.7873103448275862 19.9111724137931  0.7806896551724135 19.909517241379312  0.7757241379310345 19.907862068965517  C 0.6079212961536122 19.872015241147928  0.45395111176269887 19.788710477205086  0.33213793103448247 19.667862068965512  C 0.20918537537066495 19.543835041085245  0.12469278067731457 19.386920222369024  0.08882758620689626 19.216  C 0.08882758620689626 19.21268965517241  0.08717241379310318 19.21103448275862  0.08717241379310318 19.20772413793103  C 0.08386206896551704 19.186206896551724  0.08055172413793074 19.161379310344827  0.07724137931034458 19.13655172413793  C 0.07558620689655152 19.129931034482755  0.07393103448275844 19.124965517241378  0.07393103448275844 19.118344827586206  C 0.07062068965517229 19.09186206896552  0.07062068965517229 19.065379310344827  0.07062068965517229 19.038896551724136  C 0.07062068965517229 19.03558620689655  0.06896551724137923 19.032275862068964  0.06896551724137923 19.027310344827583  L 0.06896551724137923 12.709627586206892  C 0.06896551724137923 12.21142068965517  0.4761379310344827 11.805903448275858  0.9726896551724139 11.805903448275858  C 1.4675862068965517 11.805903448275858  1.8747586206896552 12.21142068965517  1.8747586206896552 12.709627586206892  L 1.8747586206896552 16.84910344827586  L 6.388303448275863 12.33390344827586  C 6.740744827586207 11.983006896551721  7.315199999999999 11.983006896551721  7.666096551724139 12.33390344827586  C 8.016993103448277 12.68645517241379  8.016993103448277 13.2608  7.666096551724139 13.610041379310346  L 3.152441379310345 18.12535172413793  L 7.291917241379311 18.12535172413793  Z M 19.92915862068966 0.9313103448275866  C 19.92915862068966 0.9445517241379314  19.930924137931033 0.9577931034482763  19.930924137931033 0.9710344827586209  L 19.930924137931033 7.292027586206897  C 19.930924137931033 7.788579310344828  19.525406896551726 8.19409655172414  19.0272 8.19409655172414  C 18.53064827586207 8.19409655172414  18.125131034482756 7.788579310344828  18.125131034482756 7.292027586206897  L 18.125131034482756 3.1507862068965524  L 13.61158620689655 7.664551724137931  C 13.25903448275862 8.017103448275861  12.687999999999997 8.017103448275861  12.333793103448276 7.664551724137931  C 11.982896551724139 7.311999999999999  11.982896551724139 6.742620689655173  12.333793103448276 6.388413793103448  L 16.849103448275862 1.8748689655172406  L 12.709517241379311 1.8748689655172406  C 12.211310344827588 1.8748689655172406  11.805793103448277 1.4676965517241376  11.805793103448277 0.9711448275862065  C 11.805793103448277 0.4762482758620684  12.211310344827588 0.06907586206896492  12.709517241379311 0.06907586206896492  L 19.0272 0.06907586206896492  C 19.045406896551725 0.06907586206896492  19.061958620689655 0.070731034482758  19.07851034482759 0.070731034482758  C 19.091751724137936 0.07238620689655106  19.10499310344828 0.07238620689655106  19.118234482758623 0.07404137931034414  C 19.12651034482759 0.07404137931034414  19.136441379310348 0.07569655172413722  19.14306206896552 0.07735172413793029  C 19.16457931034483 0.08066206896551645  19.187751724137936 0.08231724137930967  19.20761379310345 0.08728275862068889  C 19.209268965517246 0.08728275862068889  19.210924137931038 0.08893793103448197  19.21257931034483 0.0889379310344818  C 19.564625032898274 0.1591051162697154  19.840059861210264 0.4338872554150888  19.91106206896552 0.7857655172413787  C 19.91106206896552 0.7890758620689647  19.91106206896552 0.7907310344827579  19.912717241379315 0.7923862068965509  L 19.922648275862073 0.8569379310344818  C 19.924303448275865 0.8652137931034475  19.925958620689656 0.873489655172413  19.925958620689656 0.8834206896551717  C 19.92761379310345 0.8983172413793096  19.92761379310345 0.9148689655172405  19.929268965517245 0.9314206896551716  Z M 18.125241379310346 12.70896551724138  C 18.125241379310346 12.210758620689655  18.530758620689657 11.805241379310345  19.027310344827587 11.805241379310347  C 19.525517241379312 11.805241379310347  19.931034482758623 12.21075862068966  19.931034482758623 12.708965517241381  L 19.931034482758623 19.026648275862073  C 19.931034482758623 19.524855172413798  19.525517241379312 19.93037241379311  19.027310344827587 19.93037241379311  L 12.709737931034484 19.93037241379311  C 12.211531034482759 19.93037241379311  11.806013793103446 19.524855172413798  11.806013793103446 19.026648275862073  C 11.806013793103446 18.530096551724142  12.211531034482759 18.12457931034483  12.709737931034484 18.12457931034483  L 18.125241379310346 18.12457931034483  L 18.125241379310346 12.70896551724138  Z " fill-rule="nonzero" fill="#000000" stroke="none" transform="matrix(1 0 0 1 1582 6899 )" />
  </g>
</svg>