<?xml version="1.0" encoding="utf-8"?>
<svg version="1.1" xmlns:xlink="http://www.w3.org/1999/xlink" width="16px" height="16px" xmlns="http://www.w3.org/2000/svg">
  <g transform="matrix(1 0 0 1 -1385 -6900 )">
    <path d="M 5.644678866666668 4.828137355555556  L 5.644678866666667 11.122766666666667  L 7.218478311111112 11.122766666666667  L 7.218478311111112 4.828137355555556  L 5.644678866666668 4.828137355555556  Z M 15.872919933333332 7.975713533333333  C 15.872919933333332 3.6482198444444447  12.33207582222222 0.1073302444444443  8.004559399999998 0.1073302444444443  C 3.677588733333332 0.1073302444444443  0.13617611111110994 3.6482198222222224  0.13617611111110994 7.975713533333333  C 0.13617611111110994 12.302729688888888  3.677565977777777 15.844119555555555  8.004559399999998 15.844119555555555  C 12.33207582222222 15.844119555555555  15.872919933333332 12.302729688888888  15.872919933333332 7.975713533333333  Z M 14.299688999999999 7.975713533333335  C 14.299688977777777 11.437421955555555  11.46676811111111 14.270342844444444  8.004559399999998 14.270342844444444  C 4.542850977777777 14.270342844444444  1.709975577777776 11.437421955555555  1.709975577777776 7.975713533333335  C 1.709975577777776 4.513504822222223  4.542850977777777 1.680583933333335  8.004559399999998 1.680583933333335  C 11.46676811111111 1.680583933333335  14.299688999999999 4.513504822222225  14.299688999999999 7.975713533333335  Z M 8.792232288888888 4.828137355555556  L 8.792232288888888 11.122766666666667  L 10.366031733333331 11.122766666666667  L 10.366031733333331 4.828137355555556  L 8.792232288888888 4.828137355555556  Z " fill-rule="nonzero" fill="#000000" stroke="none" transform="matrix(1 0 0 1 1385 6900 )" />
  </g>
</svg>