<?xml version="1.0" encoding="utf-8"?>
<svg version="1.1" xmlns:xlink="http://www.w3.org/1999/xlink" width="79px" height="10px" preserveAspectRatio="xMinYMid meet" viewBox="2408 6725  79 8" xmlns="http://www.w3.org/2000/svg">
  <path d="M 2342 6601  L 2408 6601  A 5 5 0 0 1 2413 6606 L 2413 6724  A 5 5 0 0 0 2418 6729 L 2485 6729  " stroke-width="2" stroke="#0066ff" fill="none" />
  <path d="M 2343.5 6597.5  A 3.5 3.5 0 0 0 2340 6601 A 3.5 3.5 0 0 0 2343.5 6604.5 A 3.5 3.5 0 0 0 2347 6601 A 3.5 3.5 0 0 0 2343.5 6597.5 Z M 2477.6 6737  L 2487 6729  L 2477.6 6721  L 2481.2 6729  L 2477.6 6737  Z " fill-rule="nonzero" fill="#0066ff" stroke="none" />
</svg>