<?xml version="1.0" encoding="utf-8"?>
<svg version="1.1" xmlns:xlink="http://www.w3.org/1999/xlink" width="34px" height="34px" preserveAspectRatio="xMinYMid meet" viewBox="1066 901  34 32" xmlns="http://www.w3.org/2000/svg">
  <path d="M 928 962  L 915 962  A 5 5 0 0 1 910 957 L 910 922  A 5 5 0 0 1 915 917 L 1083 917  " stroke-width="2" stroke="#0066ff" fill="none" />
  <path d="M 926.5 958.5  A 3.5 3.5 0 0 0 923 962 A 3.5 3.5 0 0 0 926.5 965.5 A 3.5 3.5 0 0 0 930 962 A 3.5 3.5 0 0 0 926.5 958.5 Z M 1075.6 925  L 1085 917  L 1075.6 909  L 1079.2 917  L 1075.6 925  Z " fill-rule="nonzero" fill="#0066ff" stroke="none" />
</svg>