<?xml version="1.0" encoding="utf-8"?>
<svg version="1.1" xmlns:xlink="http://www.w3.org/1999/xlink" width="33px" height="40px" xmlns="http://www.w3.org/2000/svg">
  <defs>
    <filter x="1518px" y="709px" width="33px" height="40px" filterUnits="userSpaceOnUse" id="filter6676">
      <feOffset dx="1" dy="1" in="SourceAlpha" result="shadowOffsetInner" />
      <feGaussianBlur stdDeviation="2.5" in="shadowOffsetInner" result="shadowGaussian" />
      <feComposite in2="shadowGaussian" operator="atop" in="SourceAlpha" result="shadowComposite" />
      <feColorMatrix type="matrix" values="0 0 0 0 0  0 0 0 0 0  0 0 0 0 0  0 0 0 0.6980392156862745 0  " in="shadowComposite" />
    </filter>
    <g id="widget6677">
      <path d="M 1533.5 742.0510746424377  C 1529.1 734.9160459338078  1522.5 730.6350287086299  1522.5 723.5  C 1522.5 719.7857142857143  1524.7 713.5  1533.5 713.5  C 1542.3 713.5  1544.5 719.7857142857143  1544.5 723.5  C 1544.5 730.6350287086299  1537.9 734.9160459338078  1533.5 742.0510746424377  Z " fill-rule="nonzero" fill="#009dd9" stroke="none" />
      <path d="M 1533.5 743  C 1528.9 735.5  1522 731  1522 723.5  C 1522 719.6  1524.3 713  1533.5 713  C 1542.7 713  1545 719.6  1545 723.5  C 1545 731  1538.1 735.5  1533.5 743  Z M 1533.5 741.1021492848754  C 1537.7 734.3320918676156  1544 730.2700574172597  1544 723.5  C 1544 719.9714285714285  1541.9 714  1533.5 714  C 1525.1 714  1523 719.9714285714285  1523 723.5  C 1523 730.2700574172597  1529.3 734.3320918676156  1533.5 741.1021492848754  Z " fill-rule="nonzero" fill="#ffffff" stroke="none" />
    </g>
  </defs>
  <g transform="matrix(1 0 0 1 -1518 -709 )">
    <use xlink:href="#widget6677" filter="url(#filter6676)" />
    <use xlink:href="#widget6677" />
  </g>
</svg>