<?xml version="1.0" encoding="utf-8"?>
<svg version="1.1" xmlns:xlink="http://www.w3.org/1999/xlink" width="30px" height="30px" xmlns="http://www.w3.org/2000/svg">
  <g transform="matrix(1 0 0 1 -650 -859 )">
    <path d="M 29.986444888392857 15.000479631696424  C 29.986444888392857 6.737533392857142  23.29559842633929 0.014857064732142846  15.072396629464285 0.014857064732142846  C 6.8290484933035716 0.014857064732142846  0.12226995535714254 6.737533359375001  0.12226995535714254 15.000513917410714  C 0.12226995535714254 23.26298052455357  6.853443348214285 29.985108649553574  15.127559229910712 29.985108649553574  C 16.811663136160714 29.985108649553574  18.46290927455357 29.709741060267856  20.033467299107137 29.16692052455357  C 20.650020703124998 28.9536365625  21.073436484374998 28.7509396875  21.08724425223214 28.74401869419643  C 21.32814378348214 28.636297433035715  21.509597912946422 28.441035535714285  21.596624598214284 28.194859587053568  C 21.684713437499994 27.950259709821427  21.668781395089283 27.68815171875  21.553111238839286 27.456811406249997  L 21.456559553571427 27.261549508928567  C 21.217784296874996 26.78399899553571  20.62034936383928 26.572839308035714  20.112031138392855 26.797806796874998  C 20.11096901785714 26.798868917410708  19.91783136160714 26.899155234374994  19.43921872767857 27.06841188616071  C 18.063922600446425 27.558159843749994  16.619621852678574 27.80700827008928  15.145615513392858 27.80700827008928  C 8.083363727678572 27.80700827008928  2.3391211607142868 22.06221753348214  2.3391211607142868 15.00051391741071  C 2.3391211607142868 7.9388103013392834  8.083363761160713 2.1935056473214285  15.145615546875002 2.1935056473214285  C 22.20680521205357 2.1935056473214285  27.951047745535718 7.938810334821428  27.951047745535718 14.997875725446429  C 27.921342187500006 16.734538258928573  27.486242879464292 18.362383158482142  26.725375881696433 19.580106127232145  C 26.03347928571429 20.688531763392856  25.153755736607145 21.320982957589287  24.307986294642863 21.320982957589287  C 24.297364921875005 21.320982957589287  24.287839955357143 21.320982957589287  24.278280736607144 21.320982957589287  C 22.743801127232146 21.29446379464286  21.752621718750007 19.024574196428574  21.752621718750007 15.53798953125  L 21.752621718750007 9.334766752232143  C 21.752621718750007 9.14957802455357  21.704859810267866 9.012151205357144  21.606183850446435 8.914537366071428  C 21.44062751116072 8.748981026785712  21.192327287946434 8.753229575892856  20.894106629464293 8.751653504464283  L 20.811328459821436 8.752201707589283  L 20.502520680803578 8.751653504464283  C 20.24466123883929 8.752715624999999  20.05152361607143 8.749529229910712  19.91673498883929 8.883769654017856  C 19.794692008928575 9.004750479910713  19.778794218750008 9.18832888392857  19.778794218750008 9.334766718749998  L 19.778794218750008 10.374735904017857  C 18.265523069196433 9.166023984374998  17.085488839285716 8.383400323660714  15.359961629464289 8.353146529017858  C 15.324945368303574 8.352598325892856  15.290991261160716 8.352084408482142  15.257037120535717 8.352084408482142  C 11.61606569196429 8.352084408482142  8.611828292410717 11.674140636160713  8.53860934151786 15.811232812500002  C 8.466452544642861 19.986493426339283  11.379414709821432 23.435903270089284  15.033131785714287 23.499597254464284  C 15.068148046875002 23.500111205357143  15.10210215401786 23.500659375  15.13605629464286 23.500659375  C 17.25525947544643 23.500659375  19.230149062500004 22.359341752232144  20.492961462053575 20.416830200892853  C 21.3090253125 22.434171026785712  22.552753493303577 23.470953783482145  24.192281886160714 23.499597220982142  C 24.215648906250003 23.500111171874998  24.238981640625003 23.500111171874998  24.26128654017857 23.500111171874998  C 25.39784166294643 23.500111171874998  26.495097723214283 23.01091141741071  27.43957737723214 22.082877756696426  C 29.03456454241071 20.516020078125  29.986444888392857 17.904430747767854  29.986444888392857 15.097031316964282  L 29.986444888392857 15.000479631696424  Z M 15.145615546874998 10.381143013392858  C 17.55348016741071 10.381143013392858  19.511375558035713 12.894056417410713  19.511375558035713 15.982648058035716  C 19.511375558035713 19.07072578125  17.55348016741071 21.583639151785718  15.145615546874998 21.583639151785718  C 12.737750926339283 21.583639151785718  10.779855535714281 19.070725747767856  10.779855535714281 15.982648058035716  C 10.779855535714281 12.89402213169643  12.737750926339283 10.381143013392858  15.145615546874998 10.381143013392858  Z " fill-rule="nonzero" fill="#000000" stroke="none" transform="matrix(1 0 0 1 650 859 )" />
  </g>
</svg>