<?xml version="1.0" encoding="utf-8"?>
<svg version="1.1" xmlns:xlink="http://www.w3.org/1999/xlink" width="30px" height="30px" xmlns="http://www.w3.org/2000/svg">
  <g transform="matrix(1 0 0 1 -710 -859 )">
    <path d="M 30 15  C 30 6.7157226562500005  23.28427734375 0  15 0  C 6.715693359375001 0  0 6.71572265625  0 15  C 0 23.28427734375  6.715693359375001 30  15 30  C 23.28427734375 30  30 23.28427734375  30 15  Z M 28.5 15  C 28.5 22.455908203125  22.4560546875 28.5  15 28.5  C 7.544091796875 28.5  1.5 22.455908203125  1.5 15  C 1.5 7.544091796875  7.544091796875 1.5  15 1.5  C 22.4560546875 1.5  28.5 7.544091796875  28.5 15  Z M 18.53947265625 9.86748046875  L 26.212763671875003 22  L 3.7872070312500004 22  L 8.745703124999999 14.370849609374998  L 12.265458984375 19.778759765624997  L 18.53947265625 9.86748046875  Z M 8.745703125 7.475537109375  C 9.367060546875 7.475537109375  9.870703125 7.979296875  9.870703125 8.600537109375  C 9.870703125 9.221777343749999  9.367089843750001 9.725537109374999  8.745703125 9.725537109374999  C 8.124462890625 9.725537109374999  7.620732421875001 9.221777343749999  7.620732421875001 8.600537109375  C 7.620732421875001 7.979296875  8.124462890625 7.475537109375  8.745703125 7.475537109375  Z " fill-rule="nonzero" fill="#231815" stroke="none" transform="matrix(1 0 0 1 710 859 )" />
  </g>
</svg>