<?xml version="1.0" encoding="utf-8"?>
<svg version="1.1" xmlns:xlink="http://www.w3.org/1999/xlink" width="13px" height="18px" xmlns="http://www.w3.org/2000/svg">
  <g transform="matrix(1 0 0 1 -982 -225 )">
    <path d="M 12.592432432432433 1.2822857142857143  L 7.045297297297297 6.714514285714285  C 7.017189189189189 6.763885714285714  6.991891891891891 6.814628571428572  6.94972972972973 6.857142857142857  C 6.8119999999999985 6.991542857142857  6.630702702702703 7.0464  6.449405405405406 7.039542857142857  C 6.269513513513514 7.0464  6.088216216216216 6.991542857142857  5.950486486486486 6.857142857142857  C 5.908324324324324 6.814628571428572  5.883027027027027 6.763885714285714  5.853513513513514 6.714514285714285  L 0.30778378378378357 1.2822857142857143  C 0.044972972972973015 1.0258285714285718  0.044972972972973015 0.6102857142857143  0.30778378378378357 0.3538285714285715  C 0.5691891891891889 0.09737142857142851  0.9950270270270273 0.09737142857142851  1.2564324324324327 0.3538285714285715  L 6.449405405405406 5.4390857142857145  L 11.643783783783785 0.3538285714285715  C 11.905189189189189 0.09737142857142851  12.331027027027027 0.09737142857142851  12.592432432432433 0.3538285714285715  C 12.855243243243244 0.6102857142857143  12.855243243243244 1.0258285714285718  12.592432432432433 1.2822857142857143  Z M 0.30778378378378357 16.85897142857143  L 5.874594594594594 11.426742857142859  C 5.904108108108107 11.37737142857143  5.928 11.326628571428571  5.971567567567567 11.284114285714285  C 6.109297297297298 11.149714285714285  6.2905945945945945 11.094857142857142  6.471891891891892 11.101714285714287  C 6.653189189189189 11.094857142857142  6.834486486486485 11.149714285714285  6.972216216216216 11.284114285714285  C 7.015783783783785 11.326628571428571  7.039675675675675 11.37737142857143  7.069189189189188 11.426742857142859  L 12.636 16.85897142857143  C 12.898810810810811 17.11542857142857  12.898810810810811 17.530971428571426  12.636 17.787428571428574  C 12.373189189189189 18.043885714285715  11.947351351351351 18.043885714285715  11.68454054054054 17.787428571428574  L 6.471891891891892 12.702171428571429  L 1.2592432432432432 17.787428571428574  C 0.9964324324324318 18.043885714285715  0.5705945945945948 18.043885714285715  0.30778378378378357 17.787428571428574  C 0.044972972972973015 17.530971428571426  0.044972972972973015 17.11542857142857  0.30778378378378357 16.85897142857143  Z " fill-rule="nonzero" fill="#333333" stroke="none" transform="matrix(1 0 0 1 982 225 )" />
  </g>
</svg>