<?xml version="1.0" encoding="utf-8"?>
<svg version="1.1" xmlns:xlink="http://www.w3.org/1999/xlink" width="30px" height="30px" xmlns="http://www.w3.org/2000/svg">
  <g transform="matrix(1 0 0 1 -770 -859 )">
    <path d="M 14.984262295081969 2.664043709016391  C 8.2240555164813 2.664043709016391  2.74382512807377 8.144274097423922  2.74382512807377 14.904480876024591  C 2.74382512807377 21.664687654625258  8.2240555164813 27.14491804303279  14.984262295081969 27.14491804303279  C 21.744469073682637 27.14491804303279  27.224699462090168 21.664687654625258  27.224699462090168 14.904480876024591  C 27.224699462090168 8.144274097423922  21.744469073682637 2.664043709016391  14.984262295081969 2.664043709016391  Z M 0.12155022226122253 14.904480876024591  C 0.12155022226122253 6.6959223188725066  6.775703746417594 0.04146618733257574  14.984262295081967 0.0410928995901637  C 23.19376073271931 0.041092884221310626  29.84832620583149 6.695658357333497  29.84832620583149 14.904480876024591  C 29.84832620583149 23.113303394715683  23.19376073271931 29.76786886782787  14.984938214028215 29.76786886782787  C 6.77570374641759 29.767495564716608  0.12155022226122253 23.113039433176677  0.12155022226122253 14.904480876024591  Z M 10.362622961065576 12.779890633455702  C 9.190209984301905 12.779890633455702  8.239781469366863 11.82946214684564  8.23978143442623 10.657049170081967  C 8.23978143442623 9.484636168611537  9.190209959595146 8.53420764344262  10.362622961065574 8.53420764344262  C 11.535035962536003 8.53420764344262  12.485464487704917 9.484636168611537  12.485464487704917 10.657049170081967  C 12.485464487704922 11.829462108286789  11.535035962536005 12.779890633455702  10.362622961065576 12.779890633455702  Z M 19.60502731045082 12.780765015368855  C 18.432131436124862 12.780765015368855  17.481311465163937 11.829945044407927  17.481311465163937 10.657049170081967  C 17.481311465163934 9.484153295756004  18.432131436124862 8.53333332479508  19.60502731045082 8.53333332479508  C 20.777923184776782 8.53333332479508  21.72874315573771 9.484153295756006  21.72874315573771 10.657049170081967  C 21.72874315573771 11.829945044407928  20.777923184776782 12.780765015368855  19.60502731045082 12.780765015368855  Z M 14.954535522540983 23.140546444672133  C 10.644153012295083 23.140546444672133  7.734426239754098 19.12393441598361  7.734426239754098 15.778797817622953  L 22.342513647540983 15.778797817622953  C 22.342513647540983 19.12393441598361  19.266666639344262 23.140546444672133  14.954535522540983 23.140546444672133  Z " fill-rule="nonzero" fill="#333333" stroke="none" transform="matrix(1 0 0 1 770 859 )" />
  </g>
</svg>