<?xml version="1.0" encoding="utf-8"?>
<svg version="1.1" xmlns:xlink="http://www.w3.org/1999/xlink" width="60px" height="42px" xmlns="http://www.w3.org/2000/svg">
  <defs>
    <mask fill="white" id="clip6658">
      <path d="M 0 35  L 0 0  L 60 0  L 60 35  L 9.110281270341519 35  L 5.641672447499499 42  L 2.0000000000000044 35  L 0 35  Z " fill-rule="evenodd" />
    </mask>
  </defs>
  <g transform="matrix(1 0 0 1 -286 -954 )">
    <path d="M 0 35  L 0 0  L 60 0  L 60 35  L 9.110281270341519 35  L 5.641672447499499 42  L 2.0000000000000044 35  L 0 35  Z " fill-rule="nonzero" fill="#000000" stroke="none" transform="matrix(1 0 0 1 286 954 )" />
    <path d="M 0 35  L 0 0  L 60 0  L 60 35  L 9.110281270341519 35  L 5.641672447499499 42  L 2.0000000000000044 35  L 0 35  Z " stroke-width="2" stroke="#000000" fill="none" transform="matrix(1 0 0 1 286 954 )" mask="url(#clip6658)" />
  </g>
</svg>