<?xml version="1.0" encoding="utf-8"?>
<svg version="1.1" xmlns:xlink="http://www.w3.org/1999/xlink" width="9px" height="8px" xmlns="http://www.w3.org/2000/svg">
  <g transform="matrix(1 0 0 1 -1079 -1801 )">
    <path d="M 8.963265306122448 4.093023255813957  C 9.110204081632652 1.8604651162790737  7.053061224489794 0.0744186046511665  4.555102040816326 0.07441860465116253  C 2.0571428571428574 0.07441860465116253  0 1.8604651162790697  0 3.9441860465116285  C 0 6.176744186046512  2.0571428571428574 7.9627906976744205  4.555102040816326 7.9627906976744205  C 5.730612244897958 7.9627906976744205  6.906122448979591 7.516279069767443  7.640816326530611 6.920930232558143  C 7.199999999999998 6.920930232558143  6.906122448979591 6.474418604651165  6.906122448979591 6.176744186046514  C 6.906122448979591 5.730232558139537  7.199999999999998 5.432558139534887  7.640816326530611 5.432558139534887  C 8.081632653061224 5.432558139534887  8.375510204081632 5.730232558139537  8.375510204081632 6.02790697674419  C 8.816326530612244 5.432558139534887  8.963265306122448 4.8372093023255855  8.963265306122448 4.093023255813957  Z M 3.673469387755102 2.7534883720930226  C 3.8204081632653053 3.1999999999999993  3.3795918367346935 3.4976744186046504  2.9387755102040813 3.4976744186046504  C 2.49795918367347 3.4976744186046504  2.204081632653061 3.1999999999999993  2.204081632653061 2.7534883720930226  C 2.204081632653061 2.3069767441860463  2.49795918367347 2.0093023255813947  2.9387755102040813 2.0093023255813947  C 3.3795918367346935 2.0093023255813947  3.673469387755102 2.3069767441860463  3.673469387755102 2.7534883720930226  Z M 6.906122448979591 2.7534883720930226  C 6.906122448979591 3.1999999999999993  6.612244897959184 3.4976744186046504  6.171428571428571 3.4976744186046504  C 5.730612244897958 3.4976744186046504  5.4367346938775505 3.1999999999999993  5.4367346938775505 2.7534883720930226  C 5.4367346938775505 2.3069767441860463  5.730612244897958 2.0093023255813947  6.171428571428571 2.0093023255813947  C 6.612244897959184 2.0093023255813947  6.906122448979591 2.3069767441860463  6.906122448979591 2.7534883720930226  Z " fill-rule="nonzero" fill="#ffffff" stroke="none" transform="matrix(1 0 0 1 1079 1801 )" />
  </g>
</svg>