<?xml version="1.0" encoding="utf-8"?>
<svg version="1.1" xmlns:xlink="http://www.w3.org/1999/xlink" width="12px" height="12px" xmlns="http://www.w3.org/2000/svg">
  <g transform="matrix(1 0 0 1 -1260 -1798 )">
    <path d="M 4.106024096385542 11.54659090909091  C 4.106024096385542 11.73409090909091  3.9451807228915663 11.885795454545454  3.7445783132530117 11.885795454545454  L 1.6156626506024099 11.885795454545454  C 0.7933734939759038 11.885795454545454  0.124698795180723 11.255113636363635  0.124698795180723 10.479545454545454  L 0.124698795180723 1.4761363636363636  C 0.124698795180723 0.7005681818181817  0.7933734939759038 0.06988636363636354  1.6156626506024099 0.06988636363636354  L 10.451204819277109 0.06988636363636354  C 11.273493975903614 0.06988636363636354  11.942168674698795 0.7005681818181817  11.942168674698795 1.4761363636363636  L 11.942168674698795 2.671022727272727  C 11.942168674698795 2.858522727272727  11.779518072289155 3.011931818181818  11.580722891566264 3.011931818181818  C 11.381927710843373 3.011931818181818  11.219277108433733 2.858522727272727  11.219277108433733 2.671022727272727  L 11.219277108433733 1.4761363636363636  C 11.219277108433733 1.0772727272727272  10.875903614457831 0.7517045454545455  10.451204819277109 0.7517045454545455  L 1.6156626506024099 0.7517045454545455  C 1.1927710843373494 0.7517045454545455  0.8475903614457834 1.0755681818181817  0.8475903614457834 1.4761363636363636  L 0.8475903614457834 10.48125  C 0.8475903614457834 10.880113636363635  1.1909638554216868 11.205681818181818  1.6156626506024099 11.205681818181818  L 3.7445783132530117 11.205681818181818  C 3.943373493975903 11.205681818181818  4.106024096385542 11.35909090909091  4.106024096385542 11.54659090909091  Z " fill-rule="nonzero" fill="#7f7f7f" stroke="none" transform="matrix(1 0 0 1 1260 1798 )" />
  </g>
</svg>