<?xml version="1.0" encoding="utf-8"?>
<svg version="1.1" xmlns:xlink="http://www.w3.org/1999/xlink" width="12px" height="7px" xmlns="http://www.w3.org/2000/svg">
  <g transform="matrix(1 0 0 1 -1080 -1804 )">
    <path d="M 11.963076923076922 3.3526315789473715  C 11.963076923076922 1.5842105263157937  10.338461538461539 0.11052631578947655  8.27076923076923 0.11052631578947396  C 6.203076923076922 0.11052631578947396  4.5784615384615375 1.5842105263157897  4.5784615384615375 3.3526315789473693  C 4.5784615384615375 5.12105263157895  6.203076923076922 6.594736842105265  8.27076923076923 6.594736842105265  C 10.338461538461539 6.594736842105265  11.963076923076922 5.12105263157895  11.963076923076922 3.3526315789473715  Z M 7.827692307692306 2.615789473684211  C 7.827692307692306 3.057894736842107  7.5323076923076915 3.3526315789473693  7.089230769230767 3.3526315789473693  C 7.089230769230767 3.3526315789473693  6.94153846153846 3.3526315789473693  7.089230769230767 3.3526315789473693  C 7.384615384615382 3.057894736842107  7.679999999999999 2.763157894736842  7.827692307692306 2.46842105263158  L 7.827692307692306 2.615789473684211  Z M 10.338461538461537 2.615789473684211  C 10.338461538461537 3.057894736842107  10.04307692307692 3.3526315789473693  9.599999999999998 3.3526315789473693  C 9.156923076923073 3.3526315789473693  8.861538461538458 3.057894736842107  8.861538461538458 2.615789473684211  C 8.861538461538458 2.173684210526315  9.156923076923073 1.878947368421053  9.599999999999998 1.878947368421053  C 10.04307692307692 1.878947368421053  10.338461538461537 2.173684210526315  10.338461538461537 2.615789473684211  Z M 2.2153846153846155 4.089473684210526  L 0.7384615384615385 3.3526315789473693  C 0.7384615384615385 3.3526315789473693  1.033846153846154 3.942105263157896  0.14769230769230718 4.2368421052631575  C 0.14769230769230718 4.2368421052631575  1.1815384615384612 4.384210526315789  2.2153846153846155 4.089473684210526  Z M 9.452307692307691 6.594736842105263  L 10.781538461538462 5.857894736842105  C 10.781538461538462 5.857894736842105  9.895384615384618 6.3  10.633846153846156 6.889473684210524  C 10.633846153846156 6.889473684210524  10.19076923076923 6.889473684210524  9.452307692307691 6.594736842105263  Z " fill-rule="nonzero" fill="#ffffff" stroke="none" transform="matrix(1 0 0 1 1080 1804 )" />
  </g>
</svg>