<?xml version="1.0" encoding="utf-8"?>
<svg version="1.1" xmlns:xlink="http://www.w3.org/1999/xlink" width="11px" height="12px" xmlns="http://www.w3.org/2000/svg">
  <g transform="matrix(1 0 0 1 -1264 -1802 )">
    <path d="M 10.97484756097561 10.586206896551724  C 10.973170731707317 11.31896551724138  10.392987804878048 11.91551724137931  9.678658536585367 11.91551724137931  L 1.3565548780487802 11.91551724137931  C 0.6439024390243899 11.91551724137931  0.062042682926829074 11.31896551724138  0.062042682926829074 10.58448275862069  L 0.062042682926829074 1.351724137931034  C 0.062042682926829074 0.6189655172413789  0.6422256097560978 0.0206896551724136  1.3565548780487802 0.0206896551724136  L 9.680335365853658 0.0206896551724136  C 10.392987804878048 0.0206896551724136  10.97484756097561 0.6172413793103451  10.97484756097561 1.351724137931034  L 10.97484756097561 10.586206896551724  Z M 9.680335365853658 0.7103448275862067  L 1.3565548780487802 0.7103448275862067  C 1.0128048780487802 0.7103448275862067  0.7327743902439021 0.9982758620689651  0.7327743902439021 1.351724137931034  L 0.7327743902439021 10.586206896551724  C 0.7327743902439021 10.939655172413794  1.0128048780487802 11.227586206896552  1.3565548780487802 11.227586206896552  L 9.680335365853658 11.227586206896552  C 10.024085365853658 11.227586206896552  10.304115853658537 10.939655172413794  10.304115853658537 10.586206896551724  L 10.304115853658537 1.351724137931034  C 10.304115853658537 0.9982758620689651  10.024085365853658 0.7103448275862067  9.680335365853658 0.7103448275862067  Z " fill-rule="nonzero" fill="#7f7f7f" stroke="none" transform="matrix(1 0 0 1 1264 1802 )" />
  </g>
</svg>