<?xml version="1.0" encoding="utf-8"?>
<svg version="1.1" xmlns:xlink="http://www.w3.org/1999/xlink" width="14px" height="13px" xmlns="http://www.w3.org/2000/svg">
  <g transform="matrix(1 0 0 1 -1246 -1951 )">
    <path d="M 12.551000000000002 8.307661016949151  C 14.404201005293249 6.399989830391894  14.391725743210387 3.3464806453264986  12.523000000000001 1.4542372881355927  C 10.607618513560645 -0.38839336159067633  7.592381486439356 -0.38839336159067633  5.677 1.4542372881355936  L 1.5750000000000006 5.557830508474575  C -0.31373459812219995 7.4627574472257265  -0.31373459812219995 10.548632383282746  1.5750000000000006 12.453559322033897  C 1.8379774246970129 12.720325630341936  2.1957726128823554 12.870352319405063  2.5690000000000017 12.870352319405063  C 3.342633451749921 12.870352319405063  3.9697872786401245 12.23864289570936  3.9697872786401245 11.459389830508474  C 3.9697872786401245 11.086906668088739  3.82356035096708 10.729534749237153  3.5630000000000024 10.46522033898305  C 2.7691931786945716 9.661962852099803  2.76919317869457 8.363528673323927  3.5630000000000006 7.560271186440677  L 7.692999999999998 3.400271186440679  C 8.49951896824205 2.623101409199376  9.77048103175795 2.623101409199377  10.577000000000002 3.400271186440679  C 11.370806821305433 4.203528673323928  11.370806821305433 5.501962852099802  10.577000000000002 6.305220338983051  L 9.583000000000002 7.3064406779661  C 9.318157487184571 7.571328350300138  9.169212721359878 7.931722535009829  9.169212721359878 8.307661016949153  C 9.169212721359878 9.086914082150038  9.796366548250084 9.718623505845741  10.570000000000002 9.718623505845741  C 10.939796985767671 9.718623505845741  11.294591703281384 9.571334397100015  11.557000000000002 9.308881355932204  L 12.551000000000002 8.307661016949151  Z " fill-rule="nonzero" fill="#7f7f7f" stroke="none" transform="matrix(1 0 0 1 1246 1951 )" />
  </g>
</svg>