<?xml version="1.0" encoding="utf-8"?>
<svg version="1.1" xmlns:xlink="http://www.w3.org/1999/xlink" width="14px" height="13px" xmlns="http://www.w3.org/2000/svg">
  <g transform="matrix(1 0 0 1 -1240 -1958 )">
    <path d="M 11.458112205075265 0.10163360149083552  C 11.095910375182402 0.10163360149083552  10.747355082262608 0.23865567367241736  10.483555555555556 0.4847457627118651  C 9.932126443077975 1.0347646813333715  9.932126443077975 1.923065827141206  10.483555555555556 2.473084745762713  C 11.289962485135682 3.2763422326459617  11.289962485135678 4.574776411421834  10.483555555555556 5.378033898305085  L 6.302222222222223 9.566237288135596  C 5.907897217080592 10.014238949167792  5.337480389764014 10.2713220338983  4.737777777777786 10.2713220338983  C 3.590989177240246 10.2713220338983  2.6613333333333418 9.349544629346541  2.6613333333333418 8.212474576271182  C 2.6613333333333418 7.61785418981026  2.920613709386329 7.052271403403143  3.372444444444445 6.661288135593219  L 4.311111111111112 5.6600677966101705  C 4.575807340664971 5.395753386356065  4.724355330682032 5.038381467504481  4.724355330682032 4.665898305084746  C 4.724355330682032 3.88664523988386  4.087246681142775 3.254935816188157  3.3013333333333352 3.254935816188157  C 2.922181701975728 3.254935816188157  2.55870722508903 3.404962505251285  2.291555555555557 3.6717288135593225  L 1.35288888888889 4.715254237288137  C 0.5056991916544409 5.618119031493206  0.034739143740817255 6.80557575522351  0.034739143740817255 8.038775594765458  C 0.034739143740817255 10.733475857533085  2.2378961436845746 12.917962035443425  4.955628032629706 12.917962035443425  C 6.199368041740388 12.917962035443425  7.3969739682376225 12.45099317437653  8.307555555555556 11.610983050847457  L 12.50311111111111 7.450983050847458  C 14.421825623489218 5.546056112096307  14.421825623489218 2.460181176039285  12.50311111111111 0.5552542372881378  C 12.233877488090355 0.2660892652414995  11.855023496122417 0.10163360149083552  11.458112205075265 0.10163360149083552  Z " fill-rule="nonzero" fill="#7f7f7f" stroke="none" transform="matrix(1 0 0 1 1240 1958 )" />
  </g>
</svg>