<?xml version="1.0" encoding="utf-8"?>
<svg version="1.1" xmlns:xlink="http://www.w3.org/1999/xlink" width="42px" height="50px" xmlns="http://www.w3.org/2000/svg">
  <g transform="matrix(1 0 0 1 -1225 -2134 )">
    <path d="M 27.720000000000002 0  L 2.52 0  C 1.8896640000000007 0  1.217664 0.24999999999999983  0.7560000000000002 0.7499999999999999  C 0.2936640000000005 1.25  0 1.8753333333333333  0 2.5  L 0 47.5  C 0 48.12533333333333  0.25199999999999984 48.792  0.7560000000000002 49.25  C 1.26 49.75  1.890336000000001 50  2.52 50  L 39.48 50  C 40.110336 50  40.782336 49.75  41.244 49.25  C 41.748000000000005 48.75  42 48.12466666666666  42 47.5  L 42 14.166666666666666  L 27.720000000000002 0  Z " fill-rule="nonzero" fill="#1c88ff" stroke="none" transform="matrix(1 0 0 1 1225 2134 )" />
  </g>
</svg>