<?xml version="1.0" encoding="utf-8"?>
<svg version="1.1" xmlns:xlink="http://www.w3.org/1999/xlink" width="21px" height="20px" preserveAspectRatio="xMinYMid meet" viewBox="391 1636  21 18" xmlns="http://www.w3.org/2000/svg">
  <path d="M 400 1645  L 415 1645  A 5 5 0 0 0 420 1640 L 420 1558  A 3 3 0 0 0 423 1555 A 3 3 0 0 0 420 1552 L 420 1514  A 5 5 0 0 1 425 1509 L 457 1509  " stroke-width="2" stroke="#0066ff" fill="none" />
  <path d="M 401.5 1641.5  A 3.5 3.5 0 0 0 398 1645 A 3.5 3.5 0 0 0 401.5 1648.5 A 3.5 3.5 0 0 0 405 1645 A 3.5 3.5 0 0 0 401.5 1641.5 Z M 449.6 1517  L 459 1509  L 449.6 1501  L 453.2 1509  L 449.6 1517  Z " fill-rule="nonzero" fill="#0066ff" stroke="none" />
</svg>