<?xml version="1.0" encoding="utf-8"?>
<svg version="1.1" xmlns:xlink="http://www.w3.org/1999/xlink" width="27px" height="10px" preserveAspectRatio="xMinYMid meet" viewBox="398 1371  27 8" xmlns="http://www.w3.org/2000/svg">
  <path d="M 400 1375  L 415 1375  A 5 5 0 0 1 420 1380 L 420 1504  A 5 5 0 0 0 425 1509 L 457 1509  " stroke-width="2" stroke="#0066ff" fill="none" />
  <path d="M 401.5 1371.5  A 3.5 3.5 0 0 0 398 1375 A 3.5 3.5 0 0 0 401.5 1378.5 A 3.5 3.5 0 0 0 405 1375 A 3.5 3.5 0 0 0 401.5 1371.5 Z M 449.6 1517  L 459 1509  L 449.6 1501  L 453.2 1509  L 449.6 1517  Z " fill-rule="nonzero" fill="#0066ff" stroke="none" />
</svg>