<?xml version="1.0" encoding="utf-8"?>
<svg version="1.1" xmlns:xlink="http://www.w3.org/1999/xlink" width="21px" height="20px" preserveAspectRatio="xMinYMid meet" viewBox="1958 724  21 18" xmlns="http://www.w3.org/2000/svg">
  <path d="M 1967 733  L 2185 733  A 5 5 0 0 1 2190 738 L 2190 1787  A 5 5 0 0 0 2195 1792 L 2423 1792  " stroke-width="2" stroke="#0066ff" fill="none" />
  <path d="M 1968.5 729.5  A 3.5 3.5 0 0 0 1965 733 A 3.5 3.5 0 0 0 1968.5 736.5 A 3.5 3.5 0 0 0 1972 733 A 3.5 3.5 0 0 0 1968.5 729.5 Z M 2415.6 1800  L 2425 1792  L 2415.6 1784  L 2419.2 1792  L 2415.6 1800  Z " fill-rule="nonzero" fill="#0066ff" stroke="none" />
</svg>