<?xml version="1.0" encoding="utf-8"?>
<svg version="1.1" xmlns:xlink="http://www.w3.org/1999/xlink" width="46px" height="10px" preserveAspectRatio="xMinYMid meet" viewBox="1489 1776  46 8" xmlns="http://www.w3.org/2000/svg">
  <path d="M 1491 1780  L 1525 1780  A 5 5 0 0 0 1530 1775 L 1530 576  A 5 5 0 0 1 1535 571 L 1588 571  " stroke-width="2" stroke="#0066ff" fill="none" />
  <path d="M 1492.5 1776.5  A 3.5 3.5 0 0 0 1489 1780 A 3.5 3.5 0 0 0 1492.5 1783.5 A 3.5 3.5 0 0 0 1496 1780 A 3.5 3.5 0 0 0 1492.5 1776.5 Z M 1580.6 579  L 1590 571  L 1580.6 563  L 1584.2 571  L 1580.6 579  Z " fill-rule="nonzero" fill="#0066ff" stroke="none" />
</svg>