<?xml version="1.0" encoding="utf-8"?>
<svg version="1.1" xmlns:xlink="http://www.w3.org/1999/xlink" width="26px" height="40px" xmlns="http://www.w3.org/2000/svg">
  <g transform="matrix(1 0 0 1 -309 -627 )">
    <path d="M 0.27575757575757687 1.4223300970873791  C 0.27575757575757687 2.1601941747572813  0.8814393939393956 2.757281553398059  1.6299242424242437 3  L 24.320833333333336 3  C 25.06931818181819 2.757281553398059  25.675000000000004 2.1601941747572813  25.675000000000004 1.4223300970873791  C 25.675000000000004 0.6844660194174769  25.06931818181819 0.08737864077669959  24.320833333333336 0  L 1.6299242424242437 0  C 0.8814393939393956 0.08737864077669959  0.27575757575757687 0.6844660194174769  0.27575757575757687 1.4223300970873791  Z M 25.803030303030305 13.237864077669903  L 25.803030303030305 6  L 0.33977272727272756 6  L 0.33977272727272756 13.25242718446602  L 6 19.053398058252426  L 6 40  L 20 40  L 20 19.233009708737868  L 25.803030303030305 13.237864077669903  Z M 17.609090909090906 37.30582524271845  L 17.604166666666668 37.30582524271845  L 9 37.30582524271845  L 9 19.684466019417474  L 17.609090909090906 19.684466019417474  L 17.609090909090906 37.30582524271845  Z M 23.094696969696972 9  L 23.094696969696972 12.21359223300971  L 18.7219696969697 17  L 7.57840909090909 17  L 3.0431818181818158 12.199029126213592  L 3.0431818181818158 9  L 23.094696969696972 9  Z " fill-rule="nonzero" fill="#ffffff" stroke="none" transform="matrix(1 0 0 1 309 627 )" />
  </g>
</svg>