<?xml version="1.0" encoding="utf-8"?>
<svg version="1.1" xmlns:xlink="http://www.w3.org/1999/xlink" width="29px" height="40px" xmlns="http://www.w3.org/2000/svg">
  <g transform="matrix(1 0 0 1 -412 -627 )">
    <path d="M 25.829813671875 14.228571445312499  L 20.4434782421875 21  L 9.795031054687499 21  L 4.408695664062499 14.2310558984375  C 4.264596289062499 14.039751562499998  4.187577656249999 13.806211171874999  4.187577656249999 13.5652173828125  L 4.187577656249999 11.21987578125  C 4.187577656249999 10.60372671875  4.689441015625 10.101863359374999  5.305590078125 10.101863359374999  L 24.9329192578125 10.101863359374999  C 25.5490683203125 10.101863359374999  26.0509316796875 10.60372671875  26.0509316796875 11.21987578125  L 26.0509316796875 13.562732929687499  C 26.0509316796875 13.801242265625  25.973913046875 14.0347826171875  25.829813671875 14.228571445312499  Z M 20 23  L 10 23  L 10 38.9192546484375  C 9.795031054687499 39.518012421875  10.2795030859375 40  10.875776406249999 40  L 19.3627329296875 40  C 19.961490703125 40  20.44347828125 39.51552796875  20 38.9192546484375  L 20 23  Z M 16.147826093749998 29.2546583984375  C 16.147826093749998 29.8236025  15.688198749999994 30.28322984375  15.119254648437497 30.2832298046875  C 14.550310546874996 30.2832298046875  14.090683203125 29.823602460937497  14.090683242187499 29.2546583984375  L 14.090683242187499 26.079503125  C 14.090683242187499 25.510559023437498  14.550310585937499 25.0509316796875  15.119254648437497 25.0509316796875  C 15.688198749999998 25.0509316796875  16.147826093749998 25.5105590234375  16.147826093749998 26.079503125  L 16.147826093749998 29.2546583984375  Z M 16.242236015625 7.4534161328125  C 16.242236015625 8.1391304296875  15.685714257812503 8.6956521484375  15.000000000000002 8.6956521875  C 14.314285703125002 8.6956521875  13.757763984375 8.1391304296875  13.757763984375 7.4534161328125  L 13.757763984375 1.2422360156249999  C 13.757763984375 0.5565217187499999  14.3142857421875 0  15.000000000000002 0  C 15.6857142578125 0  16.242236015625 0.5565217578125  16.242236015625 1.2422360156249999  L 16.242236015625 7.4534161328125  Z M 6.734161484374999 7.778881992187499  C 6.508074531249999 7.957763984374999  6.239751562499997 8.042236015624999  5.9739130468749995 8.042236015624999  C 5.60372671875 8.042236015624999  5.23602484375 7.878260859374999  4.992546601562498 7.562732929687499  L 1.1813664453125003 2.655900625  C 0.7611579425631252 2.1136224678517186  0.8589412189369767 1.3335786568600694  1.4000000000000004 0.9118012500000001  C 1.9422781469238988 0.4915927384280277  2.7223219563644907 0.5893759971368456  3.1440993749999997 1.130434765625  L 6.952795039062497 6.034782617187499  C 7.3730035418118725 6.5770607743357825  7.275220265438023 7.35710458532743  6.734161484374999 7.778881992187499  Z M 24.264596289062503 7.562732929687499  C 24.016149101562505 7.8782608984374995  23.6509316796875 8.0422360546875  23.2807453515625 8.042236015624999  C 23.0149068359375 8.042236015624999  22.7465838671875 7.957763984374999  22.520496875 7.7813664453125  C 22.217328337187094 7.546102921960651  22.039938135792024 7.183908296872023  22.039938135792024 6.800163475747959  C 22.039938135792024 6.523806204289179  22.13210967364962 6.255342808694355  22.301863359374998 6.0372670703125  L 26.113043476562495 1.1329192578124998  C 26.348306999027585 0.8297507056073418  26.710501633074063 0.652360494252303  27.094246465024746 0.652360494252303  C 27.370603728278475 0.652360494252303  27.639067116382094 0.7445320266445766  27.8571428515625 0.9142857031249997  C 28.160311403767658 1.1495492255900903  28.33770161512269 1.5117438596365682  28.33770161512269 1.895488691587245  C 28.33770161512269 2.1718459548409745  28.24553008273042 2.4403093429446003  28.07577640625 2.658385078125  L 24.264596289062503 7.562732929687499  Z " fill-rule="nonzero" fill="#ffffff" stroke="none" transform="matrix(1 0 0 1 412 627 )" />
  </g>
</svg>