<?xml version="1.0" encoding="utf-8"?>
<svg version="1.1" xmlns:xlink="http://www.w3.org/1999/xlink" width="20px" height="20px" xmlns="http://www.w3.org/2000/svg">
  <g transform="matrix(1 0 0 1 -496 -232 )">
    <path d="M 6.590724999999999 1.6973249999999993  C 5.602474999999998 0.4620249999999992  4.563174999999998 -0.05305000000000071  3.485875 0.15985000000000013  C 3.0394750000000004 0.24810000000000015  2.62405 0.45535  2.21505 0.7638000000000006  C 1.9250500000000004 0.9825000000000004  1.6564250000000003 1.2349500000000007  1.3308999999999997 1.578750000000001  L 1.2756 1.6375000000000006  C 1.1811999999999998 1.7385500000000007  0.9224249999999998 2.0197500000000006  0.8158500000000003 2.134075000000001  L 0.7889500000000005 2.1627500000000004  L 0.8019500000000007 2.1495500000000005  C -0.1495749999999994 3.1010500000000008  -0.1257499999999993 4.984550000000001  0.7079750000000011 7.198825000000001  C 1.574650000000001 9.50065  3.2562250000000015 12.017575  5.5946500000000015 14.355950000000002  C 7.936775000000002 16.698075000000003  10.440050000000003 18.37785  12.726475 19.242225  C 14.926775000000003 20.074050000000003  16.804900000000004 20.097725000000004  17.787100000000006 19.162300000000002  L 17.8399 19.1122  C 17.872758868545322 19.081169737042927  17.905709011312346 19.05023626968046  17.938750000000002 19.0194  L 18.21295 18.7646  C 18.6466 18.3609  18.85565 18.15285  19.0863 17.8819  C 19.445525 17.459850000000003  19.689175000000002 17.048375000000004  19.80865 16.599100000000004  C 20.103325 15.490775000000001  19.580175 14.4214  18.253275 13.35985  C 16.9929 12.351599999999998  16.0042 11.918074999999998  15.089075000000001 12.00925  C 14.643475000000002 12.053624999999998  14.196275 12.262450000000001  13.72845 12.6136  L 13.7096 12.6278  C 13.24435 12.980724999999998  12.626349999999999 13.05295  12.094100000000001 12.817675  C 10.917250000000001 12.297425000000002  9.92835 11.634225  9.12235 10.828225  C 8.317499999999999 10.02335  7.655025000000001 9.036100000000001  7.1350999999999996 7.86135  C 6.900446500386383 7.331184039121968  6.970954580635577 6.7155582114768455  7.3194 6.252174999999999  L 7.33005 6.238174999999999  C 7.622675 5.857800000000001  7.814225 5.500825000000001  7.894674999999999 5.147799999999999  C 8.120625 4.156649999999999  7.702749999999999 3.0873749999999993  6.590724999999999 1.6973249999999993  Z M 4.369225 1.8231000000000002  C 4.657075000000001 1.9657499999999999  4.982900000000001 2.2488  5.341325 2.6968500000000004  L 5.37385 2.737675000000001  C 5.814450000000001 3.2932750000000004  6.0958250000000005 3.749250000000001  6.2401 4.118425  C 6.352899999999999 4.407100000000001  6.374675 4.616800000000001  6.3347 4.792225  C 6.313599999999999 4.884775  6.228824999999999 5.043775  6.070899999999999 5.250800000000001  L 6.061899999999999 5.262575000000002  C 5.347149999999999 6.191625  5.197574999999999 7.437075000000002  5.671999999999998 8.508925000000001  C 6.269674999999998 9.859300000000001  7.0426249999999975 11.011225000000003  7.990999999999998 11.959600000000002  C 8.940674999999999 12.909275000000001  10.094449999999997 13.683050000000001  11.447199999999997 14.28105  C 12.501024999999998 14.746925  13.722999999999999 14.609974999999999  14.64705 13.924699999999998  L 14.690574999999999 13.891999999999998  L 14.715624999999996 13.873375  C 14.955874999999999 13.696525  15.139424999999997 13.612124999999997  15.247674999999997 13.601374999999997  C 15.424349999999997 13.583749999999997  15.643425 13.625449999999999  15.931175 13.751624999999999  C 16.292424999999998 13.91  16.729774999999997 14.190075  17.25375 14.609275  L 17.28925 14.637825  C 17.757875 15.01765  18.049349999999997 15.3534  18.189925 15.640725  C 18.291575 15.848500000000001  18.308525 16.014325  18.262375 16.187975  C 18.213825 16.370549999999998  18.090275 16.581049999999998  17.880125 16.8304  L 17.842875 16.874  C 17.6737 17.06985  17.4943 17.247400000000003  17.130575 17.5862  L 16.835525000000004 17.860475  C 16.78466980933653 17.907963606614615  16.734044219162737 17.955697496411403  16.68365 18.003675  C 16.515725 18.163600000000002  16.1556 18.270425000000003  15.624275 18.263725  C 14.984975 18.255675000000004  14.18385 18.082675000000002  13.292275 17.745625  C 11.227800000000002 16.965125  8.91385 15.412400000000002  6.726025000000001 13.224575000000002  C 4.542850000000001 11.041425  2.988450000000002 8.7149  2.205375000000002 6.6350500000000014  C 1.868250000000002 5.739725000000001  1.6949250000000013 4.935900000000001  1.6868750000000012 4.2989500000000005  C 1.6803250000000014 3.7816250000000013  1.7823000000000013 3.4373750000000007  1.9283000000000017 3.2860000000000005  L 1.9413750000000016 3.272825000000001  L 1.9867750000000015 3.224450000000001  C 2.109325000000001 3.092950000000001  2.385375000000001 2.792875000000001  2.4557250000000015 2.7180500000000007  L 2.490275000000002 2.6814500000000008  C 3.0509250000000017 2.0898750000000006  3.440950000000002 1.7997000000000007  3.796100000000001 1.7295000000000007  C 3.978025000000001 1.6935500000000012  4.1576 1.7182000000000008  4.369225000000002 1.8230750000000007  Z " fill-rule="nonzero" fill="#333333" stroke="none" transform="matrix(1 0 0 1 496 232 )" />
  </g>
</svg>