<?xml version="1.0" encoding="utf-8"?>
<svg version="1.1" xmlns:xlink="http://www.w3.org/1999/xlink" width="14px" height="8px" xmlns="http://www.w3.org/2000/svg">
  <g transform="matrix(1 0 0 1 -506 -232 )">
    <path d="M 12.804595314012658 5.49815009009254  L 12.804595314012658 2.5013004300677784  L 10.030994219204146 3.9998168427035985  L 12.804503240467243 5.498058511444339  Z M 8.608103525946358 1.3214809013115103  C 8.496058363571574 1.209936991942923  8.360260000657707 1.1545313520663105  8.201444963246097 1.154531359694471  L 1.8715838457920553 1.154531359694471  C 1.7127688082724364 1.154531359694471  1.5775228399705856 1.2099369996785228  1.4646490776850096 1.3214809014189497  C 1.3525118496495683 1.4324753309478544  1.2959828989037425 1.5668225548194317  1.2959828990117523 1.723881506487883  L 1.2959828990117523 6.276667965401322  C 1.2959828990117523 6.434001653229251  1.3525118497575788 6.567707818612946  1.4645570118083286 6.679434893120974  C 1.577522839754565 6.790246165353479  1.7127688080564154 6.8461096986859715  1.8715838457920548 6.8461096986859715  L 8.201444963246097 6.8461096986859715  C 8.360260000765715 6.8461096986859715  8.496058371672353 6.790246165353479  8.608103525946358 6.679434893120974  C 8.721069353892592 6.567707826455986  8.777045902033633 6.434001661072291  8.777045902033633 6.276667965401322  L 8.777045902033633 1.723881506487883  C 8.777045902033633 1.5668225547119934  8.721069353784584 1.4324753308404163  8.608103525946358 1.3214809013115103  Z M 1.8715838457920553 0.016472109231770032  L 8.201444963246097 0.016472109231770032  C 8.678074215335062 0.016472109231770032  9.084732785812067 0.18314691479676842  9.421973061944426 0.5167712697144059  C 9.758937148547524 0.8506703606840831  9.927603319552047 1.252429907372574  9.92760332732879 1.7237899279471198  L 9.92760332732879 2.7595548003945027  L 13.955428928729066 0.5855475198657016  L 13.955428928729066 7.414635637430702  L 9.92760332732879 5.240536778253699  L 9.92760332732879 6.276301650808519  C 9.92760332732879 6.747661671383066  9.759029222092938 7.149421218071557  9.421973061836415 7.483320309041234  C 9.084732777927309 7.817036242607072  8.67816628088771 7.9837110481720694  8.201444963138087 7.9837110481720694  L 1.8715838457920553 7.9837110481720694  C 1.3953228569937912 7.9837110481720694  0.988296023226086 7.817036242607072  0.6512398706382971 7.483411887689434  C 0.31399958672919 7.149512796719756  0.14542548149333953 6.747753250138704  0.14542548149333953 6.276393229456721  L 0.14542548149333953 1.7236067705432803  C 0.14542548149333953 1.2524299072651346  0.31399958672919 0.8498461447923618  0.6512398705302873 0.5163133761510861  C 0.9882039572413958 0.1828721787447286  1.3953228568857812 0.01628895182793039  1.8716759113447046 0.01628895182793039  Z " fill-rule="nonzero" fill="#000000" stroke="none" transform="matrix(1 0 0 1 506 232 )" />
  </g>
</svg>