<?xml version="1.0" encoding="utf-8"?>
<svg version="1.1" xmlns:xlink="http://www.w3.org/1999/xlink" width="62px" height="10px" preserveAspectRatio="xMinYMid meet" viewBox="530 312  62 8" xmlns="http://www.w3.org/2000/svg">
  <path d="M 532 316  L 582 316  A 5 5 0 0 1 587 321 L 587 615  A 5 5 0 0 0 592 620 L 643 620  " stroke-width="2" stroke="#0066ff" fill="none" />
  <path d="M 533.5 312.5  A 3.5 3.5 0 0 0 530 316 A 3.5 3.5 0 0 0 533.5 319.5 A 3.5 3.5 0 0 0 537 316 A 3.5 3.5 0 0 0 533.5 312.5 Z M 635.6 628  L 645 620  L 635.6 612  L 639.2 620  L 635.6 628  Z " fill-rule="nonzero" fill="#0066ff" stroke="none" />
</svg>