<?xml version="1.0" encoding="utf-8"?>
<svg version="1.1" xmlns:xlink="http://www.w3.org/1999/xlink" width="21px" height="16px" xmlns="http://www.w3.org/2000/svg">
  <g transform="matrix(1 0 0 1 -226 -283 )">
    <path d="M 4.2001025390625 2  L 4.2001025390625 0  L 20.999876953125 0  L 20.999876953125 2  L 4.2001025390625 2  Z M 4.2001025390625015 9  L 4.2001025390625 7  L 18.8998974609375 7  L 18.8998974609375 9  L 4.2001025390625015 9  Z M 4.2001025390625 16  L 4.2001025390625 14  L 14.699958984375 14  L 14.699958984375 16  L 4.2001025390625 16  Z M 0.000123046875 2.0608799999999996  L 0.000123046875 0.01289999999999992  L 2.1001025390625 0.01289999999999992  L 2.1001025390625 2.0608799999999996  L 0.000123046875 2.0608799999999996  Z M 0.000123046875 9.02398  L 0.000123046875 6.97602  L 2.1001025390625 6.97602  L 2.1001025390625 9.02398  L 0.000123046875 9.02398  Z M 0.000123046875 15.9871  L 0.000123046875 13.93912  L 2.1001025390625 13.93912  L 2.1001025390625 15.9871  L 0.000123046875 15.9871  Z " fill-rule="nonzero" fill="#040000" stroke="none" transform="matrix(1 0 0 1 226 283 )" />
  </g>
</svg>