<?xml version="1.0" encoding="utf-8"?>
<svg version="1.1" xmlns:xlink="http://www.w3.org/1999/xlink" width="10px" height="128px" preserveAspectRatio="xMidYMin meet" viewBox="1011 302  8 128" xmlns="http://www.w3.org/2000/svg">
  <path d="M 994 307  L 1010 307  A 5 5 0 0 1 1015 312 L 1015 420  A 5 5 0 0 0 1020 425 L 1086 425  " stroke-width="2" stroke="#0066ff" fill="none" />
  <path d="M 995.5 303.5  A 3.5 3.5 0 0 0 992 307 A 3.5 3.5 0 0 0 995.5 310.5 A 3.5 3.5 0 0 0 999 307 A 3.5 3.5 0 0 0 995.5 303.5 Z M 1078.6 433  L 1088 425  L 1078.6 417  L 1082.2 425  L 1078.6 433  Z " fill-rule="nonzero" fill="#0066ff" stroke="none" />
</svg>