<?xml version="1.0" encoding="utf-8"?>
<svg version="1.1" xmlns:xlink="http://www.w3.org/1999/xlink" width="21px" height="20px" preserveAspectRatio="xMinYMid meet" viewBox="510 503  21 18" xmlns="http://www.w3.org/2000/svg">
  <path d="M 519 512  L 562 512  A 5 5 0 0 1 567 517 L 567 596  A 5 5 0 0 0 572 601 L 615 601  " stroke-width="2" stroke="#0066ff" fill="none" />
  <path d="M 520.5 508.5  A 3.5 3.5 0 0 0 517 512 A 3.5 3.5 0 0 0 520.5 515.5 A 3.5 3.5 0 0 0 524 512 A 3.5 3.5 0 0 0 520.5 508.5 Z M 607.6 609  L 617 601  L 607.6 593  L 611.2 601  L 607.6 609  Z " fill-rule="nonzero" fill="#0066ff" stroke="none" />
</svg>