<?xml version="1.0" encoding="utf-8"?>
<svg version="1.1" xmlns:xlink="http://www.w3.org/1999/xlink" width="90px" height="10px" preserveAspectRatio="xMinYMid meet" viewBox="1435 453  90 8" xmlns="http://www.w3.org/2000/svg">
  <path d="M 994 307  L 1435 307  A 5 5 0 0 1 1440 312 L 1440 452  A 5 5 0 0 0 1445 457 L 1523 457  " stroke-width="2" stroke="#0066ff" fill="none" />
  <path d="M 995.5 303.5  A 3.5 3.5 0 0 0 992 307 A 3.5 3.5 0 0 0 995.5 310.5 A 3.5 3.5 0 0 0 999 307 A 3.5 3.5 0 0 0 995.5 303.5 Z M 1515.6 465  L 1525 457  L 1515.6 449  L 1519.2 457  L 1515.6 465  Z " fill-rule="nonzero" fill="#0066ff" stroke="none" />
</svg>