<?xml version="1.0" encoding="utf-8"?>
<svg version="1.1" xmlns:xlink="http://www.w3.org/1999/xlink" width="50px" height="10px" preserveAspectRatio="xMinYMid meet" viewBox="575 1108  50 8" xmlns="http://www.w3.org/2000/svg">
  <path d="M 577 1112  L 615 1112  A 5 5 0 0 0 620 1107 L 620 625  A 5 5 0 0 1 625 620 L 675 620  " stroke-width="2" stroke="#0066ff" fill="none" />
  <path d="M 578.5 1108.5  A 3.5 3.5 0 0 0 575 1112 A 3.5 3.5 0 0 0 578.5 1115.5 A 3.5 3.5 0 0 0 582 1112 A 3.5 3.5 0 0 0 578.5 1108.5 Z M 667.6 628  L 677 620  L 667.6 612  L 671.2 620  L 667.6 628  Z " fill-rule="nonzero" fill="#0066ff" stroke="none" />
</svg>