<?xml version="1.0" encoding="utf-8"?>
<svg version="1.1" xmlns:xlink="http://www.w3.org/1999/xlink" width="14px" height="16px" xmlns="http://www.w3.org/2000/svg">
  <g transform="matrix(1 0 0 1 -1018 -598 )">
    <path d="M 8.163953488372094 0  L 8.161918604651163 4.856  C 8.161918604651163 5.093999999999999  8.245348837209303 5.298000000000001  8.416279069767441 5.462000000000001  C 8.587209302325581 5.63  8.792732558139535 5.712000000000001  9.0328488372093 5.712000000000001  L 13.975581395348836 5.712000000000001  L 13.975581395348836 15.142000000000001  C 13.975581395348836 15.38  13.892151162790697 15.584000000000001  13.721220930232557 15.748  C 13.55232558139535 15.918  13.346802325581395 16  13.104651162790697 16  L 0.8953488372093024 16  C 0.6531976744186045 16  0.445639534883721 15.918  0.2787790697674416 15.75  C 0.10784883720930198 15.582  0.024418604651162558 15.38  0 15.144  L 0 0.8560000000000002  C 0.024418604651162558 0.6180000000000001  0.10784883720930198 0.41400000000000037  0.2787790697674416 0.2500000000000003  C 0.44970930232558126 0.08200000000000017  0.6552325581395346 0  0.8953488372093024 0  L 8.163953488372094 0  Z M 13.613372093023255 4.57  L 9.323837209302326 4.572  L 9.323837209302326 0.35399999999999976  C 9.458139534883722 0.43599999999999967  9.565988372093024 0.5219999999999999  9.651453488372095 0.6039999999999998  L 13.359011627906977 4.247999999999999  C 13.442441860465117 4.33  13.529941860465115 4.438  13.613372093023255 4.57  Z " fill-rule="nonzero" fill="#ffffff" stroke="none" transform="matrix(1 0 0 1 1018 598 )" />
  </g>
</svg>