<?xml version="1.0" encoding="utf-8"?>
<svg version="1.1" xmlns:xlink="http://www.w3.org/1999/xlink" width="14px" height="12px" xmlns="http://www.w3.org/2000/svg">
  <g transform="matrix(1 0 0 1 -1443 -239 )">
    <path d="M 6.380275229357798 4.252577319587629  C 6.381880733944954 4.909793814432989  5.827981651376146 5.441752577319587  5.145642201834862 5.441752577319587  L 1.3486238532110093 5.441752577319587  C 0.6662844036697247 5.441752577319587  0.11399082568807331 4.909793814432989  0.11399082568807331 4.252577319587629  L 0.11399082568807331 2.033505154639175  C 0.11399082568807331 0.9386597938144328  1.0355504587155964 0.05103092783505172  2.1722477064220183 0.05103092783505172  L 5.145642201834862 0.05103092783505172  C 5.827981651376146 0.05103092783505172  6.380275229357798 0.5829896907216497  6.380275229357798 1.2402061855670106  L 6.380275229357798 4.252577319587629  Z M 13.96788990825688 4.252577319587629  C 13.969495412844038 4.909793814432989  13.41559633027523 5.441752577319587  12.733256880733945 5.441752577319587  L 8.936238532110092 5.441752577319587  C 8.253899082568807 5.441752577319587  7.701605504587157 4.909793814432989  7.701605504587157 4.252577319587629  L 7.701605504587157 1.2402061855670101  C 7.701605504587157 0.5829896907216493  8.253899082568807 0.05103092783505128  8.936238532110092 0.05103092783505128  L 11.909633027522935 0.05103092783505128  C 13.046330275229357 0.05103092783505128  13.96788990825688 0.9386597938144328  13.96788990825688 2.033505154639175  L 13.96788990825688 4.252577319587629  Z M 6.380275229357798 10.779896907216493  C 6.381880733944954 11.437113402061854  5.827981651376146 11.969072164948452  5.145642201834862 11.969072164948454  L 2.1722477064220183 11.969072164948454  C 1.0355504587155966 11.969072164948454  0.11399082568807377 11.081443298969074  0.11399082568807377 9.986597938144328  L 0.11399082568807377 7.767525773195875  C 0.11399082568807377 7.110309278350514  0.6662844036697253 6.578350515463917  1.3486238532110097 6.578350515463917  L 5.145642201834862 6.578350515463917  C 5.827981651376146 6.578350515463917  6.380275229357798 7.110309278350514  6.380275229357798 7.767525773195875  L 6.380275229357798 10.779896907216493  Z M 13.96788990825688 9.986597938144328  C 13.969495412844038 11.08144329896907  13.046330275229359 11.969072164948454  11.909633027522935 11.969072164948454  L 8.936238532110092 11.969072164948454  C 8.253899082568807 11.969072164948454  7.701605504587157 11.437113402061856  7.701605504587157 10.779896907216495  L 7.701605504587157 7.767525773195875  C 7.701605504587157 7.110309278350514  8.253899082568807 6.578350515463917  8.936238532110092 6.578350515463917  L 12.733256880733945 6.578350515463917  C 13.41559633027523 6.578350515463917  13.96788990825688 7.110309278350514  13.96788990825688 7.767525773195875  L 13.96788990825688 9.986597938144328  Z " fill-rule="nonzero" fill="#ffffff" stroke="none" transform="matrix(1 0 0 1 1443 239 )" />
  </g>
</svg>