<?xml version="1.0" encoding="utf-8"?>
<svg version="1.1" xmlns:xlink="http://www.w3.org/1999/xlink" width="18px" height="18px" xmlns="http://www.w3.org/2000/svg">
  <g transform="matrix(1 0 0 1 -175 -1310 )">
    <path d="M 16.875 9  C 16.875 4.6125  13.387500000000001 1.125  9 1.125  C 4.6125 1.125  1.125 4.6125  1.125 9  C 1.125 13.387500000000001  4.6125 16.875  9 16.875  C 13.387500000000001 16.875  16.875 13.387500000000001  16.875 9  Z M 0 9  C 0 4.05  4.05 0  9 0  C 13.950000000000001 0  18 4.05  18 9  C 18 13.950000000000001  13.950000000000001 18  9 18  C 4.05 18  0 13.950000000000001  0 9  Z M 8.1 4.5  C 8.1 4.05  8.55 3.6  9 3.6  C 9.450000000000001 3.6  9.9 3.9375  9.9 4.5  L 9.9 10.6875  C 9.9 11.137500000000001  9.5625 11.5875  9 11.5875  C 8.4375 11.5875  8.1 11.25  8.1 10.6875  L 8.1 4.5  Z M 9.9 13.5  C 9.9 14.0625  9.450000000000001 14.4  9 14.4  C 8.549999999999999 14.4  8.1 14.0625  8.1 13.5  C 8.1 12.9375  8.4375 12.6  9 12.6  C 9.5625 12.6  9.9 12.9375  9.9 13.5  Z " fill-rule="nonzero" fill="#ff9900" stroke="none" transform="matrix(1 0 0 1 175 1310 )" />
  </g>
</svg>