<?xml version="1.0" encoding="utf-8"?>
<svg version="1.1" xmlns:xlink="http://www.w3.org/1999/xlink" width="21px" height="20px" preserveAspectRatio="xMinYMid meet" viewBox="1484 1936  21 18" xmlns="http://www.w3.org/2000/svg">
  <path d="M 1493 1945  L 1535 1945  A 5 5 0 0 0 1540 1940 L 1540 1933  A 5 5 0 0 1 1545 1928 L 1588 1928  " stroke-width="2" stroke="#0066ff" fill="none" />
  <path d="M 1494.5 1941.5  A 3.5 3.5 0 0 0 1491 1945 A 3.5 3.5 0 0 0 1494.5 1948.5 A 3.5 3.5 0 0 0 1498 1945 A 3.5 3.5 0 0 0 1494.5 1941.5 Z M 1580.6 1936  L 1590 1928  L 1580.6 1920  L 1584.2 1928  L 1580.6 1936  Z " fill-rule="nonzero" fill="#0066ff" stroke="none" />
</svg>