<?xml version="1.0" encoding="utf-8"?>
<svg version="1.1" xmlns:xlink="http://www.w3.org/1999/xlink" width="10px" height="141px" preserveAspectRatio="xMidYMin meet" viewBox="1061 1663  8 141" xmlns="http://www.w3.org/2000/svg">
  <path d="M 1017 1668  L 1060 1668  A 5 5 0 0 1 1065 1673 L 1065 1794  A 5 5 0 0 0 1070 1799 L 1113 1799  " stroke-width="2" stroke="#0066ff" fill="none" />
  <path d="M 1018.5 1664.5  A 3.5 3.5 0 0 0 1015 1668 A 3.5 3.5 0 0 0 1018.5 1671.5 A 3.5 3.5 0 0 0 1022 1668 A 3.5 3.5 0 0 0 1018.5 1664.5 Z M 1105.6 1807  L 1115 1799  L 1105.6 1791  L 1109.2 1799  L 1105.6 1807  Z " fill-rule="nonzero" fill="#0066ff" stroke="none" />
</svg>