<?xml version="1.0" encoding="utf-8"?>
<svg version="1.1" xmlns:xlink="http://www.w3.org/1999/xlink" width="64px" height="10px" preserveAspectRatio="xMinYMid meet" viewBox="1526 3031  64 8" xmlns="http://www.w3.org/2000/svg">
  <path d="M 1475 3004  L 1526 3004  A 5 5 0 0 1 1531 3009 L 1531 3030  A 5 5 0 0 0 1536 3035 L 1588 3035  " stroke-width="2" stroke="#0066ff" fill="none" />
  <path d="M 1476.5 3000.5  A 3.5 3.5 0 0 0 1473 3004 A 3.5 3.5 0 0 0 1476.5 3007.5 A 3.5 3.5 0 0 0 1480 3004 A 3.5 3.5 0 0 0 1476.5 3000.5 Z M 1580.6 3043  L 1590 3035  L 1580.6 3027  L 1584.2 3035  L 1580.6 3043  Z " fill-rule="nonzero" fill="#0066ff" stroke="none" />
</svg>