<?xml version="1.0" encoding="utf-8"?>
<svg version="1.1" xmlns:xlink="http://www.w3.org/1999/xlink" width="20px" height="20px" xmlns="http://www.w3.org/2000/svg">
  <g transform="matrix(1 0 0 1 -2867 -3326 )">
    <path d="M 19.979780088495577 1.4889933258928576  C 19.97975743362832 0.7131307812499998  19.35637831858407 0.08418578125000005  18.58738183628319 0  L 1.5606307522123894 0  C 0.7916342477876106 0.08418578125000005  0.16825513274336276 0.7131307812500001  0.16825513274336276 1.4889933258928576  C 0.16825513274336276 2.264833013392858  0.7916342477876106 2.8937780357142855  1.5606307522123894 3  L 18.58740446902655 3  C 19.35640097345133 2.8937780357142855  19.979780088495577 2.2648330357142856  19.979780088495577 1.4889933258928576  Z M 18.13973066371681 11.45311763392857  L 11.09854632743363 4.349065625000001  C 11.065990707964604 4.316242165178572  11.031805022123894 4.285177522321429  10.996215707964602 4.255734620535715  C 10.980435973451328 4.242646361607143  10.9637053539823 4.231271205357143  10.94749546460177 4.218982388392857  C 10.92743685840708 4.20376984375  10.907717831858408 4.188077633928572  10.886798915929205 4.173938638392857  C 10.86723836283186 4.160736160714285  10.846862809734514 4.149269642857143  10.826758915929206 4.137140736607143  C 10.807877566371683 4.125765602678571  10.789381061946905 4.1138193973214285  10.769933716814162 4.103312254464286  C 10.749399668141598 4.092234040178572  10.728254358407083 4.0828232812500005  10.707267522123898 4.0728643303571435  C 10.687050442477881 4.06322515625  10.667195575221244 4.053083459821429  10.646503053097351 4.044403616071429  C 10.626059579646023 4.035860825892858  10.605253849557528 4.029008348214286  10.58453869469027 4.021539107142858  C 10.562397256637173 4.013453169642858  10.54052747787611 4.004910379464286  10.517887964601776 3.9980122098214292  C 10.4971275221239 3.991685066964287  10.476027500000004 3.987048214285715  10.455108584070803 3.9817261160714295  C 10.432016283185847 3.975832968750001  10.40928619469027 3.9693459375000013  10.38578637168142 3.9646177232142863  C 10.361562079646022 3.9597981250000016  10.337088761061953 3.9569200892857155  10.3126607300885 3.9533796205357152  C 10.292149336283192 3.950410200892858  10.27193223451328 3.9464814508928585  10.25110387168142 3.944402857142858  C 10.205530530973455 3.9399030580357146  10.159843982300888 3.9374589955357155  10.114112146017701 3.9374361607142867  C 10.107116526548674 3.9374361607142867  10.100483163716817 3.9382812946428576  10.093872411504428 3.9383726785714295  C 9.730893030973453 3.933210468750001  9.366328871681418 4.0695066294642865  9.089402300884958 4.348905758928572  L 2.0479916371681415 11.45311763392857  C 1.5042583407079646 12.001751383928571  1.5042583407079646 12.891182633928569  2.0479916371681415 13.439839218749999  C 2.3198696017699114 13.714167499999999  2.6762382522123893 13.851331651785712  3.032561615044248 13.851331651785712  C 3.3888849778761063 13.851331651785712  3.7452536283185838 13.714167499999999  4.017131592920355 13.439839218749999  L 8.721419601769911 8.693525781249999  L 8.721419623893805 18.507237812499998  C 8.721419623893805 19.283077499999997  9.344798738938053 19.912022522321426  10.113772610619469 19.912022522321426  C 10.882769115044248 19.912022522321426  11.506148230088495 19.283077522321427  11.506148230088495 18.507237812499998  L 11.506148207964602 8.733704263392857  L 16.170681238938055 13.439839218749999  C 16.442559203539826 13.714167499999999  16.79890522123894 13.851331651785712  17.15520595132743 13.851331651785712  C 17.51155196902655 13.851331651785712  17.867875331858407 13.714167499999999  18.13973066371681 13.439839218749999  C 18.683554513274334 12.891182633928569  18.683554513274334 12.001751383928571  18.13973066371681 11.45311763392857  Z " fill-rule="nonzero" fill="#ffffff" stroke="none" transform="matrix(1 0 0 1 2867 3326 )" />
  </g>
</svg>