<?xml version="1.0" encoding="utf-8"?>
<svg version="1.1" xmlns:xlink="http://www.w3.org/1999/xlink" width="200px" height="200px" xmlns="http://www.w3.org/2000/svg">
  <g transform="matrix(1 0 0 1 -365 -480 )">
    <path d="M 92 8.3333333984375  C 91.66666660156251 3.7309605234991294  87.93570627337589 0  83.3333333984375 0  L 8.3333333984375 0  C 3.730960447224849 0  0 3.730960447224849  0 8.3333333984375  L 0 83.33333339843752  C 0 87.93570627337589  3.7309605234991294 91.66666660156251  8.3333333984375 92  L 83.33333339843752 92  C 87.93570619710161 91.6666664936944  91.6666664936944 87.93570619710161  92 83.3333333984375  L 92 8.3333333984375  Z M 75 17  L 75 75  L 17 75  L 17 17  L 75 17  Z M 92 116.66666660156251  C 91.6666664936944 112.06429380289842  87.93570619710161 108.33333350630564  83.3333333984375 108  L 8.3333333984375 108  C 3.730960523499112 108.33333339843749  0 112.06429372662414  0 116.66666660156251  L 0 191.6666666015625  C 0 196.26903955277515  3.730960447224849 200  8.3333333984375 200  L 83.33333339843752 200  C 87.93570627337589 199.99999989213188  91.66666660156251 196.26903947650086  92 191.6666666015625  L 92 116.66666660156251  Z M 75 125  L 75 183  L 17 183  L 17 125  L 75 125  Z M 200 8.3333333984375  C 200 3.730960447224849  196.26903955277515 0  191.6666666015625 0  L 116.66666660156251 0  C 112.06429372662414 0  108.33333339843752 3.7309605234991294  108 8.3333333984375  L 108 83.33333339843752  C 108.33333350630564 87.93570619710161  112.06429380289842 91.6666664936944  116.66666660156251 92  L 191.6666666015625 92  C 196.26903947650086 91.66666660156251  199.99999989213188 87.93570627337589  200 83.3333333984375  L 200 8.3333333984375  Z M 183 17  L 183 75  L 125 75  L 125 17  L 183 17  Z M 34 59  L 34 34  L 59 34  L 59 59  L 34 59  Z M 34 166  L 34 141  L 59 141  L 59 166  L 34 166  Z M 175 133  L 175 108  L 200 108  L 200 133  L 175 133  Z M 175 158  L 175 175  L 158 175  L 158 200  L 200 200  L 200 158  L 175 158  Z M 108 200  L 108 175  L 133 175  L 133 200  L 108 200  Z M 141 59  L 141 34  L 166 34  L 166 59  L 141 59  Z M 108 133  L 108 108  L 133 108  L 133 133  L 108 133  Z M 133 175  L 133 133  L 158 133  L 158 175  L 133 175  Z " fill-rule="nonzero" fill="#000000" stroke="none" transform="matrix(1 0 0 1 365 480 )" />
  </g>
</svg>