<?xml version="1.0" encoding="utf-8"?>
<svg version="1.1" xmlns:xlink="http://www.w3.org/1999/xlink" width="67px" height="10px" preserveAspectRatio="xMinYMid meet" viewBox="625 256  67 8" xmlns="http://www.w3.org/2000/svg">
  <path d="M 630 273  L 630 265  A 5 5 0 0 1 635 260 L 682 260  A 5 5 0 0 1 687 265 L 687 626  A 5 5 0 0 0 692 631 L 743 631  " stroke-width="2" stroke="#0066ff" fill="none" />
  <path d="M 630 268  A 3.5 3.5 0 0 0 626.5 271.5 A 3.5 3.5 0 0 0 630 275 A 3.5 3.5 0 0 0 633.5 271.5 A 3.5 3.5 0 0 0 630 268 Z M 735.6 639  L 745 631  L 735.6 623  L 739.2 631  L 735.6 639  Z " fill-rule="nonzero" fill="#0066ff" stroke="none" />
</svg>