<?xml version="1.0" encoding="utf-8"?>
<svg version="1.1" xmlns:xlink="http://www.w3.org/1999/xlink" width="62px" height="10px" preserveAspectRatio="xMinYMid meet" viewBox="510 252  62 8" xmlns="http://www.w3.org/2000/svg">
  <path d="M 512 256  L 562 256  A 5 5 0 0 1 567 261 L 567 606  A 5 5 0 0 0 572 611 L 623 611  " stroke-width="2" stroke="#0066ff" fill="none" />
  <path d="M 513.5 252.5  A 3.5 3.5 0 0 0 510 256 A 3.5 3.5 0 0 0 513.5 259.5 A 3.5 3.5 0 0 0 517 256 A 3.5 3.5 0 0 0 513.5 252.5 Z M 615.6 619  L 625 611  L 615.6 603  L 619.2 611  L 615.6 619  Z " fill-rule="nonzero" fill="#0066ff" stroke="none" />
</svg>