<?xml version="1.0" encoding="utf-8"?>
<svg version="1.1" xmlns:xlink="http://www.w3.org/1999/xlink" width="34px" height="34px" preserveAspectRatio="xMinYMid meet" viewBox="614 602  34 32" xmlns="http://www.w3.org/2000/svg">
  <path d="M 535 777  L 578 777  A 5 5 0 0 0 583 772 L 583 623  A 5 5 0 0 1 588 618 L 631 618  " stroke-width="2" stroke="#0066ff" fill="none" />
  <path d="M 536.5 773.5  A 3.5 3.5 0 0 0 533 777 A 3.5 3.5 0 0 0 536.5 780.5 A 3.5 3.5 0 0 0 540 777 A 3.5 3.5 0 0 0 536.5 773.5 Z M 623.6 626  L 633 618  L 623.6 610  L 627.2 618  L 623.6 626  Z " fill-rule="nonzero" fill="#0066ff" stroke="none" />
</svg>