<?xml version="1.0" encoding="utf-8"?>
<svg version="1.1" xmlns:xlink="http://www.w3.org/1999/xlink" width="34px" height="34px" preserveAspectRatio="xMinYMid meet" viewBox="1089 602  34 32" xmlns="http://www.w3.org/2000/svg">
  <path d="M 1010 821  L 1053 821  A 5 5 0 0 0 1058 816 L 1058 623  A 5 5 0 0 1 1063 618 L 1106 618  " stroke-width="2" stroke="#0066ff" fill="none" />
  <path d="M 1011.5 817.5  A 3.5 3.5 0 0 0 1008 821 A 3.5 3.5 0 0 0 1011.5 824.5 A 3.5 3.5 0 0 0 1015 821 A 3.5 3.5 0 0 0 1011.5 817.5 Z M 1098.6 626  L 1108 618  L 1098.6 610  L 1102.2 618  L 1098.6 626  Z " fill-rule="nonzero" fill="#0066ff" stroke="none" />
</svg>