<?xml version="1.0" encoding="utf-8"?>
<svg version="1.1" xmlns:xlink="http://www.w3.org/1999/xlink" width="50px" height="50px" xmlns="http://www.w3.org/2000/svg">
  <g transform="matrix(1 0 0 1 -1633 -471 )">
    <path d="M 50 25  C 50 11.192881254230164  38.807118745769834 0  25 0  C 11.192881254230164 0  0 11.192881254230164  0 25  C 0 38.807118745769834  11.192881254230164 50  25 50  C 38.807118745769834 50  50 38.807118745769834  50 25  Z M 30.000000000000004 38.81666665039063  C 30 41.578090399544585  27.76142374915397 43.81666665039062  25 43.81666665039062  C 22.238576250846034 43.81666665039062  20 41.578090399544585  20 38.81666665039062  C 20 36.05524290123665  22.238576250846034 33.81666665039062  25 33.81666665039062  C 27.76142374915397 33.81666665039062  30.000000000000004 36.05524290123665  30.000000000000004 38.81666665039062  Z M 31.008333349609373 12.18333334960937  C 31.008333349609373 15.499999999999996  28.333333349609376 31.074999999999996  25 31.074999999999996  C 21.666666650390624 31.074999999999996  18.991666650390627 15.499999999999996  18.991666650390624 12.18333334960937  C 18.991666650390624 8.865022468720342  21.681689119110974 6.1749999999999945  24.999999999999996 6.1749999999999945  C 28.318310880889026 6.1749999999999945  31.008333349609373 8.865022468720342  31.008333349609373 12.18333334960937  Z " fill-rule="nonzero" fill="#1d8aff" stroke="none" transform="matrix(1 0 0 1 1633 471 )" />
  </g>
</svg>