<?xml version="1.0" encoding="utf-8"?>
<svg version="1.1" xmlns:xlink="http://www.w3.org/1999/xlink" width="50px" height="50px" xmlns="http://www.w3.org/2000/svg">
  <g transform="matrix(1 0 0 1 -1247 -1663 )">
    <path d="M 50 25  C 50 39.00000000000001  39.00000000000001 50  25 50  C 10.999999999999993 50  0 39.00000000000001  0 25  C 0 10.999999999999993  10.999999999999993 0  25 0  C 39.00000000000001 0  50 10.999999999999993  50 25  Z M 2.941176470588235 25  C 2.941176470588235 37.35294117647059  12.647058823529411 47.05882352941176  25 47.05882352941176  C 37.35294117647059 47.05882352941176  47.05882352941176 37.35294117647059  47.05882352941176 25  C 47.05882352941176 12.647058823529411  37.35294117647059 2.941176470588235  25 2.941176470588235  C 12.647058823529411 2.941176470588235  2.941176470588235 12.647058823529411  2.941176470588235 25  Z " fill-rule="nonzero" fill="#f2f2f2" stroke="none" transform="matrix(1 0 0 1 1247 1663 )" />
  </g>
</svg>