<?xml version="1.0" encoding="utf-8"?>
<svg version="1.1" xmlns:xlink="http://www.w3.org/1999/xlink" width="64px" height="10px" preserveAspectRatio="xMinYMid meet" viewBox="621 1476  64 8" xmlns="http://www.w3.org/2000/svg">
  <path d="M 626.9193953882638 1480.3170580303843  A 2 2 0 0 1 628 1480 L 675 1480  A 5 5 0 0 1 680 1485 L 680 1578  A 5 5 0 0 0 685 1583 L 743 1583  " stroke-width="2" stroke="#0066ff" fill="none" />
  <path d="M 628.3584073464102 1476.5  A 3.5 3.5 0 0 0 624.8584073464102 1480 A 3.5 3.5 0 0 0 628.3584073464102 1483.5 A 3.5 3.5 0 0 0 631.8584073464102 1480 A 3.5 3.5 0 0 0 628.3584073464102 1476.5 Z M 735.6 1591  L 745 1583  L 735.6 1575  L 739.2 1583  L 735.6 1591  Z " fill-rule="nonzero" fill="#0066ff" stroke="none" />
</svg>