<?xml version="1.0" encoding="utf-8"?>
<svg version="1.1" xmlns:xlink="http://www.w3.org/1999/xlink" width="346px" height="10px" preserveAspectRatio="xMinYMid meet" viewBox="685 2517  346 8" xmlns="http://www.w3.org/2000/svg">
  <path d="M 542 2769  L 685 2769  A 5 5 0 0 0 690 2764 L 690 2526  A 5 5 0 0 1 695 2521 L 1029 2521  " stroke-width="2" stroke="#0066ff" fill="none" />
  <path d="M 543.5 2765.5  A 3.5 3.5 0 0 0 540 2769 A 3.5 3.5 0 0 0 543.5 2772.5 A 3.5 3.5 0 0 0 547 2769 A 3.5 3.5 0 0 0 543.5 2765.5 Z M 1021.6 2529  L 1031 2521  L 1021.6 2513  L 1025.2 2521  L 1021.6 2529  Z " fill-rule="nonzero" fill="#0066ff" stroke="none" />
</svg>