<?xml version="1.0" encoding="utf-8"?>
<svg version="1.1" xmlns:xlink="http://www.w3.org/1999/xlink" width="15px" height="6px" xmlns="http://www.w3.org/2000/svg">
  <g transform="matrix(1 0 0 1 -3117 -1453 )">
    <path d="M 2.367000000000001 3.919015384615391  L 1.2630000000000008 3.9190153846153843  L 1.2630000000000008 6  L 0.027000000000000357 6  L 0.027000000000000357 0.09378461538461655  L 2.367000000000001 0.09378461538461655  C 2.721375000000001 0.09378461538461655  3.03825 0.14252307692307928  3.3168750000000005 0.23963076923077153  C 3.5955000000000004 0.3371076923076937  3.831750000000001 0.4729846153846182  4.025625000000001 0.6476307692307717  C 4.219125000000001 0.8219076923076952  4.366875000000001 1.0286769230769262  4.468125 1.2679384615384646  C 4.56975 1.5075692307692328  4.620750000000001 1.767876923076925  4.620750000000001 2.0488615384615416  C 4.620750000000001 2.3357538461538496  4.569750000000001 2.593846153846156  4.468125 2.823876923076927  C 4.368687801898821 3.0509263902385904  4.217237086906699 3.25223934062812  4.025625000000001 3.4120615384615425  C 3.831750000000001 3.574523076923079  3.5955000000000004 3.69932307692308  3.3168750000000005 3.7872000000000052  C 3.037875000000001 3.8750769230769264  2.721375000000001 3.919015384615391  2.367000000000001 3.919015384615391  Z M 1.2630000000000008 1.0792615384615352  L 1.2630000000000008 2.933169230769229  L 2.367000000000001 2.933169230769229  C 2.5428750000000004 2.933169230769229  2.6947500000000013 2.9117538461538452  2.8222500000000004 2.8685538461538442  C 2.94975 2.824984615384613  3.05475 2.76516923076923  3.1353750000000002 2.687630769230766  C 3.2163749999999998 2.6108307692307644  3.276375 2.518153846153844  3.3146250000000004 2.4099692307692284  C 3.3532500000000005 2.3017846153846127  3.372375000000001 2.1843692307692297  3.372375000000001 2.0569846153846125  C 3.372375000000001 1.9299692307692289  3.3532500000000005 1.8077538461538438  3.3146249999999986 1.6899692307692273  C 3.2775483469653217 1.574722222016454  3.2165023816936293 1.4683407368645225  3.135375000000002 1.3775999999999966  C 3.0488003659197123 1.2830881678163386  2.941799367763966 1.2088981804815262  2.8222500000000004 1.1604923076923053  C 2.6947500000000013 1.1065846153846142  2.5428750000000004 1.0792615384615352  2.367000000000001 1.0792615384615352  L 1.2630000000000008 1.0792615384615352  Z M 7.302750000000003 6  L 5.469374999999999 6  L 5.469374999999999 0.09378461538461655  L 7.315125000000001 0.09378461538461655  C 7.719000000000003 0.09378461538461655  8.088750000000001 0.16209230769231034  8.425125000000001 0.29870769230769467  C 8.761875000000003 0.435323076923079  9.05025 0.6273230769230809  9.290625000000004 0.8747076923076935  C 9.536846966162337 1.1313114317430837  9.728139815917862 1.4340524767551535  9.853125000000006 1.7649230769230793  C 9.987375000000005 2.1112615384615405  10.054875000000004 2.495261538461541  10.054875000000004 2.91692307692308  L 10.054875000000004 3.1846153846153875  C 10.054875000000004 3.6066461538461567  9.988125000000004 3.9899076923076935  9.855000000000008 4.334769230769235  C 9.730586847677326 4.665792960441308  9.538499031008868 4.968153812594397  9.290625000000004 5.223138461538461  C 9.044370957802432 5.472744814222225  8.747404420063903 5.668389656243528  8.419125000000003 5.797292307692308  C 8.081625000000003 5.93243076923077  7.709250000000002 6  7.302750000000003 6  Z M 7.315124999999998 1.0796307692307652  L 6.705375 1.0796307692307685  L 6.705375 5.022276923076923  L 7.30275 5.022276923076923  C 7.7917499999999995 5.022276923076923  8.163749999999999 4.863507692307691  8.419125 4.545969230769228  C 8.6745 4.228061538461536  8.802375 3.774276923076922  8.802375 3.1846153846153804  L 8.802375 2.908799999999996  C 8.802375 2.308430769230764  8.676 1.8535384615384576  8.423625 1.5441230769230727  C 8.170499999999999 1.2339692307692278  7.801124999999997 1.0796307692307652  7.315124999999998 1.0796307692307652  Z M 14.561625000000003 3.586707692307692  L 12.189374999999998 3.586707692307692  L 12.189374999999998 6  L 10.953374999999998 6  L 10.953374999999998 0.09378461538461655  L 14.858999999999998 0.09378461538461655  L 14.858999999999998 1.0796307692307716  L 12.189 1.0796307692307716  L 12.189 2.6045538461538498  L 14.562375000000001 2.6045538461538498  L 14.562375000000001 3.5867076923076953  Z " fill-rule="nonzero" fill="#ffffff" stroke="none" transform="matrix(1 0 0 1 3117 1453 )" />
  </g>
</svg>