<?xml version="1.0" encoding="utf-8"?>
<svg version="1.1" xmlns:xlink="http://www.w3.org/1999/xlink" width="50px" height="60px" xmlns="http://www.w3.org/2000/svg">
  <g transform="matrix(1 0 0 1 -2642 -1597 )">
    <path d="M 33 0  L 3 0  C 2.25 0  1.4499999999999993 0.2999999999999998  0.9000000000000002 0.8999999999999999  C 0.3500000000000014 1.5  0 2.25  0 3  L 0 57  C 0 57.75  0.2999999999999998 58.55  0.9000000000000002 59.1  C 1.5 59.7  2.25 60  3 60  L 47 60  C 47.75 60  48.55 59.7  49.1 59.1  C 49.7 58.5  50 57.75  50 57  L 50 17  L 33 0  Z " fill-rule="nonzero" fill="#0066ff" stroke="none" transform="matrix(1 0 0 1 2642 1597 )" />
  </g>
</svg>