<?xml version="1.0" encoding="utf-8"?>
<svg version="1.1" xmlns:xlink="http://www.w3.org/1999/xlink" width="30px" height="12px" xmlns="http://www.w3.org/2000/svg">
  <g transform="matrix(1 0 0 1 -2654 -1392 )">
    <path d="M 4.734000000000002 7.838030769230782  L 2.5260000000000016 7.838030769230769  L 2.5260000000000016 12  L 0 12  L 0 0.1875692307692331  L 4.734000000000002 0.1875692307692331  C 5.442750000000002 0.1875692307692331  6.0765 0.28504615384615856  6.633750000000001 0.47926153846154307  C 7.191000000000001 0.6742153846153874  7.663500000000002 0.9459692307692364  8.051250000000001 1.2952615384615433  C 8.438250000000002 1.6438153846153905  8.733750000000002 2.0573538461538523  8.93625 2.535876923076929  C 9.1395 3.0151384615384655  9.241500000000002 3.53575384615385  9.241500000000002 4.097723076923083  C 9.241500000000002 4.671507692307699  9.139500000000002 5.187692307692312  8.93625 5.647753846153854  C 8.737375603797641 6.101852780477181  8.434474173813397 6.50447868125624  8.051250000000001 6.824123076923085  C 7.663500000000002 7.149046153846158  7.191000000000001 7.39864615384616  6.633750000000001 7.5744000000000105  C 6.075750000000002 7.750153846153853  5.442750000000002 7.838030769230782  4.734000000000002 7.838030769230782  Z M 2.5260000000000016 2.1585230769230703  L 2.5260000000000016 5.866338461538458  L 4.734000000000002 5.866338461538458  C 5.085750000000001 5.866338461538458  5.389500000000003 5.8235076923076905  5.644500000000001 5.7371076923076885  C 5.8995 5.649969230769226  6.1095 5.53033846153846  6.2707500000000005 5.375261538461532  C 6.4327499999999995 5.221661538461529  6.55275 5.036307692307688  6.629250000000001 4.819938461538457  C 6.706500000000001 4.603569230769225  6.744750000000002 4.3687384615384595  6.744750000000002 4.113969230769225  C 6.744750000000002 3.8599384615384578  6.706500000000001 3.6155076923076876  6.629249999999997 3.3799384615384547  C 6.555096693930643 3.149444444032908  6.433004763387259 2.936681473729045  6.270750000000004 2.755199999999993  C 6.0976007318394245 2.566176335632677  5.883598735527932 2.4177963609630524  5.644500000000001 2.3209846153846105  C 5.389500000000003 2.2131692307692283  5.085750000000001 2.1585230769230703  4.734000000000002 2.1585230769230703  L 2.5260000000000016 2.1585230769230703  Z M 14.605500000000006 12  L 11 12  L 11 0.1875692307692331  L 14.630250000000002 0.1875692307692331  C 15.438000000000006 0.1875692307692331  16.177500000000002 0.3241846153846207  16.850250000000003 0.5974153846153893  C 17.523750000000007 0.870646153846158  18.1005 1.2546461538461617  18.581250000000008 1.749415384615387  C 19.073693932324673 2.2626228634861674  19.456279631835724 2.868104953510307  19.70625000000001 3.5298461538461585  C 19.97475000000001 4.222523076923081  20.10975000000001 4.990523076923082  20.10975000000001 5.83384615384616  L 20.10975000000001 6.369230769230775  C 20.10975000000001 7.213292307692313  19.976250000000007 7.979815384615387  19.710000000000015 8.66953846153847  C 19.461173695354653 9.331585920882617  19.076998062017736 9.936307625188794  18.581250000000008 10.446276923076923  C 18.088741915604864 10.94548962844445  17.494808840127806 11.336779312487057  16.838250000000006 11.594584615384615  C 16.163250000000005 11.86486153846154  15.418500000000003 12  14.605500000000006 12  Z M 14.630249999999997 2.1592615384615303  L 13.41075 2.159261538461537  L 13.41075 10.044553846153846  L 14.6055 10.044553846153846  C 15.583499999999999 10.044553846153846  16.327499999999997 9.727015384615383  16.83825 9.091938461538456  C 17.349 8.456123076923072  17.60475 7.548553846153844  17.60475 6.369230769230761  L 17.60475 5.817599999999992  C 17.60475 4.616861538461528  17.352 3.707076923076915  16.84725 3.0882461538461454  C 16.340999999999998 2.4679384615384556  15.602249999999994 2.1592615384615303  14.630249999999997 2.1592615384615303  Z M 29.124750000000002 7.1734153846153905  L 29.123250000000006 7.173415384615384  L 24.378749999999997 7.173415384615384  L 24.378749999999997 12  L 22 12  L 22 0.1875692307692331  L 29.717999999999996 0.1875692307692331  L 29.717999999999996 2.1592615384615432  L 24.378 2.1592615384615432  L 24.378 5.2091076923076995  L 29.124750000000002 5.2091076923076995  L 29.124750000000002 7.1734153846153905  Z " fill-rule="nonzero" fill="#ffffff" stroke="none" transform="matrix(1 0 0 1 2654 1392 )" />
  </g>
</svg>