<?xml version="1.0" encoding="utf-8"?>
<svg version="1.1" xmlns:xlink="http://www.w3.org/1999/xlink" width="25px" height="30px" xmlns="http://www.w3.org/2000/svg">
  <g transform="matrix(1 0 0 1 -3098 -1422 )">
    <path d="M 16.5 0  L 1.5 0  C 1.125 0  0.7249999999999996 0.1499999999999999  0.4500000000000001 0.44999999999999996  C 0.1750000000000007 0.75  0 1.125  0 1.5  L 0 28.5  C 0 28.875  0.1499999999999999 29.275  0.4500000000000001 29.55  C 0.75 29.85  1.125 30  1.5 30  L 23.5 30  C 23.875 30  24.275 29.85  24.55 29.55  C 24.85 29.25  25 28.875  25 28.5  L 25 8.5  L 16.5 0  Z " fill-rule="nonzero" fill="#0066ff" stroke="none" transform="matrix(1 0 0 1 3098 1422 )" />
  </g>
</svg>