<?xml version="1.0" encoding="utf-8"?>
<svg version="1.1" xmlns:xlink="http://www.w3.org/1999/xlink" width="15px" height="11px" xmlns="http://www.w3.org/2000/svg">
  <g transform="matrix(1 0 0 1 -517 -283 )">
    <path d="M 14.900000000000002 9.087976811594203  C 14.900000000000002 10.140915942028984  14.134000000000002 11  13.192 11  L 1.808 11  C 0.8660000000000001 11  0.10000000000000009 10.140915942028984  0.10000000000000009 9.085936231884059  L 0.10000000000000009 2.072463768115942  C 0.10000000000000009 1.0174840579710152  0.8660000000000001 0.1584000000000001  1.808 0.1584000000000001  L 13.192 0.1584000000000001  C 14.134000000000002 0.1584000000000001  14.900000000000002 1.0174840579710152  14.900000000000002 2.072463768115942  L 14.900000000000002 9.087976811594203  Z M 1.808 1.43376231884058  L 1.808 1.4358028985507245  C 1.4940000000000002 1.4358028985507245  1.2380000000000002 1.7214840579710147  1.2380000000000002 2.0745043478260867  L 1.2380000000000002 9.090017391304347  C 1.2380000000000002 9.440997101449275  1.4940000000000002 9.72871884057971  1.808 9.72871884057971  L 13.192 9.72871884057971  C 13.506000000000004 9.72871884057971  13.762000000000002 9.44303768115942  13.762000000000002 9.090017391304347  L 13.762000000000002 2.072463768115942  C 13.762000000000002 1.7214840579710147  13.506 1.43376231884058  13.192 1.43376231884058  L 1.808 1.43376231884058  Z " fill-rule="nonzero" fill="#7f7f7f" stroke="none" transform="matrix(1 0 0 1 517 283 )" />
  </g>
</svg>