<?xml version="1.0" encoding="utf-8"?>
<svg version="1.1" xmlns:xlink="http://www.w3.org/1999/xlink" width="10px" height="17px" xmlns="http://www.w3.org/2000/svg">
  <g transform="matrix(1 0 0 1 -519 -274 )">
    <path d="M 9.968727272727273 9.983647706422017  C 9.968727272727273 10.329012844036697  9.720484848484848 10.606502752293578  9.416 10.606502752293578  L 0.5839999999999997 10.606502752293578  C 0.2795151515151514 10.606502752293578  0.03127272727272706 10.327016513761468  0.03127272727272706 9.98165137614679  L 0.03127272727272706 5.615677064220184  C 0.03127272727272706 2.5193688073394496  2.261575757575758 0  5 0  C 7.738424242424243 0  9.968727272727273 2.5193688073394496  9.968727272727273 5.615677064220184  C 9.968727272727273 5.961042201834862  9.72242424242424 6.240528440366972  9.416 6.240528440366972  C 9.10957575757576 6.240528440366972  8.86327272727273 5.961042201834862  8.86327272727273 5.615677064220184  C 8.86327272727273 3.208102752293578  7.1294545454545455 1.2477064220183487  5 1.2477064220183487  C 2.8705454545454545 1.2477064220183487  1.136727272727273 3.2061064220183493  1.136727272727273 5.615677064220184  L 1.136727272727273 9.35879633027523  L 9.416 9.35879633027523  C 9.72048484848485 9.35879633027523  9.968727272727273 9.63828256880734  9.968727272727273 9.983647706422017  Z M 6.931636363636365 14.661049541284402  C 6.931636363636365 15.864836697247705  6.064727272727274 16.84503486238532  5 16.845034862385322  C 3.9352727272727273 16.845034862385322  3.0683636363636357 15.864836697247705  3.0683636363636357 14.661049541284402  C 3.0683636363636357 13.4572623853211  3.9352727272727273 12.477064220183486  5 12.477064220183486  C 6.064727272727271 12.477064220183486  6.931636363636365 13.457262385321101  6.931636363636365 14.661049541284402  Z M 5.828121212121211 14.661049541284402  C 5.828121212121211 14.144000000000002  5.455757575757575 13.724770642201836  5 13.724770642201836  C 4.544242424242424 13.724770642201836  4.1718787878787875 14.144000000000002  4.1718787878787875 14.661049541284402  C 4.1718787878787875 15.178099082568805  4.544242424242424 15.59732844036697  5 15.59732844036697  C 5.455757575757577 15.59732844036697  5.828121212121211 15.178099082568805  5.828121212121211 14.661049541284402  Z " fill-rule="nonzero" fill="#7f7f7f" stroke="none" transform="matrix(1 0 0 1 519 274 )" />
  </g>
</svg>