<?xml version="1.0" encoding="utf-8"?>
<svg version="1.1" xmlns:xlink="http://www.w3.org/1999/xlink" width="11px" height="10px" xmlns="http://www.w3.org/2000/svg">
  <g transform="matrix(1 0 0 1 -596 -399 )">
    <path d="M 6.101709395833334 6.709010094696969  C 8.80549058653846 6.386101003787878  10.915384615384616 3.9185454545454537  10.915384615384616 0.928969696969698  L 10.915384615384616 0.7673535416666682  C 10.915384615384614 0.4103209743761676  10.645990138753724 0.12088889204545736  10.313675210737179 0.12088889204545736  C 9.981360282720637 0.12088889204545736  9.711965806089747 0.41032097437616655  9.711965806089747 0.7673535416666682  L 9.711965806089745 0.928969696969698  C 9.711965806089745 3.424323238636365  7.822598278846155 5.454222215909091  5.5 5.454222215909091  C 3.1774017211538452 5.454222215909091  1.2880341939102564 3.4243232196969693  1.2880341939102564 0.928969696969698  L 1.2880341939102564 0.7673535416666682  C 1.2880341939102564 0.41032097437616655  1.0186397172793664 0.12088889204545736  0.686324789262821 0.12088889204545736  C 0.3540098612462762 0.12088889204545736  0.08461538461538531 0.41032097437616655  0.08461538461538531 0.7673535416666682  L 0.08461538461538481 0.928969696969698  C 0.08461538461538481 3.9182222159090925  2.1945093958333337 6.386101003787879  4.898290604166667 6.709010094696969  L 4.898290604166667 8.686868693181818  L 1.8897435897435906 8.686868693181818  C 1.5574286665949402 8.686868693181818  1.2880341939102564 8.976300771272799  1.2880341939102564 9.333333333333332  C 1.2880341939102564 9.690365895393867  1.5574286665949402 9.979797973484848  1.8897435897435906 9.979797973484848  L 9.11025641025641 9.979797973484848  C 9.44257133340506 9.979797973484848  9.711965806089745 9.690365895393867  9.711965806089745 9.333333333333332  C 9.711965806089745 8.976300771272799  9.44257133340506 8.686868693181818  9.11025641025641 8.686868693181818  L 6.101709395833334 8.686868693181818  L 6.101709395833334 6.709010094696969  Z " fill-rule="nonzero" fill="#7f7f7f" stroke="none" transform="matrix(1 0 0 1 596 399 )" />
  </g>
</svg>