<?xml version="1.0" encoding="utf-8"?>
<svg version="1.1" xmlns:xlink="http://www.w3.org/1999/xlink" width="50px" height="50px" xmlns="http://www.w3.org/2000/svg">
  <g transform="matrix(1 0 0 1 -555 -951 )">
    <path d="M 50 25  C 50 38.785714285714285  38.785714285714285 50  25 50  C 11.214285714285714 50  0 38.785714285714285  0 25  C 0 11.214285714285717  11.214285714285714 0  25 0  C 38.785714285714285 0  50 11.214285714285717  50 25  Z M 46.714285714285715 25  C 46.714285714285715 13.071428571428573  36.92857142857143 3.357142857142857  25 3.357142857142855  C 13.071428571428573 3.357142857142857  3.357142857142857 13.142857142857142  3.357142857142857 25  C 3.357142857142857 36.85714285714286  13.142857142857142 46.642857142857146  25 46.642857142857146  C 36.85714285714286 46.642857142857146  46.714285714285715 36.92857142857143  46.714285714285715 25  Z " fill-rule="nonzero" fill="#515151" stroke="none" transform="matrix(1 0 0 1 555 951 )" />
  </g>
</svg>