<?xml version="1.0" encoding="utf-8"?>
<svg version="1.1" xmlns:xlink="http://www.w3.org/1999/xlink" width="55px" height="10px" preserveAspectRatio="xMinYMid meet" viewBox="645 834  55 8" xmlns="http://www.w3.org/2000/svg">
  <path d="M 647 838  L 690 838  A 5 5 0 0 0 695 833 L 695 750  A 5 5 0 0 1 700 745 L 743 745  " stroke-width="2" stroke="#0066ff" fill="none" />
  <path d="M 648.5 834.5  A 3.5 3.5 0 0 0 645 838 A 3.5 3.5 0 0 0 648.5 841.5 A 3.5 3.5 0 0 0 652 838 A 3.5 3.5 0 0 0 648.5 834.5 Z M 735.6 753  L 745 745  L 735.6 737  L 739.2 745  L 735.6 753  Z " fill-rule="nonzero" fill="#0066ff" stroke="none" />
</svg>