<?xml version="1.0" encoding="utf-8"?>
<svg version="1.1" xmlns:xlink="http://www.w3.org/1999/xlink" width="15px" height="15px" xmlns="http://www.w3.org/2000/svg">
  <g transform="matrix(1 0 0 1 -957 -233 )">
    <path d="M 15 7.5  C 15 3.3599999999999994  11.64 0  7.5 0  C 3.3600000000000003 0  0 3.3600000000000003  0 7.5  C 0 11.64  3.3600000000000003 15  7.5 15  C 11.64 15  15 11.64  15 7.5  Z M 14 7.5  C 14 11.09  11.09 14  7.5 14  C 3.9099999999999997 14  1 11.09  1 7.5  C 1 3.9099999999999997  3.9099999999999997 1  7.5 1  C 11.09 1  14 3.9099999999999997  14 7.5  Z M 10.849999999999998 10.129999999999999  L 8.19 7.449999999999999  L 10.82 4.85  C 11.02 4.6499999999999995  11.02 4.33  10.82 4.14  C 10.620000000000001 3.94  10.3 3.94  10.1 4.14  L 7.470000000000001 6.72  L 4.89 4.13  C 4.6899999999999995 3.9299999999999993  4.369999999999999 3.9299999999999993  4.18 4.13  C 3.9799999999999995 4.33  3.9799999999999995 4.65  4.18 4.84  L 6.75 7.43  L 4.02 10.129999999999999  C 3.82 10.329999999999998  3.82 10.649999999999999  4.02 10.84  C 4.22 11.04  4.539999999999999 11.04  4.739999999999999 10.84  L 7.459999999999999 8.15  L 10.139999999999999 10.84  C 10.339999999999998 11.04  10.659999999999998 11.04  10.849999999999998 10.84  C 11.049999999999997 10.64  11.049999999999997 10.32  10.849999999999998 10.129999999999999  Z " fill-rule="nonzero" fill="#aaaaaa" stroke="none" transform="matrix(1 0 0 1 957 233 )" />
  </g>
</svg>