<?xml version="1.0" encoding="utf-8"?>
<svg version="1.1" xmlns:xlink="http://www.w3.org/1999/xlink" width="358px" height="10px" preserveAspectRatio="xMinYMid meet" viewBox="347 586  358 8" xmlns="http://www.w3.org/2000/svg">
  <path d="M 352 581  L 352 585  A 5 5 0 0 0 357 590 L 695 590  A 5 5 0 0 0 700 585 L 700 584  A 5 5 0 0 1 705 579 L 710 579  " stroke-width="2" stroke="#0066ff" fill="none" />
  <path d="M 352 579  A 3.5 3.5 0 0 0 348.5 582.5 A 3.5 3.5 0 0 0 352 586 A 3.5 3.5 0 0 0 355.5 582.5 A 3.5 3.5 0 0 0 352 579 Z M 702.6 587  L 712 579  L 702.6 571  L 706.2 579  L 702.6 587  Z " fill-rule="nonzero" fill="#0066ff" stroke="none" />
</svg>