<?xml version="1.0" encoding="utf-8"?>
<svg version="1.1" xmlns:xlink="http://www.w3.org/1999/xlink" width="19px" height="15px" xmlns="http://www.w3.org/2000/svg">
  <g transform="matrix(1 0 0 1 -1568 -968 )">
    <path d="M 18.916056034482754 0.8906249999999997  C 18.911961206896546 0.8845108695652167  18.911961206896546 0.8845108695652167  18.911961206896553 0.8824728260869567  L 18.911961206896553 0.8539402173913043  L 18.911961206896553 0.8396739130434785  C 18.911961206896553 0.8294836956521742  18.90991379310345 0.8192934782608698  18.90991379310345 0.8091032608695654  L 18.90991379310345 0.7968750000000003  C 18.907866379310345 0.786684782608696  18.907866379310345 0.7744565217391308  18.90581896551724 0.7642663043478266  C 18.903771551724137 0.7540760869565222  18.901724137931033 0.7438858695652178  18.901724137931033 0.7336956521739135  C 18.89967672413793 0.7275815217391307  18.89967672413793 0.7214673913043484  18.897629310344826 0.7153532608695655  C 18.89558189655172 0.7072010869565221  18.893534482758618 0.6990489130434784  18.891487068965517 0.688858695652174  C 18.889439655172414 0.6847826086956524  18.889439655172414 0.6786684782608697  18.88739224137931 0.6745923913043482  C 18.885344827586206 0.6664402173913045  18.883297413793102 0.658288043478261  18.879202586206894 0.6480978260869567  C 18.87715517241379 0.6440217391304351  18.87715517241379 0.6399456521739131  18.875107758620686 0.6338315217391308  C 18.873060344827582 0.6256793478260871  18.868965517241378 0.6175271739130437  18.866918103448274 0.6093750000000007  C 18.86487068965517 0.6052989130434792  18.86487068965517 0.5991847826086962  18.862823275862066 0.5951086956521747  C 18.860775862068962 0.5869565217391312  18.856681034482754 0.5788043478260876  18.852586206896547 0.5706521739130446  C 18.850538793103443 0.5665760869565231  18.84849137931034 0.5625000000000009  18.84644396551724 0.5563858695652186  L 18.83415948275862 0.5319293478260885  L 18.82801724137931 0.5197010869565234  C 18.823922413793102 0.5095108695652191  18.81778017241379 0.49932065217391475  18.813685344827583 0.48913043478261037  C 18.81163793103448 0.4870923913043496  18.81163793103448 0.48505434782608886  18.809590517241375 0.48301630434782755  C 18.78911637931034 0.44633152173913165  18.766594827586204 0.41168478260869706  18.74202586206896 0.37703804347826253  C 18.739978448275856 0.3750000000000018  18.739978448275856 0.372961956521741  18.737931034482752 0.372961956521741  C 18.729741379310344 0.3627717391304367  18.723599137931032 0.35461956521739313  18.715409482758616 0.34442934782608875  C 18.715409482758616 0.34442934782608875  18.715409482758616 0.342391304347828  18.713362068965512 0.342391304347828  C 18.71131465517241 0.34035326086956724  18.709267241379305 0.3383152173913065  18.707219827586204 0.3342391304347844  C 18.701077586206893 0.32608695652174086  18.69493534482758 0.3199728260869586  18.688793103448273 0.31182065217391497  L 18.676508620689653 0.29959239130434984  C 18.672413793103445 0.293478260869567  18.666271551724133 0.2894021739130455  18.662176724137925 0.28328804347826264  L 18.645797413793098 0.2669836956521755  L 18.63351293103448 0.2547554347826104  C 18.62737068965517 0.24864130434782755  18.621228448275858 0.2425271739130453  18.613038793103446 0.23845108695652323  C 18.608943965517238 0.23641304347826247  18.606896551724134 0.23233695652174036  18.602801724137926 0.2302989130434796  C 18.594612068965514 0.2241847826086968  18.588469827586202 0.21807065217391453  18.58028017241379 0.21195652173913168  C 18.576185344827582 0.20991847826087093  18.57413793103448 0.20788043478261017  18.57004310344827 0.20380434782608808  C 18.56185344827586 0.19769021739130524  18.553663793103443 0.19361413043478373  18.54752155172413 0.1875000000000009  C 18.543426724137923 0.18546195652174013  18.541379310344823 0.18342391304347938  18.537284482758615 0.18138586956521807  C 18.529094827586203 0.17730978260869656  18.52295258620689 0.17119565217391372  18.51476293103448 0.1671195652173922  C 18.51066810344827 0.16508152173913146  18.506573275862063 0.1630434782608707  18.502478448275856 0.1589673913043486  C 18.496336206896547 0.1548913043478271  18.48814655172413 0.15081521739130502  18.479956896551716 0.1467391304347835  C 18.475862068965508 0.14470108695652276  18.4697198275862 0.14062500000000067  18.463577586206892 0.1385869565217399  C 18.45743534482758 0.1345108695652184  18.45129310344827 0.1324728260869571  18.44515086206896 0.1283967391304356  C 18.43900862068965 0.12432065217391407  18.432866379310337 0.12228260869565274  18.426724137931032 0.11820652173913124  C 18.42058189655172 0.11616847826087047  18.416487068965512 0.11413043478260972  18.410344827586204 0.1120923913043484  C 18.40215517241379 0.10801630434782689  18.393965517241377 0.10597826086956555  18.387823275862065 0.10190217391304404  C 18.383728448275857 0.09986413043478329  18.379633620689653 0.09782608695652253  18.375538793103445 0.09782608695652253  C 18.36734913793103 0.09375000000000103  18.357112068965513 0.09171195652173969  18.348922413793098 0.08763586956521818  C 18.34482758620689 0.08559782608695743  18.342780172413793 0.08559782608695743  18.338685344827585 0.08355978260869668  C 18.328448275862065 0.07948369565217517  18.31821120689655 0.07744565217391385  18.30797413793103 0.07336956521739234  C 18.305926724137926 0.07336956521739234  18.30183189655172 0.07133152173913158  18.299784482758618 0.07133152173913158  C 18.289547413793102 0.06929347826087083  18.279310344827582 0.06521739130434874  18.269073275862066 0.06317934782608799  C 18.267025862068962 0.06317934782608799  18.26497844827586 0.06114130434782723  18.26088362068965 0.06114130434782723  L 18.230172413793102 0.055027173913044396  C 18.228125 0.055027173913044396  18.22403017241379 0.05298913043478364  18.221982758620687 0.05298913043478364  C 18.21174568965517 0.05095108695652289  18.20150862068965 0.048913043478262135  18.191271551724135 0.048913043478262135  C 18.187176724137927 0.048913043478262135  18.183081896551723 0.048913043478262135  18.178987068965515 0.04687500000000138  C 18.1707974137931 0.04483695652174063  18.160560344827584 0.04483695652174063  18.152370689655168 0.04279891304347987  C 18.146228448275863 0.04279891304347987  18.142133620689656 0.04279891304347987  18.135991379310344 0.04076086956521912  C 18.12780172413793 0.04076086956521912  18.119612068965516 0.038722826086958366  18.113469827586204 0  L 2.530603448275862 0  L 2.530603448275862 0.04483695652174121  L 1.4147629310344827 0.04483695652174121  C 0.6449353448275863 0.04483695652174121  0.020474137931034482 0.6664402173913063  0.020474137931034482 1.4327445652173931  L 0.020474137931034482 1.4429347826086973  L 0.018426724137931005 1.4429347826086973  L 0.018426724137931005 2.5455163043478275  L 0 2.5455163043478275  L 0 13.683423913043478  C 0.055280172413793016 14.41508152173913  0.6633620689655174 14.995923913043477  1.4086206896551723 14.995923913043477  L 1.4188577586206894 14.995923913043477  L 1.4188577586206894 14.997961956521738  L 2.5265086206896554 14.997961956521738  L 2.5265086206896554 15  L 11.666163793103447 15  C 12.128879310344827 15  12.505603448275862 14.627038043478262  12.505603448275862 14.164402173913045  C 12.505603448275862 13.703804347826088  12.13092672413793 13.328804347826088  11.666163793103447 13.328804347826088  L 2 13.328804347826088  L 2 2  L 15.76918103448276 2  L 9.463146551724138 6.982336956521738  L 5.020258620689656 3.2730978260869565  C 4.66605603448276 2.977581521739131  4.135775862068967 3.022418478260869  3.8389008620689666 3.377038043478261  C 3.5420258620689666 3.729619565217392  3.587068965517242 4.257472826086957  3.9433189655172427 4.552989130434783  L 8.86530172413793 8.661684782608695  C 8.95334051724138 8.74932065217391  9.057758620689654 8.81453804347826  9.168318965517242 8.857336956521738  C 9.48771551724138 8.98165760869565  9.864439655172411 8.900135869565219  10.101939655172414 8.62907608695652  L 18.613038793103446 1.5264945652173905  C 18.617133620689653 1.5244565217391297  18.619181034482757 1.5203804347826078  18.623275862068965 1.518342391304347  C 18.629418103448273 1.512228260869564  18.635560344827585 1.5081521739130426  18.641702586206897 1.5020380434782599  C 18.6478448275862 1.4979619565217384  18.65193965517241 1.4918478260869554  18.65808189655172 1.487771739130434  C 18.66217672413793 1.4836956521739124  18.666271551724133 1.4796195652173905  18.672413793103445 1.475543478260869  L 18.690840517241377 1.4572010869565208  L 18.701077586206893 1.4470108695652166  C 18.707219827586204 1.4408967391304337  18.713362068965516 1.432744565217391  18.719504310344824 1.4245923913043472  C 18.721551724137928 1.4225543478260865  18.723599137931032 1.4184782608695643  18.725646551724136 1.4164402173913035  L 18.744073275862064 1.3919836956521732  C 18.746120689655168 1.3899456521739124  18.748168103448272 1.3858695652173907  18.750215517241372 1.38383152173913  L 18.768642241379304 1.3593749999999996  C 18.770689655172408 1.3573369565217388  18.77273706896551 1.3532608695652166  18.774784482758612 1.3512228260869559  C 18.780926724137924 1.3430706521739124  18.78502155172413 1.3349184782608687  18.79116379310344 1.3267663043478257  C 18.793211206896544 1.3226902173913042  18.795258620689648 1.320652173913043  18.79730603448275 1.3165760869565215  C 18.80140086206896 1.3084239130434778  18.805495689655164 1.3023097826086956  18.80959051724137 1.2941576086956519  C 18.811637931034475 1.2900815217391304  18.81368534482758 1.2839673913043477  18.817780172413784 1.2798913043478262  C 18.82187499999999 1.2737771739130432  18.823922413793092 1.2656250000000002  18.8280172413793 1.2595108695652173  C 18.830064655172404 1.2533967391304346  18.83415948275861 1.2472826086956523  18.836206896551715 1.2411684782608696  C 18.83825431034482 1.2350543478260867  18.842349137931024 1.2289402173913044  18.844396551724127 1.2248641304347823  C 18.848491379310335 1.2167119565217386  18.85053879310344 1.2105978260869563  18.854633620689647 1.2024456521739129  C 18.85668103448275 1.1983695652173914  18.858728448275855 1.1942934782608694  18.860775862068955 1.1881793478260871  C 18.864870689655163 1.1800271739130435  18.866918103448263 1.1718749999999998  18.87101293103447 1.1616847826086953  C 18.873060344827575 1.1576086956521738  18.873060344827575 1.1535326086956519  18.87510775862068 1.1514945652173911  C 18.879202586206887 1.141304347826087  18.88124999999999 1.1331521739130432  18.883297413793095 1.1229619565217388  C 18.883297413793095 1.120923913043478  18.8853448275862 1.1168478260869559  18.8853448275862 1.1148097826086951  C 18.887392241379303 1.104619565217391  18.891487068965507 1.0944293478260865  18.89353448275861 1.0842391304347823  C 18.89353448275861 1.0822010869565215  18.895581896551715 1.0781249999999993  18.895581896551715 1.0760869565217386  L 18.901724137931026 1.0455163043478255  C 18.901724137931026 1.041440217391304  18.90377155172413 1.0394021739130426  18.90377155172413 1.035326086956521  C 18.905818965517234 1.025135869565217  18.907866379310338 1.0149456521739126  18.907866379310338 1.006793478260869  C 18.907866379310338 1.0027173913043474  18.909913793103442 0.9986413043478253  18.909913793103442 0.9945652173913038  C 18.911961206896546 0.9864130434782602  18.911961206896546 0.976222826086956  18.911961206896546 0.9680706521739123  C 18.911961206896546 0.9619565217391295  18.911961206896546 0.9558423913043472  18.91400862068965 0.9497282608695643  C 18.91400862068965 0.9415760869565208  18.916056034482754 0.9354619565217385  18.916056034482754 0.9273097826086949  L 18.916056034482754 0.9048913043478255  L 18.916056034482754 0.8906249999999997  Z " fill-rule="nonzero" fill="#242424" stroke="none" transform="matrix(1 0 0 1 1568 968 )" />
  </g>
</svg>