<?xml version="1.0" encoding="utf-8"?>
<svg version="1.1" xmlns:xlink="http://www.w3.org/1999/xlink" width="18px" height="12px" xmlns="http://www.w3.org/2000/svg">
  <g transform="matrix(1 0 0 1 -1570 -970 )">
    <path d="M 0.04882075471698107 0.6270833333333338  L 0.04882075471698107 0.08125000000000011  L 0.9169811320754715 0.08125000000000011  L 0.5731132075471698 0.08125000000000011  C 0.2801886792452828 0.09791666666666703  0.04882075471698107 0.33541666666666714  0.04882075471698107 0.6270833333333338  Z M 0.05731132075471704 11.427083333333332  L 0.05731132075471704 11.972916666666668  L 0.9254716981132075 11.972916666666668  L 0.5816037735849058 11.972916666666668  C 0.28867924528301875 11.956250000000002  0.05731132075471704 11.71875  0.05731132075471704 11.427083333333332  Z M 17.908726415094343 6.564583333333333  C 17.908726415094343 7.035416666666667  17.520283018867925 7.416666666666667  17.038443396226416 7.416666666666667  C 16.55872641509434 7.416666666666667  16.168160377358493 7.035416666666667  16.168160377358493 6.5625  L 16.168160377358493 3.5166666666666666  C 16.168160377358493 3.0458333333333334  16.556603773584904 2.6625  17.038443396226416 2.6625  C 17.51816037735849 2.6625  17.908726415094343 3.04375  17.908726415094343 3.5166666666666666  L 17.908726415094343 6.564583333333333  Z " fill-rule="nonzero" fill="#242424" stroke="none" transform="matrix(1 0 0 1 1570 970 )" />
  </g>
</svg>