<?xml version="1.0" encoding="utf-8"?>
<svg version="1.1" xmlns:xlink="http://www.w3.org/1999/xlink" width="10px" height="5px" preserveAspectRatio="xMinYMid meet" viewBox="914 571  10 3" xmlns="http://www.w3.org/2000/svg">
  <path d="M 921 575  L 1199 575  A 5 5 0 0 1 1204 580 L 1204 606  A 5 5 0 0 0 1209 611 L 1248 611  " stroke-width="2" stroke="#0066ff" fill="none" />
  <path d="M 922.5 571.5  A 3.5 3.5 0 0 0 919 575 A 3.5 3.5 0 0 0 922.5 578.5 A 3.5 3.5 0 0 0 926 575 A 3.5 3.5 0 0 0 922.5 571.5 Z M 1240.6 619  L 1250 611  L 1240.6 603  L 1244.2 611  L 1240.6 619  Z " fill-rule="nonzero" fill="#0066ff" stroke="none" />
</svg>