<?xml version="1.0" encoding="utf-8"?>
<svg version="1.1" xmlns:xlink="http://www.w3.org/1999/xlink" width="10px" height="22px" preserveAspectRatio="xMidYMin meet" viewBox="1606 235  8 22" xmlns="http://www.w3.org/2000/svg">
  <path d="M 1610 255  L 1610 245  A 5 5 0 0 1 1615 240 L 1662 240  A 5 5 0 0 1 1667 245 L 1667 606  A 5 5 0 0 0 1672 611 L 1723 611  " stroke-width="2" stroke="#0066ff" fill="none" />
  <path d="M 1610 250  A 3.5 3.5 0 0 0 1606.5 253.5 A 3.5 3.5 0 0 0 1610 257 A 3.5 3.5 0 0 0 1613.5 253.5 A 3.5 3.5 0 0 0 1610 250 Z M 1715.6 619  L 1725 611  L 1715.6 603  L 1719.2 611  L 1715.6 619  Z " fill-rule="nonzero" fill="#0066ff" stroke="none" />
</svg>