<?xml version="1.0" encoding="utf-8"?>
<svg version="1.1" xmlns:xlink="http://www.w3.org/1999/xlink" width="55px" height="10px" preserveAspectRatio="xMinYMid meet" viewBox="622 615  55 8" xmlns="http://www.w3.org/2000/svg">
  <path d="M 579 871  L 622 871  A 5 5 0 0 0 627 866 L 627 624  A 5 5 0 0 1 632 619 L 675 619  " stroke-width="2" stroke="#0066ff" fill="none" />
  <path d="M 580.5 867.5  A 3.5 3.5 0 0 0 577 871 A 3.5 3.5 0 0 0 580.5 874.5 A 3.5 3.5 0 0 0 584 871 A 3.5 3.5 0 0 0 580.5 867.5 Z M 667.6 627  L 677 619  L 667.6 611  L 671.2 619  L 667.6 627  Z " fill-rule="nonzero" fill="#0066ff" stroke="none" />
</svg>