<?xml version="1.0" encoding="utf-8"?>
<svg version="1.1" xmlns:xlink="http://www.w3.org/1999/xlink" width="16px" height="14px" xmlns="http://www.w3.org/2000/svg">
  <g transform="matrix(1 0 0 1 -1357 -325 )">
    <path d="M 6.248916252631579 5.982104828488374  C 7.241932589473684 5.02228525872093  8.851927157894737 5.02228525872093  9.844943494736842 5.982104828488373  C 10.837959831578948 6.941924398255814  10.837959831578948 8.498096473837212  9.844943494736842 9.457916043604651  C 8.851927157894737 10.417735613372093  7.241932589473684 10.417735613372093  6.248916252631579 9.457916043604651  C 5.255899915789475 8.498096473837212  5.255899915789475 6.941924398255815  6.248916252631579 5.982104828488374  Z M 12.020018505263158 7.720020854651164  C 12.020018505263158 9.870567244186049  10.271845284210526 11.560277811046513  8.046919094736841 11.560277811046513  C 5.8219929052631585 11.560277811046513  4.073819684210527 9.870567244186049  4.073819684210527 7.720020854651164  C 4.073819684210527 5.569474465116281  5.821971368421052 3.879763898255815  8.046919094736841 3.879763898255815  C 10.271866821052631 3.879763898255815  12.020018505263158 5.569474465116281  12.020018505263158 7.720020854651164  Z M 10.430748610526315 0.039465287790697634  L 5.663068063157894 0.039465287790697634  L 4.232744526315789 1.5755847238372098  L 1.6899686526315774 1.5755847238372098  C 0.8158928210526304 1.5755847238372098  0.10074181052631455 2.266828069767442  0.10074181052631455 3.111704159883722  L 0.10074181052631455 12.328337508720931  C 0.10074181052631455 13.173192781976743  0.8158928210526304 13.864456944767442  1.6899686526315774 13.864456944767442  L 14.403848021052632 13.864456944767442  C 15.277923852631579 13.864456944767442  15.993096399999999 13.173213598837208  15.993096399999999 12.328337508720931  L 15.993096399999999 3.111704159883722  C 15.993096399999999 2.266848886627908  15.277945389473683 1.5755847238372098  14.403848021052632 1.5755847238372098  L 11.861072147368422 1.5755847238372098  L 10.430748610526315 0.039465287790697634  Z " fill-rule="nonzero" fill="#000000" stroke="none" transform="matrix(1 0 0 1 1357 325 )" />
  </g>
</svg>