<?xml version="1.0" encoding="utf-8"?>
<svg version="1.1" xmlns:xlink="http://www.w3.org/1999/xlink" width="36px" height="36px" xmlns="http://www.w3.org/2000/svg">
  <g transform="matrix(1 0 0 1 -1578 -426 )">
    <path d="M 34.86547014508928 18  C 34.86547014508928 15.723683035714286  34.41941266741071 13.514866071428571  33.53965262276786 11.434833984375  C 32.690139508928574 9.426369977678569  31.47423549107143 7.622816685267857  29.925728236607142 6.074309430803571  C 28.377220982142855 4.525802176339285  26.573667689732144 3.3098981584821425  24.565166015625003 2.460385044642856  C 22.485133928571425 1.580587332589285  20.276316964285712 1.1344921874999994  18 1.1344921874999994  C 15.723683035714286 1.1344921874999994  13.514866071428571 1.5805873325892854  11.434833984375 2.460347377232143  C 9.426369977678569 3.3098604910714284  7.622816685267857 4.52576450892857  6.074309430803571 6.074271763392856  C 4.525802176339285 7.622779017857145  3.3098981584821425 9.426332310267856  2.460385044642856 11.434796316964285  C 1.580587332589285 13.514866071428571  1.1344921874999994 15.723683035714286  1.1344921874999994 18  C 1.1344921874999994 20.276316964285712  1.580587332589285 22.485133928571425  2.4603473772321416 24.565166015625003  C 3.309860491071428 26.573630022321428  4.52576450892857 28.377183314732143  6.074271763392856 29.925728236607142  C 7.622779017857141 31.47423549107143  9.426332310267856 32.69017717633928  11.434796316964285 33.53965262276786  C 13.514828404017859 34.41941266741071  15.723683035714286 34.8655078125  17.999962332589288 34.8655078125  C 20.276241629464288 34.8655078125  22.485096261160717 34.41941266741071  24.565128348214287 33.53965262276786  C 26.57359235491072 32.690139508928574  28.377145647321427 31.47423549107143  29.925690569196433 29.925728236607142  C 31.47423549107143 28.377220982142855  32.690139508928574 26.573667689732144  33.53961495535714 24.565166015625003  C 34.419375 22.485133928571425  34.86547014508928 20.276316964285712  34.86547014508928 18  Z M 32.47377790178571 18  C 32.47377790178571 25.98085797991071  25.98085797991071 32.47377790178571  18 32.47377790178571  C 10.019142020089285 32.47377790178571  3.5262220982142853 25.98085797991071  3.5262220982142853 17.999999999999996  C 3.5262220982142853 10.019142020089284  10.019142020089285 3.526222098214286  18 3.526222098214286  C 25.98085797991071 3.526222098214286  32.47377790178571 10.019142020089285  32.47377790178571 18  Z M 27.642857142857146 18  C 27.642857142857146 17.334303850446428  27.17065848214286 16.794642857142858  26.588169642857146 16.794642857142858  L 19.205357142857146 16.794642857142858  L 19.205357142857146 9.411830357142858  C 19.205357142857146 8.829341517857143  18.665696149553572 8.357142857142858  18 8.357142857142858  C 17.334303850446428 8.357142857142858  16.794642857142858 8.829341517857143  16.794642857142858 9.411830357142858  L 16.794642857142858 16.794642857142858  L 9.411830357142858 16.794642857142858  C 8.829341517857143 16.794642857142858  8.357142857142858 17.334303850446428  8.357142857142858 18  C 8.357142857142858 18.665696149553572  8.829341517857143 19.205357142857146  9.411830357142858 19.205357142857146  L 16.794642857142858 19.205357142857146  L 16.794642857142858 26.588169642857146  C 16.794642857142858 27.17065848214286  17.334303850446428 27.642857142857146  18 27.642857142857146  C 18.665696149553572 27.642857142857146  19.205357142857146 27.17065848214286  19.205357142857146 26.588169642857146  L 19.205357142857146 19.205357142857146  L 26.588169642857146 19.205357142857146  C 27.17065848214286 19.205357142857146  27.642857142857146 18.665696149553572  27.642857142857146 18  Z " fill-rule="nonzero" fill="#cccccc" stroke="none" transform="matrix(1 0 0 1 1578 426 )" />
  </g>
</svg>