<?xml version="1.0" encoding="utf-8"?>
<svg version="1.1" xmlns:xlink="http://www.w3.org/1999/xlink" width="7px" height="12px" xmlns="http://www.w3.org/2000/svg">
  <g transform="matrix(1 0 0 1 -1670 -386 )">
    <path d="M 6.765625 11.524553571428571  C 6.671875 11.564732142857142  6.578125 11.604910714285715  6.5078125 11.604910714285715  C 6.414062500000002 11.604910714285715  6.320312500000002 11.584821428571429  6.25 11.524553571428571  L 0.1796875000000009 6.301339285714285  C 0.08593750000000044 6.220982142857143  0.03906250000000089 6.100446428571429  0.03906250000000089 6  C 0.03906250000000089 5.899553571428571  0.08593750000000044 5.779017857142858  0.1796875000000009 5.698660714285714  L 6.25 0.47544642857142855  C 6.390625 0.3549107142857143  6.6015625 0.3549107142857143  6.7421875 0.47544642857142855  C 6.882812500000002 0.5959821428571428  6.882812500000002 0.7767857142857144  6.7421875 0.8973214285714286  L 0.8125 6  L 6.765625 11.102678571428571  C 6.90625 11.223214285714285  6.90625 11.404017857142858  6.765625 11.524553571428571  Z " fill-rule="nonzero" fill="#cccccc" stroke="none" transform="matrix(1 0 0 1 1670 386 )" />
  </g>
</svg>