<?xml version="1.0" encoding="utf-8"?>
<svg version="1.1" xmlns:xlink="http://www.w3.org/1999/xlink" width="20px" height="20px" xmlns="http://www.w3.org/2000/svg">
  <g transform="matrix(1 0 0 1 -3037 -316 )">
    <path d="M 13.964285714285712 13  L 10.910714285714285 9.946428571428571  L 13.964285714285712 6.8928571428571415  C 14.178571428571427 6.678571428571428  14.178571428571427 6.357142857142856  13.964285714285712 6.196428571428571  L 13.749999999999998 5.982142857142857  C 13.535714285714285 5.767857142857142  13.214285714285712 5.767857142857142  13.053571428571427 5.982142857142857  L 10 9.035714285714286  L 6.8928571428571415 5.928571428571429  C 6.732142857142857 5.767857142857143  6.4642857142857135 5.767857142857143  6.249999999999999 5.928571428571429  L 5.982142857142856 6.196428571428573  C 5.821428571428571 6.357142857142859  5.821428571428571 6.625000000000002  5.982142857142856 6.839285714285715  L 9.089285714285714 9.946428571428571  L 6.035714285714286 13  C 5.821428571428571 13.214285714285714  5.821428571428571 13.535714285714288  6.035714285714286 13.696428571428571  L 6.19642857142857 13.857142857142858  C 6.410714285714285 14.07142857142857  6.732142857142857 14.07142857142857  6.8928571428571415 13.857142857142858  L 9.946428571428571 10.803571428571427  L 13.053571428571427 13.910714285714288  C 13.214285714285712 14.07142857142857  13.482142857142858 14.07142857142857  13.696428571428571 13.910714285714288  L 13.964285714285712 13.642857142857142  C 14.124999999999998 13.482142857142861  14.124999999999998 13.214285714285714  13.964285714285712 13  Z M 19.482142857142858 9.946428571428571  C 19.482142857142858 4.69642857142857  15.250000000000002 0.46428571428571425  10 0.46428571428571425  C 4.75 0.46428571428571425  0.5178571428571428 4.696428571428571  0.5178571428571428 9.946428571428571  C 0.5178571428571428 15.196428571428571  4.75 19.428571428571427  10 19.428571428571427  C 15.250000000000002 19.428571428571427  19.482142857142858 15.196428571428571  19.482142857142858 9.946428571428571  Z M 18.732142857142854 9.946428571428571  C 18.732142857142854 14.767857142857142  14.821428571428573 18.67857142857143  10 18.67857142857143  C 5.178571428571429 18.67857142857143  1.2678571428571432 14.767857142857144  1.2678571428571432 9.946428571428571  C 1.2678571428571432 5.125000000000002  5.178571428571429 1.2142857142857142  10 1.2142857142857142  C 14.821428571428573 1.2142857142857142  18.732142857142854 5.125  18.732142857142854 9.946428571428571  Z " fill-rule="nonzero" fill="#000000" stroke="none" transform="matrix(1 0 0 1 3037 316 )" />
  </g>
</svg>