<?xml version="1.0" encoding="utf-8"?>
<svg version="1.1" xmlns:xlink="http://www.w3.org/1999/xlink" width="20px" height="21px" preserveAspectRatio="xMidYMin meet" viewBox="1645 368  18 21" xmlns="http://www.w3.org/2000/svg">
  <path d="M 1654 380  L 1654 155  A 5 5 0 0 1 1659 150 L 2815 150  A 5 5 0 0 1 2820 155 L 2820 163  " stroke-width="2" stroke="#0066ff" fill="none" />
  <path d="M 1654 375  A 3.5 3.5 0 0 0 1650.5 378.5 A 3.5 3.5 0 0 0 1654 382 A 3.5 3.5 0 0 0 1657.5 378.5 A 3.5 3.5 0 0 0 1654 375 Z M 2812 155.6  L 2820 165  L 2828 155.6  L 2820 159.2  L 2812 155.6  Z " fill-rule="nonzero" fill="#0066ff" stroke="none" />
</svg>