<?xml version="1.0" encoding="utf-8"?>
<svg version="1.1" xmlns:xlink="http://www.w3.org/1999/xlink" width="10px" height="20px" preserveAspectRatio="xMidYMin meet" viewBox="3291 145  8 20" xmlns="http://www.w3.org/2000/svg">
  <path d="M 1549 549  L 1549 155  A 5 5 0 0 1 1554 150 L 3290 150  A 5 5 0 0 1 3295 155 L 3295 163  " stroke-width="2" stroke="#0066ff" fill="none" />
  <path d="M 1549 544  A 3.5 3.5 0 0 0 1545.5 547.5 A 3.5 3.5 0 0 0 1549 551 A 3.5 3.5 0 0 0 1552.5 547.5 A 3.5 3.5 0 0 0 1549 544 Z M 3287 155.6  L 3295 165  L 3303 155.6  L 3295 159.2  L 3287 155.6  Z " fill-rule="nonzero" fill="#0066ff" stroke="none" />
</svg>