<?xml version="1.0" encoding="utf-8"?>
<svg version="1.1" xmlns:xlink="http://www.w3.org/1999/xlink" width="21px" height="20px" preserveAspectRatio="xMinYMid meet" viewBox="708 291  21 18" xmlns="http://www.w3.org/2000/svg">
  <path d="M 717 300  L 737 300  A 5 5 0 0 1 742 305 L 742 616  A 5 5 0 0 0 747 621 L 768 621  " stroke-width="2" stroke="#0066ff" fill="none" />
  <path d="M 718.5 296.5  A 3.5 3.5 0 0 0 715 300 A 3.5 3.5 0 0 0 718.5 303.5 A 3.5 3.5 0 0 0 722 300 A 3.5 3.5 0 0 0 718.5 296.5 Z M 760.6 629  L 770 621  L 760.6 613  L 764.2 621  L 760.6 629  Z " fill-rule="nonzero" fill="#0066ff" stroke="none" />
</svg>