<?xml version="1.0" encoding="utf-8"?>
<svg version="1.1" xmlns:xlink="http://www.w3.org/1999/xlink" width="10px" height="136px" preserveAspectRatio="xMidYMin meet" viewBox="1738 1647  8 136" xmlns="http://www.w3.org/2000/svg">
  <path d="M 1689 1652  L 1737 1652  A 5 5 0 0 1 1742 1657 L 1742 1773  A 5 5 0 0 0 1747 1778 L 1795 1778  " stroke-width="2" stroke="#0066ff" fill="none" />
  <path d="M 1690.5 1648.5  A 3.5 3.5 0 0 0 1687 1652 A 3.5 3.5 0 0 0 1690.5 1655.5 A 3.5 3.5 0 0 0 1694 1652 A 3.5 3.5 0 0 0 1690.5 1648.5 Z M 1787.6 1786  L 1797 1778  L 1787.6 1770  L 1791.2 1778  L 1787.6 1786  Z " fill-rule="nonzero" fill="#0066ff" stroke="none" />
</svg>