<?xml version="1.0" encoding="utf-8"?>
<svg version="1.1" xmlns:xlink="http://www.w3.org/1999/xlink" width="36px" height="36px" xmlns="http://www.w3.org/2000/svg">
  <g transform="matrix(1 0 0 1 -1621 -1683 )">
    <path d="M 18.020786548082263 1.1569390402075224  C 8.689014730405779 1.1569390402075224  1.1257504168982764 8.95378728923476  1.1257504168982764 18.573203631647214  C 1.1257504168982764 28.19261997405966  8.689427459699832 35.98931258106355  18.020749027237354 35.98931258106355  C 27.351207615341856 35.98931258106355  34.91492217898833 28.19261997405966  34.91492217898833 18.573203631647214  C 34.91495969983324 8.954098573281453  27.35120761534186 1.1569390402075224  18.020749027237358 1.1569390402075224  Z M 32.61189271817677 18.592036316472115  C 32.61189271817677 26.95055771725033  26.07793774319066 33.72647211413748  18.01797248471373 33.72647211413748  C 9.957969705391887 33.72647211413748  3.424052251250697 26.95051880674449  3.424052251250697 18.592036316472115  C 3.424052251250697 10.233514915693906  9.9580072262368 3.4576005188067467  18.01797248471373 3.4576005188067467  C 26.077937743190663 3.4576005188067467  32.61189271817677 10.233553826199742  32.61189271817677 18.592036316472115  Z M 11.355771261812116 16.28347600518807  C 10.180918565869925 16.28347600518807  9.2285269594219 17.27118028534371  9.2285269594219 18.48950713359274  C 9.2285269594219 19.707872892347602  10.180956086714843 20.695538261997406  11.355771261812116 20.695538261997406  C 12.530586436909394 20.695538261997406  13.483015564202333 19.707833981841766  13.483015564202333 18.48950713359274  C 13.483015564202333 17.271141374837875  12.530586436909394 16.28347600518807  11.355771261812116 16.28347600518807  Z M 18.479553918843806 16.28347600518807  C 17.304701222901613 16.28347600518807  16.35230961645359 17.27118028534371  16.352309616453585 18.48950713359274  C 16.352309616453585 19.707872892347602  17.304738743746526 20.695538261997406  18.479553918843806 20.695538261997406  C 19.65436909394108 20.695538261997406  20.606798221234026 19.707833981841766  20.606798221234026 18.48950713359274  C 20.606798221234026 17.271141374837875  19.65436909394108 16.28347600518807  18.479553918843806 16.28347600518807  Z M 24.910776820455816 16.28347600518807  C 23.735924124513623 16.28347600518807  22.78353251806559 17.27118028534371  22.78353251806559 18.48950713359274  C 22.78353251806559 19.707872892347602  23.735961645358532 20.695538261997406  24.910776820455816 20.695538261997406  C 26.085591995553088 20.695538261997406  27.03802112284603 19.707833981841766  27.03802112284603 18.48950713359274  C 27.03802112284603 17.271141374837875  26.085591995553088 16.28347600518807  24.910776820455816 16.28347600518807  Z " fill-rule="nonzero" fill="#cccccc" stroke="none" transform="matrix(1 0 0 1 1621 1683 )" />
  </g>
</svg>