<?xml version="1.0" encoding="utf-8"?>
<svg version="1.1" xmlns:xlink="http://www.w3.org/1999/xlink" width="17px" height="30px" xmlns="http://www.w3.org/2000/svg">
  <g transform="matrix(1 0 0 1 -2293 -2788 )">
    <path d="M 15.745167483870967 29.93333333333333  L 15.758083096774195 30  L 1.5740025806451607 30  C 0.7410859354838712 29.933333333333337  0.21716129032258108 29.277973333333335  0.21716129032258108 28.43416888888889  L 0.21716129032258108 1.748302222222222  C 0.21716129032258108 0.9045688888888891  0.7410157419354841 0.06666666666666674  1.5740025806451607 0  L 15.75815329032258 0  C 16.59106993548387 0.06666666666666674  16.853032258064516 0.9045688888888891  16.853032258064516 1.748302222222222  L 16.853032258064516 28.434168888888887  C 16.853032258064516 29.277973333333332  16.578224516129033 29.93333333333333  15.745167483870967 29.93333333333333  Z M 8.652179612903225 28.434168888888887  C 9.207761548387097 28.434168888888887  9.679181419354839 27.95552  9.679181419354839 27.39374222222222  C 9.679181419354839 26.830897777777775  9.207761548387097 26.38133333333333  8.652179612903225 26.38133333333333  C 8.096597677419355 26.38133333333333  7.65283406451613 26.830897777777775  7.65283406451613 27.39374222222222  C 7.65283406451613 27.95552  8.096597677419355 28.434168888888887  8.652179612903225 28.434168888888887  Z M 16 24.955555555555556  L 16 3.0533333333333337  L 15.257883870967742 3  L 2.0740614193548397 3  L 1.1998709677419348 3.0533333333333337  L 1.1998709677419348 24.955555555555556  L 2.0740614193548375 25  L 15.257883870967742 25  L 16 24.955555555555556  Z " fill-rule="nonzero" fill="#7f7f7f" stroke="none" transform="matrix(1 0 0 1 2293 2788 )" />
  </g>
</svg>