<?xml version="1.0" encoding="utf-8"?>
<svg version="1.1" xmlns:xlink="http://www.w3.org/1999/xlink" width="29px" height="25px" xmlns="http://www.w3.org/2000/svg">
  <g transform="matrix(1 0 0 1 -2293 -2853 )">
    <path d="M 29 5.782982995495496  C 29 4.79479481981982  28.77605554296875 3.8714714808558566  28.34508334277344 3.077877871621622  C 28.31435151931809 2.9194216948098806  28.25337329533907 2.7682836826404316  28.16544445703125 2.6326326295045046  C 27.130305542968753 1.0774774774774776  25.44105554296875 0.15015014076576566  23.651111114257812 0.15015014076576566  L 5.1491111142578125 0.15015014076576566  C 3.3631944570312498 0.15015014076576566  1.67394445703125 1.081481475225225  0.634777771484375 2.6406406531531523  C 0.49663759964402066 2.849573353625557  0.425825704876911 3.0953934283542677  0.43177777148437496 3.34534535472973  C 0.05155554296875 4.21981981981982  0 5.12712713963964  0 5.779779786036036  L 0 19.54794794481982  C 0 21.018218215090094  0.503472228515625 22.378778772522523  1.417777771484375 23.370970974099098  C 2.3683333427734374 24.40400399774775  3.6910555429687504 24.974974971846848  5.1491111142578125 25  L 23.651111114257812 25  C 26.650999999999996 24.974974971846848  29 22.589389386261264  29 19.54794794481982  L 29 5.782982995495496  Z M 23.651111114257816 2.5797797860360365  C 24.33019445703125 2.5797797860360365  24.98913888574219 2.827227224099099  25.52483334277344 3.2684684684684684  L 19.868222228515627 9.035035022522523  L 16.52919445703125 12.428828828828825  C 16.38475878265818 12.573943370536918  16.22698858927008 12.705312759648471  16.057944457031248 12.821221227477475  C 14.851897780429464 13.607572833720438  13.253929259801671 13.431106109063368  12.250888885742189 12.400800788288288  L 9.934111114257814 10.043243243243243  L 3.323722228515625 3.241241244369369  C 3.8398796183371395 2.8210820028594474  4.485226196121871 2.589337192307659  5.152333342773438 3  L 23.651111114257812 3  L 23.651111114257812 2.580580574324324  Z M 26.603472228515628 19.548748761261262  C 26.603472228515628 21.25765765765766  25.333111114257814 22.545345354729733  23.651111114257816 22.545345354729733  L 5.1491111142578125 22.545345354729733  C 3.527527771484375 22.545345354729733  2.3965277714843753 21.313713710585585  2.3965277714843753 19.547947944819825  L 2.3965277714843753 5.8238238175675665  L 8.22875 11.752952956081081  L 10.54875 14.137737725225225  L 10.556805542968752 14.145745748873873  C 11.562397672991517 15.178400282586194  12.946271446301614 15.761507560115055  14.392055542968748 15.761761768018015  C 15.521502212985448 15.763902421890583  16.621944795875304 15.406362963787917  17.532111114257813 14.741541554054056  C 17.78344445703125 14.562962978603602  18.027527771484376 14.357157179054052  18.25066665722656 14.12572573198198  L 21.582444457031247 10.731931925675674  L 26.603472228515624 5.629229222972973  C 26.603472228515624 5.677277280405405  26.607499999999995 5.730930912162162  26.607499999999995 5.778978969594595  L 26.607499999999995 19.54794794481982  L 26.603472228515624 19.54794794481982  Z " fill-rule="nonzero" fill="#7f7f7f" stroke="none" transform="matrix(1 0 0 1 2293 2853 )" />
  </g>
</svg>