<?xml version="1.0" encoding="utf-8"?>
<svg version="1.1" xmlns:xlink="http://www.w3.org/1999/xlink" width="20px" height="7px" xmlns="http://www.w3.org/2000/svg">
  <g transform="matrix(1 0 0 1 -2373 -2937 )">
    <path d="M 19.89380530973451 4.678048780487804  C 19.82300884955752 5.907317073170731  18.831858407079643 6.93170731707317  17.557522123893804 7  L 2.2654867256637172 7  C 1.0619469026548671 6.93170731707317  0 5.907317073170731  0 4.678048780487804  L 0 0.7853658536585356  C 0 0.37560975609755903  0.28318584070796454 0.10243902439024294  0.7079646017699115 0.10243902439024294  C 1.1327433628318586 0.10243902439024294  1.415929203539823 0.37560975609755903  1.415929203539823 0.7853658536585356  L 1.415929203539823 4.678048780487804  C 1.415929203539823 5.156097560975608  1.7699115044247788 5.565853658536584  2.2654867256637172 5.565853658536584  L 17.628318584070794 5.565853658536584  C 18.05309734513274 5.565853658536584  18.47787610619469 5.156097560975608  18.47787610619469 4.678048780487804  L 18.47787610619469 0.7853658536585356  C 18.47787610619469 0.37560975609755903  18.761061946902654 0.10243902439024294  19.1858407079646 0.10243902439024294  C 19.61061946902655 0.10243902439024294  19.89380530973451 0.37560975609755903  19.89380530973451 0.7853658536585356  L 19.89380530973451 4.678048780487804  Z " fill-rule="nonzero" fill="#000000" stroke="none" transform="matrix(1 0 0 1 2373 2937 )" />
  </g>
</svg>