<?xml version="1.0" encoding="utf-8"?>
<svg version="1.1" xmlns:xlink="http://www.w3.org/1999/xlink" width="11px" height="6px" xmlns="http://www.w3.org/2000/svg">
  <g transform="matrix(1 0 0 1 -2378 -2935 )">
    <path d="M 10.78 0.23999999999999955  C 10.633333333333333 0.10285714285714342  10.486666666666666 0.034285714285713365  10.266666666666667 0.0342857142857147  C 10.046666666666667 0.0342857142857147  9.9 0.10285714285714342  9.753333333333334 0.24000000000000088  L 5.500000000000001 4.217142857142857  L 1.2466666666666675 0.24000000000000088  C 0.9533333333333337 -0.034285714285713365  0.5133333333333341 -0.034285714285713365  0.2200000000000005 0.24000000000000088  C -0.07333333333333306 0.5142857142857158  -0.07333333333333306 0.9257142857142868  0.2200000000000005 1.200000000000001  L 4.986666666666667 5.657142857142857  C 5.280000000000002 5.9314285714285715  5.7200000000000015 5.9314285714285715  6.013333333333333 5.657142857142857  L 10.78 1.1999999999999997  C 11.073333333333332 0.9257142857142855  11.073333333333332 0.5142857142857145  10.78 0.23999999999999955  Z " fill-rule="nonzero" fill="#000000" stroke="none" transform="matrix(1 0 0 1 2378 2935 )" />
  </g>
</svg>