<?xml version="1.0" encoding="utf-8"?>
<svg version="1.1" xmlns:xlink="http://www.w3.org/1999/xlink" width="34px" height="34px" preserveAspectRatio="xMinYMid meet" viewBox="2254 2787  34 32" xmlns="http://www.w3.org/2000/svg">
  <path d="M 2176 1835  L 2215 1835  A 5 5 0 0 1 2220 1840 L 2220 2798  A 5 5 0 0 0 2225 2803 L 2271 2803  " stroke-width="2" stroke="#0066ff" fill="none" />
  <path d="M 2177.5 1831.5  A 3.5 3.5 0 0 0 2174 1835 A 3.5 3.5 0 0 0 2177.5 1838.5 A 3.5 3.5 0 0 0 2181 1835 A 3.5 3.5 0 0 0 2177.5 1831.5 Z M 2263.6 2811  L 2273 2803  L 2263.6 2795  L 2267.2 2803  L 2263.6 2811  Z " fill-rule="nonzero" fill="#0066ff" stroke="none" />
</svg>