<?xml version="1.0" encoding="utf-8"?>
<svg version="1.1" xmlns:xlink="http://www.w3.org/1999/xlink" width="21px" height="20px" preserveAspectRatio="xMinYMid meet" viewBox="1794 2122  21 18" xmlns="http://www.w3.org/2000/svg">
  <path d="M 1806 2131  L 1785 2131  A 5 5 0 0 0 1780 2136 L 1780 2785  A 5 5 0 0 0 1785 2790 L 1796 2790  " stroke-width="2" stroke="#0066ff" fill="none" />
  <path d="M 1804.5 2127.5  A 3.5 3.5 0 0 0 1801 2131 A 3.5 3.5 0 0 0 1804.5 2134.5 A 3.5 3.5 0 0 0 1808 2131 A 3.5 3.5 0 0 0 1804.5 2127.5 Z M 1788.6 2798  L 1798 2790  L 1788.6 2782  L 1792.2 2790  L 1788.6 2798  Z " fill-rule="nonzero" fill="#0066ff" stroke="none" />
</svg>