<?xml version="1.0" encoding="utf-8"?>
<svg version="1.1" xmlns:xlink="http://www.w3.org/1999/xlink" width="793px" height="10px" preserveAspectRatio="xMinYMid meet" viewBox="1611 1296  793 8" xmlns="http://www.w3.org/2000/svg">
  <path d="M 1616 1746  L 1616 1305  A 5 5 0 0 1 1621 1300 L 2394 1300  A 5 5 0 0 1 2399 1305 L 2399 1315  " stroke-width="2" stroke="#ff6666" fill="none" />
  <path d="M 1616 1741  A 3.5 3.5 0 0 0 1612.5 1744.5 A 3.5 3.5 0 0 0 1616 1748 A 3.5 3.5 0 0 0 1619.5 1744.5 A 3.5 3.5 0 0 0 1616 1741 Z M 2391 1307.6  L 2399 1317  L 2407 1307.6  L 2399 1311.2  L 2391 1307.6  Z " fill-rule="nonzero" fill="#ff6666" stroke="none" />
</svg>