<?xml version="1.0" encoding="utf-8"?>
<svg version="1.1" xmlns:xlink="http://www.w3.org/1999/xlink" width="12px" height="12px" xmlns="http://www.w3.org/2000/svg">
  <g transform="matrix(1 0 0 1 -5034 -995 )">
    <path d="M 5.238763636363636 11.906836363636364  L 0.7005818181818181 11.906836363636364  C 0.34969021276205015 11.906836363636364  0.06523636363636372 11.622382514510678  0.06523636363636372 11.27149090909091  L 0.06523636363636372 6.73330909090909  C 0.06523636363636372 6.382417485489322  0.34969021276205015 6.0979636363636365  0.7005818181818181 6.0979636363636365  C 1.051473423601586 6.0979636363636365  1.3359272727272729 6.382417485489322  1.3359272727272729 6.73330909090909  L 1.3359272727272729 10.636145454545455  L 5.238763636363636 10.636145454545455  C 5.589655241783404 10.636145454545455  5.874109090909092 10.92059930367114  5.874109090909092 11.27149090909091  C 5.874109090909092 11.622382514510678  5.589655241783404 11.906836363636364  5.238763636363636 11.906836363636364  Z M 11.924727272727273 5.220872727272727  C 11.924727272727273 5.571764332692496  11.640273423601585 5.856218181818182  11.289381818181818 5.856218181818182  C 10.93849021276205 5.856218181818182  10.654036363636363 5.571764332692496  10.654036363636363 5.220872727272727  L 10.654036363636363 1.318036363636364  L 6.751199999999999 1.318036363636364  C 6.400308394580231 1.318036363636364  6.115854545454544 1.0335825145106774  6.115854545454544 0.682690909090909  C 6.115854545454544 0.3317993036711411  6.400308394580231 0.04734545454545466  6.751199999999999 0.04734545454545466  L 11.289381818181818 0.04734545454545466  C 11.640273423601585 0.04734545454545466  11.924727272727273 0.3317993036711411  11.924727272727273 0.682690909090909  L 11.924727272727273 5.220872727272727  Z " fill-rule="nonzero" fill="#555555" stroke="none" transform="matrix(1 0 0 1 5034 995 )" />
  </g>
</svg>