<?xml version="1.0" encoding="utf-8"?>
<svg version="1.1" xmlns:xlink="http://www.w3.org/1999/xlink" width="22px" height="22px" xmlns="http://www.w3.org/2000/svg">
  <g transform="matrix(1 0 0 1 -42 -4 )">
    <path d="M 53 4  C 59.16 4  64 8.84  64 15  C 64 21.16  59.16 26  53 26  C 46.84 26  42 21.16  42 15  C 42 8.84  46.84 4  53 4  Z " fill-rule="nonzero" fill="#ffffff" stroke="none" />
    <path d="M 53 4.5  C 58.879999999999995 4.5  63.5 9.12  63.5 15  C 63.5 20.88  58.879999999999995 25.5  53 25.5  C 47.12 25.5  42.5 20.88  42.5 15  C 42.5 9.12  47.12 4.5  53 4.5  Z " stroke-width="1" stroke="#ffffff" fill="none" />
  </g>
</svg>