<?xml version="1.0" encoding="utf-8"?>
<svg version="1.1" xmlns:xlink="http://www.w3.org/1999/xlink" width="21px" height="20px" preserveAspectRatio="xMinYMid meet" viewBox="540 897  21 18" xmlns="http://www.w3.org/2000/svg">
  <path d="M 549 906  L 658 906  A 5 5 0 0 0 663 901 L 663 616  A 5 5 0 0 1 668 611 L 778 611  " stroke-width="2" stroke="#0066ff" fill="none" />
  <path d="M 550.5 902.5  A 3.5 3.5 0 0 0 547 906 A 3.5 3.5 0 0 0 550.5 909.5 A 3.5 3.5 0 0 0 554 906 A 3.5 3.5 0 0 0 550.5 902.5 Z M 770.6 619  L 780 611  L 770.6 603  L 774.2 611  L 770.6 619  Z " fill-rule="nonzero" fill="#0066ff" stroke="none" />
</svg>