<?xml version="1.0" encoding="utf-8"?>
<svg version="1.1" xmlns:xlink="http://www.w3.org/1999/xlink" width="145px" height="10px" preserveAspectRatio="xMinYMid meet" viewBox="975 643  145 8" xmlns="http://www.w3.org/2000/svg">
  <path d="M 977 647  L 1110 647  A 5 5 0 0 0 1115 642 L 1115 616  A 5 5 0 0 1 1120 611 L 1253 611  " stroke-width="2" stroke="#0066ff" fill="none" />
  <path d="M 978.5 643.5  A 3.5 3.5 0 0 0 975 647 A 3.5 3.5 0 0 0 978.5 650.5 A 3.5 3.5 0 0 0 982 647 A 3.5 3.5 0 0 0 978.5 643.5 Z M 1245.6 619  L 1255 611  L 1245.6 603  L 1249.2 611  L 1245.6 619  Z " fill-rule="nonzero" fill="#0066ff" stroke="none" />
</svg>