<?xml version="1.0" encoding="utf-8"?>
<svg version="1.1" xmlns:xlink="http://www.w3.org/1999/xlink" width="13px" height="13px" xmlns="http://www.w3.org/2000/svg">
  <g transform="matrix(1 0 0 1 -2499 -535 )">
    <path d="M 8.173 11.349699999999999  C 7.4139 12.2136  6.1631 12.75  4.906700000000001 12.75  C 3.7035 12.75  2.5452000000000004 12.2544  1.6451000000000002 11.354300000000002  C -0.21509999999999962 9.4943  -0.21509999999999962 6.580200000000002  1.6451000000000002 4.7202  L 3.1209 3.2445000000000004  L 4.9649 5.0886  L 3.4890999999999996 6.564299999999999  C 3.096 6.957299999999999  2.8796 7.4606  2.8796 7.981599999999998  C 2.8796 8.502599999999997  3.096 9.005899999999999  3.4890999999999996 9.398999999999997  C 3.8822 9.792099999999998  4.385599999999999 10.008499999999998  4.906599999999999 10.008499999999998  C 5.4276 10.008499999999998  5.930999999999999 9.792  6.3241 9.398999999999997  L 9.4434 6.279899999999998  C 9.836500000000001 5.886799999999997  10.052999999999999 5.383499999999998  10.052999999999999 4.862499999999997  C 10.052999999999999 4.385599999999997  9.874299999999998 3.8817999999999966  9.549599999999998 3.4416999999999973  L 8.677799999999998 2.704399999999998  L 10.5343 0.8478999999999975  L 11.3993 1.7123999999999981  C 12.227500000000001 2.5406999999999975  12.6836 3.698999999999998  12.6836 4.973799999999997  C 12.6836 6.287399999999998  12.1863 7.446999999999997  11.2832 8.239799999999999  L 8.173 11.349699999999999  Z " fill-rule="nonzero" fill="#ffffff" stroke="none" transform="matrix(1 0 0 1 2499 535 )" />
  </g>
</svg>