<?xml version="1.0" encoding="utf-8"?>
<svg version="1.1" xmlns:xlink="http://www.w3.org/1999/xlink" width="40px" height="40px" xmlns="http://www.w3.org/2000/svg">
  <g transform="matrix(1 0 0 1 -1990 -817 )">
    <path d="M 2010 818  C 2020.64 818  2029 826.36  2029 837  C 2029 847.64  2020.64 856  2010 856  C 1999.36 856  1991 847.64  1991 837  C 1991 826.36  1999.36 818  2010 818  Z " fill-rule="nonzero" fill="#ffffff" stroke="none" fill-opacity="0" />
    <path d="M 2010 818  C 2020.64 818  2029 826.36  2029 837  C 2029 847.64  2020.64 856  2010 856  C 1999.36 856  1991 847.64  1991 837  C 1991 826.36  1999.36 818  2010 818  Z " stroke-width="2" stroke="#ffffff" fill="none" />
  </g>
</svg>