<?xml version="1.0" encoding="utf-8"?>
<svg version="1.1" xmlns:xlink="http://www.w3.org/1999/xlink" width="22px" height="22px" xmlns="http://www.w3.org/2000/svg">
  <g transform="matrix(1 0 0 1 -1057 -934 )">
    <path d="M 1068 935  C 1073.6 935  1078 939.4  1078 945  C 1078 950.6  1073.6 955  1068 955  C 1062.4 955  1058 950.6  1058 945  C 1058 939.4  1062.4 935  1068 935  Z " fill-rule="nonzero" fill="#ffffff" stroke="none" fill-opacity="0" />
    <path d="M 1068 935  C 1073.6 935  1078 939.4  1078 945  C 1078 950.6  1073.6 955  1068 955  C 1062.4 955  1058 950.6  1058 945  C 1058 939.4  1062.4 935  1068 935  Z " stroke-width="2" stroke="#ffffff" fill="none" />
  </g>
</svg>