<?xml version="1.0" encoding="utf-8"?>
<svg version="1.1" xmlns:xlink="http://www.w3.org/1999/xlink" width="9px" height="11px" xmlns="http://www.w3.org/2000/svg">
  <g transform="matrix(1 0 0 1 -2583 -594 )">
    <path d="M 5.248255813953488 0  L 5.246947674418605 3.3385  C 5.246947674418605 3.5021249999999995  5.300581395348837 3.642375000000001  5.41046511627907 3.7551250000000005  C 5.520348837209302 3.870625  5.652470930232558 3.9270000000000005  5.806831395348837 3.9270000000000005  L 8.984302325581394 3.9270000000000005  L 8.984302325581394 10.410125  C 8.984302325581394 10.57375  8.930668604651162 10.714  8.820784883720929 10.826749999999999  C 8.712209302325581 10.943624999999999  8.580087209302325 11  8.424418604651162 11  L 0.5755813953488372 11  C 0.4199127906976743 11  0.28648255813953494 10.943624999999999  0.1792151162790696 10.828125  C 0.06933139534883699 10.712625000000001  0.015697674418604503 10.57375  0.015697674418604503 10.4115  L 0.015697674418604503 0.5885000000000001  C 0.015697674418604503 0.42487500000000006  0.06933139534883699 0.28462500000000024  0.1792151162790696 0.1718750000000002  C 0.28909883720930224 0.05637500000000012  0.421220930232558 0  0.5755813953488372 0  L 5.248255813953488 0  Z M 8.751453488372093 3.141875  L 5.99389534883721 3.14325  L 5.99389534883721 0.24337499999999984  C 6.080232558139536 0.2997499999999998  6.1495639534883715 0.35887499999999994  6.204505813953489 0.41524999999999984  L 8.587936046511627 2.9204999999999997  C 8.641569767441862 2.976875  8.69781976744186 3.051125  8.751453488372093 3.141875  Z " fill-rule="nonzero" fill="#ffffff" stroke="none" transform="matrix(1 0 0 1 2583 594 )" />
  </g>
</svg>