<?xml version="1.0" encoding="utf-8"?>
<svg version="1.1" xmlns:xlink="http://www.w3.org/1999/xlink" width="36px" height="36px" xmlns="http://www.w3.org/2000/svg">
  <g transform="matrix(1 0 0 1 -1050 -927 )">
    <path d="M 1068 928  C 1077.52 928  1085 935.48  1085 945  C 1085 954.52  1077.52 962  1068 962  C 1058.48 962  1051 954.52  1051 945  C 1051 935.48  1058.48 928  1068 928  Z " fill-rule="nonzero" fill="#ffffff" stroke="none" fill-opacity="0" />
    <path d="M 1068 928  C 1077.52 928  1085 935.48  1085 945  C 1085 954.52  1077.52 962  1068 962  C 1058.48 962  1051 954.52  1051 945  C 1051 935.48  1058.48 928  1068 928  Z " stroke-width="2" stroke="#ffffff" fill="none" />
  </g>
</svg>