<?xml version="1.0" encoding="utf-8"?>
<svg version="1.1" xmlns:xlink="http://www.w3.org/1999/xlink" width="13px" height="13px" xmlns="http://www.w3.org/2000/svg">
  <g transform="matrix(1 0 0 1 -2504 -530 )">
    <path d="M 2.4770999999999983 12.140699999999999  L 1.6067999999999998 11.4048  L 1.6009000000000002 11.398800000000001  C 0.7008000000000001 10.4988  0.20509999999999984 9.320800000000002  0.20509999999999984 8.081800000000001  C 0.20509999999999984 6.8428  0.7008000000000001 5.664900000000001  1.6009000000000002 4.764800000000001  L 4.7203 1.6456000000000013  C 5.6203 0.7455000000000012  6.798500000000001 0.24990000000000134  8.037600000000001 0.24990000000000134  C 9.276700000000002 0.24990000000000134  10.454799999999999 0.7456000000000014  11.3549 1.6456000000000013  C 13.215000000000003 3.505700000000001  13.215000000000003 6.4197000000000015  11.354800000000001 8.279600000000002  L 9.879000000000001 9.755300000000002  L 8.0349 7.911300000000001  L 9.510800000000003 6.435600000000001  C 9.903900000000002 6.042600000000001  10.1204 5.539200000000001  10.1204 5.018300000000001  C 10.1204 4.497400000000001  9.903900000000002 3.994000000000001  9.510800000000003 3.600900000000001  C 9.123400000000002 3.2136000000000013  8.591500000000002 2.991500000000001  8.051600000000002 2.991500000000001  C 7.516700000000002 2.991500000000001  7.018600000000003 3.2101000000000006  6.685100000000001 3.5912000000000015  L 6.678300000000002 3.5990000000000006  L 3.4399999999999995 6.6137999999999995  C 2.6371 7.4168  2.6371 8.635499999999999  3.4452 9.443499999999998  L 4.309899999999999 10.3082  L 2.4770999999999983 12.140699999999999  Z " fill-rule="nonzero" fill="#ffffff" stroke="none" transform="matrix(1 0 0 1 2504 530 )" />
  </g>
</svg>