<?xml version="1.0" encoding="utf-8"?>
<svg version="1.1" xmlns:xlink="http://www.w3.org/1999/xlink" width="6px" height="7px" xmlns="http://www.w3.org/2000/svg">
  <g transform="matrix(1 0 0 1 -2579 -728 )">
    <path d="M 3.4988372093023257 0  L 3.4979651162790697 2.1245  C 3.4979651162790697 2.2286249999999996  3.5337209302325583 2.3178750000000004  3.6069767441860465 2.389625  C 3.6802325581395348 2.463125  3.768313953488372 2.499  3.8712209302325578 2.499  L 5.98953488372093 2.499  L 5.98953488372093 6.624625000000001  C 5.98953488372093 6.728750000000001  5.9537790697674415 6.8180000000000005  5.880523255813953 6.889749999999999  C 5.808139534883721 6.964124999999999  5.720058139534883 7  5.616279069767442 7  L 0.38372093023255816 7  C 0.2799418604651162 7  0.19098837209302327 6.964124999999999  0.1194767441860464 6.890625  C 0.046220930232557994 6.817125000000001  0.010465116279069668 6.728750000000001  0.010465116279069668 6.6255  L 0.010465116279069668 0.3745000000000001  C 0.010465116279069668 0.27037500000000003  0.046220930232557994 0.18112500000000015  0.1194767441860464 0.10937500000000012  C 0.19273255813953483 0.035875000000000073  0.280813953488372 0  0.38372093023255816 0  L 3.4988372093023257 0  Z M 5.834302325581395 1.9993750000000001  L 3.99593023255814 2.00025  L 3.99593023255814 0.1548749999999999  C 4.053488372093024 0.19074999999999986  4.099709302325581 0.22837499999999997  4.136337209302326 0.2642499999999999  L 5.725290697674419 1.8584999999999998  C 5.7610465116279075 1.8943750000000001  5.798546511627906 1.941625  5.834302325581395 1.9993750000000001  Z " fill-rule="nonzero" fill="#ffffff" stroke="none" transform="matrix(1 0 0 1 2579 728 )" />
  </g>
</svg>