<?xml version="1.0" encoding="utf-8"?>
<svg version="1.1" xmlns:xlink="http://www.w3.org/1999/xlink" width="8px" height="9px" xmlns="http://www.w3.org/2000/svg">
  <g transform="matrix(1 0 0 1 -2584 -663 )">
    <path d="M 4.665116279069768 0  L 4.663953488372093 2.7315  C 4.663953488372093 2.865375  4.711627906976744 2.9801250000000006  4.809302325581395 3.0723750000000005  C 4.906976744186046 3.166875  5.024418604651163 3.2130000000000005  5.161627906976744 3.2130000000000005  L 7.986046511627906 3.2130000000000005  L 7.986046511627906 8.517375000000001  C 7.986046511627906 8.651250000000001  7.938372093023255 8.766  7.840697674418604 8.85825  C 7.744186046511628 8.953875  7.626744186046511 9  7.488372093023256 9  L 0.5116279069767442 9  C 0.3732558139534883 9  0.2546511627906977 8.953875  0.1593023255813952 8.859375  C 0.06162790697674399 8.764875  0.013953488372092891 8.651250000000001  0.013953488372092891 8.5185  L 0.013953488372092891 0.4815000000000001  C 0.013953488372092891 0.3476250000000001  0.06162790697674399 0.23287500000000022  0.1593023255813952 0.14062500000000017  C 0.25697674418604644 0.046125000000000096  0.37441860465116267 0  0.5116279069767442 0  L 4.665116279069768 0  Z M 7.77906976744186 2.570625  L 5.3279069767441865 2.57175  L 5.3279069767441865 0.19912499999999986  C 5.404651162790699 0.2452499999999998  5.466279069767442 0.29362499999999997  5.515116279069768 0.3397499999999999  L 7.633720930232558 2.3894999999999995  C 7.68139534883721 2.435625  7.731395348837209 2.496375  7.77906976744186 2.570625  Z " fill-rule="nonzero" fill="#ffffff" stroke="none" transform="matrix(1 0 0 1 2584 663 )" />
  </g>
</svg>