<?xml version="1.0" encoding="utf-8"?>
<svg version="1.1" xmlns:xlink="http://www.w3.org/1999/xlink" width="36px" height="36px" xmlns="http://www.w3.org/2000/svg">
  <g transform="matrix(1 0 0 1 -4853 -819 )">
    <path d="M 4871 820  C 4880.52 820  4888 827.48  4888 837  C 4888 846.52  4880.52 854  4871 854  C 4861.48 854  4854 846.52  4854 837  C 4854 827.48  4861.48 820  4871 820  Z " fill-rule="nonzero" fill="#ffffff" stroke="none" fill-opacity="0" />
    <path d="M 4871 820  C 4880.52 820  4888 827.48  4888 837  C 4888 846.52  4880.52 854  4871 854  C 4861.48 854  4854 846.52  4854 837  C 4854 827.48  4861.48 820  4871 820  Z " stroke-width="2" stroke="#dedfde" fill="none" />
  </g>
</svg>