<?xml version="1.0" encoding="utf-8"?>
<svg version="1.1" xmlns:xlink="http://www.w3.org/1999/xlink" width="152px" height="150px" xmlns="http://www.w3.org/2000/svg">
  <defs>
    <mask fill="white" id="clip6787">
      <path d="M 151.00014988389057 150  L 150 150  L 0 150  C 0 66  66 0  150 0  C 150.33371818323667 0  150.6671522648776 0.00104170585382235  151 0  L 151.00014988389057 150  Z " fill-rule="evenodd" />
    </mask>
  </defs>
  <g transform="matrix(1 0 0 1 -4769 -750 )">
    <path d="M 151.00014988389057 150  L 150 150  L 0 150  C 0 66  66 0  150 0  C 150.33371818323667 0  150.6671522648776 0.00104170585382235  151 0  L 151.00014988389057 150  Z " fill-rule="nonzero" fill="#ededed" stroke="none" transform="matrix(1 0 0 1 4769 750 )" />
    <path d="M 151.00014988389057 150  L 150 150  L 0 150  C 0 66  66 0  150 0  C 150.33371818323667 0  150.6671522648776 0.00104170585382235  151 0  L 151.00014988389057 150  Z " stroke-width="2" stroke="#ededed" fill="none" transform="matrix(1 0 0 1 4769 750 )" mask="url(#clip6787)" />
  </g>
</svg>