<?xml version="1.0" encoding="utf-8"?>
<svg version="1.1" xmlns:xlink="http://www.w3.org/1999/xlink" width="22px" height="22px" xmlns="http://www.w3.org/2000/svg">
  <g transform="matrix(1 0 0 1 -4860 -826 )">
    <path d="M 4871 827  C 4876.6 827  4881 831.4  4881 837  C 4881 842.6  4876.6 847  4871 847  C 4865.4 847  4861 842.6  4861 837  C 4861 831.4  4865.4 827  4871 827  Z " fill-rule="nonzero" fill="#ffffff" stroke="none" fill-opacity="0" />
    <path d="M 4871 827  C 4876.6 827  4881 831.4  4881 837  C 4881 842.6  4876.6 847  4871 847  C 4865.4 847  4861 842.6  4861 837  C 4861 831.4  4865.4 827  4871 827  Z " stroke-width="2" stroke="#dedfde" fill="none" />
  </g>
</svg>