<?xml version="1.0" encoding="utf-8"?>
<svg version="1.1" xmlns:xlink="http://www.w3.org/1999/xlink" width="40px" height="40px" xmlns="http://www.w3.org/2000/svg">
  <g transform="matrix(1 0 0 1 -5326 -817 )">
    <path d="M 5346 818  C 5356.64 818  5365 826.36  5365 837  C 5365 847.64  5356.64 856  5346 856  C 5335.36 856  5327 847.64  5327 837  C 5327 826.36  5335.36 818  5346 818  Z " fill-rule="nonzero" fill="#ffffff" stroke="none" fill-opacity="0" />
    <path d="M 5346 818  C 5356.64 818  5365 826.36  5365 837  C 5365 847.64  5356.64 856  5346 856  C 5335.36 856  5327 847.64  5327 837  C 5327 826.36  5335.36 818  5346 818  Z " stroke-width="2" stroke="#dedfde" fill="none" />
  </g>
</svg>