<?xml version="1.0" encoding="utf-8"?>
<svg version="1.1" xmlns:xlink="http://www.w3.org/1999/xlink" width="11px" height="11px" xmlns="http://www.w3.org/2000/svg">
  <g transform="matrix(1 0 0 1 -124 -692 )">
    <path d="M 9.002802446844852 0.08599766279993774  C 8.718215294786173 0.08599766279993774  8.444350421777763 0.20193941618435315  8.237079365079365 0.41016949152542426  C 7.80381363384698 0.8755701149743913  7.80381363384698 1.627209546042559  8.237079365079365 2.0926101694915262  C 8.870684809749465 2.77228958146966  8.870684809749461 3.8709646558184754  8.237079365079365 4.55064406779661  L 4.9517460317460325 8.094508474576275  C 4.641919241991894 8.473586803141979  4.19373459195744 8.691118644067794  3.722539682539689 8.691118644067794  C 2.82149149640305 8.691118644067794  2.0910476190476257 7.911153147908611  2.0910476190476257 6.949016949152538  C 2.0910476190476257 6.445876622147144  2.29476791451783 5.967306572110353  2.6497777777777785 5.636474576271186  L 3.387301587301588 4.789288135593221  C 3.5952771962367627 4.565637480762824  3.711993474107311 4.263245857119176  3.711993474107311 3.94806779661017  C 3.711993474107311 3.288699818363266  3.21140810661218 2.754176459851518  2.5939047619047635 2.754176459851518  C 2.2959999086952148 2.754176459851518  2.0104128197128093 2.88112211982801  1.8005079365079375 3.106847457627119  L 1.0629841269841278 3.9898305084745775  C 0.39733507915706073 4.753793026648098  0.02729504151064213 5.758564100573739  0.02729504151064213 6.802040887878465  C 0.02729504151064213 9.082171879451073  1.75834697003788 10.930583260759821  3.8937077399233404 10.930583260759821  C 4.870932032796019 10.930583260759821  5.811908117900989 10.535455762933987  6.5273650793650795 9.824677966101694  L 9.823873015873016 6.304677966101695  C 11.331434418455814 4.692816710235336  11.331434418455814 2.0816917643409334  9.823873015873016 0.4698305084745782  C 9.612332312070993 0.22515245520434574  9.3146613183819 0.08599766279993774  9.002802446844852 0.08599766279993774  Z " fill-rule="nonzero" fill="#ffffff" stroke="none" transform="matrix(1 0 0 1 124 692 )" />
  </g>
</svg>