<?xml version="1.0" encoding="utf-8"?>
<svg version="1.1" xmlns:xlink="http://www.w3.org/1999/xlink" width="11px" height="11px" xmlns="http://www.w3.org/2000/svg">
  <g transform="matrix(1 0 0 1 -128 -687 )">
    <path d="M 9.861500000000001 7.029559322033896  C 11.317586504158982 5.415376010331602  11.307784512522446 2.831637469122422  9.839500000000001 1.2305084745762707  C 8.334557403511935 -0.3286405367305723  5.9654425964880655 -0.3286405367305723  4.4605 1.2305084745762715  L 1.2375000000000005 4.702779661016949  C -0.24650575566744282 6.314640916883307  -0.24650575566744282 8.925765862777709  1.2375000000000005 10.537627118644066  C 1.444125119404796 10.763352456443176  1.7252499101218506 10.890298116419668  2.0185000000000013 10.890298116419668  C 2.6263548549463667 10.890298116419668  3.1191185760743836 10.35577475790792  3.1191185760743836 9.696406779661016  C 3.1191185760743836 9.38122871915201  3.004225990045563 9.078837095508362  2.799500000000002 8.855186440677965  C 2.1757946404028776 8.175507028699833  2.1757946404028763 7.0768319543510145  2.7995000000000005 6.397152542372881  L 6.044499999999998 2.877152542372882  C 6.678193475047325 2.219547346245626  7.676806524952674 2.2195473462456268  8.310500000000001 2.877152542372882  C 8.934205359597126 3.5568319543510154  8.934205359597126 4.655507028699832  8.310500000000001 5.335186440677965  L 7.529500000000001 6.182372881355931  C 7.3214094542164485 6.406508604100116  7.204381423925619 6.711457529623701  7.204381423925619 7.029559322033898  C 7.204381423925619 7.688927300280802  7.6971451450536374 8.223450658792549  8.305000000000001 8.223450658792549  C 8.595554774531742 8.223450658792549  8.87432205257823 8.098821412930782  9.0805 7.876745762711865  L 9.861500000000001 7.029559322033896  Z " fill-rule="nonzero" fill="#ffffff" stroke="none" transform="matrix(1 0 0 1 128 687 )" />
  </g>
</svg>