<?xml version="1.0" encoding="utf-8"?>
<svg version="1.1" xmlns:xlink="http://www.w3.org/1999/xlink" width="9px" height="14px" xmlns="http://www.w3.org/2000/svg">
  <g transform="matrix(1 0 0 1 -1429 -2240 )">
    <path d="M 1.0549863281250003 13.697321777343749  C 1.2097617187500005 13.697321777343749  1.3652402343749992 13.648991699218751  1.4969003906249994 13.548896484375001  L 7.770708984375 8.768935546875  C 8.337287109375 8.337229003906252  8.66295703125 7.687644042968751  8.66295703125 6.987011718749999  C 8.66295703125 6.285678710937501  8.337287109375 5.6361108398437505  7.770005859375001 5.204404296875  L 1.531933593750001 0.45101806640624975  C 1.2188496093750005 0.21338378906249983  0.7692539062500013 0.2671655273437499  0.5248125000000007 0.5695019531249996  C 0.2803886718750012 0.8724877929687496  0.3350214843750003 1.3109960937499998  0.6466816406250006 1.5486474609374996  L 6.8854570312500005 6.30203369140625  C 7.103953124999999 6.46818115234375  7.228634765625002 6.717402343750001  7.228634765625002 6.98702880859375  C 7.228634765625002 7.2559887695312515  7.103970703125001 7.5052099609375  6.886160156250002 7.671357421875  L 0.6116484375000016 12.451318359374998  C 0.30000585937500174 12.688952636718751  0.24535546875000147 13.126760253906252  0.4897792968750018 13.4304638671875  C 0.6312656250000014 13.60544677734375  0.8420625000000016 13.697373046875  1.054968750000002 13.697373046875  Z " fill-rule="nonzero" fill="#999999" stroke="none" transform="matrix(1 0 0 1 1429 2240 )" />
  </g>
</svg>