<?xml version="1.0" encoding="utf-8"?>
<svg version="1.1" xmlns:xlink="http://www.w3.org/1999/xlink" width="20px" height="20px" xmlns="http://www.w3.org/2000/svg">
  <g transform="matrix(1 0 0 1 -1924 -263 )">
    <path d="M 18.965034957264958 5.703185705128208  C 18.02020200854701 3.863247863247865  16.47863247863248 2.27195027777778  14.539238547008548 1.3768453846153847  C 14.191142200854703 1.2276612393162392  13.843045854700854 1.327117329059829  13.644133653846156 1.675213675213675  C 13.5944055982906 1.774669764957265  13.544677564102566 1.8243978205128202  13.544677542735045 1.9735819658119655  C 13.544677542735045 2.222222222222222  13.69386168803419 2.470862457264957  13.942501944444448 2.5703185683760683  C 18.069930064102564 4.609168611111111  19.760683760683765 9.532245534188034  17.771561773504278 13.659673653846154  C 16.975912970085474 15.300699294871794  15.633255641025645 16.643356645299146  13.942501944444448 17.43900544871795  C 13.693861688034193 17.588189594017095  13.544677542735045 17.7871017948718  13.544677542735045 18.03574202991453  C 13.544677542735045 18.433566431623937  13.843045833333335 18.731934722222224  14.240870235042738 18.731934722222224  C 14.340326324786325 18.731934722222224  14.439782435897436 18.68220666666667  14.539238547008548 18.632478632478634  C 19.36285938034188 16.2952602991453  21.35198136752137 10.526806517094018  18.965034957264958 5.703185705128208  Z M 10.36208237179487 19.726495726495724  C 10.113442115384615 19.87567987179487  9.815073824786323 19.975135982905982  9.466977457264958 19.975135982905982  C 9.2183372008547 19.975135982905982  8.919968910256411 19.925407927350427  8.671328675213676 19.776223782051282  L 8.571872564102565 19.726495726495727  L 4.693084700854702 16.046620042735043  L 1.7591297649572648 16.046620042735043  C 0.814296816239316 16.046620042735043  0.06837606837606813 15.300699294871794  0.06837606837606813 14.405594401709402  L 0.06837606837606813 5.653457649572649  C 0.06837606837606813 4.758352756410257  0.8142968162393158 4.012432008547008  1.7591297649572648 4.012432008547008  L 4.693084700854701 4.012432008547008  L 8.571872564102565 0.33255632478632424  C 9.118881111111111 0.03418803418803361  9.765345747863249 0.03418803418803361  10.312354316239315 0.3822843803418797  C 10.809634807692309 0.6806526709401705  11.15773115384615 1.2276612179487172  11 1.774669764957264  L 11 18.33411034188034  C 11.15773115384615 18.88111888888889  10.859362863247863 19.37839938034188  10.36208237179487 19.726495726495724  Z M 5.439005448717947 14.952602948717947  L 9.367521367521368 18.582750576923075  C 9.516705512820513 18.632478632478634  9.616161623931625 18.582750576923075  9.715617713675215 18.533022542735043  C 9.76534576923077 18.483294487179485  9.86480185897436 18.433566452991453  10 18.334110341880343  L 10 1.7249417307692307  C 9.86480185897436 1.625485641025641  9.76534576923077 1.52602952991453  9.715617713675215 1.52602952991453  C 9.616161623931625 1.4763014743589742  9.516705512820513 1.42657344017094  9.367521367521368 1.4763014743589742  L 5.439005448717948 5.255633247863249  L 5.240093247863248 5.3053613034188025  C 5.041181047008546 5.355089358974359  4.842268846153846 5.404817393162393  4.543900534188034 5.404817414529914  L 1.7591297649572648 5.404817414529914  C 1.560217564102564 5.404817414529914  1.4110334188034188 5.504273504273503  1.4110334188034188 5.703185705128205  L 1.4110334188034188 14.405594401709402  C 1.4110334188034188 14.554778547008546  1.560217564102564 14.703962692307693  1.7591297649572648 14.703962713675214  L 4.543900534188034 14.703962713675214  C 4.842268824786324 14.703962713675214  5.090909081196582 14.753690769230769  5.339549337606837 14.902874893162393  L 5.439005448717947 14.952602948717947  Z " fill-rule="nonzero" fill="#666666" stroke="none" transform="matrix(1 0 0 1 1924 263 )" />
  </g>
</svg>