<?xml version="1.0" encoding="utf-8"?>
<svg version="1.1" xmlns:xlink="http://www.w3.org/1999/xlink" width="20px" height="20px" xmlns="http://www.w3.org/2000/svg">
  <g transform="matrix(1 0 0 1 -1663 -263 )">
    <path d="M 19.911504424778762 6.106194690265486  C 19.911504424778762 6.690265486725663  19.43362831858407 7.168141592920354  18.849557522123895 7.168141592920354  C 18.265486725663717 7.168141592920354  17.787610619469028 6.690265486725663  17.787610619469028 6.106194690265486  L 17.787610619469028 3.699115044247787  L 12.15929203539823 9.327433628318584  C 11.752212389380531 9.734513274336283  11.079646017699115 9.734513274336283  10.654867256637168 9.327433628318584  C 10.24778761061947 8.920353982300886  10.24778761061947 8.247787610619469  10.654867256637168 7.823008849557523  L 16.283185840707965 2.212389380530974  L 13.893805309734512 2.212389380530974  C 13.309734513274336 2.212389380530974  12.831858407079647 1.7345132743362834  12.831858407079647 1.1504424778761062  C 12.831858407079647 0.5663716814159291  13.309734513274336 0.08849557522123894  13.893805309734512 0.08849557522123894  L 18.849557522123895 0.08849557522123894  C 19.43362831858407 0.08849557522123894  19.911504424778762 0.5663716814159291  19.911504424778762 1.1504424778761062  L 19.911504424778762 6.106194690265486  Z M 9.327433628318584 12.176991150442477  L 3.699115044247787 17.787610619469028  L 6.106194690265486 17.787610619469028  C 6.690265486725663 17.787610619469028  7.168141592920354 18.265486725663717  7.168141592920354 18.849557522123895  C 7.168141592920354 19.43362831858407  6.690265486725663 19.911504424778762  6.106194690265486 19.911504424778762  L 1.1504424778761062 19.911504424778762  C 0.5663716814159291 19.911504424778762  0.08849557522123894 19.43362831858407  0.08849557522123894 18.849557522123895  L 0.08849557522123894 13.893805309734512  C 0.08849557522123894 13.309734513274336  0.5663716814159291 12.831858407079647  1.1504424778761062 12.831858407079647  C 1.7345132743362834 12.831858407079647  2.212389380530974 13.309734513274336  2.212389380530974 13.893805309734512  L 2.212389380530974 16.283185840707965  L 7.823008849557523 10.672566371681416  C 8.23008849557522 10.265486725663717  8.902654867256638 10.265486725663717  9.327433628318584 10.672566371681416  C 9.734513274336283 11.079646017699114  9.734513274336283 11.75221238938053  9.327433628318584 12.176991150442477  Z " fill-rule="nonzero" fill="#666666" stroke="none" transform="matrix(1 0 0 1 1663 263 )" />
  </g>
</svg>