<?xml version="1.0" encoding="utf-8"?>
<svg version="1.1" xmlns:xlink="http://www.w3.org/1999/xlink" width="20px" height="20px" xmlns="http://www.w3.org/2000/svg">
  <g transform="matrix(1 0 0 1 -1738 -877 )">
    <path d="M 20 10  C 20 4.476562500000001  15.5234375 0  10 0  C 4.4765625 0  0 4.4765625  0 10  C 0 15.5234375  4.4765625 20  10 20  C 15.5234375 20  20 15.5234375  20 10  Z M 14.689453124999998 14.984375  L 14.6875 14.984375  C 14.6875 15.115234375000002  14.53515625 15.189453125  14.43359375 15.105468750000002  L 9.375 11.01171875  L 9.375 14.974609374999998  C 9.375 15.107421874999998  9.21875 15.179687499999998  9.1171875 15.09375  L 3.265625 10.119140625  C 3.1914062499999996 10.056640625  3.1914062499999996 9.943359375  3.265625 9.880859375  L 9.119140625 4.906250000000001  C 9.220703125 4.820312500000001  9.376953125 4.892578125000001  9.376953125 5.025390625000002  L 9.376953125 8.98828125  L 14.435546874999998 4.894531250000001  C 14.537109375 4.812500000000001  14.689453124999998 4.884765625000001  14.689453124999998 5.015625000000002  L 14.689453124999998 14.984375  Z " fill-rule="nonzero" fill="#000000" stroke="none" transform="matrix(1 0 0 1 1738 877 )" />
  </g>
</svg>