<?xml version="1.0" encoding="utf-8"?>
<svg version="1.1" xmlns:xlink="http://www.w3.org/1999/xlink" width="22px" height="17px" xmlns="http://www.w3.org/2000/svg">
  <g transform="matrix(1 0 0 1 -1662 -877 )">
    <path d="M 1.9888 0.18307692307692303  L 20.0112 0.18307692307692303  C 21.0850816 0.18307692307692303  21.958464 1.033948717948718  21.981977599999997 2.0922379487179485  L 22 2.135897435897436  L 22 14.96871794871795  C 21.9824 16.032586666666667  21.12352 16.897825641025644  20.055270399999998 16.921120000000002  L 20.0112 16.92153846153846  L 17.758399999999995 16.921538461538457  C 17.290980754022954 16.92153888426022  16.91275091068001 16.546835659503223  16.91275091068001 16.084615807337144  C 16.91275091068001 15.634281961667119  17.272450536723277 15.264685155288145  17.726719999999997 15.248250256410257  L 17.7584 15.247692307692306  L 20.011200000000002 15.24769230769231  C 20.158564766724282 15.24773850828433  20.28104364932142 15.135220591765759  20.292095999999997 14.989641025641024  L 20 14.96871794871795  L 20 2.135897435897436  C 20.292846635421125 1.9899066996321246  20.179269726747084 1.8685698112783122  20.03232 1.8576205128205128  L 20.0112 2  L 1.9888 2  C 1.841435233275721 1.856876876331057  1.7189563506785774 1.96939479284963  1.7079039999999996 2.1149743589743593  L 2 2.135897435897436  L 2 14.96871794871795  C 1.707153364578879 15.114708684983261  1.820730273252921 15.236045573337073  1.9676800000000005 15.246994871794874  L 1.9888 15.247692307692306  L 4.2416 15.247692307692306  C 4.709019245977041 15.247691884970545  5.087249089319988 15.622395109727544  5.087249089319988 16.084614961893624  C 5.087249089319988 16.534948807563644  4.72754946327672 16.904545613942624  4.27328 16.920980512820513  L 4.2416 16.92153846153846  L 1.9888 16.92153846153846  C 0.9147775999999995 16.92153846153846  0.041535999999999726 16.070666666666668  0.018022399999999654 15.012377435897436  L 0 14.96871794871795  L 0 2.135897435897436  C 0.017600000000000015 1.0718892307692307  0.8764800000000004 0.20678974358974328  1.9447296000000003 0.183495384615385  L 1.9888 0.18307692307692303  Z " fill-rule="nonzero" fill="#000000" stroke="none" transform="matrix(1 0 0 1 1662 877 )" />
  </g>
</svg>