<?xml version="1.0" encoding="utf-8"?>
<svg version="1.1" xmlns:xlink="http://www.w3.org/1999/xlink" width="5px" height="10px" xmlns="http://www.w3.org/2000/svg">
  <g transform="matrix(1 0 0 1 -1936 -268 )">
    <path d="M 0.9905956034482748 9.940387479508196  C 3.2978056249999983 9.225037254098362  4.902821314655172 7.2697466393442625  4.852664568965517 4.980625922131148  C 4.852664568965517 2.739195225409836  3.2476489008620697 0.7839046106557379  0.9905956034482748 0.1639344262295082  C 0.5893416810344807 0.06855440573770465  0.28840124999999894 0.30700446721311425  0.18808778017241312 0.6408345696721306  C 0.18808778017241312 0.6885245901639337  0.13793103448275812 0.7839046106557367  0.18808778017241312 0.7839046106557367  C 0.18808778017241312 1.0700446926229499  0.33855799568965395 1.3561847950819663  0.6394984267241381 1.4515648360655728  C 2.6959247629310346 2.0238450204918026  3.9498432543103457 4.026825635245901  3.3479623922413797 6.02980625  C 2.9467084698275854 7.3174366598360665  1.943573685344828 8.223546926229508  0.6394984267241381 8.605067069672131  C 0.33855799568965644 8.700447090163934  0.13793103448275812 8.986587192622952  0.18808778017241312 9.272727274590164  C 0.18808778017241312 9.654247397540985  0.4890282112068949 9.940387479508196  0.840125387931034 9.940387479508196  L 0.9905956034482748 9.940387479508196  Z " fill-rule="nonzero" fill="#666666" stroke="none" transform="matrix(1 0 0 1 1936 268 )" />
  </g>
</svg>