<?xml version="1.0" encoding="utf-8"?>
<svg version="1.1" xmlns:xlink="http://www.w3.org/1999/xlink" width="20px" height="20px" xmlns="http://www.w3.org/2000/svg">
  <g transform="matrix(1 0 0 1 -965 -250 )">
    <path d="M 15.83316666015625 6  L 4.1915000000000004 6  L 4.1915000000000004 17.525  C 4.191959323900007 17.97123977970915  4.553593560134593 18.33287401594374  4.99983333984375 18  L 15.02483333984375 18  C 15.4715 18.333333339843747  15.833166679687501 17.97083333984375  15.83316666015625 17.525  L 15.83316666015625 6  Z M 17.49983333984375 17.525000000000002  C 17.49983333984375 18.89  16.38983333984375 20  15.02483333984375 20  L 4.999833339843751 20  C 3.6356666796875015 20  2.524833339843751 18.89  2.524833339843751 17.525  L 2.524833339843751 4.16666666015625  L 17.49983333984375 4.16666666015625  L 17.49983333984375 17.525000000000002  Z M 19.999999999999996 5  C 19.999999999999996 5.458333339843751  19.624999999999996 5.83333333984375  19.166666660156253 6  L 0.8333333398437499 6  C 0.3749999999999999 5.83333333984375  0 5.458333339843751  0 5  C 0 4.541666660156249  0.375 4.16666666015625  0.8333333398437499 4.16666666015625  L 19.16666666015625 4.16666666015625  C 19.625 4.16666666015625  19.999999999999996 4.54166666015625  19.999999999999996 5  Z M 15 2.5  L 15 4.16666666015625  L 13.33333333984375 4.16666666015625  L 13.33333333984375 2.5  C 13.33333333984375 2.04083333984375  12.959999999999997 1.6666666601562503  12.5 1.6666666601562503  L 7.5 1.6666666601562503  C 7.04083333984375 1.6666666601562503  6.66666666015625 2.0408333203125  6.66666666015625 2.5  L 6.66666666015625 4.16666666015625  L 5 4.16666666015625  L 5 2.5  C 5 1.12166666015625  6.12166666015625 0  7.5 0  L 12.5 0  C 13.87833333984375 0  15 1.12166666015625  15 2.5  Z M 8.333333339843751 15  C 8.333333339843751 15.458333339843751  7.958333339843751 15.83333333984375  7.5 15.83333333984375  C 7.041666660156249 15.83333333984375  6.66666666015625 15.458333339843747  6.66666666015625 15  L 6.66666666015625 9.166666660156249  C 6.66666666015625 8.7083333203125  7.041666660156249 8.3333333203125  7.5 8.33333333984375  C 7.958333339843751 8.333333359374999  8.333333339843751 8.70833333984375  8.333333339843751 9.166666660156249  L 8.333333339843751 15  Z M 13.33333333984375 15  C 13.33333333984375 15.458333339843751  12.958333339843747 15.83333333984375  12.5 15.83333333984375  C 12.041666660156249 15.83333333984375  11.66666666015625 15.458333339843747  11.66666666015625 15  L 11.66666666015625 9.166666660156249  C 11.66666666015625 8.7083333203125  12.041666660156253 8.3333333203125  12.5 8.33333333984375  C 12.958333339843747 8.333333359374999  13.33333333984375 8.70833333984375  13.33333333984375 9.166666660156249  L 13.33333333984375 15  Z " fill-rule="nonzero" fill="#000000" stroke="none" transform="matrix(1 0 0 1 965 250 )" />
  </g>
</svg>