<?xml version="1.0" encoding="utf-8"?>
<svg version="1.1" xmlns:xlink="http://www.w3.org/1999/xlink" width="19px" height="20px" xmlns="http://www.w3.org/2000/svg">
  <g transform="matrix(1 0 0 1 -1598 -397 )">
    <path d="M 1.641294642857143 19.015217391304347  C 1.641294642857143 19.47608695652174  1.2765625000000005 19.85  0.8270089285714285 19.85  C 0.37745535714285705 19.85  0.012723214285714164 19.47608695652174  0.012723214285714164 19.015217391304347  C 0.012723214285714164 17.776086956521738  0.2502232142857142 16.573913043478264  0.7167410714285714 15.441304347826089  C 1.1684151785714285 14.347826086956523  1.8130580357142856 13.365217391304348  2.6358258928571434 12.521739130434783  C 3.458593750000001 11.678260869565218  4.414955357142858 11.017391304347825  5.483705357142857 10.554347826086957  C 6.588504464285715 10.076086956521738  7.761160714285714 9.832608695652173  8.969866071428571 9.832608695652173  C 10.645089285714285 9.832608695652173  12.277901785714285 10.308695652173911  13.694419642857142 11.213043478260868  C 14.07611607142857 11.456521739130434  14.192745535714286 11.971739130434782  13.955245535714285 12.363043478260868  C 13.717745535714283 12.754347826086956  13.21517857142857 12.873913043478261  12.833482142857141 12.630434782608692  C 11.677790178571428 11.891304347826084  10.339732142857141 11.502173913043476  8.969866071428571 11.502173913043476  C 7.012611607142856 11.502173913043476  5.171986607142857 12.28478260869565  3.787276785714284 13.702173913043477  C 2.4025669642857124 15.119565217391305  1.641294642857143 17.008695652173913  1.641294642857143 19.015217391304347  Z M 12.808035714285715 9.5  C 11.78169642857143 10.549999999999999  10.4203125 11.130434782608695  8.969866071428571 11.130434782608695  C 7.519419642857143 11.130434782608695  6.155915178571429 10.552173913043479  5.131696428571428 9.5  C 4.107477678571429 8.45  3.541294642857143 7.052173913043478  3.541294642857143 5.565217391304348  C 3.541294642857143 4.078260869565218  4.105357142857144 2.680434782608696  5.131696428571428 1.6304347826086958  C 6.155915178571429 0.5804347826086957  7.519419642857143 0  8.969866071428571 0  C 10.4203125 0  11.783816964285714 0.5782608695652173  12.808035714285715 1.6304347826086958  C 13.832254464285715 2.680434782608696  14.3984375 4.078260869565217  14.3984375 5.565217391304348  C 14.3984375 7.052173913043478  13.834375 8.45  12.808035714285715 9.5  Z M 11.656584821428574 2.8108695652173914  C 10.939843750000003 2.073913043478261  9.98560267857143 1.6695652173913045  8.969866071428571 1.6695652173913045  C 7.954129464285715 1.6695652173913045  6.999888392857143 2.073913043478261  6.283147321428571 2.8108695652173914  C 5.56640625 3.547826086956522  5.169866071428571 4.523913043478261  5.169866071428571 5.565217391304348  C 5.169866071428571 6.606521739130434  5.564285714285715 7.584782608695652  6.283147321428571 8.319565217391304  C 6.999888392857143 9.054347826086957  7.954129464285715 9.460869565217392  8.969866071428571 9.460869565217392  C 9.985602678571428 9.460869565217392  10.93984375 9.056521739130435  11.656584821428574 8.319565217391304  C 12.373325892857144 7.584782608695652  12.769866071428574 6.606521739130434  12.769866071428574 5.565217391304348  C 12.769866071428574 4.523913043478261  12.37544642857143 3.545652173913043  11.656584821428574 2.8108695652173914  Z M 16.118191964285714 19.017391304347825  C 16.118191964285714 19.480434782608693  15.75345982142857 19.852173913043476  15.30390625 19.85217391304348  C 14.854352678571429 19.85217391304348  14.489620535714288 19.47826086956522  14.489620535714288 19.01739130434783  L 14.489620535714288 17.065217391304348  L 12.589620535714285 17.065217391304348  C 12.140066964285715 17.065217391304348  11.775334821428572 16.691304347826087  11.775334821428572 16.230434782608697  C 11.775334821428572 15.769565217391307  12.140066964285717 15.395652173913044  12.589620535714285 15.395652173913044  L 14.489620535714288 15.395652173913044  L 14.489620535714288 13.447826086956523  C 14.489620535714288 12.986956521739131  14.85435267857143 12.61304347826087  15.30390625 12.61304347826087  C 15.75345982142857 12.61304347826087  16.118191964285714 12.986956521739133  16.118191964285714 13.447826086956523  L 16.118191964285714 15.395652173913044  L 18.018191964285716 15.395652173913044  C 18.467745535714286 15.395652173913044  18.83247767857143 15.769565217391307  18.83247767857143 16.230434782608697  C 18.83247767857143 16.691304347826087  18.467745535714286 17.065217391304348  18.018191964285716 17.065217391304348  L 16.118191964285714 17.065217391304348  L 16.118191964285714 19.017391304347825  Z " fill-rule="nonzero" fill="#0066ff" stroke="none" transform="matrix(1 0 0 1 1598 397 )" />
  </g>
</svg>