<?xml version="1.0" encoding="utf-8"?>
<svg version="1.1" xmlns:xlink="http://www.w3.org/1999/xlink" width="34px" height="34px" preserveAspectRatio="xMinYMid meet" viewBox="1081 685  34 32" xmlns="http://www.w3.org/2000/svg">
  <path d="M 985.3946950299855 403.05290828845676  A 5 5 0 0 1 990 400 L 1065 400  A 5 5 0 0 1 1070 405 L 1070 696  A 5 5 0 0 0 1075 701 L 1098 701  " stroke-width="2" stroke="#0066ff" fill="none" />
  <path d="M 986.1757890635776 398.27891156381156  A 3.5 3.5 0 0 0 982.6757890635776 401.77891156381156 A 3.5 3.5 0 0 0 986.1757890635776 405.27891156381156 A 3.5 3.5 0 0 0 989.6757890635776 401.77891156381156 A 3.5 3.5 0 0 0 986.1757890635776 398.27891156381156 Z M 1090.6 709  L 1100 701  L 1090.6 693  L 1094.2 701  L 1090.6 709  Z " fill-rule="nonzero" fill="#0066ff" stroke="none" />
</svg>