<?xml version="1.0" encoding="utf-8"?>
<svg version="1.1" xmlns:xlink="http://www.w3.org/1999/xlink" width="55px" height="10px" preserveAspectRatio="xMinYMid meet" viewBox="1950 403  55 8" xmlns="http://www.w3.org/2000/svg">
  <path d="M 1952 407  L 1995 407  A 5 5 0 0 1 2000 412 L 2000 606  A 5 5 0 0 0 2005 611 L 2048 611  " stroke-width="2" stroke="#0066ff" fill="none" />
  <path d="M 1953.5 403.5  A 3.5 3.5 0 0 0 1950 407 A 3.5 3.5 0 0 0 1953.5 410.5 A 3.5 3.5 0 0 0 1957 407 A 3.5 3.5 0 0 0 1953.5 403.5 Z M 2040.6 619  L 2050 611  L 2040.6 603  L 2044.2 611  L 2040.6 619  Z " fill-rule="nonzero" fill="#0066ff" stroke="none" />
</svg>