<?xml version="1.0" encoding="utf-8"?>
<svg version="1.1" xmlns:xlink="http://www.w3.org/1999/xlink" width="34px" height="34px" preserveAspectRatio="xMinYMid meet" viewBox="1556 595  34 32" xmlns="http://www.w3.org/2000/svg">
  <path d="M 1477 647  L 1520 647  A 5 5 0 0 0 1525 642 L 1525 616  A 5 5 0 0 1 1530 611 L 1573 611  " stroke-width="2" stroke="#0066ff" fill="none" />
  <path d="M 1478.5 643.5  A 3.5 3.5 0 0 0 1475 647 A 3.5 3.5 0 0 0 1478.5 650.5 A 3.5 3.5 0 0 0 1482 647 A 3.5 3.5 0 0 0 1478.5 643.5 Z M 1565.6 619  L 1575 611  L 1565.6 603  L 1569.2 611  L 1565.6 619  Z " fill-rule="nonzero" fill="#0066ff" stroke="none" />
</svg>