<?xml version="1.0" encoding="utf-8"?>
<svg version="1.1" xmlns:xlink="http://www.w3.org/1999/xlink" width="10px" height="281px" preserveAspectRatio="xMidYMin meet" viewBox="3413 335  8 281" xmlns="http://www.w3.org/2000/svg">
  <path d="M 3360 352  L 3360 345  A 5 5 0 0 1 3365 340 L 3412 340  A 5 5 0 0 1 3417 345 L 3417 606  A 5 5 0 0 0 3422 611 L 3473 611  " stroke-width="2" stroke="#0066ff" fill="none" />
  <path d="M 3360 347  A 3.5 3.5 0 0 0 3356.5 350.5 A 3.5 3.5 0 0 0 3360 354 A 3.5 3.5 0 0 0 3363.5 350.5 A 3.5 3.5 0 0 0 3360 347 Z M 3465.6 619  L 3475 611  L 3465.6 603  L 3469.2 611  L 3465.6 619  Z " fill-rule="nonzero" fill="#0066ff" stroke="none" />
</svg>