<?xml version="1.0" encoding="utf-8"?>
<svg version="1.1" xmlns:xlink="http://www.w3.org/1999/xlink" width="10px" height="52px" preserveAspectRatio="xMidYMin meet" viewBox="2171 1345  8 52" xmlns="http://www.w3.org/2000/svg">
  <path d="M 1449 1502  L 1449 1355  A 5 5 0 0 1 1454 1350 L 2170 1350  A 5 5 0 0 1 2175 1355 L 2175 1395  " stroke-width="2" stroke="#0066ff" fill="none" />
  <path d="M 1449 1497  A 3.5 3.5 0 0 0 1445.5 1500.5 A 3.5 3.5 0 0 0 1449 1504 A 3.5 3.5 0 0 0 1452.5 1500.5 A 3.5 3.5 0 0 0 1449 1497 Z M 2167 1387.6  L 2175 1397  L 2183 1387.6  L 2175 1391.2  L 2167 1387.6  Z " fill-rule="nonzero" fill="#0066ff" stroke="none" />
</svg>