<?xml version="1.0" encoding="utf-8"?>
<svg version="1.1" xmlns:xlink="http://www.w3.org/1999/xlink" width="10px" height="27px" preserveAspectRatio="xMidYMin meet" viewBox="1456 1625  8 27" xmlns="http://www.w3.org/2000/svg">
  <path d="M 1460 1650  L 1460 1635  A 5 5 0 0 1 1465 1630 L 1512 1630  A 5 5 0 0 1 1517 1635 L 1517 1853  A 5 5 0 0 0 1522 1858 L 1573 1858  " stroke-width="2" stroke="#0066ff" fill="none" />
  <path d="M 1460 1645  A 3.5 3.5 0 0 0 1456.5 1648.5 A 3.5 3.5 0 0 0 1460 1652 A 3.5 3.5 0 0 0 1463.5 1648.5 A 3.5 3.5 0 0 0 1460 1645 Z M 1565.6 1866  L 1575 1858  L 1565.6 1850  L 1569.2 1858  L 1565.6 1866  Z " fill-rule="nonzero" fill="#0066ff" stroke="none" />
</svg>