<?xml version="1.0" encoding="utf-8"?>
<svg version="1.1" xmlns:xlink="http://www.w3.org/1999/xlink" width="1847px" height="10px" preserveAspectRatio="xMinYMid meet" viewBox="1283 1326  1847 8" xmlns="http://www.w3.org/2000/svg">
  <path d="M 1288 1683  L 1288 1335  A 5 5 0 0 1 1293 1330 L 3120 1330  A 5 5 0 0 1 3125 1335 L 3125 1395  " stroke-width="2" stroke="#0066ff" fill="none" />
  <path d="M 1288 1678  A 3.5 3.5 0 0 0 1284.5 1681.5 A 3.5 3.5 0 0 0 1288 1685 A 3.5 3.5 0 0 0 1291.5 1681.5 A 3.5 3.5 0 0 0 1288 1678 Z M 3117 1387.6  L 3125 1397  L 3133 1387.6  L 3125 1391.2  L 3117 1387.6  Z " fill-rule="nonzero" fill="#0066ff" stroke="none" />
</svg>