<?xml version="1.0" encoding="utf-8"?>
<svg version="1.1" xmlns:xlink="http://www.w3.org/1999/xlink" width="20px" height="20px" xmlns="http://www.w3.org/2000/svg">
  <g transform="matrix(1 0 0 1 -564 -233 )">
    <path d="M 19.9970618359375 10.327541230769231  C 19.97135732421875 8.956634596153846  19.678611640625 7.5892430769230765  19.1388171484375 6.339257442307692  C 18.60045068359375 5.08856875  17.8193194921875 3.9552859230769233  16.8603988671875 3.018851230769231  C 15.90219224609375 2.0817134999999998  14.765482148437501 1.3407208846153849  13.535236230468751 0.8521156923076922  C 12.305704335937499 0.361401423076923  10.983350625 0.12729275  9.67741923828125 0.15541390384615386  C 8.3714878515625 0.1821290192307692  7.070554570312499 0.47107396153846154  5.88172146484375 1.0039699807692308  C 4.69146033203125 1.534756903846154  3.6132993749999995 2.30527675  2.7222100390625 3.2508508076923075  C 1.83112072265625 4.195721865384615  1.127103046875 5.3163501730769225  0.6629940234374999 6.528372249999999  C 0.19674294921875 7.739691307692308  -0.025315371093749997 9.040998076923078  0.0032451953125 10.327541230769231  C 0.0289496875 11.614787423076923  0.30455904296874997 12.894300288461537  0.81150890625 14.064843673076924  C 1.31774474609375 15.235387038461539  2.0510369921875 16.296257865384614  2.9506944921875 17.172232057692305  C 3.8496379687499998 18.049612326923075  4.91494666015625 18.74139290384615  6.066651054687499 19.196955730769233  C 7.217641425781251 19.654627634615384  8.45431345703125 19.871863615384616  9.67741923828125 19.84374246153846  C 10.9012390234375 19.817027346153846  12.1150626171875 19.544955115384614  13.22606822265625 19.04580448076923  C 14.33778783203125 18.547356884615382  15.34526140625 17.826049076923077  16.17637357421875 16.940232480769232  C 17.008199726562502 16.055821942307695  17.66437849609375 15.007605615384616  18.096356894531247 13.875728846153848  C 18.35911400390625 13.1895725  18.53690345703125 12.473185903846156  18.63115328125 11.746956884615384  C 18.65614376953125 11.749065980769231  18.68184826171875 11.749768999999999  18.706838750000003 11.749768999999999  C 19.419424609375 11.749768999999999  19.9970618359375 11.162036711538462  19.9970618359375 10.43721376923077  C 19.9970618359375 10.40065625  19.994919785156252 10.36409875  19.99206373046875 10.327541230769231  L 19.9970618359375 10.327541230769231  Z M 18.5676060546875 11.742035692307693  C 18.441939609374998 12.456313192307693  18.2341615625 13.153014980769232  17.947127988281252 13.813159269230768  C 17.47445080078125 14.904260346153846  16.78899748046875 15.892719192307691  15.948603144531251 16.708232884615384  C 15.108208808593751 17.525152653846156  14.114301484375 18.168424230769233  13.0411386328125 18.59094469230769  C 11.96797576171875 19.014871211538463  10.81841341796875 19.21523448076923  9.67741923828125 19.187113326923075  C 8.53642505859375 19.161101249999998  7.4082831250000005 18.905901711538462  6.3758190625 18.439090423076927  C 5.3426409765625005 17.97438821153846  4.4065687890625 17.301589403846155  3.6347197851562503 16.476233307692308  C 2.8621567578125 15.652283269230768  2.2531029296875 14.676478942307693  1.85468318359375 13.62474748076923  C 1.45412138671875 12.573016019230769  1.2656217382812502 11.446060461538464  1.2927542578125002 10.327541230769231  C 1.3191727734375 9.209022019230769  1.5612234765625 8.104563384615384  2.0031980664062496 7.093607596153846  C 2.44374462890625 6.082651826923077  3.0813590234375 5.166604980769231  3.86249021484375 4.4108487499999995  C 4.6429073828125 3.6550925192307693  5.56612732421875 3.0603299423076926  6.56074865234375 2.670851846153846  C 7.55537 2.279967692307692  8.6192506640625 2.0964771153846153  9.67741923828125 2.1245982692307694  C 10.7355878125 2.1513133846153845  11.77804806640625 2.389640230769231  12.73197060546875 2.822706115384616  C 13.686607167968749 3.2543659615384617  14.55127796875 3.87865575  15.263863828125 4.642848326923077  C 15.97787771484375 5.407040903846154  16.53837859375 6.310433250000001  16.90466771484375 7.282019384615385  C 17.27238486328125 8.254308557692307  17.44446220703125 9.293385500000001  17.4173296875 10.327541230769231  L 17.42161376953125 10.327541230769231  C 17.41875771484375 10.36409875  17.4173296875 10.39995323076923  17.4173296875 10.43721376923077  C 17.4173296875 11.114230749999997  17.920709472656252 11.671029749999999  18.5676060546875 11.742035692307693  Z " fill-rule="nonzero" fill="#555555" stroke="none" transform="matrix(1 0 0 1 564 233 )" />
  </g>
</svg>