<?xml version="1.0" encoding="utf-8"?>
<svg version="1.1" xmlns:xlink="http://www.w3.org/1999/xlink" width="20px" height="18px" xmlns="http://www.w3.org/2000/svg">
  <g transform="matrix(1 0 0 1 -1479 -955 )">
    <path d="M 19.96541538311853 16.945511117981475  C 19.96541538311853 17.45971288526337  19.528414371162647 17.87866220785851  18.99273570173477 17.878662207648038  L 1.1843222460161142 17.878662207648038  C 0.6511549293199269 17.881798475458282  0.21582926151753928 17.464519686385486  0.21081333085589768 16.945511117981475  C 0.21081333085589768 16.52171844351013  0.5126508510599482 16.17784097680887  0.9164829115183872 16.06402235894543  C 0.6498398120468496 15.987138040744334  0.4185157362907835 15.82323617809609  0.26139600160808135 15.599868490050243  C 0.03797783101286785 15.276876123594183  0.00010977107494276647 14.864981016820911  0.16105989409638355 14.508501470337821  L 1.9380868129659978 10.484489208876544  C 1.9773218913269601 10.389436614934585  2.037632319383103 10.303989612240423  2.114711507927231 10.234249718416308  L 11.816631672573099 0.9301844439354656  C 12.360466674961101 0.4087270383897687  13.094010927817823 0.11769691838416983  13.857351809165387 0.12053864010377656  C 14.625213176696338 0.12053864010377656  15.349125692228174 0.4079104242983214  15.894755027516428 0.9293772274978539  C 16.43529016074922 1.4446371943884793  16.739356464823423 2.15043675278149  16.738075783963108 2.8868957341801114  C 16.73880388633846 3.622065452833968  16.434736643470806 4.326411923779846  15.894755027516428 4.840378105634262  L 6.187859530048479 14.148479515132735  C 6.113623351760684 14.220030607606326  6.025355659220506 14.276307955445535  5.928312446830289 14.313960463626696  L 1.7805342697859832 16  L 18.99273570173477 16  C 19.528414370730225 16.01236002789396  19.96541538311853 16.430502116581952  19.96541538311853 16.945511117981475  Z M 14.86402967625547 3.5972529583074193  C 15.023240669907603 3.392218031616757  15.113626075667643 3.1468218930327225  15.113626075667641 2.8868957339696344  C 15.113700580133386 2.566021051392152  14.980281501471907 2.2587951337866774  14.743792201347947 2.035274267689328  C 14.3042305279152 1.6110623264353783  13.612760755536053 1.5617341104587388  13.11436714228476 1.9190340003025592  L 14.86402967625547 3.5972529583074193  Z M 5.731786366743803 12.378236996292548  L 13.726334416459181 4.71283670183034  L 11.950965947845473 3.00959380336689  L 3.9564178979138838 10.674994097829098  L 5.731786366743803 12.378236996292548  Z M 2.0616411883853316 14.198527413308975  L 4.351128490829547 13.26295463875907  L 3.0351500860323304 12.000456119497926  L 2.0616411883853316 14.198527413308975  Z " fill-rule="nonzero" fill="#000000" stroke="none" transform="matrix(1 0 0 1 1479 955 )" />
  </g>
</svg>