<?xml version="1.0" encoding="utf-8"?>
<svg version="1.1" xmlns:xlink="http://www.w3.org/1999/xlink" width="10px" height="5px" xmlns="http://www.w3.org/2000/svg">
  <g transform="matrix(1 0 0 1 -1352 -966 )">
    <path d="M 9.8 0.19999999999999962  C 9.666666666666666 0.08571428571428619  9.533333333333333 0.028571428571427804  9.333333333333334 0.028571428571428914  C 9.133333333333333 0.028571428571428914  9 0.08571428571428619  8.866666666666667 0.20000000000000073  L 5.000000000000001 3.5142857142857142  L 1.133333333333334 0.20000000000000073  C 0.8666666666666669 -0.028571428571427804  0.46666666666666734 -0.028571428571427804  0.20000000000000046 0.20000000000000073  C -0.06666666666666642 0.4285714285714298  -0.06666666666666642 0.7714285714285724  0.20000000000000046 1.0000000000000009  L 4.533333333333334 4.714285714285714  C 4.800000000000002 4.942857142857143  5.200000000000001 4.942857142857143  5.466666666666667 4.714285714285714  L 9.8 0.9999999999999998  C 10.066666666666666 0.7714285714285712  10.066666666666666 0.4285714285714287  9.8 0.19999999999999962  Z " fill-rule="nonzero" fill="#000000" stroke="none" transform="matrix(1 0 0 1 1352 966 )" />
  </g>
</svg>