<?xml version="1.0" encoding="utf-8"?>
<svg version="1.1" xmlns:xlink="http://www.w3.org/1999/xlink" width="20px" height="16px" xmlns="http://www.w3.org/2000/svg">
  <g transform="matrix(1 0 0 1 -1590 -955 )">
    <path d="M 19.875 8.289473684210524  C 20.041666666666668 8.139473684210522  20.041666666666668 7.873684210526313  19.872395833333336 7.726315789473685  L 11.226562500000002 0.19736842105263158  C 10.986979166666666 -0.010526315789473833  10.61979166666667 0.16052631578947354  10.61979166666667 0.47894736842105234  L 10.61979166666667 4.894736842105263  C 10.61979166666667 5.092105263157895  10.466145833333336 5.257894736842106  10.270833333333336 5.265789473684211  C 5.265625000000003 5.447368421052632  1.0572916666666687 9.118421052631579  0.17187500000000205 14.152631578947368  L 0.007812500000001776 15.086842105263157  C -0.057291666666664895 15.449999999999998  0.3854166666666684 15.676315789473682  0.6380208333333348 15.407894736842104  L 1.2838541666666683 14.718421052631578  C 3.619791666666668 12.221052631578948  6.864583333333335 10.818421052631576  10.252604166666668 10.831578947368419  C 10.455729166666668 10.831578947368419  10.622395833333336 10.997368421052627  10.622395833333336 11.202631578947367  L 10.622395833333336 15.523684210526312  C 10.622395833333336 15.842105263157892  10.992187500000004 16.01315789473684  11.229166666666668 15.805263157894734  L 19.875 8.289473684210524  Z M 10.744791666666666 9.528947368421052  C 7.611979166666667 9.40263157894737  4.559895833333334 10.376315789473686  2.0859375000000004 12.242105263157896  C 3.544270833333334 8.850000000000001  6.867187500000002 6.565789473684212  10.6640625 6.565789473684212  L 11.549479166666668 6.565789473684212  C 11.752604166666664 6.565789473684212  11.916666666666666 6.400000000000001  11.916666666666666 6.194736842105264  L 11.916666666666666 2.5289473684210533  L 18.205729166666668 8.007894736842104  L 11.916666666666666 13.473684210526315  L 11.916666666666666 9.9  C 11.916666666666666 9.694736842105266  11.75260416666667 9.528947368421052  11.549479166666668 9.528947368421052  L 10.744791666666666 9.528947368421052  Z " fill-rule="nonzero" fill="#000000" stroke="none" transform="matrix(1 0 0 1 1590 955 )" />
  </g>
</svg>