<?xml version="1.0" encoding="utf-8"?>
<svg version="1.1" xmlns:xlink="http://www.w3.org/1999/xlink" width="18px" height="6px" xmlns="http://www.w3.org/2000/svg">
  <g transform="matrix(1 0 0 1 -1347 -968 )">
    <path d="M 17.90442477876106 4.009756097560975  C 17.84070796460177 5.063414634146341  16.94867256637168 5.941463414634145  15.801769911504424 6  L 2.0389380530973455 6  C 0.9557522123893805 5.941463414634145  0 5.063414634146341  0 4.009756097560975  L 0 0.6731707317073162  C 0 0.32195121951219347  0.2548672566371681 0.08780487804877966  0.6371681415929203 0.08780487804877966  C 1.0194690265486728 0.08780487804877966  1.2743362831858407 0.32195121951219347  1.2743362831858407 0.6731707317073162  L 1.2743362831858407 4.009756097560975  C 1.2743362831858407 4.41951219512195  1.592920353982301 4.770731707317072  2.0389380530973455 4.770731707317072  L 15.865486725663715 4.770731707317072  C 16.24778761061947 4.770731707317072  16.63008849557522 4.41951219512195  16.63008849557522 4.009756097560975  L 16.63008849557522 0.6731707317073162  C 16.63008849557522 0.32195121951219347  16.884955752212388 0.08780487804877966  17.267256637168142 0.08780487804877966  C 17.649557522123892 0.08780487804877966  17.90442477876106 0.32195121951219347  17.90442477876106 0.6731707317073162  L 17.90442477876106 4.009756097560975  Z " fill-rule="nonzero" fill="#000000" stroke="none" transform="matrix(1 0 0 1 1347 968 )" />
  </g>
</svg>