<?xml version="1.0" encoding="utf-8"?>
<svg version="1.1" xmlns:xlink="http://www.w3.org/1999/xlink" width="20px" height="16px" xmlns="http://www.w3.org/2000/svg">
  <g transform="matrix(1 0 0 1 -1615 -1412 )">
    <path d="M 0.1489818849206349 1.0026666599999998  C 0.1489818849206349 1.5508686799999998  0.6020201984126985 1.9956363599999998  1.1604938293650793 2  L 18.83950617063492 2  C 19.399005932539684 1.9956363599999998  19.851018115079363 1.5508686799999998  19.851018115079363 1.0026666599999998  C 19.851018115079363 0.45472321999999965  19.39926246031746 0.00969695999999999  18.83950617063492 0  L 1.1604938293650793 0  C 0.6020201984126985 0.00969695999999999  0.1489818849206349 0.4544646399999999  0.1489818849206349 1.0026666599999998  Z M 19.851018115079363 7.953454540000001  C 19.850761587301587 7.405252520000001  19.396184067460318 6.960484840000001  18.83924964285714 7  L 1.1604938293650793 7  C 0.6007375396825397 6.96048484  0.1489818849206349 7.40525252  0.1489818849206349 7.95345454  C 0.1489818849206349 8.50165656  0.6007375396825397 8.94642424  1.1604938293650793 9  L 18.83950617063492 9  C 19.399005932539684 8.94642424  19.851018115079363 8.50165656  19.851018115079363 7.953454540000001  Z M 19.851018115079363 14.98621414  C 19.850761587301587 14.4382707  19.39900593253968 13.993244439999998  18.83924964285714 14  L 1.1604938293650793 14  C 0.602276746031746 13.993244439999998  0.14898188492063497 14.438012119999998  0.14898188492063497 14.98621414  C 0.14898188492063497 15.534416160000001  0.6020201984126985 15.979183840000001  1.1604938293650793 16  L 18.83950617063492 16  C 19.399005932539684 15.979183840000001  19.851018115079363 15.534416160000001  19.851018115079363 14.98621414  Z " fill-rule="nonzero" fill="#000000" stroke="none" transform="matrix(1 0 0 1 1615 1412 )" />
  </g>
</svg>