<?xml version="1.0" encoding="utf-8"?>
<svg version="1.1" xmlns:xlink="http://www.w3.org/1999/xlink" width="25px" height="20px" xmlns="http://www.w3.org/2000/svg">
  <g transform="matrix(1 0 0 1 -2565 -1410 )">
    <path d="M 0.18622735615079364 1.2533333249999998  C 0.18622735615079364 1.9385858499999997  0.7525252480158731 2.4945454499999995  1.4506172867063492 2.4945454499999995  L 23.54938271329365 2.4945454499999995  C 24.248757415674604 2.4945454499999995  24.813772643849205 1.9385858499999997  24.813772643849205 1.2533333249999998  C 24.813772643849205 0.5684040249999995  24.249078075396824 0.012121199999999988  23.54938271329365 0  L 1.4506172867063492 0  C 0.7525252480158731 0.012121199999999988  0.18622735615079364 0.5680807999999999  0.18622735615079364 1.2533333249999998  Z M 24.813772643849205 9.941818175000002  C 24.81345198412698 9.256565650000002  24.2452300843254 8.700606050000001  23.549062053571426 9  L 1.4506172867063492 9  C 0.7509219246031746 8.700606050000001  0.18622735615079364 9.25656565  0.18622735615079364 9.941818175  C 0.18622735615079364 10.6270707  0.7509219246031746 11.1830303  1.4506172867063492 11  L 23.54938271329365 11  C 24.248757415674604 11.1830303  24.813772643849205 10.6270707  24.813772643849205 9.941818175000002  Z M 24.813772643849205 18.732767674999998  C 24.81345198412698 18.047838375  24.2487574156746 17.491555549999998  23.549062053571426 17.491555549999998  L 1.4506172867063492 17.491555549999998  C 0.7528459325396826 17.491555549999998  0.1862273561507937 18.04751515  0.1862273561507937 18.732767674999998  C 0.1862273561507937 19.4180202  0.7525252480158731 19.973979800000002  1.4506172867063492 20  L 23.54938271329365 20  C 24.248757415674604 19.973979800000002  24.813772643849205 19.4180202  24.813772643849205 18.732767674999998  Z " fill-rule="nonzero" fill="#000000" stroke="none" transform="matrix(1 0 0 1 2565 1410 )" />
  </g>
</svg>