<?xml version="1.0" encoding="utf-8"?>
<svg version="1.1" xmlns:xlink="http://www.w3.org/1999/xlink" width="10px" height="15px" preserveAspectRatio="xMidYMin meet" viewBox="1636 246  8 15" xmlns="http://www.w3.org/2000/svg">
  <path d="M 1640 248  L 1640 251  A 5 5 0 0 0 1645 256 L 1925 256  A 5 5 0 0 1 1930 261 L 1930 595  A 5 5 0 0 0 1935 600 L 2228 600  " stroke-width="2" stroke="#0066ff" fill="none" />
  <path d="M 1640 246  A 3.5 3.5 0 0 0 1636.5 249.5 A 3.5 3.5 0 0 0 1640 253 A 3.5 3.5 0 0 0 1643.5 249.5 A 3.5 3.5 0 0 0 1640 246 Z M 2220.6 608  L 2230 600  L 2220.6 592  L 2224.2 600  L 2220.6 608  Z " fill-rule="nonzero" fill="#0066ff" stroke="none" />
</svg>