<?xml version="1.0" encoding="utf-8"?>
<svg version="1.1" xmlns:xlink="http://www.w3.org/1999/xlink" width="19px" height="20px" xmlns="http://www.w3.org/2000/svg">
  <g transform="matrix(1 0 0 1 -1621 -1355 )">
    <path d="M 5.846153846153847 5.185185185185185  C 5.846153846153847 7.222222222222222  7.490384615384615 8.88888888888889  9.5 8.88888888888889  C 11.509615384615383 8.88888888888889  13.153846153846153 7.222222222222222  13.153846153846153 5.185185185185185  C 13.153846153846153 3.1481481481481484  11.509615384615383 1.4814814814814814  9.5 1.4814814814814814  C 7.490384615384615 1.4814814814814814  5.846153846153847 3.1481481481481484  5.846153846153847 5.185185185185185  Z M 12.423076923076923 15.555555555555555  L 14.615384615384617 15.555555555555555  L 14.615384615384617 13.333333333333332  C 14.615384615384617 12.925925925925926  14.944230769230769 12.592592592592593  15.346153846153847 12.592592592592593  C 15.748076923076924 12.592592592592593  16.076923076923077 12.925925925925926  16.076923076923077 13.333333333333332  L 16.076923076923077 15.555555555555555  L 18.26923076923077 15.555555555555555  C 18.671153846153846 15.555555555555555  19 15.888888888888888  19 16.296296296296294  C 19 16.703703703703706  18.671153846153846 17.037037037037038  18.26923076923077 17.037037037037038  L 16.076923076923077 17.037037037037038  L 16.076923076923077 19.25925925925926  C 16.076923076923077 19.666666666666668  15.748076923076924 20  15.346153846153847 20  C 14.944230769230769 20  14.615384615384617 19.666666666666668  14.615384615384617 19.25925925925926  L 14.615384615384617 17.037037037037038  L 12.423076923076923 17.037037037037038  C 12.021153846153846 17.037037037037038  11.692307692307693 16.703703703703706  11.692307692307693 16.296296296296294  C 11.692307692307693 15.888888888888888  12.021153846153846 15.555555555555555  12.423076923076923 15.555555555555555  Z M 12.678846153846155 9.25925925925926  C 13.226923076923079 9.407407407407407  13.775000000000002 9.62962962962963  14.25 9.888888888888888  C 14.469230769230771 10.037037037037038  14.615384615384617 10.259259259259261  14.615384615384617 10.518518518518519  C 14.615384615384617 10.925925925925926  14.286538461538461 11.259259259259258  13.884615384615383 11.259259259259258  C 13.738461538461538 11.259259259259258  13.628846153846151 11.22222222222222  13.51923076923077 11.148148148148149  C 12.532692307692308 10.629629629629632  11.436538461538461 10.37037037037037  10.23076923076923 10.37037037037037  L 8.76923076923077 10.37037037037037  C 4.75 10.37037037037037  1.4615384615384617 13.703703703703704  1.4615384615384617 17.77777777777778  C 1.4615384615384617 18.185185185185187  1.7903846153846157 18.51851851851852  2.1923076923076925 18.51851851851852  L 10.96153846153846 18.51851851851852  C 11.363461538461538 18.51851851851852  11.692307692307693 18.85185185185185  11.692307692307693 19.25925925925926  C 11.692307692307693 19.666666666666668  11.363461538461538 20  10.96153846153846 20  L 2.1923076923076925 20  C 0.9865384615384614 20  0 19  0 17.77777777777778  C 0 13.740740740740742  2.667307692307692 10.333333333333332  6.321153846153847 9.25925925925926  C 5.151923076923078 8.296296296296296  4.384615384615385 6.851851851851852  4.384615384615385 5.185185185185185  C 4.384615384615385 2.3333333333333335  6.686538461538462 0  9.5 0  C 12.313461538461539 0  14.615384615384617 2.3333333333333335  14.615384615384617 5.185185185185185  C 14.615384615384617 6.814814814814815  13.848076923076922 8.296296296296296  12.678846153846155 9.25925925925926  Z " fill-rule="nonzero" fill="#555555" stroke="none" transform="matrix(1 0 0 1 1621 1355 )" />
  </g>
</svg>