<?xml version="1.0" encoding="utf-8"?>
<svg version="1.1" xmlns:xlink="http://www.w3.org/1999/xlink" width="20px" height="21px" preserveAspectRatio="xMidYMin meet" viewBox="1626 1406  18 21" xmlns="http://www.w3.org/2000/svg">
  <path d="M 1637 1420  L 1755 1420  A 5 5 0 0 1 1760 1425 L 1760 1712  A 5 5 0 0 0 1765 1717 L 2228 1717  " stroke-width="2" stroke="#0066ff" fill="none" />
  <path d="M 1638.5 1416.5  A 3.5 3.5 0 0 0 1635 1420 A 3.5 3.5 0 0 0 1638.5 1423.5 A 3.5 3.5 0 0 0 1642 1420 A 3.5 3.5 0 0 0 1638.5 1416.5 Z M 2220.6 1725  L 2230 1717  L 2220.6 1709  L 2224.2 1717  L 2220.6 1725  Z " fill-rule="nonzero" fill="#0066ff" stroke="none" />
</svg>