<?xml version="1.0" encoding="utf-8"?>
<svg version="1.1" xmlns:xlink="http://www.w3.org/1999/xlink" width="88px" height="80px" xmlns="http://www.w3.org/2000/svg">
  <g transform="matrix(1 0 0 1 -869 -513 )">
    <path d="M 87 29.304822429906544  C 87.53225762711864 22.44306542056075  81.9670779661017 16.86370093457944  75.1227661016949 16.86370093457944  L 66.98977627118644 16.86370093457944  L 51.78337627118645 3.3028785046728975  C 47.24436610169492 -0.7452710280373833  40.385735593220346 -0.7596261682242991  35.82763389830509 3.2693831775700932  L 20.45418305084746 16.86370093457944  L 12.507335593220338 16.86370093457944  C 5.66302372881356 16.86370093457944  0.09784406779661 22.44306542056075  0 29.304822429906544  L 0 67.14018691588785  C 0.09784406779661 74.00194392523363  5.663023728813559 79.58130841121495  12.507335593220338 79  L 75.1227661016949 79  C 81.9670779661017 79.58130841121495  87.53225762711864 74.00194392523363  87 67.14018691588785  L 87 29.304822429906544  Z M 29.116962711864407 17  L 39.61730169491525 7.575925233644859  C 42.003742372881355 5.465719626168225  45.59772203389829 5.4752897196261685  47.97938983050848 7.595065420560748  L 58.374725423728805 17  L 29.116962711864407 17  Z M 81 29.304822429906544  L 81 67.14018691588785  C 81.80480000000001 70.8342429906542  78.80743050847458 73.8392523364486  75.1227661016949 73  L 12.507335593220338 73  C 8.822671186440678 73.8392523364486  5.825301694915254 70.8342429906542  6 67.14018691588784  L 6 29.304822429906544  C 5.825301694915254 25.610766355140186  8.822671186440676 22.605757009345794  12.507335593220338 23  L 75.1227661016949 23  C 78.80743050847458 22.605757009345794  81.80480000000001 25.610766355140186  81 29.304822429906544  Z " fill-rule="nonzero" fill="#303135" stroke="none" transform="matrix(1 0 0 1 869 513 )" />
  </g>
</svg>