<?xml version="1.0" encoding="utf-8"?>
<svg version="1.1" xmlns:xlink="http://www.w3.org/1999/xlink" width="52px" height="24px" xmlns="http://www.w3.org/2000/svg">
  <g transform="matrix(1 0 0 1 -887 -549 )">
    <path d="M 51.51888695652175 3.6059999999999945  C 51.51888695652175 5.194800000000001  50.22144927536233 6.485999999999997  48.620150724637675 6.485999999999997  L 2.987965217391302 6.485999999999997  C 1.3914898550724604 6.485999999999997  0.09405217391304115 5.194800000000001  0.09405217391304115 3.6059999999999945  C 0.09405217391304115 2.0171999999999883  1.3914898550724604 0.725999999999992  2.987965217391302 1  L 48.62497391304348 1  C 50.22144927536232 0.725999999999992  51.51888695652175 2.0171999999999937  51.51888695652175 3.6059999999999945  Z M 37.88373333333333 20.425199999999997  C 37.88373333333333 22.014000000000003  36.586295652173916 23.3052  34.98982028985507 23  L 2.987965217391302 23  C 1.3914898550724604 23.3052  0.09405217391304115 22.014000000000003  0.09405217391304115 20.425199999999997  C 0.09405217391304115 18.83639999999999  1.3914898550724604 17.545199999999994  2.987965217391302 17.545199999999994  L 34.98982028985507 17.545199999999994  C 36.5862956521739 17.545199999999994  37.88373333333333 18.83639999999999  37.88373333333333 20.425199999999997  Z " fill-rule="nonzero" fill="#ff623e" stroke="none" transform="matrix(1 0 0 1 887 549 )" />
  </g>
</svg>