<?xml version="1.0" encoding="utf-8"?>
<svg version="1.1" xmlns:xlink="http://www.w3.org/1999/xlink" width="24px" height="24px" xmlns="http://www.w3.org/2000/svg">
  <g transform="matrix(1 0 0 1 -1945 -2121 )">
    <path d="M 23.25 12  C 23.25 13.035  22.41 13.875  21.375 13.875  L 13.875 13.875  L 13.875 21.375  C 13.875 22.41  13.035 23.25  12 23.25  C 10.963125 23.25  10.125 22.41  10.125 21.375  L 10.125 13.875  L 2.625 13.875  C 1.5881249999999998 13.875  0.75 13.035  0.75 12  C 0.75 10.965  1.5881249999999998 10.125  2.625 10.125  L 10.125 10.125  L 10.125 2.625  C 10.125 1.5899999999999999  10.963125 0.75  12 0.75  C 13.035 0.75  13.875 1.5899999999999999  13.875 2.625  L 13.875 10.125  L 21.375 10.125  C 22.41 10.125  23.25 10.965  23.25 12  Z " fill-rule="nonzero" fill="#ffffff" stroke="none" transform="matrix(1 0 0 1 1945 2121 )" />
  </g>
</svg>