<?xml version="1.0" encoding="utf-8"?>
<svg version="1.1" xmlns:xlink="http://www.w3.org/1999/xlink" width="21px" height="20px" preserveAspectRatio="xMinYMid meet" viewBox="618 518  21 18" xmlns="http://www.w3.org/2000/svg">
  <path d="M 627 527  L 670 527  A 5 5 0 0 1 675 532 L 675 633  A 5 5 0 0 0 680 638 L 723 638  " stroke-width="2" stroke="#0066ff" fill="none" />
  <path d="M 628.5 523.5  A 3.5 3.5 0 0 0 625 527 A 3.5 3.5 0 0 0 628.5 530.5 A 3.5 3.5 0 0 0 632 527 A 3.5 3.5 0 0 0 628.5 523.5 Z M 715.6 646  L 725 638  L 715.6 630  L 719.2 638  L 715.6 646  Z " fill-rule="nonzero" fill="#0066ff" stroke="none" />
</svg>