<?xml version="1.0" encoding="utf-8"?>
<svg version="1.1" xmlns:xlink="http://www.w3.org/1999/xlink" width="20px" height="10px" preserveAspectRatio="xMinYMid meet" viewBox="705 1698  20 8" xmlns="http://www.w3.org/2000/svg">
  <path d="M 723 1702  L 715 1702  A 5 5 0 0 0 710 1707 L 710 2734  A 5 5 0 0 0 715 2739 L 792 2739  A 3 3 0 0 1 795 2736 A 3 3 0 0 1 798 2739 L 1673 2739  " stroke-width="2" stroke="#0066ff" fill="none" />
  <path d="M 721.5 1698.5  A 3.5 3.5 0 0 0 718 1702 A 3.5 3.5 0 0 0 721.5 1705.5 A 3.5 3.5 0 0 0 725 1702 A 3.5 3.5 0 0 0 721.5 1698.5 Z M 1665.6 2747  L 1675 2739  L 1665.6 2731  L 1669.2 2739  L 1665.6 2747  Z " fill-rule="nonzero" fill="#0066ff" stroke="none" />
</svg>