<?xml version="1.0" encoding="utf-8"?>
<svg version="1.1" xmlns:xlink="http://www.w3.org/1999/xlink" width="16px" height="16px" xmlns="http://www.w3.org/2000/svg">
  <g transform="matrix(1 0 0 1 -272 -2074 )">
    <path d="M 280 2074  C 284.48 2074  288 2077.52  288 2082  C 288 2086.48  284.48 2090  280 2090  C 275.52 2090  272 2086.48  272 2082  C 272 2077.52  275.52 2074  280 2074  Z " fill-rule="nonzero" fill="#555555" stroke="none" />
    <path d="M 280 2074.5  C 284.2 2074.5  287.5 2077.8  287.5 2082  C 287.5 2086.2  284.2 2089.5  280 2089.5  C 275.8 2089.5  272.5 2086.2  272.5 2082  C 272.5 2077.8  275.8 2074.5  280 2074.5  Z " stroke-width="1" stroke="#797979" fill="none" />
  </g>
</svg>