<?xml version="1.0" encoding="utf-8"?>
<svg version="1.1" xmlns:xlink="http://www.w3.org/1999/xlink" width="378px" height="10px" preserveAspectRatio="xMinYMid meet" viewBox="297 2053  378 8" xmlns="http://www.w3.org/2000/svg">
  <path d="M 302 2065  L 302 2062  A 5 5 0 0 1 307 2057 L 665 2057  A 5 5 0 0 0 670 2052 L 670 1337  A 5 5 0 0 1 675 1332 L 723 1332  " stroke-width="2" stroke="#0066ff" fill="none" />
  <path d="M 302 2060  A 3.5 3.5 0 0 0 298.5 2063.5 A 3.5 3.5 0 0 0 302 2067 A 3.5 3.5 0 0 0 305.5 2063.5 A 3.5 3.5 0 0 0 302 2060 Z M 715.6 1340  L 725 1332  L 715.6 1324  L 719.2 1332  L 715.6 1340  Z " fill-rule="nonzero" fill="#0066ff" stroke="none" />
</svg>