<?xml version="1.0" encoding="utf-8"?>
<svg version="1.1" xmlns:xlink="http://www.w3.org/1999/xlink" width="14px" height="14px" xmlns="http://www.w3.org/2000/svg">
  <g transform="matrix(1 0 0 1 -2023 -332 )">
    <path d="M 13.971814159292034 6.992796875  C 13.971814159292034 3.1312499999999996  10.869126106194692 0.000843750000000032  7.041736725663717 0.000843750000000032  C 3.214362831858407 0.000843750000000032  0.11165929203539826 3.1312499999999996  0.11165929203539826 6.992796875  C 0.11165929203539826 10.85434375  3.214347345132744 13.98475  7.041736725663717 13.98475  C 10.869126106194692 13.98475  13.971814159292034 10.85434375  13.971814159292034 6.992796875  Z M 4.077685840707964 5.394953125  L 4.077685840707964 7.529078125  L 3.142318584070796 7.529078125  L 3.142318584070796 5.394953125  L 4.077685840707964 5.394953125  Z M 7.1935066371681415 10.176156250000002  C 7.472143805309734 10.486875000000001  7.379285398230089 10.728578125000002  7.379285398230089 10.728578125  C 7.247261061946903 11.093609375  6.37216814159292 11.054125  6.37216814159292 11.054125  C 5.365112831858407 9.74209375  5.228194690265487 8.489281250000001  5.228194690265487 8.489281250000001  L 6.181511061946903 8.489265625000002  C 6.3111814159292035 9.357359375000001  7.104318584070796 10.033312500000001  7.1935066371681415 10.176156250000002  Z M 9.599570796460176 9.48640625  C 9.599570796460176 9.48640625  8.480081858407079 8.02153125  4.623019911504424 7.84390625  L 4.622028761061945 5.1105  C 4.622028761061945 5.1105  7.877973451327431 4.99046875  9.585849557522124 2.93859375  C 9.585849557522124 2.938578125  11.046634955752213 2.5861875  10.935161504424778 6.4505156249999995  C 10.935099557522124 6.450531249999999  11.09058628318584 9.111546875  9.599601769911501 9.48640625  Z " fill-rule="nonzero" fill="#f59a23" stroke="none" transform="matrix(1 0 0 1 2023 332 )" />
  </g>
</svg>