<?xml version="1.0" encoding="utf-8"?>
<svg version="1.1" xmlns:xlink="http://www.w3.org/1999/xlink" width="1px" height="1px" xmlns="http://www.w3.org/2000/svg">
  <g transform="matrix(1 0 0 1 -2196 -393 )">
    <path d="M 0.35823746031746034 0.22180740740740743  C 0.3270603174603175 0.23310222222222224  0.340368253968254 0.29031111111111113  0.3717384126984127 0.2789392592592592  C 0.5723885714285714 0.20617481481481478  0.7730996825396825 0.13340444444444444  0.9738107936507936 0.060634074074074056  L 0.941663492063492 0.03206518518518516  L 0.941663492063492 0.8126103703703703  L 0.9738107936507936 0.7840414814814813  C 0.7745574603174603 0.7225777777777777  0.5753092063492062 0.6611140740740739  0.3761269841269841 0.5996503703703703  C 0.34442158730158723 0.5898725925925925  0.33098666666666665 0.647034074074074  0.3626260317460317 0.656794074074074  C 0.5618082539682538 0.7182577777777778  0.7610615873015872 0.7797214814814815  0.9603098412698412 0.841185185185185  C 0.9762590476190476 0.8461037037037036  0.9924571428571428 0.8320237037037036  0.9924571428571428 0.8126162962962961  L 0.9924571428571428 0.03207111111111111  C 0.9924571428571428 0.013285925925925923  0.9761726984126984 -0.0022518518518518504  0.9603098412698412 0.0035022222222222212  C 0.7595936507936508 0.07626666666666665  0.558887619047619 0.14903703703703705  0.35823746031746034 0.22180740740740743  Z M 0.4059479365079365 0.6295466666666668  C 0.42956190476190476 0.6029866666666668  0.3936050793650794 0.5611259259259261  0.37003174603174604 0.5876503703703704  C 0.31322920634920637 0.6515555555555556  0.2292114285714286 0.6698903703703704  0.15731301587301588 0.6303940740740741  C 0.09454222222222225 0.5959170370370371  0.05447111111111112 0.5218962962962963  0.051067936507936534 0.4418192592592593  C 0.04759873015873018 0.3602785185185186  0.0861409523809524 0.28490074074074084  0.1454577777777778 0.24386962962962966  C 0.21558349206349206 0.19536592592592597  0.30628063492063495 0.21134222222222226  0.3655263492063492 0.27416296296296294  C 0.389704126984127 0.2997985185185185  0.4257320634920635 0.2580088888888889  0.4014425396825397 0.2322607407407407  C 0.3267453968253968 0.15306666666666666  0.2227657142857143 0.1353185185185185  0.13167238095238096 0.18536296296296298  C 0.050539682539682544 0.22993185185185183  0.0016 0.33093333333333336  0.00014730158730158659 0.43346962962962965  C -0.0013307936507936512 0.5376592592592593  0.05312 0.634797037037037  0.13167238095238096 0.6815585185185186  C 0.22266920634920634 0.7357333333333335  0.3334806349206349 0.7110696296296297  0.4059479365079365 0.6295466666666668  Z M 0.3439746031746032 0.46895407407407413  C 0.3439746031746032 0.5071644444444444  0.394768253968254 0.5071644444444444  0.394768253968254 0.468954074074074  L 0.394768253968254 0.24318222222222222  C 0.394768253968254 0.20496592592592594  0.3439746031746032 0.20496592592592594  0.3439746031746032 0.24318222222222222  L 0.3439746031746032 0.46895407407407413  Z M 0.418712380952381 0.6450548148148149  C 0.418712380952381 0.6068385185185186  0.3679187301587302 0.6068385185185186  0.36791873015873017 0.6450548148148149  L 0.36791873015873017 0.8301096296296295  C 0.36791873015873017 0.8434488888888888  0.37569523809523814 0.8549688888888888  0.3865650793650794 0.8586785185185185  C 0.5177853968253968 0.9034607407407407  0.6490260317460317 0.948242962962963  0.7802920634920635 0.9930251851851851  C 0.7961955555555555 0.9984533333333333  0.8124393650793651 0.9834903703703703  0.8124393650793651 0.9644562962962963  L 0.8124393650793651 0.7548088888888889  C 0.8124393650793651 0.7165985185185184  0.7616457142857143 0.7165985185185184  0.7616457142857143 0.7548088888888889  L 0.7616457142857143 0.9644562962962963  L 0.7937930158730159 0.9358874074074072  C 0.6625480877312364 0.8911155635894509  0.531305756613099 0.8463333403177077  0.4000660317460318 0.8015407407407407  L 0.418712380952381 0.8301096296296295  L 0.418712380952381 0.6450548148148149  Z " fill-rule="nonzero" fill="#f59a23" stroke="none" transform="matrix(1 0 0 1 2196 393 )" />
  </g>
</svg>