<?xml version="1.0" encoding="utf-8"?>
<svg version="1.1" xmlns:xlink="http://www.w3.org/1999/xlink" width="18px" height="18px" xmlns="http://www.w3.org/2000/svg">
  <g transform="matrix(1 0 0 1 -2023 -396 )">
    <path d="M 17.933627571428573 9.015233102678572  C 17.933627571428573 13.942534680803572  13.93476394419643 17.93763628794643  9.001624037946428 17.93763628794643  C 4.068936401785714 17.93763628794643  0.07149123883928446 13.942514129464286  0.07149123883928446 9.015233102678572  C 0.07149123883928446 5.233127665178571  2.42559116517857 2.0019012790178583  5.750230761160712 0.7033462834821438  C 6.754751979910712 0.29811702455357225  7.8521930558035695 0.07432818750000098  9.001850162946429 0.07432818750000098  C 10.152925734375 0.07432818750000098  11.249421167410715 0.2978908995535724  12.254888029017858 0.7033462834821438  C 15.579322071428571 2.001901279017857  17.933627571428573 5.233148216517857  17.933627571428573 9.015233102678572  Z M 5.569037055803571 7.133544321428571  C 5.569037055803571 8.637160299107142  6.339449571428572 9.938983941964285  7.459380542410714 10.576204493303571  C 7.923835928571429 10.840491582589287  8.446797924107145 10.992904834821429  9.001624037946428 10.992904834821429  C 9.536982207589286 10.992904834821429  10.04170972098214 10.850338647321431  10.493995058035713 10.60405989508929  C 11.640383517857144 9.979009392857147  12.435629484375001 8.661274252232145  12.435629484375001 7.133791017857145  C 12.435629484375001 5.00699527232143  10.895503399553572 3.2758489888392877  9.001644589285714 3.2758489888392877  C 7.108936995535714 3.27562284375  5.569037055803571 5.006789678571428  5.569037055803571 7.133544321428571  Z M 9.037908020089285 17.359436310267856  C 11.647167508928574 17.359436310267856  13.974789395089285 16.15945447767857  15.500401875000001 14.28152769642857  C 15.320174363839286 12.800154917410712  13.876689033482144 11.539076223214286  11.833747292410715 10.910037575892856  C 11.062162988839287 11.60414067857143  10.076369645089287 12.021786662946429  9.00137736160714 12.021786662946429  C 7.90251782142857 12.021786662946429  6.896619241071427 11.581671354910714  6.1175314687499975 10.857369274553571  C 4.130259408482141 11.424570991071427  2.6746451718749977 12.581505462053569  2.333349723214284 13.967820381696427  C 3.8472444241071435 16.0243711875  6.287254091517856 17.359436310267856  9.037908020089285 17.359436310267856  Z " fill-rule="nonzero" fill="#cccccc" stroke="none" transform="matrix(1 0 0 1 2023 396 )" />
  </g>
</svg>