<?xml version="1.0" encoding="utf-8"?>
<svg version="1.1" xmlns:xlink="http://www.w3.org/1999/xlink" width="46px" height="10px" preserveAspectRatio="xMinYMid meet" viewBox="3844 707  46 8" xmlns="http://www.w3.org/2000/svg">
  <path d="M 3846 711  L 3880 711  A 5 5 0 0 1 3885 716 L 3885 752  A 5 5 0 0 0 3890 757 L 3924 757  " stroke-width="2" stroke="#0066ff" fill="none" />
  <path d="M 3847.5 707.5  A 3.5 3.5 0 0 0 3844 711 A 3.5 3.5 0 0 0 3847.5 714.5 A 3.5 3.5 0 0 0 3851 711 A 3.5 3.5 0 0 0 3847.5 707.5 Z M 3916.6 765  L 3926 757  L 3916.6 749  L 3920.2 757  L 3916.6 765  Z " fill-rule="nonzero" fill="#0066ff" stroke="none" />
</svg>