<?xml version="1.0" encoding="utf-8"?>
<svg version="1.1" xmlns:xlink="http://www.w3.org/1999/xlink" width="10px" height="54px" preserveAspectRatio="xMidYMin meet" viewBox="3881 752  8 54" xmlns="http://www.w3.org/2000/svg">
  <path d="M 3846 801  L 3880 801  A 5 5 0 0 0 3885 796 L 3885 762  A 5 5 0 0 1 3890 757 L 3924 757  " stroke-width="2" stroke="#0066ff" fill="none" />
  <path d="M 3847.5 797.5  A 3.5 3.5 0 0 0 3844 801 A 3.5 3.5 0 0 0 3847.5 804.5 A 3.5 3.5 0 0 0 3851 801 A 3.5 3.5 0 0 0 3847.5 797.5 Z M 3916.6 765  L 3926 757  L 3916.6 749  L 3920.2 757  L 3916.6 765  Z " fill-rule="nonzero" fill="#0066ff" stroke="none" />
</svg>