<?xml version="1.0" encoding="utf-8"?>
<svg version="1.1" xmlns:xlink="http://www.w3.org/1999/xlink" width="21px" height="20px" preserveAspectRatio="xMinYMid meet" viewBox="3837 612  21 18" xmlns="http://www.w3.org/2000/svg">
  <path d="M 3846 621  L 3880 621  A 5 5 0 0 0 3885 616 L 3885 578  A 5 5 0 0 1 3890 573 L 3924 573  " stroke-width="2" stroke="#0066ff" fill="none" />
  <path d="M 3847.5 617.5  A 3.5 3.5 0 0 0 3844 621 A 3.5 3.5 0 0 0 3847.5 624.5 A 3.5 3.5 0 0 0 3851 621 A 3.5 3.5 0 0 0 3847.5 617.5 Z M 3916.6 581  L 3926 573  L 3916.6 565  L 3920.2 573  L 3916.6 581  Z " fill-rule="nonzero" fill="#0066ff" stroke="none" />
</svg>