<?xml version="1.0" encoding="utf-8"?>
<svg version="1.1" xmlns:xlink="http://www.w3.org/1999/xlink" width="46px" height="10px" preserveAspectRatio="xMinYMid meet" viewBox="3844 527  46 8" xmlns="http://www.w3.org/2000/svg">
  <path d="M 3846 531  L 3880 531  A 5 5 0 0 1 3885 536 L 3885 568  A 5 5 0 0 0 3890 573 L 3924 573  " stroke-width="2" stroke="#0066ff" fill="none" />
  <path d="M 3847.5 527.5  A 3.5 3.5 0 0 0 3844 531 A 3.5 3.5 0 0 0 3847.5 534.5 A 3.5 3.5 0 0 0 3851 531 A 3.5 3.5 0 0 0 3847.5 527.5 Z M 3916.6 581  L 3926 573  L 3916.6 565  L 3920.2 573  L 3916.6 581  Z " fill-rule="nonzero" fill="#0066ff" stroke="none" />
</svg>