<?xml version="1.0" encoding="utf-8"?>
<svg version="1.1" xmlns:xlink="http://www.w3.org/1999/xlink" width="10px" height="12px" preserveAspectRatio="xMidYMin meet" viewBox="1348 1806  8 12" xmlns="http://www.w3.org/2000/svg">
  <path d="M 1087 1811  L 1147 1811  A 3 3 0 0 1 1150 1808 A 3 3 0 0 1 1153 1811 L 1351 1811  A 1 1 0 0 1 1352 1812 A 1 1 0 0 0 1353 1813 L 1618 1813  " stroke-width="2" stroke="#0066ff" fill="none" />
  <path d="M 1088.5 1807.5  A 3.5 3.5 0 0 0 1085 1811 A 3.5 3.5 0 0 0 1088.5 1814.5 A 3.5 3.5 0 0 0 1092 1811 A 3.5 3.5 0 0 0 1088.5 1807.5 Z M 1610.6 1821  L 1620 1813  L 1610.6 1805  L 1614.2 1813  L 1610.6 1821  Z " fill-rule="nonzero" fill="#0066ff" stroke="none" />
</svg>