<?xml version="1.0" encoding="utf-8"?>
<svg version="1.1" xmlns:xlink="http://www.w3.org/1999/xlink" width="21px" height="20px" preserveAspectRatio="xMinYMid meet" viewBox="2856 1881  21 18" xmlns="http://www.w3.org/2000/svg">
  <path d="M 2865 1890  L 2908 1890  A 5 5 0 0 0 2913 1885 L 2913 1780  A 5 5 0 0 1 2918 1775 L 2961 1775  " stroke-width="2" stroke="#0066ff" fill="none" />
  <path d="M 2866.5 1886.5  A 3.5 3.5 0 0 0 2863 1890 A 3.5 3.5 0 0 0 2866.5 1893.5 A 3.5 3.5 0 0 0 2870 1890 A 3.5 3.5 0 0 0 2866.5 1886.5 Z M 2953.6 1783  L 2963 1775  L 2953.6 1767  L 2957.2 1775  L 2953.6 1783  Z " fill-rule="nonzero" fill="#0066ff" stroke="none" />
</svg>