<?xml version="1.0" encoding="utf-8"?>
<svg version="1.1" xmlns:xlink="http://www.w3.org/1999/xlink" width="21px" height="20px" preserveAspectRatio="xMinYMid meet" viewBox="617 3766  21 18" xmlns="http://www.w3.org/2000/svg">
  <path d="M 626 3775  L 669 3775  A 5 5 0 0 1 674 3780 L 674 3925  A 5 5 0 0 0 679 3930 L 722 3930  " stroke-width="2" stroke="#0066ff" fill="none" />
  <path d="M 627.5 3771.5  A 3.5 3.5 0 0 0 624 3775 A 3.5 3.5 0 0 0 627.5 3778.5 A 3.5 3.5 0 0 0 631 3775 A 3.5 3.5 0 0 0 627.5 3771.5 Z M 714.6 3938  L 724 3930  L 714.6 3922  L 718.2 3930  L 714.6 3938  Z " fill-rule="nonzero" fill="#0066ff" stroke="none" />
</svg>