<?xml version="1.0" encoding="utf-8"?>
<svg version="1.1" xmlns:xlink="http://www.w3.org/1999/xlink" width="9px" height="12px" xmlns="http://www.w3.org/2000/svg">
  <g transform="matrix(1 0 0 1 -555 -777 )">
    <path d="M 6.526134900212262 11.654829058767124  C 9.66949738654976 8.515573376678104  9.66949738654976 3.527249243664362  6.5261349002122655 0.3879935613698634  C 6.145262571115699 0.05821976004666033  5.569207967445623 0.05821976004666033  5.188335638349057 0.3879935613698623  C 4.841448340124823 0.7543692195549151  4.841448340124823 1.3166564580478228  5.188335638349058 1.6830321162328763  C 7.654360526376067 4.082698794422091  7.654360526376067 7.960123807632706  5.1883356383490575 10.359790485821918  C 4.847673068296842 10.72848881632021  4.847673068296845 11.286130728268834  5.188335638349057 11.65482905876712  C 5.566808606002484 11.99062863513031  6.147661932558836 11.990628635130305  6.526134900212262 11.654829058767124  Z M 1.8274493601992732 4.324910789383563  C 1.3814003420396128 4.324910789383563  0.9538366248506179 4.497416568034829  0.6398181146462263 4.804075050821917  C 0.3261024166336011 5.105559218304267  0.14966610616412582 5.5157846250423805  0.14966610616412582 5.943708987328767  C 0.14966610616412582 6.371633349615154  0.3261024166336011 6.781858756353269  0.6398181146462263 7.083342923835616  C 0.9538366248506185 7.390001406622708  1.3814003420396128 7.562507185273974  1.8274493601992732 7.562507185273974  C 2.751007026017844 7.562507185273974  3.4996984420388944 6.837746545107475  3.4996984420388944 5.943708987328769  C 3.4996984420388944 5.049671429550062  2.751007026017843 4.324910789383563  1.8274493601992732 4.324910789383563  Z " fill-rule="nonzero" fill="#000000" stroke="none" transform="matrix(1 0 0 1 555 777 )" />
  </g>
</svg>