<?xml version="1.0" encoding="utf-8"?>
<svg version="1.1" xmlns:xlink="http://www.w3.org/1999/xlink" width="14px" height="16px" xmlns="http://www.w3.org/2000/svg">
  <g transform="matrix(1 0 0 1 -2228 -428 )">
    <path d="M 13.843955056179777 8.066438095238095  C 13.845213483146068 7.656838095238096  13.637573033707865 7.289904761904762  13.288988764044944 7.086323809523809  L 1.6724494382022472 0.28647619047619033  C 1.325123595505618 0.08167619047619042  0.9085842696629213 0.08167619047619042  0.5574831460674158 0.2852571428571428  C 0.2088988764044943 0.490057142857143  0 0.8557714285714285  0 1.264152380952381  L 0 14.867504761904764  C 0 15.275885714285717  0.2088988764044943 15.64281904761905  0.5574831460674158 15.846400000000003  C 0.7324044943820223 15.9488  0.9236853932584268 16  1.1149662921348316 16  C 1.3062471910112363 16  1.498786516853933 15.9488  1.6724494382022472 15.846400000000001  L 13.287730337078653 9.046552380952381  C 13.636314606741573 8.84175238095238  13.843955056179777 8.474819047619048  13.843955056179777 8.066438095238095  Z M 12.540224719101124 8.066438095238096  L 1.210606741573034 14.69927619047619  L 1.1627865168539324 1.4055619047619048  L 12.540224719101124 8.066438095238096  Z " fill-rule="nonzero" fill="#7f7f7f" stroke="none" transform="matrix(1 0 0 1 2228 428 )" />
  </g>
</svg>