<?xml version="1.0" encoding="utf-8"?>
<svg version="1.1" xmlns:xlink="http://www.w3.org/1999/xlink" width="9px" height="16px" xmlns="http://www.w3.org/2000/svg">
  <g transform="matrix(1 0 0 1 -2230 -301 )">
    <path d="M 1.2857142857142856 0.6153846153846154  C 1.2857142857142856 0.27569230769230796  0.9977142857142856 0  0.6428571428571428 0  C 0.28800000000000026 0  0 0.27569230769230796  0 0.6153846153846154  L 0 15.384615384615385  C 0 15.724307692307692  0.28800000000000026 16  0.6428571428571428 16  C 0.9977142857142856 16  1.2857142857142856 15.724307692307692  1.2857142857142856 15.384615384615385  L 1.2857142857142856 0.6153846153846154  Z M 9 0.6153846153846154  C 9 0.27569230769230796  8.712 0  8.357142857142858 0  C 8.002285714285714 0  7.7142857142857135 0.27569230769230796  7.7142857142857135 0.6153846153846154  L 7.7142857142857135 15.384615384615385  C 7.7142857142857135 15.724307692307692  8.002285714285714 16  8.357142857142858 16  C 8.712 16  9 15.724307692307692  9 15.384615384615385  L 9 0.6153846153846154  Z " fill-rule="nonzero" fill="#7f7f7f" stroke="none" transform="matrix(1 0 0 1 2230 301 )" />
  </g>
</svg>