<?xml version="1.0" encoding="utf-8"?>
<svg version="1.1" xmlns:xlink="http://www.w3.org/1999/xlink" width="14px" height="16px" xmlns="http://www.w3.org/2000/svg">
  <g transform="matrix(1 0 0 1 -2259 -301 )">
    <path d="M 13.3 15.886725663716815  C 13.622164062500001 15.886725663716815  13.883333333333333 15.633150442477877  13.883333333333333 15.320353982300885  L 13.883333333333333 0.7079646017699115  C 13.883333333333333 0.3951681415929203  13.622164062500001 0.1415929203539823  13.3 0.1415929203539823  C 12.9778359375 0.1415929203539823  12.716666666666667 0.3951681415929203  12.716666666666667 0.7079646017699115  L 12.716666666666667 15.320353982300885  C 12.716666666666667 15.633150442477877  12.9778359375 15.886725663716815  13.3 15.886725663716815  Z M 1.2012291666666668 14.174159292035398  C 1.2012291666666668 14.805061946902654  1.6066458333333338 14.985309734513276  2.10678125 14.587699115044249  L 9.47778125 8.727699115044247  C 9.976950520833332 8.330884955752213  9.977898437499999 7.685469026548672  9.47778125 7.28787610619469  L 2.10678125 1.4278761061946905  C 1.6076302083333331 1.031061946902655  1.2012291666666668 1.2154336283185843  1.2012291666666668 1.841433628318584  L 1.2012291666666668 14.174159292035398  Z M 10.216901041666668 9.60412389380531  L 2.8459010416666666 15.464123893805311  C 1.5859010416666663 16.465840707964603  0.03456249999999976 15.763185840707967  0 14.174159292035398  L 0 1.8414159292035412  C 0.03456249999999976 0.257681415929205  1.58659375 -0.44968141592920224  2.8459010416666666 0.5514513274336298  L 10.216901041666668 6.41145132743363  C 11.286953125 7.262141592920355  11.286260416666668 8.753982300884958  10.216901041666668 9.60412389380531  Z " fill-rule="nonzero" fill="#7f7f7f" stroke="none" transform="matrix(1 0 0 1 2259 301 )" />
  </g>
</svg>