<?xml version="1.0" encoding="utf-8"?>
<svg version="1.1" xmlns:xlink="http://www.w3.org/1999/xlink" width="23px" height="20px" xmlns="http://www.w3.org/2000/svg">
  <g transform="matrix(1 0 0 1 -1675 -902 )">
    <path d="M 11 0.8486702127659573  C 10.749334862385322 0.40933510638297854  11.102537844036698 0.05319148936170213  11.538245412844036 0.05319148936170213  C 11.973979357798166 0.05319148936170213  12.327155963302754 0.40933510638297854  12 0.8486702127659573  L 12 19.071542553191488  C 12.327155963302754 19.510877659574465  11.973979357798166 19.867021276595743  11.538245412844036 19.867021276595743  C 11.102537844036698 19.867021276595743  10.749334862385322 19.510877659574465  11 19.071542553191488  L 11 0.8486702127659573  Z M 5.469621559633026 4.045664893617019  C 5.469621559633026 3.6065691489361678  5.822850917431191 3.2506382978723387  6.258532110091743 3.2506382978723405  C 6.688041284403669 3.2506382978723405  7.037366972477064 3.596489361702128  7.047258027522935 4.026888297872341  L 7 4.0456382978723395  L 7 15.90946808510638  C 7.0474690366972474 16.34856382978723  6.69426605504587 16.704494680851063  6.258558486238531 16.704494680851063  C 5.8290756880733925 16.704494680851063  5.479723623853209 16.358643617021272  5.4698325688073375 15.928244680851062  L 5.469621559633026 15.909494680851061  L 5.469621559633026 4.045664893617019  Z M 16 4.045664893617019  C 16.089713302752294 3.6065691489361678  16.44291628440367 3.2506382978723387  16.878623853211007 3.2506382978723405  C 17.308106651376146 3.2506382978723405  17.657432339449542 3.596489361702128  17.667323394495412 4.026888297872341  L 17.667560779816515 4.0456382978723395  L 17.667560779816515 15.90946808510638  C 17.667560779816515 16.34856382978723  17.31433142201835 16.704494680851063  16.8786502293578 16.704494680851063  C 16.449141055045875 16.704494680851063  16.09981536697248 16.358643617021272  16.089924311926605 15.928244680851062  L 16 15.909494680851061  L 16 4.045664893617019  Z M 0.15825688073394495 8.17909574468085  C 0.15825688073394495 7.74  0.5114598623853213 7.384095744680851  0.9471674311926604 7.384095744680851  C 1.3766502293577978 7.384095744680851  1.7259759174311928 7.729920212765958  1.7358933486238528 8.16031914893617  L 1.7361043577981652 8.17909574468085  L 1.7361043577981652 11.776063829787233  C 1.7361043577981652 12.215106382978725  1.382875 12.571063829787235  0.9471938073394496 12.571063829787235  C 0.5176846330275232 12.571063829787235  0.1683589449541287 12.225212765957448  0.15846788990825714 11.794813829787234  L 0.15825688073394495 11.776063829787233  L 0.15825688073394495 8.17909574468085  Z M 22.1583371559633 7.384095744680851  C 22.587819954128438 7.384095744680851  22.937145642201834 7.729920212765958  22.947036697247707 8.16031914893617  L 22.94724770642202 8.17909574468085  L 22.94724770642202 11.776063829787233  C 22.94724770642202 12.215106382978725  22.594044724770644 12.571063829787235  22.158337155963302 12.571063829787235  C 21.728854357798166 12.571063829787235  21.37952866972477 12.225212765957448  21.36961123853211 11.794813829787234  L 21.369400229357797 11.776063829787233  L 21.369400229357797 8.17909574468085  C 21.369400229357797 7.74  21.722629587155964 7.384095744680851  22.158310779816514 7.384095744680851  Z " fill-rule="nonzero" fill="#07c160" stroke="none" transform="matrix(1 0 0 1 1675 902 )" />
  </g>
</svg>