<?xml version="1.0" encoding="utf-8"?>
<svg version="1.1" xmlns:xlink="http://www.w3.org/1999/xlink" width="20px" height="20px" xmlns="http://www.w3.org/2000/svg">
  <g transform="matrix(1 0 0 1 -610 -506 )">
    <path d="M 9.16666666015625 0.8333333398437499  C 9.16666666015625 0.37309605234991294  8.793570627337587 0  8.333333339843751 0  L 0.8333333398437499 0  C 0.3730960447224849 0  0 0.3730960447224849  0 0.8333333398437499  L 0 8.333333339843751  C 0 8.793570627337587  0.37309605234991294 9.16666666015625  0.8333333398437499 9.16666666015625  L 8.333333339843751 9.16666666015625  C 8.79357061971016 9.16666664936944  9.16666664936944 8.79357061971016  9.16666666015625 8.333333339843751  L 9.16666666015625 0.8333333398437499  Z M 7.5 1.6666666601562499  L 7.5 7.5  L 1.6666666601562499 7.5  L 1.6666666601562499 1.6666666601562499  L 7.5 1.6666666601562499  Z M 9.16666666015625 11.66666666015625  C 9.16666664936944 11.206429380289842  8.79357061971016 10.833333350630562  8.333333339843751 10.83333333984375  L 0.8333333398437499 10.83333333984375  C 0.37309605234991117 10.83333333984375  0 11.206429372662415  0 11.66666666015625  L 0 19.166666660156253  C 0 19.626903955277516  0.3730960447224849 20  0.8333333398437499 20  L 8.333333339843751 20  C 8.793570627337587 19.999999989213187  9.16666666015625 19.62690394765009  9.16666666015625 19.166666660156253  L 9.16666666015625 11.66666666015625  Z M 7.5 12.5  L 7.5 18.333333339843747  L 1.6666666601562499 18.333333339843747  L 1.6666666601562499 12.5  L 7.5 12.5  Z M 20 0.8333333398437499  C 20 0.3730960447224849  19.626903955277516 0  19.166666660156253 0  L 11.66666666015625 0  C 11.206429372662415 0  10.833333339843751 0.37309605234991294  10.833333339843751 0.8333333398437499  L 10.833333339843751 8.333333339843751  C 10.833333350630562 8.79357061971016  11.206429380289842 9.16666664936944  11.66666666015625 9.16666666015625  L 19.166666660156253 9.16666666015625  C 19.62690394765009 9.16666666015625  19.999999989213187 8.793570627337587  20 8.333333339843751  L 20 0.8333333398437499  Z M 18.333333339843747 1.6666666601562499  L 18.333333339843747 7.5  L 12.5 7.5  L 12.5 1.6666666601562499  L 18.333333339843747 1.6666666601562499  Z M 3.3333333398437497 5.833333339843749  L 3.3333333398437497 3.3333333398437497  L 5.833333339843749 3.3333333398437497  L 5.833333339843749 5.833333339843749  L 3.3333333398437497 5.833333339843749  Z M 3.3333333398437497 16.666666660156253  L 3.3333333398437497 14.166666660156249  L 5.833333339843749 14.166666660156249  L 5.833333339843749 16.666666660156253  L 3.3333333398437497 16.666666660156253  Z M 17.5 13.33333333984375  L 17.5 10.83333333984375  L 20 10.83333333984375  L 20 13.33333333984375  L 17.5 13.33333333984375  Z M 17.5 15.83333333984375  L 17.5 17.5  L 15.83333333984375 17.5  L 15.83333333984375 20  L 20 20  L 20 15.83333333984375  L 17.5 15.83333333984375  Z M 10.83333333984375 20  L 10.83333333984375 17.5  L 13.33333333984375 17.5  L 13.33333333984375 20  L 10.83333333984375 20  Z M 14.16666666015625 5.833333339843749  L 14.166666660156249 3.3333333398437492  L 16.666666660156253 3.3333333398437492  L 16.666666660156253 5.833333339843749  L 14.16666666015625 5.833333339843749  Z M 10.83333333984375 13.33333333984375  L 10.83333333984375 10.83333333984375  L 13.33333333984375 10.83333333984375  L 13.33333333984375 13.33333333984375  L 10.83333333984375 13.33333333984375  Z M 13.33333333984375 17.5  L 13.33333333984375 13.33333333984375  L 15.83333333984375 13.33333333984375  L 15.83333333984375 17.5  L 13.33333333984375 17.5  Z " fill-rule="nonzero" fill="#7f7f7f" stroke="none" transform="matrix(1 0 0 1 610 506 )" />
  </g>
</svg>