<?xml version="1.0" encoding="utf-8"?>
<svg version="1.1" xmlns:xlink="http://www.w3.org/1999/xlink" width="24px" height="24px" xmlns="http://www.w3.org/2000/svg">
  <g transform="matrix(1 0 0 1 -577 -347 )">
    <path d="M 23.840000000000003 24  C 23.648 17.88  16.352 19.41  15.263999999999998 16.62  C 15.168 15.690000000000001  15.2 15  15.2 14.129999999999999  C 15.647999999999998 13.89  17.248 12.450000000000001  17.375999999999998 11.25  C 17.728 11.22  18.304 10.89  18.464 9.57  C 18.56 8.879999999999999  18.208 8.459999999999999  17.983999999999995 8.34  C 18.559999999999995 6.689999999999999  18.816 1.5299999999999994  14.783999999999997 1.0199999999999996  C 14.368 0.36  13.312 0  11.936 0  C 6.431999999999999 0.09  4.800000000000001 3.96  6.016 8.370000000000001  C 5.792 8.49  5.4399999999999995 8.879999999999999  5.536 9.600000000000001  C 5.696 10.92  6.271999999999999 11.25  6.623999999999999 11.280000000000001  C 6.752 12.51  8.352 13.950000000000001  8.799999999999999 14.160000000000002  C 8.799999999999999 15.030000000000001  8.832 15.690000000000001  8.736 16.650000000000002  C 7.6480000000000015 19.41  0.5119999999999999 17.97  0.15999999999999998 24  L 23.840000000000003 24  Z " fill-rule="nonzero" fill="#ffffff" stroke="none" transform="matrix(1 0 0 1 577 347 )" />
  </g>
</svg>