<?xml version="1.0" encoding="utf-8"?>
<svg version="1.1" xmlns:xlink="http://www.w3.org/1999/xlink" width="14px" height="14px" xmlns="http://www.w3.org/2000/svg">
  <g transform="matrix(1 0 0 1 -2043 -611 )">
    <path d="M 10.783770624999999 11.79478115625  C 10.783770609375 11.4606396875  10.51313809375 11.189719375  10.17869284375 11.189719375  C 9.84424759375 11.189719375  9.57361509375 11.460639687499999  9.57361509375 11.794797124999999  L 9.57361509375 12.26839603125  C 9.57361509375 12.555577328124999  9.34020534375 12.789258890625  9.053040046875 12.789258890625  L 1.754948140625 12.789258875  C 1.4677668437499998 12.789258875  1.2337814843749997 12.555561328125  1.2337814843749997 12.268396015625  L 1.2337815 4.970288140625  C 1.2337815 4.68310684375  1.4677828437500002 4.44971309375  1.7549481562500004 4.44971309375  L 2.1750793125000003 4.44971309375  C 2.5095245625000002 4.44971309375  2.7801570625000003 4.178792781249999  2.7801570625000003 3.8446353437499994  C 2.7801570625000003 3.5104779062499993  2.5095245468750003 3.23955759375  2.1750793125000003 3.23955759375  L 1.7549481562500004 3.23955759375  C 0.8000595781250002 3.23955759375  0.023641984375000202 4.015991171875  0.023641984375000202 4.970272171875  L 0.023641984375000202 12.2683800625  C 0.023641984375000202 13.222964859375  0.8000755625000002 13.9993984375  1.7549481562500004 13.9993984375  L 9.053056046875 13.9993984375  C 10.00735303125 13.9993984375  10.783770624999999 13.222964859375  10.783770624999999 12.2683800625  L 10.783770624999999 11.79478115625  Z M 13.976358015625 1.815802890625  C 13.97635803125 0.8148335468750001  13.16211009375 0.0005856093750000735  12.16114075 0.0005856093750000735  L 5.031446671875 0.0005856093750000735  C 4.030477328125 0.0005856093750000735  3.216229390625 0.8148335468750001  3.216229390625 1.815802890625  L 3.216229390625 8.94520915625  C 3.216229390625 9.9461785  4.030477328125 10.7604264375  5.031446671875 10.7604264375  L 12.161140734375 10.7604264375  C 13.162110078125 10.7604264375  13.976358015625 9.9461785  13.976358015625 8.94520915625  L 13.976358015625 1.815802890625  Z M 12.766218484374999 1.815802890625  L 12.7662185 8.945209140625  C 12.7662185 9.278774984375  12.494994390625001 9.550286890625  12.161140750000001 9.550286890625  L 5.031446671875 9.55028690625  C 4.69759303125 9.55028690625  4.4263689218749995 9.278774984375  4.4263689218749995 8.94520915625  L 4.4263689218749995 1.815802890625  C 4.4263689218749995 1.4822370468750004  4.697593031249999 1.2107251406250001  5.031446671874999 1.2107251406250001  L 12.161140734375 1.2107251406250001  C 12.494994375 1.2107251406250001  12.766218484374999 1.4822370625000003  12.766218484374999 1.815802890625  Z " fill-rule="nonzero" fill="#000000" stroke="none" transform="matrix(1 0 0 1 2043 611 )" />
  </g>
</svg>