<?xml version="1.0" encoding="utf-8"?>
<svg version="1.1" xmlns:xlink="http://www.w3.org/1999/xlink" width="20px" height="20px" xmlns="http://www.w3.org/2000/svg">
  <g transform="matrix(1 0 0 1 -1346 -387 )">
    <path d="M 11.58708333984375 4.584583339843751  C 11.585416660156248 4.58333333984375  11.58458333984375 4.58125  11.5825 4.58  L 10.68083333984375 5.482916660156249  C 10.6829166796875 5.484583320312499  10.683749999999998 5.4858333203125  10.68625 5.4875  C 13.1775 7.980833339843749  13.1775 12.024166660156247  10.68625 14.517500000000002  L 11.58708333984375 15.420833339843751  C 14.57625 12.42875  14.57625 7.576666679687501  11.58708333984375 4.584583339843751  Z M 9.7825 13.614999980468749  C 11.7775 11.62125  11.7775 8.385416660156249  9.78291666015625 6.39041666015625  C 9.7820833203125 6.38875  9.78041666015625 6.387499999999999  9.7783333203125 6.38625  L 8.87666666015625 7.2891666601562495  C 8.877500000000001 7.290833320312499  8.879166660156251 7.2920833203125  8.881250000000001 7.294166660156249  C 10.375 8.789583320312499  10.375 11.215833320312498  8.881250000000001 12.7120833203125  L 9.7825 13.614999980468749  Z M 7.9795833203125 8.1966666796875  C 7.97791666015625 8.195  7.975833339843749 8.19375  7.975 8.19208333984375  L 6.170416660156251 9.9979166796875  L 7.9795833203125 11.80875001953125  C 8.9758333203125 10.8104166796875  8.9758333203125 9.193750019531247  7.9795833203125 8.1966666796875  Z M 20 10  C 20 4.48625  15.513333339843749 0  10 0  C 4.48625 0  0 4.48625  0 10  C 0 15.513333339843749  4.48625 20  10 20  C 15.513333339843749 20  20 15.513333339843749  20 10  Z M 19.16583333984375 10  C 19.16583333984375 15.05416666015625  15.05416666015625 19.16583333984375  10 19.16583333984375  C 4.94583333984375 19.16583333984375  0.83375 15.05416666015625  0.83375 10  C 0.83375 4.94583333984375  4.94583333984375 0.83375  10 0.83375  C 15.05416666015625 0.83375  19.16583333984375 4.94583333984375  19.16583333984375 10  Z " fill-rule="nonzero" fill="#555555" stroke="none" transform="matrix(1 0 0 1 1346 387 )" />
  </g>
</svg>