<?xml version="1.0" encoding="utf-8"?>
<svg version="1.1" xmlns:xlink="http://www.w3.org/1999/xlink" width="23px" height="17px" xmlns="http://www.w3.org/2000/svg">
  <g transform="matrix(1 0 0 1 -2262 -1455 )">
    <path d="M 22.87894736842105 1.9684210526315773  C 22.87894736842105 0.9543859649122794  22.092105263157894 0.17894736842105094  21.06315789473684 0.17894736842105308  L 1.8157894736842104 0.17894736842105308  C 0.7868421052631582 0.17894736842105308  0 1.0140350877192978  0 1.9684210526315793  L 0 15.091228070175436  C 0 16.105263157894736  0.8473684210526318 16.880701754385964  1.8157894736842104 16.880701754385964  L 6.113157894736843 16.880701754385964  L 6.113157894736843 15.389473684210525  L 1.8157894736842104 15.389473684210525  C 1.6342105263157891 15.389473684210525  1.513157894736842 15.270175438596487  1.513157894736842 15.091228070175436  L 1.513157894736842 1.9684210526315773  C 1.513157894736842 1.789473684210524  1.6342105263157891 1.6701754385964895  1.8157894736842104 2  L 21.06315789473684 2  C 21.24473684210526 1.6701754385964895  21.36578947368421 1.789473684210524  21 1.9684210526315773  L 21 15.091228070175436  C 21.36578947368421 15.270175438596487  21.24473684210526 15.389473684210525  21.06315789473684 15.389473684210525  L 16.402631578947364 15.389473684210525  L 16.402631578947364 16.880701754385964  L 21.06315789473684 16.880701754385964  C 22.092105263157894 16.880701754385964  22.87894736842105 16.04561403508772  22.87894736842105 15.091228070175436  L 22.87894736842105 1.9684210526315773  Z " fill-rule="nonzero" fill="#ffffff" stroke="none" transform="matrix(1 0 0 1 2262 1455 )" />
  </g>
</svg>