<?xml version="1.0" encoding="utf-8"?>
<svg version="1.1" xmlns:xlink="http://www.w3.org/1999/xlink" width="35px" height="26px" xmlns="http://www.w3.org/2000/svg">
  <g transform="matrix(1 0 0 1 -2546 -925 )">
    <path d="M 34.815789473684205 3.010526315789471  C 34.815789473684205 1.4596491228070156  33.618421052631575 0.2736842105263132  32.05263157894737 0.2736842105263165  L 2.763157894736842 0.2736842105263165  C 1.197368421052632 0.2736842105263165  0 1.5508771929824556  0 3.010526315789474  L 0 23.080701754385963  C 0 24.63157894736842  1.2894736842105268 25.81754385964912  2.763157894736842 25.81754385964912  L 9.30263157894737 25.81754385964912  L 9.30263157894737 23.536842105263155  L 2.763157894736842 23.536842105263155  C 2.4868421052631575 23.536842105263155  2.302631578947368 23.354385964912275  3 23.080701754385963  L 3 3.010526315789471  C 2.302631578947368 2.7368421052631544  2.4868421052631575 2.554385964912278  2.763157894736842 3  L 32.05263157894737 3  C 32.32894736842105 2.554385964912278  32.513157894736835 2.7368421052631544  32 3.010526315789471  L 32 23.080701754385963  C 32.513157894736835 23.354385964912275  32.32894736842105 23.536842105263155  32.05263157894737 23.536842105263155  L 24.96052631578947 23.536842105263155  L 24.96052631578947 25.81754385964912  L 32.05263157894737 25.81754385964912  C 33.618421052631575 25.81754385964912  34.815789473684205 24.54035087719298  34.815789473684205 23.080701754385963  L 34.815789473684205 3.010526315789471  Z " fill-rule="nonzero" fill="#ffffff" stroke="none" transform="matrix(1 0 0 1 2546 925 )" />
  </g>
</svg>