<?xml version="1.0" encoding="utf-8"?>
<svg version="1.1" xmlns:xlink="http://www.w3.org/1999/xlink" width="27px" height="30px" xmlns="http://www.w3.org/2000/svg">
  <g transform="matrix(1 0 0 1 -943 -824 )">
    <path d="M 26.466102710526314 18.09851572674419  C 26.826404595394738 16.591864476744192  26.913239289473687 15.05539694767442  26.72412075 13.531948604651163  C 26.541454144736843 12.060082994186047  26.10671829276316 10.637649593023257  25.4320475625 9.304200000000002  C 24.07672767434211 6.625589389534884  21.81281015131579 4.468937761627907  19.057273223684213 3.2315628197674418  C 18.462689289473687 2.964553226744186  17.76025749671053 3.221391569767442  17.488329305921052 3.805249825581396  C 17.216430720394737 4.389049941860465  17.477970690789476 5.078805319767442  18.072554625 5.345843953488371  C 22.787584460526315 7.463118343023256  25.348202023026314 12.602849389534883  24.161135506578947 17.567082965116278  C 23.251206049342105 21.371620784883724  20.336087427631576 24.349672703488373  16.576624095394735 25.42561555232558  L 16.56884033881579 23.367450581395346  L 10.741237105263158 26.700304418604652  L 16.593908151315787 29.99032279069768  L 16.58573964473684 27.82658034883721  C 18.817930243421056 27.305900029069768  20.872870312499998 26.22978284883721  22.56851477960526 24.685904854651167  C 24.510546059210522 22.917649302325582  25.858318944078945 20.639785552325584  26.466102710526314 18.09851572674419  Z M 16.282410098684213 3.522925261627905  L 10.429916624999999 0.23252906976744186  L 10.437966740131579 2.396300581395349  C 8.205598569078948 2.9169809011627907  6.150510503289472 3.9931562209302327  4.454747703947367 5.5371795058139535  C 2.5126276381578942 7.305522238372093  1.1648843289473674 9.583444127906976  0.5571597730263146 12.124859244186046  C 0.32068761513157773 13.114230290697673  0.20206678618420926 14.116358982558138  0.20206678618420926 15.119359505813952  C 0.20206678618420926 15.642451860465114  0.23435603289473567 16.165776686046513  0.2989345559210515 16.687561308139536  C 0.48106841447368326 18.15823543604651  0.9148276184210515 19.57968078488372  1.5881073453947354 20.912374767441857  C 2.9404380197368405 23.589125494186046  5.2003305 25.745806191860463  7.951368819078947 26.98507005813953  C 8.545597608552631 27.25277709302325  9.248384546052632 26.996752441860462  9.520993450657894 26.41324296511628  C 9.79366153618421 25.829617209302324  9.532861460526314 25.139687470930234  8.938603065789474 24.871980406976743  C 4.23245202631579 22.75197430232558  1.6770729375000006 17.614451860465113  2.8621565526315793 12.656175755813951  C 3.77199722368421 8.851434505813952  6.687204631578948 5.8732372965116255  10.446904746710528 4.797294447674417  L 10.454599717105266 6.8554884593023235  L 16.282410098684213 3.522925261627905  Z " fill-rule="nonzero" fill="#ffffff" stroke="none" transform="matrix(1 0 0 1 943 824 )" />
  </g>
</svg>