<?xml version="1.0" encoding="utf-8"?>
<svg version="1.1" xmlns:xlink="http://www.w3.org/1999/xlink" width="55px" height="10px" preserveAspectRatio="xMinYMid meet" viewBox="1045 583  55 8" xmlns="http://www.w3.org/2000/svg">
  <path d="M 985 908  L 985 905  A 5 5 0 0 1 990 900 L 1045 900  A 5 5 0 0 0 1050 895 L 1050 592  A 5 5 0 0 1 1055 587 L 1098 587  " stroke-width="2" stroke="#0066ff" fill="none" />
  <path d="M 985 903  A 3.5 3.5 0 0 0 981.5 906.5 A 3.5 3.5 0 0 0 985 910 A 3.5 3.5 0 0 0 988.5 906.5 A 3.5 3.5 0 0 0 985 903 Z M 1090.6 595  L 1100 587  L 1090.6 579  L 1094.2 587  L 1090.6 595  Z " fill-rule="nonzero" fill="#0066ff" stroke="none" />
</svg>