<?xml version="1.0" encoding="utf-8"?>
<svg version="1.1" xmlns:xlink="http://www.w3.org/1999/xlink" width="50px" height="50px" xmlns="http://www.w3.org/2000/svg">
  <g transform="matrix(1 0 0 1 -1575 -728 )">
    <path d="M 1600 730  C 1612.88 730  1623 740.12  1623 753  C 1623 765.88  1612.88 776  1600 776  C 1587.12 776  1577 765.88  1577 753  C 1577 740.12  1587.12 730  1600 730  Z " fill-rule="nonzero" fill="#ffffff" stroke="none" fill-opacity="0" />
    <path d="M 1600 729.5  C 1613.16 729.5  1623.5 739.84  1623.5 753  C 1623.5 766.16  1613.16 776.5  1600 776.5  C 1586.84 776.5  1576.5 766.16  1576.5 753  C 1576.5 739.84  1586.84 729.5  1600 729.5  Z " stroke-width="3" stroke="#f2f2f2" fill="none" />
  </g>
</svg>