<?xml version="1.0" encoding="utf-8"?>
<svg version="1.1" xmlns:xlink="http://www.w3.org/1999/xlink" width="40px" height="40px" xmlns="http://www.w3.org/2000/svg">
  <g transform="matrix(1 0 0 1 -1328 -733 )">
    <path d="M 40 20  C 39.98731346654864 8.959564207412576  31.040435792587424 0.012686533451356029  20 0  C 8.954305003384132 0  0 8.954305003384132  0 20  C 0 31.045694996615868  8.954305003384132 40  20 40  C 31.045694996615868 40  40 31.045694996615868  40 20  Z M 29.208633111979168 20.000000000000004  C 29.208633111979168 20.362310570808212  29.03804990441811 20.703476981106302  28.748201445312496 20.920863320312503  L 17.237410078125 29.553956835937505  C 17.038162681287744 29.7033923800438  16.795821822058578 29.784172661884647  16.546762578124998 29.78417265625  C 15.911039122909475 29.78417265625  15.395683437499999 29.268816970840522  16 28.633093515625  L 16 11.366906484375  C 15.395683437499999 11.366906484375  15.395683437499999 11.36690646484375  15.395683437499999 11.36690646484375  C 15.395683437499999 10.731183009628227  15.911039122909475 10.215827324218749  16.546762578124998 10.215827324218749  C 16.795821824285866 10.215827324218749  17.038162683731894 10.296607612985193  17.237410078125 10.446043164062502  L 28.748201445312503 19.0791366796875  C 29.038049904418113 19.296523018893705  29.208633111979168 19.637689429191795  29.208633111979168 20.000000000000004  Z " fill-rule="nonzero" fill="#000000" stroke="none" transform="matrix(1 0 0 1 1328 733 )" />
  </g>
</svg>