<?xml version="1.0" encoding="utf-8"?>
<svg version="1.1" xmlns:xlink="http://www.w3.org/1999/xlink" width="10px" height="16px" xmlns="http://www.w3.org/2000/svg">
  <g transform="matrix(1 0 0 1 -2000 -1391 )">
    <path d="M 9.665178571428571 15.366071428571429  C 9.53125 15.419642857142858  9.397321428571429 15.473214285714286  9.296875 15.473214285714286  C 9.16294642857143 15.473214285714286  9.02901785714286 15.446428571428571  8.928571428571429 15.366071428571429  L 0.2566964285714298 8.401785714285714  C 0.12276785714285779 8.294642857142858  0.055803571428572694 8.133928571428571  0.055803571428572694 8  C 0.055803571428572694 7.866071428571429  0.12276785714285779 7.705357142857143  0.2566964285714298 7.598214285714286  L 8.928571428571429 0.6339285714285714  C 9.129464285714286 0.4732142857142857  9.430803571428571 0.4732142857142857  9.631696428571429 0.6339285714285714  C 9.832589285714288 0.7946428571428571  9.832589285714288 1.0357142857142858  9.631696428571429 1.1964285714285714  L 1.1607142857142858 8  L 9.665178571428571 14.803571428571429  C 9.866071428571429 14.964285714285714  9.866071428571429 15.205357142857142  9.665178571428571 15.366071428571429  Z " fill-rule="nonzero" fill="#3e3a39" stroke="none" transform="matrix(1 0 0 1 2000 1391 )" />
  </g>
</svg>