<?xml version="1.0" encoding="utf-8"?>
<svg version="1.1" xmlns:xlink="http://www.w3.org/1999/xlink" width="55px" height="10px" preserveAspectRatio="xMinYMid meet" viewBox="575 456  55 8" xmlns="http://www.w3.org/2000/svg">
  <path d="M 577 460  L 620 460  A 5 5 0 0 1 625 465 L 625 599  A 5 5 0 0 0 630 604 L 673 604  " stroke-width="2" stroke="#0066ff" fill="none" />
  <path d="M 578.5 456.5  A 3.5 3.5 0 0 0 575 460 A 3.5 3.5 0 0 0 578.5 463.5 A 3.5 3.5 0 0 0 582 460 A 3.5 3.5 0 0 0 578.5 456.5 Z M 665.6 612  L 675 604  L 665.6 596  L 669.2 604  L 665.6 612  Z " fill-rule="nonzero" fill="#0066ff" stroke="none" />
</svg>