<?xml version="1.0" encoding="utf-8"?>
<svg version="1.1" xmlns:xlink="http://www.w3.org/1999/xlink" width="22px" height="20px" xmlns="http://www.w3.org/2000/svg">
  <g transform="matrix(1 0 0 1 -8463 -296 )">
    <path d="M 22 1.9787755102040818  C 21.993714285714287 0.9942857142857142  21.22214285714286 0.19102040816326565  20.271428571428572 0.19102040816326527  L 1.9077142857142857 0.19102040816326527  C 0.9585714285714283 0.19102040816326527  0.18699999999999997 0.9942857142857142  0.18699999999999997 1.980408163265306  L 0.18699999999999997 13.903673469387757  C 0.18699999999999997 14.889795918367346  0.9601428571428572 15.693061224489798  1.9077142857142857 15.693061224489798  L 10.329 15.693061224489798  L 10.329 18.230204081632653  L 7.473714285714286 18.230204081632653  C 7.014857142857144 18.230204081632653  6.644 18.58448979591837  6.644 19.02040816326531  C 6.644 19.456326530612245  7.014857142857142 19.81061224489796  7.473714285714286 19.81061224489796  L 14.706999999999999 19.81061224489796  C 15.165857142857144 19.81061224489796  15.536714285714288 19.456326530612245  15.536714285714288 19.02040816326531  C 15.536714285714288 18.58448979591837  15.165857142857144 18.230204081632653  14.706999999999999 18.230204081632653  L 11.851714285714285 18.230204081632653  L 11.851714285714285 15.693061224489798  L 20.271428571428572 15.693061224489798  C 21.22057142857143 15.693061224489798  21.993714285714287 14.891428571428573  22 13.903673469387757  L 22 1.9787755102040818  Z M 20 2.2579591836734694  L 20 13.624489795918366  C 20.390858648059265 13.625034012203061  20.39085940066149 13.625578230452827  20.39085940066149 13.626122448984434  C 20.39085940066149 13.939910355827074  20.146023118140388 14.194285714290555  19.84400225780435 14.194285714290555  C 19.844001504896774 14.194285714290555  19.844000752907572 14.194285714288943  19.844 14  L 2.3367142857142857 14  C 2.336713533434138 14.194285714288942  2.3367127801900875 14.194285714290555  2.33671202790994 14.194285714290555  C 2.0346911675739006 14.194285714290555  1.7898548850527973 13.939910355827074  1.7898548850527973 13.626122448984434  C 1.7898548850527973 13.625578230453122  1.7898556376550223 13.625034012202768  2 13.624489795918366  L 2 2.2579591836734694  C 1.7898571428571433 1.9428571428571428  2.036571428571429 1.6897959183673472  2.3367142857142857 2  L 19.844 2  C 20.145714285714284 1.6897959183673472  20.390857142857143 1.9428571428571428  20 2.2579591836734694  Z M 15.365428571428566 7.471020408163261  L 12.349857142857143 4.948571428571428  C 12.026142857142858 4.6775510204081625  11.762142857142855 4.875102040816326  11.762142857142855 5.353469387755102  L 11.762142857142855 6.628571428571428  L 11.708714285714285 6.628571428571428  C 9.816714285714284 6.628571428571428  6.59842857142857 8.899591836734693  6.571714285714283 10.919183673469385  C 6.571714285714283 11.080816326530611  6.697428571428569 11.126530612244899  6.818428571428569 10.919183673469385  C 7.429714285714284 9.78612244897959  9.998999999999999 9.198367346938772  11.307999999999998 9.198367346938772  L 11.762142857142853 9.198367346938772  L 11.762142857142853 10.543673469387754  C 11.762142857142853 10.945306122448976  12.048142857142853 11.21959183673469  12.373428571428565 10.948571428571425  L 15.365428571428566 8.453877551020403  C 15.689142857142851 8.184489795918363  15.689142857142851 7.742040816326527  15.365428571428566 7.471020408163261  Z " fill-rule="nonzero" fill="#ffffff" stroke="none" transform="matrix(1 0 0 1 8463 296 )" />
  </g>
</svg>