<?xml version="1.0" encoding="utf-8"?>
<svg version="1.1" xmlns:xlink="http://www.w3.org/1999/xlink" width="17px" height="14px" xmlns="http://www.w3.org/2000/svg">
  <g transform="matrix(1 0 0 1 -5297 -2406 )">
    <path d="M 9.429914520833334 9.392614132575757  C 13.608485451923075 8.940541405303028  16.869230769230768 5.485963636363635  16.869230769230768 1.3005575757575771  L 16.869230769230768 1.0742949583333354  C 16.869230769230768 0.5744493641266346  16.45289385080121 0.16924444886364032  15.93931623477564 0.16924444886364032  C 15.425738618750074 0.16924444886364032  15.009401700320518 0.5744493641266332  15.009401700320518 1.0742949583333354  L 15.009401700320515 1.3005575757575771  C 15.009401700320515 4.794052534090912  12.089470067307694 7.635911102272728  8.5 7.635911102272728  C 4.910529932692306 7.635911102272728  1.990598299679487 4.794052507575757  1.990598299679487 1.3005575757575771  L 1.990598299679487 1.0742949583333354  C 1.990598299679487 0.5744493641266332  1.5742613812499302 0.16924444886364032  1.06068376522436 0.16924444886364032  C 0.5471061491987904 0.16924444886364032  0.13076923076923186 0.5744493641266332  0.13076923076923186 1.0742949583333354  L 0.13076923076923108 1.3005575757575771  C 0.13076923076923108 5.48551110227273  3.3915145208333337 8.940541405303032  7.570085479166667 9.392614132575757  L 7.570085479166667 12.161616170454543  L 2.920512820512822 12.161616170454543  C 2.406935212010362 12.161616170454543  1.990598299679487 12.566821079781919  1.990598299679487 13.066666666666665  C 1.990598299679487 13.566512253551412  2.406935212010362 13.971717162878786  2.920512820512822 13.971717162878786  C 2.920512820512822 13.971717162878786  2.920512820512822 13.971717162878786  2.92051282051282 14  L 14.07948717948718 14  C 14.07948717948718 13.971717162878786  14.07948717948718 13.971717162878786  14.07948717948718 13.971717162878786  C 14.593064787989638 13.971717162878786  15.009401700320515 13.566512253551412  15.009401700320515 13.066666666666665  C 15.009401700320515 12.566821079781919  14.593064787989638 12.161616170454543  14.07948717948718 12.161616170454543  L 9.429914520833334 12.161616170454543  L 9.429914520833334 9.392614132575757  Z " fill-rule="nonzero" fill="#7f7f7f" stroke="none" transform="matrix(1 0 0 1 5297 2406 )" />
  </g>
</svg>