<?xml version="1.0" encoding="utf-8"?>
<svg version="1.1" xmlns:xlink="http://www.w3.org/1999/xlink" width="23px" height="26px" xmlns="http://www.w3.org/2000/svg">
  <g transform="matrix(1 0 0 1 -5291 -2516 )">
    <path d="M 15.439571428571428 12.3045  L 15.43957142857143 3.9000000000000004  C 15.43957142857143 1.7460894756599066  13.6742941564757 0  11.496714285714289 0  C 9.319134414952874 0  7.553857142857144 1.7460894756599066  7.553857142857144 3.9000000000000004  L 7.553857142857142 4.5045  L 15.439571428571428 12.3045  Z M 12.811000000000003 21.996  C 14.329898086759474 21.780843618008312  15.769526491765086 21.19068538986937  16.997 20.28  L 21.08442857142857 24.3165  L 22.944142857142857 22.4835  L 1.9155714285714263 1.6835  L 0.055857142857142904 3.516500000000001  L 7.553857142857142 10.9395  L 7.553857142857142 13  C 7.554655015610666 15.153352207407428  9.319698456222454 16.898570656182155  11.496714020909847 16.898570656182155  C 12.085778816429556 16.898570656182155  12.667358303773558 16.76801576676965  13.198714285714289 16.5165  L 15.12414285714286 18.414499999999997  C 14.048393045972958 19.118900180642694  12.786821334662902 19.494514816271646  11.49671194587775 19.494514816271646  C 7.869577609358068 19.494514816271646  4.928346560169291 16.58770768584952  4.925285714285715 13  L 2.2967142857142857 13  C 2.3020693684242834 17.5195568352323  5.660067774942313 21.350351684059355  10.182428571428572 21.996  L 10.182428571428572 23.400000000000002  L 7.553857142857144 26  L 15.439571428571428 26  L 12.811000000000002 23.400000000000002  L 12.811000000000003 21.996  Z M 19.895000000000003 16.704999999999995  C 20.42378699316693 15.539867984487538  20.69702370675739 14.277146286880875  20.696714285714286 13  L 18.06814285714286 13  C 18.068661141882238 13.566726594999713  17.99128599163683 14.130892364397749  17.838142857142856 14.677  L 19.895000000000003 16.704999999999995  Z " fill-rule="nonzero" fill="#7f7f7f" stroke="none" transform="matrix(1 0 0 1 5291 2516 )" />
  </g>
</svg>