<?xml version="1.0" encoding="utf-8"?>
<svg version="1.1" xmlns:xlink="http://www.w3.org/1999/xlink" width="13px" height="24px" xmlns="http://www.w3.org/2000/svg">
  <g transform="matrix(1 0 0 1 -169 -230 )">
    <path d="M 12.564732142857142 23.049107142857142  C 12.390625 23.129464285714285  12.216517857142858 23.20982142857143  12.0859375 23.20982142857143  C 11.911830357142861 23.20982142857143  11.737723214285717 23.169642857142858  11.607142857142858 23.049107142857142  L 0.3337053571428588 12.60267857142857  C 0.1595982142857151 12.441964285714286  0.0725446428571445 12.200892857142858  0.0725446428571445 12  C 0.0725446428571445 11.799107142857142  0.1595982142857151 11.558035714285715  0.3337053571428588 11.397321428571429  L 11.607142857142858 0.9508928571428571  C 11.868303571428571 0.7098214285714286  12.260044642857142 0.7098214285714286  12.521205357142858 0.9508928571428571  C 12.782366071428575 1.1919642857142856  12.782366071428575 1.5535714285714288  12.521205357142858 1.7946428571428572  L 1.5089285714285714 12  L 12.564732142857142 22.205357142857142  C 12.825892857142858 22.44642857142857  12.825892857142858 22.808035714285715  12.564732142857142 23.049107142857142  Z " fill-rule="nonzero" fill="#3e3a39" stroke="none" transform="matrix(1 0 0 1 169 230 )" />
  </g>
</svg>