<?xml version="1.0" encoding="utf-8"?>
<svg version="1.1" xmlns:xlink="http://www.w3.org/1999/xlink" width="16px" height="16px" xmlns="http://www.w3.org/2000/svg">
  <g transform="matrix(1 0 0 1 -962 -228 )">
    <path d="M 970 229  C 973.92 229  977 232.08  977 236  C 977 239.92  973.92 243  970 243  C 966.08 243  963 239.92  963 236  C 963 232.08  966.08 229  970 229  Z " fill-rule="nonzero" fill="#ffffff" stroke="none" fill-opacity="0" />
    <path d="M 970 229  C 973.92 229  977 232.08  977 236  C 977 239.92  973.92 243  970 243  C 966.08 243  963 239.92  963 236  C 963 232.08  966.08 229  970 229  Z " stroke-width="2" stroke="#000000" fill="none" />
  </g>
</svg>