<?xml version="1.0" encoding="utf-8"?>
<svg version="1.1" xmlns:xlink="http://www.w3.org/1999/xlink" width="34px" height="34px" xmlns="http://www.w3.org/2000/svg">
  <g transform="matrix(1 0 0 1 -1142 -308 )">
    <path d="M 33.77333333333333 34  C 33.501333333333335 25.33  23.165333333333333 27.4975  21.623999999999995 23.545  C 21.488 22.227500000000003  21.53333333333333 21.25  21.53333333333333 20.0175  C 22.167999999999996 19.6775  24.43466666666667 17.637500000000003  24.616 15.9375  C 25.11466666666667 15.895000000000001  25.930666666666664 15.4275  26.157333333333334 13.5575  C 26.293333333333333 12.58  25.794666666666664 11.985  25.477333333333327 11.815  C 26.29333333333333 9.477499999999997  26.656 2.167499999999999  20.943999999999996 1.4449999999999994  C 20.354666666666667 0.51  18.858666666666664 0  16.909333333333333 0  C 9.111999999999998 0.1275  6.800000000000001 5.61  8.522666666666666 11.8575  C 8.205333333333334 12.0275  7.706666666666666 12.58  7.842666666666666 13.600000000000001  C 8.069333333333333 15.47  8.885333333333332 15.9375  9.383999999999999 15.98  C 9.565333333333333 17.7225  11.831999999999999 19.762500000000003  12.466666666666665 20.060000000000002  C 12.466666666666665 21.292500000000004  12.512 22.227500000000003  12.376 23.587500000000002  C 10.834666666666669 27.4975  0.7253333333333332 25.4575  0.22666666666666663 34  L 33.77333333333333 34  Z " fill-rule="nonzero" fill="#ffffff" stroke="none" transform="matrix(1 0 0 1 1142 308 )" />
  </g>
</svg>