<?xml version="1.0" encoding="utf-8"?>
<svg version="1.1" xmlns:xlink="http://www.w3.org/1999/xlink" width="32px" height="34px" xmlns="http://www.w3.org/2000/svg">
  <g transform="matrix(1 0 0 1 -1124 -790 )">
    <path d="M 31.78666666666667 34  C 31.530666666666665 25.33  21.802666666666667 27.4975  20.351999999999997 23.545  C 20.224 22.227500000000003  20.266666666666666 21.25  20.266666666666666 20.0175  C 20.863999999999997 19.6775  22.997333333333334 17.637500000000003  23.168 15.9375  C 23.637333333333334 15.895000000000001  24.40533333333333 15.4275  24.618666666666666 13.5575  C 24.746666666666666 12.58  24.27733333333333 11.985  23.978666666666662 11.815  C 24.746666666666663 9.477499999999997  25.087999999999997 2.167499999999999  19.711999999999996 1.4449999999999994  C 19.157333333333334 0.51  17.749333333333333 0  15.914666666666667 0  C 8.575999999999999 0.1275  6.4 5.61  8.021333333333333 11.8575  C 7.722666666666667 12.0275  7.253333333333333 12.58  7.381333333333333 13.600000000000001  C 7.594666666666666 15.47  8.362666666666666 15.9375  8.831999999999999 15.98  C 9.002666666666666 17.7225  11.136 19.762500000000003  11.733333333333333 20.060000000000002  C 11.733333333333333 21.292500000000004  11.776 22.227500000000003  11.648 23.587500000000002  C 10.197333333333335 27.4975  0.6826666666666665 25.4575  0.2133333333333333 34  L 31.78666666666667 34  Z " fill-rule="nonzero" fill="#ffffff" stroke="none" transform="matrix(1 0 0 1 1124 790 )" />
  </g>
</svg>