<?xml version="1.0" encoding="utf-8"?>
<svg version="1.1" xmlns:xlink="http://www.w3.org/1999/xlink" width="18px" height="18px" xmlns="http://www.w3.org/2000/svg">
  <g transform="matrix(1 0 0 1 -3536 -236 )">
    <path d="M 15.68235293382353 17.00000000735294  C 15.68235293382353 17.51764707352941  15.258823522058824 17.941176485294115  14.694117639705883 17.941176463235294  L 11.588235286764707 17.941176463235294  C 11.023529404411764 17.941176463235294  10.59999999264706 17.51764705147059  10.59999999264706 16.95294116911765  L 10.59999999264706 11.352941183823528  C 10.59999999264706 11.352941183823528  10.59999999264706 11.305882367647058  10.55294117647059 11.305882345588234  L 7.447058823529414 11.305882345588234  C 7.400000007352943 11.305882345588234  7.400000007352943 11.305882345588234  7.400000007352943 11.352941183823528  L 7.400000007352943 16.952941169117647  C 7.400000007352943 17.51764705147059  6.976470595588237 17.941176463235294  6.4117647132352955 17.941176463235294  L 3.305882360294119 17.941176463235294  C 2.7411764779411776 17.941176463235294  2.317647066176472 17.517647051470586  2.317647066176472 16.952941169117647  L 2.317647066176472 8.529411772058824  C 2.317647066176472 8.529411772058824  2.317647066176472 8.482352955882353  2.270588227941178 8.482352933823531  L 1.047058830882353 8.482352933823531  C 0.6235294191176473 8.482352933823531  0.24705882352941183 8.24705880882353  0.10588235294117672 7.823529419117647  C -0.0352941176470587 7.447058823529412  0.05882353676470628 7.023529411764707  0.38823529411764723 6.741176470588235  L 8.341176463235294 0.2941176397058823  C 8.717647058823529 -0.03529411764705901  9.235294102941175 -0.03529411764705901  9.611764698529413 0.2941176397058823  L 17.564705889705884 6.788235286764705  C 17.894117647058824 7.070588227941176  17.988235301470592 7.494117639705881  17.847058830882354 7.870588235294116  C 17.70588236029412 8.247058830882352  17.32941176470588 8.529411772058822  16.905882352941177 8.529411772058822  L 15.729411772058825 8.529411772058822  C 15.682352955882353 8.529411772058822  15.682352955882353 8.529411772058822  15.68235293382353 8.576470588235292  L 15.68235293382353 17.00000000735294  Z M 6.411764713235295 11.352941183823528  C 6.458823529411765 10.788235301470587  6.88235294117647 10.364705889705883  7.447058823529412 10.364705889705883  L 10.55294117647059 10.364705889705883  C 11.117647058823533 10.364705889705883  11.541176470588237 10.78823530147059  11.541176470588237 11.352941183823528  L 11.541176470588237 16.952941169117647  C 11.541176470588237 16.952941169117647  11.541176470588237 16.999999985294117  11.588235286764707 17.00000000735294  L 14.694117639705883 17.00000000735294  C 14.741176455882352 17.00000000735294  14.741176455882352 17.00000000735294  14.741176477941176 16.952941169117647  L 14.741176477941176 8.529411772058824  C 14.741176477941176 7.964705889705882  15.164705889705884 7.5411764779411765  15.729411772058823 7.5411764779411765  L 16.905882352941177 7.5411764779411765  C 16.905882352941177 7.5411764779411765  16.952941169117647 7.5411764779411765  16.952941169117647 7.494117639705882  L 9.047058816176472 0.9999999926470591  L 8.95294118382353 0.9999999926470591  L 0.9999999926470591 7.494117639705882  C 0.9999999926470591 7.541176455882353  1.0470588088235295 7.541176455882353  1.047058830882353 7.5411764779411765  L 2.2235294117647064 7.5411764779411765  C 2.788235294117647 7.5411764779411765  3.2117647058823535 7.964705889705882  3.2117647058823535 8.529411772058824  L 3.2117647058823535 16.95294116911765  C 3.2117647058823535 16.95294116911765  3.2117647058823535 16.999999985294117  3.2588235220588238 17.000000007352945  L 6.364705875 17.000000007352945  C 6.4117646911764705 17.000000007352945  6.4117646911764705 17.000000007352945  6.411764713235295 16.95294116911765  L 6.411764713235295 11.352941183823528  Z " fill-rule="nonzero" fill="#333333" stroke="none" transform="matrix(1 0 0 1 3536 236 )" />
  </g>
</svg>