<?xml version="1.0" encoding="utf-8"?>
<svg version="1.1" xmlns:xlink="http://www.w3.org/1999/xlink" width="22px" height="20px" xmlns="http://www.w3.org/2000/svg">
  <g transform="matrix(1 0 0 1 -538 -280 )">
    <path d="M 21.836733843023254 11.084745762711867  C 21.82945736434108 10.000000000000002  21.283720930232555 8.777853114406783  20.468754529069766 8.09807908898305  C 19.646511627906975 3.491525423728814  15.68810336627907 0.09988701271186437  10.914728682170542 0.09988701271186437  C 6.141353998062015 0.09988701271186437  2.182945736434108 3.6289265677966096  1.3607028352713182 8.09807908898305  C 0.5457364341085271 8.77785311440678  0 10  0 11.22214688559322  C 0 12.849265529661016  0.9532196453488373 14.751186440677966  2.459452203488372 14.751186440677966  C 3.82015503875969 14.751186440677966  3.82015503875969 13.261468919491525  3.82015503875969 11.22214688559322  C 3.82015503875969 9.320225974576271  3.82015503875969 7.830508474576272  2.8669353934108526 7.693107351694916  C 3.681901815891473 4.033898305084746  6.956320420542635 1.322033898305085  10.914728682170542 1.322033898305085  C 14.87313694379845 1.322033898305085  18.147555548449613 4.033898305084746  18.962521970930233 7.562937860169493  C 18.009302325581395 7.830508474576272  18.009302325581395 9.19005650423729  18.009302325581395 11.084745762711865  C 18.009302325581395 12.444293792372882  18.009302325581395 13.391638411016949  18.27853229263566 14.07141243644068  C 17.048806201550388 15.97333334745763  15.28062015503876 17.325649724576273  13.09767441860465 17.868022605932204  C 12.690191207364336 17.325649724576273  11.867948327519377 16.9206779661017  10.91472868217054 16.9206779661017  C 9.546749346899222 16.9206779661017  8.455276478682167 17.600451970338987  8.455276478682167 18.410395487288138  C 8.455276478682167 19.227570635593224  9.546749346899222 19.90011300847458  10.91472868217054 19.90011298728814  C 12.275431517441858 19.90011298728814  13.374180885658912 19.22033898305085  13.374180885658912 18.410395487288138  C 15.55712662209302 17.868022605932204  17.463565891472868 16.378305084745765  18.693291982558137 14.476384173728816  C 18.831545205426355 14.613785296610171  19.100775193798448 14.613785296610171  19.37728166085271 14.613785317796612  C 20.876237740310074 14.613785317796612  21.836733864341085 12.711864406779663  21.836733843023254 11.084745762711867  Z " fill-rule="nonzero" fill="#000000" stroke="none" transform="matrix(1 0 0 1 538 280 )" />
  </g>
</svg>