<?xml version="1.0" encoding="utf-8"?>
<svg version="1.1" xmlns:xlink="http://www.w3.org/1999/xlink" width="21px" height="20px" preserveAspectRatio="xMinYMid meet" viewBox="500 573  21 18" xmlns="http://www.w3.org/2000/svg">
  <path d="M 509 582  L 515 582  A 2 2 0 0 0 517 580 A 2 2 0 0 1 519 578 L 663 578  " stroke-width="2" stroke="#0066ff" fill="none" />
  <path d="M 510.5 578.5  A 3.5 3.5 0 0 0 507 582 A 3.5 3.5 0 0 0 510.5 585.5 A 3.5 3.5 0 0 0 514 582 A 3.5 3.5 0 0 0 510.5 578.5 Z M 655.6 586  L 665 578  L 655.6 570  L 659.2 578  L 655.6 586  Z " fill-rule="nonzero" fill="#0066ff" stroke="none" />
</svg>