<?xml version="1.0" encoding="utf-8"?>
<svg version="1.1" xmlns:xlink="http://www.w3.org/1999/xlink" width="18px" height="18px" xmlns="http://www.w3.org/2000/svg">
  <g transform="matrix(1 0 0 1 -394 -282 )">
    <path d="M 15.261488372093021 1.2558139445132732  L 13.186046511627907 1.2558139445132732  C 12.839263064059734 1.2558139445132732  12.558139534883722 0.9746904173464039  12.558139534883722 0.6279069722566366  C 12.558139534883722 0.2811235271668692  12.839263064059734 0  13.186046511627907 0  L 15.261488372093021 0  C 16.772651162790698 0  18 1.2139534796961642  18 2.7159069573340386  L 18 4.813953453967548  C 18 5.160736899057314  17.718876470823986 5.441860426224183  17.372093023255815 5.441860426224183  C 17.02530957568764 5.441860426224183  16.74418604651163 5.160736899057314  16.74418604651163 4.813953453967548  L 16.74418604651163 2.7159069573340386  C 16.74418604651163 1.911348823549201  16.081953488372093 1.2558139445132732  15.261488372093021 1.2558139445132732  Z M 16.74418604651163 15.280744076837507  L 16.74418604651163 13.186046417389367  C 16.74418604651163 12.8392629722996  17.02530957568764 12.558139445132731  17.372093023255815 12.558139445132731  C 17.718876470823986 12.558139445132731  18 12.8392629722996  18 13.186046417389367  L 18 15.280744076837507  C 18 16.784371973068065  16.770139534883718 17.999999871356913  15.256465116279069 17.999999871356913  L 13.186046511627907 17.999999871356913  C 12.839263064059734 17.999999871356913  12.558139534883722 17.718876344190047  12.558139534883722 17.37209289910028  C 12.558139534883722 17.025309454010507  12.839263064059734 16.74418592684364  13.186046511627907 16.74418592684364  L 15.256465116279069 16.74418592684364  C 16.079441860465117 16.74418592684364  16.74418604651163 16.087813838511373  16.74418604651163 15.280744076837507  Z M 2.725953488372093 16.74418592684364  L 4.813953488372093 16.74418592684364  C 5.160736935940265 16.74418592684364  5.441860465116279 17.025309454010507  5.441860465116279 17.37209289910028  C 5.441860465116279 17.718876344190047  5.160736935940265 17.999999871356913  4.813953488372093 17.999999871356913  L 2.725953488372093 17.999999871356913  C 1.220402877999243 18  0.00046220647089124575 16.78043401182342  0 15.275720821059453  L 0 13.186046417389367  C 0 12.8392629722996  0.2811235291760135 12.558139445132731  0.627906976744186 12.558139445132731  C 0.9746904243123585 12.558139445132731  1.255813953488372 12.8392629722996  1.255813953488372 13.186046417389367  L 1.255813953488372 15.275720821059453  C 1.255813953488372 16.086976629215027  1.9138604651162785 16.74418592684364  2.725953488372093 16.74418592684364  Z M 1.255813953488372 2.6840930040730355  L 1.255813953488372 4.813953453967548  C 1.255813953488372 5.160736899057314  0.9746904243123585 5.441860426224183  0.627906976744186 5.441860426224183  C 0.2811235291760135 5.441860426224183  0 5.160736899057314  0 4.813953453967548  L 0 2.6840930040730355  C 0 1.2005581309546884  1.2114418604651165 0  2.7041860465116283 0  L 4.813953488372093 0  C 5.160736935940265 0  5.441860465116279 0.2811235271668692  5.441860465116279 0.6279069722566366  C 5.441860465116279 0.9746904173464039  5.160736935940265 1.2558139445132732  4.813953488372093 1.2558139445132732  L 2.7041860465116283 1.2558139445132732  C 1.902976744186047 1.2558139445132732  1.255813953488372 1.8962790562150422  1.255813953488372 2.6840930040730355  Z M 0.627906976744186 9.578511559450904  L 17.372093023255815 9.578511559450904  C 17.718876470823986 9.578511559450904  18 9.297388032284037  18 8.950604587194267  C 18 8.603821142104499  17.718876470823986 8.322697614937631  17.372093023255815 8.322697614937631  L 0.627906976744186 8.322697614937631  C 0.2811235291760135 8.322697614937631  0 8.603821142104499  0 8.950604587194267  C 0 9.297388032284037  0.2811235291760135 9.578511559450904  0.627906976744186 9.578511559450904  Z " fill-rule="nonzero" fill="#555555" stroke="none" transform="matrix(1 0 0 1 394 282 )" />
  </g>
</svg>