<?xml version="1.0" encoding="utf-8"?>
<svg version="1.1" xmlns:xlink="http://www.w3.org/1999/xlink" width="18px" height="18px" xmlns="http://www.w3.org/2000/svg">
  <g transform="matrix(1 0 0 1 -394 -324 )">
    <path d="M 16.065789473684212 17.265681818181818  C 16.065789473684212 17.627727272727274  15.78355263157895 17.920227272727274  15.434210526315788 17.920227272727274  C 15.08486842105263 17.920227272727274  14.800657894736842 17.625681818181818  14.800657894736842 17.263636363636365  C 14.800657894736842 13.395681818181817  11.765131578947367 10.249772727272727  8.032894736842106 10.249772727272727  C 4.300657894736844 10.249772727272727  1.2671052631578947 13.397727272727272  1.2671052631578947 17.265681818181818  C 1.2671052631578947 17.627727272727274  0.9828947368421053 17.922272727272727  0.6335526315789474 17.922272727272727  C 0.28421052631578947 17.920227272727274  0 17.62772727272727  0 17.265681818181818  C 0 16.142727272727274  0.2131578947368421 15.052499999999998  0.631578947368421 14.02568181818182  C 1.0361842105263157 13.033636363636365  1.6144736842105263 12.143863636363637  2.3526315789473684 11.378863636363636  C 3.090789473684211 10.613863636363638  3.9493421052631583 10.014545454545456  4.906578947368422 9.595227272727273  C 5.897368421052632 9.161590909090908  6.949342105263159 8.940681818181819  8.032894736842106 8.940681818181819  C 9.116447368421053 8.940681818181819  10.168421052631581 9.161590909090908  11.159210526315789 9.595227272727273  C 12.116447368421053 10.014545454545456  12.975 10.613863636363636  13.713157894736842 11.378863636363636  C 14.451315789473684 12.143863636363639  15.029605263157894 13.033636363636365  15.434210526315788 14.02568181818182  C 15.85263157894737 15.0525  16.065789473684212 16.142727272727274  16.065789473684212 17.265681818181818  Z M 14.419736842105264 9.88363636363636  C 14.352631578947369 9.90613636363636  14.283552631578948 9.916363636363632  14.216447368421052 9.916363636363636  C 13.953947368421053 9.916363636363636  13.707236842105264 9.744545454545454  13.616447368421053 9.472499999999998  C 13.503947368421052 9.128863636363635  13.679605263157896 8.756590909090908  14.011184210526315 8.639999999999999  C 15.663157894736843 8.054999999999998  16.73092105263158 6.662045454545454  16.73092105263158 5.093181818181816  C 16.73092105263158 3.2952272727272702  15.28421052631579 1.7222727272727245  13.292763157894736 1.3540909090909066  C 12.949342105263158 1.2906818181818156  12.718421052631577 0.9490909090909063  12.779605263157894 0.5931818181818155  C 12.840789473684211 0.23727272727272483  13.170394736842104 -0.002045454545457336  13.513815789473686 0.06136363636363375  C 14.749342105263159 0.2904545454545429  15.876315789473686 0.9040909090909065  16.689473684210526 1.7938636363636338  C 17.532236842105267 2.714318181818179  17.996052631578948 3.886363636363634  17.996052631578948 5.093181818181816  C 17.996052631578948 6.1609090909090884  17.64276315789474 7.183636363636361  16.97565789473684 8.052954545454542  C 16.336184210526316 8.885454545454543  15.451973684210527 9.517499999999997  14.419736842105264 9.88363636363636  Z " fill-rule="nonzero" fill="#555555" stroke="none" transform="matrix(1 0 0 1 394 324 )" />
  </g>
</svg>