<?xml version="1.0" encoding="utf-8"?>
<svg version="1.1" xmlns:xlink="http://www.w3.org/1999/xlink" width="18px" height="17px" xmlns="http://www.w3.org/2000/svg">
  <g transform="matrix(1 0 0 1 -397 -324 )">
    <path d="M 17.999999999999996 16.209254807692307  C 17.999999999999996 16.570913461538463  17.705454545454543 16.865144230769232  17.34340909090909 16.865144230769232  C 16.981363636363636 16.865144230769232  16.686818181818182 16.570913461538463  16.686818181818182 16.209254807692307  C 16.686818181818182 13.105528846153845  14.158636363636361 10.582091346153845  11.053636363636363 10.582091346153845  C 10.691590909090907 10.582091346153845  10.397045454545452 10.287860576923078  10.397045454545452 9.926201923076922  C 10.397045454545452 9.564543269230768  10.691590909090907 9.270312499999998  11.053636363636363 9.270312499999998  C 11.990454545454543 9.270312499999998  12.900681818181818 9.45420673076923  13.75772727272727 9.815865384615384  C 14.584090909090907 10.165264423076922  15.328636363636361 10.665865384615385  15.964772727272726 11.303365384615384  C 16.602954545454544 11.940865384615384  17.104090909090907 12.682572115384612  17.453863636363632 13.508052884615383  C 17.815909090909088 14.36418269230769  17.999999999999996 15.273437499999998  17.999999999999996 16.209254807692307  Z M 2.5159090909090907 2.5152644230769234  C 3.2809090909090903 1.7510817307692312  4.2975 1.3301682692307697  5.379545454545455 1.3301682692307693  C 6.4615909090909085 1.3301682692307693  7.4781818181818185 1.7510817307692303  8.243181818181817 2.515264423076923  C 9.008181818181816 3.2794471153846154  9.429545454545453 4.294951923076923  9.429545454545453 5.375841346153846  C 9.429545454545453 6.456730769230771  9.008181818181816 7.472235576923079  8.243181818181817 8.23641826923077  C 7.4781818181818185 9.000600961538462  6.4615909090909085 9.421514423076923  5.379545454545455 9.421514423076923  C 4.2975 9.421514423076923  3.2809090909090903 9.000600961538462  2.5159090909090907 8.23641826923077  C 1.7509090909090914 7.472235576923079  1.3295454545454546 6.456730769230769  1.3295454545454546 5.375841346153846  C 1.3295454545454546 4.2949519230769235  1.7509090909090907 3.279447115384616  2.5159090909090907 2.5152644230769234  Z M 10.738636363636363 5.375841346153846  C 10.738636363636363 2.41923076923077  8.339318181818182 0.022475961538462003  5.379545454545455 0.022475961538462003  C 2.419772727272728 0.022475961538462003  0.020454545454545454 2.41923076923077  0.020454545454545454 5.375841346153846  C 0.020454545454545454 8.332451923076924  2.419772727272728 10.729206730769231  5.379545454545455 10.729206730769231  C 8.339318181818182 10.729206730769231  10.738636363636363 8.332451923076924  10.738636363636363 5.375841346153846  Z " fill-rule="nonzero" fill="#555555" stroke="none" transform="matrix(1 0 0 1 397 324 )" />
  </g>
</svg>