<?xml version="1.0" encoding="utf-8"?>
<svg version="1.1" xmlns:xlink="http://www.w3.org/1999/xlink" width="17px" height="18px" xmlns="http://www.w3.org/2000/svg">
  <g transform="matrix(1 0 0 1 -394 -364 )">
    <path d="M 5.230769230769231 4.666666666666666  C 5.230769230769231 6.5  6.701923076923077 8  8.5 8  C 10.298076923076922 8  11.769230769230768 6.5  11.769230769230768 4.666666666666666  C 11.769230769230768 2.8333333333333335  10.298076923076922 1.3333333333333333  8.5 1.3333333333333333  C 6.701923076923077 1.3333333333333333  5.230769230769231 2.8333333333333335  5.230769230769231 4.666666666666666  Z M 11.115384615384615 14  L 13.076923076923078 14  L 13.076923076923078 12  C 13.076923076923078 11.633333333333333  13.371153846153845 11.333333333333334  13.730769230769232 11.333333333333334  C 14.090384615384616 11.333333333333334  14.384615384615385 11.633333333333333  14.384615384615385 12  L 14.384615384615385 14  L 16.346153846153847 14  C 16.70576923076923 14  17 14.299999999999999  17 14.666666666666666  C 17 15.033333333333335  16.70576923076923 15.333333333333334  16.346153846153847 15.333333333333334  L 14.384615384615385 15.333333333333334  L 14.384615384615385 17.333333333333332  C 14.384615384615385 17.700000000000003  14.090384615384616 18  13.730769230769232 18  C 13.371153846153845 18  13.076923076923078 17.700000000000003  13.076923076923078 17.333333333333332  L 13.076923076923078 15.333333333333334  L 11.115384615384615 15.333333333333334  C 10.75576923076923 15.333333333333334  10.461538461538462 15.033333333333335  10.461538461538462 14.666666666666666  C 10.461538461538462 14.299999999999999  10.75576923076923 14  11.115384615384615 14  Z M 11.344230769230771 8.333333333333334  C 11.834615384615386 8.466666666666665  12.325000000000001 8.666666666666666  12.75 8.899999999999999  C 12.946153846153848 9.033333333333333  13.076923076923078 9.233333333333334  13.076923076923078 9.466666666666667  C 13.076923076923078 9.833333333333332  12.782692307692308 10.133333333333333  12.423076923076922 10.133333333333333  C 12.292307692307691 10.133333333333333  12.194230769230767 10.099999999999998  12.096153846153847 10.033333333333335  C 11.213461538461539 9.566666666666668  10.232692307692307 9.333333333333332  9.153846153846153 9.333333333333332  L 7.846153846153847 9.333333333333332  C 4.25 9.333333333333332  1.3076923076923077 12.333333333333334  1.3076923076923077 16  C 1.3076923076923077 16.366666666666667  1.6019230769230772 16.666666666666668  1.9615384615384617 16.666666666666668  L 9.807692307692307 16.666666666666668  C 10.167307692307691 16.666666666666668  10.461538461538462 16.966666666666665  10.461538461538462 17.333333333333332  C 10.461538461538462 17.700000000000003  10.167307692307691 18  9.807692307692307 18  L 1.9615384615384617 18  C 0.8826923076923076 18  0 17.099999999999998  0 16  C 0 12.366666666666667  2.3865384615384615 9.299999999999999  5.6557692307692315 8.333333333333334  C 4.609615384615386 7.466666666666667  3.9230769230769234 6.166666666666667  3.9230769230769234 4.666666666666666  C 3.9230769230769234 2.1  5.982692307692308 0  8.5 0  C 11.017307692307693 0  13.076923076923078 2.1  13.076923076923078 4.666666666666666  C 13.076923076923078 6.133333333333333  12.390384615384615 7.466666666666667  11.344230769230771 8.333333333333334  Z " fill-rule="nonzero" fill="#555555" stroke="none" transform="matrix(1 0 0 1 394 364 )" />
  </g>
</svg>