<?xml version="1.0" encoding="utf-8"?>
<svg version="1.1" xmlns:xlink="http://www.w3.org/1999/xlink" width="12px" height="12px" xmlns="http://www.w3.org/2000/svg">
  <g transform="matrix(1 0 0 1 -665 -310 )">
    <path d="M 0 6  C 0 2.686285714285715  2.686285714285715 0  6 0  C 9.313714285714285 0  12 2.686285714285715  12 6  C 12 9.313714285714285  9.313714285714285 12  6 12  C 2.686285714285715 12  0 9.313714285714285  0 6  Z M 11.142857142857142 6  C 11.142857142857142 3.1596830357142855  8.840316964285714 0.8571428571428571  6 0.8571428571428571  C 3.1596830357142855 0.8571428571428571  0.8571428571428571 3.1596830357142855  0.8571428571428571 6  C 0.8571428571428571 8.840316964285714  3.1596830357142855 11.142857142857142  6 11.142857142857142  C 8.840316964285714 11.142857142857142  11.142857142857142 8.840316964285714  11.142857142857142 6  Z M 6.4283705357142855 3.8575848214285715  C 6.4283705357142855 3.620638392857143  6.236544642857143 3.4285714285714284  5.99990625 3.4285714285714284  C 5.763254464285714 3.4285714285714284  5.571428571428571 3.620638392857143  5.571428571428571 3.8575848214285715  L 5.571428571428571 5.83134375  C 5.571425784409502 6.059611926679231  5.662475039698549 6.278452147539678  5.824392857142857 6.43935267857143  L 7.278629464285714 7.884415178571429  C 7.446575892857142 8.051316964285714  7.717874999999999 8.050299107142859  7.884575892857144 7.882125  C 8.051276785714286 7.713950892857143  8.050245535714286 7.442316964285714  7.882285714285714 7.275428571428574  L 6.554866071428571 5.956366071428572  C 6.473898955250892 5.87591473898029  6.428369119558758 5.766488876596867  6.428370535714285 5.652348214285715  L 6.428370535714285 3.85757142857143  Z " fill-rule="nonzero" fill="#7f7f7f" stroke="none" transform="matrix(1 0 0 1 665 310 )" />
  </g>
</svg>