<?xml version="1.0" encoding="utf-8"?>
<svg version="1.1" xmlns:xlink="http://www.w3.org/1999/xlink" width="20px" height="20px" xmlns="http://www.w3.org/2000/svg">
  <g transform="matrix(1 0 0 1 -823 -968 )">
    <path d="M 19.9672131147541 8.331803278688524  C 19.88327868852459 6.180983606557378  18.980983606557377 4.135081967213114  17.449180327868852 2.6137704918032783  L 17.4072131147541 2.6137704918032783  C 15.959344262295083 1.1659016393442623  14.039344262295081 0.2845901639344262  11.993442622950818 0.1481967213114754  L 11.993442622950818 8.331803278688524  L 19.9672131147541 8.331803278688524  Z M 10.524590163934427 9.685245901639345  L 10.524590163934427 0.31606557377049177  L 9.92655737704918 0.31606557377049177  C 4.512786885245902 0.31606557377049177  0.1167213114754092 4.701639344262295  0.1167213114754092 10.115409836065574  C 0.1167213114754092 15.539672131147542  4.512786885245901 19.925245901639347  9.92655737704918 19.925245901639347  C 15.287868852459017 19.946229508196723  19.662950819672133 15.644590163934428  19.73639344262295 10.283278688524591  L 19.73639344262295 9.685245901639345  L 10.524590163934427 9.685245901639345  Z M 9.328524590163935 10.933770491803278  L 18.498360655737706 10.933770491803278  C 18.32 12.979672131147542  17.41770491803279 14.910163934426228  15.938360655737704 16.347540983606557  L 15.896393442622951 16.347540983606557  C 14.301639344262295 17.910819672131147  12.161311475409835 18.781639344262295  9.926557377049182 18.781639344262295  C 5.163278688524592 18.781639344262295  1.3127868852459033 14.931147540983607  1.3127868852459033 10.167868852459016  C 1.2813114754098376 5.635409836065575  4.796065573770495 1.847868852459016  9.328524590163935 1.5540983606557384  L 9.328524590163935 10.933770491803278  Z " fill-rule="nonzero" fill="#7f7f7f" stroke="none" transform="matrix(1 0 0 1 823 968 )" />
  </g>
</svg>