<?xml version="1.0" encoding="utf-8"?>
<svg version="1.1" xmlns:xlink="http://www.w3.org/1999/xlink" width="17px" height="16px" xmlns="http://www.w3.org/2000/svg">
  <g transform="matrix(1 0 0 1 -986 -596 )">
    <path d="M 2.4716311981382972 0  L 15.9751773125 0  C 16.507877492067333 0.09876543615342168  16.939716304521276 0.4525157570428804  17 0.8888888888888888  L 17 15.111111111111112  C 16.939716304521273 15.547484242957122  16.50787749206733 15.901234563846579  15.9751773125 16  L 2.4716311981382977 16  C 1.9389310185709638 15.901234563846579  1.5070922061170238 15.547484242957122  1.5070922061170215 15.11111111111111  L 1.5070922061170215 12.74074074074074  L 2.9539007167553195 12.74074074074074  L 2.9539007167553195 14.716049388888889  L 15.49290779388298 14.716049388888889  L 15.49290779388298 1.2839506111111112  L 2.953900716755319 1.2839506111111112  L 2.953900716755319 2.8641975370370374  L 1.507092206117021 2.8641975370370374  L 1.507092206117021 0.8888888888888888  C 1.507092206117021 0.45251575704288016  1.9389310185709618 0.09876543615342194  2.4716311981382972 0  Z M 0.5425531914893617 10.37037037037037  L 2.4716311981382977 10.37037037037037  C 2.7379813086999385 10.37037037037037  2.953900716755319 10.54724552816737  2.953900716755319 10.765432092592594  L 2.953900716755319 11.160493833333335  C 2.953900716755319 11.378680397758558  2.7379813086999385 11.555555555555555  2.471631220744681 11.555555555555555  L 0.5425531914893617 11.555555555555555  C 0.2762031035341037 11.555555555555555  0.0602836954787235 11.378680397758558  0.0602836954787235 11.160493833333335  L 0.0602836954787235 10.765432092592594  C 0.0602836954787235 10.54724552816737  0.2762031035341037 10.37037037037037  0.5425531914893617 10.37037037037037  Z M 6.81350610632541 6.025085792274864  C 6.81350610632541 4.93455265920379  7.892142160795578 4.050256131910298  9.223404255319148 4.049382722222223  C 9.224005266320688 4.0493823540918505  9.224606277470743 4.049382170026645  9.225207288640293 4.049382170026645  C 10.556957753386904 4.049382170026645  11.636554813906251 4.933757975593691  11.636554813906251 6.024690818174793  C 11.636554813906251 6.922957485126241  10.8966934040182 7.708116874166119  9.835886517287234 7.935604944444445  C 11.993318528178873 8.180762600963815  13.619308608921434 9.666198301909722  13.682468085106384 11.449679018518518  L 13.684397155585108 11.555555555555555  L 12.47872340425532 11.555555555555554  C 12.47872393112212 11.55493616917704  12.478724194555541 11.554316782669181  12.478724194555541 11.553697396140295  C 12.478724194555541 10.08093806325818  11.021268167408977 8.88703072947363  9.223405045619375 8.88703072947363  C 7.46914647013856 8.88703072947363  6.030385760089719 10.025737448277356  5.970014176861702 11.461925925925925  L 5.968085106382979 11.555555555555555  L 4.762411355053192 11.555555555555555  C 4.762411355053192 9.707851851851853  6.4368510638297876 8.180148148148149  8.610921993351065 7.935604944444446  C 7.551678169997049 7.707015645479901  6.81350610632541 6.922393747219644  6.81350610632541 6.025085792274864  Z M 0.5425531914893617 7.2098765370370375  L 2.4716311981382972 7.2098765370370375  C 2.73798130869994 7.209876537037037  2.9539007167553204 7.386751694834037  2.9539007167553204 7.604938259259258  L 2.953900716755319 8  C 2.953900716755319 8.218186564425222  2.7379813086999385 8.395061722222223  2.471631220744681 8.395061722222223  L 0.5425531914893617 8.395061722222223  C 0.27620310353410144 8.395061722222223  0.0602836954787235 8.218186564425222  0.0602836954787235 8  L 0.0602836954787235 7.604938277777778  C 0.060283695478722844 7.386751694834037  0.27620310353410304 7.209876537037037  0.5425531914893614 7.209876537037037  C 1.8286051808510635 7.209876537037037  -0.7434987978723359 7.209876537037037  0.5425531914893617 7.2098765370370375  Z M 9.223404255319148 5.037037037037037  C 8.557529022945843 5.037037037037037  8.01773049268617 5.479224939820561  8.01773049268617 6.0246913611111115  C 8.01773049268617 6.5701577824016635  8.557529022945843 7.012345685185187  9.223404255319148 7.012345685185187  C 9.889279487692455 7.012345685185187  10.429078017952127 6.5701577824016635  10.429078017952127 6.0246913611111115  C 10.429078017952127 5.479224939820561  9.889279487692455 5.037037037037037  9.223404255319148 5.037037037037037  Z M 0.5425531914893617 4.049382722222223  L 2.4716311981382977 4.049382722222223  C 2.7379813086999385 4.049382722222221  2.953900716755319 4.226257880019221  2.953900716755319 4.444444444444445  L 2.953900716755319 4.839506166666667  C 2.953900716755319 5.057692749610407  2.7379813086999385 5.234567907407406  2.471631220744681 5.234567907407406  L 0.5425531914893617 5.234567907407406  C 0.27620310353410304 5.234567907407406  0.060283695478722844 5.057692749610407  0.060283695478722844 4.839506185185185  L 0.0602836954787235 4.444444444444445  C 0.0602836954787235 4.226257880019222  0.2762031035341037 4.049382722222223  0.5425531914893617 4.049382722222223  Z " fill-rule="nonzero" fill="#0066ff" stroke="none" transform="matrix(1 0 0 1 986 596 )" />
  </g>
</svg>