<?xml version="1.0" encoding="utf-8"?>
<svg version="1.1" xmlns:xlink="http://www.w3.org/1999/xlink" width="5px" height="5px" xmlns="http://www.w3.org/2000/svg">
  <g transform="matrix(1 0 0 1 -707 -972 )">
    <path d="M 2.5 0.10101009469697042  C 1.119288125423017 0.10101009469697042  0 1.1863803981374716  0 2.5252525189393946  C 0 3.8641246397413176  1.119288125423017 4.949494943181819  2.5 4.949494943181819  C 3.880711874576983 4.949494943181819  5 3.8641246397413176  5 2.5252525189393946  C 5 1.1863803981374716  3.880711874576983 0.10101009469697042  2.5 0.10101009469697042  Z M 1.6667942377499712 2.5252525284090916  C 1.6667942377499712 2.079010129610111  2.039812531631373 1.717240040122062  2.5 1.717171723484849  C 2.9603648727149867 1.717171714015152  3.333460917437472 2.078961817988471  3.333460917437472 2.5252525284090916  C 3.333460917437472 2.971543238829711  2.9603648727149867 3.3333333428030305  2.5001275775937204 3.3333333428030305  C 2.039812531631373 3.3332650166961213  1.6667942377499712 2.971494927208071  1.6667942377499712 2.5252525284090916  Z " fill-rule="nonzero" fill="#0066ff" stroke="none" transform="matrix(1 0 0 1 707 972 )" />
  </g>
</svg>