<?xml version="1.0" encoding="utf-8"?>
<svg version="1.1" xmlns:xlink="http://www.w3.org/1999/xlink" width="12px" height="12px" xmlns="http://www.w3.org/2000/svg">
  <g transform="matrix(1 0 0 1 -794 -310 )">
    <path d="M 3.8866071428571427 0.9950892857142859  C 4.554910714285714 0.7125000000000002  5.266071428571428 0.5691964285714288  6.000000000000002 0.5691964285714286  C 6.733928571428573 0.5691964285714286  7.445089285714287 0.7125  8.113392857142856 0.9950892857142859  C 8.760267857142857 1.2683035714285715  9.340178571428574 1.6607142857142858  9.839732142857144 2.1589285714285715  C 10.339285714285715 2.658482142857143  10.730357142857144 3.2383928571428573  11.003571428571426 3.885267857142857  C 11.286160714285714 4.554910714285715  11.429464285714284 5.266071428571429  11.429464285714284 5.998660714285714  C 11.429464285714284 6.731249999999999  11.286160714285712 7.4437500000000005  11.003571428571426 8.112053571428572  C 10.730357142857144 8.758928571428571  10.337946428571428 9.338839285714286  9.839732142857144 9.838392857142857  C 9.340178571428574 10.337946428571428  8.760267857142857 10.729017857142857  8.113392857142856 11.002232142857142  C 7.44375 11.28482142857143  6.732589285714286 11.428125  6 11.428125  C 5.266071428571428 11.428125  4.554910714285714 11.284821428571426  3.8866071428571427 11.002232142857142  C 3.239732142857143 10.729017857142857  2.659821428571428 10.336607142857142  2.160267857142857 9.838392857142857  C 1.6607142857142858 9.338839285714286  1.2696428571428569 8.758928571428571  0.996428571428571 8.112053571428572  C 0.7138392857142855 7.442410714285714  0.570535714285714 6.731249999999999  0.570535714285714 5.998660714285714  C 0.570535714285714 5.266071428571429  0.7138392857142855 4.553571428571429  0.996428571428571 3.885267857142857  C 1.2696428571428569 3.2383928571428573  1.662053571428571 2.658482142857143  2.160267857142857 2.1589285714285715  C 2.659821428571428 1.6593750000000007  3.239732142857143 1.2683035714285715  3.8866071428571427 0.9950892857142859  Z M 12 6  C 12 2.6866071428571434  9.313392857142858 0  6 0  C 2.686607142857144 0  0 2.6866071428571434  0 6  C 0 9.313392857142857  2.686607142857144 12  6.000000000000002 12  C 9.313392857142858 12  12 9.313392857142857  12 6  Z M 7.112946428571426 4.059375  C 7.112946428571426 4.6727678571428575  6.6133928571428555 5.170982142857143  6.000000000000002 5.170982142857143  C 5.386607142857144 5.170982142857143  4.887053571428572 4.671428571428572  4.887053571428572 4.058035714285714  C 4.887053571428572 3.444642857142857  5.386607142857144 2.9450892857142854  6.000000000000002 2.9450892857142854  C 6.210267857142859 2.9450892857142854  6.416517857142858 3.0040178571428564  6.593303571428573 3.116517857142857  C 6.699107142857143 3.1834821428571427  6.731249999999999 3.3241071428571427  6.664285714285713 3.4312500000000004  C 6.597321428571428 3.538392857142857  6.456696428571428 3.5691964285714284  6.349553571428571 3.5022321428571423  C 6.245089285714286 3.436607142857143  6.123214285714286 3.4017857142857144  5.998660714285714 3.4017857142857144  C 5.635714285714285 3.4017857142857144  5.3410714285714285 3.6964285714285716  5.3410714285714285 4.059375  C 5.3410714285714285 4.422321428571429  5.635714285714285 4.716964285714287  5.998660714285714 4.716964285714287  C 6.361607142857143 4.716964285714287  6.656249999999998 4.422321428571429  6.656249999999998 4.059375  C 6.656249999999998 4.037946428571429  6.654910714285714 4.015178571428572  6.653571428571428 3.993750000000001  C 6.641517857142856 3.8691964285714295  6.732589285714285 3.756696428571429  6.858482142857142 3.744642857142857  C 6.9830357142857125 3.732589285714287  7.095535714285714 3.8236607142857144  7.107589285714283 3.949553571428572  C 7.111607142857139 3.985714285714286  7.112946428571426 4.023214285714286  7.112946428571426 4.059375  Z M 4.980803571428574 7.647321428571429  C 4.982142857142859 8.260714285714286  4.482589285714288 8.760267857142857  3.8678571428571438 8.760267857142857  C 3.2544642857142865 8.760267857142857  2.7549107142857157 8.260714285714286  2.7549107142857157 7.647321428571429  C 2.7549107142857157 7.0339285714285715  3.2544642857142874 6.534375000000001  3.8678571428571447 6.534375000000001  C 4.481250000000002 6.534375000000001  4.980803571428574 7.0339285714285715  4.980803571428574 7.647321428571429  Z M 4.5254464285714295 7.64732142857143  C 4.5254464285714295 7.284375000000002  4.230803571428573 6.989732142857143  3.8678571428571438 6.989732142857143  C 3.5049107142857148 6.989732142857143  3.2102678571428576 7.284375000000002  3.2102678571428576 7.64732142857143  C 3.2102678571428576 8.010267857142859  3.5049107142857148 8.304910714285716  3.8678571428571438 8.304910714285716  C 4.230803571428573 8.304910714285716  4.5254464285714295 8.010267857142859  4.5254464285714295 7.64732142857143  Z M 9.24375 7.647321428571429  C 9.245089285714288 8.260714285714286  8.745535714285715 8.760267857142857  8.130803571428572 8.760267857142857  C 7.517410714285717 8.760267857142857  7.017857142857143 8.260714285714286  7.017857142857143 7.647321428571429  C 7.017857142857143 7.0339285714285715  7.517410714285714 6.534375000000001  8.130803571428572 6.534375000000001  C 8.74419642857143 6.534375000000001  9.24375 7.0339285714285715  9.24375 7.647321428571429  Z M 8.788392857142858 7.64732142857143  C 8.788392857142858 7.284375000000002  8.49375 6.989732142857143  8.130803571428572 6.989732142857143  C 7.767857142857143 6.989732142857143  7.473214285714285 7.284375000000002  7.473214285714285 7.64732142857143  C 7.473214285714285 8.010267857142859  7.767857142857143 8.304910714285716  8.130803571428572 8.304910714285716  C 8.49375 8.304910714285716  8.788392857142858 8.010267857142859  8.788392857142858 7.64732142857143  Z M 8.375892857142858 6.76205357142857  C 8.37455357142857 6.887946428571428  8.272767857142858 6.989732142857142  8.146875 6.989732142857142  C 8.020982142857143 6.989732142857142  7.919196428571428 6.887946428571428  7.919196428571428 6.76205357142857  L 7.919196428571428 6.095089285714286  L 4.0808035714285715 6.095089285714286  L 4.0808035714285715 6.76205357142857  C 4.0808035714285715 6.887946428571428  3.979017857142857 6.989732142857142  3.853125000000001 6.989732142857142  C 3.7272321428571438 6.989732142857142  3.625446428571429 6.887946428571428  3.625446428571429 6.76205357142857  L 3.625446428571429 5.867410714285714  C 3.625446428571429 5.741517857142857  3.7272321428571438 5.6397321428571425  3.853125000000001 5.6397321428571425  L 8.148214285714287 5.6397321428571425  C 8.274107142857142 5.6397321428571425  8.375892857142858 5.741517857142857  8.375892857142858 5.867410714285714  L 8.375892857142858 6.76205357142857  Z M 6.227678571428571 5.867410714285715  C 6.227678571428571 5.993303571428571  6.125892857142857 6.095089285714286  6.000000000000002 6.095089285714286  C 5.874107142857143 6.095089285714286  5.772321428571429 5.993303571428571  5.772321428571429 5.867410714285715  L 5.772321428571429 4.944642857142858  C 5.772321428571429 4.818750000000001  5.874107142857143 4.716964285714287  6.000000000000002 4.716964285714287  C 6.125892857142857 4.716964285714287  6.227678571428571 4.818750000000001  6.227678571428571 4.944642857142858  L 6.227678571428571 5.867410714285715  Z " fill-rule="nonzero" fill="#7f7f7f" stroke="none" transform="matrix(1 0 0 1 794 310 )" />
  </g>
</svg>