<?xml version="1.0" encoding="utf-8"?>
<svg version="1.1" xmlns:xlink="http://www.w3.org/1999/xlink" width="20px" height="20px" xmlns="http://www.w3.org/2000/svg">
  <g transform="matrix(1 0 0 1 -699 -968 )">
    <path d="M 16.29416666015625 13.421666660156253  C 16.671915139372576 13.232695145469789  17.131305666467046 13.356225722178618  17.36333333984375 13.70916666015625  L 17.41166666015625 13.794166660156248  L 19.91166666015625 18.79416666015625  C 19.969387986022276 18.90977095443298  19.999435622738197 19.037214203735736  19.999435622738197 19.166427609831825  C 19.999435622738197 19.589372068734146  19.68260517042007 19.945241604177724  19.2625 19.99416666015625  L 19.166666660156253 20  L 0.8333333398437499 20  C 0.3731166451277703 19.999970869044297  5.274862219667674E-05 19.62688335746365  5.274862219667674E-05 19.1666666618257  C 5.274862219667674E-05 19.06976083791555  0.0169551148677429 18.97359760849935  0.049999999999999906 18.8825  L 0.0883333398437499 18.79416666015625  L 2.5883333398437496 13.794166660156254  C 2.7294091335046406 13.511613915324885  3.018087001788307 13.333087848081458  3.3339009235346255 13.333087848081458  C 3.79413821865589 13.333087848081458  4.167234263378376 13.706183892803942  4.167234263378376 14.16642118792521  C 4.167234263378376 14.263117014979873  4.150405065065431 14.359075087776642  4.1175 14.450000000000001  L 4.078333339843749 14.539166660156251  L 2.18166666015625 18  L 17.8175 18  L 15.921666660156252 14.539166660156251  C 15.732695157226221 14.161418185822587  15.856225732672545 13.7020276718152  16.20916666015625 13.469999999999999  L 16.29416666015625 13.421666660156253  Z M 3.3333333398437492 6.66666666015625  C 3.3333333398437492 2.984768331546564  6.3181016713903135 0  10 0  C 13.681898328609687 0  16.66666666015625 2.984768331546564  16.666666660156253 6.66666666015625  C 16.666666660156253 9.1033333203125  14.628333320312501 12.305833320312498  10.595 16.416666660156253  C 10.438276527835672 16.576491333052424  10.223844081435299 16.666545241432434  10.000000000000002 16.666545241432434  C 9.776155918564704 16.666545241432434  9.561723472164331 16.576491333052424  9.405000000000001 16.41666666015625  C 5.37166666015625 12.305833339843751  3.3333333398437497 9.10333333984375  3.3333333398437492 6.66666666015625  Z M 15 6.66666666015625  C 15 3.9052429110022824  12.761423749153966 1.6666666601562496  10 1.6666666601562499  C 7.238576250846033 1.6666666601562499  5 3.9052429110022824  5 6.66666666015625  C 5 8.29416666015625  6.41833333984375 10.725  9.28333333984375 13.864999999999998  L 9.80333333984375 14.426666660156249  L 10 14.63416666015625  L 10.19666666015625 14.426666660156249  C 13.325833320312501 11.103333320312498  14.915000000000001 8.528333320312498  14.99666666015625 6.804166660156249  L 15 6.66666666015625  Z " fill-rule="nonzero" fill="#0066ff" stroke="none" transform="matrix(1 0 0 1 699 968 )" />
  </g>
</svg>