<?xml version="1.0" encoding="utf-8"?>
<svg version="1.1" xmlns:xlink="http://www.w3.org/1999/xlink" width="19px" height="30px" xmlns="http://www.w3.org/2000/svg">
  <g transform="matrix(1 0 0 1 -1813 -390 )">
    <path d="M 17.591964285714287 13.844866071428571  C 18.392678571428572 12.48549107142857  18.854107142857146 10.915178571428571  18.854107142857146 9.231026785714286  C 18.854107142857146 4.131696428571429  14.667321428571427 0  9.5 0  C 4.336071428571429 0  0.14589285714285752 4.131696428571429  0.14589285714285752 9.231026785714286  C 0.14589285714285752 10.915178571428571  0.6107142857142857 12.48549107142857  1.4080357142857143 13.844866071428571  L 1.3978571428571425 13.844866071428571  L 9.496607142857142 30  L 17.602142857142855 13.844866071428571  L 17.591964285714287 13.844866071428571  Z M 14.178750000000004 9.231026785714288  C 14.178750000000004 11.77901785714286  12.085357142857143 13.844866071428573  9.503392857142858 13.844866071428571  C 6.921428571428571 13.844866071428571  4.828035714285715 11.779017857142858  4.828035714285715 9.231026785714286  C 4.828035714285715 6.683035714285713  6.921428571428571 4.6171875  9.503392857142858 4.6171875  C 12.088750000000001 4.6171875  14.178750000000004 6.683035714285714  14.178750000000004 9.231026785714288  Z " fill-rule="nonzero" fill="#f59a23" stroke="none" transform="matrix(1 0 0 1 1813 390 )" />
  </g>
</svg>