<?xml version="1.0" encoding="utf-8"?>
<svg version="1.1" xmlns:xlink="http://www.w3.org/1999/xlink" width="6px" height="12px" xmlns="http://www.w3.org/2000/svg">
  <g transform="matrix(1 0 0 1 -1716 -328 )">
    <path d="M 5.799107142857142 11.524553571428571  C 5.71875 11.564732142857142  5.638392857142858 11.604910714285715  5.578125 11.604910714285715  C 5.4977678571428585 11.604910714285715  5.417410714285715 11.584821428571429  5.357142857142858 11.524553571428571  L 0.1540178571428579 6.301339285714285  C 0.07366071428571466 6.220982142857143  0.03348214285714362 6.100446428571429  0.03348214285714362 6  C 0.03348214285714362 5.899553571428571  0.07366071428571466 5.779017857142858  0.1540178571428579 5.698660714285714  L 5.357142857142858 0.47544642857142855  C 5.477678571428571 0.3549107142857143  5.658482142857142 0.3549107142857143  5.779017857142858 0.47544642857142855  C 5.899553571428573 0.5959821428571428  5.899553571428573 0.7767857142857144  5.779017857142858 0.8973214285714286  L 0.6964285714285714 6  L 5.799107142857142 11.102678571428571  C 5.919642857142858 11.223214285714285  5.919642857142858 11.404017857142858  5.799107142857142 11.524553571428571  Z " fill-rule="nonzero" fill="#81878f" stroke="none" transform="matrix(1 0 0 1 1716 328 )" />
  </g>
</svg>