<?xml version="1.0" encoding="utf-8"?>
<svg version="1.1" xmlns:xlink="http://www.w3.org/1999/xlink" width="14px" height="14px" xmlns="http://www.w3.org/2000/svg">
  <g transform="matrix(1 0 0 1 -1633 -326 )">
    <path d="M 14 1.305084745762712  L 11.42922033898305 1.305084745762712  L 11.42922033898305 0.03938983050847456  L 10.163525423728812 0.03938983050847456  L 10.163525423728812 1.305084745762712  L 3.8360000000000003 1.305084745762712  L 3.8360000000000003 0.03938983050847456  L 2.5703050847457627 0.03938983050847456  L 2.5703050847457627 1.305084745762712  L 0 1.305084745762712  L 0 14  L 14 14  L 14 1.305084745762712  Z M 12.694915254237289 5.101694915254237  L 12.694915254237289 12.694915254237289  L 1.305084745762712 12.694915254237289  L 1.305084745762712 5.101694915254237  L 12.694915254237289 5.101694915254237  Z M 2.5707796610169487 8.265694915254237  L 2.5707796610169487 6.367389830508475  L 4.469084745762712 6.367389830508475  L 4.469084745762712 8.265694915254237  L 2.5707796610169487 8.265694915254237  Z M 6.0508474576271185 8.265694915254237  L 6.0508474576271185 6.367389830508475  L 7.949152542372882 6.367389830508475  L 7.949152542372882 8.265694915254237  L 6.0508474576271185 8.265694915254237  Z M 9.530915254237287 8.265694915254237  L 9.530915254237287 6.367389830508475  L 11.42922033898305 6.367389830508475  L 11.42922033898305 8.265694915254237  L 9.530915254237287 8.265694915254237  Z M 2.5707796610169487 11.42922033898305  L 2.5707796610169487 9.530915254237287  L 4.469084745762712 9.530915254237287  L 4.469084745762712 11.42922033898305  L 2.5707796610169487 11.42922033898305  Z M 6.0508474576271185 11.42922033898305  L 6.0508474576271185 9.530915254237287  L 7.949152542372882 9.530915254237287  L 7.949152542372882 11.42922033898305  L 6.0508474576271185 11.42922033898305  Z M 9.530915254237287 11.42922033898305  L 9.530915254237287 9.530915254237287  L 11.42922033898305 9.530915254237287  L 11.42922033898305 11.42922033898305  L 9.530915254237287 11.42922033898305  Z " fill-rule="nonzero" fill="#999999" stroke="none" transform="matrix(1 0 0 1 1633 326 )" />
  </g>
</svg>