<?xml version="1.0" encoding="utf-8"?>
<svg version="1.1" xmlns:xlink="http://www.w3.org/1999/xlink" width="60px" height="60px" xmlns="http://www.w3.org/2000/svg">
  <g transform="matrix(1 0 0 1 -1133 -550 )">
    <path d="M 1134 560  A 9 9 0 0 1 1143 551 L 1183 551  A 9 9 0 0 1 1192 560 L 1192 600  A 9 9 0 0 1 1183 609 L 1143 609  A 9 9 0 0 1 1134 600 L 1134 560  Z " fill-rule="nonzero" fill="#ffffff" stroke="none" fill-opacity="0" />
    <path d="M 1133.5 560  A 9.5 9.5 0 0 1 1143 550.5 L 1183 550.5  A 9.5 9.5 0 0 1 1192.5 560 L 1192.5 600  A 9.5 9.5 0 0 1 1183 609.5 L 1143 609.5  A 9.5 9.5 0 0 1 1133.5 600 L 1133.5 560  Z " stroke-width="1" stroke-dasharray="9,4" stroke="#d7d7d7" fill="none" stroke-dashoffset="0.5" />
  </g>
</svg>