<?xml version="1.0" encoding="utf-8"?>
<svg version="1.1" xmlns:xlink="http://www.w3.org/1999/xlink" width="14px" height="18px" xmlns="http://www.w3.org/2000/svg">
  <g transform="matrix(1 0 0 1 -1135 -340 )">
    <path d="M 12.9625 8.306919642857142  C 13.5525 7.491294642857142  13.892500000000002 6.549107142857142  13.892500000000002 5.538616071428572  C 13.892500000000002 2.4790178571428574  10.8075 0  7 0  C 3.1950000000000003 0  0.10750000000000028 2.4790178571428574  0.10750000000000028 5.538616071428572  C 0.10750000000000028 6.549107142857142  0.44999999999999996 7.491294642857142  1.0375 8.306919642857142  L 1.0299999999999998 8.306919642857142  L 6.9975 18  L 12.969999999999999 8.306919642857142  L 12.9625 8.306919642857142  Z M 10.447500000000003 5.538616071428573  C 10.447500000000003 7.067410714285716  8.905000000000001 8.306919642857144  7.0025 8.306919642857142  C 5.1 8.306919642857142  3.5575 7.067410714285715  3.5575 5.538616071428572  C 3.5575 4.009821428571428  5.1 2.7703124999999997  7.0025 2.7703124999999997  C 8.9075 2.7703124999999997  10.447500000000003 4.009821428571429  10.447500000000003 5.538616071428573  Z " fill-rule="nonzero" fill="#bdbdbd" stroke="none" transform="matrix(1 0 0 1 1135 340 )" />
  </g>
</svg>