<?xml version="1.0" encoding="utf-8"?>
<svg version="1.1" xmlns:xlink="http://www.w3.org/1999/xlink" width="32px" height="25px" xmlns="http://www.w3.org/2000/svg">
  <g transform="matrix(1 0 0 1 -1147 -568 )">
    <path d="M 31.89541315254237 5.585147826086959  C 31.89541315254237 4.163582608695653  30.74533966101695 3.011234782608696  29.32673518644068 3  L 2.6216482711864404 3  C 1.2029743728813556 3.011234782608696  0.05297030508474575 4.163582608695653  0 5.585147826086957  L 0 22.280800000000003  C 0.05297030508474575 23.702365217391304  1.2029743728813556 24.85471304347826  2.6216482711864404 24.85471304347826  L 29.32673518644068 24.85471304347826  C 30.745409084745763 24.85471304347826  31.89541315254237 23.702365217391304  31.89541315254237 22.280800000000003  L 31.89541315254237 5.585147826086959  Z M 23.65703810169492 13.932973913043476  C 23.65710752542373 18.184730434782608  20.217370033898305 21.631547826086955  15.974122305084746 21.631547826086955  C 11.730944 21.631547826086955  8.291206508474577 18.184730434782608  8.291206508474577 13.932973913043476  C 8.291206508474577 9.681147826086955  11.730944000000001 6.234399999999997  15.974122305084748 6.234399999999997  C 20.217370033898305 6.234399999999997  23.65703810169492 9.681147826086955  23.65703810169492 13.932973913043476  Z M 10.634951593220338 13.932973913043476  C 10.634951593220338 16.887764559303413  13.025410826240929 19.28309565217391  15.974191728813558 19.28309565217391  C 18.92297263138619 19.28309565217391  21.31343186440678 16.887764559303413  21.31343186440678 13.932973913043476  C 21.31343186440678 10.978183266783537  18.92297263138619 8.582852173913041  15.974191728813558 8.582852173913041  C 13.025410826240929 8.582852173913041  10.634951593220338 10.978183266783537  10.634951593220338 13.932973913043476  Z M 21.87375077966102 3.7608695652173925  L 20.39571959322034 0.7002086956521743  C 20.22938033898305 0.35579130434782663  19.78097247457627 0.07405217391304417  19.399141966101695 0.07405217391304417  L 12.549241491525422 0.07405217391304417  C 12.167410983050846 0.07405217391304417  11.718933694915252 0.355860869565218  11.552663864406778 0.7002086956521743  L 10.074632677966102 3.7608695652173925  C 9.908293423728812 4.1052869565217405  10.084699118644068 4.387026086956523  10.466529627118645 4.387026086956523  L 21.481853830508474 4.387026086956523  C 21.863684338983052 4.387026086956523  22.040020610169492 4.1052173913043495  21.87375077966102 3.7608695652173925  Z M 18.056903593220337 1.4190260869565219  C 18.438734101694916 1.4189565217391304  18.75114088135593 1.4919999999999995  18.75114088135593 1.5813217391304348  C 18.75114088135593 1.670573913043479  18.438734101694912 1.743617391304348  18.056903593220337 1.743617391304348  L 13.891479864406778 1.743617391304348  C 13.5096493559322 1.743617391304348  13.197242576271183 1.670573913043479  13.197242576271183 1.5813217391304348  C 13.197242576271183 1.4920000000000007  13.5096493559322 1.4190260869565219  13.891479864406778 1.4190260869565219  L 18.056903593220337 1.4190260869565219  Z " fill-rule="nonzero" fill="#afaeb0" stroke="none" transform="matrix(1 0 0 1 1147 568 )" />
  </g>
</svg>