<?xml version="1.0" encoding="utf-8"?>
<svg version="1.1" xmlns:xlink="http://www.w3.org/1999/xlink" width="13px" height="20px" xmlns="http://www.w3.org/2000/svg">
  <g transform="matrix(1 0 0 1 -1551 -2704 )">
    <path d="M 12.036607142857143 9.229910714285714  C 12.584464285714287 8.323660714285714  12.900178571428572 7.2767857142857135  12.900178571428572 6.154017857142858  C 12.900178571428572 2.754464285714286  10.035535714285714 0  6.5 0  C 2.9667857142857144 0  0.09982142857142884 2.754464285714286  0.09982142857142884 6.154017857142858  C 0.09982142857142884 7.2767857142857135  0.4178571428571428 8.323660714285714  0.9633928571428572 9.229910714285714  L 0.9564285714285712 9.229910714285714  L 6.497678571428571 20  L 12.043571428571427 9.229910714285714  L 12.036607142857143 9.229910714285714  Z M 9.701250000000002 6.1540178571428585  C 9.701250000000002 7.852678571428573  8.268928571428573 9.229910714285715  6.502321428571429 9.229910714285714  C 4.735714285714286 9.229910714285714  3.3033928571428572 7.852678571428572  3.3033928571428572 6.154017857142858  C 3.3033928571428572 4.455357142857142  4.735714285714286 3.078125  6.502321428571429 3.078125  C 8.271250000000002 3.078125  9.701250000000002 4.455357142857143  9.701250000000002 6.1540178571428585  Z " fill-rule="nonzero" fill="#f59a23" stroke="none" transform="matrix(1 0 0 1 1551 2704 )" />
  </g>
</svg>