<?xml version="1.0" encoding="utf-8"?>
<svg version="1.1" xmlns:xlink="http://www.w3.org/1999/xlink" width="20px" height="20px" xmlns="http://www.w3.org/2000/svg">
  <g transform="matrix(1 0 0 1 -944 -3128 )">
    <path d="M 8.1328125 16.474609374999996  L 8.1328125 18.7109375  L 11.867187499999998 18.7109375  L 11.867187499999998 16.595703125  C 11.867187499999998 16.34765625  11.992187499999998 16.09765625  12.240234374999998 15.972656250000002  C 12.863281249999998 15.724609375  13.484375 15.349609375000002  13.982421875 14.976562500000002  C 14.23046875 14.851562500000002  14.48046875 14.851562500000002  14.728515625 14.976562500000002  L 16.595703125 16.095703125  L 18.462890625 12.859375000000002  L 16.595703125 11.740234375000004  C 16.34765625 11.494140625  16.22265625 11.244140625  16.34765625 10.99609375  C 16.34765625 10.623046875  16.47265625 10.373046875  16.47265625 10  C 16.47265625 9.626953125  16.47265625 9.376953125  16.34765625 9.00390625  C 16.34765625 8.755859375  16.47265625 8.505859375  16.595703125 8.380859375  L 18.462890625 7.26171875  L 16.595703125 4.025390625  L 14.728515625 5.144531250000001  C 14.48046875 5.26953125  14.23046875 5.26953125  13.982421875 5.144531250000001  C 13.484375 4.771484375000001  12.86328125 4.398437500000001  12.240234374999998 4.148437500000001  C 11.992187499999998 3.900390625000001  11.867187499999998 3.650390625000001  11.867187499999998 3.402343750000001  L 11.867187499999998 1.2890625  L 8.1328125 1.2890625  L 8.1328125 3.404296875  C 8.1328125 3.65234375  8.0078125 3.90234375  7.759765624999999 4.02734375  C 7.13671875 4.275390625  6.515624999999999 4.650390625  6.017578124999999 5.023437500000001  C 5.76953125 5.1484375  5.519531249999999 5.1484375  5.271484375 5.023437500000001  L 3.4042968749999996 4.027343750000001  L 1.5371093749999998 7.261718750000002  L 3.4042968749999996 8.380859375000002  C 3.6523437499999996 8.505859375000002  3.7773437499999996 8.753906250000002  3.6523437499999996 9.003906250000002  C 3.6523437499999996 9.376953125000002  3.527343749999999 9.626953125  3.527343749999999 10  C 3.527343749999999 10.373046874999998  3.527343749999999 10.623046875  3.6523437499999996 10.99609375  C 3.7773437499999996 11.244140625  3.6523437499999996 11.494140625  3.4042968749999996 11.619140625  L 1.5371093749999998 12.738281249999998  L 3.4042968749999996 15.974609374999996  L 5.271484375 14.855468749999998  C 5.519531249999999 14.730468749999998  5.76953125 14.730468749999998  6.017578124999999 14.855468749999998  C 6.515624999999999 15.228515624999998  7.13671875 15.6015625  7.759765624999999 15.851562499999998  C 8.007812499999998 15.976562499999998  8.1328125 16.224609375  8.1328125 16.474609374999996  Z M 13.11328125 19.33203125  C 13.111328125 19.707031250000004  12.86328125 19.955078125  12.48828125 19.955078125  L 7.51171875 19.955078125  C 7.138671875 19.955078125  6.888671875000001 19.70703125  6.888671875000001 19.33203125  L 6.888671875000001 16.96875  C 6.390625000000001 16.720703125  5.892578125000001 16.470703125  5.51953125 16.22265625  L 3.5292968750000004 17.466796875  C 3.2812500000000004 17.591796875  2.90625 17.591796875  2.6582031250000004 17.21875  L 0.16796875 12.86328125  C -0.080078125 12.490234375  0.042968749999999986 12.1171875  0.41601562499999994 11.9921875  L 2.40625 10.748046875  L 2.40625 9.25390625  L 0.41796875 8.009765625  C 0.044921874999999944 7.884765625000001  -0.08007812500000003 7.51171875  0.169921875 7.138671875  L 2.658203125 2.783203125  C 2.783203125 2.53515625  3.15625 2.41015625  3.529296875 2.658203125  L 5.51953125 3.90234375  C 5.892578125000001 3.6542968750000004  6.390625000000001 3.279296875  6.888671875000001 3.1562500000000004  L 6.888671875000001 0.666015625  C 6.888671875000001 0.29296875  7.136718750000001 0.042968750000000056  7.51171875 0.042968750000000056  L 12.490234375 0.042968750000000056  C 12.86328125 0.042968750000000056  13.11328125 0.29101562500000006  13.11328125 0.666015625  L 13.11328125 3.03125  C 13.611328125 3.2792968749999996  14.109375 3.529296875  14.482421875 3.7773437499999996  L 16.47265625 2.533203125  C 16.720703125 2.4082031249999996  17.095703125 2.4082031249999996  17.34375 2.7812499999999996  L 19.83203125 7.13671875  C 20.080078125 7.509765625  19.95703125 7.882812499999999  19.583984375 8.0078125  L 17.59375 9.251953125  L 17.59375 10.74609375  L 19.583984375 11.990234375000002  C 19.83203125 12.115234375000002  19.95703125 12.488281250000002  19.83203125 12.861328125000002  L 17.34375 17.216796875  C 17.21875 17.46484375  16.845703125 17.58984375  16.47265625 17.46484375  L 14.482421875 16.220703125  C 14.109375 16.46875  13.611328125 16.84375  13.11328125 16.966796875  L 13.11328125 19.33203125  Z M 13.734375 10  C 13.734375 12.115234375  12.115234375 13.734375  10 13.734375  C 7.884765625 13.734375  6.265625 12.117187500000002  6.265625 10  C 6.265625 7.882812499999998  7.884765625 6.265625  10 6.265625  C 12.115234375 6.265625  13.734375 7.884765625  13.734375 10  Z M 12.48828125 10  C 12.48828125 8.630859375  11.369140625 7.51171875  10 7.51171875  C 8.630859375 7.51171875  7.51171875 8.630859375  7.51171875 10  C 7.51171875 11.369140624999998  8.630859375 12.48828125  10 12.48828125  C 11.369140625 12.48828125  12.48828125 11.369140625  12.48828125 10  Z " fill-rule="nonzero" fill="#0066ff" stroke="none" transform="matrix(1 0 0 1 944 3128 )" />
  </g>
</svg>