<?xml version="1.0" encoding="utf-8"?>
<svg version="1.1" xmlns:xlink="http://www.w3.org/1999/xlink" width="65px" height="10px" preserveAspectRatio="xMinYMid meet" viewBox="1479 1576  65 8" xmlns="http://www.w3.org/2000/svg">
  <path d="M 1486 1580  L 1534 1580  A 5 5 0 0 1 1539 1585 L 1539 1773  A 5 5 0 0 0 1544 1778 L 1593 1778  " stroke-width="2" stroke="#0066ff" fill="none" />
  <path d="M 1487.5 1576.5  A 3.5 3.5 0 0 0 1484 1580 A 3.5 3.5 0 0 0 1487.5 1583.5 A 3.5 3.5 0 0 0 1491 1580 A 3.5 3.5 0 0 0 1487.5 1576.5 Z M 1585.6 1786  L 1595 1778  L 1585.6 1770  L 1589.2 1778  L 1585.6 1786  Z " fill-rule="nonzero" fill="#0066ff" stroke="none" />
</svg>