<?xml version="1.0" encoding="utf-8"?>
<svg version="1.1" xmlns:xlink="http://www.w3.org/1999/xlink" width="34px" height="34px" preserveAspectRatio="xMinYMid meet" viewBox="2653 149  34 32" xmlns="http://www.w3.org/2000/svg">
  <path d="M 3685 520  L 3685 155  A 5 5 0 0 0 3680 150 L 2675 150  A 5 5 0 0 0 2670 155 L 2670 165  " stroke-width="2" stroke="#0066ff" fill="none" />
  <path d="M 3685 515  A 3.5 3.5 0 0 0 3681.5 518.5 A 3.5 3.5 0 0 0 3685 522 A 3.5 3.5 0 0 0 3688.5 518.5 A 3.5 3.5 0 0 0 3685 515 Z M 2662 157.6  L 2670 167  L 2678 157.6  L 2670 161.2  L 2662 157.6  Z " fill-rule="nonzero" fill="#0066ff" stroke="none" />
</svg>