<?xml version="1.0" encoding="utf-8"?>
<svg version="1.1" xmlns:xlink="http://www.w3.org/1999/xlink" width="14px" height="12px" xmlns="http://www.w3.org/2000/svg">
  <g transform="matrix(1 0 0 1 -3571 -766 )">
    <path d="M 3.993981651376147 6.431000000000001  L 7.005993878440368 3.4996666718749996  L 9.198727823394496 1.3656666718749997  C 10.125004337687228 0.4654272558439314  11.625412208591174 0.4652780971103754  12.551877681192662 1.3653333281249997  C 13.477326687363666 2.2666562061981788  13.47702002939147 3.7273785576604963  12.551192660550457 4.628333328125  L 9.263119266055046 7.827999999999999  L 6.796721717889909 10.228333328125  C 5.416415912844038 11.57166665625  3.1798409839449544 11.57166665625  1.7995351628440375 10.228666671875  C 0.41888683944954197 8.88533334375  0.419229357798166 6.709666671875  1.8019327270642211 5.363666671875  L 5.637675846330276 1.6306666718749998  C 5.699351139814664 1.5685202569067105  5.73382229697778 1.4854956185249049  5.73382229697778 1.3990955569591241  C 5.73382229697778 1.2150006432253426  5.5804764032913905 1.065762228834124  5.391314657069524 1.065762228834124  C 5.302536612157896 1.065762228834124  5.2172268919857645 1.0993100514303715  5.153370025229357 1.1593333281249998  L 1.3176269059633028 4.891666671875  C -0.3329174311926606 6.49833334375  -0.3332599495412844 9.095666671875  1.3152293577981649 10.7  C 2.9626911261467885 12.303333328125  5.633565754587156 12.303333328125  7.281027522935781 10.7  L 9.74708256880734 8.299333328125  L 13.035498465596334 5.099333328124999  C 14.228795096330277 3.937999999999999  14.229137614678901 2.0546666562499993  13.035840983944958 0.8933333281249984  C 11.843914378440369 -0.2666666718750017  9.907033644495415 -0.2666666718750017  8.714422018348625 0.8939999999999984  L 6.521688073394497 3.0276666718749983  L 3.5093333279816528 5.959333328124998  C 3.1531615190398954 6.304823276562555  2.9529673816463173 6.774093880581258  2.9529673816463173 7.263498310633597  C 2.9529673816463173 7.7520867270625615  3.152496351836149 8.220643869117602  3.507620800458717 8.566  C 4.247983598435276 9.284721068329832  5.446612762074063 9.283975207284199  6.186030575688075 8.564333328124999  L 10.293724770642203 4.566999999999998  C 10.35539978531637 4.504853628746636  10.389870767422572 4.421829184036501  10.389870767422572 4.335429342419102  C 10.389870767422572 4.151334428685321  10.236524873736185 4.002096014294103  10.047363127514318 4.002096014294103  C 9.958585308604697 4.002096014294103  9.873275787434649 4.03564366652246  9.80941896559633 4.095666671874999  L 5.701724770642202 8.093333328125  C 5.229805325151666 8.552720986853908  4.464790681762554 8.55346670551012  3.991926605504588 8.095  C 3.7653264266214244 7.8746757506147524  3.6380059384302452 7.575728104913061  3.6380059384302452 7.263996665892632  C 3.6380059384302452 6.951286584100421  3.766124835549757 6.6514835069320295  3.993981651376147 6.431000000000001  Z " fill-rule="nonzero" fill="#999999" stroke="none" transform="matrix(1 0 0 1 3571 766 )" />
  </g>
</svg>