<?xml version="1.0" encoding="utf-8"?>
<svg version="1.1" xmlns:xlink="http://www.w3.org/1999/xlink" width="21px" height="20px" preserveAspectRatio="xMinYMid meet" viewBox="886 731  21 18" xmlns="http://www.w3.org/2000/svg">
  <path d="M 895 740  L 1059 740  A 5 5 0 0 0 1064 735 L 1064 519  A 5 5 0 0 1 1069 514 L 1118 514  " stroke-width="2" stroke="#0066ff" fill="none" />
  <path d="M 896.5 736.5  A 3.5 3.5 0 0 0 893 740 A 3.5 3.5 0 0 0 896.5 743.5 A 3.5 3.5 0 0 0 900 740 A 3.5 3.5 0 0 0 896.5 736.5 Z M 1110.6 522  L 1120 514  L 1110.6 506  L 1114.2 514  L 1110.6 522  Z " fill-rule="nonzero" fill="#0066ff" stroke="none" />
</svg>