<?xml version="1.0" encoding="utf-8"?>
<svg version="1.1" xmlns:xlink="http://www.w3.org/1999/xlink" width="42px" height="42px" xmlns="http://www.w3.org/2000/svg">
  <g transform="matrix(1 0 0 1 -3890 -573 )">
    <path d="M 41.845131 21.035543906250002  C 41.845131 32.532580921875  32.514449203125004 41.854484671875  21.003789421875 41.854484671875  C 9.494184937499998 41.854484671875  0.16681289062499707 32.53253296875  0.16681289062499707 21.035543906250002  C 0.16681289062499707 12.21063121875  5.659712718749997 4.671102984375002  13.417205109374995 1.641141328125002  C 15.761087953124996 0.6956063906250018  18.321783796874996 0.17343243750000226  21.004317046875 0.17343243750000226  C 23.690160046875 0.17343243750000226  26.248649390625 0.6950787656250023  28.594738734375 1.641141328125002  C 36.3517515 4.671102984375  41.845131 12.210679171875  41.845131 21.035543906250002  Z M 12.994419796875 16.64493675  C 12.994419796875 20.15337403125  14.792049 23.190962531249998  17.405221265625 24.677810484375  C 18.4889505 25.294480359375  19.709195156250004 25.650111281250002  21.003789421875 25.650111281250002  C 22.252958484375 25.650111281250002  23.430656015624997 25.317456843750005  24.485988468749998 24.742806421875006  C 27.160894875 23.284355250000008  29.016468796875003 20.209639921875002  29.016468796875003 16.645512375000006  C 29.016468796875003 11.682988968750005  25.422841265625003 7.643647640625005  21.003837375 7.643647640625005  C 16.58751965625 7.64311996875  12.994419796875 11.682509249999999  12.994419796875 16.64493675  Z M 21.088452046875 40.505351390624995  C 27.176724187500003 40.505351390624995  32.607841921875 37.705393781249995  36.167604375 33.323564624999996  C 35.747073515625 29.867028140624996  32.378941078125 26.9245111875  27.612077015625 25.45675434375  C 25.811713640625 27.07632825  23.511529171875 28.050835546875  21.003213843749997 28.050835546875  C 18.439208249999997 28.050835546875  16.092111562499998 27.023899828125  14.274240093749995 25.333861640625  C 9.637271953124996 26.657332312499996  6.240838734374995 29.356846078124995  5.444482687499996 32.591580890624996  C 8.976903656250002 37.3901994375  14.670259546874998 40.505351390624995  21.088452046875 40.505351390624995  Z " fill-rule="nonzero" fill="#7f7f7f" stroke="none" transform="matrix(1 0 0 1 3890 573 )" />
  </g>
</svg>