<?xml version="1.0" encoding="utf-8"?>
<svg version="1.1" xmlns:xlink="http://www.w3.org/1999/xlink" width="20px" height="21px" preserveAspectRatio="xMidYMin meet" viewBox="982 250  18 21" xmlns="http://www.w3.org/2000/svg">
  <path d="M 991 262  L 991 155  A 5 5 0 0 1 996 150 L 2190 150  A 5 5 0 0 1 2195 155 L 2195 165  " stroke-width="2" stroke="#0066ff" fill="none" />
  <path d="M 991 257  A 3.5 3.5 0 0 0 987.5 260.5 A 3.5 3.5 0 0 0 991 264 A 3.5 3.5 0 0 0 994.5 260.5 A 3.5 3.5 0 0 0 991 257 Z M 2187 157.6  L 2195 167  L 2203 157.6  L 2195 161.2  L 2187 157.6  Z " fill-rule="nonzero" fill="#0066ff" stroke="none" />
</svg>