<?xml version="1.0" encoding="utf-8"?>
<svg version="1.1" xmlns:xlink="http://www.w3.org/1999/xlink" width="10px" height="23px" preserveAspectRatio="xMidYMin meet" viewBox="2483 673  8 23" xmlns="http://www.w3.org/2000/svg">
  <path d="M 2432 691  L 2482 691  A 5 5 0 0 0 2487 686 L 2487 683  A 5 5 0 0 1 2492 678 L 2543 678  " stroke-width="2" stroke="#0066ff" fill="none" />
  <path d="M 2433.5 687.5  A 3.5 3.5 0 0 0 2430 691 A 3.5 3.5 0 0 0 2433.5 694.5 A 3.5 3.5 0 0 0 2437 691 A 3.5 3.5 0 0 0 2433.5 687.5 Z M 2535.6 686  L 2545 678  L 2535.6 670  L 2539.2 678  L 2535.6 686  Z " fill-rule="nonzero" fill="#0066ff" stroke="none" />
</svg>