<?xml version="1.0" encoding="utf-8"?>
<svg version="1.1" xmlns:xlink="http://www.w3.org/1999/xlink" width="60px" height="10px" preserveAspectRatio="xMinYMid meet" viewBox="1070 964  60 8" xmlns="http://www.w3.org/2000/svg">
  <path d="M 1128 968  L 1080 968  A 5 5 0 0 0 1075 973 L 1075 984  A 5 5 0 0 1 1070 989 L 1022 989  " stroke-width="2" stroke="#0066ff" fill="none" />
  <path d="M 1126.5 964.5  A 3.5 3.5 0 0 0 1123 968 A 3.5 3.5 0 0 0 1126.5 971.5 A 3.5 3.5 0 0 0 1130 968 A 3.5 3.5 0 0 0 1126.5 964.5 Z M 1029.4 981  L 1020 989  L 1029.4 997  L 1025.8 989  L 1029.4 981  Z " fill-rule="nonzero" fill="#0066ff" stroke="none" />
</svg>