<?xml version="1.0" encoding="utf-8"?>
<svg version="1.1" xmlns:xlink="http://www.w3.org/1999/xlink" width="10px" height="10px" xmlns="http://www.w3.org/2000/svg">
  <g transform="matrix(1 0 0 1 -1288 -733 )">
    <path d="M 2.857844034090908 2.775453197674419  C 3.4253890419903286 2.1909441701423846  4.197694730430622 1.8627827445850054  5.002929886363635 1.863981947674418  C 6.667822562547276 1.8664614028076292  8.016201102889116 3.2482071287648835  8.016201102889116 4.951820043591129  C 8.016201102889116 6.65718774008374  6.6651472892341665 8.039661409870199  4.998537949480024 8.039661409870199  C 3.331928609725882 8.039661409870199  1.980874796070933 6.65718774008374  1.980874796070933 4.951820043591129  C 1.980874796070933 4.136330551828931  2.29613518116859 3.353951626535488  2.857844034090908 2.775453197674419  Z M 8.438703011363636 1.4547499709302334  C 7.529234571952256 0.5202915043391914  6.291754606986886 -0.0022914007273275496  5.002929886363635 0.0038365406976745998  C 2.325176220362883 0.007991621728732485  0.15657900837027391 2.230388899377824  0.15657900837027391 4.970419056907902  C 0.15657900837027391 7.713389993227878  2.329659542193932 9.937007283652088  5.010290229961186 9.937007283652088  C 7.690920917728434 9.937007283652088  9.864001451552095 7.713389993227878  9.864001451552095 4.970419056907902  C 9.864001451552095 3.651353836083235  9.351200933494987 2.3864700210358203  8.438703011363636 1.4547499709302334  Z " fill-rule="nonzero" fill="#7f7f7f" stroke="none" transform="matrix(1 0 0 1 1288 733 )" />
  </g>
</svg>