<?xml version="1.0" encoding="utf-8"?>
<svg version="1.1" xmlns:xlink="http://www.w3.org/1999/xlink" width="24px" height="30px" xmlns="http://www.w3.org/2000/svg">
  <g transform="matrix(1 0 0 1 -1281 -725 )">
    <path d="M 20.456906567307698 21.275918052325583  C 25.11961557644746 16.41614065100954  25.11961557644746 8.706133011781155  20.456906567307694 3.8463556104651166  C 18.241504592921675 1.5367486326862567  15.19053517528765 0.2325491899727623  12.002974975961541 0.2325491899727623  C 8.815414776635434 0.2325491899727623  5.764445359001404 1.5367486326862565  3.549043384615384 3.8463556104651166  C -1.1136656245243737 8.706133011781157  -1.113665624524373 16.41614065100954  3.549043384615384 21.275918052325583  L 12.00297496153846 30  L 20.456906567307698 21.275918052325583  Z M 19.183279326923078 5.260066133720929  C 23.14763378725225 9.37998383049165  23.14763378725225 15.928304396252528  19.183279326923078 20.048222093023256  L 12.00297496153846 27.48880369186046  L 4.822670624999999 20.048222093023256  C 0.8583161646708213 15.928304396252528  0.8583161646708213 9.37998383049165  4.822670624999999 5.260066133720928  C 6.706808939931064 3.3030452061033766  9.29720101828552 2.1985684302989177  12.00297497596154 2.1985684302989177  C 14.708748933637551 2.1985684302989177  17.299141011992013 3.3030452061033793  19.183279326923078 5.260066133720929  Z " fill-rule="nonzero" fill="#7f7f7f" stroke="none" transform="matrix(1 0 0 1 1281 725 )" />
  </g>
</svg>