<?xml version="1.0" encoding="utf-8"?>
<svg version="1.1" xmlns:xlink="http://www.w3.org/1999/xlink" width="21px" height="20px" preserveAspectRatio="xMinYMid meet" viewBox="971 265  21 18" xmlns="http://www.w3.org/2000/svg">
  <path d="M 980 274  L 1045 274  A 5 5 0 0 1 1050 279 L 1050 573  A 5 5 0 0 0 1055 578 L 1098 578  " stroke-width="2" stroke="#0066ff" fill="none" />
  <path d="M 981.5 270.5  A 3.5 3.5 0 0 0 978 274 A 3.5 3.5 0 0 0 981.5 277.5 A 3.5 3.5 0 0 0 985 274 A 3.5 3.5 0 0 0 981.5 270.5 Z M 1090.6 586  L 1100 578  L 1090.6 570  L 1094.2 578  L 1090.6 586  Z " fill-rule="nonzero" fill="#0066ff" stroke="none" />
</svg>