<?xml version="1.0" encoding="utf-8"?>
<svg version="1.1" xmlns:xlink="http://www.w3.org/1999/xlink" width="80px" height="80px" xmlns="http://www.w3.org/2000/svg">
  <g transform="matrix(1 0 0 1 -783 -1796 )">
    <path d="M 80 40  C 80 62.40000000000001  62.40000000000001 80  40 80  C 17.599999999999987 80  0 62.40000000000001  0 40  C 0 17.599999999999987  17.599999999999987 0  40 0  C 62.40000000000001 0  80 17.599999999999987  80 40  Z M 4.705882352941177 40  C 4.705882352941177 59.76470588235294  20.235294117647058 75.29411764705883  40 75.29411764705883  C 59.76470588235294 75.29411764705883  75.29411764705883 59.76470588235294  75.29411764705883 40  C 75.29411764705883 20.235294117647058  59.76470588235294 4.705882352941177  40 4.705882352941177  C 20.235294117647058 4.705882352941177  4.705882352941177 20.235294117647058  4.705882352941177 40  Z " fill-rule="nonzero" fill="#f2f2f2" stroke="none" transform="matrix(1 0 0 1 783 1796 )" />
  </g>
</svg>