<?xml version="1.0" encoding="utf-8"?>
<svg version="1.1" xmlns:xlink="http://www.w3.org/1999/xlink" width="10px" height="338px" preserveAspectRatio="xMidYMin meet" viewBox="1048 3455  8 338" xmlns="http://www.w3.org/2000/svg">
  <path d="M 995 3473  L 995 3465  A 5 5 0 0 1 1000 3460 L 1047 3460  A 5 5 0 0 1 1052 3465 L 1052 3783  A 5 5 0 0 0 1057 3788 L 1108 3788  " stroke-width="2" stroke="#0066ff" fill="none" />
  <path d="M 995 3468  A 3.5 3.5 0 0 0 991.5 3471.5 A 3.5 3.5 0 0 0 995 3475 A 3.5 3.5 0 0 0 998.5 3471.5 A 3.5 3.5 0 0 0 995 3468 Z M 1100.6 3796  L 1110 3788  L 1100.6 3780  L 1104.2 3788  L 1100.6 3796  Z " fill-rule="nonzero" fill="#0066ff" stroke="none" />
</svg>