<?xml version="1.0" encoding="utf-8"?>
<svg version="1.1" xmlns:xlink="http://www.w3.org/1999/xlink" width="74px" height="10px" preserveAspectRatio="xMinYMid meet" viewBox="511 2746  74 8" xmlns="http://www.w3.org/2000/svg">
  <path d="M 516.9193953882639 2749.682941969616  A 2 2 0 0 0 518 2750 L 575 2750  A 5 5 0 0 1 580 2755 L 580 2907  A 5 5 0 0 0 585 2912 L 633 2912  " stroke-width="2" stroke="#0066ff" fill="none" />
  <path d="M 518.3584073464102 2746.5  A 3.5 3.5 0 0 0 514.8584073464102 2750 A 3.5 3.5 0 0 0 518.3584073464102 2753.5 A 3.5 3.5 0 0 0 521.8584073464102 2750 A 3.5 3.5 0 0 0 518.3584073464102 2746.5 Z M 625.6 2920  L 635 2912  L 625.6 2904  L 629.2 2912  L 625.6 2920  Z " fill-rule="nonzero" fill="#0066ff" stroke="none" />
</svg>