<?xml version="1.0" encoding="utf-8"?>
<svg version="1.1" xmlns:xlink="http://www.w3.org/1999/xlink" width="10px" height="260px" preserveAspectRatio="xMidYMin meet" viewBox="1536 3783  8 260" xmlns="http://www.w3.org/2000/svg">
  <path d="M 1487 4038  L 1535 4038  A 5 5 0 0 0 1540 4033 L 1540 3793  A 5 5 0 0 1 1545 3788 L 1583 3788  " stroke-width="2" stroke="#0066ff" fill="none" />
  <path d="M 1488.5 4034.5  A 3.5 3.5 0 0 0 1485 4038 A 3.5 3.5 0 0 0 1488.5 4041.5 A 3.5 3.5 0 0 0 1492 4038 A 3.5 3.5 0 0 0 1488.5 4034.5 Z M 1575.6 3796  L 1585 3788  L 1575.6 3780  L 1579.2 3788  L 1575.6 3796  Z " fill-rule="nonzero" fill="#0066ff" stroke="none" />
</svg>