<?xml version="1.0" encoding="utf-8"?>
<svg version="1.1" xmlns:xlink="http://www.w3.org/1999/xlink" width="10px" height="82px" preserveAspectRatio="xMidYMin meet" viewBox="2006 3783  8 82" xmlns="http://www.w3.org/2000/svg">
  <path d="M 1917 3860  L 2005 3860  A 5 5 0 0 0 2010 3855 L 2010 3793  A 5 5 0 0 1 2015 3788 L 2058 3788  " stroke-width="2" stroke="#0066ff" fill="none" />
  <path d="M 1918.5 3856.5  A 3.5 3.5 0 0 0 1915 3860 A 3.5 3.5 0 0 0 1918.5 3863.5 A 3.5 3.5 0 0 0 1922 3860 A 3.5 3.5 0 0 0 1918.5 3856.5 Z M 2050.6 3796  L 2060 3788  L 2050.6 3780  L 2054.2 3788  L 2050.6 3796  Z " fill-rule="nonzero" fill="#0066ff" stroke="none" />
</svg>