<?xml version="1.0" encoding="utf-8"?>
<svg version="1.1" xmlns:xlink="http://www.w3.org/1999/xlink" width="50px" height="50px" xmlns="http://www.w3.org/2000/svg">
  <g transform="matrix(1 0 0 1 -1364 -460 )">
    <path d="M 1389 460  C 1403 460  1414 471  1414 485  C 1414 499  1403 510  1389 510  C 1375 510  1364 499  1364 485  C 1364 471  1375 460  1389 460  Z " fill-rule="nonzero" fill="#ffffff" stroke="none" />
    <path d="M 1389 460.5  C 1402.72 460.5  1413.5 471.28  1413.5 485  C 1413.5 498.72  1402.72 509.5  1389 509.5  C 1375.28 509.5  1364.5 498.72  1364.5 485  C 1364.5 471.28  1375.28 460.5  1389 460.5  Z " stroke-width="1" stroke="#797979" fill="none" />
  </g>
</svg>