<?xml version="1.0" encoding="utf-8"?>
<svg version="1.1" xmlns:xlink="http://www.w3.org/1999/xlink" width="6px" height="6px" xmlns="http://www.w3.org/2000/svg">
  <g transform="matrix(1 0 0 1 -1453 -1605 )">
    <path d="M 3.328205125 4.0254060568181815  C 4.802994865384615 3.831660602272726  5.953846153846154 2.351127272727272  5.953846153846154 0.5573818181818188  L 5.953846153846154 0.46041212500000095  C 5.953846153846153 0.24619258462570054  5.806903712047486 0.07253333522727443  5.625641024038462 0.07253333522727443  C 5.4443783360294375 0.07253333522727443  5.297435894230771 0.24619258462569993  5.297435894230771 0.46041212500000095  L 5.2974358942307695 0.5573818181818188  C 5.2974358942307695 2.0545939431818194  4.266871788461539 3.272533329545455  3 3.272533329545455  C 1.733128211538461 3.272533329545455  0.7025641057692307 2.0545939318181814  0.7025641057692307 0.5573818181818188  L 0.7025641057692307 0.46041212500000095  C 0.7025641057692307 0.24619258462569993  0.5556216639705636 0.07253333522727443  0.3743589759615388 0.07253333522727443  C 0.19309628795251427 0.07253333522727443  0.04615384615384654 0.24619258462569993  0.04615384615384654 0.46041212500000095  L 0.04615384615384627 0.5573818181818188  C 0.04615384615384627 2.3509333295454553  1.197005125 3.831660602272728  2.6717948750000002 4.0254060568181815  L 2.6717948750000002 5.21212121590909  L 1.0307692307692313 5.21212121590909  C 0.8495065454154218 5.21212121590909  0.7025641057692307 5.385780462763679  0.7025641057692307 5.6  C 0.7025641057692307 5.81421953723632  0.8495065454154218 5.987878784090908  1.0307692307692313 5.987878784090908  L 4.969230769230769 5.987878784090908  C 5.150493454584578 5.987878784090908  5.2974358942307695 5.81421953723632  5.2974358942307695 5.6  C 5.2974358942307695 5.385780462763679  5.150493454584578 5.21212121590909  4.969230769230769 5.21212121590909  L 3.328205125 5.21212121590909  L 3.328205125 4.0254060568181815  Z " fill-rule="nonzero" fill="#ffffff" stroke="none" transform="matrix(1 0 0 1 1453 1605 )" />
  </g>
</svg>