<?xml version="1.0" encoding="utf-8"?>
<svg version="1.1" xmlns:xlink="http://www.w3.org/1999/xlink" width="16px" height="20px" xmlns="http://www.w3.org/2000/svg">
  <g transform="matrix(1 0 0 1 -1292 -3667 )">
    <path d="M 13.4656 5.450436507936508  C 13.4656 8.444880952380952  11.0185 10.872539682539683  8.000160000000001 10.872539682539683  C 4.981740000000001 10.872539682539683  2.534620000000001 8.444900793650794  2.534620000000001 5.450436507936508  C 2.534620000000001 2.4559325396825398  4.981740000000001 0.028313492063492478  8.000160000000001 0.028313492063492478  C 11.018500000000001 0.028313492063492478  13.46558 2.45593253968254  13.46558 5.450436507936508  Z M 12.695619999999998 10.70529761904762  C 12.695619999999998 10.70529761904762  15.464199999999998 14.09109126984127  15.84812 15.717003968253966  C 16.106319999999997 16.809920634920633  15.9176 17.958333333333332  14.950919999999998 18.739761904761902  C 13.52252 19.89456349206349  10.589659999999999 19.97176587301587  8.00672 19.97176587301587  C 5.274860000000001 19.97176587301587  2.3018799999999997 19.71345238095238  0.8979200000000003 18.44378968253968  C 0.07626000000000033 17.700873015873015  -0.10851999999999976 16.671329365079362  0.1654000000000002 15.717003968253966  C 0.65774 14.001349206349206  3.6752200000000004 10.734761904761903  3.6752200000000004 10.734761904761903  C 3.6752200000000004 10.734761904761903  6.09788 11.817698412698412  8.00672 11.817698412698412  C 9.862760000000002 11.817698412698412  12.695619999999998 10.70529761904762  12.695619999999998 10.70529761904762  Z " fill-rule="nonzero" fill="#ffffff" stroke="none" transform="matrix(1 0 0 1 1292 3667 )" />
  </g>
</svg>