<?xml version="1.0" encoding="utf-8"?>
<svg version="1.1" xmlns:xlink="http://www.w3.org/1999/xlink" width="10px" height="10px" xmlns="http://www.w3.org/2000/svg">
  <g transform="matrix(1 0 0 1 -1325 -3675 )">
    <path d="M 5.547008541666667 6.709010094696969  C 8.004991442307691 6.386101003787878  9.923076923076923 3.9185454545454537  9.923076923076923 0.928969696969698  L 9.923076923076923 0.7673535416666682  C 9.923076923076922 0.4103209743761676  9.678172853412477 0.12088889204545736  9.376068373397436 0.12088889204545736  C 9.073963893382397 0.12088889204545736  8.829059823717952 0.41032097437616655  8.829059823717952 0.7673535416666682  L 8.82905982371795 0.928969696969698  C 8.82905982371795 3.424323238636365  7.111452980769232 5.454222215909091  5 5.454222215909091  C 2.888547019230768 5.454222215909091  1.1709401762820513 3.4243232196969693  1.1709401762820513 0.928969696969698  L 1.1709401762820513 0.7673535416666682  C 1.1709401762820513 0.41032097437616655  0.9260361066176059 0.12088889204545736  0.6239316266025646 0.12088889204545736  C 0.3218271465875238 0.12088889204545736  0.07692307692307757 0.41032097437616655  0.07692307692307757 0.7673535416666682  L 0.07692307692307711 0.928969696969698  C 0.07692307692307711 3.9182222159090925  1.995008541666667 6.386101003787879  4.452991458333334 6.709010094696969  L 4.452991458333334 8.686868693181818  L 1.7179487179487187 8.686868693181818  C 1.4158442423590365 8.686868693181818  1.1709401762820513 8.976300771272799  1.1709401762820513 9.333333333333332  C 1.1709401762820513 9.690365895393867  1.4158442423590365 9.979797973484848  1.7179487179487187 9.979797973484848  L 8.282051282051281 9.979797973484848  C 8.584155757640964 9.979797973484848  8.82905982371795 9.690365895393867  8.82905982371795 9.333333333333332  C 8.82905982371795 8.976300771272799  8.584155757640964 8.686868693181818  8.282051282051281 8.686868693181818  L 5.547008541666667 8.686868693181818  L 5.547008541666667 6.709010094696969  Z " fill-rule="nonzero" fill="#ffffff" stroke="none" transform="matrix(1 0 0 1 1325 3675 )" />
  </g>
</svg>