<?xml version="1.0" encoding="utf-8"?>
<svg version="1.1" xmlns:xlink="http://www.w3.org/1999/xlink" width="57px" height="50px" xmlns="http://www.w3.org/2000/svg">
  <g transform="matrix(1 0 0 1 -1208 -3652 )">
    <path d="M 42.55379239931934 49.17971077055904  L 52.26523879750425 37.86332829699978  L 56.061531480431086 34.06173105978848  C 56.856104367555304 33.266047917116346  56.32638910947249 31.85150010792143  55.178672716959724 31  L 1.3242881452070334 31  C 0.6180011344299489 31.85150010792143  0 32.47036477444421  0 33.17763867904166  L 0 37.686509820850425  C 0 38.393783725447875  0.6180011344299489 38.92423915389596  1.3242881452070334 39  L 39.022357345433925 39  C 39.728644356211 38.92423915389596  40.34664549064096 39.543103820418736  40.34664549064096 40.25037772501619  L 40.34664549064096 48.29561838981222  C 40.34664549064096 49.44493848478307  41.75921951219513 49.975393913231166  42.55379239931934 49.17971077055904  Z M 13.94916846284742 0.4662205914094543  L 4.237722064662507 11.694193826894022  L 0.4414293817356778 15.495791064105333  C -0.3531435053885423 16.291474206777465  0.17657175269427114 17.706022015972373  1.3242881452070334 18  L 55.26695859330686 18  C 55.97324560408395 17.706022015972373  56.591246738513895 17.0871573494496  56.591246738513895 16.379883444852148  L 56.591246738513895 11.871012303043383  C 56.591246738513895 11.163738398445929  55.97324560408394 10.54487373192316  55.26695859330685 11  L 17.48060351673284 11  C 16.774316505955756 10.54487373192316  16.15631537152581 9.926009065400388  16.15631537152581 9.218735160802934  L 16.15631537152581 1.3503129721562699  C 16.15631537152581 0.2009928771854092  14.74374134997164 -0.32946255126268065  13.94916846284742 0.4662205914094543  Z " fill-rule="nonzero" fill="#555555" stroke="none" transform="matrix(1 0 0 1 1208 3652 )" />
  </g>
</svg>