<?xml version="1.0" encoding="utf-8"?>
<svg version="1.1" xmlns:xlink="http://www.w3.org/1999/xlink" width="24px" height="25px" xmlns="http://www.w3.org/2000/svg">
  <g transform="matrix(1 0 0 1 -1699 -3651 )">
    <path d="M 23.829992499999996 10.537118554687499  C 23.827492499999998 9.045420288085937  22.7099932 7.851573388671874  21.237494125 7.851573388671874  L 21.1349942 7.851573388671874  C 20.627494525 7.851573388671874  20.169994825000003 8.000499072265624  19.762495075 8.24952236328125  C 19.404995300000003 7.204601147460936  18.442495925000003 6.459972729492186  17.272496650000004 6.4599727050781235  C 16.764996975000003 6.4599727050781235  16.254997300000003 6.608898388671873  15.799997600000005 6.857921679687498  C 15.442497825000004 5.813000463867186  14.47999845 5.068372045898435  13.309999175000003 5.068372021484373  C 12.852499475000005 5.068372021484373  12.394999750000007 5.168469604492185  12.039999975000004 5.366223388671873  L 12.039999975000004 2.68311962890625  C 12.039999975 1.1938627685546874  10.922500675 1.5869140625E-05  9.39750165 1.5869140625E-05  C 8.6700021 -0.002425537109375  7.970002549999999 0.2783360107421875  7.455002874999999 0.783706787109375  C 6.9400032 1.2890775634765625  6.652503374999998 1.9726708740234375  7 2.68556103515625  L 7 13.022468530273438  L 4.97750445 11.381844580078125  C 3.9100051249999996 10.336923364257812  2.0325063249999995 10.488290454101563  1.1150068999999996 11.381844580078125  C 0.20250747499999944 12.275398706054688  -0.4074921250000005 14.064948339843749  0.9125070499999995 15.356451440429685  L 8.535002200000001 22.81250139160156  C 8.6925021 22.95898566894531  8.862502 23.093262939453123  9.042501875 23.210450366210935  C 10.465000974999999 24.304199682617185  12.039999975 24.999999999999996  15.39499785 24.999999999999996  C 23.11749295 24.999999999999996  23.829992499999996 20.92529555664062  23.829992499999996 15.854497998046874  L 23.829992499999996 10.537118554687499  Z M 22.454993375000004 10.634774731445312  L 22.4049934 15.854497998046874  C 22.4049934 20.129397631835936  22.4049934 23.557129833984376  15.442497824999998 23.557129833984376  C 12.497499699999997 23.557129833984376  10.717500825 22.910157592773437  9.397501649999997 21.6186544921875  L 2.1325062750000003 14.560553491210937  C 1.4725067000000003 13.913581249999998  1.6750065750000003 13.12012470703125  2.182506225 12.622078173828125  C 2.6900058999999996 12.124031616210937  3.655005300000001 12.075203515624999  4.165004975 12.573250073242187  C 4.165004975 12.573250073242187  5.4350041749999995 13.815925073242186  6.55250345 14.860846289062499  L 8.12750245 16.40137265625  L 8.12750245 2.932142919921875  C 8.12750245 2.236342578125  8.687502100000001 1.6894679199218747  9.447501625 1.6894679199218747  C 10.157501175 1.6894679199218747  10.66750085 2.236342578125  10.66750085 2.932142919921875  L 10.66750085 11.63086787109375  C 10.66750085 12.028816845703124  10.97250065 12.326668212890626  11.380000399999998 12.326668212890626  C 11.787500149999998 12.326668212890626  12.089999949999996 12.028816845703124  12.089999949999996 11.63086787109375  L 12.089999949999996 7.951670971679688  C 12.089999949999996 7.255870629882813  12.597499624999998 6.708995971679688  13.309999174999998 6.70899599609375  C 13.309999174999998 6.70899599609375  14.579998374999999 6.70899599609375  14.57999835 7.951670971679688  L 14.57999835 12.722175756835938  C 14.57999835 13.120124731445312  14.88499815 13.417976098632813  15.2899979 13.417976098632813  C 15.697497649999999 13.417976098632813  15.999997450000002 13.120124731445316  15.999997450000002 12.722175756835938  L 15.999997450000002 9.343271655273437  C 15.999997450000002 8.647471313476562  16.507497125 8.100596655273437  17.219996675000004 8.100596655273437  C 17.219996675000004 8.100596655273437  18.489995875 8.20069423828125  18.489995875 9.343271655273437  L 18.489995875 13.569343188476562  C 18.489995875 13.967292163085936  18.794995675000003 14.265143530273438  19.199995425000004 14.265143530273438  C 19.607495175 14.265143530273438  19.912494975 13.96729216308594  19.912494975 13.569343188476562  L 19.912494975 10.634774731445312  C 19.909994975000004 10.305185107421874  20.04249490000001 9.987802490234374  20.28249475 9.75342763671875  C 20.5224946 9.519052783203124  20.844994400000004 9.389658325195311  21.184994175000003 9.392099755859375  C 21.52249395 9.394541162109375  22.454993375000004 9.343271655273437  22.454993375000004 10.634774731445312  Z " fill-rule="nonzero" fill="#7f7f7f" stroke="none" transform="matrix(1 0 0 1 1699 3651 )" />
  </g>
</svg>