<?xml version="1.0" encoding="utf-8"?>
<svg version="1.1" xmlns:xlink="http://www.w3.org/1999/xlink" width="20px" height="21px" preserveAspectRatio="xMidYMin meet" viewBox="1400 5356  18 21" xmlns="http://www.w3.org/2000/svg">
  <path d="M 1409 5368  L 1409 5365  A 5 5 0 0 1 1414 5360 L 2354 5360  A 5 5 0 0 1 2359 5365 L 2359 5368  " stroke-width="2" stroke="#0066ff" fill="none" />
  <path d="M 1409 5363  A 3.5 3.5 0 0 0 1405.5 5366.5 A 3.5 3.5 0 0 0 1409 5370 A 3.5 3.5 0 0 0 1412.5 5366.5 A 3.5 3.5 0 0 0 1409 5363 Z M 2351 5360.6  L 2359 5370  L 2367 5360.6  L 2359 5364.2  L 2351 5360.6  Z " fill-rule="nonzero" fill="#0066ff" stroke="none" />
</svg>