<?xml version="1.0" encoding="utf-8"?>
<svg version="1.1" xmlns:xlink="http://www.w3.org/1999/xlink" width="21px" height="20px" preserveAspectRatio="xMinYMid meet" viewBox="1652 6144  21 18" xmlns="http://www.w3.org/2000/svg">
  <path d="M 1661 6153  L 1695 6153  A 5 5 0 0 0 1700 6148 L 1700 5854  A 5 5 0 0 1 1705 5849 L 1757 5849  " stroke-width="2" stroke="#0066ff" fill="none" />
  <path d="M 1662.5 6149.5  A 3.5 3.5 0 0 0 1659 6153 A 3.5 3.5 0 0 0 1662.5 6156.5 A 3.5 3.5 0 0 0 1666 6153 A 3.5 3.5 0 0 0 1662.5 6149.5 Z M 1749.6 5857  L 1759 5849  L 1749.6 5841  L 1753.2 5849  L 1749.6 5857  Z " fill-rule="nonzero" fill="#0066ff" stroke="none" />
</svg>