<?xml version="1.0" encoding="utf-8"?>
<svg version="1.1" xmlns:xlink="http://www.w3.org/1999/xlink" width="21px" height="20px" preserveAspectRatio="xMinYMid meet" viewBox="1652 7271  21 18" xmlns="http://www.w3.org/2000/svg">
  <path d="M 1661 7280  L 1695 7280  A 5 5 0 0 0 1700 7275 L 1700 7006  A 5 5 0 0 1 1705 7001 L 1757 7001  " stroke-width="2" stroke="#0066ff" fill="none" />
  <path d="M 1662.5 7276.5  A 3.5 3.5 0 0 0 1659 7280 A 3.5 3.5 0 0 0 1662.5 7283.5 A 3.5 3.5 0 0 0 1666 7280 A 3.5 3.5 0 0 0 1662.5 7276.5 Z M 1749.6 7009  L 1759 7001  L 1749.6 6993  L 1753.2 7001  L 1749.6 7009  Z " fill-rule="nonzero" fill="#0066ff" stroke="none" />
</svg>