<?xml version="1.0" encoding="utf-8"?>
<svg version="1.1" xmlns:xlink="http://www.w3.org/1999/xlink" width="16px" height="16px" xmlns="http://www.w3.org/2000/svg">
  <g transform="matrix(1 0 0 1 -1615 -1889 )">
    <path d="M 14.762295081967213 1.853658536585366  C 14.762295081967213 1.5168943089430895  14.487065573770492 1.2439024390243902  14.147540983606557 1.2439024390243902  L 10.531344262295082 1.2439024390243902  C 10.191819672131148 1.2439024390243902  9.916590163934426 1.5168943089430895  9.916590163934426 1.853658536585366  L 9.916590163934426 5.440455284552845  C 9.916590163934426 5.7772195121951215  10.191819672131148 6.050211382113821  10.531344262295082 6.050211382113821  L 14.147540983606557 6.050211382113821  C 14.487065573770492 6.050211382113821  14.762295081967213 5.7772195121951215  14.762295081967213 5.440455284552845  L 14.762295081967213 1.853658536585366  Z M 6.083409836065573 1.853658536585366  C 6.083409836065573 1.5168943089430895  5.808180327868852 1.2439024390243902  5.468655737704918 1.2439024390243902  L 1.8524590163934427 1.2439024390243902  C 1.5129344262295081 1.2439024390243902  1.2377049180327868 1.5168943089430895  1.2377049180327868 1.853658536585366  L 1.2377049180327868 5.440455284552845  C 1.2377049180327868 5.7772195121951215  1.5129344262295081 6.050211382113821  1.8524590163934427 6.050211382113821  L 5.468655737704918 6.050211382113821  C 5.808180327868852 6.050211382113821  6.083409836065573 5.7772195121951215  6.083409836065573 5.440455284552845  L 6.083409836065573 1.853658536585366  Z M 10.531344262295082 0.024390243902439025  L 14.147540983606557 0.024390243902439025  C 15.166098360655736 0.024390243902439025  15.991803278688524 0.8433821138211381  15.991803278688524 1.853658536585366  L 15.991803278688524 5.440455284552845  C 15.991803278688524 6.450731707317073  15.166098360655736 7.269723577235772  14.147540983606557 7.269723577235772  L 10.531344262295082 7.269723577235772  C 9.512786885245903 7.269723577235772  8.687081967213116 6.450731707317073  8.687081967213116 5.440455284552845  L 8.687081967213116 1.853658536585366  C 8.687081967213116 0.8433821138211381  9.512786885245903 0.024390243902439025  10.531344262295082 0.024390243902439025  Z M 1.8524590163934427 0.024390243902439025  L 5.468655737704918 0.024390243902439025  C 6.4872131147540975 0.024390243902439025  7.312918032786885 0.8433821138211381  7.312918032786885 1.853658536585366  L 7.312918032786885 5.440455284552845  C 7.312918032786885 6.450731707317073  6.4872131147540975 7.269723577235772  5.468655737704918 7.269723577235772  L 1.8524590163934427 7.269723577235772  C 0.8339016393442622 7.269723577235772  0.00819672131147541 6.450731707317073  0.00819672131147541 5.440455284552845  L 0.00819672131147541 1.853658536585366  C 0.00819672131147541 0.8433821138211381  0.8339016393442622 0.024390243902439025  1.8524590163934427 0.024390243902439025  Z M 14.762295081967213 10.461983739837398  C 14.762295081967213 10.125219512195123  14.487065573770492 9.852227642276423  14.147540983606557 9.852227642276423  L 10.531344262295082 9.852227642276423  C 10.191819672131148 9.852227642276423  9.916590163934426 10.125219512195123  9.916590163934426 10.461983739837398  L 9.916590163934426 14.048780487804878  C 9.916590163934426 14.385544715447155  10.191819672131148 14.658536585365853  10.531344262295082 14.658536585365853  L 14.147540983606557 14.658536585365853  C 14.487065573770492 14.658536585365853  14.762295081967213 14.385544715447155  14.762295081967213 14.048780487804878  L 14.762295081967213 10.461983739837398  Z M 6.083409836065573 10.461983739837398  C 6.083409836065573 10.125219512195123  5.808180327868852 9.852227642276423  5.468655737704918 9.852227642276423  L 1.8524590163934427 9.852227642276423  C 1.5129344262295081 9.852227642276423  1.2377049180327868 10.125219512195123  1.2377049180327868 10.461983739837398  L 1.2377049180327868 14.048780487804878  C 1.2377049180327868 14.385544715447155  1.5129344262295081 14.658536585365853  1.8524590163934427 14.658536585365853  L 5.468655737704918 14.658536585365853  C 5.808180327868852 14.658536585365853  6.083409836065573 14.385544715447155  6.083409836065573 14.048780487804878  L 6.083409836065573 10.461983739837398  Z M 10.531344262295082 8.632715447154473  L 14.147540983606557 8.632715447154473  C 15.166098360655736 8.632715447154473  15.991803278688524 9.451707317073172  15.991803278688524 10.461983739837398  L 15.991803278688524 14.048780487804878  C 15.991803278688524 15.059056910569105  15.166098360655736 15.878048780487806  14.147540983606557 15.878048780487806  L 10.531344262295082 15.878048780487806  C 9.512786885245903 15.878048780487806  8.687081967213116 15.059056910569105  8.687081967213116 14.048780487804878  L 8.687081967213116 10.461983739837398  C 8.687081967213116 9.451707317073172  9.512786885245903 8.632715447154473  10.531344262295082 8.632715447154473  Z M 1.8524590163934427 8.632715447154473  L 5.468655737704918 8.632715447154473  C 6.4872131147540975 8.632715447154473  7.312918032786885 9.451707317073172  7.312918032786885 10.461983739837398  L 7.312918032786885 14.048780487804878  C 7.312918032786885 15.059056910569105  6.4872131147540975 15.878048780487806  5.468655737704918 15.878048780487806  L 1.8524590163934427 15.878048780487806  C 0.8339016393442622 15.878048780487806  0.00819672131147541 15.059056910569105  0.00819672131147541 14.048780487804878  L 0.00819672131147541 10.461983739837398  C 0.00819672131147541 9.451707317073172  0.8339016393442622 8.632715447154473  1.8524590163934427 8.632715447154473  Z " fill-rule="nonzero" fill="#ffffff" stroke="none" transform="matrix(1 0 0 1 1615 1889 )" />
  </g>
</svg>