<?xml version="1.0" encoding="utf-8"?>
<svg version="1.1" xmlns:xlink="http://www.w3.org/1999/xlink" width="20px" height="20px" xmlns="http://www.w3.org/2000/svg">
  <g transform="matrix(1 0 0 1 -6703 -2922 )">
    <path d="M 0 0  L 20 0  L 20 20  L 0 20  L 0 0  Z M 9.230769230769232 18.461538461538463  L 9.230769230769232 10.769230769230768  L 1.5384615384615385 10.769230769230768  L 1.5384615384615385 18.461538461538463  L 9.230769230769232 18.461538461538463  Z M 18.461538461538463 18.461538461538463  L 18.461538461538463 10.769230769230768  L 10.769230769230768 10.769230769230768  L 10.769230769230768 18.461538461538463  L 18.461538461538463 18.461538461538463  Z M 9.230769230769232 9.230769230769232  L 9.230769230769232 1.5384615384615385  L 1.5384615384615385 1.5384615384615385  L 1.5384615384615385 9.230769230769232  L 9.230769230769232 9.230769230769232  Z M 18.461538461538463 9.230769230769232  L 18.461538461538463 1.5384615384615385  L 10.769230769230768 1.5384615384615385  L 10.769230769230768 9.230769230769232  L 18.461538461538463 9.230769230769232  Z " fill-rule="nonzero" fill="#7f7f7f" stroke="none" transform="matrix(1 0 0 1 6703 2922 )" />
  </g>
</svg>