<?xml version="1.0" encoding="utf-8"?>
<svg version="1.1" xmlns:xlink="http://www.w3.org/1999/xlink" width="60px" height="40px" xmlns="http://www.w3.org/2000/svg">
  <defs>
    <mask fill="white" id="clip6689">
      <path d="M 0 35  L 0 0  L 60 0  L 60 35  L 35 35  L 30 40  L 25 35  L 0 35  Z " fill-rule="evenodd" />
    </mask>
  </defs>
  <g transform="matrix(1 0 0 1 -302 -587 )">
    <path d="M 0 35  L 0 0  L 60 0  L 60 35  L 35 35  L 30 40  L 25 35  L 0 35  Z " fill-rule="nonzero" fill="#000000" stroke="none" transform="matrix(1 0 0 1 302 587 )" />
    <path d="M 0 35  L 0 0  L 60 0  L 60 35  L 35 35  L 30 40  L 25 35  L 0 35  Z " stroke-width="2" stroke="#000000" fill="none" transform="matrix(1 0 0 1 302 587 )" mask="url(#clip6689)" />
  </g>
</svg>