<?xml version="1.0" encoding="utf-8"?>
<svg version="1.1" xmlns:xlink="http://www.w3.org/1999/xlink" width="40px" height="40px" xmlns="http://www.w3.org/2000/svg">
  <g transform="matrix(1 0 0 1 -2969 -317 )">
    <path d="M 38.55242071759259 20.565307971643513  C 38.55242071759259 9.990488093171294  29.980643200231476 1.423151938657405  19.41026468460648 1.4231519386574074  C 8.83988616898148 1.4231519386574074  0.2681086516203682 9.990488136574072  0.26810860821759086 20.56530797164352  C 0.2681085648148129 31.140127806712968  8.835444806134255 39.707464004629635  19.41026468460648 39.707464048032406  C 29.985084563078708 39.70746409143518  38.55242071759259 31.14012785011574  38.55242071759259 20.565307971643513  Z M 30.979943677662042 13.587969907407409  C 31.659468026620374 14.254170254629631  31.659468026620374 15.346738787615744  30.9888263599537 16.01738041087963  L 18.14448404224537 28.861722728587967  C 17.806942549189813 29.19926422164352  17.367250318287038 29.368034968171294  16.927558130787038 29.368034968171294  C 16.48786589988426 29.368034968171294  16.04817371238426 29.19926422164352  15.710632175925925 28.861722728587967  L 9.408377097800928 22.56390896990741  C 8.733294111689816 21.89326730324074  8.733294111689816 20.800698770254627  9.408377097800928 20.130057103587966  C 10.083460083912039 19.45497411747685  11.171587297453707 19.45497411747685  11.84222896412037 20.130057103587966  L 16.923116767939813 25.210944950810187  L 28.546091811342592 13.587969907407409  C 29.221174797453703 12.912886921296296  30.30930201099537 12.912886921296296  30.979943677662042 13.587969907407409  Z " fill-rule="nonzero" fill="#34cca5" stroke="none" transform="matrix(1 0 0 1 2969 317 )" />
  </g>
</svg>