<?xml version="1.0" encoding="utf-8"?>
<svg version="1.1" xmlns:xlink="http://www.w3.org/1999/xlink" width="40px" height="40px" xmlns="http://www.w3.org/2000/svg">
  <g transform="matrix(1 0 0 1 -2969 -563 )">
    <path d="M 40 20  C 40 8.954305003384132  31.045694996615868 0  20 0  C 8.954305003384132 0  0 8.954305003384132  0 20  C 0 31.045694996615868  8.954305003384132 40  20 40  C 31.045694996615868 40  40 31.045694996615868  40 20  Z M 24.000000000000004 31.053333320312504  C 24 33.26247231963567  22.209138999323173 35.0533333203125  20 35.0533333203125  C 17.790861000676827 35.0533333203125  16 33.26247231963567  16 31.0533333203125  C 16 28.844194320989324  17.790861000676827 27.0533333203125  20 27.0533333203125  C 22.209138999323173 27.0533333203125  24.000000000000004 28.844194320989324  24.000000000000004 31.0533333203125  Z M 24.8066666796875 9.746666679687497  C 24.8066666796875 12.399999999999999  22.6666666796875 24.86  20 24.86  C 17.3333333203125 24.86  15.193333320312501 12.399999999999999  15.1933333203125 9.746666679687495  C 15.1933333203125 7.092017974976273  17.34535129528878 4.939999999999996  19.999999999999996 4.939999999999996  C 22.65464870471122 4.939999999999996  24.8066666796875 7.092017974976273  24.8066666796875 9.746666679687495  Z " fill-rule="nonzero" fill="#ff6666" stroke="none" transform="matrix(1 0 0 1 2969 563 )" />
  </g>
</svg>