<?xml version="1.0" encoding="utf-8"?>
<svg version="1.1" xmlns:xlink="http://www.w3.org/1999/xlink" width="33px" height="40px" xmlns="http://www.w3.org/2000/svg">
  <g transform="matrix(1 0 0 1 -642 -545 )">
    <path d="M 21.78 0  L 1.98 0  C 1.4849999999999999 0  0.9569999999999995 0.19999999999999987  0.5940000000000002 0.5999999999999999  C 0.23100000000000095 1  0 1.5  0 2  L 0 38  C 0 38.5  0.1979999999999999 39.03333333333333  0.5940000000000002 39.4  C 0.99 39.8  1.4849999999999999 40  1.98 40  L 31.02 40  C 31.514999999999997 40  32.043 39.8  32.406 39.4  C 32.80200000000001 39  33 38.5  33 38  L 33 11.333333333333332  L 21.78 0  Z " fill-rule="nonzero" fill="#5acc9b" stroke="none" transform="matrix(1 0 0 1 642 545 )" />
  </g>
</svg>