<?xml version="1.0" encoding="utf-8"?>
<svg version="1.1" xmlns:xlink="http://www.w3.org/1999/xlink" width="7px" height="7px" xmlns="http://www.w3.org/2000/svg">
  <g transform="matrix(1 0 0 1 -659 -665 )">
    <path d="M 2.0004908238636356 1.9428172383720934  C 2.3977723293932303 1.5336609190996695  2.9383863113014352 1.3039479212095038  3.5020509204545447 1.3047873633720926  C 4.667475793783093 1.3065229819653406  5.611340772022381 2.2737449901354183  5.611340772022381 3.46627403051379  C 5.611340772022381 4.660031418058618  4.665603102463916 5.627762986909139  3.498976564636017 5.627762986909139  C 2.332350026808117 5.627762986909139  1.3866123572496531 4.660031418058618  1.3866123572496531 3.46627403051379  C 1.3866123572496531 2.8954313862802517  1.607294626818013 2.3477661385748414  2.0004908238636356 1.9428172383720934  Z M 5.907092107954544 1.0183249796511633  C 5.270464200366579 0.3642040530374339  4.40422822489082 -0.0016039805091292848  3.5020509204545447 0.00268557848837222  C 1.6276233542540182 0.00559413521011274  0.10960530585919173 1.5612722295644765  0.10960530585919173 3.4792933398355315  C 0.10960530585919173 5.399372995259514  1.6307616795357525 6.955905098556462  3.5072031609728294 6.955905098556462  C 5.383644642409904 6.955905098556462  6.904801016086466 5.399372995259514  6.904801016086466 3.4792933398355315  C 6.904801016086466 2.5559476852582645  6.545840653446492 1.6705290147250742  5.907092107954544 1.0183249796511633  Z " fill-rule="nonzero" fill="#7f7f7f" stroke="none" transform="matrix(1 0 0 1 659 665 )" />
  </g>
</svg>