<?xml version="1.0" encoding="utf-8"?>
<svg version="1.1" xmlns:xlink="http://www.w3.org/1999/xlink" width="16px" height="20px" xmlns="http://www.w3.org/2000/svg">
  <g transform="matrix(1 0 0 1 -654 -660 )">
    <path d="M 13.637937711538465 14.183945368217055  C 16.746410384298304 10.944093767339693  16.746410384298304 5.80408867452077  13.637937711538463 2.5642370736434112  C 12.161003061947783 1.0244990884575045  10.127023450191766 0.15503279331517486  8.001983317307694 0.15503279331517486  C 5.876943184423623 0.15503279331517486  3.842963572667603 1.0244990884575043  2.366028923076923 2.5642370736434112  C -0.7424437496829158 5.804088674520771  -0.7424437496829154 10.944093767339693  2.366028923076923 14.183945368217055  L 8.001983307692306 20  L 13.637937711538465 14.183945368217055  Z M 12.788852884615384 3.5067107558139528  C 15.431755858168167 6.2533225536611  15.431755858168167 10.618869597501686  12.788852884615384 13.365481395348837  L 8.001983307692306 18.325869127906977  L 3.2151137499999995 13.365481395348837  C 0.5722107764472142 10.618869597501686  0.5722107764472142 6.2533225536611  3.2151137499999995 3.506710755813952  C 4.471205959954043 2.202030137402251  6.198134012190346 1.4657122868659451  8.001983317307692 1.4657122868659451  C 9.805832622425035 1.4657122868659451  11.532760674661343 2.202030137402253  12.788852884615384 3.5067107558139528  Z " fill-rule="nonzero" fill="#7f7f7f" stroke="none" transform="matrix(1 0 0 1 654 660 )" />
  </g>
</svg>