<?xml version="1.0" encoding="utf-8"?>
<svg version="1.1" xmlns:xlink="http://www.w3.org/1999/xlink" width="26px" height="26px" xmlns="http://www.w3.org/2000/svg">
  <g transform="matrix(1 0 0 1 -1398 -338 )">
    <path d="M 4.588581463414634 0.06747317073170687  C 2.985865365853659 -0.23772878048780485  0.10755121951219514 1.8970614634146339  0.05032585365853658 3.7031102439024393  C 0.05032585365853658 3.7031102439024393  -1.0905287804878048 9.511687804878049  7.497740487804878 18.09995707317073  C 7.560241951219512 18.16205268292683  7.620308292682927 18.218466341463415  7.681998048780487 18.279750243902438  C 7.743687804878049 18.341440000000002  7.800101463414634 18.40191219512195  7.862197073170731 18.464413658536586  C 16.450466341463414 27.05268292682927  22.259043902439025 25.911828292682927  22.259043902439025 25.911828292682927  C 22.614571707317072 25.86434341463415  23.361748292682925 25.651270243902438  23.61459512195122 25.397611707317072  C 23.61459512195122 25.397611707317072  24.93605463414634 24.311547317073167  25.74573268292683 22.97344780487805  C 26.555816585365854 21.635754146341462  25.02493658536585 19.617443902439025  24.144234146341464 18.73714731707317  C 22.367406829268294 16.960319999999996  20.733439999999998 16.613720975609755  20.013861463414635 17.107644878048777  C 19.690396097560978 17.329646829268288  18.40505756097561 18.71482536585366  18.40505756097561 18.71482536585366  C 18.151804878048782 18.968483902439022  17.650575609756096 19.17912195121951  17.292206829268295 19.183586341463414  C 17.292206829268295 19.183586341463414  15.046212682926832 19.206314146341462  10.868355121951222 15.093393170731709  C 6.755434146341463 10.915941463414633  6.777756097560976 8.66994731707317  6.777756097560976 8.66994731707317  C 6.7826263414634145 8.311984390243902  6.9928585365853655 7.810349268292683  7.246517073170732 7.557096585365853  C 7.246517073170732 7.557096585365853  8.839898536585366 5.964932682926829  8.85369756097561 5.948292682926828  C 9.458013658536586 5.191781463414633  8.457178536585367 3.311055609756097  7.224195121951221 1.8179199999999995  C 6.431562926829269 0.8580760975609749  5.789502439024391 0.29637463414634085  4.588581463414634 0.06747317073170687  Z " fill-rule="nonzero" fill="#ffffff" stroke="none" transform="matrix(1 0 0 1 1398 338 )" />
  </g>
</svg>