<?xml version="1.0" encoding="utf-8"?>
<svg version="1.1" xmlns:xlink="http://www.w3.org/1999/xlink" width="8px" height="10px" xmlns="http://www.w3.org/2000/svg">
  <g transform="matrix(1 0 0 1 -1706 -342 )">
    <path d="M 7.993725490196077 4.8666  C 7.993725490196077 6.9887999999999995  6.916116078431371 8.8597  5.276210196078432 9.9679  L 3.846023529411765 8.543500000000002  C 5.145700392156863 7.8278000000000025  6.02624 6.450400000000003  6.02624 4.866600000000001  C 6.02624 3.4288000000000007  5.299802352941176 2.1611000000000002  4.193480784313726 1.4039000000000001  L 5.5978666666666665 0.00520000000000076  C 7.053352156862745 1.1323000000000005  7.993725490196077 2.8883  7.993725490196077 4.8666  Z M 2.9342619607843146 5.146699999999999  C 2.9342619607843146 5.919999999999998  2.305405490196079 6.5466  1.5287717647058827 6.5466  C 0.7527403921568632 6.5466  0.1234823529411768 5.920000000000001  0.1234823529411768 5.146699999999999  C 0.1234823529411768 4.3733  0.7526400000000004 3.746799999999999  1.5287717647058827 3.746799999999999  C 2.305405490196079 3.746799999999999  2.9342619607843146 4.373299999999999  2.9342619607843146 5.146699999999999  Z " fill-rule="nonzero" fill="#ffffff" stroke="none" transform="matrix(1 0 0 1 1706 342 )" />
  </g>
</svg>