<?xml version="1.0" encoding="utf-8"?>
<svg version="1.1" xmlns:xlink="http://www.w3.org/1999/xlink" width="25px" height="13px" xmlns="http://www.w3.org/2000/svg">
  <g transform="matrix(1 0 0 1 -1030 -214 )">
    <path d="M 2.309782608695652 2.333333325195312  L 2.309782608695652 10.666666674804688  L 7.9710144839079495 10.666666674804688  L 7.971014483907949 2.333333325195312  L 2.309782608695652 2.333333325195312  Z M 24.95471013608186 5.458333325195312  C 24.95471013608186 4.885416674804688  24.445199266516642 4.416666674804688  23.822463776961616 4.416666674804688  L 23.822463776961616 2.3333333496093758  C 23.822463776961616 1.1875000244140637  22.803442037831182 0.25000002441406366  21.5579710321841 0.25000002441406366  L 2.309782608695652 0.25  C 1.0643116030485733 0.25  0.045289863918138766 1.1874999999999991  0.045289863918138766 2.333333325195312  L 0.045289863918138766 10.666666650390624  C 0.045289863918138766 11.812499975585936  1.0643116030485733 12.749999975585936  2.309782608695652 12.749999975585936  L 21.55797100564708 12.749999975585936  C 22.803442011294155 12.749999975585936  23.822463750424596 11.812499975585936  23.822463750424596 10.666666650390624  L 23.822463750424596 8.58333332519531  C 24.44519926651665 8.58333332519531  24.95471013608186 8.11458332519531  24.95471013608186 7.541666650390624  L 24.95471013608186 5.458333325195312  Z M 22.690217391304348 2.333333325195312  L 22.690217391304348 10.666666674804688  C 22.690217391304348 11.239583349609376  22.18070652173913 11.708333349609372  21.55797100564708 11.708333349609372  L 2.309782608695652 11.708333325195312  C 1.6870470926036008 11.708333325195312  1.1775362230383832 11.239583325195312  1.1775362230383832 10.666666650390628  L 1.1775362230383832 2.333333325195312  C 1.1775362230383832 1.7604166503906251  1.6870470926036008 1.2916666503906242  2.309782608695652 1.2916666503906242  L 21.55797100564708 1.2916666503906242  C 22.18070652173913 1.2916666503906242  22.690217391304348 1.7604166503906242  22.690217391304348 2.333333325195312  Z " fill-rule="nonzero" fill="#000000" stroke="none" transform="matrix(1 0 0 1 1030 214 )" />
  </g>
</svg>