<?xml version="1.0" encoding="utf-8"?>
<svg version="1.1" xmlns:xlink="http://www.w3.org/1999/xlink" width="20px" height="18px" xmlns="http://www.w3.org/2000/svg">
  <g transform="matrix(1 0 0 1 -1005 -212 )">
    <path d="M 19.375 4.939875000000001  C 16.86682692307692 2.2862812499999987  13.590625000000001 0.4308750000000006  9.993509615384616 0.4308750000000006  C 6.4028846153846155 0.4308750000000006  3.131009615384616 2.2812187500000003  0.625 4.926375  L 2.0932692307692307 6.907499999999999  C 4.209134615384615 4.6825312499999985  6.966826923076923 3.325781249999998  9.993509615384616 3.325781249999998  C 13.02451923076923 3.325781249999998  15.787259615384615 4.687593749999999  17.90528846153846 6.918468749999999  L 19.375 4.939875000000001  Z M 9.993509615384616 6.143906249999998  C 7.581971153846155 6.14390625  5.381730769230769 7.297312499999999  3.6899038461538463 9.0624375  L 5.243269230769231 11.15915625  C 6.522596153846154 9.83953125  8.17980769230769 9.038812499999999  9.993509615384616 9.038812499999999  C 11.810817307692306 9.038812499999999  13.469471153846156 9.842062499999997  14.750240384615385 11.16590625  L 16.30576923076923 9.072562499999998  C 14.612499999999999 7.3006874999999996  12.409375 6.143906249999998  9.993509615384616 6.143906249999998  Z M 9.993509615384616 11.777624999999999  C 8.776923076923076 11.777624999999999  7.662740384615384 12.383437500000003  6.7973557692307685 13.255875000000001  L 9.993509615384616 17.569125  L 13.193990384615384 13.260093750000001  C 12.32716346153846 12.384281249999999  11.212259615384614 11.777624999999999  9.993509615384616 11.777624999999999  Z " fill-rule="nonzero" fill="#000000" stroke="none" transform="matrix(1 0 0 1 1005 212 )" />
  </g>
</svg>