<?xml version="1.0" encoding="utf-8"?>
<svg version="1.1" xmlns:xlink="http://www.w3.org/1999/xlink" width="20px" height="19px" xmlns="http://www.w3.org/2000/svg">
  <g transform="matrix(1 0 0 1 -980 -211 )">
    <path d="M 0 18.897217928902627  L 0 13.456723331723339  L 2.9154803554868627 13.456723331723339  L 2.9154803554868627 18.897217928902627  L 0 18.897217928902627  Z M 4.164971931993818 18.897217928902627  L 4.164971931993818 10.48918083751932  L 7.0804522874806795 10.48918083751932  L 7.0804522874806795 18.897217928902627  L 4.164971931993818 18.897217928902627  Z M 9 18.897217928902627  L 9 7.02704791537867  L 11 7.02704791537867  L 11 18.897217928902627  L 9 18.897217928902627  Z M 13 18.897217928902627  L 13 3.5649149932380215  L 15.826893353941268 3.5649149932380215  L 15.826893353941268 18.897217928902627  L 13 18.897217928902627  Z M 17 18.897217928902627  L 17 0.10278207109737207  L 20 0.10278207109737207  L 20 18.897217928902627  L 17 18.897217928902627  Z " fill-rule="nonzero" fill="#000000" stroke="none" transform="matrix(1 0 0 1 980 211 )" />
  </g>
</svg>