<?xml version="1.0" encoding="utf-8"?>
<svg version="1.1" xmlns:xlink="http://www.w3.org/1999/xlink" width="14px" height="16px" xmlns="http://www.w3.org/2000/svg">
  <g transform="matrix(1 0 0 1 -1510 -812 )">
    <path d="M 0.11816904091880345 3.5448888889062498  C 0.11987084532051284 3.9004444443749997  0.3972649572649573 4.1902222221875  0.7393276352777779 4.1902222221875  L 1.2992212725213677 4.1902222221875  L 2.476869895619658 15.381333333281251  C 2.510905982905983 15.708444444375  2.7763874644871795 15.957333333281252  3.0912212725213677 15.957333333281252  L 11.013120607820513 15.957333333281252  C 11.327954416004273 15.957333333281252  11.593435897435896 15.708444444375  11.62747198472222 15.381333333281251  L 12.805120607820513 4.190222222187501  L 13.365014245064101 4.190222222187501  C 13.707076923076922 4.190222222187501  13.98447103517094 3.9004444443750006  13.98447103517094 3.5431111110937508  C 13.98447103517094 3.185777777812501  13.707076923076922 2.896000000000001  13.365014245064101 2.896000000000001  L 10.269432098782051 2.896000000000001  L 10.269432098782051 0.69866666671875  C 10.269432098782051 0.3413333334375  9.992037986688034 0.05155555562500003  9.649975308675213 0.051555555468750014  L 4.45266476741453 0.051555555468750014  C 4.110602089401709 0.051555555468750014  3.8332079773076924 0.34133333328125004  3.833207977158119 0.69866666671875  L 3.833207977158119 2.8977777778125  L 0.7376258308760684 2.8977777778125  C 0.39556315286324784 2.8977777778125  0.1181690407692308 3.187555555625  0.11816904091880345 3.5448888889062498  Z M 5.070419753119658 2.8977777778125  L 5.070419753119658 1.3457777778124997  L 9.030518518568377 1.3457777778124997  L 9.030518518568377 2.8977777778125  L 5.070419753119658 2.8977777778125  Z M 2.544942070192308 4.190222222187499  L 4.4526647674145305 4.1902222221875  L 11.56110161440171 4.1902222221875  L 10.46003418803419 14.663111111093748  L 3.6460094967094014 14.663111111093748  L 2.544942070192308 4.190222222187499  Z M 5.19465147190171 13.49866666671875  C 4.874712250662394 13.500444444531249  4.602423551623932 13.24266666671875  4.578598290598291 12.90311111109375  L 4.083373219423078 6.30933333328125  C 4.056144349444445 5.9537777778125  4.311415004764958 5.6426666665625005  4.651775878525641 5.6142222221875  C 4.993838556538463 5.58577777765625  5.289952516752137 5.852444444375  5.317181386431624 6.208  L 5.812406457756411 12.8017777778125  C 5.839635327735044 13.157333333281251  5.58436467241453 13.46844444453125  5.244003798653846 13.49688888890625  C 5.226985754935898 13.49866666671875  5.211669515619658 13.49866666671875  5.19465147190171 13.49866666671875  Z M 7.17555175690171 13.50044444453125  C 6.833489078888889 13.50044444453125  6.5560949667948725 13.210666666718751  6.5560949667948725 12.85333333328125  L 6.5560949667948725 6.25955555546875  C 6.5560949667948725 5.9022222221875  6.833489078888889 5.612444444375  7.17555175690171 5.61244444453125  C 7.517614434914531 5.61244444453125  7.795008547008548 5.90222222234375  7.795008547008548 6.25955555546875  L 7.795008547008548 12.85333333328125  C 7.795008547008548 13.210666666562501  7.517614434914531 13.500444444375  7.17555175690171 13.50044444453125  Z M 9.107099715149573 13.49688888890625  C 8.76673884153846 13.4702222221875  8.511468186217948 13.15911111109375  8.53869705604701 12.803555555468751  L 9.033922127222223 6.208000000000001  C 9.061150997200855 5.852444444531251  9.358966761517095 5.585777777812501  9.699327635277777 5.614222222187501  C 10.03968850888889 5.6426666667187515  10.294959164209402 5.953777777656251  10.267730294380343 6.309333333281251  L 9.772505223205128 12.90311111109375  C 9.746978157628206 13.242666666562501  9.476391263141025 13.4986666665625  9.156452041752138 13.49866666671875  C 9.139433998034189 13.49866666671875  9.12411775871795 13.49866666671875  9.107099715149573 13.49688888890625  Z " fill-rule="nonzero" fill="#0066ff" stroke="none" transform="matrix(1 0 0 1 1510 812 )" />
  </g>
</svg>