<?xml version="1.0" encoding="utf-8"?>
<svg version="1.1" xmlns:xlink="http://www.w3.org/1999/xlink" width="20px" height="14px" xmlns="http://www.w3.org/2000/svg">
  <g transform="matrix(1 0 0 1 -354 -818 )">
    <path d="M 19.8732421875 2.3734375000000014  C 19.872273460049172 1.510894157100637  19.17328553039937 0.811906227450832  18.3107421875 1  L 1.6701171875 1  C 0.807573844600634 0.811906227450832  0.10858591495083085 1.5108941571006342  0.10761718749999982 2.3734374999999996  L 0.10761718749999982 11.611718750000001  C 0.10858591495083085 12.474262092899366  0.8075738446006341 13.173250022549173  1.6701171874999998 13  L 18.310742187500004 13  C 19.173285530399372 13.173250022549173  19.872273460049172 12.474262092899366  19.8732421875 11.61171875  L 19.8732421875 2.3734375000000014  Z M 18.701367187499997 2.3734374999999988  L 18.701367187499997 11.611718749999998  C 18.701367187499997 11.827454980402655  18.526478417902652 12.00234375  18.310742187499997 12.00234375  C 18.310742187499997 12.00234375  18.310742187499997 12.00234375  18.3107421875 12  L 1.6701171874999998 12  C 1.6701171874999998 12.00234375  1.6701171874999998 12.00234375  1.6701171874999998 12.00234375  C 1.4543809570973463 12.00234375  1.2794921874999998 11.827454980402655  1.2794921874999998 11.61171875  C 1.2794921874999998 11.644270833333335  1.2794921874999998 11.579166666666662  1.2794921874999998 11.61171875  L 1.2794921874999996 2.3734374999999988  C 1.2794921874999996 2.1577012695973457  1.4543809570973458 1.9828124999999985  1.6701171874999998 2  L 18.310742187499997 2  C 18.526478417902652 1.9828124999999985  18.701367187499997 2.1577012695973457  18.701367187499997 2.3734374999999988  Z " fill-rule="nonzero" fill="#7d7d7d" stroke="none" transform="matrix(1 0 0 1 354 818 )" />
  </g>
</svg>