<?xml version="1.0" encoding="utf-8"?>
<svg version="1.1" xmlns:xlink="http://www.w3.org/1999/xlink" width="20px" height="20px" xmlns="http://www.w3.org/2000/svg">
  <g transform="matrix(1 0 0 1 -281 -815 )">
    <path d="M 19.980487804878052 10  C 19.980487804878052 15.517736585365853  15.507980487804879 19.990243902439026  9.990556097560976 19.990243902439026  C 4.472819512195122 19.990243902439026  0.00031219512195121955 15.517736585365853  0.00031219512195121955 10  C 0.00031219512195121955 4.482263414634146  4.472819512195122 0.009756097560975027  9.990556097560976 0.009756097560975027  C 15.507980487804879 0.009756097560975027  19.980487804878052 4.482263414634146  19.980487804878052 10  Z M 18.731707317073173 10  C 18.731707317073173 5.17970731707317  14.810536585365854 1.258536585365853  9.990556097560976 1.258536585365853  C 5.170263414634146 1.258536585365853  1.2490926829268294 5.17970731707317  1.2490926829268294 10  C 1.2490926829268294 14.819980487804878  5.170263414634146 18.741463414634147  9.990556097560976 18.741463414634147  C 14.810536585365854 18.741463414634147  18.731707317073173 14.819980487804878  18.731707317073173 10  Z M 15.560117073170732 12.681131707317073  C 15.496117073170733 12.825365853658536  13.935765853658538 16.225482926829265  9.957775609756098 16.27231219512195  C 9.9328 16.27231219512195  9.9072 16.272936585365855  9.881912195121952 16.272936585365855  C 6.068136585365854 16.272936585365855  4.468760975609756 12.831609756097563  4.402263414634147 12.683941463414637  C 4.260214634146342 12.369248780487803  4.399765853658536 11.999921951219509  4.713834146341464 11.857873170731708  C 5.0285268292682925 11.716448780487806  5.396604878048782 11.855375609756095  5.539278048780487 12.167570731707315  C 5.592975609756098 12.285268292682929  6.8864 15.024156097560976  9.884409756097561 15.024156097560976  C 9.904078048780487 15.024156097560976  9.923434146341464 15.02353170731707  9.94310243902439 15.02353170731707  C 13.12967804878049 14.98638048780488  14.40718048780488 12.200351219512196  14.419980487804878 12.17256585365854  C 14.559531707317074 11.857873170731708  14.92729756097561 11.714575609756096  15.244175609756098 11.856624390243905  C 15.558868292682927 11.996800000000004  15.700917073170732 12.365814634146341  15.560117073170732 12.681131707317073  Z M 14.3481756097561 8.126517073170731  C 14.3481756097561 8.814282926829268  13.79059512195122 9.372487804878048  13.102517073170732 9.372487804878048  C 12.414126829268293 9.372487804878048  11.856858536585367 8.814282926829268  11.856858536585367 8.126517073170731  C 11.856858536585367 7.439375609756097  12.414126829268293 6.881482926829268  13.102517073170732 6.881482926829268  C 13.79059512195122 6.881482926829268  14.3481756097561 7.439375609756097  14.3481756097561 8.126517073170731  Z M 8.104273170731707 8.126517073170731  C 8.104273170731707 8.814282926829268  7.546692682926829 9.372487804878048  6.858614634146342 9.372487804878048  C 6.170224390243902 9.372487804878048  5.612956097560976 8.814282926829268  5.612956097560976 8.126517073170731  C 5.612956097560976 7.439375609756097  6.170224390243902 6.881482926829268  6.858614634146342 6.881482926829268  C 7.546692682926829 6.881482926829268  8.104273170731707 7.439375609756097  8.104273170731707 8.126517073170731  Z " fill-rule="nonzero" fill="#7d7d7d" stroke="none" transform="matrix(1 0 0 1 281 815 )" />
  </g>
</svg>