<?xml version="1.0" encoding="utf-8"?>
<svg version="1.1" xmlns:xlink="http://www.w3.org/1999/xlink" width="13px" height="12px" xmlns="http://www.w3.org/2000/svg">
  <g transform="matrix(1 0 0 1 -426 -822 )">
    <path d="M 7.211111104166667 8.050812113636363  C 10.406488874999997 7.663321204545452  12.9 4.702254545454544  12.9 1.1147636363636375  L 12.9 0.9208242500000019  C 12.899999999999999 0.4923851692514011  12.58162470943622 0.14506667045454885  12.188888885416667 0.14506667045454885  C 11.796153061397115 0.14506667045454885  11.477777770833338 0.49238516925139986  11.477777770833338 0.9208242500000019  L 11.477777770833335 1.1147636363636375  C 11.477777770833335 4.109187886363639  9.244888875000001 6.54506665909091  6.5 6.54506665909091  C 3.7551111249999987 6.54506665909091  1.5222222291666665 4.109187863636363  1.5222222291666665 1.1147636363636375  L 1.5222222291666665 0.9208242500000019  C 1.5222222291666665 0.49238516925139986  1.2038469386028878 0.14506667045454885  0.8111111145833341 0.14506667045454885  C 0.4183752905637809 0.14506667045454885  0.10000000000000082 0.49238516925139986  0.10000000000000082 0.9208242500000019  L 0.10000000000000024 1.1147636363636375  C 0.10000000000000024 4.701866659090911  2.5935111041666667 7.663321204545456  5.788888895833334 8.050812113636363  L 5.788888895833334 10.42424243181818  L 2.2333333333333343 10.42424243181818  C 1.8405975150667473 10.42424243181818  1.5222222291666665 10.771560925527359  1.5222222291666665 11.2  C 1.5222222291666665 11.62843907447264  1.8405975150667473 11.975757568181816  2.2333333333333343 11.975757568181816  L 10.766666666666666 11.975757568181816  C 11.159402484933253 11.975757568181816  11.477777770833335 11.62843907447264  11.477777770833335 11.2  C 11.477777770833335 10.771560925527359  11.159402484933253 10.42424243181818  10.766666666666666 10.42424243181818  L 7.211111104166667 10.42424243181818  L 7.211111104166667 8.050812113636363  Z " fill-rule="nonzero" fill="#7d7d7d" stroke="none" transform="matrix(1 0 0 1 426 822 )" />
  </g>
</svg>