<?xml version="1.0" encoding="utf-8"?>
<svg version="1.1" xmlns:xlink="http://www.w3.org/1999/xlink" width="20px" height="19px" xmlns="http://www.w3.org/2000/svg">
  <g transform="matrix(1 0 0 1 -492 -815 )">
    <path d="M 19.379185267857142 9.497859074519235  C 19.375 8.913386418269235  19.318498883928573 8.34175931490385  19.220145089285715 7.785118689903847  C 19.165736607142858 7.478966346153844  18.971121651785715 7.2177734375  18.694893973214285 7.093599759615384  L 17.636021205357142 6.616173377403844  C 16.71107700892857 6.198692908653844  16.154436383928573 5.207444411057691  16.265345982142858 4.169095552884614  L 16.392996651785715 2.9658954326923066  C 16.424386160714285 2.670447716346154  16.319754464285715 2.3707181490384617  16.102120535714285 2.178034855769231  C 15.250418526785714 1.4222881610576918  14.268973214285714 0.8206881009615385  13.193359375 0.41605318509615385  C 12.923409598214286 0.3154296875  12.619977678571427 0.3689528245192307  12.385602678571427 0.5445087139423077  L 11.356026785714286 1.3152418870192306  C 10.9521484375 1.6171123798076916  10.475027901785714 1.769118088942307  9.997907366071429 1.769118088942307  C 9.520786830357142 1.769118088942307  9.045758928571429 1.6171123798076916  8.639787946428571 1.3152418870192306  L 7.610212053571429 0.5445087139423074  C 7.375837053571429 0.3689528245192304  7.074497767857143 0.31542968749999967  6.802455357142857 0.4160531850961535  C 5.726841517857143 0.8185471754807689  4.745396205357142 1.4222881610576918  3.8936941964285716 2.178034855769231  C 3.6760602678571423 2.3707181490384617  3.571428571428571 2.670447716346154  3.6028180803571423 2.9658954326923075  L 3.7304687499999996 4.175518329326923  C 3.8413783482142856 5.21172626201923  3.2868303571428568 6.198692908653847  2.3639787946428563 6.616173377403847  L 1.3009207589285707 7.095740685096153  C 1.0246930803571421 7.21991436298077  0.8300781249999993 7.481107271634615  0.7756696428571419 7.787259615384615  C 0.6752232142857135 8.343900240384615  0.6208147321428563 8.91552734375  0.6208147321428563 9.50214092548077  C 0.6208147321428563 10.08875450721154  0.6773158482142848 10.660381610576923  0.7756696428571419 11.217022235576923  C 0.830078124999999 11.523174579326923  1.0246930803571421 11.78436748798077  1.3009207589285703 11.908541165865383  L 2.3639787946428563 12.388108473557693  C 3.2868303571428563 12.803448016826923  3.8413783482142847 13.792555588942307  3.7304687499999996 14.828763521634617  L 3.6028180803571423 16.03838641826923  C 3.5756138392857144 16.329552283653847  3.6802455357142856 16.62928185096154  3.8978794642857144 16.82196514423077  C 4.7495814732142865 17.577711838942307  5.7310267857142865 18.17931189903846  6.806640625 18.581805889423077  C 7.076590401785713 18.682429387019234  7.380022321428569 18.628906250000004  7.614397321428571 18.453350360576923  L 8.643973214285714 17.6826171875  C 9.0478515625 17.38074669471154  9.524972098214286 17.228740985576923  10.002092633928573 17.228740985576923  C 10.479213169642858 17.228740985576923  10.954241071428573 17.38074669471154  11.360212053571427 17.6826171875  L 12.389787946428573 18.453350360576923  C 12.624162946428575 18.628906250000004  12.925502232142861 18.682429387019234  13.197544642857146 18.581805889423077  C 14.273158482142858 18.179311899038463  15.254603794642858 17.57557091346154  16.10630580357143 16.819824218750004  C 16.323939732142858 16.627140925480774  16.428571428571427 16.32741135817308  16.397181919642858 16.031963641826927  L 16.26953125 14.828763521634619  C 16.158621651785715 13.790414663461542  16.715262276785715 12.799166165865389  17.640206473214285 12.381685697115389  L 18.699079241071427 11.90425931490385  C 18.97530691964286 11.780085637019237  19.169921875 11.51889272836539  19.22433035714286 11.21274038461539  C 19.324776785714285 10.65609975961539  19.379185267857142 10.084472656250004  19.379185267857142 9.497859074519235  Z M 18.483537946428573 9.5  C 18.4814453125 10.007399338942308  18.433314732142858 10.53192608173077  18.339146205357142 11.06073467548077  L 17.2802734375 11.538161057692305  C 15.995396205357142 12.116210937499998  15.225306919642854 13.492826021634611  15.378069196428573 14.933668870192307  L 15.505719866071427 16.136868990384617  C 14.733537946428573 16.81768329326923  13.848353794642858 17.35291466346154  12.910853794642858 17.70830829326923  L 11.967075892857142 17.001802884615383  C 11.494140625 16.64855018028846  10.947963169642858 16.395920973557693  10.3662109375 16.329552283653847  C 9.556361607142858 16.23749248798077  8.76953125 16.45372596153846  8.120814732142858 16.937575120192307  L 7.0912388392857135 17.70830829326923  C 6.1537388392857135 17.35291466346154  5.2685546875 16.81768329326923  4.496372767857143 16.136868990384617  L 4.6240234375 14.933668870192307  C 4.7767857142857135 13.492826021634617  4.006696428571429 12.11835186298077  2.7218191964285716 11.538161057692305  L 1.6608537946428568 11.06073467548077  C 1.5666852678571423 10.531926081730768  1.5185546874999998 10.009540264423075  1.5185546874999998 9.5  C 1.5185546874999998 8.992600661057692  1.5666852678571423 8.46807391826923  1.6608537946428568 7.93926532451923  L 2.7218191964285716 7.461838942307692  C 4.006696428571429 6.8837890625  4.7767857142857135 5.507173978365385  4.6240234375 4.066331129807693  L 4.496372767857143 2.863131009615385  C 5.2685546875 2.182316706730769  6.1537388392857135 1.6470853365384617  7.0912388392857135 1.2916917067307692  L 8.035016741071429 1.9981971153846154  C 8.507952008928573 2.3514498197115383  9.054129464285714 2.6040790264423075  9.635881696428571 2.670447716346154  C 10.445731026785715 2.762507512019231  11.232561383928573 2.5462740384615383  11.881277901785714 2.0624248798076925  L 12.910853794642858 1.2916917067307692  C 13.848353794642858 1.6470853365384617  14.733537946428573 2.182316706730769  15.505719866071427 2.863131009615385  L 15.378069196428573 4.0663311298076925  C 15.225306919642858 5.507173978365385  15.995396205357142 6.88164813701923  17.2802734375 7.461838942307691  L 18.341238839285715 7.939265324519229  C 18.435407366071427 8.46807391826923  18.483537946428573 8.990459735576923  18.483537946428573 9.5  Z M 13.572126116071427 9.5  C 13.572126116071427 7.481107271634616  11.973353794642858 5.845440204326923  10 5.845440204326923  C 8.026646205357142 5.845440204326923  6.427873883928571 7.481107271634616  6.427873883928571 9.5  C 6.427873883928571 11.518892728365383  8.026646205357142 13.154559795673077  10 13.154559795673077  C 11.973353794642858 13.154559795673077  13.572126116071427 11.518892728365383  13.572126116071427 9.5  Z M 12.678571428571427 9.5  C 12.678571428571427 11.013634314903847  11.4794921875 12.240384615384617  10 12.240384615384617  C 8.5205078125 12.240384615384617  7.321428571428571 11.013634314903847  7.321428571428571 9.5  C 7.321428571428571 7.986365685096152  8.5205078125 6.759615384615385  10 6.759615384615385  C 11.4794921875 6.759615384615385  12.678571428571427 7.986365685096153  12.678571428571427 9.5  Z " fill-rule="nonzero" fill="#7d7d7d" stroke="none" transform="matrix(1 0 0 1 492 815 )" />
  </g>
</svg>