<?xml version="1.0" encoding="utf-8"?>
<svg version="1.1" xmlns:xlink="http://www.w3.org/1999/xlink" width="23px" height="16px" xmlns="http://www.w3.org/2000/svg">
  <g transform="matrix(1 0 0 1 -576 -863 )">
    <path d="M 22.665000000000003 2.285  C 22.665000000000003 1.1300000000000008  21.735 0.1999999999999993  20.580000000000002 0.1999999999999993  L 7.4399999999999995 0.1999999999999993  C 6.809999999999998 0.1999999999999993  6.209999999999999 0.4850000000000003  5.805 0.9800000000000004  L 0.6749999999999998 7.129999999999999  L 0.6600000000000001 7.145  C 0.47999999999999954 7.385  0.3900000000000001 7.6850000000000005  0.3900000000000001 8  C 0.3900000000000001 8.33  0.5100000000000002 8.66  0.7199999999999998 8.930000000000001  L 5.805 15.05  C 6.209999999999999 15.530000000000001  6.809999999999998 15.814999999999998  7.4399999999999995 15.814999999999998  L 20.580000000000002 15.814999999999998  C 21.735 15.814999999999998  22.665000000000003 14.884999999999998  22.665000000000003 13.729999999999997  L 22.665000000000003 2.285  Z M 16.439999999999998 9.77  C 16.74 10.07  16.74 10.564999999999998  16.44 10.865000000000002  C 16.29 11.015  16.095000000000002 11.09  15.899999999999997 11.09  C 15.690000000000001 11.09  15.495000000000003 11.015  15.36 10.865000000000002  L 13.589999999999995 9.094999999999999  L 11.819999999999999 10.864999999999998  C 11.669999999999998 11.014999999999997  11.474999999999998 11.089999999999996  11.279999999999998 11.089999999999996  C 10.859999999999998 11.089999999999996  10.514999999999997 10.744999999999997  10.514999999999997 10.324999999999996  C 10.514999999999997 10.114999999999998  10.589999999999996 9.919999999999998  10.739999999999997 9.784999999999997  L 12.509999999999998 8.014999999999999  L 10.724999999999998 6.229999999999999  C 10.424999999999997 5.929999999999998  10.424999999999997 5.4499999999999975  10.724999999999998 5.149999999999999  C 11.024999999999997 4.850000000000001  11.504999999999997 4.85  11.804999999999996 5.149999999999999  L 13.574999999999998 6.919999999999998  L 15.344999999999999 5.149999999999999  C 15.645 4.85  16.125 4.85  16.424999999999997 5.164999999999997  C 16.569002908925725 5.307798446535042  16.650004923974933 5.5021990283260624  16.650004923974933 5.704999999999998  C 16.650004923974933 5.907800971673932  16.569002908925725 6.102201553464955  16.424999999999997 6.244999999999999  L 14.669999999999998 8  L 16.439999999999998 9.77  Z " fill-rule="nonzero" fill="#797979" stroke="none" transform="matrix(1 0 0 1 576 863 )" />
  </g>
</svg>