<?xml version="1.0" encoding="utf-8"?>
<svg version="1.1" xmlns:xlink="http://www.w3.org/1999/xlink" width="40px" height="40px" xmlns="http://www.w3.org/2000/svg">
  <g transform="matrix(1 0 0 1 -2089 -2387 )">
    <path d="M 39.733333333333334 40  C 39.413333333333334 29.8  27.253333333333334 32.35  25.439999999999998 27.7  C 25.28 26.150000000000002  25.333333333333332 25  25.333333333333332 23.55  C 26.08 23.15  28.746666666666666 20.75  28.96 18.75  C 29.546666666666667 18.700000000000003  30.506666666666664 18.15  30.773333333333333 15.95  C 30.933333333333334 14.8  30.346666666666664 14.1  29.97333333333333 13.899999999999999  C 30.93333333333333 11.149999999999999  31.359999999999996 2.549999999999999  24.639999999999993 1.6999999999999993  C 23.946666666666665 0.6  22.186666666666667 0  19.893333333333334 0  C 10.719999999999999 0.15  8 6.6000000000000005  10.026666666666666 13.95  C 9.653333333333334 14.15  9.066666666666666 14.8  9.226666666666667 16  C 9.493333333333332 18.2  10.453333333333333 18.75  11.04 18.8  C 11.253333333333334 20.85  13.919999999999998 23.25  14.666666666666666 23.6  C 14.666666666666666 25.050000000000004  14.719999999999999 26.150000000000002  14.559999999999999 27.750000000000004  C 12.746666666666668 32.35  0.8533333333333332 29.950000000000003  0.2666666666666666 40  L 39.733333333333334 40  Z " fill-rule="nonzero" fill="#ffffff" stroke="none" transform="matrix(1 0 0 1 2089 2387 )" />
  </g>
</svg>