<?xml version="1.0" encoding="utf-8"?>
<svg version="1.1" xmlns:xlink="http://www.w3.org/1999/xlink" width="20px" height="20px" xmlns="http://www.w3.org/2000/svg">
  <g transform="matrix(1 0 0 1 -413 -2313 )">
    <path d="M 3.5296780487804877 0.0519024390243899  C 2.296819512195122 -0.18286829268292681  0.08273170731707317 1.4592780487804877  0.03871219512195122 2.8485463414634147  C 0.03871219512195122 2.8485463414634147  -0.8388682926829267 7.316682926829269  5.767492682926829 13.923043902439025  C 5.815570731707317 13.970809756097562  5.861775609756098 14.014204878048782  5.909229268292683 14.061346341463414  C 5.956682926829268 14.108800000000002  6.000078048780488 14.155317073170732  6.047843902439024 14.20339512195122  C 12.65420487804878 20.809756097560978  17.122341463414635 19.932175609756097  17.122341463414635 19.932175609756097  C 17.395824390243902 19.895648780487807  17.970575609756096 19.731746341463413  18.165073170731706 19.5366243902439  C 18.165073170731706 19.5366243902439  19.18158048780488 18.70119024390244  19.80440975609756 17.67188292682927  C 20.427551219512196 16.642887804878047  19.249951219512194 15.090341463414633  18.572487804878048 14.413190243902438  C 17.20569756097561 13.046399999999998  15.948799999999999 12.779785365853657  15.395278048780487 13.15972682926829  C 15.146458536585367 13.330497560975607  14.157736585365853 14.39601951219512  14.157736585365853 14.39601951219512  C 13.962926829268294 14.591141463414631  13.577365853658536 14.753170731707314  13.301697560975612 14.75660487804878  C 13.301697560975612 14.75660487804878  11.574009756097563 14.774087804878047  8.360273170731709 11.610302439024391  C 5.196487804878048 8.396878048780486  5.213658536585366 6.669190243902438  5.213658536585366 6.669190243902438  C 5.2174048780487805 6.3938341463414625  5.379121951219512 6.007960975609756  5.574243902439024 5.813151219512195  C 5.574243902439024 5.813151219512195  6.7999219512195115 4.588409756097561  6.810536585365854 4.575609756097561  C 7.27539512195122 3.993678048780487  6.505521951219513 2.546965853658536  5.557073170731708 1.3983999999999996  C 4.947356097560976 0.6600585365853653  4.453463414634147 0.2279804878048776  3.5296780487804877 0.0519024390243899  Z " fill-rule="nonzero" fill="#7f7f7f" stroke="none" transform="matrix(1 0 0 1 413 2313 )" />
  </g>
</svg>