<?xml version="1.0" encoding="utf-8"?>
<svg version="1.1" xmlns:xlink="http://www.w3.org/1999/xlink" width="31px" height="30px" xmlns="http://www.w3.org/2000/svg">
  <g transform="matrix(1 0 0 1 -1522 -2352 )">
    <path d="M 15.517899527515283 0.964115866839602  C 7.482207128960532 0.964115866839602  0.9693961923290713 7.461489407695634  0.9693961923290713 15.477669693039344  C 0.9693961923290713 23.49384997838305  7.482562534741523 29.99109381755296  15.517867217898832 29.99109381755296  C 23.552428779877708 29.99109381755296  30.065627431906616 23.49384997838305  30.065627431906616 15.477669693039344  C 30.06565974152307 7.461748811067877  23.55242877987771 0.964115866839602  15.517867217898836 0.964115866839602  Z M 28.08246317398555 15.493363597060096  C 28.08246317398555 22.45879809770861  22.45600194552529 28.105393428447904  15.51547630628127 28.105393428447904  C 8.574918357420792 28.105393428447904  2.948489438576989 22.458765672287075  2.948489438576989 15.493363597060096  C 2.948489438576989 8.527929096411588  8.574950667037244 2.881333765672289  15.51547630628127 2.881333765672289  C 22.456001945525294 2.881333765672289  28.08246317398555 8.527961521833118  28.08246317398555 15.493363597060096  Z M 9.778580808782655 13.569563337656726  C 8.766902098387991 13.569563337656726  7.946787103946637 14.392650237786427  7.946787103946637 15.407922611327281  C 7.946787103946637 16.42322741028967  8.766934408004449 17.24628188499784  9.778580808782655 17.24628188499784  C 10.790227209560866 17.24628188499784  11.610374513618677 16.42319498486814  11.610374513618677 15.407922611327281  C 11.610374513618677 14.392617812364895  10.790227209560866 13.569563337656726  9.778580808782655 13.569563337656726  Z M 15.912949207893277 13.569563337656726  C 14.901270497498611 13.569563337656726  14.081155503057257 14.392650237786427  14.081155503057255 15.407922611327281  C 14.081155503057255 16.42322741028967  14.901302807115064 17.24628188499784  15.912949207893277 17.24628188499784  C 16.92459560867149 17.24628188499784  17.7447429127293 16.42319498486814  17.7447429127293 15.407922611327281  C 17.7447429127293 14.392617812364895  16.92459560867149 13.569563337656726  15.912949207893277 13.569563337656726  Z M 21.45094670650362 13.569563337656726  C 20.439267996108953 13.569563337656726  19.61915300166759 14.392650237786427  19.61915300166759 15.407922611327281  C 19.61915300166759 16.42322741028967  20.439300305725403 17.24628188499784  21.45094670650362 17.24628188499784  C 22.462593107281826 17.24628188499784  23.282740411339635 16.42319498486814  23.282740411339635 15.407922611327281  C 23.282740411339635 14.392617812364895  22.462593107281826 13.569563337656726  21.45094670650362 13.569563337656726  Z " fill-rule="nonzero" fill="#aaaaaa" stroke="none" transform="matrix(1 0 0 1 1522 2352 )" />
  </g>
</svg>