<?xml version="1.0" encoding="utf-8"?>
<svg version="1.1" xmlns:xlink="http://www.w3.org/1999/xlink" width="20px" height="17px" xmlns="http://www.w3.org/2000/svg">
  <g transform="matrix(1 0 0 1 -703 -1170 )">
    <path d="M 19.375 4.665437500000001  C 16.86682692307692 2.159265624999999  13.590625000000001 0.4069375000000006  9.993509615384616 0.4069375000000006  C 6.4028846153846155 0.4069375000000006  3.131009615384616 2.154484375  0.625 4.652687500000001  L 2.0932692307692307 6.523749999999999  C 4.209134615384615 4.4223906249999985  6.966826923076923 3.1410156249999983  9.993509615384616 3.1410156249999983  C 13.02451923076923 3.1410156249999983  15.787259615384615 4.427171874999998  17.90528846153846 6.534109374999999  L 19.375 4.665437500000001  Z M 9.993509615384616 5.8025781249999975  C 7.581971153846155 5.802578125  5.381730769230769 6.89190625  3.6899038461538463 8.55896875  L 5.243269230769231 10.539203125  C 6.522596153846154 9.292890625  8.17980769230769 8.53665625  9.993509615384616 8.53665625  C 11.810817307692306 8.53665625  13.469471153846156 9.295281249999999  14.750240384615385 10.545578125  L 16.30576923076923 8.56853125  C 14.612499999999999 6.895093749999999  12.409375 5.8025781249999975  9.993509615384616 5.8025781249999975  Z M 9.993509615384616 11.123312499999999  C 8.776923076923076 11.123312499999999  7.662740384615384 11.695468750000002  6.7973557692307685 12.519437500000002  L 9.993509615384616 16.5930625  L 13.193990384615384 12.523421875000002  C 12.32716346153846 11.696265624999999  11.212259615384614 11.123312499999999  9.993509615384616 11.123312499999999  Z " fill-rule="nonzero" fill="#ffffff" stroke="none" transform="matrix(1 0 0 1 703 1170 )" />
  </g>
</svg>