<?xml version="1.0" encoding="utf-8"?>
<svg version="1.1" xmlns:xlink="http://www.w3.org/1999/xlink" width="29px" height="30px" xmlns="http://www.w3.org/2000/svg">
  <g transform="matrix(1 0 0 1 -472 -1794 )">
    <path d="M 28.639549398648644 25.12553765000001  C 29.00087333108108 25.494746550000002  29.00087333108108 26.091641049999996  28.640702393581083 26.46038945  L 27.284835511824323 27.843899450000006  C 26.731069538851347 28.409583100000003  26.0428598597973 28.860963500000004  25.234643282094595 29.188216800000003  C 24.34622161993243 29.550262550000003  23.348219783783783 29.72381525  22.281692711148644 29.72381525  C 18.18672209121621 29.725810699999997  11.71577618074324 25.81759965  7.427561415540536 21.440612050000006  C 2.0215886283783746 15.922484550000005  -1.2175436908783834 8.329501400000005  0.49418312162161643 3.9375223500000036  C 0.7443728327702658 3.2944255500000024  1.0917610895270222 2.7228067500000037  1.5049676385135087 2.220772700000003  L 1.503814692567564 2.218419100000003  L 1.5917896216216185 2.0733143000000025  C 1.630889606418916 2.0077203500000023  1.6765563766891862 1.9484198000000021  1.728138265202699 1.8958218500000028  L 3.150976385135132 0.4447225000000032  C 3.5114480996621578 0.07356935000000249  4.097446445945944 0.07356935000000249  4.45796832263513 0.4447225000000032  L 5.098506165540536 1.0981546500000035  L 10.679426302364861 6.795770050000004  C 11.03999824324324 7.162574150000003  11.03999824324324 7.759878000000004  10.678273356418917 8.128626350000005  L 9.186107944256753 9.653659600000005  L 8.17146353716216 10.689705950000008  C 8.17146353716216 10.689705950000008  7.640505917229726 14.163523500000007  11.4203207027027 18.0210809  C 15.200085374999999 21.877103300000005  18.587947966216213 21.351737900000007  18.587947966216213 21.351737900000007  L 21.110197248310808 18.776485500000007  C 21.470719076013506 18.407685950000005  22.05746936486486 18.407685950000005  22.416838246621616 18.776485500000007  L 28.639549398648644 25.12553765000001  Z " fill-rule="nonzero" fill="#ffffff" stroke="none" transform="matrix(1 0 0 1 472 1794 )" />
  </g>
</svg>