<?xml version="1.0" encoding="utf-8"?>
<svg version="1.1" xmlns:xlink="http://www.w3.org/1999/xlink" width="20px" height="18px" xmlns="http://www.w3.org/2000/svg">
  <g transform="matrix(1 0 0 1 -678 -1169 )">
    <path d="M 0 17.902627511591962  L 0 12.748474735316847  L 2.9154803554868627 12.748474735316847  L 2.9154803554868627 17.902627511591962  L 0 17.902627511591962  Z M 4.164971931993818 17.902627511591962  L 4.164971931993818 9.937118688176199  L 7.0804522874806795 9.937118688176199  L 7.0804522874806795 17.902627511591962  L 4.164971931993818 17.902627511591962  Z M 9 17.902627511591962  L 9 6.657203288253477  L 11 6.657203288253477  L 11 17.902627511591962  L 9 17.902627511591962  Z M 13 17.902627511591962  L 13 3.377287888330757  L 15.826893353941268 3.377287888330757  L 15.826893353941268 17.902627511591962  L 13 17.902627511591962  Z M 17 17.902627511591962  L 17 0.0973724884080367  L 20 0.0973724884080367  L 20 17.902627511591962  L 17 17.902627511591962  Z " fill-rule="nonzero" fill="#ffffff" stroke="none" transform="matrix(1 0 0 1 678 1169 )" />
  </g>
</svg>