<?xml version="1.0" encoding="utf-8"?>
<svg version="1.1" xmlns:xlink="http://www.w3.org/1999/xlink" width="26px" height="26px" xmlns="http://www.w3.org/2000/svg">
  <g transform="matrix(1 0 0 1 -415 -1200 )">
    <path d="M 11.613207547169814 14.386792452830186  L 11.61320754716981 14.367924528301886  C 11.61320754716981 13.70754716981132  11.066037735849058 13.443396226415095  10.443396226415095 13.443396226415095  L 1.2358490566037736 13.443396226415095  C 0.7075471698113208 13.443396226415095  0.2924528301886793 13.858490566037737  0.2924528301886793 14.38679245283019  C 0.2924528301886793 14.91509433962264  0.7075471698113208 15.330188679245282  1.2358490566037736 15.330188679245282  L 8.38679245283019 15.330188679245282  L 0.500000000000001 23.21698113207547  C 0.14150943396226534 23.57547169811321  0.14150943396226534 24.141509433962263  0.500000000000001 24.5  C 0.8584905660377368 24.858490566037734  1.4245283018867936 24.858490566037734  1.7830188679245296 24.5  L 9.726415094339625 16.556603773584904  L 9.726415094339625 23.820754716981128  C 9.726415094339625 24.34905660377358  10.141509433962266 24.764150943396224  10.669811320754718 24.764150943396224  C 11.198113207547172 24.764150943396224  11.613207547169814 24.34905660377358  11.613207547169814 23.820754716981128  L 11.613207547169814 14.386792452830186  Z M 24.80188679245283 10.61320754716981  C 24.82075471698113 10.084905660377357  24.38679245283019 9.669811320754718  23.877358490566035 9.669811320754718  L 16.70754716981132 9.669811320754718  L 24.59433962264151 1.783018867924529  C 24.952830188679247 1.4245283018867931  24.952830188679247 0.8584905660377364  24.59433962264151 0.5000000000000002  C 24.235849056603776 0.14150943396226448  23.669811320754715 0.14150943396226448  23.311320754716984 0.5000000000000002  L 15.386792452830186 8.443396226415095  L 15.386792452830186 1.179245283018868  C 15.386792452830186 0.6509433962264151  14.952830188679247 0.2358490566037736  14.443396226415093 0.2358490566037736  C 13.915094339622641 0.2358490566037736  13.499999999999998 0.6509433962264151  13.499999999999998 1.179245283018868  L 13.499999999999998 10.61320754716981  C 13.499999999999998 10.632075471698114  13.5188679245283 10.650943396226415  13.5188679245283 10.669811320754716  C 13.5188679245283 10.915094339622641  13.594339622641508 11.160377358490566  13.783018867924529 11.330188679245284  C 14.009433962264154 11.575471698113207  14.349056603773585 11.650943396226415  14.650943396226415 11.556603773584905  L 23.858490566037734 11.556603773584905  C 24.386792452830186 11.556603773584905  24.80188679245283 11.141509433962264  24.80188679245283 10.61320754716981  Z " fill-rule="nonzero" fill="#ffffff" stroke="none" transform="matrix(1 0 0 1 415 1200 )" />
  </g>
</svg>