<?xml version="1.0" encoding="utf-8"?>
<svg version="1.1" xmlns:xlink="http://www.w3.org/1999/xlink" width="25px" height="12px" xmlns="http://www.w3.org/2000/svg">
  <g transform="matrix(1 0 0 1 -728 -1172 )">
    <path d="M 2.309782608695652 2.1538461463341343  L 2.309782608695652 9.846153853665866  L 7.9710144839079495 9.846153853665866  L 7.971014483907949 2.1538461463341343  L 2.309782608695652 2.1538461463341343  Z M 24.95471013608186 5.038461530949519  C 24.95471013608186 4.5096153921274045  24.445199266516642 4.076923084435097  23.822463776961616 4.076923084435097  L 23.822463776961616 2.153846168870193  C 23.822463776961616 1.096153868689905  22.803442037831182 0.23076925330528955  21.5579710321841 0.23076925330528955  L 2.309782608695652 0.23076923076923078  C 1.0643116030485733 0.23076923076923078  0.045289863918138766 1.0961538461538454  0.045289863918138766 2.1538461463341343  L 0.045289863918138766 9.846153831129806  C 0.045289863918138766 10.903846131310095  1.0643116030485733 11.76923074669471  2.309782608695652 11.76923074669471  L 21.55797100564708 11.76923074669471  C 22.803442011294155 11.76923074669471  23.822463750424596 10.903846131310095  23.822463750424596 9.846153831129806  L 23.822463750424596 7.923076915564901  C 24.44519926651665 7.923076915564901  24.95471013608186 7.490384607872594  24.95471013608186 6.961538446514423  L 24.95471013608186 5.038461530949519  Z M 22.690217391304348 2.1538461463341343  L 22.690217391304348 9.846153853665866  C 22.690217391304348 10.375000015024039  22.18070652173913 10.807692322716344  21.55797100564708 10.807692322716344  L 2.309782608695652 10.807692300180287  C 1.6870470926036008 10.807692300180287  1.1775362230383832 10.37499999248798  1.1775362230383832 9.846153831129811  L 1.1775362230383832 2.1538461463341343  C 1.1775362230383832 1.6249999849759615  1.6870470926036008 1.1923076772836532  2.309782608695652 1.1923076772836532  L 21.55797100564708 1.1923076772836532  C 22.18070652173913 1.1923076772836532  22.690217391304348 1.6249999849759609  22.690217391304348 2.1538461463341343  Z " fill-rule="nonzero" fill="#ffffff" stroke="none" transform="matrix(1 0 0 1 728 1172 )" />
  </g>
</svg>