<?xml version="1.0" encoding="utf-8"?>
<svg version="1.1" xmlns:xlink="http://www.w3.org/1999/xlink" width="25px" height="26px" xmlns="http://www.w3.org/2000/svg">
  <g transform="matrix(1 0 0 1 -1182 -1491 )">
    <path d="M 24.68926672297297 21.77546596333334  C 25.00075287162162 22.09544701  25.00075287162162 22.612755576666665  24.690260684121622 22.932337523333334  L 23.521409923986486 24.131379523333337  C 23.044025464527024 24.62163868666667  22.450741258445948 25.012835033333335  21.75400282939189 25.29645456  C 20.988122086148646 25.610227543333338  20.127775675675675 25.760639883333337  19.208355785472968 25.760639883333337  C 15.678208699324319 25.76236927333333  10.099807052364863 22.37525303  6.403070185810806 18.581863776666673  C 1.7427488175675643 13.799486610000004  -1.049606630067572 7.2189012133333375  0.4260199324324279 3.4125193700000027  C 0.6417007179054015 2.855168810000002  0.9411733530405364 2.359765850000003  1.2973858952702662 1.9246696733333362  L 1.2963919763513483 1.922629886666669  L 1.3722324324324298 1.7968723933333357  C 1.405939315878376 1.7400243033333354  1.4453072212837812 1.6886304933333351  1.489774366554051 1.6430456033333358  L 2.7163589527027 0.3854261666666694  C 3.0271104307432397 0.06376010333333548  3.532281418918917 0.06376010333333548  3.8430761402026987 0.3854261666666694  L 4.395263935810807 0.9517340300000031  L 9.206401984797294 5.8896673766666705  C 9.51723986486486 6.207564263333336  9.51723986486486 6.725227600000004  9.205408065878377 7.0448095033333376  L 7.919058572635132 8.366504986666671  L 7.044365118243241 9.26441182333334  C 7.044365118243241 9.26441182333334  6.5866430320945915 12.275053700000008  9.845104054054051 15.618270113333336  C 13.103521874999998 18.96015619333334  16.024093074324323 18.504839513333337  16.024093074324323 18.504839513333337  L 18.198445903716213 16.272954100000007  C 18.509240582770264 15.953327823333339  19.015059797297294 15.953327823333339  19.324860557432427 16.272954100000007  L 24.68926672297297 21.77546596333334  Z " fill-rule="nonzero" fill="#7f7f7f" stroke="none" transform="matrix(1 0 0 1 1182 1491 )" />
  </g>
</svg>