<?xml version="1.0" encoding="utf-8"?>
<svg version="1.1" xmlns:xlink="http://www.w3.org/1999/xlink" width="15px" height="15px" xmlns="http://www.w3.org/2000/svg">
  <g transform="matrix(1 0 0 1 -299 -290 )">
    <path d="M 6.503396226415096 8.056603773584904  L 6.503396226415094 8.046037735849056  C 6.503396226415094 7.67622641509434  6.196981132075472 7.528301886792453  5.848301886792453 7.528301886792453  L 0.6920754716981132 7.528301886792453  C 0.39622641509433965 7.528301886792453  0.1637735849056604 7.760754716981133  0.1637735849056604 8.056603773584905  C 0.1637735849056604 8.352452830188678  0.39622641509433965 8.584905660377359  0.6920754716981132 8.584905660377359  L 4.696603773584906 8.584905660377359  L 0.2800000000000006 13.001509433962264  C 0.07924528301886859 13.202264150943396  0.07924528301886859 13.519245283018867  0.2800000000000006 13.719999999999999  C 0.4807547169811326 13.920754716981131  0.7977358490566044 13.920754716981131  0.9984905660377366 13.719999999999999  L 5.44679245283019 9.271698113207545  L 5.44679245283019 13.339622641509433  C 5.44679245283019 13.635471698113205  5.679245283018869 13.867924528301884  5.975094339622642 13.867924528301884  C 6.270943396226416 13.867924528301884  6.503396226415096 13.635471698113205  6.503396226415096 13.339622641509433  L 6.503396226415096 8.056603773584904  Z M 13.889056603773584 5.943396226415095  C 13.899622641509433 5.64754716981132  13.656603773584905 5.415094339622642  13.37132075471698 5.415094339622642  L 9.35622641509434 5.415094339622642  L 13.772830188679245 0.9984905660377361  C 13.973584905660378 0.7977358490566041  13.973584905660378 0.48075471698113237  13.772830188679245 0.28000000000000014  C 13.572075471698113 0.07924528301886812  13.25509433962264 0.07924528301886812  13.05433962264151 0.28000000000000014  L 8.616603773584904 4.728301886792453  L 8.616603773584904 0.6603773584905661  C 8.616603773584904 0.3645283018867924  8.373584905660378 0.1320754716981132  8.088301886792452 0.1320754716981132  C 7.7924528301886795 0.1320754716981132  7.559999999999999 0.3645283018867924  7.559999999999999 0.6603773584905661  L 7.559999999999999 5.943396226415095  C 7.559999999999999 5.9539622641509435  7.570566037735848 5.9645283018867925  7.570566037735848 5.9750943396226415  C 7.570566037735848 6.112452830188679  7.612830188679244 6.249811320754716  7.718490566037737 6.344905660377359  C 7.845283018867926 6.482264150943396  8.035471698113207 6.524528301886793  8.204528301886793 6.471698113207547  L 13.360754716981132 6.471698113207547  C 13.656603773584905 6.471698113207547  13.889056603773584 6.239245283018868  13.889056603773584 5.943396226415095  Z " fill-rule="nonzero" fill="#ffffff" stroke="none" transform="matrix(1 0 0 1 299 290 )" />
  </g>
</svg>