<?xml version="1.0" encoding="utf-8"?>
<svg version="1.1" xmlns:xlink="http://www.w3.org/1999/xlink" width="12px" height="15px" xmlns="http://www.w3.org/2000/svg">
  <g transform="matrix(1 0 0 1 -382 -279 )">
    <path d="M 6.4721875 14.47734375  C 6.460625 14.202287946428573  6.264531250000001 13.972433035714285  6 13.971261160714286  C 5.887251249305237 13.970415374528995  5.774671943728653 13.961747685097063  5.66296875 13.9453125  L 5.78796875 13.963392857142857  C 5.4475 13.912165178571431  5.118125 13.8  4.80203125 13.657198660714286  L 4.91484375 13.707421875000001  C 4.611004652947249 13.567054290226375  4.317962134719757 13.401250873716586  4.038437500000001 13.211551339285714  C 3.883958333333334 13.107198660714285  3.732916666666668 12.997042410714288  3.5853125000000006 12.881082589285716  C 3.5521875000000005 12.854966517857145  3.519218750000001 12.828627232142859  3.486406250000001 12.802064732142858  C 3.4614062500000005 12.781808035714285  3.391250000000001 12.711830357142858  3.494218750000001 12.808928571428572  C 3.480468750000001 12.796037946428573  3.464843750000001 12.784319196428571  3.4504687500000006 12.772265625  C 3.3734895833333347 12.707087053571428  3.297447916666668 12.640457589285713  3.2223437500000003 12.572377232142856  C 2.9316676102721617 12.309171158663817  2.6574808676470045 12.025745685133531  2.4015625000000007 11.723939732142856  C 2.2785416666666674 11.578850446428572  2.160364583333334 11.429129464285714  2.0470312500000007 11.274776785714284  C 2.027031250000001 11.247823660714284  1.9845312500000007 11.184709821428571  2.0626562500000007 11.29754464285714  C 2.0520312500000006 11.282142857142857  2.041093750000001 11.26707589285714  2.030312500000001 11.251841517857141  C 2.0036458333333345 11.213895089285714  1.9772395833333345 11.17572544642857  1.951093750000001 11.137332589285712  C 1.8944270833333348 11.053962053571425  1.8394270833333346 10.969308035714283  1.7860937500000014 10.883370535714286  C 1.5780824585908597 10.550513478592494  1.399098754151284 10.197854908404349  1.251406250000001 9.829854910714285  L 1.2990625000000011 9.95072544642857  C 1.1428125000000011 9.554799107142857  1.0289062500000012 9.141294642857142  0.975000000000001 8.714899553571428  L 0.9918750000000012 8.848828124999999  C 0.9565625000000013 8.557198660714286  0.9606250000000012 8.26640625  0.9606250000000012 7.973437499999999  L 0.9606250000000012 3.0755022321428576  C 0.9606250000000012 2.9928013392857142  0.9560937500000013 2.9080915178571427  0.965156250000001 2.8255580357142858  L 0.9484375000000016 2.9594866071428574  C 0.9551110889859631 2.915069393946579  0.966757596669841 2.871676035201628  0.9831250000000011 2.8302455357142855  L 0.9362500000000011 2.9511160714285714  C 0.9478125000000013 2.9248325892857143  0.9657812500000009 2.900892857142857  0.9762500000000012 2.874107142857143  C 0.9218750000000013 2.9464285714285716  0.9098958333333345 2.9631696428571432  0.940312500000001 2.924330357142857  C 0.947187500000001 2.916127232142857  0.9542187500000008 2.9075892857142858  0.9617187500000011 2.900725446428572  C 1.024218750000001 2.8232142857142857  0.870468750000001 2.9581473214285716  0.9379687500000009 2.918638392857143  C 0.9623437500000009 2.9042410714285714  0.9856250000000011 2.88984375  1.011093750000001 2.8777901785714284  L 0.8984375000000009 2.9280133928571432  C 0.9378367916980022 2.9116992855341977  0.9789060376896437 2.9004597546114717  1.020781250000001 2.89453125  L 0.8957812500000011 2.9126116071428574  C 1.0918750000000013 2.8943638392857145  1.2906250000000012 2.909095982142857  1.4873437500000013 2.8988839285714287  C 1.8911115496655824 2.8752619632968526  2.2923137809482643 2.815341470740397  2.6867187500000007 2.719754464285715  C 3.312500000000001 2.5741071428571436  3.906250000000001 2.317633928571429  4.480937500000001 2.0162946428571438  C 4.840909355999675 1.8292390207106073  5.18979773621271 1.61862902622386  5.525625000000001 1.385658482142858  C 5.578437500000001 1.3486607142857148  5.630937500000001 1.3111607142857151  5.681875000000001 1.2716517857142862  C 5.801093750000001 1.1794084821428579  5.91859375 1.0643973214285722  6.052031250000001 0.9965959821428576  L 5.93921875 1.0468191964285718  C 5.975841836291459 1.030587466134835  6.013973236909914 1.018577870767367  6.05296875 1.010993303571429  L 5.927968749999999 1.0290736607142863  C 5.9746414809694315 1.0224754139128671  6.021921019030568 1.0224754139128671  6.06859375 1.0290736607142863  L 5.943593750000001 1.010993303571429  C 5.9825667689519095 1.018518659377453  6.0206931051111905 1.0304144353769147  6.057343749999999 1.0464843750000006  L 5.944531249999999 0.9954241071428578  C 6.116406249999999 1.0818080357142863  6.26015625 1.2321428571428577  6.417499999999999 1.3451450892857146  C 6.71311517105033 1.5551374305940424  7.019941226736989 1.7464239153803545  7.33640625 1.9180245535714289  C 7.9 2.2275669642857148  8.48828125 2.50078125  9.1034375 2.667689732142857  C 9.545594115540872 2.7880141059239802  9.997122119014712 2.86461867734619  10.45234375 2.8965401785714286  C 10.668906250000001 2.911439732142857  10.887500000000001 2.893694196428572  11.1034375 2.9132812500000003  L 10.9784375 2.8952008928571433  C 11.020312712310359 2.9011293974686145  11.061381958302 2.91236892839134  11.10078125 2.9286830357142857  L 10.98796875 2.8784598214285717  C 11.01359375 2.8905133928571427  11.03671875 2.9049107142857142  11.06109375 2.9193080357142853  C 11.12859375 2.9588169642857145  10.97484375 2.823883928571429  11.03734375 2.9013950892857143  C 11.04484375 2.9089285714285715  11.05203125 2.9167968749999997  11.05875 2.9250000000000003  C 11.089270833333334 2.9633928571428574  11.077291666666667 2.9466517857142858  11.0228125 2.8747767857142854  C 11.0334375 2.900892857142857  11.051250000000001 2.9250000000000003  11.0628125 2.9516183035714283  L 11.0159375 2.830747767857143  C 11.032162903986865 2.872231968269583  11.043804478469585 2.915606946554623  11.050625 2.9599888392857143  L 11.03375 2.826060267857143  C 11.05671875 3.0336495535714287  11.038437499999999 3.252622767857143  11.038593749999999 3.460881696428572  L 11.038593749999999 4.858426339285715  L 11.03984375 7.860267857142857  C 11.03984375 8.191071428571428  11.048593749999998 8.522209821428572  11.00859375 8.851171875  L 11.02546875 8.71724330357143  C 10.9715625 9.143638392857145  10.85703125 9.557310267857144  10.70140625 9.953404017857144  L 10.74828125 9.832533482142857  C 10.617812596176819 10.15812019877244  10.462603241232966 10.471674451184269  10.284218749999999 10.770033482142857  C 10.1878125 10.931919642857144  10.085156249999999 11.089620535714287  9.9775 11.242968750000001  C 9.964062499999999 11.262053571428572  9.94984375 11.280636160714288  9.937031249999999 11.300055803571428  C 10.009062499999999 11.190066964285712  9.979531249999999 11.241462053571428  9.961406249999998 11.266573660714286  C 9.933281249999999 11.304408482142856  9.905312499999997 11.342410714285714  9.876874999999998 11.379910714285714  C 9.816249999999998 11.45970982142857  9.754270833333333 11.53833705357143  9.690937499999999 11.615792410714286  C 9.44047536252488 11.921366913701167  9.171340981609495 12.208774424408007  8.885312499999998 12.476116071428573  C 8.817812499999999 12.539397321428572  8.749427083333332 12.60150669642857  8.680156249999998 12.662444196428572  C 8.644114583333332 12.694252232142857  8.607656249999998 12.725669642857143  8.570781249999998 12.756696428571429  L 8.527187499999998 12.793694196428573  C 8.454531249999999 12.855468750000002  8.616249999999999 12.721037946428572  8.524062499999998 12.796037946428573  C 8.377187499999998 12.915680803571432  8.226458333333332 13.029854910714288  8.071874999999997 13.138560267857144  C 7.759075456017431 13.35978705064129  7.428743454177301 13.551147469561023  7.084687499999998 13.710435267857143  L 7.197499999999998 13.660212053571428  C 6.881249999999998 13.803180803571427  6.551874999999997 13.915178571428571  6.211249999999998 13.966406249999999  L 6.336249999999998 13.94832589285714  C 6.224743073322612 13.963704314535171  6.112426862526444 13.971365288153935  5.999999999999998 13.971261160714285  C 5.752968749999998 13.972433035714285  5.515624999999998 14.203292410714285  5.527812499999998 14.47734375  C 5.539999999999997 14.751395089285714  5.73515625 14.98443080357143  6 14.983258928571429  C 6.765625 14.979910714285714  7.516562499999999 14.656305803571428  8.172968749999999 14.256529017857144  C 8.956249999999999 13.779408482142857  9.671875 13.144921875  10.275468749999998 12.429575892857144  C 11.22875 11.29921875  11.984375 9.863002232142858  11.98328125 8.303571428571429  L 11.98234375 6.043526785714286  L 11.98109375 3.2630022321428567  L 11.98109375 2.952622767857142  C 11.98109375 2.680245535714285  11.9065625 2.4349888392857144  11.73875 2.226395089285714  C 11.56859375 2.0146205357142852  11.3128125 1.9093191964285712  11.056875 1.8996093749999996  C 10.964062499999999 1.8960937499999995  10.87109375 1.8962611607142854  10.77828125 1.894587053571428  C 10.64890625 1.8924107142857136  10.5203125 1.8910714285714278  10.39140625 1.880524553571428  C 10.26640625 1.8703124999999992  10.14140625 1.8555803571428564  10.0178125 1.837667410714285  L 10.1428125 1.8557477678571421  C 9.549932611698182 1.7701835423951169  8.970154483796996 1.6013204983603124  8.4184375 1.3535156249999996  L 8.53125 1.4037388392857137  C 7.8921875 1.1131138392857136  7.268437500000001 0.7648995535714281  6.70484375 0.3282924107142852  C 6.546875 0.20591517857142805  6.39484375 0.07382812499999947  6.1939062499999995 0.03582589285714239  C 5.9653125 -0.007533482142857666  5.73671875 0.02042410714285665  5.5325 0.14631696428571372  C 5.483491897854523 0.1792277082544972  5.436134708283831 0.21487971456282992  5.390625 0.2531249999999993  C 5.23828125 0.3719866071428564  5.086875 0.4874999999999994  4.9271875000000005 0.594977678571428  C 4.461080104880213 0.905628910282234  3.972850252946688 1.176444780914474  3.46703125 1.4049107142857136  L 3.579843750000001 1.3546874999999998  C 3.0287324933563173 1.6025213900326851  2.4495184884606074 1.7713884468535916  1.8571875000000002 1.8569196428571422  L 1.9821875000000002 1.8388392857142843  C 1.8027172867241732 1.8667351951043016  1.6219965264423908 1.8844496295536908  1.4407812500000001 1.891908482142856  C 1.2735937500000003 1.8969308035714276  1.1059375 1.8940848214285702  0.9385937499999999 1.900781249999999  C 0.4273437499999999 1.921205357142856  0.025624999999999787 2.347767857142856  0.016718749999999893 2.8995535714285703  C 0.015625 2.960658482142856  0.016718749999999893 3.0220982142857133  0.016718749999999893 3.0837053571428563  L 0.016718749999999893 8.190401785714286  C 0.016718749999999893 8.630022321428571  0.055312499999999876 9.066629464285715  0.1573437499999999 9.494029017857143  C 0.36140624999999993 10.3453125  0.7667187499999999 11.138337053571428  1.2639062499999998 11.83208705357143  C 1.8421604653647385 12.638103291249676  2.5357234966600055 13.341090715925093  3.3189062499999995 13.915011160714284  C 3.6514375258551883 14.161925669833778  4.004615061689283 14.375282592478984  4.373906249999999 14.552343749999999  C 4.722968749999999 14.716908482142857  5.081874999999999 14.860379464285714  5.459687499999999 14.927008928571428  C 5.6381290038841545 14.96096760754557  5.818794697372941 14.979776066092695  6 14.983258928571429  C 6.247031249999999 14.98443080357143  6.484375 14.748883928571429  6.4721875 14.47734375  Z " fill-rule="nonzero" fill="#ffffff" stroke="none" transform="matrix(1 0 0 1 382 279 )" />
  </g>
</svg>