<?xml version="1.0" encoding="utf-8"?>
<svg version="1.1" xmlns:xlink="http://www.w3.org/1999/xlink" width="18px" height="14px" xmlns="http://www.w3.org/2000/svg">
  <g transform="matrix(1 0 0 1 -618 -776 )">
    <path d="M 2.032258064516129 0  L 7.838709677419355 0  C 8.907647906238743 0  9.774193554435485 0.8441769053139985  9.774193554435485 1.885521891414142  L 9.774193554435485 12.067340073232323  C 9.774193544414189 13.10868505242926  8.907647899152616 13.952861946969698  7.838709677419354 13.952861946969696  L 2.032258064516129 13.952861946969698  C 0.9633198427828691 13.952861946969698  0.09677419752129424 13.10868505242926  0 12.067340073232323  L 0 1.885521891414142  C 0.09677418749999993 0.8441769053139985  0.9633198356967421 0  2.032258064516129 0  Z M 11.709677413306453 4.525252525252526  L 15.96774193548387 4.525252525252526  C 17.03668016430326 4.525252525252526  17.9032258125 5.369429430566523  17.903225812499997 6.410774416666667  L 17.9032258125 12.067340073232323  C 17.903225802478705 13.10868505242926  17.03668015721713 13.952861946969698  15.96774193548387 13.952861946969696  L 11.709677413306453 13.952861946969696  C 11.281983596074467 13.95286195580808  10.935365335170996 13.61519119209965  10.935365335170996 13.198653195707069  C 10.935365335170996 12.782115199314491  11.281983596074467 12.44444443560606  11.70955888960648 12.44444443560606  L 15.96774193548387 12.444444444444443  C 16.181529577239232 12.444444444444443  16.35483870362903 12.275609066547307  16.35483870362903 12.067340073232323  C 16.35483870362903 12.318742987373733  16.35483870362903 11.815937159090904  16.35483870362903 12.06734007323232  L 16.354838703629035 6.410774416666667  C 16.354838703629035 6.202505405674914  16.181529577239232 6.033670027777777  15.967741935483872 6.033670027777777  C 15.838709679435485 6.033670027777777  16.096774191532255 6.033670027777777  15.96774193548387 6.033670027777779  L 11.709677413306453 6.033670027777779  C 11.281983596074467 6.033670036616162  10.935365335170996 5.695999272907732  10.935365335170996 5.2794612765151525  C 10.935365335170996 4.8629232801225735  11.281983596074467 4.525252516414142  11.70955888960648 4.525252516414142  Z M 7.838709677419355 1.5084175025252529  L 2.032258064516129 1.5084175025252529  C 2.5483870887096765 1.508417502525254  1.5161290403225804 1.5084175025252524  2.0322580645161286 1.5084175025252524  C 1.8184704227607695 1.5084175025252524  1.6451612963709672 1.6772528804223885  1.6451612963709672 1.8855218737373738  L 1.6451612963709676 11.690235684343435  C 1.6451612963709672 11.89850469533519  1.8184704227607695 12.067340073232325  2.0322580645161286 12.067340073232325  L 7.838709677419355 12.067340073232325  C 8.052497319174712 12.067340073232325  8.225806445564515 11.89850469533519  8.225806445564515 11.690235702020203  L 8.225806445564515 1.8855218914141414  C 8.225806445564515 1.6772528804223885  8.052497319174712 1.5084175025252524  7.838709677419355 1.5084175025252524  Z M 3.5806451552419354 9.616161616161616  L 6.67741935483871 9.616161616161616  C 6.998100822482396 9.616161616161616  7.258064516129032 9.8694146869644  7.258064516129032 10.181818181818182  C 7.258064516129032 10.494221676671964  6.998100822482396 10.747474747474747  6.67741935483871 10.747474747474747  L 3.5806451552419354 10.747474747474747  C 3.2599636875982494 10.747474747474747  2.999999993951613 10.494221676671964  2.999999993951613 10.181818181818182  C 2.999999993951613 9.8694146869644  3.2599636875982494 9.616161616161616  3.5806451552419354 9.616161616161616  Z " fill-rule="nonzero" fill="#ffffff" stroke="none" transform="matrix(1 0 0 1 618 776 )" />
  </g>
</svg>