<?xml version="1.0" encoding="utf-8"?>
<svg version="1.1" xmlns:xlink="http://www.w3.org/1999/xlink" width="18px" height="14px" xmlns="http://www.w3.org/2000/svg">
  <g transform="matrix(1 0 0 1 -584 -290 )">
    <path d="M 13.741830514830507 1.9946111171875  C 13.842711877118642 2.185944450520833  14.106305097457627 2.339555567708334  14.331661016949152 2.3395555494791673  L 16.323254237288136 2.3395555494791673  C 17.22167828281801 2.3406153042445625  17.95059762959524 3.035043381207072  17.954847457627118 3.893944450520834  L 17.987389836864406 12.445611117187502  C 17.987402238711137 12.448080624054315  17.987408439661298 12.450550155824805  17.987408439661298 12.453019691153436  C 17.987408439661298 13.30525642847045  17.264750492678125 13.996130808340936  16.37330673839011 13.996130808340936  C 16.37058865792595 13.996130808340936  16.36787058179654 13.996124244602186  16.36515253601695 14  L 1.7223050783898306 14  C 0.8226381910254366 13.96008038214922  0.09358394884061706 13.26447944521633  0.08867797245762708 12.404388882812501  L 0.05654236652542375 3.894722216145834  C 0.05653132958985976 3.8923887471903433  0.056525811100922085 3.8900552573610643  0.056525811100922085 3.8877217645496973  C 0.056525811100922085 3.032692924353324  0.7815513341884927 2.3395550978830304  1.6759156416093965 2.3395550978830304  C 1.6763279397906656 2.3395550978830304  1.6767402379559468 2.3395552484150866  1.6771525360169492 2.3395555494791673  L 4.163796610169491 2.3395555494791673  C 4.389966095338983 2.3395555494791673  4.655593220338982 2.182444432291667  4.757288129237288 1.9891666666666667  L 5.421966101694915 0.7244999999999999  C 5.622101694915253 0.3433888828125  6.14928813559322 0.0303333333333331  6.597966108050847 0.0283888828125  L 11.878372887711864 0.003888882812500105  C 12.329084745762712 0.0015555494791670288  12.854644074152542 0.31111109895833333  13.057220345338983 0.6957222161458334  L 13.741830514830507 1.9946111171875  Z M 16.32366101059322 3.117333333333335  L 14.331661016949152 3.1173333333333337  C 13.799999993644068 3.1173333333333337  13.25491526059322 2.7988333333333344  13.015322027542371 2.344222216145834  L 12.330711858050847 1.0453333333333341  C 12.266847457627119 0.9240000000000008  12.023186434322032 0.7808888828125011  11.882440677966102 0.7816666666666676  L 6.602440671610169 0.8061666666666676  C 6.460067783898305 0.8065555494791674  6.211932197033898 0.953944450520834  6.148881362288135 1.0737222161458344  L 5.484203389830508 2.338388882812501  C 5.244203383474577 2.7945555494791674  4.697898311440678 3.1173333333333337  4.163796610169491 3.1173333333333337  L 1.6771525360169492 3.1173333333333337  C 1.229694902542373 3.1173333333333337  0.8684745635593224 3.463444450520834  0.8701016949152542 3.8916111171875007  L 0.9026440741525427 12.40166666666667  C 0.9059793067638672 12.833873122860131  1.272242059530192 13.183160384800448  1.7243389830508478 13  L 16.366779667372885 13  C 16.368818536864275 13.218348227036405  16.37085745843404 13.218355673969459  16.37289638744325 13.218355673969459  C 16.815023731578982 13.218355673969459  17.173438760324608 12.875704269173296  17.173438760324608 12.453022340636128  C 17.173438760324608 12.451459327201217  17.17343375191607 12.449896317432486  17.173423735169493 12.448333333333334  L 17.14128812923729 3.8966666666666687  C 17.138611163256726 3.4664074519429917  16.77372022451146 3.118606278142553  16.32366101059322 3.117333333333335  Z M 7.492067790254237 4.3917222161458325  L 7.8256271250000005 4.0728333333333335  C 6.339402691655874 4.554799998826247  5.339536002129411 5.8884336172057745  5.339536002129411 7.388810087579808  C 5.339536002129411 8.493692371815932  5.8850082593582265 9.533761196594384  6.811118637711864 10.194722216145834  C 6.9139810908709975 10.268153953245939  6.974563607280377 10.38368662588335  6.974563607280377 10.506416666666668  C 6.974563607280377 10.721258978730015  6.792387109410085 10.89542308433286  6.56766101059322 10.89542308433286  C 6.4799116297770825 10.89542308433286  6.3945132647385385 10.86830413279182  6.3242033834745754 10.818111117187502  C 5.191177841898042 10.011244236956449  4.524128327161125 8.739570403335456  4.525423722457627 7.388888882812501  C 4.525423722457627 5.318833333333334  6.06386440677966 3.5917777656250003  8.107118637711864 3.196666666666667  L 7.492067790254237 2.6082777838541666  C 7.4188190458133425 2.5357736330578304  7.377879330102671 2.4389115549457285  7.377879330102671 2.3381114831189893  C 7.377879330102671 2.1233340837629107  7.560000784952972 1.9492226003064888  7.784658984763689 1.9492226003064888  C 7.890096348030397 1.9492226003064888  7.9914145508014105 1.9883617266687734  8.067254243644067 2.0583888828125003  L 9.575186434322035 3.5  L 8.067254243644067 4.9416111171875  C 7.99141455080141 5.0116382733312355  7.890096348030392 5.050777399693521  7.784658984763677 5.050777399693521  C 7.56000078495296 5.050777399693521  7.37787933010266 4.876665916237099  7.37787933010266 4.661888516881021  C 7.37787933010266 4.561088445054277  7.4188190458133345 4.464226366942172  7.492067790254237 4.3917222161458325  Z M 9.694372881355932 10.386055549479165  L 9.172474569915256 10.885000000000003  C 11.126017037404798 10.7979671513477  12.663069886264045 9.258443772658651  12.663069886264045 7.3887941935114565  C 12.663069886264045 6.003737077119014  11.808718582451805 4.748966472130554  10.483932203389832 4.188333333333335  C 10.334264143287403 4.127097174603843  10.237200612616308 3.9864485304634987  10.237200612616308 3.830810137247692  C 10.237200612616308 3.616032737891614  10.419322067466608 3.4419212544351927  10.643980267277325 3.4419212544351927  C 10.7026132814268 3.4419212544351927  10.760553341918147 3.45403908360376  10.813830502118646 3.477444450520835  C 12.431899877066233 4.163387582109484  13.474944613496278 5.696721418293338  13.474576277542372 7.388888882812501  C 13.474576277542372 9.698500000000001  11.559864413135594 11.580722216145835  9.16555932838983 11.663944450520834  L 9.69437288135593 12.169500000000001  C 9.76762129466754 12.242004099795597  9.808560802471666 12.338865951957446  9.808560802471666 12.439665767177774  C 9.808560802471666 12.654443166533854  9.626439347621366 12.828554649990274  9.401781147810649 12.828554649990274  C 9.296344052955487 12.828554649990274  9.19502608652953 12.7894157223905  9.119186447033897 12.719388882812503  L 7.611254237288136 11.277777783854166  L 9.119186447033899 9.836166666666665  C 9.195026086529527 9.766139827088693  9.296344052955465 9.727000899488932  9.401781147810606 9.727000899488932  C 9.626439347621321 9.727000899488932  9.808560802471622 9.901112382945351  9.808560802471622 10.115889782301432  C 9.808560802471622 10.21668959752174  9.76762129466752 10.313551449683578  9.694372881355932 10.386055549479165  Z " fill-rule="nonzero" fill="#ffffff" stroke="none" transform="matrix(1 0 0 1 584 290 )" />
  </g>
</svg>