<?xml version="1.0" encoding="utf-8"?>
<svg version="1.1" xmlns:xlink="http://www.w3.org/1999/xlink" width="14px" height="14px" xmlns="http://www.w3.org/2000/svg">
  <g transform="matrix(1 0 0 1 -619 -290 )">
    <path d="M 9.43425989194915 7.15882485381356  C 8.968163681588054 7.343387263160472  8.543371232931188 7.618695789118612  8.184542372881355 7.968768366525424  C 7.604615997430561 7.745704808166492  6.988578309740408 7.631313217862825  6.367231424328366 7.631313217862825  C 3.5714848968416892 7.631313217862825  1.3050845366165018 9.897713578088014  1.3050845366165018 12.69346010557469  C 1.3050845366165018 12.69394515513984  1.3050846063319048 12.694430204692177  1.305084745762712 12.69491525423729  C 1.3050312503633146 13.044345738694362  1.0217468752045045 13.327586748287064  0.6723163866525426 13.327586748287064  C 0.3228858981005803 13.327586748287064  0.03960152294177015 13.044345738694362  0.03954802754237294 12.694915254237289  C 0.03954802754237294 10.030960447033898  1.6860113093220341 7.751096040254236  4.017129938559322 6.817762711864407  C 3.10369408894946 6.0978451149027935  2.5706214639830516 4.998972584115599  2.5706214639830516 3.835939309541103  C 2.5706214639830516 1.7391294118784297  4.270421735811904 0.03932914004957796  6.367231633474577 0.03932914004957796  C 8.46404153113725 0.03932914004957796  10.163841802966102 1.7391294118784297  10.163841802966102 3.835939309541103  C 10.163841802966102 4.998972584115599  9.630769177999692 6.0978451149027935  8.717333328389829 6.817762711864407  C 8.964112989406779 6.917107349576271  9.20393220338983 7.0310056546610165  9.43425989194915 7.15882485381356  Z M 3.8363519271512585 3.8361581896186436  C 3.8363519271512585 5.233955795948426  4.969434031239904 6.367124636886138  6.367231633474575 6.367231633474575  C 7.7652986462611135 6.3672316408898295  8.89849882969363 5.234031457457313  8.89849882969363 3.8361581896186436  C 8.89849882969363 2.438284921779973  7.7652986462611135 1.3050847383474573  6.367425378422444 1.3050847383474573  C 4.969434031239904 1.3051917423511488  3.8363519271512585 2.438360583288862  3.8363519271512585 3.8361581896186436  Z M 8.530666671610168 8.51864406779661  C 8.933544129841136 8.089861799315043  9.448793157347676 7.782904931536331  10.017672311440679 7.632768366525426  C 10.175561599858975 7.915163333965053  10.473079249375893 8.090870340607923  10.796610169491526 8.092790955508473  C 11.120367935098654 8.091097713472063  11.418180138881969 7.91535950822035  11.57618078601695 7.632768366525424  C 12.150101694915254 7.7827344682203385  12.662011294491526 8.094689275423729  13.063186440677965 8.51864406779661  C 12.911322033898305 8.797062141949151  12.90119773516949 9.148248582627119  13.066983050847458 9.444384175847459  C 13.222674292326356 9.72824293313097  13.5190338054836 9.906397066262562  13.84275705720339 9.910734468220339  C 13.919322033898306 10.192316394067795  13.960451972457626 10.489717519067796  13.960451972457626 10.796610169491526  C 13.960451972457626 11.103502819915256  13.919322033898306 11.400903959745762  13.842757057203393 11.682485870762713  C 13.5190338054836 11.686823272720492  13.222674292326356 11.864977405852084  13.066983050847456 12.148836163135593  C 12.90672841659104 12.435980767351664  12.905055995300952 12.785277506079435  13.062553667372882 13.073943497881356  C 12.659755480259479 13.502957377647128  12.144498827434337 13.81013804803339  11.575548027542371 13.96045197245763  C 11.417658739124075 13.678057005017997  11.120141089607163 13.502349998375129  10.796610169491528 13.500429383474579  C 10.4728524038844 13.502122625510989  10.175040200101083 13.677860830762702  10.017039552966102 13.96045197245763  C 9.448160393541594 13.810315409992445  8.932911360596389 13.50335854203508  8.530033898305085 13.07457627118644  C 8.681898305084745 12.796158197033899  8.69202260381356 12.444971756355933  8.526237288135594 12.148836163135595  C 8.370546046656695 11.864977405852084  8.074186533499454 11.686823272720492  7.750463281779662 11.682485870762713  C 7.671991745950017 11.393745721736115  7.632410630678213 11.095823350385064  7.632768366525424 10.796610169491526  C 7.632768366525424 10.489717519067796  7.6738983050847445 10.192316379237289  7.7504632817796635 9.910734468220339  C 8.074186533499454 9.90639706626256  8.370546046656695 9.728242933130968  8.526237288135594 9.444384175847457  C 8.686491922392012 9.157239571631386  8.688164343682098 8.807942832903615  8.53066667161017 8.519276841101696  Z M 9.700655362288135 9.181152542372882  C 9.734192080508475 9.467163836864406  9.679141233050848 9.762666671610168  9.532338983050847 10.024  C 9.386802264830507 10.284700569915254  9.16533332838983 10.483389830508473  8.907163836864404 10.601084745762712  C 8.894957445187272 10.731149267460554  8.894957445187272 10.862071071522498  8.907163836864406 10.99213559322034  C 9.165966101694913 11.109830508474579  9.386802249999999 11.308519769067798  9.532338983050847 11.569220338983053  C 9.679141247881356 11.830553667372884  9.734192095338983 12.126056502118645  9.700655362288135 12.41206779661017  C 9.794305084745762 12.481672311440681  9.893649707627118 12.541152542372883  9.998056502118644 12.591774006355935  C 10.472214758264846 12.238989235552333  11.121638354023291 12.238989235552333  11.59579661016949 12.591774006355932  C 11.700048816363436 12.541150571887584  11.799394822147168 12.48099222562649  11.892564976694914 12.412067796610172  C 11.858626796900621 12.120408483686361  11.917525120696121 11.825474011506735  12.060881355932203 11.569220338983053  C 12.20641807415254 11.308519769067798  12.427887010593219 11.109830508474579  12.686056502118642 10.99213559322034  C 12.698262893795775 10.862071071522502  12.698262893795775 10.731149267460548  12.686056502118642 10.601084745762714  C 12.42140199013832 10.480396024505918  12.202323031519073 10.278169295071852  12.060881355932203 10.024  C 11.917525120696121 9.767746327476317  11.858626796900621 9.47281185529669  11.892564976694912 9.181152542372882  C 11.79919369853421 9.112194632469613  11.69963453544987 9.052035482260766  11.595163836864408 9.00144633262712  C 11.121005580718206 9.35423110343072  10.47158198495976 9.35423110343072  9.997423728813558 9.001446332627118  C 9.89317152261961 9.052069767095468  9.793825516835877 9.112228113356561  9.700655362288135 9.181152542372882  Z " fill-rule="nonzero" fill="#ffffff" stroke="none" transform="matrix(1 0 0 1 619 290 )" />
  </g>
</svg>