<?xml version="1.0" encoding="utf-8"?>
<svg version="1.1" xmlns:xlink="http://www.w3.org/1999/xlink" width="34px" height="8px" xmlns="http://www.w3.org/2000/svg">
  <g transform="matrix(1 0 0 1 -451 -925 )">
    <path d="M 14.862857142857143 0.35446153846153877  L 0.7771428571428572 6.044553846153845  C 0.28292857142857153 6.238030769230769  0.003642857142857281 6.5038769230769224  0 6.7820307692307695  C 0.06435714285714278 7.409723076923076  1.3660714285714286 7.898584615384616  2.9142857142857146 7.876430769230769  C 3.7157142857142853 7.877907692307692  4.484357142857142 7.749415384615385  5.051428571428572 7.52  L 17 2.709169230769231  L 28.948571428571427 7.52  C 29.515642857142858 7.749415384615385  30.284285714285716 7.877907692307692  31.08571428571429 7.876430769230769  C 32.63392857142857 7.898584615384616  33.93564285714286 7.409723076923076  34 6.7820307692307695  C 33.99635714285714 6.5038769230769224  33.71707142857143 6.238030769230769  33.222857142857144 6.044553846153845  L 19.13714285714286 0.35446153846153877  C 17.950785714285715 -0.11815384615384626  16.049214285714285 -0.11815384615384626  14.862857142857143 0.35446153846153877  Z " fill-rule="nonzero" fill="#565d62" stroke="none" transform="matrix(1 0 0 1 451 925 )" />
  </g>
</svg>