<?xml version="1.0" encoding="utf-8"?>
<svg version="1.1" xmlns:xlink="http://www.w3.org/1999/xlink" width="8px" height="12px" xmlns="http://www.w3.org/2000/svg">
  <g transform="matrix(1 0 0 1 -1103 -681 )">
    <path d="M 0.9377656250000002 11.7405615234375  C 1.0753437500000005 11.7405615234375  1.2135468749999994 11.6991357421875  1.3305781249999995 11.613339843750001  L 6.907296875 7.51623046875  C 7.410921875 7.146196289062502  7.70040625 6.589409179687501  7.70040625 5.9888671874999995  C 7.70040625 5.387724609375001  7.410921875 4.8309521484375  6.906671875000001 4.4609179687500005  L 1.3617187500000008 0.3865869140624998  C 1.0834218750000004 0.18290039062499985  0.6837812500000012 0.2289990234374999  0.46650000000000064 0.4881445312499997  C 0.24923437500000106 0.7478466796874996  0.29779687500000024 1.1237109374999998  0.5748281250000005 1.3274121093749998  L 6.12040625 5.4017431640625  C 6.3146249999999995 5.544155273437499  6.4254531250000015 5.757773437500001  6.4254531250000015 5.9888818359375  C 6.4254531250000015 6.219418945312501  6.314640625000001 6.433037109375  6.1210312500000015 6.57544921875  L 0.5436875000000014 10.672558593749999  C 0.26667187500000156 10.876245117187501  0.2180937500000013 11.251508789062502  0.4353593750000016 11.511826171875  C 0.5611250000000012 11.661811523437501  0.7485000000000014 11.740605468750001  0.9377500000000019 11.740605468750001  Z " fill-rule="nonzero" fill="#999999" stroke="none" transform="matrix(1 0 0 1 1103 681 )" />
  </g>
</svg>