<?xml version="1.0" encoding="utf-8"?>
<svg version="1.1" xmlns:xlink="http://www.w3.org/1999/xlink" width="10px" height="81px" preserveAspectRatio="xMidYMin meet" viewBox="3981 1143  8 81" xmlns="http://www.w3.org/2000/svg">
  <defs>
    <mask fill="white" id="clip6741">
      <path d="M 3970.197 1167  L 3999.803 1167  L 3999.803 1195  L 3970.197 1195  Z M 3968 1133  L 4002 1133  L 4002 1236  L 3968 1236  Z " fill-rule="evenodd" />
    </mask>
  </defs>
  <path d="M 3985 1167  L 3985 1145  M 3985 1195  L 3985 1217  " stroke-width="2" stroke="#0066ff" fill="none" />
  <path d="M 3985 1143  A 3.5 3.5 0 0 0 3981.5 1146.5 A 3.5 3.5 0 0 0 3985 1150 A 3.5 3.5 0 0 0 3988.5 1146.5 A 3.5 3.5 0 0 0 3985 1143 Z M 3977 1209.6  L 3985 1219  L 3993 1209.6  L 3985 1213.2  L 3977 1209.6  Z " fill-rule="nonzero" fill="#0066ff" stroke="none" mask="url(#clip6741)" />
</svg>