<?xml version="1.0" encoding="utf-8"?>
<svg version="1.1" xmlns:xlink="http://www.w3.org/1999/xlink" width="34px" height="34px" preserveAspectRatio="xMinYMid meet" viewBox="3968 929  34 32" xmlns="http://www.w3.org/2000/svg">
  <path d="M 4235 917  L 4235 925  A 5 5 0 0 1 4230 930 L 3990 930  A 5 5 0 0 0 3985 935 L 3985 945  " stroke-width="2" stroke="#0066ff" fill="none" />
  <path d="M 4235 915  A 3.5 3.5 0 0 0 4231.5 918.5 A 3.5 3.5 0 0 0 4235 922 A 3.5 3.5 0 0 0 4238.5 918.5 A 3.5 3.5 0 0 0 4235 915 Z M 3977 937.6  L 3985 947  L 3993 937.6  L 3985 941.2  L 3977 937.6  Z " fill-rule="nonzero" fill="#0066ff" stroke="none" />
</svg>