<?xml version="1.0" encoding="utf-8"?>
<svg version="1.1" xmlns:xlink="http://www.w3.org/1999/xlink" width="20px" height="21px" preserveAspectRatio="xMidYMin meet" viewBox="3976 611  18 21" xmlns="http://www.w3.org/2000/svg">
  <defs>
    <mask fill="white" id="clip6753">
      <path d="M 3970.197 628  L 3999.803 628  L 3999.803 656  L 3970.197 656  Z M 3968 608  L 4002 608  L 4002 683  L 3968 683  Z " fill-rule="evenodd" />
    </mask>
  </defs>
  <path d="M 3985 628  L 3985 620  M 3985 656  L 3985 664  " stroke-width="2" stroke="#0066ff" fill="none" />
  <path d="M 3985 618  A 3.5 3.5 0 0 0 3981.5 621.5 A 3.5 3.5 0 0 0 3985 625 A 3.5 3.5 0 0 0 3988.5 621.5 A 3.5 3.5 0 0 0 3985 618 Z M 3977 656.6  L 3985 666  L 3993 656.6  L 3985 660.2  L 3977 656.6  Z " fill-rule="nonzero" fill="#0066ff" stroke="none" mask="url(#clip6753)" />
</svg>