<?xml version="1.0" encoding="utf-8"?>
<svg version="1.1" xmlns:xlink="http://www.w3.org/1999/xlink" width="20px" height="21px" preserveAspectRatio="xMidYMin meet" viewBox="1102 754  18 21" xmlns="http://www.w3.org/2000/svg">
  <path d="M 1111 766  L 1111 755  A 5 5 0 0 1 1116 750 L 1165 750  A 5 5 0 0 1 1170 755 L 1170 778  A 5 5 0 0 0 1175 783 L 1228 783  " stroke-width="2" stroke="#0066ff" fill="none" />
  <path d="M 1111 761  A 3.5 3.5 0 0 0 1107.5 764.5 A 3.5 3.5 0 0 0 1111 768 A 3.5 3.5 0 0 0 1114.5 764.5 A 3.5 3.5 0 0 0 1111 761 Z M 1220.6 791  L 1230 783  L 1220.6 775  L 1224.2 783  L 1220.6 791  Z " fill-rule="nonzero" fill="#0066ff" stroke="none" />
</svg>