<?xml version="1.0" encoding="utf-8"?>
<svg version="1.1" xmlns:xlink="http://www.w3.org/1999/xlink" width="34px" height="34px" preserveAspectRatio="xMinYMid meet" viewBox="3968 1065  34 32" xmlns="http://www.w3.org/2000/svg">
  <defs>
    <mask fill="white" id="clip6740">
      <path d="M 3970.197 1031  L 3999.803 1031  L 3999.803 1059  L 3970.197 1059  Z M 3968 997  L 4002 997  L 4002 1100  L 3968 1100  Z " fill-rule="evenodd" />
    </mask>
  </defs>
  <path d="M 3985 1031  L 3985 1009  M 3985 1059  L 3985 1081  " stroke-width="2" stroke="#0066ff" fill="none" />
  <path d="M 3985 1007  A 3.5 3.5 0 0 0 3981.5 1010.5 A 3.5 3.5 0 0 0 3985 1014 A 3.5 3.5 0 0 0 3988.5 1010.5 A 3.5 3.5 0 0 0 3985 1007 Z M 3977 1073.6  L 3985 1083  L 3993 1073.6  L 3985 1077.2  L 3977 1073.6  Z " fill-rule="nonzero" fill="#0066ff" stroke="none" mask="url(#clip6740)" />
</svg>