<?xml version="1.0" encoding="utf-8"?>
<svg version="1.1" xmlns:xlink="http://www.w3.org/1999/xlink" width="10px" height="111px" preserveAspectRatio="xMidYMin meet" viewBox="4191 1108  8 111" xmlns="http://www.w3.org/2000/svg">
  <defs>
    <mask fill="white" id="clip6745">
      <path d="M 4157.8265 1099  L 4188.1735 1099  L 4188.1735 1127  L 4157.8265 1127  Z M 4035 1099  L 4212 1099  L 4212 1236  L 4035 1236  Z " fill-rule="evenodd" />
    </mask>
  </defs>
  <path d="M 4047 1113  L 4190 1113  A 5 5 0 0 1 4195 1118 L 4195 1217  " stroke-width="2" stroke="#0066ff" fill="none" mask="url(#clip6745)" />
  <path d="M 4048.5 1109.5  A 3.5 3.5 0 0 0 4045 1113 A 3.5 3.5 0 0 0 4048.5 1116.5 A 3.5 3.5 0 0 0 4052 1113 A 3.5 3.5 0 0 0 4048.5 1109.5 Z M 4187 1209.6  L 4195 1219  L 4203 1209.6  L 4195 1213.2  L 4187 1209.6  Z " fill-rule="nonzero" fill="#0066ff" stroke="none" mask="url(#clip6745)" />
</svg>