<?xml version="1.0" encoding="utf-8"?>
<svg version="1.1" xmlns:xlink="http://www.w3.org/1999/xlink" width="52px" height="10px" preserveAspectRatio="xMinYMid meet" viewBox="1646 636  52 8" xmlns="http://www.w3.org/2000/svg">
  <path d="M 1607 642  L 1650 642  A 1 1 0 0 0 1651 641 A 1 1 0 0 1 1652 640 L 1696 640  " stroke-width="2" stroke="#0066ff" fill="none" />
  <path d="M 1608.5 638.5  A 3.5 3.5 0 0 0 1605 642 A 3.5 3.5 0 0 0 1608.5 645.5 A 3.5 3.5 0 0 0 1612 642 A 3.5 3.5 0 0 0 1608.5 638.5 Z M 1688.6 648  L 1698 640  L 1688.6 632  L 1692.2 640  L 1688.6 648  Z " fill-rule="nonzero" fill="#0066ff" stroke="none" />
</svg>