<?xml version="1.0" encoding="utf-8"?>
<svg version="1.1" xmlns:xlink="http://www.w3.org/1999/xlink" width="34px" height="34px" preserveAspectRatio="xMinYMid meet" viewBox="1571 571  34 32" xmlns="http://www.w3.org/2000/svg">
  <path d="M 1492 436  L 1535 436  A 5 5 0 0 1 1540 441 L 1540 582  A 5 5 0 0 0 1545 587 L 1588 587  " stroke-width="2" stroke="#0066ff" fill="none" />
  <path d="M 1493.5 432.5  A 3.5 3.5 0 0 0 1490 436 A 3.5 3.5 0 0 0 1493.5 439.5 A 3.5 3.5 0 0 0 1497 436 A 3.5 3.5 0 0 0 1493.5 432.5 Z M 1580.6 595  L 1590 587  L 1580.6 579  L 1584.2 587  L 1580.6 595  Z " fill-rule="nonzero" fill="#0066ff" stroke="none" />
</svg>