<?xml version="1.0" encoding="utf-8"?>
<svg version="1.1" xmlns:xlink="http://www.w3.org/1999/xlink" width="34px" height="34px" preserveAspectRatio="xMinYMid meet" viewBox="2526 532  34 32" xmlns="http://www.w3.org/2000/svg">
  <path d="M 1960 616  L 2246 616  A 5 5 0 0 0 2251 611 L 2251 553  A 5 5 0 0 1 2256 548 L 2543 548  " stroke-width="2" stroke="#0066ff" fill="none" />
  <path d="M 1961.5 612.5  A 3.5 3.5 0 0 0 1958 616 A 3.5 3.5 0 0 0 1961.5 619.5 A 3.5 3.5 0 0 0 1965 616 A 3.5 3.5 0 0 0 1961.5 612.5 Z M 2535.6 556  L 2545 548  L 2535.6 540  L 2539.2 548  L 2535.6 556  Z " fill-rule="nonzero" fill="#0066ff" stroke="none" />
</svg>