<?xml version="1.0" encoding="utf-8"?>
<svg version="1.1" xmlns:xlink="http://www.w3.org/1999/xlink" width="4px" height="8px" xmlns="http://www.w3.org/2000/svg">
  <g transform="matrix(1 0 0 1 -506 -1740 )">
    <path d="M 3.8660714285714284 7.683035714285714  C 3.8125 7.709821428571429  3.7589285714285716 7.736607142857143  3.71875 7.736607142857143  C 3.6651785714285725 7.736607142857143  3.6116071428571437 7.723214285714286  3.5714285714285716 7.683035714285714  L 0.10267857142857194 4.200892857142857  C 0.04910714285714311 4.147321428571429  0.02232142857142908 4.066964285714286  0.02232142857142908 4  C 0.02232142857142908 3.9330357142857144  0.04910714285714311 3.8526785714285716  0.10267857142857194 3.799107142857143  L 3.5714285714285716 0.3169642857142857  C 3.6517857142857144 0.23660714285714285  3.7723214285714284 0.23660714285714285  3.8526785714285716 0.3169642857142857  C 3.9330357142857153 0.39732142857142855  3.9330357142857153 0.5178571428571429  3.8526785714285716 0.5982142857142857  L 0.4642857142857143 4  L 3.8660714285714284 7.401785714285714  C 3.9464285714285716 7.482142857142857  3.9464285714285716 7.602678571428571  3.8660714285714284 7.683035714285714  Z " fill-rule="nonzero" fill="#ffffff" stroke="none" transform="matrix(1 0 0 1 506 1740 )" />
  </g>
</svg>