<?xml version="1.0" encoding="utf-8"?>
<svg version="1.1" xmlns:xlink="http://www.w3.org/1999/xlink" width="21px" height="20px" preserveAspectRatio="xMinYMid meet" viewBox="988 1258  21 18" xmlns="http://www.w3.org/2000/svg">
  <path d="M 997 1267  L 1047 1267  A 5 5 0 0 1 1052 1272 L 1052 1616  A 5 5 0 0 0 1057 1621 L 1108 1621  " stroke-width="2" stroke="#0066ff" fill="none" />
  <path d="M 998.5 1263.5  A 3.5 3.5 0 0 0 995 1267 A 3.5 3.5 0 0 0 998.5 1270.5 A 3.5 3.5 0 0 0 1002 1267 A 3.5 3.5 0 0 0 998.5 1263.5 Z M 1100.6 1629  L 1110 1621  L 1100.6 1613  L 1104.2 1621  L 1100.6 1629  Z " fill-rule="nonzero" fill="#0066ff" stroke="none" />
</svg>