<?xml version="1.0" encoding="utf-8"?>
<svg version="1.1" xmlns:xlink="http://www.w3.org/1999/xlink" width="34px" height="34px" preserveAspectRatio="xMinYMid meet" viewBox="396 465  34 32" xmlns="http://www.w3.org/2000/svg">
  <path d="M 356 617  L 375 617  A 5 5 0 0 0 380 612 L 380 530  A 3 3 0 0 0 383 527 A 3 3 0 0 0 380 524 L 380 486  A 5 5 0 0 1 385 481 L 413 481  " stroke-width="2" stroke="#0066ff" fill="none" />
  <path d="M 357.5 613.5  A 3.5 3.5 0 0 0 354 617 A 3.5 3.5 0 0 0 357.5 620.5 A 3.5 3.5 0 0 0 361 617 A 3.5 3.5 0 0 0 357.5 613.5 Z M 405.6 489  L 415 481  L 405.6 473  L 409.2 481  L 405.6 489  Z " fill-rule="nonzero" fill="#0066ff" stroke="none" />
</svg>