<?xml version="1.0" encoding="utf-8"?>
<svg version="1.1" xmlns:xlink="http://www.w3.org/1999/xlink" width="10px" height="54px" preserveAspectRatio="xMidYMin meet" viewBox="380 432  8 54" xmlns="http://www.w3.org/2000/svg">
  <path d="M 356 437  L 377 437  A 3 3 0 0 1 380 434 A 3 3 0 0 1 383 437 A 1 1 0 0 1 384 438 L 384 476  A 5 5 0 0 0 389 481 L 413 481  " stroke-width="2" stroke="#0066ff" fill="none" />
  <path d="M 357.5 433.5  A 3.5 3.5 0 0 0 354 437 A 3.5 3.5 0 0 0 357.5 440.5 A 3.5 3.5 0 0 0 361 437 A 3.5 3.5 0 0 0 357.5 433.5 Z M 405.6 489  L 415 481  L 405.6 473  L 409.2 481  L 405.6 489  Z " fill-rule="nonzero" fill="#0066ff" stroke="none" />
</svg>