<?xml version="1.0" encoding="utf-8"?>
<svg version="1.1" xmlns:xlink="http://www.w3.org/1999/xlink" width="10px" height="56px" preserveAspectRatio="xMidYMin meet" viewBox="380 476  8 56" xmlns="http://www.w3.org/2000/svg">
  <path d="M 356 527  L 379 527  A 5 5 0 0 0 384 522 L 384 486  A 5 5 0 0 1 389 481 L 413 481  " stroke-width="2" stroke="#0066ff" fill="none" />
  <path d="M 357.5 523.5  A 3.5 3.5 0 0 0 354 527 A 3.5 3.5 0 0 0 357.5 530.5 A 3.5 3.5 0 0 0 361 527 A 3.5 3.5 0 0 0 357.5 523.5 Z M 405.6 489  L 415 481  L 405.6 473  L 409.2 481  L 405.6 489  Z " fill-rule="nonzero" fill="#0066ff" stroke="none" />
</svg>