<?xml version="1.0" encoding="utf-8"?>
<svg version="1.1" xmlns:xlink="http://www.w3.org/1999/xlink" width="34px" height="34px" preserveAspectRatio="xMinYMid meet" viewBox="396 465  34 32" xmlns="http://www.w3.org/2000/svg">
  <path d="M 356 347  L 375 347  A 5 5 0 0 1 380 352 L 380 476  A 5 5 0 0 0 385 481 L 413 481  " stroke-width="2" stroke="#0066ff" fill="none" />
  <path d="M 357.5 343.5  A 3.5 3.5 0 0 0 354 347 A 3.5 3.5 0 0 0 357.5 350.5 A 3.5 3.5 0 0 0 361 347 A 3.5 3.5 0 0 0 357.5 343.5 Z M 405.6 489  L 415 481  L 405.6 473  L 409.2 481  L 405.6 489  Z " fill-rule="nonzero" fill="#0066ff" stroke="none" />
</svg>