<?xml version="1.0" encoding="utf-8"?>
<svg version="1.1" xmlns:xlink="http://www.w3.org/1999/xlink" width="22px" height="20px" xmlns="http://www.w3.org/2000/svg">
  <g transform="matrix(1 0 0 1 -1103 -276 )">
    <path d="M 21.317103794642858 9.997746394230774  C 21.3125 9.382512019230774  21.25034877232143 8.780799278846157  21.142159598214285 8.194861778846153  C 21.082310267857142 7.8725961538461515  20.868233816964285 7.59765625  20.564383370535715 7.466947115384615  L 19.399623325892858 6.9643930288461515  C 18.382184709821427 6.5249399038461515  17.76988002232143 5.481520432692307  17.891880580357142 4.388521634615383  L 18.032296316964285 3.121995192307691  C 18.066824776785715 2.8109975961538463  17.951729910714285 2.4954927884615383  17.712332589285715 2.292668269230769  C 16.775460379464285 1.4971454326923073  15.695870535714285 0.8638822115384616  14.5126953125 0.43795072115384615  C 14.215750558035715 0.33203125  13.881975446428571 0.3883713942307692  13.624162946428571 0.5731670673076923  L 12.491629464285715 1.384465144230769  C 12.04736328125 1.702223557692307  11.522530691964285 1.8622295673076916  10.997698102678571 1.8622295673076916  C 10.472865513392856 1.8622295673076916  9.950334821428571 1.702223557692307  9.503766741071429 1.384465144230769  L 8.371233258928571 0.573167067307692  C 8.113420758928571 0.38837139423076883  7.781947544642858 0.33203124999999967  7.482700892857142 0.4379507211538458  C 6.299525669642858 0.8616286057692304  5.219935825892857 1.4971454326923073  4.283063616071429 2.292668269230769  C 4.043666294642857 2.4954927884615383  3.928571428571428 2.8109975961538463  3.9630998883928568 3.121995192307692  L 4.103515624999999 4.395282451923077  C 4.225516183035714 5.486027644230768  3.615513392857143 6.524939903846154  2.600376674107142 6.964393028846154  L 1.4310128348214277 7.469200721153846  C 1.1271623883928563 7.599909855769232  0.9130859374999992 7.874849759615384  0.8532366071428561 8.197115384615385  C 0.7427455357142849 8.783052884615385  0.682896205357142 9.384765625  0.682896205357142 10.002253605769232  C 0.682896205357142 10.619741586538463  0.7450474330357133 11.221454326923077  0.8532366071428561 11.807391826923077  C 0.9130859374999989 12.129657451923077  1.1271623883928563 12.404597355769232  1.4310128348214275 12.535306490384615  L 2.600376674107142 13.040114182692308  C 3.615513392857142 13.477313701923077  4.2255161830357135 14.518479567307692  4.103515624999999 15.609224759615385  L 3.9630998883928568 16.88251201923077  C 3.933175223214286 17.189002403846153  4.048270089285714 17.504507211538463  4.287667410714286 17.70733173076923  C 5.224539620535715 18.502854567307693  6.304129464285714 19.136117788461537  7.4873046875 19.559795673076923  C 7.784249441964284 19.66571514423077  8.118024553571427 19.609375000000004  8.375837053571429 19.424579326923077  L 9.508370535714285 18.61328125  C 9.95263671875 18.295522836538463  10.477469308035715 18.135516826923077  11.002301897321429 18.135516826923077  C 11.527134486607144 18.135516826923077  12.049665178571429 18.295522836538463  12.496233258928571 18.61328125  L 13.628766741071429 19.424579326923077  C 13.886579241071432 19.609375000000004  14.218052455357146 19.66571514423077  14.517299107142861 19.559795673076923  C 15.700474330357144 19.13611778846154  16.780064174107142 18.500600961538463  17.716936383928573 17.705078125000004  C 17.956333705357142 17.502253605769234  18.07142857142857 17.186748798076927  18.036900111607142 16.87575120192308  L 17.896484375 15.609224759615387  C 17.77448381696429 14.516225961538465  18.386788504464285 13.472806490384619  19.404227120535715 13.033353365384619  L 20.56898716517857 12.530799278846159  C 20.872837611607146 12.400090144230775  21.0869140625 12.12515024038462  21.146763392857146 11.80288461538462  C 21.257254464285715 11.21694711538462  21.317103794642858 10.615234375000004  21.317103794642858 9.997746394230774  Z M 20.33189174107143 10  C 20.32958984375 10.534104567307693  20.276646205357142 11.086237980769232  20.173060825892858 11.642878605769232  L 19.00830078125 12.14543269230769  C 17.594935825892858 12.753906249999998  16.74783761160714 14.202974759615381  16.91587611607143 15.719651442307692  L 17.05629185267857 16.986177884615387  C 16.20689174107143 17.70282451923077  15.233189174107144 18.266225961538463  14.201939174107144 18.64032451923077  L 13.163783482142856 17.896634615384613  C 12.6435546875 17.524789663461537  12.042759486607144 17.258864182692307  11.40283203125 17.189002403846153  C 10.511997767857142 17.09209735576923  9.646484375 17.319711538461537  8.932896205357142 17.829026442307693  L 7.800362723214286 18.64032451923077  C 6.769112723214286 18.266225961538463  5.79541015625 17.70282451923077  4.946010044642858 16.986177884615387  L 5.08642578125 15.719651442307692  C 5.254464285714285 14.202974759615385  4.407366071428571 12.756159855769232  2.994001116071429 12.14543269230769  L 1.8269391741071423 11.642878605769232  C 1.7233537946428568 11.08623798076923  1.6704101562499998 10.53635817307692  1.6704101562499998 10  C 1.6704101562499998 9.465895432692307  1.7233537946428568 8.913762019230768  1.8269391741071423 8.357121394230768  L 2.994001116071429 7.8545673076923075  C 4.407366071428571 7.24609375  5.254464285714285 5.797025240384616  5.08642578125 4.280348557692309  L 4.946010044642858 3.013822115384616  C 5.79541015625 2.297175480769231  6.769112723214286 1.7337740384615385  7.800362723214286 1.3596754807692308  L 8.838518415178571 2.1033653846153846  C 9.35874720982143 2.4752103365384617  9.959542410714285 2.741135817307692  10.599469866071429 2.8109975961538463  C 11.490304129464288 2.907902644230769  12.355817522321429 2.6802884615384617  13.069405691964285 2.170973557692308  L 14.201939174107144 1.3596754807692308  C 15.233189174107144 1.7337740384615385  16.20689174107143 2.297175480769231  17.05629185267857 3.013822115384616  L 16.91587611607143 4.2803485576923075  C 16.747837611607142 5.797025240384616  17.594935825892858 7.243840144230768  19.00830078125 7.854567307692307  L 20.175362723214285 8.357121394230768  C 20.27894810267857 8.913762019230768  20.33189174107143 9.463641826923077  20.33189174107143 10  Z M 14.929338727678571 10  C 14.929338727678571 7.874849759615385  13.170689174107144 6.153094951923077  11 6.153094951923077  C 8.829310825892858 6.153094951923077  7.070661272321428 7.874849759615385  7.070661272321428 10  C 7.070661272321428 12.125150240384615  8.829310825892858 13.846905048076923  11 13.846905048076923  C 13.170689174107144 13.846905048076923  14.929338727678571 12.125150240384615  14.929338727678571 10  Z M 13.946428571428571 10  C 13.946428571428571 11.593299278846153  12.62744140625 12.884615384615385  11 12.884615384615385  C 9.37255859375 12.884615384615385  8.053571428571429 11.593299278846153  8.053571428571429 10  C 8.053571428571429 8.406700721153845  9.37255859375 7.115384615384616  11 7.115384615384616  C 12.62744140625 7.115384615384616  13.946428571428571 8.406700721153847  13.946428571428571 10  Z " fill-rule="nonzero" fill="#000000" stroke="none" transform="matrix(1 0 0 1 1103 276 )" />
  </g>
</svg>