<?xml version="1.0" encoding="utf-8"?>
<svg version="1.1" xmlns:xlink="http://www.w3.org/1999/xlink" width="16px" height="16px" xmlns="http://www.w3.org/2000/svg">
  <g transform="matrix(1 0 0 1 -1651 -1527 )">
    <path d="M 1.13254 6.21614  C 0.5539800000000003 6.23524  0.08986000000000019 6.7151  0.08986000000000019 7.294020000000001  L 0.08986000000000019 14.82828  C 0.08986000000000019 15.414079999999998  0.5648000000000002 15.88892  1.15064 15.88892  L 13.0944 15.88892  C 13.639660000000001 15.88892  14.141660000000002 15.47838  14.249860000000002 14.943959999999999  L 15.878160000000001 6.898  C 16.00416 6.275259999999999  15.551020000000001 5.7394799999999995  14.91616 5.76048  L 9.411340000000001 5.94246  L 9.935979999999999 6.6275  C 10.10768 6.06604  10.27124 5.44952  10.39542 4.8383199999999995  C 10.574639999999999 3.9564599999999994  10.646039999999998 3.2126599999999996  10.569779999999998 2.6438800000000002  C 10.511099999999999 2.2061600000000006  10.463179999999998 1.9214600000000002  10.39744 1.6575400000000002  C 10.31106 1.3109000000000004  10.197959999999998 1.0312800000000004  10.03554 0.7976800000000003  C 9.645739999999998 0.23714000000000027  9.024579999999998 0.0176400000000001  8.1555 0.11110000000000014  C 7.561719999999999 0.1749600000000001  7.14202 0.4138600000000002  6.88064 0.8508199999999999  C 6.6873000000000005 1.1739999999999997  6.605 1.5199  6.511519999999999 2.20546  C 6.5011399999999995 2.28158  6.459699999999999 2.5957  6.448699999999999 2.67632  C 6.422619999999999 2.86868  6.3990399999999985 3.0298599999999998  6.372839999999999 3.1909199999999998  C 6.306359999999999 3.59994  6.227059999999999 3.97908  6.122199999999999 4.36656  C 5.971539999999999 4.923259999999999  5.513639999999999 5.353059999999999  4.7738999999999985 5.6681799999999996  C 4.152279999999998 5.93302  3.3832799999999987 6.094539999999999  2.5541599999999987 6.17  L 1.1325599999999987 6.21612  Z M 5.1896 6.6439200000000005  C 6.20164 6.21276  6.898300000000001 5.558900000000001  7.145980000000001 4.64356  C 7.261020000000001 4.2184  7.347700000000001 3.8041599999999995  7.419720000000001 3.3611  C 7.447600000000001 3.1896799999999996  7.472460000000001 3.0198  7.499700000000002 2.81894  C 7.511000000000001 2.73564  7.5524200000000015 2.42194  7.562400000000001 2.3487  C 7.696960000000002 1.3618999999999999  7.783120000000001 1.2178200000000003  8.268920000000001 1.1655600000000004  C 8.55058 1.1353000000000002  8.75834 1.1512800000000005  8.9048 1.2030400000000003  C 9.016820000000001 1.2426000000000004  9.095899999999999 1.30406  9.1648 1.4031600000000004  C 9.32078 1.6274600000000004  9.41314 1.9981800000000005  9.51862 2.7848  C 9.575420000000001 3.2083000000000004  9.513600000000002 3.8520400000000006  9.356100000000001 4.627039999999999  C 9.239520000000002 5.200519999999999  9.084240000000001 5.78588  8.921700000000001 6.3174  C 8.81536 6.66524  9.08276 7.014460000000001  9.44634 7.00244  L 14.95116 6.82044  C 14.90174 6.82208  14.82882 6.7359  14.83856 6.687619999999999  L 13.210280000000001 14.73358  C 13.19106 14.77056  13.179 14.78408  13.164540000000002 14.79588  C 13.14222017435341 14.814452052545413  13.11541145041408 14.826832206770032  13.0868 14.831779999999998  C 13.108680000000001 14.826659999999999  1.1505400000000008 14.828319999999998  1.1505400000000008 14.828319999999998  C 1.1504000000000008 14.828319999999998  1.1503600000000012 7.29402  1.1503600000000012 7.29402  C 1.1503600000000012 7.287139999999999  2.6196800000000007 7.22814  2.6196800000000007 7.22814  C 3.580060000000001 7.1415999999999995  4.450500000000001 6.9588  5.189560000000001 6.6438999999999995  Z M 3.7134799999999997 15.357759999999999  L 3.7134799999999997 6.34284  L 4.774079999999999 6.34284  L 4.774079999999999 15.357759999999999  L 3.7134799999999997 15.357759999999999  Z " fill-rule="nonzero" fill="#aaaaaa" stroke="none" transform="matrix(1 0 0 1 1651 1527 )" />
  </g>
</svg>