<?xml version="1.0" encoding="utf-8"?>
<svg version="1.1" xmlns:xlink="http://www.w3.org/1999/xlink" width="16px" height="16px" xmlns="http://www.w3.org/2000/svg">
  <g transform="matrix(1 0 0 1 -1646 -2474 )">
    <path d="M 14.77956170909091 6.413272375  L 10.4540092 6.413272375  C 12.130110327272728 0.333554428571429  9.299161636363637 0.023035821428571523  9.299161636363637 0.023035821428571523  C 8.0992886 0.023035821428571523  8.348026436363636 0.9548657500000003  8.257287090909092 1.1102072857142857  C 8.257287090909092 4.0834600000000005  5.041835745454546 6.413272375  5.041835745454546 6.413272375  L 5.041835745454546 14.844913428571429  C 5.041835745454546 15.677190285714286  6.1966833090909095 15.976945910714287  6.649710254545455 15.976945910714287  L 13.148839545454546 15.976945910714287  C 13.760497563636365 15.976945910714287  14.258587218181818 14.401511196428572  14.258587218181818 14.401511196428572  C 15.866480345454546 9.031766732142858  15.866480345454546 7.434056839285716  15.866480345454546 7.434056839285716  C 15.866498945454545 6.324628482142857  14.77956170909091 6.413272375  14.77956170909091 6.413272375  Z M 3.266753 6.416068196428571  L 0.6766347636363637 6.416068196428571  C 0.14172470909090915 6.416068196428571  0.1334824363636363 6.932070339285715  0.1334824363636363 6.932070339285715  L 0.6683924909090908 15.435690035714286  C 0.6683924909090908 15.976927642857143  1.2204196727272725 15.976927642857143  1.2204196727272725 15.976927642857143  L 3.462185872727273 15.976927642857143  C 3.9292042181818188 15.976927642857143  3.9250737818181825 15.618898392857144  3.9250737818181825 15.618898392857144  L 3.9250737818181816 7.060915553571428  C 3.9250737818181816 6.407808642857143  3.266753 6.416068196428571  3.266753 6.416068196428571  Z " fill-rule="nonzero" fill="#aaaaaa" stroke="none" transform="matrix(1 0 0 1 1646 2474 )" />
  </g>
</svg>