<?xml version="1.0" encoding="utf-8"?>
<svg version="1.1" xmlns:xlink="http://www.w3.org/1999/xlink" width="20px" height="20px" xmlns="http://www.w3.org/2000/svg">
  <g transform="matrix(1 0 0 1 -1341 -1443 )">
    <path d="M 20 8.981666666666667  C 20 7.705000000000001  18.940833333333334 6.666666666666666  17.638749999999998 6.666666666666666  L 15.833333333333332 6.666666666666666  C 15.373096041807672 6.666666666666666  15 7.039762708474338  15 7.5  C 15 7.960237291525662  15.373096041807672 8.333333333333334  15.833333333333332 8.333333333333334  L 17.638749999999998 8.333333333333334  C 18.021666666666665 8.333333333333334  18.333333333333332 8.624166666666667  18.333333333333332 8.981666666666667  L 18.333333333333332 17.68541666666667  C 18.333333333333332 18.0425  18.02166666666667 18.333333333333332  17.638749999999998 18  L 2.36125 18  C 1.978333333333333 18.333333333333332  1.6666666666666665 18.0425  1.6666666666666665 17.685000000000002  L 1.6666666666666665 8.981666666666667  C 1.6666666666666665 8.624166666666667  1.978333333333333 8.333333333333334  2.36125 8.333333333333334  L 4.166666666666667 8.333333333333334  C 4.626903958192328 8.333333333333334  5 7.960237291525662  5 7.5  C 5 7.039762708474338  4.626903958192328 6.666666666666666  4.166666666666667 6.666666666666666  L 2.36125 6.666666666666666  C 1.0591666666666666 6.666666666666666  0 7.705000000000001  0 8.981666666666667  L 0 17.68541666666667  C 0 18.961666666666666  1.0591666666666666 20  2.36125 20  L 17.639166666666668 20  C 18.940833333333334 20  20 18.961666666666666  20 17.685000000000002  L 20 8.981666666666667  Z M 9.166666666666666 5  L 9.166666666666666 15  C 9.166666666666666 15.46023729152566  9.539762708474338 15.833333333333332  10 15.833333333333332  C 10.46023729152566 15.833333333333332  10.833333333333332 15.46023729152566  10.833333333333332 15  L 10.833333333333332 5  L 14.166666666666668 5  L 10.021666666666667 0  L 5.833333333333334 5  L 9.166666666666666 5  Z " fill-rule="nonzero" fill="#000000" stroke="none" transform="matrix(1 0 0 1 1341 1443 )" />
  </g>
</svg>