<?xml version="1.0" encoding="utf-8"?>
<svg version="1.1" xmlns:xlink="http://www.w3.org/1999/xlink" width="20px" height="20px" xmlns="http://www.w3.org/2000/svg">
  <g transform="matrix(1 0 0 1 -1631 -1443 )">
    <path d="M 1.4156750000000002 7.770175  C 0.6924750000000003 7.79405  0.11232500000000023 8.393875  0.11232500000000023 9.117525  L 0.11232500000000023 18.53535  C 0.11232500000000023 19.267599999999998  0.7060000000000002 19.861150000000002  1.4383000000000001 19.861150000000002  L 16.368000000000002 19.861150000000002  C 17.049575 19.861150000000002  17.677075000000002 19.347974999999998  17.812325 18.679949999999998  L 19.847700000000003 8.622499999999999  C 20.0052 7.844074999999999  19.438775 7.17435  18.6452 7.2006000000000006  L 11.764175000000002 7.428075  L 12.419974999999999 8.284375  C 12.6346 7.58255  12.83905 6.8119  12.994275 6.047899999999999  C 13.2183 4.945574999999999  13.307549999999997 4.0158249999999995  13.212224999999997 3.30485  C 13.138874999999999 2.7577000000000007  13.078974999999996 2.401825  12.9968 2.0719250000000002  C 12.888824999999999 1.6386250000000004  12.747449999999997 1.2891000000000006  12.544424999999999 0.9971000000000003  C 12.057174999999997 0.2964250000000003  11.280724999999999 0.022050000000000125  10.194375 0.1388750000000002  C 9.45215 0.21870000000000012  8.927525 0.5173250000000003  8.6008 1.0635249999999998  C 8.359125 1.4674999999999996  8.256250000000001 1.899875  8.139399999999998 2.756825  C 8.126425 2.851975  8.074625 3.244625  8.060875 3.3454  C 8.028274999999999 3.5858499999999998  7.998799999999998 3.7873249999999996  7.966049999999999 3.98865  C 7.882949999999998 4.499925  7.783824999999998 4.9738500000000005  7.652749999999999 5.4582  C 7.4644249999999985 6.154074999999999  6.8920499999999985 6.691324999999999  5.967374999999998 7.085224999999999  C 5.190349999999998 7.416275  4.229099999999998 7.618174999999999  3.1926999999999985 7.7125  L 1.4156999999999984 7.77015  Z M 6.487 8.3049  C 7.7520500000000006 7.76595  8.622875 6.948625000000002  8.932475 5.80445  C 9.076275 5.273  9.184625 4.755199999999999  9.274650000000001 4.201375  C 9.309500000000002 3.9870999999999994  9.340575000000001 3.77475  9.374625000000002 3.523675  C 9.388750000000002 3.41955  9.440525000000001 3.027425  9.453000000000001 2.9358750000000002  C 9.621200000000002 1.702375  9.728900000000001 1.5222750000000005  10.336150000000002 1.4569500000000004  C 10.688225 1.4191250000000002  10.947925000000001 1.4391000000000007  11.131 1.5038000000000005  C 11.271025000000002 1.5532500000000005  11.369874999999999 1.630075  11.456 1.7539500000000006  C 11.650974999999999 2.0343250000000004  11.766425 2.497725000000001  11.898275 3.4810000000000003  C 11.969275000000001 4.010375000000001  11.892000000000003 4.815050000000001  11.695125 5.783799999999999  C 11.549400000000002 6.5006499999999985  11.355300000000002 7.232349999999999  11.152125000000002 7.89675  C 11.0192 8.33155  11.35345 8.768075000000001  11.807925 8.75305  L 18.68895 8.525549999999999  C 18.627175 8.5276  18.536025000000002 8.419875  18.548199999999998 8.359524999999998  L 16.51285 18.416975  C 16.488825 18.4632  16.47375 18.4801  16.455675000000003 18.49485  C 16.42777521794176 18.518065065681768  16.3942643130176 18.53354025846254  16.3585 18.539724999999997  C 16.38585 18.533324999999998  1.438175000000001 18.535399999999996  1.438175000000001 18.535399999999996  C 1.438000000000001 18.535399999999996  1.4379500000000014 9.117525  1.4379500000000014 9.117525  C 1.4379500000000014 9.108925  3.274600000000001 9.035174999999999  3.274600000000001 9.035174999999999  C 4.475075000000001 8.927  5.563125000000001 8.6985  6.486950000000001 8.304875  Z M 5 19.1972  L 5 7.9285499999999995  L 6 7.9285499999999995  L 6 19.1972  L 5 19.1972  Z " fill-rule="nonzero" fill="#aaaaaa" stroke="none" transform="matrix(1 0 0 1 1631 1443 )" />
  </g>
</svg>