<?xml version="1.0" encoding="utf-8"?>
<svg version="1.1" xmlns:xlink="http://www.w3.org/1999/xlink" width="30px" height="30px" xmlns="http://www.w3.org/2000/svg">
  <g transform="matrix(1 0 0 1 -980 -263 )">
    <path d="M 8.574776785714286 1.2577433628318586  C 8.574776785714286 0.7068584070796463  8.122767857142858 0.2621681415929205  7.570312500000001 0.26216814159292035  L 1.0948660714285714 0.26216814159292035  C 0.5390624999999999 0.26216814159292035  0.09040178571428581 0.706858407079646  0.09040178571428581 1.2577433628318586  L 0.09040178571428581 7.765486725663717  C 0.09040178571428581 8.31637168141593  0.5390625000000002 8.761061946902656  1.0948660714285714 8.761061946902656  L 7.570312500000001 8.761061946902656  C 8.126116071428573 8.761061946902656  8.574776785714286 8.31637168141593  8.574776785714286 7.765486725663717  L 8.574776785714286 1.2577433628318586  Z M 8.574776785714286 11.923672566371682  C 8.574776785714286 11.372787610619469  8.122767857142858 10.928097345132743  7.570312500000001 10.928097345132743  L 1.0948660714285714 10.928097345132743  C 0.5390624999999999 10.928097345132743  0.09040178571428581 11.372787610619469  0.09040178571428581 11.923672566371682  L 0.09040178571428581 18.431415929203542  C 0.09040178571428581 18.98230088495575  0.5390625000000002 19.42699115044248  1.0948660714285714 19.42699115044248  L 7.570312500000001 19.42699115044248  C 8.126116071428573 19.42699115044248  8.574776785714286 18.98230088495575  8.574776785714286 18.431415929203542  L 8.574776785714286 11.923672566371682  Z M 8.574776785714286 22.486725663716815  C 8.574776785714286 21.939159292035402  8.122767857142858 21.491150442477878  7.570312500000001 21.491150442477878  L 1.0948660714285714 21.491150442477878  C 0.5390624999999999 21.491150442477878  0.09040178571428581 21.935840707964605  0.09040178571428581 22.486725663716815  L 0.09040178571428581 28.994469026548675  C 0.09040178571428581 29.545353982300888  0.5390625000000002 29.990044247787612  1.0948660714285714 29.990044247787612  L 7.570312500000001 29.990044247787612  C 8.126116071428573 29.990044247787612  8.574776785714286 29.545353982300888  8.574776785714286 28.994469026548675  L 8.574776785714286 22.486725663716815  Z M 19.185267857142858 1.2544247787610618  C 19.185267857142858 0.706858407079646  18.736607142857146 0.2588495575221238  18.18080357142857 0.2588495575221238  L 11.708705357142858 0.2588495575221238  C 11.152901785714285 0.2588495575221238  10.704241071428571 0.7035398230088497  10.704241071428571 1.2544247787610618  L 10.704241071428571 7.765486725663717  C 10.704241071428571 8.31637168141593  11.152901785714285 8.761061946902656  11.708705357142858 8.761061946902656  L 18.18080357142857 8.761061946902656  C 18.736607142857146 8.761061946902656  19.185267857142858 8.31637168141593  19.185267857142858 7.765486725663717  L 19.185267857142858 1.2544247787610618  Z M 19.185267857142858 11.923672566371682  C 19.185267857142858 11.372787610619469  18.736607142857146 10.928097345132743  18.18080357142857 10.928097345132743  L 11.708705357142858 10.928097345132743  C 11.152901785714285 10.928097345132743  10.704241071428571 11.372787610619469  10.704241071428571 11.923672566371682  L 10.704241071428571 18.431415929203542  C 10.704241071428571 18.98230088495575  11.152901785714285 19.42699115044248  11.708705357142858 19.42699115044248  L 18.18080357142857 19.42699115044248  C 18.736607142857146 19.42699115044248  19.185267857142858 18.98230088495575  19.185267857142858 18.431415929203542  L 19.185267857142858 11.923672566371682  Z M 19.185267857142858 22.486725663716815  C 19.185267857142858 21.939159292035402  18.736607142857146 21.491150442477878  18.18080357142857 21.491150442477878  L 11.708705357142858 21.491150442477878  C 11.152901785714285 21.491150442477878  10.704241071428571 21.935840707964605  10.704241071428571 22.486725663716815  L 10.704241071428571 28.994469026548675  C 10.704241071428571 29.545353982300888  11.152901785714285 29.990044247787612  11.708705357142858 29.990044247787612  L 18.18080357142857 29.990044247787612  C 18.736607142857146 29.990044247787612  19.185267857142858 29.545353982300888  19.185267857142858 28.994469026548675  L 19.185267857142858 22.486725663716815  Z M 29.93303571428571 1.2544247787610618  C 29.9296875 0.706858407079646  29.48102678571429 0.2588495575221238  28.925223214285715 0.2588495575221238  L 22.453125 0.2588495575221238  C 21.89732142857143 0.2588495575221238  21.448660714285715 0.7035398230088497  21.448660714285715 1.2544247787610618  L 21.448660714285715 7.765486725663717  C 21.448660714285715 8.31637168141593  21.89732142857143 8.761061946902656  22.453125 8.761061946902656  L 28.92857142857143 8.761061946902656  C 29.484375 8.761061946902656  29.93303571428571 8.31637168141593  29.93303571428571 7.765486725663717  L 29.93303571428571 1.2544247787610618  Z M 29.93303571428571 11.923672566371682  C 29.9296875 11.372787610619469  29.48102678571429 10.928097345132743  28.925223214285715 10.928097345132743  L 22.453125 10.928097345132743  C 21.89732142857143 10.928097345132743  21.448660714285715 11.372787610619469  21.448660714285715 11.923672566371682  L 21.448660714285715 18.431415929203542  C 21.448660714285715 18.98230088495575  21.89732142857143 19.42699115044248  22.453125 19.42699115044248  L 28.92857142857143 19.42699115044248  C 29.484375 19.42699115044248  29.93303571428571 18.98230088495575  29.93303571428571 18.431415929203542  L 29.93303571428571 11.923672566371682  Z M 29.93303571428571 22.486725663716815  C 29.9296875 21.939159292035402  29.48102678571429 21.491150442477878  28.925223214285715 21.491150442477878  L 22.453125 21.491150442477878  C 21.89732142857143 21.491150442477878  21.448660714285715 21.935840707964605  21.448660714285715 22.486725663716815  L 21.448660714285715 28.994469026548675  C 21.448660714285715 29.545353982300888  21.89732142857143 29.990044247787612  22.453125 29.990044247787612  L 28.92857142857143 29.990044247787612  C 29.484375 29.990044247787612  29.93303571428571 29.545353982300888  29.93303571428571 28.994469026548675  L 29.93303571428571 22.486725663716815  Z " fill-rule="nonzero" fill="#ffffff" stroke="none" transform="matrix(1 0 0 1 980 263 )" />
  </g>
</svg>