<?xml version="1.0" encoding="utf-8"?>
<svg version="1.1" xmlns:xlink="http://www.w3.org/1999/xlink" width="10px" height="310px" preserveAspectRatio="xMidYMin meet" viewBox="1071 273  8 310" xmlns="http://www.w3.org/2000/svg">
  <path d="M 1012 278  L 1070 278  A 5 5 0 0 1 1075 283 L 1075 573  A 5 5 0 0 0 1080 578 L 1138 578  " stroke-width="2" stroke="#0066ff" fill="none" />
  <path d="M 1013.5 274.5  A 3.5 3.5 0 0 0 1010 278 A 3.5 3.5 0 0 0 1013.5 281.5 A 3.5 3.5 0 0 0 1017 278 A 3.5 3.5 0 0 0 1013.5 274.5 Z M 1130.6 586  L 1140 578  L 1130.6 570  L 1134.2 578  L 1130.6 586  Z " fill-rule="nonzero" fill="#0066ff" stroke="none" />
</svg>