<?xml version="1.0" encoding="utf-8"?>
<svg version="1.1" xmlns:xlink="http://www.w3.org/1999/xlink" width="55px" height="10px" preserveAspectRatio="xMinYMid meet" viewBox="2010 583  55 8" xmlns="http://www.w3.org/2000/svg">
  <path d="M 1967 436  L 2010 436  A 5 5 0 0 1 2015 441 L 2015 582  A 5 5 0 0 0 2020 587 L 2063 587  " stroke-width="2" stroke="#0066ff" fill="none" />
  <path d="M 1968.5 432.5  A 3.5 3.5 0 0 0 1965 436 A 3.5 3.5 0 0 0 1968.5 439.5 A 3.5 3.5 0 0 0 1972 436 A 3.5 3.5 0 0 0 1968.5 432.5 Z M 2055.6 595  L 2065 587  L 2055.6 579  L 2059.2 587  L 2055.6 595  Z " fill-rule="nonzero" fill="#0066ff" stroke="none" />
</svg>