<?xml version="1.0" encoding="utf-8"?>
<svg version="1.1" xmlns:xlink="http://www.w3.org/1999/xlink" width="34px" height="34px" preserveAspectRatio="xMinYMid meet" viewBox="621 571  34 32" xmlns="http://www.w3.org/2000/svg">
  <path d="M 524 536  L 524 525  A 5 5 0 0 1 529 520 L 577 520  A 5 5 0 0 1 582 525 L 582 582  A 5 5 0 0 0 587 587 L 638 587  " stroke-width="2" stroke="#0066ff" fill="none" />
  <path d="M 524 531  A 3.5 3.5 0 0 0 520.5 534.5 A 3.5 3.5 0 0 0 524 538 A 3.5 3.5 0 0 0 527.5 534.5 A 3.5 3.5 0 0 0 524 531 Z M 630.6 595  L 640 587  L 630.6 579  L 634.2 587  L 630.6 595  Z " fill-rule="nonzero" fill="#0066ff" stroke="none" />
</svg>