<?xml version="1.0" encoding="utf-8"?>
<svg version="1.1" xmlns:xlink="http://www.w3.org/1999/xlink" width="552px" height="10px" preserveAspectRatio="xMinYMid meet" viewBox="283 76  552 8" xmlns="http://www.w3.org/2000/svg">
  <path d="M 288 217  L 288 85  A 5 5 0 0 1 293 80 L 825 80  A 5 5 0 0 1 830 85 L 830 118  " stroke-width="2" stroke="#0066ff" fill="none" />
  <path d="M 288 212  A 3.5 3.5 0 0 0 284.5 215.5 A 3.5 3.5 0 0 0 288 219 A 3.5 3.5 0 0 0 291.5 215.5 A 3.5 3.5 0 0 0 288 212 Z M 822 110.6  L 830 120  L 838 110.6  L 830 114.2  L 822 110.6  Z " fill-rule="nonzero" fill="#0066ff" stroke="none" />
</svg>