<?xml version="1.0" encoding="utf-8"?>
<svg version="1.1" xmlns:xlink="http://www.w3.org/1999/xlink" width="34px" height="34px" preserveAspectRatio="xMinYMid meet" viewBox="1636 565  34 32" xmlns="http://www.w3.org/2000/svg">
  <path d="M 1413 564  L 1595 564  A 5 5 0 0 1 1600 569 L 1600 576  A 5 5 0 0 0 1605 581 L 1653 581  " stroke-width="2" stroke="#0066ff" fill="none" />
  <path d="M 1414.5 560.5  A 3.5 3.5 0 0 0 1411 564 A 3.5 3.5 0 0 0 1414.5 567.5 A 3.5 3.5 0 0 0 1418 564 A 3.5 3.5 0 0 0 1414.5 560.5 Z M 1645.6 589  L 1655 581  L 1645.6 573  L 1649.2 581  L 1645.6 589  Z " fill-rule="nonzero" fill="#0066ff" stroke="none" />
</svg>