<?xml version="1.0" encoding="utf-8"?>
<svg version="1.1" xmlns:xlink="http://www.w3.org/1999/xlink" width="77px" height="10px" preserveAspectRatio="xMinYMid meet" viewBox="1035 634  77 8" xmlns="http://www.w3.org/2000/svg">
  <path d="M 1037 638  L 1102 638  A 5 5 0 0 0 1107 633 L 1107 585  A 5 5 0 0 1 1112 580 L 1178 580  " stroke-width="2" stroke="#0066ff" fill="none" />
  <path d="M 1038.5 634.5  A 3.5 3.5 0 0 0 1035 638 A 3.5 3.5 0 0 0 1038.5 641.5 A 3.5 3.5 0 0 0 1042 638 A 3.5 3.5 0 0 0 1038.5 634.5 Z M 1170.6 588  L 1180 580  L 1170.6 572  L 1174.2 580  L 1170.6 588  Z " fill-rule="nonzero" fill="#0066ff" stroke="none" />
</svg>