<?xml version="1.0" encoding="utf-8"?>
<svg version="1.1" xmlns:xlink="http://www.w3.org/1999/xlink" width="21px" height="20px" preserveAspectRatio="xMinYMid meet" viewBox="438 671  21 18" xmlns="http://www.w3.org/2000/svg">
  <path d="M 447 680  L 604.5 680  A 5 5 0 0 0 609.5 675 L 609.5 623  A 5 5 0 0 1 614.5 618 L 653 618  " stroke-width="2" stroke="#0066ff" fill="none" />
  <path d="M 448.5 676.5  A 3.5 3.5 0 0 0 445 680 A 3.5 3.5 0 0 0 448.5 683.5 A 3.5 3.5 0 0 0 452 680 A 3.5 3.5 0 0 0 448.5 676.5 Z M 645.6 626  L 655 618  L 645.6 610  L 649.2 618  L 645.6 626  Z " fill-rule="nonzero" fill="#0066ff" stroke="none" />
</svg>