<?xml version="1.0" encoding="utf-8"?>
<svg version="1.1" xmlns:xlink="http://www.w3.org/1999/xlink" width="34px" height="34px" preserveAspectRatio="xMinYMid meet" viewBox="1283 625  34 32" xmlns="http://www.w3.org/2000/svg">
  <path d="M 1158 752  L 1224 752  A 5 5 0 0 0 1229 747 L 1229 646  A 5 5 0 0 1 1234 641 L 1300 641  " stroke-width="2" stroke="#0066ff" fill="none" />
  <path d="M 1159.5 748.5  A 3.5 3.5 0 0 0 1156 752 A 3.5 3.5 0 0 0 1159.5 755.5 A 3.5 3.5 0 0 0 1163 752 A 3.5 3.5 0 0 0 1159.5 748.5 Z M 1292.6 649  L 1302 641  L 1292.6 633  L 1296.2 641  L 1292.6 649  Z " fill-rule="nonzero" fill="#0066ff" stroke="none" />
</svg>