<?xml version="1.0" encoding="utf-8"?>
<svg version="1.1" xmlns:xlink="http://www.w3.org/1999/xlink" width="16px" height="12px" xmlns="http://www.w3.org/2000/svg">
  <g transform="matrix(1 0 0 1 -2271 -329 )">
    <path d="M 15.915789473684208 1.389473684210525  C 15.915789473684208 0.6736842105263149  15.368421052631579 0.12631578947368302  14.652631578947368 0.12631578947368452  L 1.263157894736842 0.12631578947368452  C 0.5473684210526318 0.12631578947368452  0 0.7157894736842103  0 1.3894736842105266  L 0 10.652631578947368  C 0 11.368421052631579  0.5894736842105265 11.915789473684208  1.263157894736842 11.915789473684208  L 4.252631578947369 11.915789473684208  L 4.252631578947369 10.86315789473684  L 1.263157894736842 10.86315789473684  C 1.1368421052631577 10.86315789473684  1.0526315789473684 10.77894736842105  1.0526315789473684 10.652631578947368  L 1.0526315789473684 1.389473684210525  C 1.0526315789473684 1.2631578947368405  1.1368421052631577 1.1789473684210514  1.263157894736842 1.1789473684210514  L 14.652631578947368 1.1789473684210514  C 14.77894736842105 1.1789473684210514  14.86315789473684 1.2631578947368405  14.86315789473684 1.389473684210525  L 14.86315789473684 10.652631578947368  C 14.86315789473684 10.77894736842105  14.77894736842105 10.86315789473684  14.652631578947368 10.86315789473684  L 11.410526315789472 10.86315789473684  L 11.410526315789472 11.915789473684208  L 14.652631578947368 11.915789473684208  C 15.368421052631579 11.915789473684208  15.915789473684208 11.326315789473684  15.915789473684208 10.652631578947368  L 15.915789473684208 1.389473684210525  Z " fill-rule="nonzero" fill="#ffffff" stroke="none" transform="matrix(1 0 0 1 2271 329 )" />
  </g>
</svg>