<?xml version="1.0" encoding="utf-8"?>
<svg version="1.1" xmlns:xlink="http://www.w3.org/1999/xlink" width="66px" height="10px" preserveAspectRatio="xMinYMid meet" viewBox="1711 637  66 8" xmlns="http://www.w3.org/2000/svg">
  <path d="M 1657 996  L 1711 996  A 5 5 0 0 0 1716 991 L 1716 646  A 5 5 0 0 1 1721 641 L 1775 641  " stroke-width="2" stroke="#0066ff" fill="none" />
  <path d="M 1658.5 992.5  A 3.5 3.5 0 0 0 1655 996 A 3.5 3.5 0 0 0 1658.5 999.5 A 3.5 3.5 0 0 0 1662 996 A 3.5 3.5 0 0 0 1658.5 992.5 Z M 1767.6 649  L 1777 641  L 1767.6 633  L 1771.2 641  L 1767.6 649  Z " fill-rule="nonzero" fill="#0066ff" stroke="none" />
</svg>