<?xml version="1.0" encoding="utf-8"?>
<svg version="1.1" xmlns:xlink="http://www.w3.org/1999/xlink" width="16px" height="16px" xmlns="http://www.w3.org/2000/svg">
  <g transform="matrix(1 0 0 1 -1015 -787 )">
    <path d="M 15.057731958762888 1.504000000000002  L 15.837113402061856 2.36  C 15.884536082474227 2.42  15.909278350515464 2.49  15.907216494845361 2.57  C 15.903092783505153 2.65  15.872164948453607 2.716  15.810309278350514 2.77  L 1.2824742268041234 15.052  C 1.2206185567010306 15.097999999999999  1.1484536082474224 15.12  1.0659793814432987 15.114  C 0.983505154639175 15.108000000000002  0.9175257731958762 15.074000000000002  0.868041237113402 15.016000000000002  L 0.09690721649484542 14.16  C 0.04948453608247434 14.1  0.02474226804123717 14.03  0.02680412371134015 13.95  C 0.030927835051546393 13.87  0.061855670103092786 13.806  0.12371134020618557 13.758  L 0.7628865979381443 13.16  C 0.6474226804123713 12.97  0.5876288659793815 12.774000000000001  0.5876288659793815 12.57  C 0.8927835051546394 12.32  1.175257731958763 12.058  1.42680412371134 11.786  C 1.6783505154639171 11.511999999999999  1.9402061855670103 11.155999999999999  2.208247422680412 10.72  C 2.4762886597938145 10.284  2.7072164948453605 9.812000000000001  2.8927835051546396 9.304  C 3.080412371134021 8.798000000000002  3.2329896907216495 8.184000000000001  3.3525773195876294 7.466000000000001  C 3.472164948453609 6.748000000000002  3.5319587628865983 5.972000000000001  3.5319587628865983 5.144000000000001  C 3.5319587628865983 4.238  3.890721649484536 3.3980000000000006  4.608247422680412 2.622000000000001  C 5.325773195876289 1.844000000000001  6.268041237113402 1.374000000000001  7.435051546391753 1.2060000000000013  C 7.387628865979382 1.0940000000000014  7.360824742268041 0.9760000000000013  7.360824742268041 0.8580000000000012  C 7.360824742268041 0.6200000000000011  7.445360824742268 0.41600000000000137  7.618556701030927 0.25200000000000133  C 7.7917525773195875 0.0840000000000012  8 0.0020000000000013076  8.243298969072166 0.0020000000000013076  C 8.488659793814435 0.0020000000000013076  8.698969072164948 0.0840000000000012  8.868041237113403 0.25200000000000133  C 9.041237113402062 0.42000000000000115  9.12577319587629 0.6220000000000016  9.12577319587629 0.8580000000000012  C 9.12577319587629 0.9760000000000013  9.101030927835051 1.092000000000001  9.051546391752577 1.2060000000000013  C 9.812371134020617 1.3140000000000014  10.484536082474227 1.5600000000000012  11.0659793814433 1.9420000000000015  C 11.649484536082474 2.3260000000000014  12.103092783505154 2.7940000000000014  12.428865979381445 3.3480000000000016  L 14.643298969072166 1.4680000000000017  C 14.705154639175259 1.4220000000000015  14.777319587628867 1.4000000000000017  14.85979381443299 1.406000000000002  C 14.942268041237114 1.4120000000000021  15.008247422680414 1.446000000000002  15.057731958762888 1.504000000000002  Z M 5.8886597938144325 13.723999999999998  L 13.162886597938144 7.604  C 13.536082474226804 9.724  14.451546391752577 11.378  15.907216494845361 12.57  C 15.907216494845361 12.88  15.791752577319587 13.148  15.556701030927835 13.374  C 15.321649484536083 13.600000000000001  15.047422680412371 13.714  14.727835051546391 13.714  L 10.604123711340206 13.714  C 10.604123711340206 14.344000000000001  10.373195876288658 14.884  9.913402061855669 15.33  C 9.45360824742268 15.776  8.896907216494846 16  8.245360824742267 16  C 7.5938144329896895 16  7.041237113402062 15.777999999999999  6.583505154639174 15.335999999999999  C 6.125773195876288 14.891999999999998  5.894845360824742 14.356  5.8886597938144325 13.723999999999998  Z M 7.101030927835051 14.822000000000001  C 7.416494845360824 15.13  7.799999999999999 15.282  8.24742268041237 15.282  C 8.346391752577318 15.282  8.393814432989691 15.236  8.393814432989691 15.14  C 8.393814432989691 15.043999999999999  8.34639175257732 14.998  8.24742268041237 14.998  C 7.884536082474226 14.998  7.57319587628866 14.872  7.311340206185568 14.618  C 7.049484536082475 14.363999999999999  6.91958762886598 14.062000000000001  6.91958762886598 13.71  C 6.91958762886598 13.614  6.872164948453609 13.568  6.77319587628866 13.568  C 6.674226804123711 13.568  6.62680412371134 13.613999999999999  6.62680412371134 13.71  C 6.62680412371134 14.144  6.785567010309277 14.515999999999998  7.101030927835051 14.822000000000001  Z " fill-rule="nonzero" fill="#aaaaaa" stroke="none" transform="matrix(1 0 0 1 1015 787 )" />
  </g>
</svg>