<?xml version="1.0" encoding="utf-8"?>
<svg version="1.1" xmlns:xlink="http://www.w3.org/1999/xlink" width="25px" height="7px" xmlns="http://www.w3.org/2000/svg">
  <g transform="matrix(1 0 0 1 -1983 -210 )">
    <path d="M 2.309782608695652 1.256410252028245  L 2.309782608695652 5.743589747971756  L 7.9710144839079495 5.743589747971756  L 7.971014483907949 1.256410252028245  L 2.309782608695652 1.256410252028245  Z M 24.95471013608186 2.9391025597205527  C 24.95471013608186 2.6306089787409856  24.445199266516642 2.37820513258714  23.822463776961616 2.37820513258714  L 23.822463776961616 1.2564102651742792  C 23.822463776961616 0.6394230900691112  22.803442037831182 0.1346153977614189  21.5579710321841 0.1346153977614189  L 2.309782608695652 0.13461538461538464  C 1.0643116030485733 0.13461538461538464  0.045289863918138766 0.6394230769230764  0.045289863918138766 1.256410252028245  L 0.045289863918138766 5.74358973482572  C 0.045289863918138766 6.360576909930889  1.0643116030485733 6.865384602238581  2.309782608695652 6.865384602238581  L 21.55797100564708 6.865384602238581  C 22.803442011294155 6.865384602238581  23.822463750424596 6.360576909930889  23.822463750424596 5.74358973482572  L 23.822463750424596 4.621794867412859  C 24.44519926651665 4.621794867412859  24.95471013608186 4.369391021259013  24.95471013608186 4.060897427133414  L 24.95471013608186 2.9391025597205527  Z M 22.690217391304348 1.256410252028245  L 22.690217391304348 5.743589747971756  C 22.690217391304348 6.052083342097356  22.18070652173913 6.3044871882512  21.55797100564708 6.3044871882512  L 2.309782608695652 6.304487175105168  C 1.6870470926036008 6.304487175105168  1.1775362230383832 6.052083328951322  1.1775362230383832 5.743589734825723  L 1.1775362230383832 1.256410252028245  C 1.1775362230383832 0.9479166579026442  1.6870470926036008 0.6955128117487976  2.309782608695652 0.6955128117487976  L 21.55797100564708 0.6955128117487976  C 22.18070652173913 0.6955128117487976  22.690217391304348 0.9479166579026439  22.690217391304348 1.256410252028245  Z " fill-rule="nonzero" fill="#000000" stroke="none" transform="matrix(1 0 0 1 1983 210 )" />
  </g>
</svg>