<?xml version="1.0" encoding="utf-8"?>
<svg version="1.1" xmlns:xlink="http://www.w3.org/1999/xlink" width="20px" height="11px" xmlns="http://www.w3.org/2000/svg">
  <g transform="matrix(1 0 0 1 -1933 -208 )">
    <path d="M 0 10.94049459041731  L 0 7.790734560471407  L 2.9154803554868627 7.790734560471407  L 2.9154803554868627 10.94049459041731  L 0 10.94049459041731  Z M 4.164971931993818 10.94049459041731  L 4.164971931993818 6.072683642774344  L 7.0804522874806795 6.072683642774344  L 7.0804522874806795 10.94049459041731  L 4.164971931993818 10.94049459041731  Z M 8.746441066460587 10.94049459041731  L 8.746441066460587 4.068290898377125  L 11.245424234930448 4.068290898377125  L 11.245424234930448 10.94049459041731  L 8.746441066460587 10.94049459041731  Z M 12.911412998454407 10.94049459041731  L 12.911412998454407 2.063898153979907  L 15.826893353941268 2.063898153979907  L 15.826893353941268 10.94049459041731  L 12.911412998454407 10.94049459041731  Z M 17 10.94049459041731  L 17 0.059505409582689094  L 20 0.059505409582689094  L 20 10.94049459041731  L 17 10.94049459041731  Z " fill-rule="nonzero" fill="#000000" stroke="none" transform="matrix(1 0 0 1 1933 208 )" />
  </g>
</svg>