<?xml version="1.0" encoding="utf-8"?>
<svg version="1.1" xmlns:xlink="http://www.w3.org/1999/xlink" width="20px" height="10px" xmlns="http://www.w3.org/2000/svg">
  <g transform="matrix(1 0 0 1 -1958 -209 )">
    <path d="M 19.375 2.7443750000000007  C 16.86682692307692 1.2701562499999994  13.590625000000001 0.23937500000000034  9.993509615384616 0.23937500000000034  C 6.4028846153846155 0.23937500000000034  3.131009615384616 1.2673437500000002  0.625 2.7368750000000004  L 2.0932692307692307 3.8374999999999995  C 4.209134615384615 2.6014062499999993  6.966826923076923 1.8476562499999991  9.993509615384616 1.8476562499999991  C 13.02451923076923 1.8476562499999991  15.787259615384615 2.6042187499999994  17.90528846153846 3.8435937499999993  L 19.375 2.7443750000000007  Z M 9.993509615384616 3.413281249999999  C 7.581971153846155 3.41328125  5.381730769230769 4.0540625  3.6899038461538463 5.0346875  L 5.243269230769231 6.19953125  C 6.522596153846154 5.46640625  8.17980769230769 5.0215625  9.993509615384616 5.0215625  C 11.810817307692306 5.0215625  13.469471153846156 5.467812499999999  14.750240384615385 6.20328125  L 16.30576923076923 5.040312499999999  C 14.612499999999999 4.0559375  12.409375 3.413281249999999  9.993509615384616 3.413281249999999  Z M 9.993509615384616 6.543125  C 8.776923076923076 6.543125  7.662740384615384 6.879687500000001  6.7973557692307685 7.364375000000001  L 9.993509615384616 9.760625  L 13.193990384615384 7.36671875  C 12.32716346153846 6.880156249999999  11.212259615384614 6.543125  9.993509615384616 6.543125  Z " fill-rule="nonzero" fill="#000000" stroke="none" transform="matrix(1 0 0 1 1958 209 )" />
  </g>
</svg>