<?xml version="1.0" encoding="utf-8"?>
<svg version="1.1" xmlns:xlink="http://www.w3.org/1999/xlink" width="20px" height="20px" xmlns="http://www.w3.org/2000/svg">
  <g transform="matrix(1 0 0 1 -1663 -383 )">
    <path d="M 1673 383  C 1678.6 383  1683 387.4  1683 393  C 1683 398.6  1678.6 403  1673 403  C 1667.4 403  1663 398.6  1663 393  C 1663 387.4  1667.4 383  1673 383  Z " fill-rule="nonzero" fill="#ffffff" stroke="none" fill-opacity="0" />
    <path d="M 1673 383.5  C 1678.32 383.5  1682.5 387.68  1682.5 393  C 1682.5 398.32  1678.32 402.5  1673 402.5  C 1667.68 402.5  1663.5 398.32  1663.5 393  C 1663.5 387.68  1667.68 383.5  1673 383.5  Z " stroke-width="1" stroke="#999999" fill="none" />
  </g>
</svg>