<?xml version="1.0" encoding="utf-8"?>
<svg version="1.1" xmlns:xlink="http://www.w3.org/1999/xlink" width="10px" height="312px" preserveAspectRatio="xMidYMin meet" viewBox="1584 410  8 312" xmlns="http://www.w3.org/2000/svg">
  <path d="M 1530 415  L 1583 415  A 5 5 0 0 1 1588 420 L 1588 712  A 5 5 0 0 0 1593 717 L 1646 717  " stroke-width="2" stroke="#0066ff" fill="none" />
  <path d="M 1531.5 411.5  A 3.5 3.5 0 0 0 1528 415 A 3.5 3.5 0 0 0 1531.5 418.5 A 3.5 3.5 0 0 0 1535 415 A 3.5 3.5 0 0 0 1531.5 411.5 Z M 1638.6 725  L 1648 717  L 1638.6 709  L 1642.2 717  L 1638.6 725  Z " fill-rule="nonzero" fill="#0066ff" stroke="none" />
</svg>