<?xml version="1.0" encoding="utf-8"?>
<svg version="1.1" xmlns:xlink="http://www.w3.org/1999/xlink" width="21px" height="20px" preserveAspectRatio="xMinYMid meet" viewBox="2004 1048  21 18" xmlns="http://www.w3.org/2000/svg">
  <path d="M 2013 1057  L 2299 1057  A 5 5 0 0 0 2304 1052 L 2304 616  A 5 5 0 0 1 2309 611 L 2596 611  " stroke-width="2" stroke="#0066ff" fill="none" />
  <path d="M 2014.5 1053.5  A 3.5 3.5 0 0 0 2011 1057 A 3.5 3.5 0 0 0 2014.5 1060.5 A 3.5 3.5 0 0 0 2018 1057 A 3.5 3.5 0 0 0 2014.5 1053.5 Z M 2588.6 619  L 2598 611  L 2588.6 603  L 2592.2 611  L 2588.6 619  Z " fill-rule="nonzero" fill="#0066ff" stroke="none" />
</svg>