<?xml version="1.0" encoding="utf-8"?>
<svg version="1.1" xmlns:xlink="http://www.w3.org/1999/xlink" width="20px" height="21px" preserveAspectRatio="xMidYMin meet" viewBox="2846 589  18 21" xmlns="http://www.w3.org/2000/svg">
  <path d="M 2855 601  L 2855 595  A 5 5 0 0 1 2860 590 L 2985 590  A 5 5 0 0 1 2990 595 L 2990 606  A 5 5 0 0 0 2995 611 L 3005 611  " stroke-width="2" stroke="#0066ff" fill="none" />
  <path d="M 2855 596  A 3.5 3.5 0 0 0 2851.5 599.5 A 3.5 3.5 0 0 0 2855 603 A 3.5 3.5 0 0 0 2858.5 599.5 A 3.5 3.5 0 0 0 2855 596 Z M 2997.6 619  L 3007 611  L 2997.6 603  L 3001.2 611  L 2997.6 619  Z " fill-rule="nonzero" fill="#0066ff" stroke="none" />
</svg>