<?xml version="1.0" encoding="utf-8"?>
<svg version="1.1" xmlns:xlink="http://www.w3.org/1999/xlink" width="21px" height="20px" preserveAspectRatio="xMinYMid meet" viewBox="1892 623  21 18" xmlns="http://www.w3.org/2000/svg">
  <path d="M 1901 632  L 1973 632  A 5 5 0 0 0 1978 627 L 1978 606  A 5 5 0 0 1 1983 601 L 2056 601  " stroke-width="2" stroke="#0066ff" fill="none" />
  <path d="M 1902.5 628.5  A 3.5 3.5 0 0 0 1899 632 A 3.5 3.5 0 0 0 1902.5 635.5 A 3.5 3.5 0 0 0 1906 632 A 3.5 3.5 0 0 0 1902.5 628.5 Z M 2048.6 609  L 2058 601  L 2048.6 593  L 2052.2 601  L 2048.6 609  Z " fill-rule="nonzero" fill="#0066ff" stroke="none" />
</svg>