<?xml version="1.0" encoding="utf-8"?>
<svg version="1.1" xmlns:xlink="http://www.w3.org/1999/xlink" width="55px" height="10px" preserveAspectRatio="xMinYMid meet" viewBox="1053 597  55 8" xmlns="http://www.w3.org/2000/svg">
  <path d="M 1010 512  L 1053 512  A 5 5 0 0 1 1058 517 L 1058 596  A 5 5 0 0 0 1063 601 L 1106 601  " stroke-width="2" stroke="#0066ff" fill="none" />
  <path d="M 1011.5 508.5  A 3.5 3.5 0 0 0 1008 512 A 3.5 3.5 0 0 0 1011.5 515.5 A 3.5 3.5 0 0 0 1015 512 A 3.5 3.5 0 0 0 1011.5 508.5 Z M 1098.6 609  L 1108 601  L 1098.6 593  L 1102.2 601  L 1098.6 609  Z " fill-rule="nonzero" fill="#0066ff" stroke="none" />
</svg>