<?xml version="1.0" encoding="utf-8"?>
<svg version="1.1" xmlns:xlink="http://www.w3.org/1999/xlink" width="21px" height="20px" preserveAspectRatio="xMinYMid meet" viewBox="2426 296  21 18" xmlns="http://www.w3.org/2000/svg">
  <path d="M 2435 305  L 2478 305  A 5 5 0 0 1 2483 310 L 2483 596  A 5 5 0 0 0 2488 601 L 2531 601  " stroke-width="2" stroke="#0066ff" fill="none" />
  <path d="M 2436.5 301.5  A 3.5 3.5 0 0 0 2433 305 A 3.5 3.5 0 0 0 2436.5 308.5 A 3.5 3.5 0 0 0 2440 305 A 3.5 3.5 0 0 0 2436.5 301.5 Z M 2523.6 609  L 2533 601  L 2523.6 593  L 2527.2 601  L 2523.6 609  Z " fill-rule="nonzero" fill="#0066ff" stroke="none" />
</svg>