<?xml version="1.0" encoding="utf-8"?>
<svg version="1.1" xmlns:xlink="http://www.w3.org/1999/xlink" width="12px" height="20px" xmlns="http://www.w3.org/2000/svg">
  <g transform="matrix(1 0 0 1 -3504 -332 )">
    <path d="M 10.5787452 0.19791077319587635  L 1.3842878499999998 0.19791077319587635  C 1.3842878499999998 0.19791077319587635  0.06396702499999946 0.1762050773195878  0 1.6057480154639174  L 0 18.592235309278347  C 0.057136450000000144 18.592235309278347  -0.06673477500000047 19.993558195876282  1.3157775000000003 19.993558195876282  L 10.640066825 19.993558195876282  C 10.640066825 19.993558195876282  11.91966005 20.014235309278344  12 18.649334742268035  L 12 1.605748015463913  C 11.920146149999999 1.6057480154639174  11.959901575 0.19791077319587635  10.5787452 0.19791077319587635  Z M 4.657281575000001 0.8813632731958766  L 7.297053400000001 0.8813632731958766  L 7.297053400000001 1.562811365979382  L 4.657281575000001 1.5628113402061854  L 4.657281575000001 0.8813632731958766  Z M 3.667053749999999 0.8813632731958766  C 3.8499697250000002 0.8813632731958766  3.997581649999999 1.0331448969072168  3.997581649999999 1.2215598453608247  C 3.997581649999999 1.4101594072164954  3.8503534749999995 1.5633388402061854  3.667053749999999 1.5633388402061854  C 3.4850587499999985 1.5633388402061854  3.3374724000000002 1.410607757731959  3.3374724000000002 1.2215598453608247  C 3.3378305499999996 1.0331712628865977  3.485058725000001 0.8813632731958766  3.667053749999999 0.8813632731958766  Z M 5.97811405 18.62762902061856  C 5.612819325000001 18.62762902061856  5.3180048 18.322272345360826  5.3180048 17.945125979381444  C 5.3180048 17.568559845360824  5.613305375 17.262253711340204  5.978114049999999 17.262253711340204  C 6.3425133749999985 17.262253711340204  6.6383256249999985 17.568533479381443  6.6383256249999985 17.945125979381444  C 6.6383256249999985 18.322272345360826  6.342538949999999 18.62762902061856  5.97811405 18.62762902061856  Z M 10.625919625 15.896825670103091  L 1.3295409750000005 15.896825670103091  L 1.3295409750000005 2.245314381443299  L 10.625919625 2.245314381443299  L 10.625919625 15.896825670103091  Z " fill-rule="nonzero" fill="#000000" stroke="none" transform="matrix(1 0 0 1 3504 332 )" />
  </g>
</svg>