<?xml version="1.0" encoding="utf-8"?>
<svg version="1.1" xmlns:xlink="http://www.w3.org/1999/xlink" width="78px" height="10px" preserveAspectRatio="xMinYMid meet" viewBox="3405 597  78 8" xmlns="http://www.w3.org/2000/svg">
  <path d="M 3339 658  L 3405 658  A 5 5 0 0 0 3410 653 L 3410 606  A 5 5 0 0 1 3415 601 L 3481 601  " stroke-width="2" stroke="#0066ff" fill="none" />
  <path d="M 3340.5 654.5  A 3.5 3.5 0 0 0 3337 658 A 3.5 3.5 0 0 0 3340.5 661.5 A 3.5 3.5 0 0 0 3344 658 A 3.5 3.5 0 0 0 3340.5 654.5 Z M 3473.6 609  L 3483 601  L 3473.6 593  L 3477.2 601  L 3473.6 609  Z " fill-rule="nonzero" fill="#0066ff" stroke="none" />
</svg>