<?xml version="1.0" encoding="utf-8"?>
<svg version="1.1" xmlns:xlink="http://www.w3.org/1999/xlink" width="21px" height="20px" preserveAspectRatio="xMinYMid meet" viewBox="1476 383  21 18" xmlns="http://www.w3.org/2000/svg">
  <path d="M 1485 392  L 1525 392  A 5 5 0 0 1 1530 397 L 1530 1695  A 5 5 0 0 0 1535 1700 L 1581 1700  " stroke-width="2" stroke="#0066ff" fill="none" />
  <path d="M 1486.5 388.5  A 3.5 3.5 0 0 0 1483 392 A 3.5 3.5 0 0 0 1486.5 395.5 A 3.5 3.5 0 0 0 1490 392 A 3.5 3.5 0 0 0 1486.5 388.5 Z M 1573.6 1708  L 1583 1700  L 1573.6 1692  L 1577.2 1700  L 1573.6 1708  Z " fill-rule="nonzero" fill="#0066ff" stroke="none" />
</svg>