<?xml version="1.0" encoding="utf-8"?>
<svg version="1.1" xmlns:xlink="http://www.w3.org/1999/xlink" width="10px" height="153px" preserveAspectRatio="xMidYMin meet" viewBox="1054 2722  8 153" xmlns="http://www.w3.org/2000/svg">
  <path d="M 1010 2727  L 1053 2727  A 5 5 0 0 1 1058 2732 L 1058 2865  A 5 5 0 0 0 1063 2870 L 1106 2870  " stroke-width="2" stroke="#0066ff" fill="none" />
  <path d="M 1011.5 2723.5  A 3.5 3.5 0 0 0 1008 2727 A 3.5 3.5 0 0 0 1011.5 2730.5 A 3.5 3.5 0 0 0 1015 2727 A 3.5 3.5 0 0 0 1011.5 2723.5 Z M 1098.6 2878  L 1108 2870  L 1098.6 2862  L 1102.2 2870  L 1098.6 2878  Z " fill-rule="nonzero" fill="#0066ff" stroke="none" />
</svg>