<?xml version="1.0" encoding="utf-8"?>
<svg version="1.1" xmlns:xlink="http://www.w3.org/1999/xlink" width="34px" height="34px" preserveAspectRatio="xMinYMid meet" viewBox="614 2854  34 32" xmlns="http://www.w3.org/2000/svg">
  <path d="M 535 2873  L 581.5 2873  A 1.5 1.5 0 0 0 583 2871.5 A 1.5 1.5 0 0 1 584.5 2870 L 631 2870  " stroke-width="2" stroke="#0066ff" fill="none" />
  <path d="M 536.5 2869.5  A 3.5 3.5 0 0 0 533 2873 A 3.5 3.5 0 0 0 536.5 2876.5 A 3.5 3.5 0 0 0 540 2873 A 3.5 3.5 0 0 0 536.5 2869.5 Z M 623.6 2878  L 633 2870  L 623.6 2862  L 627.2 2870  L 623.6 2878  Z " fill-rule="nonzero" fill="#0066ff" stroke="none" />
</svg>