<?xml version="1.0" encoding="utf-8"?>
<svg version="1.1" xmlns:xlink="http://www.w3.org/1999/xlink" width="55px" height="10px" preserveAspectRatio="xMinYMid meet" viewBox="1483 2572  55 8" xmlns="http://www.w3.org/2000/svg">
  <path d="M 1485 2576  L 1528 2576  A 5 5 0 0 1 1533 2581 L 1533 2865  A 5 5 0 0 0 1538 2870 L 1581 2870  " stroke-width="2" stroke="#0066ff" fill="none" />
  <path d="M 1486.5 2572.5  A 3.5 3.5 0 0 0 1483 2576 A 3.5 3.5 0 0 0 1486.5 2579.5 A 3.5 3.5 0 0 0 1490 2576 A 3.5 3.5 0 0 0 1486.5 2572.5 Z M 1573.6 2878  L 1583 2870  L 1573.6 2862  L 1577.2 2870  L 1573.6 2878  Z " fill-rule="nonzero" fill="#0066ff" stroke="none" />
</svg>