<?xml version="1.0" encoding="utf-8"?>
<svg version="1.1" xmlns:xlink="http://www.w3.org/1999/xlink" width="16px" height="10px" xmlns="http://www.w3.org/2000/svg">
  <g transform="matrix(1 0 0 1 -1249 -468 )">
    <path d="M 8 1.6521875000000001  C 5.418 1.6521875000000001  3.322 2.7406249999999996  1.6230000000000002 5.004687500000001  C 3.298 7.2621875  5.393000000000001 8.347812500000002  8 8.347812500000002  C 10.607 8.347812500000002  12.702 7.262187500000001  14.376999999999999 5.004687500000003  C 12.678 2.7406249999999996  10.582 1.6531249999999993  8 1.6531249999999993  Z M 16 5  C 14.008 8.1246875  11.342 9.6875  8 9.6875  C 4.6579999999999995 9.6875  1.992 8.1246875  0 5  C 2.022 1.8753124999999997  4.688 0.3125  8 0.3125  C 11.312 0.3125  13.978 1.8753124999999997  16 5  Z M 7.999999999999999 7.678437499999998  C 9.577877530266578 7.678437499999998  10.857 6.4792601846249145  10.857 4.999999999999998  C 10.857 3.520739815375083  9.577877530266578 2.321562499999998  7.999999999999999 2.321562499999998  C 6.422122469733422 2.321562499999998  5.142999999999999 3.520739815375083  5.142999999999999 4.999999999999998  C 5.142999999999999 6.4792601846249145  6.422122469733422 7.678437499999998  7.999999999999999 7.678437499999998  Z M 8 5.9375  C 7.447715250169207 5.9375  7 5.517766952966369  7 5  C 7 4.482233047033631  7.447715250169207 4.0625  8 4.0625  C 8.552284749830793 4.0625  9 4.482233047033631  9 5  C 9 5.517766952966369  8.552284749830793 5.9375  8 5.9375  Z " fill-rule="nonzero" fill="#262626" stroke="none" transform="matrix(1 0 0 1 1249 468 )" />
  </g>
</svg>