<?xml version="1.0" encoding="utf-8"?>
<svg version="1.1" xmlns:xlink="http://www.w3.org/1999/xlink" width="12px" height="12px" xmlns="http://www.w3.org/2000/svg">
  <g transform="matrix(1 0 0 1 -1368 -468 )">
    <path d="M 11.286902953715037 5.402730374269007  C 11.643331467065597 5.402730374269007  11.880950472097556 5.642205777777779  11.880950483702795 6.001418888888889  L 11.880950483702795 10.790927052631577  C 11.880950483702795 11.449484421052631  11.346307707874336 11.98830409356725  10.692855435332518 11.98830409356725  L 1.18809504837028 11.98830409356725  C 0.5346427758284602 11.98830409356725  0 11.449484421052631  0 10.790927052631577  L 0 1.2119107251461991  C 0 0.5533533567251465  0.5346427758284602 0.014533684210526646  1.18809504837028 0.014533684210526646  L 5.3464277118636385 0.014533684210526646  C 5.702856225214198 0.014533684210526646  5.940475230246157 0.25400908771929853  5.940475241851398 0.6132222105263161  C 5.94047525345664 0.9724353333333337  5.702856236819438 1.2119107251461991  5.3464277118636385 1.2119107251461991  L 1.7821425667527993 1.2119107251461991  C 1.4257140534022394 1.2119107251461991  1.1880950483702797 1.451386128654971  1.1880950483702797 1.8105992514619884  L 1.1880950483702797 10.192238538011695  C 1.1880950483702797 10.551451649122807  1.4257140534022392 10.790927052631579  1.7821425667527993 10.790927052631579  L 10.098807905344758 10.790927052631579  C 10.455236418695316 10.790927052631579  10.692855423727277 10.551451649122807  10.692855435332518 10.192238538011695  L 10.692855435332518 6.001418888888891  C 10.692855435332518 5.642205777777779  10.930474440364478 5.402730374269007  11.286902953715037 5.402730374269007  Z M 10.752260177886576 0.254009099415205  C 10.989879182918536 -0.04533515789473652  11.465117204587695 -0.04533515789473652  11.762140975384197 0.13427139181286585  C 11.999759980416158 0.43361564912280737  11.940355237862097 0.8526976140350879  11.643331467065597 1.0921730292397662  L 5.108808706831678 7.677746748538013  C 4.93059444435378 7.977091005847953  4.574165931003219 8.096828713450293  4.27714217181196 7.917222152046785  C 3.9801184126206994 7.7376155906432755  3.8613089043021 7.378402479532164  4.0395231667800005 7.079058233918129  C 4.0989279209393 7.01918938011696  4.1583326750986 6.89945167251462  4.27714217181196 6.839582818713451  L 10.752260177886576 0.254009099415205  Z " fill-rule="nonzero" fill="#000000" stroke="none" transform="matrix(1 0 0 1 1368 468 )" />
  </g>
</svg>