<?xml version="1.0" encoding="utf-8"?>
<svg version="1.1" xmlns:xlink="http://www.w3.org/1999/xlink" width="30px" height="11px" xmlns="http://www.w3.org/2000/svg">
  <g transform="matrix(1 0 0 1 -868 -905 )">
    <path d="M 29.840707964601766 7.35121951219512  C 29.73451327433628 9.282926829268291  28.24778761061947 10.892682926829266  26.336283185840706 10.892682926829266  L 3.3982300884955756 10.892682926829266  C 1.592920353982301 10.892682926829266  0 9.282926829268291  0 7.35121951219512  L 0 1.234146341463413  C 0 0.5902439024390214  0.4247787610619468 0.16097560975609604  1.0619469026548671 0.16097560975609604  C 1.6991150442477878 0.16097560975609604  2.1238938053097343 0.5902439024390214  2.1238938053097343 1.234146341463413  L 2.1238938053097343 7.35121951219512  C 2.1238938053097343 8.102439024390241  2.6548672566371683 8.746341463414632  3.3982300884955756 8.746341463414632  L 26.442477876106192 8.746341463414632  C 27.079646017699115 8.746341463414632  27.71681415929203 8.102439024390241  27.71681415929203 7.35121951219512  L 27.71681415929203 1.234146341463413  C 27.71681415929203 0.5902439024390214  28.14159292035398 0.16097560975609604  28.778761061946902 0.16097560975609604  C 29.415929203539825 0.16097560975609604  29.840707964601766 0.5902439024390214  29.840707964601766 1.234146341463413  L 29.840707964601766 7.35121951219512  Z " fill-rule="nonzero" fill="#000000" stroke="none" transform="matrix(1 0 0 1 868 905 )" />
  </g>
</svg>