<?xml version="1.0" encoding="utf-8"?>
<svg version="1.1" xmlns:xlink="http://www.w3.org/1999/xlink" width="43px" height="30px" xmlns="http://www.w3.org/2000/svg">
  <g transform="matrix(1 0 0 1 -706 -886 )">
    <path d="M 31.335411329002486 6.089502762430939  C 31.44234351284075 5.559116022099449  31.335411329002486 5.187845303867404  31.121546961325965 4.92265193370166  C 29.99875903102422 3.4906077348066313  28.50170845728857 2.270718232044202  26.844259607795518 1.4220994475138138  C 25.133344666383344 0.5734806629834255  23.26203144921377 0.14917127071823133  21.28378604820594 0.14917127071823133  C 17.96888834921984 0.14917127071823133  14.867855017910266 1.4220994475138138  12.515346973468523 3.7558011049723747  C 10.269771112865037 5.983425414364643  8.986584906805902 8.953591160220995  8.879652722967641 12.135911602209944  C 6.527144678525894 12.135911602209944  4.28156881792241 13.03756906077348  2.624119968429363 14.734806629834257  C 0.9666711189363137 16.379005524861874  0.004281464391963068 18.60662983425414  0.004281464391963068 20.940331491712705  C 0.004281464391963068 23.27403314917127  0.9132050270171822 25.50165745856354  2.624119968429363 27.14585635359116  C 4.28156881792241 28.79005524861878  6.527144678525894 29.74475138121547  8.879652722967641 29.74475138121547  L 17.808490073462448 29.74475138121547  C 18.61048145224941 29.74475138121547  19.198608463359843 29.108287292817682  19.198608463359843 28.36574585635359  C 19.198608463359843 27.570165745856354  18.557015360330272 26.986740331491717  17.808490073462448 26.986740331491717  L 8.879652722967638 26.986740331491717  C 7.275669965393722 26.986740331491717  5.778619391658065 26.350276243093923  4.655831461356322 25.23646408839779  C 3.5330435310545805 24.122651933701658  2.891450428025012 22.584530386740333  2.891450428025012 21.046408839779005  C 2.891450428025012 19.455248618784534  3.5330435310545805 17.970165745856352  4.655831461356322 16.85635359116023  C 5.778619391658065 15.742541436464087  7.329136057312851 15.1060773480663  8.879652722967638 15.1060773480663  L 10.323237204784165 15.1060773480663  C 10.69749984821808 15.1060773480663  11.071762491651995 14.946961325966853  11.392559043166775 14.62872928176796  C 11.65988950276243 14.310497237569065  11.76682168660069 13.939226519337021  11.76682168660069 13.567955801104974  C 11.713355594681563 13.24972375690608  11.713355594681563 12.931491712707183  11.713355594681563 12.613259668508288  C 11.713355594681563 10.067403314917128  12.729211341145046 7.680662983425416  14.493592374476355 5.877348066298342  C 16.311439499726795 4.074033149171273  18.71741363608767 3.119337016574587  21.28378604820594 3.119337016574587  C 22.780836621941596 3.119337016574587  24.224421103758118 3.4375690607734843  25.561073401736387 4.127071823204423  C 26.844259607795518 4.76353591160221  27.967047538097262 5.718232044198896  28.82250500880335 6.832044198895027  C 29.089835468399002 7.203314917127072  29.51756420375205 7.362430939226519  29.94529293910509 7.362430939226519  C 30.266089490619873 7.362430939226519  30.53341995021553 7.256353591160222  30.800750409811183 7.044198895027625  C 31.121546961325965 6.832044198895027  31.281945237083363 6.460773480662986  31.335411329002486 6.089502762430939  Z M 41.92169752899035 22.372375690607736  L 39.14146074919555 12.666298342541435  C 39.14146074919555 12.560220994475138  39.08799465727642 12.454143646408838  39.0345285653573 12.295027624309395  L 38.981062473438165 12.188950276243094  C 38.76719810576164 11.7646408839779  38.28600327848946 11.446408839779007  37.80480845121729 11.393370165745857  L 24.11748891991986 11.393370165745857  C 23.52936190880942 11.393370165745857  23.048167081537244 11.711602209944754  22.780836621941596 12.188950276243094  L 22.727370530022462 12.348066298342541  C 22.673904438103335 12.454143646408838  22.673904438103335 12.560220994475138  22.62043834618421 12.666298342541435  L 19.840201566389414 22.372375690607736  C 20.26793030174246 22.266298342541443  20.695659037095506 22.160220994475143  21.12338777244855 22  L 40.638511322931215 22  C 41.066240058284265 22.160220994475143  41.49396879363731 22.266298342541436  41.92169752899035 22.372375690607736  Z M 42.670222815858175 25.024309392265188  C 42.7236889077773 24.016574585635357  41.81476534515208 23.16795580110497  40.74544350676947 23  L 21.230319956286806 23  C 20.160998117904196 23.16795580110497  19.305540647198107 24.016574585635357  19.305540647198107 25.024309392265188  C 19.305540647198107 26.032044198895022  20.160998117904196 27.411049723756904  21.230319956286806 27  L 40.74544350676947 27  C 41.81476534515208 27.411049723756904  42.670222815858175 26.08508287292818  42.670222815858175 25.024309392265188  Z M 39.83651994414426 25.289502762430935  C 39.83651994414426 25.81988950276243  39.35532511687208 26.297237569060773  38.76719810576164 26.297237569060773  C 38.17907109465121 26.297237569060773  37.697876267379044 25.81988950276243  37.697876267379044 25.289502762430935  C 37.697876267379044 24.706077348066295  38.17907109465121 24.2817679558011  38.76719810576164 24.2817679558011  C 39.35532511687208 24.2817679558011  39.83651994414426 24.759116022099438  39.83651994414426 25.289502762430935  Z " fill-rule="nonzero" fill="#333333" stroke="none" transform="matrix(1 0 0 1 706 886 )" />
  </g>
</svg>