<?xml version="1.0" encoding="utf-8"?>
<svg version="1.1" xmlns:xlink="http://www.w3.org/1999/xlink" width="16px" height="9px" xmlns="http://www.w3.org/2000/svg">
  <g transform="matrix(1 0 0 1 -875 -886 )">
    <path d="M 15.68 8.64  C 15.466666666666667 8.845714285714285  15.253333333333334 8.94857142857143  14.933333333333334 8.948571428571428  C 14.613333333333333 8.948571428571428  14.4 8.845714285714285  14.186666666666667 8.639999999999999  L 8.000000000000002 2.674285714285714  L 1.8133333333333344 8.639999999999999  C 1.3866666666666672 9.05142857142857  0.7466666666666677 9.05142857142857  0.32000000000000073 8.639999999999999  C -0.10666666666666627 8.228571428571426  -0.10666666666666627 7.611428571428569  0.32000000000000073 7.199999999999998  L 7.253333333333335 0.5142857142857142  C 7.680000000000002 0.10285714285714295  8.320000000000002 0.10285714285714295  8.746666666666666 0.5142857142857142  L 15.68 7.2  C 16.106666666666666 7.611428571428572  16.106666666666666 8.228571428571428  15.68 8.64  Z " fill-rule="nonzero" fill="#000000" stroke="none" transform="matrix(1 0 0 1 875 886 )" />
  </g>
</svg>