<?xml version="1.0" encoding="utf-8"?>
<svg version="1.1" xmlns:xlink="http://www.w3.org/1999/xlink" width="66px" height="10px" preserveAspectRatio="xMinYMid meet" viewBox="559 909  66 8" xmlns="http://www.w3.org/2000/svg">
  <path d="M 505 794  L 559 794  A 5 5 0 0 1 564 799 L 564 908  A 5 5 0 0 0 569 913 L 623 913  " stroke-width="2" stroke="#0066ff" fill="none" />
  <path d="M 506.5 790.5  A 3.5 3.5 0 0 0 503 794 A 3.5 3.5 0 0 0 506.5 797.5 A 3.5 3.5 0 0 0 510 794 A 3.5 3.5 0 0 0 506.5 790.5 Z M 615.6 921  L 625 913  L 615.6 905  L 619.2 913  L 615.6 921  Z " fill-rule="nonzero" fill="#0066ff" stroke="none" />
</svg>