<?xml version="1.0" encoding="utf-8"?>
<svg version="1.1" xmlns:xlink="http://www.w3.org/1999/xlink" width="11px" height="12px" xmlns="http://www.w3.org/2000/svg">
  <g transform="matrix(1 0 0 1 -1315 -599 )">
    <path d="M 5.5 0.07999999999999999  L 0.06803703703703697 1.8932  L 0.06803703703703697 6.479999999999999  C 0.06803703703703697 8.346799999999998  1.1545925925925924 10  2.9471851851851847 10.8  L 5.39162962962963 11.920000000000002  L 7.999037037037037 10.7468  C 9.791629629629629 10  10.932370370370371 8.293600000000001  10.932370370370371 6.3736  L 10.932370370370371 1.8936000000000006  L 5.500407407407407 0.08040000000000003  Z M 9.845814814814815 6.373200000000001  C 9.845814814814815 7.8664  8.976814814814816 9.200000000000001  7.564333333333333 9.7864  L 5.39162962962963 10.7464  L 3.381888888888889 9.839599999999999  C 2.024 9.2528  1.1545925925925928 7.919600000000001  1.1545925925925928 6.4796  L 1.1545925925925928 2.6395999999999993  L 5.500407407407407 1.1995999999999993  L 9.846222222222222 2.6395999999999993  L 9.846222222222222 6.372799999999999  Z M 3.327296296296296 4.3999999999999995  C 3.327296296296296 5.4132  4.033333333333333 6.2132000000000005  4.956925925925925 6.479999999999999  L 4.956925925925925 9.200000000000001  L 6.04348148148148 9.200000000000001  L 6.04348148148148 8.6668  L 6.586555555555555 8.6668  L 6.586555555555555 7.6  L 6.04348148148148 7.6  L 6.04348148148148 6.479999999999999  C 6.967074074074074 6.266799999999998  7.673111111111112 5.4132  7.673111111111112 4.3999999999999995  C 7.673111111111112 3.2268000000000003  6.695333333333334 2.2668  5.5004074074074065 2.2668  C 4.305481481481479 2.2668  3.3277037037037025 3.2268000000000003  3.3277037037037025 4.3999999999999995  Z M 5.5 3.3331999999999997  C 6.097666666666665 3.3331999999999997  6.586555555555556 3.8131999999999997  6.586555555555556 4.3999999999999995  C 6.586555555555556 4.986800000000001  6.097666666666668 5.4668  5.5 5.4668  C 4.902333333333333 5.4668  4.413444444444444 4.986800000000001  4.413444444444444 4.3999999999999995  C 4.413444444444444 3.8131999999999997  4.902333333333333 3.3331999999999997  5.5 3.3331999999999997  Z " fill-rule="nonzero" fill="#000000" stroke="none" transform="matrix(1 0 0 1 1315 599 )" />
  </g>
</svg>