<?xml version="1.0" encoding="utf-8"?>
<svg version="1.1" xmlns:xlink="http://www.w3.org/1999/xlink" width="69px" height="121px" xmlns="http://www.w3.org/2000/svg">
  <g transform="matrix(1 0 0 1 -1374 -377 )">
    <path d="M 60.11981689423076 0.6267053804347834  L 7.844219769230765 0.6268723369565228  C 4.219620019230768 0.6268723369565228  0.37622945192307133 4.443915652173915  1 8.075762934782611  L 1 112.35939603260869  C 0.37622945192307133 116.00742701086956  4.299742817307691 119.80828663043476  7.844219769230765 119  L 60.11981689423077 119  C 63.463568307692306 119.80828663043476  67.5876398269231 115.98757271739129  67 112.35939603260869  L 67 8.075595978260871  C 67.58763982692307 4.423894402173913  63.73705662499999 0.6267053804347834  60.11981689423076 0.6267053804347834  Z M 22.780033019230775 8.075595978260871  L 26.514028096153844 8  L 45.18400364423078 8  C 47.24779579807693 8.075595978260871  48.877686326923076 8.906642934782614  48.877686326923076 9.939570489130437  C 48.877686326923076 10.96882744565218  46.93048229807691 11.799874402173915  45.18400364423078 12  L 22.780033019230775 12  C 20.907599076923084 11.799874402173915  19.100735605769234 10.968827445652174  19.100735605769234 9.939570489130437  C 19.100735605769234 8.906642934782614  20.92583174038462 8.075595978260871  22.780033019230775 8.075595978260871  Z M 34.0111235576923 112.37941711956523  C 32.012901711538454 112.37941711956523  30.226110663461533 110.72433065217392  30.226110663461533 108.63678586956523  C 30.226110663461533 106.54890750000001  32.012901711538454 104.8851451630435  34.0111235576923 104.8851451630435  C 36.118740730769225 104.8851451630435  37.7434459326923 106.54907445652175  37.7434459326923 108.63678586956523  C 37.7434459326923 110.72433065217392  36.11874073076924 112.37941711956523  34.0111235576923 112.37941711956523  Z M 60 20  L 60 97  L 8 97  L 8 20  L 60 20  Z " fill-rule="nonzero" fill="#7f7f7f" stroke="none" transform="matrix(1 0 0 1 1374 377 )" />
  </g>
</svg>