<?xml version="1.0" encoding="utf-8"?>
<svg version="1.1" xmlns:xlink="http://www.w3.org/1999/xlink" width="12px" height="12px" xmlns="http://www.w3.org/2000/svg">
  <g transform="matrix(1 0 0 1 -1979 -546 )">
    <path d="M 7.97021484375 3.541992187499999  L 5.97216796875 5.47119140625  L 4.04296875 3.47314453125  C 3.890625 3.31640625  3.6416015625 3.3134765625  3.484863281249999 3.4658203125  C 3.408691406249999 3.53759765625  3.364746093749999 3.63720703125  3.363281249999999 3.74267578125  C 3.360351562499999 3.848144531249999  3.401367187499999 3.94921875  3.473144531249999 4.023925781249999  L 5.402343749999999 6.02197265625  L 3.404296874999999 7.951171875  C 3.247558593749999 8.103515625  3.24462890625 8.3525390625  3.396972656249999 8.509277343750002  C 3.468749999999999 8.585449218750002  3.568359374999999 8.629394531250002  3.673828124999999 8.630859375  C 3.779296874999999 8.633789062500002  3.880371093749999 8.5927734375  3.955078124999999 8.52099609375  L 5.953124999999999 6.591796875000002  L 7.88232421875 8.589843750000002  C 8.03466796875 8.746582031250002  8.28369140625 8.74951171875  8.4404296875 8.597167968750002  C 8.516601562500002 8.525390625000002  8.560546875000002 8.42578125  8.56201171875 8.320312500000002  C 8.56494140625 8.21484375  8.52392578125 8.113769531250002  8.4521484375 8.0390625  L 6.52294921875 6.041015624999998  L 8.52099609375 4.111816406249999  C 8.677734375000002 3.95947265625  8.6806640625 3.71044921875  8.5283203125 3.553710937499999  C 8.45654296875 3.477539062499999  8.35693359375 3.433593749999999  8.25146484375 3.432128906249999  C 8.14599609375 3.429199218749999  8.044921875 3.470214843749999  7.97021484375 3.541992187499999  Z M 10.13671875 10.265625  C 7.773925781249998 12.546386718750004  4.0107421875 12.48193359375  1.728515625 10.119140625  C -0.5522460937499998 7.756347656250002  -0.4863281249999998 3.993164062500001  1.875 1.7109375000000009  C 4.237792968750001 -0.5698242187499991  8.0009765625 -0.5039062499999991  10.283203125 1.8574218750000009  C 12.563964843749996 4.220214843750001  12.49951171875 7.983398437500002  10.13671875 10.265625  Z " fill-rule="nonzero" fill="#aaaaaa" stroke="none" transform="matrix(1 0 0 1 1979 546 )" />
  </g>
</svg>