<?xml version="1.0" encoding="utf-8"?>
<svg version="1.1" xmlns:xlink="http://www.w3.org/1999/xlink" width="10px" height="94px" preserveAspectRatio="xMidYMin meet" viewBox="3154 509  8 94" xmlns="http://www.w3.org/2000/svg">
  <path d="M 3124 514  L 3153 514  A 5 5 0 0 1 3158 519 L 3158 593  A 5 5 0 0 0 3163 598 L 3193 598  " stroke-width="2" stroke="#0066ff" fill="none" />
  <path d="M 3125.5 510.5  A 3.5 3.5 0 0 0 3122 514 A 3.5 3.5 0 0 0 3125.5 517.5 A 3.5 3.5 0 0 0 3129 514 A 3.5 3.5 0 0 0 3125.5 510.5 Z M 3185.6 606  L 3195 598  L 3185.6 590  L 3189.2 598  L 3185.6 606  Z " fill-rule="nonzero" fill="#0066ff" stroke="none" />
</svg>