<?xml version="1.0" encoding="utf-8"?>
<svg version="1.1" xmlns:xlink="http://www.w3.org/1999/xlink" width="10px" height="19px" preserveAspectRatio="xMidYMin meet" viewBox="1622 593  8 19" xmlns="http://www.w3.org/2000/svg">
  <path d="M 1560 607  L 1621.5 607  A 4.5 4.5 0 0 0 1626 602.5 A 4.5 4.5 0 0 1 1630.5 598 L 1693 598  " stroke-width="2" stroke="#0066ff" fill="none" />
  <path d="M 1561.5 603.5  A 3.5 3.5 0 0 0 1558 607 A 3.5 3.5 0 0 0 1561.5 610.5 A 3.5 3.5 0 0 0 1565 607 A 3.5 3.5 0 0 0 1561.5 603.5 Z M 1685.6 606  L 1695 598  L 1685.6 590  L 1689.2 598  L 1685.6 606  Z " fill-rule="nonzero" fill="#0066ff" stroke="none" />
</svg>