<?xml version="1.0" encoding="utf-8"?>
<svg version="1.1" xmlns:xlink="http://www.w3.org/1999/xlink" width="12px" height="21px" xmlns="http://www.w3.org/2000/svg">
  <g transform="matrix(1 0 0 1 -4448 -537 )">
    <path d="M 9.725264497596152 0.10445089673913056  L 1.268917903846153 0.10447872282608713  C 0.6825855913461537 0.10447872282608713  0.06086064663461448 0.7406526086956526  0 1.3459604891304353  L 0 18.726566005434783  C 0.06086064663461448 19.33457116847826  0.6955466322115382 19.96804777173913  1.268917903846153 19.96804777173913  L 9.725264497596154 19.96804777173913  C 10.266165461538462 19.96804777173913  10.933294677884618 19.331262119565213  11 18.726566005434783  L 11 1.3459326630434787  C 10.933294677884614 0.7373157336956521  10.310406218749998 0.10445089673913056  9.725264497596152 0.10445089673913056  Z M 3.6850053413461543 1.3459326630434787  L 4.289033956730769 1.3459326630434787  L 7.309177060096155 1.3459326630434787  C 7.643025790865385 1.3459326630434787  7.906684552884616 1.4844404891304355  7.906684552884616 1.6565950815217394  C 7.906684552884616 1.8281379076086965  7.591695665865383 1.9666457336956524  7.309177060096155 1.9666457336956524  L 3.6850053413461543 1.9666457336956524  C 3.3821116153846167 1.9666457336956524  3.0898248774038466 1.8281379076086957  3.0898248774038466 1.6565950815217394  C 3.0898248774038466 1.4844404891304355  3.385061016826924 1.3459326630434787  3.6850053413461543 1.3459326630434787  Z M 5.50179939903846 18.72990285326087  C 5.178557629807691 18.72990285326087  4.889517901442307 18.454055108695652  4.889517901442307 18.10613097826087  C 4.889517901442307 17.758151250000004  5.178557629807691 17.480857527173917  5.50179939903846 17.480857527173917  C 5.8427374711538445 17.480857527173917  6.10555743028846 17.75817907608696  6.10555743028846 18.10613097826087  C 6.10555743028846 18.454055108695652  5.842737471153847 18.72990285326087  5.50179939903846 18.72990285326087  Z M 9.725264497596154 3.2081275  L 9.725264497596154 16.2436025  L 1.2689179038461547 16.2436025  L 1.268917903846153 3.2081275  L 9.725264497596154 3.2081275  Z " fill-rule="nonzero" fill="#0066ff" stroke="none" transform="matrix(1 0 0 1 4448 537 )" />
  </g>
</svg>