<?xml version="1.0" encoding="utf-8"?>
<svg version="1.1" xmlns:xlink="http://www.w3.org/1999/xlink" width="34px" height="34px" preserveAspectRatio="xMinYMid meet" viewBox="1201 582  34 32" xmlns="http://www.w3.org/2000/svg">
  <path d="M 1122 451  L 1165 451  A 5 5 0 0 1 1170 456 L 1170 593  A 5 5 0 0 0 1175 598 L 1218 598  " stroke-width="2" stroke="#0066ff" fill="none" />
  <path d="M 1123.5 447.5  A 3.5 3.5 0 0 0 1120 451 A 3.5 3.5 0 0 0 1123.5 454.5 A 3.5 3.5 0 0 0 1127 451 A 3.5 3.5 0 0 0 1123.5 447.5 Z M 1210.6 606  L 1220 598  L 1210.6 590  L 1214.2 598  L 1210.6 606  Z " fill-rule="nonzero" fill="#0066ff" stroke="none" />
</svg>