<?xml version="1.0" encoding="utf-8"?>
<svg version="1.1" xmlns:xlink="http://www.w3.org/1999/xlink" width="21px" height="20px" preserveAspectRatio="xMinYMid meet" viewBox="1571 4624  21 18" xmlns="http://www.w3.org/2000/svg">
  <path d="M 1580 4633  L 1751 4633  A 5 5 0 0 1 1756 4638 L 1756 4716  A 5 5 0 0 0 1761 4721 L 1933 4721  " stroke-width="2" stroke="#0066ff" fill="none" />
  <path d="M 1581.5 4629.5  A 3.5 3.5 0 0 0 1578 4633 A 3.5 3.5 0 0 0 1581.5 4636.5 A 3.5 3.5 0 0 0 1585 4633 A 3.5 3.5 0 0 0 1581.5 4629.5 Z M 1925.6 4729  L 1935 4721  L 1925.6 4713  L 1929.2 4721  L 1925.6 4729  Z " fill-rule="nonzero" fill="#0066ff" stroke="none" />
</svg>