<?xml version="1.0" encoding="utf-8"?>
<svg version="1.1" xmlns:xlink="http://www.w3.org/1999/xlink" width="10px" height="304px" preserveAspectRatio="xMidYMin meet" viewBox="691 4422  8 304" xmlns="http://www.w3.org/2000/svg">
  <path d="M 647 4427  L 690 4427  A 5 5 0 0 1 695 4432 L 695 4716  A 5 5 0 0 0 700 4721 L 743 4721  " stroke-width="2" stroke="#0066ff" fill="none" />
  <path d="M 648.5 4423.5  A 3.5 3.5 0 0 0 645 4427 A 3.5 3.5 0 0 0 648.5 4430.5 A 3.5 3.5 0 0 0 652 4427 A 3.5 3.5 0 0 0 648.5 4423.5 Z M 735.6 4729  L 745 4721  L 735.6 4713  L 739.2 4721  L 735.6 4729  Z " fill-rule="nonzero" fill="#0066ff" stroke="none" />
</svg>