<?xml version="1.0" encoding="utf-8"?>
<svg version="1.1" xmlns:xlink="http://www.w3.org/1999/xlink" width="64px" height="10px" preserveAspectRatio="xMinYMid meet" viewBox="2108 7084  64 8" xmlns="http://www.w3.org/2000/svg">
  <path d="M 2056 6924  L 2108 6924  A 5 5 0 0 1 2113 6929 L 2113 7083  A 5 5 0 0 0 2118 7088 L 2170 7088  " stroke-width="2" stroke="#0066ff" fill="none" />
  <path d="M 2057.5 6920.5  A 3.5 3.5 0 0 0 2054 6924 A 3.5 3.5 0 0 0 2057.5 6927.5 A 3.5 3.5 0 0 0 2061 6924 A 3.5 3.5 0 0 0 2057.5 6920.5 Z M 2162.6 7096  L 2172 7088  L 2162.6 7080  L 2166.2 7088  L 2162.6 7096  Z " fill-rule="nonzero" fill="#0066ff" stroke="none" />
</svg>