<?xml version="1.0" encoding="utf-8"?>
<svg version="1.1" xmlns:xlink="http://www.w3.org/1999/xlink" width="803px" height="10px" preserveAspectRatio="xMinYMid meet" viewBox="1175 6606  803 8" xmlns="http://www.w3.org/2000/svg">
  <path d="M 1973 6078  L 1973 6605  A 5 5 0 0 1 1968 6610 L 1185 6610  A 5 5 0 0 0 1180 6615 L 1180 7083  A 5 5 0 0 0 1185 7088 L 1220 7088  " stroke-width="2" stroke="#0066ff" fill="none" />
  <path d="M 1973 6076  A 3.5 3.5 0 0 0 1969.5 6079.5 A 3.5 3.5 0 0 0 1973 6083 A 3.5 3.5 0 0 0 1976.5 6079.5 A 3.5 3.5 0 0 0 1973 6076 Z M 1212.6 7096  L 1222 7088  L 1212.6 7080  L 1216.2 7088  L 1212.6 7096  Z " fill-rule="nonzero" fill="#0066ff" stroke="none" />
</svg>