<?xml version="1.0" encoding="utf-8"?>
<svg version="1.1" xmlns:xlink="http://www.w3.org/1999/xlink" width="34px" height="34px" preserveAspectRatio="xMinYMid meet" viewBox="1203 7072  34 32" xmlns="http://www.w3.org/2000/svg">
  <path d="M 1077 6110  L 1175 6110  A 5 5 0 0 1 1180 6115 L 1180 7083  A 5 5 0 0 0 1185 7088 L 1220 7088  " stroke-width="2" stroke="#0066ff" fill="none" />
  <path d="M 1078.5 6106.5  A 3.5 3.5 0 0 0 1075 6110 A 3.5 3.5 0 0 0 1078.5 6113.5 A 3.5 3.5 0 0 0 1082 6110 A 3.5 3.5 0 0 0 1078.5 6106.5 Z M 1212.6 7096  L 1222 7088  L 1212.6 7080  L 1216.2 7088  L 1212.6 7096  Z " fill-rule="nonzero" fill="#0066ff" stroke="none" />
</svg>