<?xml version="1.0" encoding="utf-8"?>
<svg version="1.1" xmlns:xlink="http://www.w3.org/1999/xlink" width="10px" height="145px" preserveAspectRatio="xMidYMin meet" viewBox="1646 6016  8 145" xmlns="http://www.w3.org/2000/svg">
  <path d="M 1438 6156  L 1645 6156  A 5 5 0 0 0 1650 6151 L 1650 6026  A 5 5 0 0 1 1655 6021 L 1697 6021  " stroke-width="2" stroke="#0066ff" fill="none" />
  <path d="M 1439.5 6152.5  A 3.5 3.5 0 0 0 1436 6156 A 3.5 3.5 0 0 0 1439.5 6159.5 A 3.5 3.5 0 0 0 1443 6156 A 3.5 3.5 0 0 0 1439.5 6152.5 Z M 1689.6 6029  L 1699 6021  L 1689.6 6013  L 1693.2 6021  L 1689.6 6029  Z " fill-rule="nonzero" fill="#0066ff" stroke="none" />
</svg>