<?xml version="1.0" encoding="utf-8"?>
<svg version="1.1" xmlns:xlink="http://www.w3.org/1999/xlink" width="25px" height="25px" xmlns="http://www.w3.org/2000/svg">
  <g transform="matrix(1 0 0 1 -190 -961 )">
    <path d="M 24.945847433035713 12.500085658482144  C 24.945847433035713 5.649330468749999  19.392298437500003 0.09563872767857125  12.541543275669644 0.09563872767857125  C 5.6907880859375 0.09563872767857125  0.13712488839285727 5.649330468749999  0.13712488839285727 12.500085658482144  C 0.13712488839285727 19.350840848214286  5.6907880859375 24.90436127232143  12.541543275669644 24.90436127232143  C 19.392298465401787 24.90436127232143  24.945847433035713 19.350840848214286  24.945847433035713 12.500085658482144  Z M 23.446378376116073 12.500057114955359  C 23.446378348214285 18.522745145089285  18.56425984933036 23.404863643973215  12.541543275669644 23.404863643973215  C 6.51885521763393 23.404863643973215  1.6366225167410726 18.522745145089285  1.6366225167410726 12.500057114955359  C 1.6366225167410726 6.47734051339286  6.51885521763393 1.595107812500001  12.541543275669644 1.595107812500001  C 18.564259877232143 1.595107812500001  23.446378376116073 6.477340513392858  23.446378376116073 12.500057114955359  Z M 9.583548772321429 9.542091183035716  C 9.583577343750001 9.814249497767857  9.804456138392856 10.0351283203125  10.076614481026787 10.0351283203125  L 11.062546010044642 10.0351283203125  C 11.334704352678573 10.0351283203125  11.55561171875 9.814249497767857  11.55561171875 9.542091183035714  L 11.55561171875 7.5701710100446435  C 11.55561171875 7.298126897321429  11.334704352678571 7.077276618303571  11.062546010044642 7.077276618303571  L 10.076614481026787 7.077276618303571  C 9.804456138392856 7.077276618303571  9.583548772321429 7.2981554408482125  9.583548772321429 7.5701710100446435  L 9.583548772321429 9.542091183035716  Z M 9.583548772321429 13.978940122767858  C 9.583577343750001 14.251098465401785  9.804456138392856 14.471977287946428  10.076614481026787 14.471977287946428  L 11.062546010044642 14.471977287946428  C 11.334704352678573 14.471977287946428  11.55561171875 14.251098465401785  11.55561171875 13.978940150669644  L 11.55561171875 12.007019949776785  C 11.55561171875 11.734861607142856  11.334704352678571 11.514125558035714  11.062546010044642 11.514125558035714  L 10.076614481026787 11.514125558035714  C 9.804456138392856 11.514125558035714  9.583548772321429 11.734861607142856  9.583548772321429 12.007019949776785  L 9.583548772321429 13.978940122767858  Z M 13.527503348214283 9.542091183035716  C 13.527503348214287 9.814249497767857  13.74838217075893 10.0351283203125  14.020397739955357 10.0351283203125  L 15.006357840401785 10.0351283203125  C 15.278516183035713 10.0351283203125  15.499394977678568 9.814249497767857  15.499394977678568 9.542091183035714  L 15.499394977678568 7.5701710100446435  C 15.499394977678568 7.298126897321429  15.278516155133929 7.077276618303571  15.006357840401785 7.077276618303571  L 14.020397739955357 7.077276618303571  C 13.748353627232143 7.077276618303571  13.527503348214283 7.2981554408482125  13.527503348214283 7.5701710100446435  L 13.527503348214283 9.542091183035716  Z M 13.527503348214287 13.978940122767858  C 13.527503348214287 14.251098465401785  13.74838217075893 14.471977287946428  14.020397739955357 14.471977287946428  L 15.006357840401785 14.471977287946428  C 15.278516183035713 14.471977287946428  15.499394977678568 14.251098465401785  15.499394977678568 13.978940150669644  L 15.499394977678573 12.007019949776785  C 15.499394977678573 11.734861607142856  15.27851615513393 11.514125558035714  15.006357840401789 11.514125558035714  L 14.02039773995536 11.514125558035714  C 13.748353627232145 11.514125558035714  13.527503348214287 11.734861607142856  13.527503348214287 12.007019949776785  L 13.527503348214287 13.978940122767858  Z M 5.639736969866071 9.542091183035716  C 5.639765513392857 9.814249497767857  5.860644335937501 10.0351283203125  6.132802678571428 10.0351283203125  L 7.118734207589285 10.0351283203125  C 7.390806891741071 10.0351283203125  7.611657142857142 9.814249497767857  7.611657142857142 9.542091183035714  L 7.611657142857142 7.5701710100446435  C 7.611657142857142 7.298126897321429  7.390778320312499 7.077276618303571  7.118734207589285 7.077276618303571  L 6.132802678571428 7.077276618303571  C 5.860644335937499 7.077276618303571  5.639736969866071 7.2981554408482125  5.639736969866071 7.5701710100446435  L 5.639736969866071 9.542091183035716  Z M 19.443206808035715 7.5701710100446435  C 19.443206780133927 7.298126869419643  19.222470731026785 7.077276618303571  18.950312416294643 7.077276618303571  L 17.964352315848213 7.077276618303571  C 17.692193973214287 7.077276618303571  17.47131517857143 7.2981554408482125  17.47131517857143 7.5701710100446435  L 17.47131517857143 9.542091183035716  C 17.47131517857143 9.814249525669645  17.692194001116075 10.035128320312502  17.964352315848213 10.035128320312502  L 18.950312416294643 10.035128320312502  C 19.222470758928573 10.035128320312502  19.443206808035715 9.81424949776786  19.443206808035715 9.542091183035716  L 19.443206808035715 7.5701710100446435  Z M 7.118762779017858 14.47197726004464  C 7.3908068917410725 14.471977287946428  7.611685714285714 14.251098465401785  7.611685714285714 13.978940122767858  L 7.611685714285714 12.007019949776785  C 7.611685714285714 11.734861607142856  7.3908068917410725 11.514125558035714  7.118762779017858 11.514125558035714  L 6.132831250000001 11.514125558035714  C 5.860672907366071 11.514125558035714  5.6397655412946435 11.734861607142856  5.6397655412946435 12.007019949776785  L 5.6397655412946435 13.978940122767858  C 5.6397655412946435 14.251098465401785  5.860672907366073 14.47197726004464  6.132831250000001 14.47197726004464  L 7.118762779017858 14.47197726004464  Z M 19.443206780133927 12.007019949776785  C 19.443206780133927 11.734861607142857  19.222470731026785 11.514125558035715  18.950312416294643 11.514125558035715  L 17.964352315848213 11.514125558035715  C 17.692193973214287 11.514125558035715  17.47131517857143 11.734861607142857  17.47131517857143 12.007019949776785  L 17.47131517857143 13.978940122767858  C 17.47131517857143 14.251098465401785  17.692194001116075 14.47197726004464  17.964352315848213 14.47197726004464  L 18.950312416294643 14.47197726004464  C 19.222470758928573 14.47197726004464  19.443206808035715 14.251098437500001  19.443206808035715 13.978940122767858  L 19.443206780133927 12.007019949776785  Z M 18.457275251116066 16.936934598214286  C 18.45727525111607 16.664747739955356  18.236396428571428 16.4438974609375  17.964352315848213 16  L 7.118734207589285 16  C 6.846575864955355 16.4438974609375  6.625697070312499 16.664776283482144  6.625697070312499 16.936934598214286  L 6.625697070312499 17.429828989955357  C 6.625697070312499 17.701987332589283  6.846575892857142 17.922894698660713  7.118734207589285 18  L 17.964352315848213 18  C 18.236396428571425 17.922894698660713  18.457275251116066 17.701987332589283  18.457275251116066 17.429828989955357  L 18.457275251116066 16.936934598214286  Z " fill-rule="nonzero" fill="#000000" stroke="none" transform="matrix(1 0 0 1 190 961 )" />
  </g>
</svg>