<?xml version="1.0" encoding="utf-8"?>
<svg version="1.1" xmlns:xlink="http://www.w3.org/1999/xlink" width="9px" height="11px" xmlns="http://www.w3.org/2000/svg">
  <g transform="matrix(1 0 0 1 -1433 -619 )">
    <path d="M 8.992941176470588 5.353261718749999  C 8.992941176470588 7.6876894531249995  7.7806323529411765 9.745677734374999  5.935742647058824 10.9646796875  L 4.326772058823529 9.397845703125  C 5.788919117647058 8.610572265625  6.779514705882352 7.095429687499999  6.779514705882352 5.353261718750001  C 6.779514705882352 3.771689453125  5.962279411764705 2.3772031250000003  4.717676470588234 1.544296875  L 6.297595588235293 0.005714843749999199  C 7.935022058823527 1.2455351562499986  8.992941176470588 3.1771308593749996  8.992941176470588 5.353261718749999  Z M 3.301036764705882 5.661369140625002  C 3.301036764705882 6.5120000000000005  2.5935882352941184 7.2012617187500005  1.7198602941176466 7.2012617187500005  C 0.8468382352941173 7.2012617187500005  0.1389044117647052 6.5120000000000005  0.1389044117647052 5.661369140625002  C 0.1389044117647052 4.810630859375001  0.8467279411764698 4.121476562500002  1.7198602941176466 4.121476562500002  C 2.5935882352941166 4.121476562500002  3.301036764705882 4.810630859375001  3.301036764705882 5.661369140625002  Z " fill-rule="nonzero" fill="#ffffff" stroke="none" transform="matrix(1 0 0 1 1433 619 )" />
  </g>
</svg>