<?xml version="1.0" encoding="utf-8"?>
<svg version="1.1" xmlns:xlink="http://www.w3.org/1999/xlink" width="4px" height="5px" xmlns="http://www.w3.org/2000/svg">
  <g transform="matrix(1 0 0 1 -768 -1020 )">
    <path d="M 0.13953488372093023 0.48022598516949133  L 3.8502945755813953 0.4802259851694919  C 3.9187950085986167 0.4802259851694919  3.974325581395349 0.3790473991415471  3.974325581395349 0.2542372881355932  C 3.974325581395349 0.12942717712963936  3.9187950085986167 0.028248591101694507  3.8502945755813953 0.028248591101694507  L 0.13953488372093006 0.028248591101694507  C 0.07103445070370888 0.028248591101694507  0.015503877906976354 0.12942717712963936  0.015503877906976354 0.2542372881355932  C 0.015503877906976354 0.3790473991415471  0.07103445070370888 0.4802259851694919  0.13953488372093006 0.4802259851694919  Z M 3.8502945755813953 2.2696045233050848  L 0.13953488372093006 2.2696045233050848  C 0.0710344507037092 2.2696045233050848  0.015503877906976684 2.3707831093330296  0.015503877906976684 2.4955932203389826  C 0.015503877906976684 2.6204033313449364  0.0710344507037092 2.7215819173728812  0.13953488372093006 2.7215819173728812  L 3.8502945755813953 2.7215819173728812  C 3.9187950085986167 2.72158191737288  3.974325581395349 2.6204033313449355  3.974325581395349 2.4955932203389826  C 3.974325581395349 2.3707831093330287  3.9187950085986167 2.269604523305084  3.8502945755813953 2.269604523305084  Z M 3.8502945755813953 4.529491525423729  L 0.13953488372093006 4.529491525423729  C 0.07103444909823095 4.5294915254237305  0.015503875000000278 4.630670113823046  0.015503875000000278 4.755480227754238  C 0.015503875000000278 4.880290341685428  0.07103444909823046 4.981468930084744  0.13953488372093006 4.981468930084744  L 3.8502945755813953 4.981468930084744  C 3.9187950102040943 4.981468930084744  3.9743255843023255 4.880290341685428  3.9743255843023255 4.755480227754238  C 3.9743255843023255 4.6306701138230455  3.9187950102040956 4.5294915254237305  3.8502945755813953 4.5294915254237305  Z " fill-rule="nonzero" fill="#000000" stroke="none" transform="matrix(1 0 0 1 768 1020 )" />
  </g>
</svg>