<?xml version="1.0" encoding="utf-8"?>
<svg version="1.1" xmlns:xlink="http://www.w3.org/1999/xlink" width="34px" height="34px" preserveAspectRatio="xMinYMid meet" viewBox="726 625  34 32" xmlns="http://www.w3.org/2000/svg">
  <path d="M 642 810  L 685 810  A 5 5 0 0 0 690 805 L 690 646  A 5 5 0 0 1 695 641 L 743 641  " stroke-width="2" stroke="#0066ff" fill="none" />
  <path d="M 643.5 806.5  A 3.5 3.5 0 0 0 640 810 A 3.5 3.5 0 0 0 643.5 813.5 A 3.5 3.5 0 0 0 647 810 A 3.5 3.5 0 0 0 643.5 806.5 Z M 735.6 649  L 745 641  L 735.6 633  L 739.2 641  L 735.6 649  Z " fill-rule="nonzero" fill="#0066ff" stroke="none" />
</svg>