<?xml version="1.0" encoding="utf-8"?>
<svg version="1.1" xmlns:xlink="http://www.w3.org/1999/xlink" width="20px" height="20px" xmlns="http://www.w3.org/2000/svg">
  <g transform="matrix(1 0 0 1 -1049 -973 )">
    <path d="M 1059 974  C 1064.04 974  1068 977.96  1068 983  C 1068 988.04  1064.04 992  1059 992  C 1053.96 992  1050 988.04  1050 983  C 1050 977.96  1053.96 974  1059 974  Z " fill-rule="nonzero" fill="#ffffff" stroke="none" fill-opacity="0" />
    <path d="M 1059 974  C 1064.04 974  1068 977.96  1068 983  C 1068 988.04  1064.04 992  1059 992  C 1053.96 992  1050 988.04  1050 983  C 1050 977.96  1053.96 974  1059 974  Z " stroke-width="2" stroke="#000000" fill="none" />
  </g>
</svg>