<?xml version="1.0" encoding="utf-8"?>
<svg version="1.1" xmlns:xlink="http://www.w3.org/1999/xlink" width="24px" height="24px" xmlns="http://www.w3.org/2000/svg">
  <g transform="matrix(1 0 0 1 -3 -3 )">
    <path d="M 15 3  C 21.72 3  27 8.28  27 15  C 27 21.72  21.72 27  15 27  C 8.28 27  3 21.72  3 15  C 3 8.28  8.28 3  15 3  Z " fill-rule="nonzero" fill="#ffffff" stroke="none" />
    <path d="M 15 3.5  C 21.44 3.5  26.5 8.559999999999999  26.5 15  C 26.5 21.44  21.44 26.5  15 26.5  C 8.559999999999999 26.5  3.5 21.44  3.5 15  C 3.5 8.559999999999999  8.559999999999999 3.5  15 3.5  Z " stroke-width="1" stroke="#ffffff" fill="none" />
  </g>
</svg>