<?xml version="1.0" encoding="utf-8"?>
<svg version="1.1" xmlns:xlink="http://www.w3.org/1999/xlink" width="18px" height="18px" xmlns="http://www.w3.org/2000/svg">
  <g transform="matrix(1 0 0 1 -582 -521 )">
    <path d="M 11.955322265625 5.312988281249999  L 8.958251953125 8.206787109375  L 6.064453125 5.209716796875  C 5.8359375 4.974609375  5.46240234375 4.97021484375  5.227294921874999 5.19873046875  C 5.113037109374999 5.306396484375  5.047119140624999 5.455810546875  5.044921874999999 5.614013671875  C 5.040527343749999 5.772216796874999  5.102050781249999 5.923828125  5.209716796874999 6.035888671874999  L 8.103515624999998 9.032958984375  L 5.106445312499999 11.9267578125  C 4.871337890624999 12.1552734375  4.866943359375 12.52880859375  5.095458984374999 12.763916015625002  C 5.203124999999999 12.878173828125002  5.352539062499999 12.944091796875002  5.510742187499999 12.9462890625  C 5.668945312499999 12.950683593750002  5.820556640624999 12.88916015625  5.932617187499999 12.781494140625  L 8.929687499999998 9.887695312500002  L 11.823486328125 12.884765625000002  C 12.052001953125 13.119873046875002  12.425537109375 13.124267578125  12.66064453125 12.895751953125002  C 12.774902343750002 12.788085937500002  12.840820312500002 12.638671875  12.843017578125 12.480468750000002  C 12.847412109375 12.322265625  12.785888671875 12.170654296875002  12.67822265625 12.05859375  L 9.784423828125 9.061523437499998  L 12.781494140625 6.167724609374999  C 13.016601562500002 5.939208984375  13.02099609375 5.565673828125  12.79248046875 5.330566406249999  C 12.684814453125 5.216308593749999  12.535400390625 5.150390624999999  12.377197265625 5.148193359374999  C 12.218994140625 5.143798828124999  12.0673828125 5.205322265624999  11.955322265625 5.312988281249999  Z M 15.205078125 15.3984375  C 11.660888671874998 18.819580078125004  6.01611328125 18.722900390625  2.5927734375 15.1787109375  C -0.8283691406249997 11.634521484375002  -0.7294921874999997 5.989746093750001  2.8125 2.5664062500000013  C 6.356689453125001 -0.8547363281249987  12.00146484375 -0.7558593749999987  15.4248046875 2.7861328125000013  C 18.845947265624996 6.330322265625001  18.749267578125 11.975097656250002  15.205078125 15.3984375  Z " fill-rule="nonzero" fill="#aaaaaa" stroke="none" transform="matrix(1 0 0 1 582 521 )" />
  </g>
</svg>