<?xml version="1.0" encoding="utf-8"?>
<svg version="1.1" xmlns:xlink="http://www.w3.org/1999/xlink" width="32px" height="32px" xmlns="http://www.w3.org/2000/svg">
  <g transform="matrix(1 0 0 1 -1210 -638 )">
    <path d="M 24.43953125 28.177625  C 24.779937500000003 28.752218749999997  24.589437500000003 29.5204375  23.992968750000003 29.84521875  C 23.409000000000002 30.185625  22.665781250000002 29.98575  22.334718750000004 29.398656250000002  C 21.978718750000002 28.82403125  22.184843750000002 28.071437500000002  22.762562500000005 27.73103125  C 23.368406250000007 27.39378125  24.099125000000004 27.599875  24.439531250000005 28.17759375  Z M 17.241343750000002 29.92328125  L 17.241343750000002 30.778968749999997  C 17.241343750000002 31.444124999999996  16.691718750000003 31.999999999999996  16.001562500000002 31.999999999999996  C 15.336406250000001 31.999999999999996  14.780531250000003 31.456624999999995  14.780531250000003 30.778968749999997  L 14.780531250000003 29.92328125  C 14.780531250000003 29.2425  15.339500000000003 28.699125  16.001562500000002 28.699125  C 16.68234375 28.699125  17.241343750000002 29.2425  17.241343750000002 29.92328125  Z M 9.705875000000002 29.39865625  C 9.359218750000002 30.001375  8.606625000000003 30.191875  8.028875000000003 29.85146875  C 7.435531250000003 29.5173125  7.226312500000003 28.770968749999998  7.576062500000003 28.1745  L 8.484812500000002 26.5849375  C 8.834593750000002 26.00096875  9.584062500000002 25.798  10.177406250000002 26.132125  C 10.752031250000002 26.47253125  10.964375000000002 27.231375  10.614593750000003 27.809124999999998  L 9.705843750000003 29.39865625  Z M 6.28321875 23.04675  L 3.85675 24.46140625  C 3.26340625 24.7924375  2.5045624999999996 24.5925625  2.17975 24.00859375  C 1.833125 23.43396875  2.0298749999999997 22.67203125  2.6169374999999997 22.33159375  L 5.05903125 20.9169375  C 5.64303125 20.592187499999998  6.401875 20.7764375  6.73603125 21.36975  C 7.06703125 21.944375  6.8640625 22.70634375  6.28321875 23.04675  Z M 5.0621875 17.244468750000003  L 1.2585 17.24446875  C 0.57771875 17.24446875  0.03746874999999994 16.69484375  0.03746874999999994 16.02340625  C 0.03746874999999994 15.342625  0.57771875 14.793000000000001  1.2585 14.793000000000001  L 5.0621875 14.793000000000001  C 5.74296875 14.793000000000001  6.283250000000001 15.342625000000002  6.283250000000001 16.0140625  C 6.283250000000001 16.69484375  5.742968750000001 17.244468750000003  5.0621875 17.244468750000003  Z M 6.773500000000001 12.088593750000001  L 2.6200625 9.6965  C 2.02675 9.36546875  1.833125 8.616  2.182875 8.028875000000001  C 2.50765625 7.435531250000001  3.26340625 7.235687500000001  3.859875 7.576062500000001  L 7.994562500000001 9.977562500000001  C 8.5785 10.311687500000001  8.772125 11.058062500000002  8.447375000000001 11.63578125  C 8.10071875 12.229125000000002  7.348093750000001 12.419625  6.773500000000001 12.088593750000001  Z M 8.02575 2.182906250000001  C 7.4324062500000005 2.523281250000001  7.241937500000001 3.275875000000001  7.576062500000001 3.8505000000000003  L 10.45534375 8.8501875  C 10.805125 9.4341875  11.55459375 9.64340625  12.1385625 9.296750000000001  C 12.7225625 8.965750000000002  12.91615625 8.206875000000002  12.575750000000001 7.619781250000001  L 9.684000000000001 2.629468750000001  C 9.35296875 2.051718750000001  8.6035 1.842500000000001  8.02575 2.182906250000001  Z M 14.78365625 7.0264375  L 14.78365625 1.267875  C 14.78365625 0.6027187500000001  15.342625 0.03746875000000016  16.0046875 0.03746875000000016  C 16.68546875 0.03746875000000016  17.24446875 0.5902187500000001  17.24446875 1.267875  L 17.24446875 7.0264375  C 17.24446875 7.70721875  16.69484375 8.25684375  16.0046875 8.26621875  C 15.3395 8.26621875  14.78365625 7.72596875  14.78365625 7.0264375  Z M 22.319125 2.6294375  C 22.668875 2.03609375  23.409 1.8424999999999998  23.99609375 2.176625  C 24.5894375 2.50765625  24.7986875 3.25715625  24.44890625 3.853625  L 21.563375 8.853312500000001  C 21.23859375 9.4373125  20.470375 9.643406250000002  19.88640625 9.306125000000002  C 19.3024375 8.965750000000002  19.1088125 8.206875000000002  19.43984375 7.619781250000002  L 22.319125 2.629468750000002  Z M 29.848343749999998 8.032000000000002  C 29.511062499999998 7.438656250000002  28.75846875 7.2263125000000015  28.18384375 7.5760625  L 23.17790625 10.46159375  C 22.5939375 10.792625000000001  22.3909375 11.542125  22.72509375 12.1385625  C 23.07171875 12.7131875  23.82434375 12.906812500000001  24.4020625 12.585125000000001  L 29.411125 9.699625000000001  C 29.98575 9.36859375  30.198093749999998 8.619093750000001  29.848343749999998 8.032000000000002  Z M 24.99228125 14.792999999999997  L 30.757093750000003 14.793  C 31.444125000000003 14.793  31.987500000000004 15.342625  31.978125000000002 16.02340625  C 31.978125000000002 16.69484375  31.447250000000004 17.24446875  30.757093750000003 17.24446875  L 24.99228125 17.24446875  C 24.327125000000002 17.24446875  23.768125 16.69484375  23.768125 16.014062499999998  C 23.768125 15.342624999999998  24.327125000000002 14.792999999999997  24.99228125 14.792999999999997  Z " fill-rule="nonzero" fill="#ffffff" stroke="none" transform="matrix(1 0 0 1 1210 638 )" />
  </g>
</svg>