<?xml version="1.0" encoding="utf-8"?>
<svg version="1.1" xmlns:xlink="http://www.w3.org/1999/xlink" width="4px" height="6px" xmlns="http://www.w3.org/2000/svg">
  <g transform="matrix(1 0 0 1 -379 -420 )">
    <path d="M 3.9968627450980385 2.9199609374999995  C 3.9968627450980385 4.19328515625  3.4580588235294116 5.3158242187499996  2.638107843137255 5.980734375  L 1.9230098039215686 5.12609765625  C 2.5728529411764702 4.696675781250001  3.0131176470588232 3.870234375  3.0131176470588232 2.9199609375  C 3.0131176470588232 2.05728515625  2.6499019607843133 1.2966562500000003  2.0967450980392153 0.84234375  L 2.798931372549019 0.003117187499999563  C 3.5266764705882343 0.6793828124999992  3.9968627450980385 1.7329804687499997  3.9968627450980385 2.9199609374999995  Z M 1.467127450980392 3.088019531250001  C 1.467127450980392 3.5520000000000005  1.1527058823529415 3.9279609375000004  0.7643823529411763 3.9279609375000004  C 0.3763725490196077 3.9279609375000004  0.06173529411764675 3.5520000000000005  0.06173529411764675 3.088019531250001  C 0.06173529411764675 2.623980468750001  0.37632352941176433 2.248078125000001  0.7643823529411763 2.248078125000001  C 1.1527058823529408 2.248078125000001  1.467127450980392 2.623980468750001  1.467127450980392 3.088019531250001  Z " fill-rule="nonzero" fill="#000000" stroke="none" transform="matrix(1 0 0 1 379 420 )" />
  </g>
</svg>