<?xml version="1.0" encoding="utf-8"?>
<svg version="1.1" xmlns:xlink="http://www.w3.org/1999/xlink" width="14px" height="14px" xmlns="http://www.w3.org/2000/svg">
  <g transform="matrix(1 0 0 1 -372 -420 )">
    <path d="M 2.4707746341463417 0.036331707317072935  C 1.6077736585365854 -0.12800780487804878  0.05791219512195123 1.0214946341463413  0.027098536585365852 1.9939824390243905  C 0.027098536585365852 1.9939824390243905  -0.5872078048780487 5.121678048780488  4.037244878048781 9.746130731707318  C 4.070899512195122 9.779566829268294  4.103242926829268 9.809943414634148  4.136460487804878 9.842942439024391  C 4.169678048780488 9.87616  4.200054634146342 9.908721951219512  4.233490731707317 9.942376585365853  C 8.857943414634146 14.566829268292683  11.985639024390244 13.952522926829268  11.985639024390244 13.952522926829268  C 12.17707707317073 13.926954146341465  12.579402926829268 13.81222243902439  12.715551219512195 13.675637073170732  C 12.715551219512195 13.675637073170732  13.427106341463416 13.090833170731706  13.863086829268292 12.370318048780486  C 14.299285853658535 11.650021463414634  13.474965853658535 10.563239024390244  13.000741463414634 10.089233170731706  C 12.043988292682927 9.13248  11.164159999999999 8.94584975609756  10.776694634146342 9.211808780487804  C 10.602520975609757 9.331348292682925  9.910415609756098 10.077213658536586  9.910415609756098 10.077213658536586  C 9.774048780487806 10.213799024390243  9.504156097560976 10.32721951219512  9.311188292682928 10.329623414634145  C 9.311188292682928 10.329623414634145  8.101806829268295 10.341861463414633  5.852191219512196 8.127211707317073  C 3.637541463414634 5.8778146341463415  3.6495609756097562 4.668433170731707  3.6495609756097562 4.668433170731707  C 3.652183414634146 4.475683902439024  3.7653853658536587 4.20557268292683  3.9019707317073173 4.069205853658536  C 3.9019707317073173 4.069205853658536  4.759945365853659 3.2118868292682925  4.7673756097560975 3.2029268292682924  C 5.092776585365854 2.795574634146341  4.5538653658536585 1.7828760975609752  3.8899512195121955 0.9788799999999998  C 3.463149268292683 0.46204097560975577  3.1174243902439027 0.15958634146341433  2.4707746341463417 0.036331707317072935  Z " fill-rule="nonzero" fill="#000000" stroke="none" transform="matrix(1 0 0 1 372 420 )" />
  </g>
</svg>