<?xml version="1.0" encoding="utf-8"?>
<svg version="1.1" xmlns:xlink="http://www.w3.org/1999/xlink" width="34px" height="34px" preserveAspectRatio="xMinYMid meet" viewBox="2047 569  34 32" xmlns="http://www.w3.org/2000/svg">
  <path d="M 1968 263  L 2005 263  A 5 5 0 0 1 2010 268 L 2010 580  A 5 5 0 0 0 2015 585 L 2064 585  " stroke-width="2" stroke="#0066ff" fill="none" />
  <path d="M 1969.5 259.5  A 3.5 3.5 0 0 0 1966 263 A 3.5 3.5 0 0 0 1969.5 266.5 A 3.5 3.5 0 0 0 1973 263 A 3.5 3.5 0 0 0 1969.5 259.5 Z M 2056.6 593  L 2066 585  L 2056.6 577  L 2060.2 585  L 2056.6 593  Z " fill-rule="nonzero" fill="#0066ff" stroke="none" />
</svg>