<?xml version="1.0" encoding="utf-8"?>
<svg version="1.1" xmlns:xlink="http://www.w3.org/1999/xlink" width="21px" height="20px" preserveAspectRatio="xMinYMid meet" viewBox="1959 1633  21 18" xmlns="http://www.w3.org/2000/svg">
  <path d="M 1968 1642  L 2485 1642  A 5 5 0 0 0 2490 1637 L 2490 846  A 3 3 0 0 0 2493 843 A 3 3 0 0 0 2490 840 L 2490 575  A 5 5 0 0 1 2495 570 L 2539 570  " stroke-width="2" stroke="#0066ff" fill="none" />
  <path d="M 1969.5 1638.5  A 3.5 3.5 0 0 0 1966 1642 A 3.5 3.5 0 0 0 1969.5 1645.5 A 3.5 3.5 0 0 0 1973 1642 A 3.5 3.5 0 0 0 1969.5 1638.5 Z M 2531.6 578  L 2541 570  L 2531.6 562  L 2535.2 570  L 2531.6 578  Z " fill-rule="nonzero" fill="#0066ff" stroke="none" />
</svg>