<?xml version="1.0" encoding="utf-8"?>
<svg version="1.1" xmlns:xlink="http://www.w3.org/1999/xlink" width="21px" height="20px" preserveAspectRatio="xMinYMid meet" viewBox="1394 450  21 18" xmlns="http://www.w3.org/2000/svg">
  <path d="M 1403 459  L 1485 459  A 5 5 0 0 1 1490 464 L 1490 1459  A 5 5 0 0 0 1495 1464 L 1589 1464  " stroke-width="2" stroke="#0066ff" fill="none" />
  <path d="M 1404.5 455.5  A 3.5 3.5 0 0 0 1401 459 A 3.5 3.5 0 0 0 1404.5 462.5 A 3.5 3.5 0 0 0 1408 459 A 3.5 3.5 0 0 0 1404.5 455.5 Z M 1581.6 1472  L 1591 1464  L 1581.6 1456  L 1585.2 1464  L 1581.6 1472  Z " fill-rule="nonzero" fill="#0066ff" stroke="none" />
</svg>