<?xml version="1.0" encoding="utf-8"?>
<svg version="1.1" xmlns:xlink="http://www.w3.org/1999/xlink" width="10px" height="283px" preserveAspectRatio="xMidYMin meet" viewBox="2487 565  8 283" xmlns="http://www.w3.org/2000/svg">
  <path d="M 2443 843  L 2486 843  A 5 5 0 0 0 2491 838 L 2491 575  A 5 5 0 0 1 2496 570 L 2539 570  " stroke-width="2" stroke="#0066ff" fill="none" />
  <path d="M 2444.5 839.5  A 3.5 3.5 0 0 0 2441 843 A 3.5 3.5 0 0 0 2444.5 846.5 A 3.5 3.5 0 0 0 2448 843 A 3.5 3.5 0 0 0 2444.5 839.5 Z M 2531.6 578  L 2541 570  L 2531.6 562  L 2535.2 570  L 2531.6 578  Z " fill-rule="nonzero" fill="#0066ff" stroke="none" />
</svg>