<?xml version="1.0" encoding="utf-8"?>
<svg version="1.1" xmlns:xlink="http://www.w3.org/1999/xlink" width="79px" height="10px" preserveAspectRatio="xMinYMid meet" viewBox="968 431  79 8" xmlns="http://www.w3.org/2000/svg">
  <path d="M 970 435  L 1037 435  A 5 5 0 0 1 1042 440 L 1042 565  A 5 5 0 0 0 1047 570 L 1114 570  " stroke-width="2" stroke="#0066ff" fill="none" />
  <path d="M 971.5 431.5  A 3.5 3.5 0 0 0 968 435 A 3.5 3.5 0 0 0 971.5 438.5 A 3.5 3.5 0 0 0 975 435 A 3.5 3.5 0 0 0 971.5 431.5 Z M 1106.6 578  L 1116 570  L 1106.6 562  L 1110.2 570  L 1106.6 578  Z " fill-rule="nonzero" fill="#0066ff" stroke="none" />
</svg>