<?xml version="1.0" encoding="utf-8"?>
<svg version="1.1" xmlns:xlink="http://www.w3.org/1999/xlink" width="34px" height="34px" preserveAspectRatio="xMinYMid meet" viewBox="2997 592  34 32" xmlns="http://www.w3.org/2000/svg">
  <path d="M 2918 366  L 2961 366  A 5 5 0 0 1 2966 371 L 2966 603  A 5 5 0 0 0 2971 608 L 3014 608  " stroke-width="2" stroke="#0066ff" fill="none" />
  <path d="M 2919.5 362.5  A 3.5 3.5 0 0 0 2916 366 A 3.5 3.5 0 0 0 2919.5 369.5 A 3.5 3.5 0 0 0 2923 366 A 3.5 3.5 0 0 0 2919.5 362.5 Z M 3006.6 616  L 3016 608  L 3006.6 600  L 3010.2 608  L 3006.6 616  Z " fill-rule="nonzero" fill="#0066ff" stroke="none" />
</svg>