<?xml version="1.0" encoding="utf-8"?>
<svg version="1.1" xmlns:xlink="http://www.w3.org/1999/xlink" width="18px" height="15px" xmlns="http://www.w3.org/2000/svg">
  <g transform="matrix(1 0 0 1 -5300 -256 )">
    <path d="M 17.903225812499997 7.5  C 17.903225812499997 7.346153834134616  17.825806451612905 7.115384621394231  17.67096774798387 6.961538455528846  L 10.548387090725807 0.2692307632211539  C 10.23870966532258 -0.03846155048076907  9.774193536290325 -0.03846155048076907  9.464516129032258 0.2692307632211539  C 9.154838703629032 0.576923076923077  9.154838703629032 1.0384615384615383  9.464516129032258 1.346153852163462  L 15.193548381048387 7  L 0.8709677419354839 7  C 0.4064516129032258 6.730769224759616  0.09677418750000007 7.038461538461539  0.09677418750000007 7.5  C 0.09677418750000007 7.96153846153846  0.4064516129032259 8.269230775240384  0.8709677419354839 8  L 15.193548381048387 8  L 9.464516129032258 13.65384614783654  C 9.154838703629032 13.961538461538463  9.154838703629032 14.423076923076923  9.464516129032258 14.730769236778848  C 9.61935483266129 14.884615384615385  9.85161289717742 14.961538467548078  10.006451618951614 14.961538467548078  C 10.161290322580646 14.961538467548078  10.393548387096775 14.884615384615385  10.548387090725807 14.730769236778848  L 17.67096774798387 8.038461544471154  C 17.825806451612905 7.884615396634615  17.903225812499997 7.653846165865384  17.903225812499997 7.5  Z " fill-rule="nonzero" fill="#333333" stroke="none" transform="matrix(1 0 0 1 5300 256 )" />
  </g>
</svg>