<?xml version="1.0" encoding="utf-8"?>
<svg version="1.1" xmlns:xlink="http://www.w3.org/1999/xlink" width="61px" height="61px" xmlns="http://www.w3.org/2000/svg">
  <g transform="matrix(1 0 0 1 -561 -2205 )">
    <path d="M 30.626660156250004 0.117421875  C 29.084003906250004 0.12650390625  27.848789062500003 1.37578125  27.833144531250003 2.97263671875  C 27.818085937500005 4.524492187499999  27.829921875000004 6.07658203125  27.830214843750003 7.628554687499999  C 27.830449218750005 9.2255859375  27.808769531250004 10.82296875  27.836660156250005 12.419414062499998  C 27.864433593750004 14.0054296875  29.126894531250002 15.181640624999998  30.728144531250003 15.167812499999998  C 32.26435546875 15.154570312499999  33.516035156250005 13.9367578125  33.52423828125 12.387656249999997  C 33.54123046875 9.23865234375  33.54251953125 6.089589843749998  33.522890625 2.940761718749998  C 33.51275390625 1.318886718749998  32.2414453125 0.10798828124999812  30.626601562500003 0.11742187499999779  Z M 23.888437500000002 13.509082031250003  C 22.338339843750003 10.748320312500002  20.749453125000002 8.009238281250003  19.14802734375 5.27794921875  C 18.660234375 4.44591796875  17.87970703125 4.0321875  16.903652343750004 4.0273242187500005  C 14.844492187500002 4.02796875  13.588417968750003 6.19318359375  14.619257812500003 8.022187500000001  C 16.140761718750003 10.7218359375  17.689101562500003 13.406484375  19.247402343750004 16.085214843750002  C 20.006660156250003 17.39044921875  21.593906250000003 17.803535156250003  22.869550781250002 17.074511718750003  C 24.118359375 16.36072265625  24.608496093750002 14.791582031250002  23.888437500000002 13.509082031250003  Z M 4.694472656249998 15.564960937499997  C 3.979394531249998 16.810664062499995  4.403144531249998 18.2382421875  5.7471679687499995 19.020234375  C 8.344277343749999 20.53142578125  10.94970703125 22.02814453125  13.551855468749999 23.530781250000004  C 13.945429687499999 23.757949218750003  14.353710937499999 23.93537109375  14.822753906249998 23.906191406250002  C 16.002714843749995 23.915273437499998  16.93060546875 23.2067578125  17.24408203125 22.057734375  C 17.536347656249998 20.98681640625  17.086640624999998 19.9044140625  16.057851562499998 19.30388671875  C 13.443457031249999 17.777695312499997  10.822207031249997 16.26345703125  8.200195312499998 14.750507812499997  C 6.880078124999997 13.988789062499997  5.398300781249998 14.338769531249998  4.694472656249998 15.564960937499997  Z M 3.2422851562500012 32.8453125  C 4.7444531250000015 32.85263671875  6.246562500000002 32.847070312499994  7.7487890625 32.84642578125  C 9.295781250000001 32.845722656250004  10.842890625 32.8584375  12.389707031250001 32.84197265624999  C 13.76091796875 32.82732421874999  14.683828125000002 31.880214843749997  14.662675781250002 30.548906249999995  C 14.642578125000002 29.282988281249995  13.671972656250002 28.359257812499997  12.344003906250002 28.357910156249993  C 9.317167968750002 28.354804687499996  6.290507812500001 28.354511718749997  3.2637304687500013 28.360488281249992  C 1.8475781250000012 28.363300781249993  0.8777929687500013 29.296406249999993  0.8864062500000013 30.627304687499993  C 0.8949023437500012 31.925390624999995  1.8578906250000011 32.83869140624999  3.2422851562500012 32.8453125  Z M 16.6376953125 38.718164062499994  C 16.088261718749997 37.76396484375  14.883515625 37.39546875  13.891992187499998 37.9601953125  C 11.16509765625 39.513222656249994  8.455195312499997 41.096835937499996  5.746464843749999 42.6816796875  C 5.095957031249998 43.062304687499996  4.790683593749999 43.66921875  4.7814257812499985 44.16767578125  C 4.7843554687499985 45.95806640625  6.376347656249999 46.97777343749999  7.734082031249999 46.22314453125  C 10.496425781249998 44.68822265625  13.22490234375 43.090722656249994  15.9451171875 41.48126953125  C 16.95134765625 40.886015625  17.204296875 39.7023046875  16.6376953125 38.71810546875  Z M 23.396250000000002 46.6597265625  C 23.3973046875 45.615703124999996  22.853437500000002 44.910410156249995  22.0224609375 44.674335937500004  C 21.185976562500002 44.436679687499996  20.402578125 44.75947265625  19.9201171875 45.59255859375  C 18.40250865990584 48.21398118492998  16.89324321057573 50.840224942381056  15.392343750000002 53.47125  C 14.805585937500002 54.49951171875  15.048398437500001 55.56205078125  15.96421875 56.10943359375  C 16.90359375 56.67076171875  17.970996093750003 56.347324218749996  18.58453125 55.289179687499995  C 20.08177734375 52.7075390625  21.567011718750003 50.118808593749996  23.05939453125 47.534296874999995  C 23.253222656250003 47.19855468749999  23.39296875 46.8496875  23.396250000000002 46.6597265625  Z M 30.662109374999996 47.27015625  C 29.7009375 47.2754296875  29.06015625 47.968125  29.053710937499996 49.037519531250005  C 29.0446875 50.52275390625  29.0513671875 52.00810546875  29.0513671875 53.493515625  L 29.047265624999998 53.493515625  C 29.047265624999998 55.02375  29.039414062499997 56.554218750000004  29.049960937499996 58.084453124999996  C 29.0572265625 59.155078125  29.697714843749996 59.84654296875  30.658125 59.8545703125  C 31.650937499999998 59.86265625  32.302265625 59.16169921875  32.30484375 58.05322265625  C 32.31169921875 55.06025390625  32.31275390625 52.067050781249996  32.3089453125 49.07390625  C 32.30765625 47.97310546875  31.651113281250005 47.264765625  30.66216796875 47.27015625  Z M 45.70001953125001 53.8494140625  C 44.1741796875 51.13142578125  42.61429687500001 48.432421875  41.043984375 45.739921875  C 40.60576171875 44.98857421875  39.760546875 44.801015625000005  39.064335937500005 45.219785156250005  C 38.39296875000001 45.623730468750004  38.15273437500001 46.428281250000005  38.56546875000001 47.15472656250001  C 40.10519531250001 49.86509765625  41.66601562500001 52.56328125000001  43.23011718750001 55.25953125000001  C 43.494550781250005 55.71521484375001  43.91320312500001 55.96060546875001  44.4561328125 55.95222656250001  C 45.543515625000005 55.944082031250005  46.244648437500004 54.81966796875001  45.70001953125001 53.8494140625  Z M 55.10296875 43.32656250000001  C 52.449405139112166 41.78806693740219  49.79432572387556 40.25218728479102  47.137734374999994 38.71892578125001  C 46.86199218749999 38.55978515625001  46.566796874999994 38.464628906250006  46.237734374999995 38.54548828125  C 45.70318359374999 38.676679687500005  45.36216796874999 39.01623046875  45.270234374999994 39.54732421875  C 45.15984374999999 40.18447265625  45.49546874999999 40.614140625000005  46.02550781249999 40.91982421875  C 47.77101562499999 41.92658203125  49.51529296874999 42.93515625  51.26027343749999 43.94267578125  C 52.15230468749999 44.45771484375  53.03191406249999 44.99595703125  53.94052734375 45.47970703125  C 54.80021484375 45.937382812500005  55.75927734374999 45.36052734375  55.76021484375 44.42296875  C 55.756113281249995 43.928554687500004  55.520273437499995 43.56843750000001  55.10296875 43.326503906250004  Z M 57.966269531250006 29.578535156250002  C 56.50904296875 29.57314453125  55.051875 29.577070312500002  53.59458984375 29.577070312500002  L 53.59458984375 29.57396484375  C 52.114980468750005 29.57396484375  50.63525390625001 29.569746093750002  49.155703125 29.57572265625  C 48.367617187499995 29.57865234375  47.927343750000006 29.946796875000004  47.915625 30.588632812500002  C 47.903789062499996 31.240957031250005  48.3298828125 31.61525390625  49.126171875 31.617011718750007  C 52.08544921875 31.62363281250001  55.044726562499996 31.624863281250008  58.004062499999996 31.621347656250002  C 58.786874999999995 31.620527343750002  59.244609374999996 31.24201171875  59.25703125 30.6174609375  C 59.2695703125 29.981894531250003  58.78166015624999 29.581640625000002  57.96626953125 29.57859375  Z M 45.786796875 21.874980468750003  C 46.07009765625 22.335234375000002  46.494960937500004 22.39236328125  46.953515625 22.127636718749997  C 49.59506303967701 20.602679227764597  52.23500590619317 19.074944007708407  54.87333984375 17.544433593749996  C 55.15828125 17.3790234375  55.35615234375 17.142773437499997  55.349238281249995 16.7859375  C 55.34197265624999 16.139472656249996  54.69392578125 15.765234374999997  54.09064453124999 16.11052734375  C 51.42375 17.63671875  48.766992187499994 19.1801953125  46.11328125 20.7290625  C 45.664453125 20.990976562500002  45.4969921875 21.4040625  45.786796875 21.874980468750003  Z M 39.25875000000001 14.513789062499999  C 39.075585937500016 14.93548828125  39.35660156250001 15.372070312500002  39.78791015625 15.383320312499999  C 40.0916015625 15.368847656249997  40.2676171875 15.183457031249999  40.408652343750006 14.9349609375  C 40.696640625 14.4275390625  40.996054687500006 13.92673828125  41.287207031250006 13.42107421875  C 42.485449218750006 11.339882812499999  43.68492187500001 9.2595703125  44.87794921875001 7.17544921875  C 45.175839843750005 6.655136718750001  45.055195312500004 6.1991015625  44.59869140625001 6.0896484375  C 44.14904296875001 5.9818359375000005  43.95960937500001 6.305859375000001  43.77527343750001 6.6263671875000005  C 42.43207031250001 8.960625  41.08757812500001 11.29435546875  39.74478515625001 13.6290234375  C 39.57697265625001 13.9208203125  39.392050781250006 14.2062890625  39.25875000000001 14.513789062499999  Z " fill-rule="nonzero" fill="#000000" stroke="none" transform="matrix(1 0 0 1 561 2205 )" />
  </g>
</svg>