<?xml version="1.0" encoding="utf-8"?>
<svg version="1.1" xmlns:xlink="http://www.w3.org/1999/xlink" width="20px" height="20px" xmlns="http://www.w3.org/2000/svg">
  <g transform="matrix(1 0 0 1 -5447 -881 )">
    <path d="M 20 10  C 19.99365673327432 4.479782103706288  15.520217896293712 0.006343266725678014  10 0  C 4.477152501692066 0  0 4.477152501692066  0 10  C 0 15.522847498307934  4.477152501692066 20  10 20  C 15.522847498307934 20  20 15.522847498307934  20 10  Z M 14.604316555989584 10.000000000000002  C 14.604316555989584 10.181155285404106  14.519024952209055 10.351738490553151  14.374100722656248 10.460431660156251  L 8.6187050390625 14.776978417968753  C 8.519081340643872 14.8516961900219  8.397910911029289 14.892086330942323  8.273381289062499 14.892086328125  C 7.955519561454738 14.892086328125  7.6978417187499995 14.634408485420261  7.6978417187499995 14.3165467578125  L 7.6978417187499995 5.6834532421875  C 7.6978417187499995 5.365591504814113  7.955519561454738 5.107913662109374  8.273381289062499 5.107913662109374  C 8.397910912142933 5.107913662109374  8.519081341865947 5.148303806492597  8.6187050390625 5.223021582031251  L 14.374100722656252 9.53956833984375  C 14.519024952209056 9.648261509446852  14.604316555989584 9.818844714595897  14.604316555989584 10.000000000000002  Z " fill-rule="nonzero" fill="#000000" stroke="none" transform="matrix(1 0 0 1 5447 881 )" />
  </g>
</svg>