<?xml version="1.0" encoding="utf-8"?>
<svg version="1.1" xmlns:xlink="http://www.w3.org/1999/xlink" width="60px" height="60px" xmlns="http://www.w3.org/2000/svg">
  <g transform="matrix(1 0 0 1 -4153 -2240 )">
    <path d="M 60 30  C 59.98097019982296 13.439346311118866  46.56065368888113 0.019029800177034043  30 0  C 13.431457505076196 0  0 13.431457505076196  0 30  C 0 46.568542494923804  13.431457505076196 60  30 60  C 46.568542494923804 60  60 46.568542494923804  60 30  Z M 43.81294966796875 30.000000000000007  C 43.81294966796875 30.54346585621232  43.55707485662716 31.05521547165945  43.12230216796875 31.381294980468752  L 25.856115117187496 44.33093525390626  C 25.557244021931613 44.5550885700657  25.193732733087867 44.676258992826966  24.820143867187497 44.676258984375  C 23.866558684364215 44.676258984375  23.09352515625 43.903225456260785  23 42.9496402734375  L 23 17.0503597265625  C 23.09352515625 17.0503597265625  23.09352515625 17.050359697265623  23.09352515625 17.050359697265623  C 23.09352515625 16.09677451444234  23.866558684364215 15.323740986328124  24.820143867187497 15.323740986328124  C 25.193732736428803 15.323740986328124  25.557244025597843 15.44491141947779  25.8561151171875 15.669064746093753  L 43.122302167968755 28.61870501953125  C 43.55707485662717 28.94478452834056  43.81294966796875 29.456534143787692  43.81294966796875 30.000000000000007  Z " fill-rule="nonzero" fill="#000000" stroke="none" transform="matrix(1 0 0 1 4153 2240 )" />
  </g>
</svg>