<?xml version="1.0" encoding="utf-8"?>
<svg version="1.1" xmlns:xlink="http://www.w3.org/1999/xlink" width="12px" height="16px" xmlns="http://www.w3.org/2000/svg">
  <g transform="matrix(1 0 0 1 -1164 -1375 )">
    <path d="M 8.701513200283017 15.539772078356165  C 12.892663182066348 11.354097835570805  12.892663182066348 4.702998991552483  8.70151320028302 0.5173247484931512  C 8.193683428154266 0.07762634672888044  7.42561062326083 0.07762634672888044  6.9177808511320755 0.5173247484931497  C 6.4552644534997645 1.0058256260732201  6.4552644534997645 1.7555419440637638  6.917780851132078 2.244042821643835  C 10.205814035168089 5.443598392562789  10.205814035168089 10.613498410176941  6.917780851132077 13.81305398109589  C 6.463564091062456 14.304651755093614  6.4635640910624605 15.048174304358445  6.9177808511320755 15.539772078356162  C 7.422411474669978 15.987504846840412  8.196882576745114 15.987504846840407  8.701513200283017 15.539772078356165  Z M 2.4365991469323642 5.766547719178084  C 1.8418671227194836 5.766547719178084  1.2717821664674906 5.99655542404644  0.8530908195283018 6.40543340109589  C 0.43480322217813483 6.807412291072356  0.19955480821883442 7.354379500056507  0.19955480821883442 7.9249453164383565  C 0.19955480821883442 8.495511132820205  0.43480322217813483 9.042478341804358  0.8530908195283018 9.444457231780822  C 1.2717821664674913 9.853335208830277  1.8418671227194836 10.083342913698631  2.4365991469323642 10.083342913698631  C 3.6680093680237915 10.083342913698631  4.666264589385193 9.116995393476634  4.666264589385193 7.924945316438359  C 4.666264589385193 6.732895239400083  3.6680093680237906 5.766547719178084  2.4365991469323642 5.766547719178084  Z " fill-rule="nonzero" fill="#7f7f7f" stroke="none" transform="matrix(1 0 0 1 1164 1375 )" />
  </g>
</svg>