<?xml version="1.0" encoding="utf-8"?>
<svg version="1.1" xmlns:xlink="http://www.w3.org/1999/xlink" width="30px" height="30px" xmlns="http://www.w3.org/2000/svg">
  <g transform="matrix(1 0 0 1 -2170 -982 )">
    <path d="M 20.817118861607142 12.506924598214285  C 20.817118861607142 12.965870591517856  21.189209430803572 13.337926908482144  21.64815542410714 13.337926874999999  L 27.471304453125 13.337926874999999  C 27.92696122767857 13.337926874999999  28.296310814732138 13.707687589285714  28 14.1634471875  L 28 27.470790502232145  C 28.296310814732138 27.926721395089288  27.920417109375 28.29631081473214  27.471304453125 28  L 2.5286955468750003 28  C 2.0730387723214285 28.29631081473214  1.703689185267857 27.92655010044643  2 27.470790502232145  L 2 14.163481439732143  C 1.703689185267857 13.707550546875  2.0796171763392857 13.337961127232143  2.5286955468750003 13.337961160714288  L 8.351844575892857 13.337961160714288  C 8.810790569196428 13.337961160714288  9.182881138392856 12.965904843750002  9.182881138392856 12.506924598214288  C 9.182881138392856 12.047978604910718  8.810790569196428 11.675888035714287  8.351844575892857 11.675888035714287  L 1.7034151004464286 11.675888035714287  C 0.7811375558035716 11.675888035714287  0.04161609375000017 12.416711484375002  0 13.330594720982143  L 0 28.303677254464287  C 0.041616060267856934 29.219033772321428  0.7856259040178567 29.95838393973214  1.7034151004464282 30  L 28.29655064732143 30  C 29.218828191964285 29.95838393973214  29.95838393973214 29.217560491071428  30 28.303677254464287  L 30 13.330594720982141  C 29.95838393973214 12.415238203125  29.214339843749997 11.675888035714285  28.29655064732143 11.675888035714285  L 21.64815542410714 11.675888035714285  C 21.189209430803572 11.675888035714285  20.817118861607142 12.047978604910716  20.817118861607142 12.506924598214285  Z M 15.886987198660714 0.28313233258928583  C 15.689087075892857 0.0852664955357144  15.413890814732143 0.009477857142857283  15.155860044642855 0.056211897321428415  C 15.04667620700462 0.035631614911622506  14.934503639693034 0.03680759968521003  14.825775267857143 0.05967241071428542  C 14.56116609375 0.003481941964285243  14.275965167410716 0.07844825892857114  14.07128109375 0.2831323325892854  L 8.10536029017857 6.249053136160715  C 7.783943939732143 6.570469486607142  7.784697689732143 7.095918950892857  8.10923193080357 7.4204189397321425  C 8.436027522321426 7.747248783482143  8.958222020089286 7.746700580357142  9.280632020089284 7.424290613839286  L 14.169031975446428 2.535890658482143  L 14.169031975446428 24.142738359375  C 14.169031975446428 24.60045090401786  14.541088292410711 24.97223310267857  15.000068537946428 24.97223310267857  C 15.462200926339285 24.97223310267857  15.831105100446427 24.600862031249996  15.831105066964284 24.142738359375  L 15.831105066964284 2.577656618303571  L 20.67770481026785 7.424290613839286  C 20.999121160714285 7.745706964285714  21.524570624999996 7.744987466517857  21.849104866071425 7.4204189397321425  C 22.175900457589286 7.093623348214286  22.175386506696427 6.571428850446428  21.85297654017857 6.249053136160715  L 15.886987198660714 0.28313233258928583  Z " fill-rule="nonzero" fill="#000000" stroke="none" transform="matrix(1 0 0 1 2170 982 )" />
  </g>
</svg>