<?xml version="1.0" encoding="utf-8"?>
<svg version="1.1" xmlns:xlink="http://www.w3.org/1999/xlink" width="21px" height="20px" preserveAspectRatio="xMinYMid meet" viewBox="523 250  21 18" xmlns="http://www.w3.org/2000/svg">
  <path d="M 532 259  L 582 259  A 5 5 0 0 1 587 264 L 587 609  A 5 5 0 0 0 592 614 L 643 614  " stroke-width="2" stroke="#0066ff" fill="none" />
  <path d="M 533.5 255.5  A 3.5 3.5 0 0 0 530 259 A 3.5 3.5 0 0 0 533.5 262.5 A 3.5 3.5 0 0 0 537 259 A 3.5 3.5 0 0 0 533.5 255.5 Z M 635.6 622  L 645 614  L 635.6 606  L 639.2 614  L 635.6 622  Z " fill-rule="nonzero" fill="#0066ff" stroke="none" />
</svg>