<?xml version="1.0" encoding="utf-8"?>
<svg version="1.1" xmlns:xlink="http://www.w3.org/1999/xlink" width="20px" height="20px" xmlns="http://www.w3.org/2000/svg">
  <g transform="matrix(1 0 0 1 -1920 -494 )">
    <path d="M 10.903954809322034 11.807909597457627  C 10.903954809322036 12.307150044908566  11.308669150006686 12.711864395078711  11.807909597457629 12.711864406779661  L 19.039548029661017 12.711864406779661  C 19.538788477111957 12.711864395078713  19.943502817796606 12.307150044908571  19.943502817796606 11.807909597457629  L 19.943502817796606 8.192090402542375  C 19.943502817796606 7.692849955091432  19.538788477111957 7.288135604921289  19.039548029661017 7.288135593220341  L 11.807909597457629 7.288135593220341  C 11.308669150006686 7.288135604921289  10.903954809322036 7.692849955091432  10.903954809322036 8.192090402542375  L 10.903954809322036 9.096045190677968  L 4.576271186440678 9.096045190677968  L 4.576271186440678 6.384180783898304  L 10.903954809322034 6.384180783898304  C 11.403195248499156 6.3841807721973565  11.807909585756677 5.979466434939834  11.807909597457627 5.48022599576271  L 11.807909597457627 0.960451970338983  C 11.807909585756677 0.4612115311618602  11.403195248499156 0.05649719390433807  10.903954809322034 0.056497182203389756  L 0.960451970338983 0.056497182203389756  C 0.4612115311618602 0.056497193904337314  0.056497193904337314 0.4612115311618602  0.056497182203389756 0.960451970338983  L 0.056497182203389756 5.480225995762712  C 0.05649719390433747 5.979466434939836  0.46121153116186053 6.384180772197359  0.960451970338983 6.384180783898305  L 3 6.384180783898305  L 3 17.23163841101695  C 2.7683615889830504 17.730878858467893  3.1730759296677014 18.135593208638035  3.6723163771186433 18.135593220338983  L 10.903954809322034 18.135593220338983  L 10.903954809322034 19.039548029661017  C 10.903954821022982 19.53878846883814  11.308669158280505 19.943502806095662  11.807909597457627 19.943502817796606  L 19.039548029661017 19.943502817796606  C 19.53878846883814 19.943502806095662  19.943502806095662 19.53878846883814  19.943502817796606 19.039548029661017  L 19.943502817796606 15.423728813559324  C 19.943502817796606 14.924488366108381  19.538788477111957 14.519774015938236  19.039548029661017 14.51977400423729  L 11.807909597457629 14.51977400423729  C 11.308669150006686 14.519774015938236  10.903954809322036 14.924488366108381  10.903954809322036 15.423728813559324  L 10.903954809322036 16.327683622881356  L 4.576271186440678 16.327683622881356  L 4.576271186440678 10.903954809322034  L 10.903954809322034 10.903954809322034  L 10.903954809322034 11.807909597457627  Z M 12.711864406779661 10.903954809322036  L 12.711864406779661 9.096045190677968  L 18.135593220338983 9.096045190677968  L 18.135593220338983 10.903954809322036  L 12.711864406779661 10.903954809322036  Z M 10 4.576271186440678  L 1.8644067796610169 4.576271186440678  L 1.8644067796610169 1.8644067796610169  L 10 1.8644067796610169  L 10 4.576271186440678  Z M 12.711864406779661 18.135593220338983  L 12.711864406779661 16.327683622881356  L 18.135593220338983 16.327683622881356  L 18.135593220338983 18.135593220338983  L 12.711864406779661 18.135593220338983  Z " fill-rule="nonzero" fill="#0066ff" stroke="none" transform="matrix(1 0 0 1 1920 494 )" />
  </g>
</svg>