<?xml version="1.0" encoding="utf-8"?>
<svg version="1.1" xmlns:xlink="http://www.w3.org/1999/xlink" width="34px" height="34px" preserveAspectRatio="xMinYMid meet" viewBox="641 1862  34 32" xmlns="http://www.w3.org/2000/svg">
  <path d="M 426 1810  L 615 1810  A 5 5 0 0 1 620 1815 L 620 1873  A 5 5 0 0 0 625 1878 L 658 1878  " stroke-width="2" stroke="#0066ff" fill="none" />
  <path d="M 427.5 1806.5  A 3.5 3.5 0 0 0 424 1810 A 3.5 3.5 0 0 0 427.5 1813.5 A 3.5 3.5 0 0 0 431 1810 A 3.5 3.5 0 0 0 427.5 1806.5 Z M 650.6 1886  L 660 1878  L 650.6 1870  L 654.2 1878  L 650.6 1886  Z " fill-rule="nonzero" fill="#0066ff" stroke="none" />
</svg>