<?xml version="1.0" encoding="utf-8"?>
<svg version="1.1" xmlns:xlink="http://www.w3.org/1999/xlink" width="10px" height="168px" preserveAspectRatio="xMidYMin meet" viewBox="1086 1715  8 168" xmlns="http://www.w3.org/2000/svg">
  <path d="M 1022 1720  L 1085 1720  A 5 5 0 0 1 1090 1725 L 1090 1873  A 5 5 0 0 0 1095 1878 L 1133 1878  " stroke-width="2" stroke="#0066ff" fill="none" />
  <path d="M 1023.5 1716.5  A 3.5 3.5 0 0 0 1020 1720 A 3.5 3.5 0 0 0 1023.5 1723.5 A 3.5 3.5 0 0 0 1027 1720 A 3.5 3.5 0 0 0 1023.5 1716.5 Z M 1125.6 1886  L 1135 1878  L 1125.6 1870  L 1129.2 1878  L 1125.6 1886  Z " fill-rule="nonzero" fill="#0066ff" stroke="none" />
</svg>