<?xml version="1.0" encoding="utf-8"?>
<svg version="1.1" xmlns:xlink="http://www.w3.org/1999/xlink" width="145px" height="10px" preserveAspectRatio="xMinYMid meet" viewBox="810 606  145 8" xmlns="http://www.w3.org/2000/svg">
  <path d="M 812 610  L 945 610  A 5 5 0 0 0 950 605 L 950 579  A 5 5 0 0 1 955 574 L 1088 574  " stroke-width="2" stroke="#0066ff" fill="none" />
  <path d="M 813.5 606.5  A 3.5 3.5 0 0 0 810 610 A 3.5 3.5 0 0 0 813.5 613.5 A 3.5 3.5 0 0 0 817 610 A 3.5 3.5 0 0 0 813.5 606.5 Z M 1080.6 582  L 1090 574  L 1080.6 566  L 1084.2 574  L 1080.6 582  Z " fill-rule="nonzero" fill="#0066ff" stroke="none" />
</svg>