<?xml version="1.0" encoding="utf-8"?>
<svg version="1.1" xmlns:xlink="http://www.w3.org/1999/xlink" width="9px" height="12px" xmlns="http://www.w3.org/2000/svg">
  <g transform="matrix(1 0 0 1 -669 -355 )">
    <path d="M 0.1589999999999998 5.573818181818183  C 0.20486818330009804 5.51974757970601  0.25839931443902486 5.472245969913207  0.3179999999999996 5.4327272727272735  L 7.982999999999999 0.2952727272727277  C 8.265935700051166 0.10752967852355383  8.649254731745629 0.1564215127056453  8.872499999999999 0.4087272727272736  C 8.954268379362412 0.5044944503846887  8.99932017778896 0.6247610694998322  9 0.7490909090909099  L 9 11.25090909090909  C 9 11.563636363636363  8.715 11.818181818181818  8.363999999999997 11.818181818181817  C 8.228090616331281 11.81859432833845  8.095246473277374 11.779035871995983  7.983000000000001 11.704727272727274  L 0.3179999999999996 6.567272727272728  C 0.12016904073075452 6.443178961361365  0.0007120240445592785 6.230286664534049  0.0007120240445592785 6.0018127163778745  C 0.0007120240445592785 5.845667862376867  0.05666561777523249 5.694375054687905  0.1589999999999998 5.573818181818183  Z " fill-rule="nonzero" fill="#d7d7d7" stroke="none" transform="matrix(1 0 0 1 669 355 )" />
  </g>
</svg>