<?xml version="1.0" encoding="utf-8"?>
<svg version="1.1" xmlns:xlink="http://www.w3.org/1999/xlink" width="58px" height="10px" preserveAspectRatio="xMinYMid meet" viewBox="562 570  58 8" xmlns="http://www.w3.org/2000/svg">
  <path d="M 517 798  L 562 798  A 5 5 0 0 0 567 793 L 567 579  A 5 5 0 0 1 572 574 L 618 574  " stroke-width="2" stroke="#0066ff" fill="none" />
  <path d="M 518.5 794.5  A 3.5 3.5 0 0 0 515 798 A 3.5 3.5 0 0 0 518.5 801.5 A 3.5 3.5 0 0 0 522 798 A 3.5 3.5 0 0 0 518.5 794.5 Z M 610.6 582  L 620 574  L 610.6 566  L 614.2 574  L 610.6 582  Z " fill-rule="nonzero" fill="#0066ff" stroke="none" />
</svg>