<?xml version="1.0" encoding="utf-8"?>
<svg version="1.1" xmlns:xlink="http://www.w3.org/1999/xlink" width="34px" height="34px" preserveAspectRatio="xMinYMid meet" viewBox="1076 558  34 32" xmlns="http://www.w3.org/2000/svg">
  <path d="M 947 425  L 1075 425  A 5 5 0 0 1 1080 430 L 1080 569  A 5 5 0 0 0 1085 574 L 1093 574  " stroke-width="2" stroke="#0066ff" fill="none" />
  <path d="M 948.5 421.5  A 3.5 3.5 0 0 0 945 425 A 3.5 3.5 0 0 0 948.5 428.5 A 3.5 3.5 0 0 0 952 425 A 3.5 3.5 0 0 0 948.5 421.5 Z M 1085.6 582  L 1095 574  L 1085.6 566  L 1089.2 574  L 1085.6 582  Z " fill-rule="nonzero" fill="#0066ff" stroke="none" />
</svg>