<?xml version="1.0" encoding="utf-8"?>
<svg version="1.1" xmlns:xlink="http://www.w3.org/1999/xlink" width="20px" height="20px" xmlns="http://www.w3.org/2000/svg">
  <g transform="matrix(1 0 0 1 -1796 -232 )">
    <path d="M 5.93505859375 1.638183593750003  C 6.87255859375 1.2548828125  7.861328125 1.064453125  8.876953125 1.064453125  C 9.892578125 1.064453125  10.88134765625 1.25732421875  11.81640625 1.6357421875  C 12.78564453125 2.02880859375  13.654785156249998 2.6049804687500004  14.399414062499998 3.35205078125  C 15.8203125 4.775390625  16.633300781249996 6.6650390625  16.6845703125 8.67431640625  C 16.73583984375 10.676269531250002  16.0302734375 12.59765625  14.697265625 14.08447265625  L 14.40673828125 14.409179687499998  L 14.08203125 14.699707031249998  C 12.65380859375 15.9814453125  10.80322265625 16.689453125  8.87451171875 16.689453125  C 7.858886718749999 16.689453125  6.870117187499999 16.49658203125  5.93505859375 16.1181640625  C 4.9658203125 15.72509765625  4.0966796875 15.14892578125  3.35205078125 14.401855468750002  C 2.60498046875 13.65478515625  2.02880859375 12.78564453125  1.6357421874999991 11.818847656250002  C 1.2548828124999991 10.881347656250002  1.0644531249999993 9.890136718750004  1.0644531249999993 8.876953125000004  C 1.0644531249999993 7.8613281250000036  1.2573242187499991 6.8725585937500036  1.6357421874999991 5.9375000000000036  C 2.028808593749999 4.968261718750003  2.6049804687499996 4.099121093750003  3.35205078125 3.3544921875000027  C 4.09912109375 2.6074218750000027  4.96826171875 2.031250000000003  5.93505859375 1.638183593750003  Z M 15.09033203125 2.6611328125  C 13.3740234375 0.94482421875  11.12548828125 0.087890625  8.876953125 0.087890625  C 6.62841796875 0.087890625  4.37744140625 0.94482421875  2.6611328125 2.6611328125  C -0.7714843749999996 6.09375  -0.7714843749999996 11.65771484375  2.6611328125 15.09033203125  C 4.37744140625 16.806640625  6.6259765625 17.666015625  8.87451171875 17.666015625  C 10.9716796875 17.666015625  13.06884765625 16.9189453125  14.73388671875 15.42724609375  L 19.2236328125 19.912109375  L 19.914550781249996 19.22119140625  L 15.42724609375 14.736328125  C 18.5205078125 11.28662109375  18.408203125 5.97900390625  15.09033203125 2.6611328125  Z " fill-rule="nonzero" fill="#000000" stroke="none" transform="matrix(1 0 0 1 1796 232 )" />
  </g>
</svg>