<?xml version="1.0" encoding="utf-8"?>
<svg version="1.1" xmlns:xlink="http://www.w3.org/1999/xlink" width="13px" height="12px" xmlns="http://www.w3.org/2000/svg">
  <g transform="matrix(1 0 0 1 -1511 -718 )">
    <path d="M 12.994264705882355 0.8820000000000005  C 12.99235294117647 1.2780000000000007  12.68264705882353 1.6020000000000003  12.304117647058824 1.6020000000000003  L 4.018529411764705 1.6020000000000003  C 3.6399999999999997 1.6020000000000003  3.3302941176470586 1.2780000000000007  3.3302941176470586 0.8820000000000005  C 3.3302941176470586 0.48600000000000027  3.6399999999999997 0.16200000000000045  4.018529411764705 0.16200000000000045  L 12.306029411764706 0.16200000000000045  C 12.68455882352941 0.16200000000000045  12.994264705882355 0.48600000000000027  12.994264705882355 0.8820000000000005  Z M 12.994264705882355 6.042000000000001  C 12.99235294117647 6.438000000000001  12.68264705882353 6.7620000000000005  12.304117647058824 6.7620000000000005  L 4.018529411764705 6.7620000000000005  C 3.6399999999999997 6.7620000000000005  3.3302941176470586 6.438000000000001  3.3302941176470586 6.042000000000001  C 3.3302941176470586 5.646000000000001  3.6399999999999997 5.322000000000001  4.018529411764705 5.322000000000001  L 12.306029411764706 5.322000000000001  C 12.68455882352941 5.322000000000001  12.994264705882355 5.646000000000001  12.994264705882355 6.042000000000001  Z M 12.994264705882355 11.202  C 12.99235294117647 11.597999999999999  12.68264705882353 11.922  12.304117647058824 11.922  L 4.018529411764705 11.922  C 3.6399999999999997 11.922  3.3302941176470586 11.597999999999999  3.3302941176470586 11.202  C 3.3302941176470586 10.806000000000001  3.6399999999999997 10.482000000000001  4.018529411764705 10.482000000000001  L 12.306029411764706 10.482000000000001  C 12.68455882352941 10.482000000000001  12.994264705882355 10.806000000000001  12.994264705882355 11.202  Z M 0.08220588235294085 0.8999999999999999  C 0.08220588235294085 1.3186318403717416  0.4066019172917173 1.6580000000000006  0.8067647058823522 1.6580000000000006  C 1.2069274944729877 1.6580000000000006  1.531323529411764 1.3186318403717416  1.531323529411764 0.8999999999999999  C 1.531323529411764 0.4813681596282589  1.2069274944729877 0.14200000000000046  0.8067647058823522 0.14200000000000046  C 0.4066019172917173 0.14200000000000046  0.08220588235294085 0.4813681596282589  0.08220588235294085 0.8999999999999999  Z M 0.08220588235294085 6.0600000000000005  C 0.08220588235294085 6.478631840371741  0.4066019172917173 6.818  0.8067647058823522 6.818  C 1.2069274944729877 6.818  1.531323529411764 6.478631840371741  1.531323529411764 6.0600000000000005  C 1.531323529411764 5.641368159628258  1.2069274944729877 5.302  0.8067647058823522 5.302  C 0.4066019172917173 5.302  0.08220588235294085 5.641368159628258  0.08220588235294085 6.0600000000000005  Z M 0.08220588235294085 11.22  C 0.08220588235294085 11.638631840371744  0.4066019172917173 11.978  0.8067647058823522 11.978  C 1.2069274944729877 11.978  1.531323529411764 11.638631840371744  1.531323529411764 11.22  C 1.531323529411764 10.80136815962826  1.2069274944729877 10.462  0.8067647058823522 10.462  C 0.4066019172917173 10.462  0.08220588235294085 10.80136815962826  0.08220588235294085 11.22  Z " fill-rule="nonzero" fill="#000000" stroke="none" transform="matrix(1 0 0 1 1511 718 )" />
  </g>
</svg>