<?xml version="1.0" encoding="utf-8"?>
<svg version="1.1" xmlns:xlink="http://www.w3.org/1999/xlink" width="49px" height="49px" xmlns="http://www.w3.org/2000/svg">
  <g transform="matrix(1 0 0 1 -1797 -1920 )">
    <path d="M 24.52964007782101 0.4241245136186782  C 11.223224708171204 0.4241245136186782  0.4385700389105045 11.14479085603113  0.4385700389105045 24.37148832684825  C 0.4385700389105045 37.598185797665366  11.223813229571983 48.31863813229572  24.529586575875484 48.31863813229572  C 37.8341293774319 48.31863813229572  48.61942607003891 37.598185797665366  48.61942607003891 24.37148832684825  C 48.619479571984435 11.14521887159533  37.83412937743191 0.4241245136186782  24.52958657587549 0.4241245136186782  Z M 45.335476653696496 24.397383268482493  C 45.335476653696496 35.89035019455254  36.01854085603112 45.207232490272375  24.52562743190662 45.207232490272375  C 13.032660505836578 45.207232490272375  3.7157782101167336 35.89029669260701  3.7157782101167336 24.397383268482493  C 3.7157782101167336 12.904416342412452  13.032714007782104 3.5875340466926118  24.52562743190662 3.5875340466926118  C 36.01854085603113 3.5875340466926118  45.335476653696496 12.90446984435798  45.335476653696496 24.397383268482493  Z M 15.025821984435797 21.22311284046693  C 13.35056906614786 21.22311284046693  11.992529182879377 22.581206225680937  11.992529182879377 24.256405642023346  C 11.992529182879377 25.931658560311284  13.350622568093383 27.289698443579766  15.025821984435797 27.289698443579766  C 16.701021400778206 27.289698443579766  18.059114785992215 25.93160505836576  18.059114785992215 24.25640564202335  C 18.059114785992215 22.58115272373541  16.701021400778206 21.22311284046693  15.025821984435797 21.22311284046693  Z M 25.183808365758754 21.22311284046693  C 23.50855544747082 21.22311284046693  22.150515564202337 22.581206225680937  22.150515564202333 24.256405642023346  C 22.150515564202333 25.931658560311284  23.50860894941634 27.289698443579766  25.183808365758754 27.289698443579766  C 26.85900778210117 27.289698443579766  28.217101167315178 25.93160505836576  28.217101167315178 24.25640564202335  C 28.217101167315178 22.58115272373541  26.85900778210117 21.22311284046693  25.183808365758754 21.22311284046693  Z M 34.354255836575874 21.22311284046693  C 32.679002918287935 21.22311284046693  31.320963035019453 22.581206225680937  31.320963035019453 24.256405642023346  C 31.320963035019453 25.931658560311284  32.679056420233465 27.289698443579766  34.354255836575874 27.289698443579766  C 36.02945525291829 27.289698443579766  37.3875486381323 25.93160505836576  37.3875486381323 24.25640564202335  C 37.3875486381323 22.58115272373541  36.02945525291829 21.22311284046693  34.354255836575874 21.22311284046693  Z " fill-rule="nonzero" fill="#cccccc" stroke="none" transform="matrix(1 0 0 1 1797 1920 )" />
  </g>
</svg>