<?xml version="1.0" encoding="utf-8"?>
<svg version="1.1" xmlns:xlink="http://www.w3.org/1999/xlink" width="55px" height="55px" xmlns="http://www.w3.org/2000/svg">
  <g transform="matrix(1 0 0 1 -1616 -1805 )">
    <path d="M 31.141644799804684 26.95385623468137  C 30.514943164062498 26.95385623468137  29.88796652832031 27.52443689682904  29.88796652832031 28.226839259727328  C 29.88796652832031 28.797527712354466  30.51461321777343 29.3682162176394  31.141644799804684 29.3682162176394  C 32.082247226562494 29.3682162176394  32.753823276367186 28.797527765012255  32.753823276367186 28.226839259727328  C 32.753823276367186 27.524490818397673  32.0822472265625 26.95385623468137  31.141644799804684 26.95385623468137  Z M 27.021889780273437 21.026783404181987  C 28.00703662109375 21.026783404181987  28.63406825683594 20.412370035807292  28.63406825683594 19.49015687231924  C 28.63406825683594 18.52427271465227  28.007091621093746 17.953638130935968  27.021889780273437 17.953638130935968  C 26.081507353515622 17.953638130935968  25.185834287109376 18.524326583563116  25.185834287109376 19.49015687231924  C 25.18577928710937 20.412423957375918  26.081507299804688 21.026783404181987  27.021889780273437 21.026783404181987  Z M 27.514463173828123 0.029491411994485295  C 12.334710620117187 0.029491411994485295  0.029283847656249584 12.093635359221814  0.029283847656249584 26.97574565333946  C 0.029283847656249584 41.857748156977635  12.334710673828123 53.921892104204964  27.514463173828123 53.921892104204964  C 42.69410572753906 53.921892104204964  54.99953255371094 41.857748156977635  54.99953255371094 26.97574565333946  C 54.99958755371093 12.093635359221814  42.694160727539064 0.029491411994485295  27.514463173828123 0.029491411994485295  Z M 22.319977485351565 33.802495275160844  C 20.66292459472656 33.802495275160844  19.453845737304686 33.539283088235294  17.886541674804686 33.10009285960478  L 13.363687036132811 35.33933744064032  L 14.66256966796875 31.563466275084252  C 11.483087128906249 29.368539641735598  9.602102221679688 26.60260107900582  9.602102221679688 23.222033461626832  C 9.602102221679688 17.251235715379895  15.334090717773437 12.68529661649816  22.320032485351565 12.68529661649816  C 28.49972001464844 12.68529661649816  34.007831494140625 16.28540542662377  35.082507163085936 21.378308009727327  C 34.63475312988281 21.290265093635107  34.23159851074219 21.246594099456185  33.87342830566406 21.246594099456185  C 27.78321460449219 21.246594099456185  23.08135730957031 25.72454415115655  23.08135730957031 31.124653444776342  C 23.08135730957031 32.04648920994179  23.215705498046876 32.880605535768986  23.43963751464844 33.75882417566636  C 23.08135730957031 33.802495275160844  22.678202744140624 33.802495275160844  22.319977485351565 33.802495275160844  Z M 40.993663315429686 38.10495257927389  L 41.88911638183594 41.26614076861213  L 38.48581177246094 39.378366924211086  C 37.18725908691406 39.641579111136636  35.933305815429684 40.03677481617647  34.63475312988281 40.03677481617647  C 28.634013203125004 40.03677481617647  23.88728154785156 35.99779930683211  23.88728154785156 30.992939587162983  C 23.88728154785156 25.988025998583016  28.634068203125 21.948996567670026  34.63475312988281 21.948996567670026  C 40.321812265625 21.948996567670026  45.426824125976566 25.988025998583016  45.426824125976566 30.992939587162983  C 45.42682412597656 33.802495275160844  43.50129485839844 36.30495209577972  40.993663315429686 38.10495257927389  Z M 18.15529310546875 17.953638130935968  C 17.214910678710936 17.953638130935968  16.22976378417969 18.524326583563116  16.22976378417969 19.49015687231924  C 16.22976378417969 20.412370035807292  17.214910624999998 21.02705301202512  18.15529310546875 21.02705301202512  C 19.051021118164062 21.02705301202512  19.76747158203125 20.412370035807292  19.76747158203125 19.49015687231924  C 19.76747158203125 18.52432663622089  19.051021118164062 17.953638130935968  18.15529310546875 17.953638130935968  Z M 38.17246092773438 26.95385623468137  C 37.500609931640625 26.95385623468137  36.91850765625 27.52443689682904  36.91850765625 28.226839259727328  C 36.91850765625 28.797527712354466  37.50060987792969 29.3682162176394  38.17246092773438 29.3682162176394  C 39.067913994140625 29.3682162176394  39.739710043945315 28.797527765012255  39.739710043945315 28.226839259727328  C 39.739710043945315 27.524490818397673  39.067913994140625 26.95385623468137  38.17246092773438 26.95385623468137  Z " fill-rule="nonzero" fill="#7ebf4a" stroke="none" transform="matrix(1 0 0 1 1616 1805 )" />
  </g>
</svg>