<?xml version="1.0" encoding="utf-8"?>
<svg version="1.1" xmlns:xlink="http://www.w3.org/1999/xlink" width="55px" height="55px" xmlns="http://www.w3.org/2000/svg">
  <g transform="matrix(1 0 0 1 -1526 -1805 )">
    <path d="M 55 27.5  C 55 42.900000000000006  42.89999999999997 55  27.5 55  C 12.10000000000003 55  0 42.900000000000006  0 27.5  C 0 12.099999999999993  12.10000000000003 0  27.5 0  C 42.89999999999997 0  55 12.099999999999993  55 27.5  Z M 37.20588235294118 42  C 38.11176470588234 42.05882352941176  38.82352941176471 41.347058823529395  38 40.44117647058824  L 38 14.558823529411764  C 38.82352941176471 13.652941176470604  38.11176470588234 12.941176470588236  37.20588235294118 13  L 17.794117647058826 13  C 16.888235294117663 12.941176470588236  16.176470588235293 13.652941176470604  17 14.558823529411764  L 17 40.44117647058824  C 16.176470588235293 41.347058823529395  16.888235294117663 42.05882352941176  17.794117647058826 42  L 37.20588235294118 42  Z M 20.058823529411764 31  L 23.982922201138557 26.262975778546696  L 25.454459203036077 29.23183391003461  L 29.37855787476279 23.294117647058822  L 35.26470588235294 31  L 20.058823529411764 31  Z " fill-rule="nonzero" fill="#0399ff" stroke="none" transform="matrix(1 0 0 1 1526 1805 )" />
  </g>
</svg>