<?xml version="1.0" encoding="utf-8"?>
<svg version="1.1" xmlns:xlink="http://www.w3.org/1999/xlink" width="55px" height="55px" xmlns="http://www.w3.org/2000/svg">
  <g transform="matrix(1 0 0 1 -1526 -1920 )">
    <path d="M 55 27.5  C 55 12.3118518359375  42.688148164062504 0  27.5 0  C 12.3118518359375 0  0 12.3118518359375  0 27.5  C 0 42.688148164062504  12.3118518359375 55  27.5 55  C 42.688148164062504 55  55 42.688148164062504  55 27.5  Z M 43.52231490234374 30.088055615234367  C 44.49601852050782 33.77101852050781  43.522314794921876 35.508611123046876  43.03648147949218 35.92518520507812  C 41.86925923339844 36.92638893066406  40.353703725585945 32.63027780761718  40.13574071289062 33.291296328125  C 39.605092548828125 34.89851857421875  39.35657402832031 35.97305556152344  37.792129589843746 37.72287041015625  C 37.70861106933593 37.81657413574219  39.59999994628906 38.500000053710934  40.13574071289062 39.95953709472655  C 40.64907402832031 41.3569444921875  41.647222192382806 43.57222229980468  35.11444443847656 44.26787041015625  C 31.28175923339844 44.67527780761719  28.511388876953127 42.225740766601554  28.23537035644531 42.249166684570305  C 27.723055561523434 42.29398147949219  27.951203671875 42.249166684570305  27.401203671875 42.249166684570305  C 26.951018466796874 42.249166684570305  26.92148142578125 42.28175928710937  26.497777753906245 42.249166684570305  C 26.381666630859375 42.24  25.107499999999998 44.26787041015625  19.409907397460934 44.26787041015625  C 14.993611123046872 44.26787041015625  13.84981479492187 41.488333369140626  14.73796295898437 39.95953709472655  C 15.626111123046872 38.430740820312494  17.108055561523436 37.98564821777343  16.899259233398435 37.743240820312494  C 15.870555507812497 36.551574135742186  15.161666630859372 35.27740750488281  14.73796295898437 34.12546306640624  C 14.633055561523433 33.83824082031249  14.545462958984372 33.559166791992176  14.476203725585933 33.29129638183593  C 14.315277807617182 32.67611117675781  13.085925971679682 36.90092602539062  11.765925971679682 35.92518525878906  C 10.445925971679683 34.949444492187496  10.564074135742183 32.46527786132812  11.418611176757807 30.088055615234367  C 12.28027786132812 27.691481533203117  14.451759340820308 25.383518574218744  14.47620377929687 24.874259340820306  C 14.56277786132812 22.97879638183593  14.288796381835931 22.66407413574218  14.47620377929687 22.16601857421874  C 14.89277786132812 21.05074082031249  15.400000053710933 21.47851857421874  15.400000053710933 20.90000005371093  C 15.400000053710933 13.609444492187492  20.817500053710933 7.700000053710929  27.50000005371093 7.700000053710929  C 34.182500053710925 7.700000053710929  39.60000005371093 13.610463012695305  39.60000005371093 20.90000005371093  C 39.60000005371093 21.17907413574218  40.32620377929687 20.90000005371093  40.67351857421875 22.16601857421874  C 40.7448148486328 22.427777807617176  40.79370377929686 23.43712969726561  40.70916673828124 24.874259340820306  C 40.669444492187495 25.56481490234375  42.54962969726561 26.40509265624999  43.52231490234374 30.088055615234367  Z " fill-rule="nonzero" fill="#3abaeb" stroke="none" transform="matrix(1 0 0 1 1526 1920 )" />
  </g>
</svg>