<?xml version="1.0" encoding="utf-8"?>
<svg version="1.1" xmlns:xlink="http://www.w3.org/1999/xlink" width="25px" height="21px" xmlns="http://www.w3.org/2000/svg">
  <g transform="matrix(1 0 0 1 -1716 -1943 )">
    <path d="M 22.245861235119037 11.855794270833337  C 24.931408110119044 9.218261718750005  25.512695312499993 5.3160807291666705  24.012974330357142 2.1145833333333335  C 23.995535714285715 2.0804036458333335  23.983909970238095 2.046223958333333  23.966471354166664 2.0120442708333335  C 23.960658482142858 2.006347656249996  23.960658482142858 2.0006510416666665  23.954845610119047 1.9892578125  C 23.53631882440476 1.1632486979166667  22.63532366071428 0.6277669270833334  21.635509672619047 0.7018229166666666  C 20.327613467261905 0.8043619791666666  19.345238095238095 1.9265950520833333  19.449869791666664 3.2083333333333335  C 19.478934151785715 3.5387369791666665  19.571940104166664 3.840657552083333  19.717261904761905 4.1140950520833295  C 20.379929315476193 5.578125  20.089285714285715 7.361165364583329  18.868582589285715 8.563151041666666  L 12.474423363095239 14.8408203125  C 10.887509300595239 16.39599609375  8.30659412202381 16.39599609375  6.719680059523807 14.8408203125  C 5.1327659970238075 13.28564453125  5.1327659970238075 10.75634765625  6.719680059523807 9.201171875  L 9.102957589285714 6.865559895833333  L 9.085518973214286 6.8484700520833375  C 9.63774181547619 6.38134765625  9.957449776785714 5.669270833333334  9.899321056547619 4.9059244791666705  C 9.794689360119044 3.624186197916671  8.649553571428571 2.6614583333333375  7.341657366071429 2.763997395833333  C 6.713867187499997 2.8095703125  6.167457217261902 3.0944010416666665  5.772181919642855 3.5159505208333335  L 5.766369047619043 3.51025390625  L 3.336588541666662 5.891438802083333  C -0.1162574404761947 9.275227864583334  -0.1162574404761947 14.75537109375  3.336588541666662 18.13916015625  C 6.789434523809519 21.52294921875  12.381417410714283 21.52294921875  15.834263392857139 18.13916015625  L 22.245861235119037 11.855794270833337  Z " fill-rule="nonzero" fill="#ffffff" stroke="none" transform="matrix(1 0 0 1 1716 1943 )" />
  </g>
</svg>