<?xml version="1.0" encoding="utf-8"?>
<svg version="1.1" xmlns:xlink="http://www.w3.org/1999/xlink" width="55px" height="55px" xmlns="http://www.w3.org/2000/svg">
  <g transform="matrix(1 0 0 1 -1616 -1920 )">
    <path d="M 25.70556640625 32.889404296875  L 25.711669921875 32.88940429687499  L 25.7666015625 32.88940429687499  C 25.986328125 32.620849609375  26.328124999999993 32.498779296875  26.62109375 32.303466796875  C 27.274169921874996 31.870117187499993  27.927246093750004 31.418457031249996  28.598632812500004 30.966796874999996  C 30.350341796875004 29.794921874999996  32.06542968749999 28.48876953125  33.780517578125 27.2802734375  C 34.244384765625 26.95068359375  35.30029296874999 26.36474609375  35.599365234375 25.943603515625  C 35.75195312499999 25.723876953125  35.867919921875 25.321044921875  35.703125 25.089111328125  C 35.56884765624999 24.6923828125  34.98291015625 24.820556640625  34.47631835937499 24.820556640625  L 30.948486328125004 24.820556640625  C 30.606689453125 25.028076171875  28.726806640625 24.87548828125  28.17138671875 24.87548828125  L 21.280517578125 24.9853515625  C 20.718994140625 24.9853515625  18.79638671875 24.82666015625  18.448486328125004 25.040283203125  C 19.150390625000004 25.0341796875  19.870605468750004 25.16845703125  20.474853515625 25.308837890625  C 21.286621093750007 25.498046875  22.122802734375 25.455322265624993  22.879638671875 25.626220703124993  L 23.734130859375 25.681152343749996  C 24.99755859375 25.974121093749996  26.468505859375 25.974121093749996  27.738037109374996 26.267089843749996  C 28.549804687499996 26.456298828125  29.385986328125 26.413574218749996  30.142822265624996 26.590576171875  C 30.509033203124993 26.676025390624996  30.911865234375 26.56005859375  31.156005859375004 26.749267578125  L 31.052246093749993 26.749267578125  C 30.350341796874996 27.3779296875  29.019775390624996 27.82958984375  28.165283203125 28.3544921875  C 26.041259765625 29.654541015624993  23.807373046875 30.814208984374996  21.70166015625 32.144775390625  C 21.25 32.431640625  20.450439453125 32.88330078125001  20.206298828125 33.37158203125  C 20.04150390625 33.701171875  20.133056640625 34.4580078125  20.419921875 34.59838867187501  L 21.2744140625 34.59838867187501  L 36.173095703125 33.902587890625  L 36.173095703125 33.74389648437501  L 25.70556640625 32.94433593750001  L 25.70556640625 32.889404296875  Z M 54.78881835937499 27.573242187499993  C 54.78881835937499 12.473144531249998  42.551269531249986 0.22949218749999556  27.445068359375 0.22949218749999556  C 12.344970703124996 0.22949218749999556  0.10131835937499778 12.473144531249998  0.10131835937499778 27.573242187499993  C 0.10131835937499778 42.67333984374999  12.344970703124996 54.9169921875  27.445068359375 54.9169921875  C 42.545166015625 54.9169921875  54.78881835937499 42.67333984374999  54.78881835937499 27.573242187499993  Z M 44.25415039062501 23.905029296875  C 43.57666015625001 24.3505859375  43.15551757812501 25.101318359375  42.532958984375 25.571289062499996  C 42.0751953125 25.919189453124996  41.751708984375 26.407470703124996  41.30615234375 26.743164062499996  C 40.067138671875 27.683105468749993  38.98681640625 28.909912109374993  37.88818359375 30.00244140624999  C 37.515869140624986 30.374755859374993  35.916748046875 31.61987304687499  35.86181640624999 32.08374023437499  C 36.032714843749986 32.346191406249986  36.13647460937499 33.37158203125  36.17919921874999 33.73779296874999  C 36.65527343749999 33.72558593749999  37.528076171875 33.68286132812499  37.833251953125 33.89648437499999  L 36.22802734375 33.95141601562499  L 37.833251953125 43.2470703125  L 37.72949218749999 43.2470703125  C 37.23510742187499 42.764892578125  35.84960937499999 42.2705078125  35.16601562499999 41.910400390625  C 33.414306640624986 41.0009765625  31.650390624999993 40.103759765625  29.88037109374999 39.188232421875  C 29.27001953124999 38.870849609375  28.65356445312499 38.5595703125  28.012695312499993 38.22998046875  C 27.878417968749993 38.162841796875  27.57324218749999 37.857666015625  27.371826171874993 37.906494140625  C 27.29248046874999 37.930908203125  27.09106445312499 38.126220703125  26.999511718749993 38.175048828125  C 26.431884765624993 38.468017578125  25.87646484374999 38.748779296875  25.34545898437499 39.029541015625  C 23.435058593749986 40.0244140625  21.542968749999986 40.921630859375  19.632568359374986 41.910400390625  C 18.863525390624986 42.313232421875  17.911376953124986 42.996826171875  17.069091796874986 43.2470703125  L 19.046630859374986 31.8701171875  C 18.47290039062499 31.491699218750004  18.03344726562499 30.899658203125004  17.551269531249986 30.429687499999996  C 16.684570312499986 29.581298828125  15.793457031249986 28.647460937499993  14.829101562499984 27.921142578125  L 13.7060546875 26.7431640625  C 12.943115234375 26.169433593750004  12.296142578124996 25.437011718750004  11.624755859375 24.765625000000004  C 11.319580078125 24.460449218750004  10.904541015625 24.228515625  10.660400390625 23.856201171875004  C 11.319580078125 23.795166015625004  12.0703125 23.679199218750004  12.692871093749998 23.532714843750007  C 13.602294921874998 23.319091796875004  14.517822265624998 23.355712890625004  15.360107421874998 23.160400390625  C 16.605224609374996 22.867431640625  17.905273437499993 22.91015625  19.1015625 22.623291015625  C 19.803466796875 22.45849609375  21.842041015624996 22.45849609375  22.2509765625 22.141113281250004  C 22.50732421875 21.854248046875007  22.598876953125 21.427001953125004  22.7880859375 21.072998046875004  C 23.172607421875 20.328369140625004  23.55712890625 19.553222656250004  23.9599609375 18.778076171875  C 25.137939453125 16.513671875  26.322021484375 14.200439453125002  27.432861328125 11.887207031250004  C 27.4755859375 11.942138671875002  27.451171875 11.899414062500002  27.487792968749996 11.990966796875002  C 27.713623046875 12.186279296875002  27.7685546875 12.515869140625005  27.915039062499996 12.790527343750004  C 28.29345703125 13.522949218750005  28.647460937499993 14.279785156250004  29.038085937499993 15.036621093750005  L 32.66967773437501 22.18994140625  C 34.14672851562501 22.330322265625  35.8984375 22.550048828125  37.314453125 22.8857421875  C 38.5595703125 23.1787109375  39.85961914062501 23.135986328125  41.049804687500014 23.4228515625  C 41.76391601562501 23.59375  43.83300781250001 23.575439453125  44.25415039062501 23.905029296875  Z " fill-rule="nonzero" fill="#f5bf45" stroke="none" transform="matrix(1 0 0 1 1616 1920 )" />
  </g>
</svg>