<?xml version="1.0" encoding="utf-8"?>
<svg version="1.1" xmlns:xlink="http://www.w3.org/1999/xlink" width="25px" height="21px" xmlns="http://www.w3.org/2000/svg">
  <g transform="matrix(1 0 0 1 -1726 -1931 )">
    <path d="M 21.698288690476193 15.244140624999996  C 25.145321800595237 11.860351562499996  25.145321800595237 6.3745117187499964  21.698288690476193 2.9964192708333313  C 18.245442708333336 -0.38736979166666874  12.653459821428568 -0.38736979166666874  9.200613839285714 2.9964192708333313  L 2.7890159970238098 9.27978515625  C 0.10346912202380952 11.91162109375  -0.4778180803571429 15.813802083333332  1.0160900297619049 19.015299479166664  C 1.0335286458333335 19.04947916666667  1.0451543898809523 19.08365885416667  1.062593005952381 19.117838541666664  C 1.0684058779761947 19.12353515625  1.0684058779761947 19.129231770833336  1.07421875 19.140624999999996  C 1.4927455357142858 19.96663411458333  2.393740699404762 20.502115885416664  3.3935546875 20.428059895833332  C 4.701450892857143 20.325520833333332  5.683826264880952 19.203287760416668  5.5791945684523805 17.921549479166668  C 5.550130208333334 17.591145833333336  5.4571242559523805 17.28922526041666  5.311802455357143 17.015787760416664  C 4.649135044642857 15.5517578125  4.939778645833334 13.768717447916668  6.160481770833334 12.566731770833334  L 12.560453869047622 6.294759114583331  C 14.147367931547619 4.7395833333333295  16.728283110119055 4.7395833333333295  18.315197172619047 6.294759114583331  C 19.902111235119047 7.849934895833333  19.902111235119047 10.379231770833329  18.315197172619047 11.934407552083329  L 15.931919642857142 14.270019531249996  L 15.949358258928573 14.287109375  C 15.397135416666666 14.754231770833329  15.077427455357142 15.466308593749996  15.135556175595239 16.229654947916668  C 15.240187872023805 17.51139322916667  16.385323660714285 18.47412109375  17.693219866071427 18.371582031249996  C 18.321010044642858 18.326009114583332  18.867420014880953 18.041178385416664  19.2626953125 17.619628906249996  L 19.268508184523807 17.62532552083333  L 21.698288690476193 15.244140624999996  Z " fill-rule="nonzero" fill="#ffffff" stroke="none" transform="matrix(1 0 0 1 1726 1931 )" />
  </g>
</svg>