<?xml version="1.0" encoding="utf-8"?>
<svg version="1.1" xmlns:xlink="http://www.w3.org/1999/xlink" width="55px" height="55px" xmlns="http://www.w3.org/2000/svg">
  <g transform="matrix(1 0 0 1 -1784 -1805 )">
    <path d="M 22.785197402343748 35.12546049804688  C 23.377894750976562 34.15717104980469  23.065986850585936 33.052105249023434  22.089736850585936 32.637434199218745  C 21.124342099609372 32.23434209960937  19.87743419921875 32.64973685058594  19.282565800781246 33.57967104980469  C 18.679736850585936 34.51394734863281  18.962697402343743 35.62625  19.9201316015625 36.06118419921876  C 20.892763203125 36.50335524902344  22.18309215332031 36.08361839843751  22.785197402343748 35.12546049804688  Z M 24.770986796874997 32.58532895019532  C 24.979407900390623 32.2126316015625  24.844078950195314 31.792171049804686  24.46776314941406 31.65467104980469  C 24.097960498046874 31.508486850585943  23.634802597656247 31.685789448242193  23.41769734863281 32.048355249023444  C 23.207105249023435 32.41309209960938  23.3236183984375 32.82848685058594  23.694144697265624 32.98118419921875  C 24.07118414550781 33.13605259765625  24.55388154785156 32.956578950195315  24.770986796874997 32.58532895019532  Z M 34.97565790039063 31.47447364746094  C 34.57184209960938 27.4001316015625  29.19414475097656 24.59368419921875  22.9625 25.207368398437495  C 16.733749999999997 25.821776298828123  12.009539448242187 29.623289448242186  12.414802651367184 33.697631547851564  C 12.819342099609374 37.774868398437505  18.19703950195312 40.58131574707031  24.42723685058594 39.96835524902343  C 30.65743419921875 39.353947348632815  35.380197402343754 35.55243419921876  34.97565790039063 31.47447364746094  Z M 25.04888165527344 28.34453944824218  C 28.118026298828127 29.13480265136719  29.684078950195314 32.019407900390625  28.429210551757812 34.82078944824219  C 27.15769740234375 37.68657889648438  23.500197402343748 39.214276298828125  20.397763203125002 38.21703944824219  C 17.403157954101566 37.25381574707031  16.134539501953128 34.30625  17.44657900390625 31.651052597656246  C 18.73328955566406 29.047960498046873  22.084671103515625 27.575986796874997  25.04888165527344 28.34453944824218  Z M 55 27.5  C 55 12.312039448242187  42.68796055175781 0  27.5 0  C 12.312763149414062 0  0 12.312039448242187  0 27.5  C 0 42.68723685058594  12.312763149414062 55  27.5 55  C 42.68796055175781 55  55 42.68723685058594  55 27.5  Z M 41.51124989257813 32.067171103515626  C 41.50980265136719 36.77256580078125  34.70210524902344 42.69881580078126  24.467039448242186 42.69881580078126  C 16.65993419921875 42.69881580078126  8.679144697265626 38.92842104980469  8.679144697265626 32.72644740234375  C 8.679144697265626 29.484342153320313  10.740920996093752 25.734210551757815  14.290592045898437 22.195394750976565  C 19.03072364746094 17.4726316015625  24.558223647460938 15.321118452148442  26.637368344726564 17.39375  C 27.554999946289062 18.30703944824219  27.64401309570313 19.889013149414065  27.05421044433594 21.777828950195314  C 26.74664464355469 22.728026298828127  27.949407792968753 22.201907900390626  27.949407792968753 22.204078950195314  C 31.781315693359378 20.605460551757815  35.12328939453125 20.5113816015625  36.3455919921875 22.25039475097656  C 36.997631440429686 23.176710551757814  36.93394724121094 24.477894750976567  36.33401304199218 25.983881601562498  C 36.05611829101562 26.677894750976566  36.41940779296874 26.785723701171875  36.949868291015626 26.944210551757813  C 39.10789458984375 27.611447402343753  41.51124989257813 29.224539501953124  41.51124989257813 32.067171103515626  Z M 38.60059209960937 22.97769734863281  C 38.85388154785156 22.201184199218755  38.695394750976554 21.314671049804687  38.106315800781246 20.664802597656255  C 37.51796055175781 20.016381547851562  36.64881580078125 19.76960524902344  35.84842104980468 19.938223647460937  L 35.84842104980468 19.936776298828125  C 35.179013149414054 20.08151314941406  34.520460498046866 19.65381574707031  34.37717104980468 18.988026298828125  C 34.233881601562494 18.3186183984375  34.66085524902343 17.66151314941406  35.330263149414044 17.51967104980469  C 36.97013154785155 17.17230265136719  38.74605259765624 17.67743419921875  39.94881580078124 19.008289448242188  C 41.15447370117186 20.33842104980469  41.477236850585925 22.149802597656254  40.96124999999999 23.73828944824219  C 40.751381601562485 24.38815784667969  40.0515789501953 24.74421049804688  39.40026314941406 24.53578944824219  C 38.74822370117187 24.325197348632816  38.3914473486328 23.626842099609377  38.60131580078124 22.97842104980469  Z M 43.745986796875 15.59467099609375  C 46.2173683984375 18.321513149414063  46.8838816015625 22.041973701171877  45.82947370117188 25.30506580078125  C 45.82875 25.30578950195312  45.82875 25.309407900390628  45.82875 25.31085524902344  C 45.58342104980469 26.064210498046876  44.77 26.476710498046877  44.01447370117187 26.232828950195316  C 43.25532895019531 25.98822370117188  42.840657900390624 25.180592099609374  43.08526314941407 24.424342099609376  C 43.83717104980469 22.104934199218754  43.36026314941407 19.459144697265625  41.60460524902344 17.51822364746094  C 39.847500000000004 15.578026298828126  37.25671049804688 14.836973647460939  34.863486850585936 15.34355259765625  C 34.08552629882813 15.509276298828125  33.31914475097656 15.014276298828127  33.15342104980469 14.238486796875002  C 32.98697370117188 13.4648683984375  33.48342104980469 12.70065784667969  34.26210524902344 12.534934145507815  L 34.26355259765625 12.534934145507815  C 37.627236796875 11.822105195312501  41.273881547851566 12.863486796875002  43.745986796875 15.59467099609375  Z " fill-rule="nonzero" fill="#f1515b" stroke="none" transform="matrix(1 0 0 1 1784 1805 )" />
  </g>
</svg>