<?xml version="1.0" encoding="utf-8"?>
<svg version="1.1" xmlns:xlink="http://www.w3.org/1999/xlink" width="55px" height="55px" xmlns="http://www.w3.org/2000/svg">
  <g transform="matrix(1 0 0 1 -1705 -1805 )">
    <path d="M 55 27.5  C 55 12.3118518359375  42.688148164062504 0  27.5 0  C 12.3118518359375 0  0 12.3118518359375  0 27.5  C 0 42.688148164062504  12.3118518359375 55  27.5 55  C 42.688148164062504 55  55 42.688148164062504  55 27.5  Z M 34 11.727222246093746  C 34.84453704101563 11.726203725585938  37.279814794921876 12.648981479492187  39.81490739746095 15.185092602539063  C 42.35101852050781 17.721203725585937  43.369537041015626 20.05972224609375  43.369537041015626 20.05972224609375  L 34 28.48796301269531  L 34 11.727222246093746  Z M 21.5406481640625 11.153796274414063  C 21.5406481640625 11.153796274414063  23.91379627441406 10.083333315429687  27.5 10.083333315429687  C 31.08722224609375 10.083333315429687  33.46037035644532 11.016296274414062  33 11.016296274414062  L 33 22.937037041015625  L 21.5406481640625 11.153796274414063  Z M 11.728240766601559 21  C 11.72722224609375 20.15546295898438  12.648981479492187 17.721203725585937  15.185092602539063 15.185092602539063  C 17.72222224609375 12.648981479492187  20.05972224609375 11.630462958984372  20.05972224609375 11.630462958984372  L 28.48796301269531 21  L 11.728240766601559 21  Z M 11.15277775390625 33.459351835937504  C 11.15277775390625 33.459351835937504  10.083333315429687 31.08620372558594  10.083333315429687 27.5  C 10.083333315429687 23.91379627441406  11.017314794921873 21.5406481640625  11.017314794921873 22  L 22.937037041015625 22  L 11.15277775390625 33.459351835937504  Z M 21 43.272777753906254  C 20.15546295898438 43.27277775390625  17.721203725585937 42.35101852050781  15.185092602539063 39.81490739746095  C 12.648981479492187 37.27879627441407  11.630462958984372 34.94027775390625  11.630462958984372 34.94027775390625  L 21 26.51203698730469  L 21 43.272777753906254  Z M 33.45935188964844 43.84722219238281  C 33.46037035644532 43.84722224609375  31.08722224609375 44.91666668457031  27.5 44.91666668457031  C 23.91277775390625 44.91666668457031  21.539629643554683 43.98370372558593  22 43.98370372558593  L 22 32.06296295898437  L 33.45935188964844 43.84722219238281  Z M 43.272777753906254 34  C 43.27379627441406 34.84453704101563  42.35101852050781 37.27879627441406  39.81490739746095 39.81490739746095  C 37.27879627441407 42.35101852050781  34.94027775390625 43.369537041015626  34.94027775390625 43.369537041015626  L 26.51203698730469 34  L 43.272777753906254 34  Z M 44.91666668457031 27.498981479492187  C 44.91666668457031 31.08620372558594  43.98268520507812 33.459351835937504  43.98268520507812 33  L 32.06296295898437 33  L 43.84722224609375 21.53962964355469  C 43.84722224609375 21.53962964355469  44.91666668457031 23.91277780761719  44.91666668457031 27.498981479492187  Z " fill-rule="nonzero" fill="#06c060" stroke="none" transform="matrix(1 0 0 1 1705 1805 )" />
  </g>
</svg>