<?xml version="1.0" encoding="utf-8"?>
<svg version="1.1" xmlns:xlink="http://www.w3.org/1999/xlink" width="8px" height="14px" xmlns="http://www.w3.org/2000/svg">
  <g transform="matrix(1 0 0 1 -2082 -2350 )">
    <path d="M 7.732142857142857 13.4453125  C 7.625 13.4921875  7.517857142857143 13.5390625  7.4375 13.5390625  C 7.330357142857145 13.5390625  7.223214285714287 13.515625  7.142857142857143 13.4453125  L 0.20535714285714388 7.351562499999999  C 0.09821428571428623 7.2578125  0.04464285714285816 7.1171875  0.04464285714285816 7  C 0.04464285714285816 6.8828125  0.09821428571428623 6.7421875  0.20535714285714388 6.6484375  L 7.142857142857143 0.5546875  C 7.303571428571429 0.4140625  7.544642857142857 0.4140625  7.705357142857143 0.5546875  C 7.866071428571431 0.6953125  7.866071428571431 0.9062500000000001  7.705357142857143 1.046875  L 0.9285714285714286 7  L 7.732142857142857 12.953125  C 7.892857142857143 13.09375  7.892857142857143 13.3046875  7.732142857142857 13.4453125  Z " fill-rule="nonzero" fill="#3e3a39" stroke="none" transform="matrix(1 0 0 1 2082 2350 )" />
  </g>
</svg>