<?xml version="1.0" encoding="utf-8"?>
<svg version="1.1" xmlns:xlink="http://www.w3.org/1999/xlink" width="55px" height="42px" xmlns="http://www.w3.org/2000/svg">
  <defs>
    <mask fill="white" id="clip6713">
      <path d="M 0 35  L 0 0  L 55 0  L 55 35  L 8.351091164479726 35  L 5.17153307687454 42  L 1.8333333333333375 35  L 0 35  Z " fill-rule="evenodd" />
    </mask>
  </defs>
  <g transform="matrix(1 0 0 1 -2608 -420 )">
    <path d="M 0 35  L 0 0  L 55 0  L 55 35  L 8.351091164479726 35  L 5.17153307687454 42  L 1.8333333333333375 35  L 0 35  Z " fill-rule="nonzero" fill="#000000" stroke="none" transform="matrix(1 0 0 1 2608 420 )" />
    <path d="M 0 35  L 0 0  L 55 0  L 55 35  L 8.351091164479726 35  L 5.17153307687454 42  L 1.8333333333333375 35  L 0 35  Z " stroke-width="2" stroke="#000000" fill="none" transform="matrix(1 0 0 1 2608 420 )" mask="url(#clip6713)" />
  </g>
</svg>