<?xml version="1.0" encoding="utf-8"?>
<svg version="1.1" xmlns:xlink="http://www.w3.org/1999/xlink" width="34px" height="34px" preserveAspectRatio="xMinYMid meet" viewBox="621 595  34 32" xmlns="http://www.w3.org/2000/svg">
  <path d="M 537 375  L 582 375  A 5 5 0 0 1 587 380 L 587 606  A 5 5 0 0 0 592 611 L 638 611  " stroke-width="2" stroke="#0066ff" fill="none" />
  <path d="M 538.5 371.5  A 3.5 3.5 0 0 0 535 375 A 3.5 3.5 0 0 0 538.5 378.5 A 3.5 3.5 0 0 0 542 375 A 3.5 3.5 0 0 0 538.5 371.5 Z M 630.6 619  L 640 611  L 630.6 603  L 634.2 611  L 630.6 619  Z " fill-rule="nonzero" fill="#0066ff" stroke="none" />
</svg>