<?xml version="1.0" encoding="utf-8"?>
<svg version="1.1" xmlns:xlink="http://www.w3.org/1999/xlink" width="19px" height="20px" xmlns="http://www.w3.org/2000/svg">
  <g transform="matrix(1 0 0 1 -499 -235 )">
    <path d="M 18.995432692307695 15.172018348623853  L 16.63185096153846 15.172018348623853  L 16.63185096153846 12.798165137614678  L 14.275120192307694 12.798165137614678  L 14.275120192307694 15.172018348623853  L 11.911538461538461 15.172018348623853  L 11.911538461538461 17.538990825688074  L 14.275120192307694 17.538990825688074  L 14.275120192307694 19.912844036697248  L 16.63185096153846 19.912844036697248  L 16.63185096153846 17.538990825688074  L 18.995432692307695 17.538990825688074  L 18.995432692307695 15.172018348623853  Z M 13.128725961538464 13.036697247706421  L 14.800360576923078 10.986238532110091  C 14.295673076923077 10.642201834862385  13.756730769230769 10.34862385321101  13.18810096153846 10.107798165137616  C 12.93689903846154 10.000000000000002  12.681129807692308 9.905963302752294  12.423076923076923 9.821100917431194  C 13.868629807692308 8.889908256880734  14.825480769230769 7.261467889908257  14.825480769230769 5.410550458715598  C 14.825480769230769 2.5183486238532122  12.49158653846154 0.17431192660550512  9.61189903846154 0.17431192660550512  C 6.732211538461543 0.17431192660550512  4.396033653846154 2.518348623853211  4.396033653846154 5.410550458715596  C 4.396033653846154 7.236238532110092  5.3254807692307695 8.841743119266054  6.734495192307692 9.779816513761467  C 6.43076923076923 9.873853211009175  6.131610576923077 9.98394495412844  5.83701923076923 10.107798165137613  C 4.713461538461538 10.584862385321099  3.704086538461537 11.26834862385321  2.8385817307692296 12.13761467889908  C 1.9730769230769227 13.006880733944952  1.292548076923076 14.02064220183486  0.8175480769230759 15.149082568807339  C 0.3242788461538453 16.318807339449542  0.07536057692307588 17.559633027522935  0.07536057692307588 18.839449541284402  L 0.07536057692307588 19.940366972477065  L 2.6947115384615383 19.940366972477065  L 2.6947115384615383 18.839449541284402  C 2.6947115384615383 15.061926605504588  5.754807692307692 11.990825688073395  9.513701923076924 11.990825688073395  C 10.840504807692309 11.990825688073395  12.080528846153847 12.373853211009173  13.128725961538464 13.036697247706421  Z M 12.254086538461538 5.410550458715596  C 12.254086538461538 6.119266055045872  11.977764423076923 6.78440366972477  11.479927884615385 7.286697247706422  C 10.979807692307693 7.788990825688073  10.31754807692308 8.064220183486238  9.61189903846154 8.064220183486238  C 8.906250000000002 8.064220183486238  8.241706730769232 7.788990825688073  7.743870192307694 7.286697247706422  C 7.243750000000003 6.784403669724771  6.969711538461541 6.119266055045872  6.969711538461541 5.410550458715596  C 6.969711538461541 4.7018348623853194  7.243750000000003 4.03440366972477  7.743870192307694 3.53440366972477  C 8.243990384615387 3.0321100917431183  8.906250000000002 2.756880733944953  9.61189903846154 2.756880733944953  C 10.317548076923082 2.756880733944953  10.982091346153847 3.0321100917431183  11.479927884615385 3.53440366972477  C 11.980048076923078 4.036697247706421  12.254086538461538 4.7018348623853194  12.254086538461538 5.410550458715596  Z " fill-rule="nonzero" fill="#555555" stroke="none" transform="matrix(1 0 0 1 499 235 )" />
  </g>
</svg>