<?xml version="1.0" encoding="utf-8"?>
<svg version="1.1" xmlns:xlink="http://www.w3.org/1999/xlink" width="25px" height="25px" xmlns="http://www.w3.org/2000/svg">
  <g transform="matrix(1 0 0 1 -470 -1113 )">
    <path d="M 12.486885245901641 2.220036424180326  C 6.85337959706775 2.220036424180326  2.286520940061475 6.786895081186602  2.286520940061475 12.420400730020493  C 2.286520940061475 18.053906378854382  6.85337959706775 22.620765035860657  12.486885245901641 22.620765035860657  C 18.12039089473553 22.620765035860657  22.687249551741807 18.053906378854382  22.687249551741807 12.420400730020493  C 22.687249551741807 6.786895081186602  18.12039089473553 2.220036424180326  12.486885245901641 2.220036424180326  Z M 0.10129185188435211 12.420400730020493  C 0.10129185188435211 5.579935265727089  5.646419788681328 0.03455515611047978  12.48688524590164 0.03424408299180308  C 19.328133943932755 0.03424407018442552  24.873605171526243 5.579715297777914  24.873605171526243 12.420400730020493  C 24.873605171526243 19.26108616226307  19.328133943932755 24.806557389856557  12.487448511690179 24.806557389856557  C 5.6464197886813245 24.806246303930507  0.10129185188435211 19.2608661943139  0.10129185188435211 12.420400730020493  Z M 8.635519134221314 10.649908861213085  C 7.658508320251587 10.649908861213085  6.866484557805719 9.857885122371366  6.866484528688526 8.880874308401639  C 6.866484528688526 7.903863473842948  7.658508299662621 7.111839702868851  8.635519134221312 7.111839702868851  C 9.612529968780004 7.111839702868851  10.404553739754098 7.903863473842948  10.404553739754098 8.880874308401639  C 10.404553739754101 9.857885090238991  9.612529968780006 10.649908861213085  8.635519134221314 10.649908861213085  Z M 16.337522758709017 10.650637512807378  C 15.360109530104053 10.650637512807378  14.567759554303281 9.858287537006607  14.567759554303281 8.880874308401639  C 14.567759554303278 7.90346107979667  15.360109530104053 7.1111111039959  16.337522758709017 7.1111111039959  C 17.314935987313984 7.1111111039959  18.10728596311476 7.903461079796672  18.10728596311476 8.880874308401639  C 18.10728596311476 9.858287537006607  17.314935987313984 10.650637512807378  16.337522758709017 10.650637512807378  Z M 12.46211293545082 19.283788703893443  C 8.870127510245903 19.283788703893443  6.445355199795082 15.936612013319673  6.445355199795082 13  L 18.61876137295082 13  C 18.61876137295082 15.936612013319673  16.055555532786887 19.283788703893443  12.46211293545082 19.283788703893443  Z " fill-rule="nonzero" fill="#333333" stroke="none" transform="matrix(1 0 0 1 470 1113 )" />
  </g>
</svg>