<?xml version="1.0" encoding="utf-8"?>
<svg version="1.1" xmlns:xlink="http://www.w3.org/1999/xlink" width="25px" height="25px" xmlns="http://www.w3.org/2000/svg">
  <g transform="matrix(1 0 0 1 -500 -1113 )">
    <path d="M 24.212132045200892 12.5  C 24.212132045200892 10.919224330357142  23.902369907924108 9.385323660714286  23.29142543247768 7.94085693359375  C 22.701485770089285 6.546090262276784  21.857107979910715 5.293622698102678  20.781755719866073 4.218270438058036  C 19.706403459821427 3.1429181780133923  18.453935895647323 2.298540387834821  17.05914306640625 1.708600725446428  C 15.614676339285714 1.0976300920758923  14.080775669642856 0.7878417968749996  12.5 0.7878417968749996  C 10.919224330357142 0.7878417968749996  9.385323660714286 1.0976300920758928  7.94085693359375 1.7085745675223214  C 6.546090262276784 2.2985142299107144  5.293622698102678 3.142892020089285  4.218270438058036 4.218244280133928  C 3.1429181780133923 5.293596540178572  2.298540387834821 6.546064104352678  1.708600725446428 7.940830775669642  C 1.0976300920758923 9.385323660714286  0.7878417968749996 10.919224330357142  0.7878417968749996 12.5  C 0.7878417968749996 14.080775669642856  1.0976300920758923 15.614676339285714  1.7085745675223207 17.05914306640625  C 2.298514229910714 18.453909737723215  3.142892020089285 19.70637730189732  4.218244280133928 20.781755719866073  C 5.29359654017857 21.857107979910715  6.546064104352678 22.701511928013392  7.940830775669642 23.29142543247768  C 9.38529750279018 23.902369907924108  10.919224330357142 24.212158203124996  12.499973842075894 24.212158203124996  C 14.080723353794644 24.212158203124996  15.614650181361608 23.902369907924108  17.059116908482146 23.29142543247768  C 18.45388357979911 22.701485770089285  19.706351143973215 21.857107979910715  20.781729561941965 20.781755719866073  C 21.857107979910715 19.706403459821427  22.701485770089285 18.453935895647323  23.29139927455357 17.05914306640625  C 23.90234375 15.614676339285714  24.212132045200892 14.080775669642856  24.212132045200892 12.5  Z M 22.551234654017854 12.5  C 22.551234654017854 18.042262486049104  18.042262486049104 22.551234654017854  12.5 22.551234654017854  C 6.957737513950893 22.551234654017854  2.4487653459821423 18.042262486049104  2.4487653459821423 12.499999999999998  C 2.4487653459821423 6.9577375139508915  6.957737513950893 2.448765345982143  12.5 2.448765345982143  C 18.042262486049104 2.448765345982143  22.551234654017854 6.957737513950893  22.551234654017854 12.5  Z M 19.196428571428573 12.5  C 19.196428571428573 12.037711007254464  18.86851283482143 11.662946428571429  18.464006696428573 11.662946428571429  L 13.337053571428573 11.662946428571429  L 13.337053571428573 6.535993303571429  C 13.337053571428573 6.131487165178571  12.962288992745535 5.803571428571429  12.5 5.803571428571429  C 12.037711007254464 5.803571428571429  11.662946428571429 6.131487165178571  11.662946428571429 6.535993303571429  L 11.662946428571429 11.662946428571429  L 6.535993303571429 11.662946428571429  C 6.131487165178571 11.662946428571429  5.803571428571429 12.037711007254464  5.803571428571429 12.5  C 5.803571428571429 12.962288992745535  6.131487165178571 13.337053571428573  6.535993303571429 13.337053571428573  L 11.662946428571429 13.337053571428573  L 11.662946428571429 18.464006696428573  C 11.662946428571429 18.86851283482143  12.037711007254464 19.196428571428573  12.5 19.196428571428573  C 12.962288992745535 19.196428571428573  13.337053571428573 18.86851283482143  13.337053571428573 18.464006696428573  L 13.337053571428573 13.337053571428573  L 18.464006696428573 13.337053571428573  C 18.86851283482143 13.337053571428573  19.196428571428573 12.962288992745535  19.196428571428573 12.5  Z " fill-rule="nonzero" fill="#000000" stroke="none" transform="matrix(1 0 0 1 500 1113 )" />
  </g>
</svg>