<?xml version="1.0" encoding="utf-8"?>
<svg version="1.1" xmlns:xlink="http://www.w3.org/1999/xlink" width="25px" height="25px" xmlns="http://www.w3.org/2000/svg">
  <g transform="matrix(1 0 0 1 -180 -1113 )">
    <path d="M 192.5 1113  C 199.5 1113  205 1118.5  205 1125.5  C 205 1132.5  199.5 1138  192.5 1138  C 185.5 1138  180 1132.5  180 1125.5  C 180 1118.5  185.5 1113  192.5 1113  Z " fill-rule="nonzero" fill="#ffffff" stroke="none" fill-opacity="0" />
    <path d="M 192.5 1113.5  C 199.22 1113.5  204.5 1118.78  204.5 1125.5  C 204.5 1132.22  199.22 1137.5  192.5 1137.5  C 185.78 1137.5  180.5 1132.22  180.5 1125.5  C 180.5 1118.78  185.78 1113.5  192.5 1113.5  Z " stroke-width="1" stroke="#000000" fill="none" />
  </g>
</svg>