<?xml version="1.0" encoding="utf-8"?>
<svg version="1.1" xmlns:xlink="http://www.w3.org/1999/xlink" width="10px" height="8px" xmlns="http://www.w3.org/2000/svg">
  <g transform="matrix(1 0 0 1 -187 -1126 )">
    <path d="M 5.547008541666667 5.367208075757575  C 8.004991442307691 5.108880803030302  9.923076923076923 3.1348363636363628  9.923076923076923 0.7431757575757584  L 9.923076923076923 0.6138828333333346  C 9.923076923076922 0.32825677950093407  9.678172853412477 0.09671111363636589  9.376068373397436 0.09671111363636589  C 9.073963893382397 0.09671111363636589  8.829059823717952 0.32825677950093324  8.829059823717952 0.6138828333333346  L 8.82905982371795 0.7431757575757584  C 8.82905982371795 2.7394585909090923  7.111452980769232 4.363377772727273  5 4.363377772727273  C 2.888547019230768 4.363377772727273  1.1709401762820513 2.7394585757575753  1.1709401762820513 0.7431757575757584  L 1.1709401762820513 0.6138828333333346  C 1.1709401762820513 0.32825677950093324  0.9260361066176059 0.09671111363636589  0.6239316266025646 0.09671111363636589  C 0.3218271465875238 0.09671111363636589  0.07692307692307757 0.32825677950093324  0.07692307692307757 0.6138828333333346  L 0.07692307692307711 0.7431757575757584  C 0.07692307692307711 3.134577772727274  1.995008541666667 5.108880803030304  4.452991458333334 5.367208075757575  L 4.452991458333334 6.949494954545454  L 1.7179487179487187 6.949494954545454  C 1.4158442423590365 6.949494954545454  1.1709401762820513 7.1810406170182395  1.1709401762820513 7.466666666666666  C 1.1709401762820513 7.752292716315093  1.4158442423590365 7.983838378787878  1.7179487179487187 7.983838378787878  L 8.282051282051281 7.983838378787878  C 8.584155757640964 7.983838378787878  8.82905982371795 7.752292716315093  8.82905982371795 7.466666666666666  C 8.82905982371795 7.1810406170182395  8.584155757640964 6.949494954545454  8.282051282051281 6.949494954545454  L 5.547008541666667 6.949494954545454  L 5.547008541666667 5.367208075757575  Z " fill-rule="nonzero" fill="#040000" stroke="none" transform="matrix(1 0 0 1 187 1126 )" />
  </g>
</svg>