<?xml version="1.0" encoding="utf-8"?>
<svg version="1.1" xmlns:xlink="http://www.w3.org/1999/xlink" width="21px" height="25px" xmlns="http://www.w3.org/2000/svg">
  <g transform="matrix(1 0 0 1 -1780 -418 )">
    <path d="M 16.22745283018868 18.7913818359375  C 19.074250343404145 18.00280001189689  21.02549241623249 15.423192017452806  20.98004009433962 12.50830078125  C 20.976139331972053 9.633224982227812  19.034939712533497 7.110819896271103  16.22745283018868 6.332763671875  C 16.161401964900925 6.316633675814639  16.09360715366438 6.308478966084595  16.02556004681591 6.308478966084595  C 15.561818656175856 6.308478966084595  15.185881980778177 6.679101060505673  15.185881980778177 7.136286583272096  C 15.185881980778177 7.144390933914901  15.186002701458937 7.1524948475975805  15.186244103773586 7.160595703125  C 15.169867421165545 7.538382414477648  15.41523914703494 7.879090340816132  15.782416273584905 7.9884033203125  C 17.860187067688983 8.565388270024282  19.29544222678421 10.433976848138249  19.29544222678421 12.5620849609375  C 19.29544222678421 14.690193073736749  17.860187067688983 16.55878165185072  15.782416273584905 17.1357666015625  C 15.415239147034946 17.245079581058867  15.169867421165545 17.585787507397356  15.186244103773586 17.96357421875  C 15.186003189732288 17.9716668832554  15.185882713267109 17.97976259664171  15.185882713267109 17.9878587456628  C 15.185882713267109 18.44504426842922  15.56181938866479 18.815666362850298  16.025560779304843 18.815666362850298  C 16.093607633681838 18.815666362850298  16.161402195261882 18.807511713630458  16.22745283018868 18.7913818359375  Z M 13.481653301886793 0.546337890625  C 13.389283018867925 0.1904052734375001  13.179382075471697 0  12.902271226415092 0  C 12.644157960200422 0.022140179168645198  12.401353181646957 0.130152138094899  12.213728773584906 0.3062988281250001  L 11.945037735849056 0.5380859375000001  L 9.224448113207545 2.7235107421875  L 5.353514150943396 5.8609374999999995  L 1.868826650943396 5.8609374999999995  C 0.9413398637168133 5.8609374999005865  0.1894594314372822 6.602177739626776  0.18944575471698127 7.516552734375  L 0.18944575471698127 17.301318359375  C 0.18944575471698127 18.215702888422246  0.9413301928003769 18.9569580078125  1.8688266509433962 18.956958007812503  L 5.135193396226415 18.956958007812503  L 9.106892688679245 22.177172851562503  L 11.861062500000001 24.403979492187503  L 12.222123820754717 24.693701171875  C 12.409748228816767 24.8698478619051  12.652553007370232 24.977859820831355  12.910666273584907 25  C 13.204567216981134 25  13.40609787735849 24.784765625  13.481653301886793 24.403979492187503  C 13.491552036028143 24.302113072031382  13.491552036028143 24.19954708421862  13.481653301886793 24.097680664062498  L 13.481653301886793 0.910595703125  C 13.495242816312187 0.7895459995476241  13.495242816312187 0.6673875942023761  13.481653301886793 0.546337890625  Z M 11.827482311320756 22.235107421875  L 7.7466226415094335 18.923828125  L 5.7397606132075465 17.268212890625  L 1.8688266509433962 17.268212890625  L 1.8688266509433962 7.516552734375  L 5.949686320754717 7.516552734375  L 7.8977582547169805 5.9437011718749995  L 11.827482311320756 2.756616210937499  L 11.827482311320756 22.235107421875  Z " fill-rule="nonzero" fill="#ffffff" stroke="none" transform="matrix(1 0 0 1 1780 418 )" />
  </g>
</svg>