<?xml version="1.0" encoding="utf-8"?>
<svg version="1.1" xmlns:xlink="http://www.w3.org/1999/xlink" width="20px" height="11px" xmlns="http://www.w3.org/2000/svg">
  <g transform="matrix(1 0 0 1 -1847 -687 )">
    <path d="M 19.863228788504443 0.9044549185907853  C 19.863345483401666 0.6404589393344222  19.73547614161958 0.39229137849452717  19.51911690890527 0.2366059672628721  C 19.30282124596501 0.08091544231074144  19.024104272697834 0.036309398175374354  18.768925041406696 0.11654477701897034  L 13.85763718994139 1.661074702222222  L 13.857637189941387 0.904454918590784  C 13.857637189941387 0.44768366246322683  13.48187100140207 0.07739739750677464  13.018339916959729 0  L 0.882241304443184 0  C 0.41871022756175724 0.07739740804358815  0.04294405082246172 0.447683669913879  0.04294405082246173 0.9044549185907853  L 0.04294405082246172 10.10395351241192  C 0.04294406151521164 10.560724753638175  0.4187102351226735 10.931011003880526  0.882241304443184 11  L 13.018339916959729 11  C 13.481870993841156 10.931011014417347  13.857637179248638 10.56072476108883  13.857637189941393 10.103953512411923  L 13.857637189941393 9.347471571598915  L 18.768785158631125 10.891863634905148  C 18.85111010765239 10.917669186135184  18.93698263972186 10.930803718732049  19.023372337318524 10.930803718732049  C 19.486911800648322 10.930803718732049  19.862803852375862 10.560732833301413  19.863228788504443 10.10395351241192  L 19.863228788504443 0.9044549185907853  Z M 12.179042663339006 1.731512420596206  L 12.179042663339006 9.276895991327914  L 1.721538577424844 9.276895991327914  L 1.721538577424844 1.731512420596206  L 12.179042663339006 1.731512420596206  Z M 18.184774144677633 2.0365588067208673  L 18.184774144677633 8.971849605203252  L 13.982832370882965 7.650487393821139  L 13.982832370882965 3.357921037181572  L 18.184774144677633 2.0365588067208673  Z " fill-rule="nonzero" fill="#ffffff" stroke="none" transform="matrix(1 0 0 1 1847 687 )" />
  </g>
</svg>