<?xml version="1.0" encoding="utf-8"?>
<svg version="1.1" xmlns:xlink="http://www.w3.org/1999/xlink" width="8px" height="22px" xmlns="http://www.w3.org/2000/svg">
  <g transform="matrix(1 0 0 1 -1797 -420 )">
    <path d="M 1.2810952380952363 0.17690848214285781  L 1.2810952380952418 0.18523214285714276  C 1.1705131611579391 0.12935141977283623  1.0490002720281653 0.10029945419864043  0.9258553713090475 0.10029945419864043  C 0.4824983948640698 0.10029945419864043  0.12210085745483584 0.4690124270604883  0.11857142857142901 0.9262098214285712  C 0.11945329304787611 1.2464507973267136  0.2983748178625444 1.537783817989302  0.5787380952380956 1.6754866071428565  C 4.012554052581241 3.4130617675661483  6.18865493327779 7.013915407090498  6.18865493327779 10.958369419642858  C 6.18865493327779 14.902823432195225  4.012554052581241 18.50367707171957  0.5787380952380956 20.24125223214286  C 0.2983748178625444 20.378955021296417  0.11945329304787611 20.670288041958997  0.11857142857142901 20.990529017857146  C 0.11853231893002744 20.993874353103987  0.11851276357643992 20.99721990107484  0.11851276357643992 21.000565479435792  C 0.11851276357643992 21.460363490903738  0.479957548992805 21.833103425864362  0.9258222873859646 21.833103425864362  C 1.048979629814607 21.833103425864362  1.170504462002625 21.804045591509286  1.2810952380952363 21.74815401785714  C 5.276431042532378 19.734082679237673  7.810029968814753 15.548646097163267  7.810029968814753 10.96253125  C 7.810029968814753 6.376416402836729  5.276431042532378 2.1909798207623243  1.2810952380952363 0.17690848214285781  Z " fill-rule="nonzero" fill="#ffffff" stroke="none" transform="matrix(1 0 0 1 1797 420 )" />
  </g>
</svg>