<?xml version="1.0" encoding="utf-8"?>
<svg version="1.1" xmlns:xlink="http://www.w3.org/1999/xlink" width="7px" height="18px" xmlns="http://www.w3.org/2000/svg">
  <g transform="matrix(1 0 0 1 -1860 -359 )">
    <path d="M 1.1209644791666662 0.14474929017857086  L 1.1209644791666662 0.1515610245535714  C 1.0242038806632698 0.10583950297857733  0.9178785666466069 0.08206921803765607  0.8101252036698081 0.08206921803765607  C 0.4221905084571276 0.08206921803765607  0.10684250487641833 0.3837371355075484  0.10374593750000116 0.7578051026785715  C 0.10451513031550992 1.0198247835718748  0.26107305867336805 1.2581930674068764  0.5063949374999979 1.3708609352678565  C 3.5109709476640374 2.792520837726706  5.415047873538147 5.738668702098212  5.415047873538147 8.965941348214283  C 5.415047873538147 12.193213994330353  3.5109709476640374 15.13936185870186  0.5063949374999979 16.561021761160713  C 0.26107306544190106 16.673689625886265  0.1045151383188454 16.912057900030103  0.10374593750000116 17.174077573660714  C 0.10371181580845483 17.17681070626687  0.10369475449911174 17.17954401216228  0.10369475449911174 17.182277342814466  C 0.10369475449911174 17.558478877910442  0.4199616000477301 17.863450478975178  0.8100965253324451 17.863450478975178  C 0.9178606732469419 17.863450478975178  1.0241963399467242 17.839675437071666  1.1209644791666662 17.79394512053571  C 4.616879733071295 16.146067001290703  6.833775774758093 12.721620581585952  6.833775774758093 8.96934720535714  C 6.833775774758093 5.217073829128327  4.616879733071299 1.7926274094235812  1.1209644791666662 0.14474929017857086  Z " fill-rule="nonzero" fill="#ffffff" stroke="none" transform="matrix(1 0 0 1 1860 359 )" />
  </g>
</svg>