<?xml version="1.0" encoding="utf-8"?>
<svg version="1.1" xmlns:xlink="http://www.w3.org/1999/xlink" width="17px" height="20px" xmlns="http://www.w3.org/2000/svg">
  <g transform="matrix(1 0 0 1 -1847 -358 )">
    <path d="M 13.13649223349057 15.033112578125001  C 15.441059615400302 14.402250624842862  17.02064929932236 12.338550443991208  16.983849478773585 10.00662251953125  C 16.9806701662426 7.706568297465825  15.40921553712239 5.688660988301849  13.136492233490568 5.066225156249999  C 13.083024257276794 5.053322178869618  13.02814468948218 5.046798932856094  12.973060907808716 5.046798932856094  C 12.597648055176252 5.046798932856094  12.293315807572865 5.343299100557922  12.293315807572865 5.709050593012344  C 12.293315807572865 5.71552704594045  12.293413321278159 5.722003150441876  12.293608317216982 5.72847681640625  C 12.280350815524741 6.030708560718332  12.478986448571682 6.303277137368695  12.776227331367926 6.390728476562499  C 14.458228063292001 6.85231774590786  15.620097554737614 8.347185967142805  15.620097554737614 10.049668876953126  C 15.620097554737614 11.752151786763445  14.458228063292001 13.247020007998389  12.776227331367926 13.70860927734375  C 12.478986456066636 13.796060614743212  12.28035082489443 14.068629180782414  12.293608317216982 14.37086091796875  C 12.293413321278159 14.377334583933125  12.293315807572865 14.38381068843455  12.293315807572865 14.390287141362656  C 12.293315807572865 14.756038633817077  12.597648055176252 15.052538801518907  12.973060907808716 15.052538801518907  C 13.028144689482179 15.052538801518907  13.083024257276795 15.046015555505383  13.13649223349057 15.033112578125001  Z M 10.913725774764151 0.43708609375000007  C 10.838953820754718 0.15231789062500004  10.669017530660376 0  10.444701668632076 0  C 10.235753750493428 0.0177104746690725  10.039197750491551 0.10411791235272905  9.887310680424529 0.24503310546875007  L 9.66979225235849 0.4304635742187501  L 7.467418135613208 2.17880794921875  L 4.3337932606132075 4.68874171875  L 1.5128511096698112 4.688741718750001  C 0.762025404404885 4.688741718750001  0.15336090919811318 5.281742054153656  0.15336090919811318 6.0132450390625  L 0.15336090919811318 13.841059609375  C 0.15336092026985962 14.572562586656417  0.7620254122337916 15.16556291015625  1.5128511096698112 15.16556291015625  L 4.157059536556604 15.16556291015625  L 7.372253839622641 17.741721855468747  L 9.60181775235849 19.523178808593748  L 9.894108134433964 19.75496689453125  C 10.045995204500985 19.895882087647273  10.242551204502863 19.98228952533093  10.45149912264151 20  C 10.68940991273585 20  10.852548728773586 19.8278145703125  10.913725774764151 19.52317880859375  C 10.921738629082341 19.44168764374718  10.921738629082341 19.359636867971574  11 19.278145703125  L 11 0.72847681640625  C 10.924725704515456 0.6316421856464274  10.924725704515456 0.5339207245098226  10.913725774764151 0.43708609375000007  Z M 9.574627936320754 17.78807947265625  L 6.2710667712264145 15.139072851562501  L 4.646476004716981 13.814569531250001  L 1.5128511096698112 13.814569531250001  L 1.5128511096698112 6.0132450390625  L 4.816412274764151 6.0132450390625  L 6.393420883254717 4.75496689453125  L 9.574627936320754 2.205298007812501  L 9.574627936320754 17.78807947265625  Z " fill-rule="nonzero" fill="#ffffff" stroke="none" transform="matrix(1 0 0 1 1847 358 )" />
  </g>
</svg>