<?xml version="1.0" encoding="utf-8"?>
<svg version="1.1" xmlns:xlink="http://www.w3.org/1999/xlink" width="12px" height="12px" xmlns="http://www.w3.org/2000/svg">
  <g transform="matrix(1 0 0 1 -1847 -246 )">
    <path d="M 6.65641025 8.050812113636363  C 9.60598973076923 7.663321204545452  11.907692307692308 4.702254545454544  11.907692307692308 1.1147636363636375  L 11.907692307692308 0.9208242500000019  C 11.907692307692306 0.4923851692514011  11.613807424094972 0.14506667045454885  11.251282048076924 0.14506667045454885  C 10.888756672058875 0.14506667045454885  10.594871788461543 0.49238516925139986  10.594871788461543 0.9208242500000019  L 10.594871788461539 1.1147636363636375  C 10.594871788461539 4.109187886363639  8.533743576923078 6.54506665909091  6 6.54506665909091  C 3.466256423076922 6.54506665909091  1.4051282115384613 4.109187863636363  1.4051282115384613 1.1147636363636375  L 1.4051282115384613 0.9208242500000019  C 1.4051282115384613 0.49238516925139986  1.1112433279411271 0.14506667045454885  0.7487179519230776 0.14506667045454885  C 0.38619257590502853 0.14506667045454885  0.09230769230769308 0.49238516925139986  0.09230769230769308 0.9208242500000019  L 0.09230769230769253 1.1147636363636375  C 0.09230769230769253 4.701866659090911  2.39401025 7.663321204545456  5.3435897500000005 8.050812113636363  L 5.3435897500000005 10.42424243181818  L 2.0615384615384627 10.42424243181818  C 1.6990130908308436 10.42424243181818  1.4051282115384613 10.771560925527359  1.4051282115384613 11.2  C 1.4051282115384613 11.62843907447264  1.6990130908308436 11.975757568181816  2.0615384615384627 11.975757568181816  L 9.938461538461539 11.975757568181816  C 10.300986909169156 11.975757568181816  10.594871788461539 11.62843907447264  10.594871788461539 11.2  C 10.594871788461539 10.771560925527359  10.300986909169156 10.42424243181818  9.938461538461539 10.42424243181818  L 6.65641025 10.42424243181818  L 6.65641025 8.050812113636363  Z " fill-rule="nonzero" fill="#ffffff" stroke="none" transform="matrix(1 0 0 1 1847 246 )" />
  </g>
</svg>