<?xml version="1.0" encoding="utf-8"?>
<svg version="1.1" xmlns:xlink="http://www.w3.org/1999/xlink" width="13px" height="20px" xmlns="http://www.w3.org/2000/svg">
  <g transform="matrix(1 0 0 1 -1847 -418 )">
    <path d="M 0.042015068597561135 6.628881250000001  C 0.042015068597561135 2.96818291015625  2.9660341234756094 0  6.573338588414635 0  C 9.401457911585364 0  11.73255855945122 1.56951986328125  12.661125948170731 4.149639687500001  C 12.7072315777439 4.28141755859375  12.797598620426829 4.5467909179687505  12.93038282012195 4.944850957031251  C 13.000315953871281 5.154453326070235  12.907368978733498 5.383277682679656  12.709997922256099 5.487412265625  L 11.972307849085368 5.87547537109375  C 11.905367018837508 5.910800396511265  11.83061005088372 5.929283863826688  11.754677698950003 5.929283863826688  C 11.567272356425072 5.929283863826688  11.398512604211929 5.817484279687795  11.327751143292685 5.64645451171875  C 11.189530619682964 5.314953517075054  11.05336279092443 4.982624758130382  10.919255254573175 4.649486777343751  C 10.223982358231712 2.8773016406250007  8.604752634146344 1.8285315429687503  6.573338588414636 1.8285315429687503  C 3.9609936021341485 1.8285315429687503  1.8438230746951243 3.9778740429687502  1.8438230945121972 6.628881250000001  C 1.8438230945121972 7.28322654296875  1.9729188612804895 7.91666912109375  2.2182008003048805 8.503762265625001  C 2.384181074695125 8.901822304687501  2.6008775198170757 9.328964375000002  2.9051746829268312 9.869708046875001  L 2.994619617378051 10.027841484375003  C 3.176275791158539 10.345925996093753  3.759050967987807 11.336532050781251  3.9443955746951236 11.660069433593751  L 3.965604163109758 11.696421953125002  C 4.8314678948170755 13.210504238281253  5.394878679878051 14.414681328125003  5.795075554878051 15.763359667968754  L 5.819050487804881 15.845152832031253  C 6.347421001524393 17.66550505859375  7.079578405487806 18.380740800781254  8.63426023628049 18.112640996093752  C 9.6928455 17.929969609375004  10.22767081097561 17.283803632812504  10.309738839939026 15.941486992187503  C 10.31250518445122 15.897863964843753  10.309738839939026 15.813344375000003  10.300517698170733 15.687019375000004  C 10.280619652941024 15.417661430476375  10.463774713579944 15.174528825624607  10.731144283536587 15.115376074218753  L 11.422728727134148 14.962695507812501  C 11.462399329426631 14.953943827730376  11.502927769279387 14.949528000100855  11.543580034991972 14.949528000100855  C 11.827535023025218 14.949528000100855  12.06538922449365 15.161389668502409  12.094026710365856 15.439822265625004  C 12.114313190548781 15.632490605468753  12.121690096036588 15.790624042968755  12.114313190548781 15.913313789062505  C 12.002737559451221 18.149902324218754  10.922943707317076 19.572194511718756  8.93579105487805 19.914816972656254  C 7.516659768292686 20.160196445312508  6.359408467987807 19.828479746093755  5.499999533536589 18.989645449218756  C 4.854520719512197 18.359838105468754  4.434959492378052 17.522821445312506  4.1103758490853695 16.430428320312505  L 4.09101147713415 16.363176171875004  C 3.744297137195125 15.170813652343755  3.2454342256097597 14.088417500000006  2.4561058536585394 12.700660214843754  L 2.3362312088414665 12.491633242187506  C 2.105703060975612 12.093573203125006  1.5616566280487834 11.167492851562507  1.414118617378052 10.905754746093756  L 1.3348169329268322 10.766706367187506  C 1.0464767136757778 10.265687504056311  0.7878512637290881 9.748614233395648  0.5602423521341497 9.218089199218756  C 0.2170834546337386 8.39680812731497  0.04100568444140294 7.517074510915126  0.042015068597561135 6.628881250000001  Z M 7.891959602134146 4.73309755859375  C 8.56417969359756 4.96575365234375  9.203203710365852 5.7127978515625  9.510267217987805 6.46438611328125  L 9.532397914634146 6.518006074218751  C 9.624017999830887 6.730099457901554  9.539990113020513 6.97620344315186  9.336910038109757 7.090558203125  L 8.649936155487806 7.476803691406251  C 8.580275503045627 7.5160319568427445  8.501434291212737 7.536665709167753  8.421204417860114 7.536665709167753  C 8.246021643262058 7.536665709167753  8.085973064340415 7.438817310526719  8.00814579420732 7.284135351562501  C 7.995808164438632 7.258684399338043  7.982269040542307 7.233816322989808  7.967572833841465 7.209612695312501  C 7.877205791158538 7.0669290625  7.735200469512197 6.632516503906251  7.310106553353662 6.46438611328125  C 7.121995582317075 6.38986345703125  6.855505035060979 6.420763085937501  6.639730698170734 6.50710033203125  C 6.314224946646343 6.63796939453125  6.097528501524392 6.9996769140625  6.148244692073173 7.408642714843751  C 6.180518638719515 7.665836757812501  6.268119336890246 7.8530522265625  6.474672551829271 8.10570220703125  L 6.4995695929878075 8.13660185546875  C 6.566883810975614 8.216577382812499  6.643419150914637 8.30200580078125  6.750384221036587 8.41469859375  L 7.204063611280491 8.88909892578125  C 7.582129769817076 9.291703046875  7.88734904115854 9.654319375  8.197178873475611 10.088731953125  C 8.497787583841465 10.5104211328125  8.748602211890244 11.06388818359375  8.95976598780488 11.752768359375  L 9.037223455792684 12.018141718750002  C 9.050988396504179 12.067457868539265  9.057964568169712 12.118373887606122  9.057964568169712 12.16952200637595  C 9.057964568169712 12.433091370668464  8.874840699988493 12.662381191847786  8.614895884146344 12.724289335937502  L 8.021055368902442 12.866064160156249  C 7.732106885225765 12.934600535909848  7.434591781770902 12.790661140230409  7.312872897865857 12.52344169921875  L 7.282443187500002 12.440739726562501  C 7.114618696646346 11.85909947265625  6.929274070121954 11.430139785156253  6.736552518292687 11.159313535156253  C 6.500257174129232 10.828283778693358  6.241472821083819 10.513416154774832  5.961977937500003 10.216874570312502  L 5.833804298780491 10.082370253906252  L 5.507376439024393 9.7406566015625  C 5.375403872754871 9.604627478959866  5.248081258008472 9.464289011529402  5.125621827743904 9.319876230468752  C 4.69038468140244 8.798217636718753  4.442336397865856 8.290191210937502  4.360268368902441 7.638572382812502  C 4.205353452743904 6.3907722851562525  4.895093679878051 5.242032773437502  5.975809640243904 4.807620214843752  C 6.5631953582317095 4.571328867187502  7.258468254573172 4.514982460937501  7.8910374939024415 4.733097558593752  Z " fill-rule="nonzero" fill="#ffffff" stroke="none" transform="matrix(1 0 0 1 1847 418 )" />
  </g>
</svg>