<?xml version="1.0" encoding="utf-8"?>
<svg version="1.1" xmlns:xlink="http://www.w3.org/1999/xlink" width="10px" height="66px" preserveAspectRatio="xMidYMin meet" viewBox="1774 1759  8 66" xmlns="http://www.w3.org/2000/svg">
  <path d="M 1778 1761  L 1778 1815  A 5 5 0 0 0 1783 1820 L 1806 1820  A 5 5 0 0 1 1811 1825 L 1811 1880  " stroke-width="2" stroke="#0066ff" fill="none" />
  <path d="M 1778 1759  A 3.5 3.5 0 0 0 1774.5 1762.5 A 3.5 3.5 0 0 0 1778 1766 A 3.5 3.5 0 0 0 1781.5 1762.5 A 3.5 3.5 0 0 0 1778 1759 Z M 1803 1872.6  L 1811 1882  L 1819 1872.6  L 1811 1876.2  L 1803 1872.6  Z " fill-rule="nonzero" fill="#0066ff" stroke="none" />
</svg>