<?xml version="1.0" encoding="utf-8"?>
<svg version="1.1" xmlns:xlink="http://www.w3.org/1999/xlink" width="28px" height="10px" preserveAspectRatio="xMinYMid meet" viewBox="707 2909  28 8" xmlns="http://www.w3.org/2000/svg">
  <path d="M 709 2913  L 725 2913  A 5 5 0 0 1 730 2918 L 730 2953  A 5 5 0 0 0 735 2958 L 751 2958  " stroke-width="2" stroke="#0066ff" fill="none" />
  <path d="M 710.5 2909.5  A 3.5 3.5 0 0 0 707 2913 A 3.5 3.5 0 0 0 710.5 2916.5 A 3.5 3.5 0 0 0 714 2913 A 3.5 3.5 0 0 0 710.5 2909.5 Z M 743.6 2966  L 753 2958  L 743.6 2950  L 747.2 2958  L 743.6 2966  Z " fill-rule="nonzero" fill="#0066ff" stroke="none" />
</svg>