<?xml version="1.0" encoding="utf-8"?>
<svg version="1.1" xmlns:xlink="http://www.w3.org/1999/xlink" width="10px" height="23px" preserveAspectRatio="xMidYMin meet" viewBox="2517 562  8 23" xmlns="http://www.w3.org/2000/svg">
  <path d="M 2521 564  L 2521 575  A 5 5 0 0 1 2516 580 L 2455 580  A 5 5 0 0 0 2450 585 L 2450 597  " stroke-width="2" stroke="#0066ff" fill="none" />
  <path d="M 2521 562  A 3.5 3.5 0 0 0 2517.5 565.5 A 3.5 3.5 0 0 0 2521 569 A 3.5 3.5 0 0 0 2524.5 565.5 A 3.5 3.5 0 0 0 2521 562 Z M 2442 589.6  L 2450 599  L 2458 589.6  L 2450 593.2  L 2442 589.6  Z " fill-rule="nonzero" fill="#0066ff" stroke="none" />
</svg>