<?xml version="1.0" encoding="utf-8"?>
<svg version="1.1" xmlns:xlink="http://www.w3.org/1999/xlink" width="14px" height="14px" xmlns="http://www.w3.org/2000/svg">
  <g transform="matrix(1 0 0 1 -2372 -615 )">
    <path d="M 13.876980198019801 7.01925  C 13.875247524752474 3.17275  10.77549504950495 0.0402500000000002  6.965346534653465 0.04024999999999995  C 3.155198019801981 0.04024999999999995  0.05544554455445525 3.171  0.05544554455445525 7.01925  C 0.05544554455445525 10.869250000000001  3.155198019801981 14  6.965346534653465 14  C 10.77549504950495 14  13.876980198019801 10.869250000000001  13.876980198019801 7.01925  Z M 8.5490099009901 9.89275  C 8.178217821782178 13.016499999999999  5.4891089108910895 12.6525  5.823514851485149 10.045  C 6.457673267326734 5.082  5.508168316831683 6.58  5.374752475247526 6.80575  C 5.371287128712872 6.811  5.3660891089108915 6.8075  5.3660891089108915 6.80225  C 5.981188118811882 4.054749999999999  8.782920792079208 4.8055  8.427722772277228 6.882750000000001  C 7.568316831683169 11.917499999999999  8.290841584158418 10.60675  8.51782178217822 9.88575  C 8.523019801980201 9.8665  8.552475247524756 9.8735  8.5490099009901 9.89275  Z M 8.75 3.1447500000000006  C 8.904207920792079 3.855250000000001  8.45891089108911 4.557000000000001  7.755445544554457 4.71275  C 7.051980198019802 4.8685  6.357178217821782 4.41875  6.202970297029703 3.7082500000000005  C 6.048762376237624 2.99775  6.494059405940594 2.2960000000000007  7.197524752475248 2.1402500000000004  C 7.9009900990099 1.9845000000000006  8.595792079207921 2.434250000000001  8.75 3.1447500000000006  Z " fill-rule="nonzero" fill="#0066ff" stroke="none" transform="matrix(1 0 0 1 2372 615 )" />
  </g>
</svg>