<?xml version="1.0" encoding="utf-8"?>
<svg version="1.1" xmlns:xlink="http://www.w3.org/1999/xlink" width="13px" height="13px" xmlns="http://www.w3.org/2000/svg">
  <g transform="matrix(1 0 0 1 -2308 -5385 )">
    <path d="M 7.211111104166667 8.72171312310606  C 10.406488874999997 8.30193130492424  12.9 5.09410909090909  12.9 1.2076606060606074  L 12.9 0.9975596041666688  C 12.899999999999999 0.5334172666890179  12.58162470943622 0.15715555965909458  12.188888885416667 0.15715555965909458  C 11.796153061397115 0.15715555965909458  11.477777770833338 0.5334172666890165  11.477777770833338 0.9975596041666688  L 11.477777770833335 1.2076606060606074  C 11.477777770833335 4.451620210227275  9.244888875000001 7.090488880681819  6.5 7.090488880681819  C 3.7551111249999987 7.090488880681819  1.5222222291666665 4.4516201856060595  1.5222222291666665 1.2076606060606074  L 1.5222222291666665 0.9975596041666688  C 1.5222222291666665 0.5334172666890165  1.2038469386028878 0.15715555965909458  0.8111111145833341 0.15715555965909458  C 0.4183752905637809 0.15715555965909458  0.10000000000000082 0.5334172666890165  0.10000000000000082 0.9975596041666688  L 0.10000000000000024 1.2076606060606074  C 0.10000000000000024 5.09368888068182  2.5935111041666667 8.301931304924244  5.788888895833334 8.72171312310606  L 5.788888895833334 11.292929301136363  L 2.2333333333333343 11.292929301136363  C 1.8405975150667473 11.292929301136363  1.5222222291666665 11.669191002654639  1.5222222291666665 12.133333333333333  C 1.5222222291666665 12.597475664012027  1.8405975150667473 12.973737365530301  2.2333333333333343 12.973737365530301  L 10.766666666666666 12.973737365530301  C 11.159402484933253 12.973737365530301  11.477777770833335 12.597475664012027  11.477777770833335 12.133333333333333  C 11.477777770833335 11.669191002654639  11.159402484933253 11.292929301136363  10.766666666666666 11.292929301136363  L 7.211111104166667 11.292929301136363  L 7.211111104166667 8.72171312310606  Z " fill-rule="nonzero" fill="#ffffff" stroke="none" transform="matrix(1 0 0 1 2308 5385 )" />
  </g>
</svg>