<?xml version="1.0" encoding="utf-8"?>
<svg version="1.1" xmlns:xlink="http://www.w3.org/1999/xlink" width="34px" height="34px" preserveAspectRatio="xMinYMid meet" viewBox="1111 615  34 32" xmlns="http://www.w3.org/2000/svg">
  <path d="M 1020 1007  L 1069 1007  A 5 5 0 0 0 1074 1002 L 1074 636  A 5 5 0 0 1 1079 631 L 1128 631  " stroke-width="2" stroke="#0066ff" fill="none" />
  <path d="M 1021.5 1003.5  A 3.5 3.5 0 0 0 1018 1007 A 3.5 3.5 0 0 0 1021.5 1010.5 A 3.5 3.5 0 0 0 1025 1007 A 3.5 3.5 0 0 0 1021.5 1003.5 Z M 1120.6 639  L 1130 631  L 1120.6 623  L 1124.2 631  L 1120.6 639  Z " fill-rule="nonzero" fill="#0066ff" stroke="none" />
</svg>