<?xml version="1.0" encoding="utf-8"?>
<svg version="1.1" xmlns:xlink="http://www.w3.org/1999/xlink" width="21px" height="20px" preserveAspectRatio="xMinYMid meet" viewBox="533 477  21 18" xmlns="http://www.w3.org/2000/svg">
  <path d="M 542 486  L 592 486  A 5 5 0 0 1 597 491 L 597 694  A 5 5 0 0 0 602 699 L 653 699  " stroke-width="2" stroke="#0066ff" fill="none" />
  <path d="M 543.5 482.5  A 3.5 3.5 0 0 0 540 486 A 3.5 3.5 0 0 0 543.5 489.5 A 3.5 3.5 0 0 0 547 486 A 3.5 3.5 0 0 0 543.5 482.5 Z M 645.6 707  L 655 699  L 645.6 691  L 649.2 699  L 645.6 707  Z " fill-rule="nonzero" fill="#0066ff" stroke="none" />
</svg>