<?xml version="1.0" encoding="utf-8"?>
<svg version="1.1" xmlns:xlink="http://www.w3.org/1999/xlink" width="25px" height="20px" xmlns="http://www.w3.org/2000/svg">
  <g transform="matrix(1 0 0 1 -1033 -2363 )">
    <path d="M 0.06009615384615385 1.3363095238095233  C 0.06009615384615385 2.00297619047619  0.603966346153846 2.541666666666666  1.2770432692307692 2.541666666666666  L 23.783052884615387 2.541666666666666  C 24.456129807692307 2.541666666666666  25 2.00297619047619  25 1.3363095238095233  C 25 0.6696428571428563  24.456129807692307 0.13095238095238027  23.783052884615387 0.13095238095238027  L 1.2770432692307692 0.13095238095238027  C 0.603966346153846 0.13095238095238027  0.06009615384615385 0.6696428571428563  0.06009615384615385 1.3363095238095233  Z M 25 9.967261904761903  C 25 9.300595238095239  24.456129807692307 8.761904761904761  23.783052884615387 9  L 1.2770432692307692 9  C 0.603966346153846 8.761904761904761  0.06009615384615385 9.300595238095239  0.06009615384615385 9.967261904761903  C 0.06009615384615385 10.63392857142857  0.603966346153846 11.172619047619047  1.2770432692307692 11  L 23.783052884615387 11  C 24.456129807692307 11.172619047619047  25 10.63392857142857  25 9.967261904761903  Z M 25 18.598214285714285  C 25 17.93154761904762  24.456129807692307 17.392857142857142  23.783052884615387 17  L 1.2770432692307692 17  C 0.603966346153846 17.392857142857142  0.06009615384615385 17.93154761904762  0.06009615384615385 18.598214285714285  C 0.06009615384615385 19.264880952380953  0.603966346153846 19.803571428571427  1.2770432692307692 19.803571428571427  L 23.783052884615387 19.803571428571427  C 24.456129807692307 19.803571428571427  25 19.264880952380953  25 18.598214285714285  Z " fill-rule="nonzero" fill="#000000" stroke="none" transform="matrix(1 0 0 1 1033 2363 )" />
  </g>
</svg>