<?xml version="1.0" encoding="utf-8"?>
<svg version="1.1" xmlns:xlink="http://www.w3.org/1999/xlink" width="20px" height="20px" xmlns="http://www.w3.org/2000/svg">
  <g transform="matrix(1 0 0 1 -1037 -1332 )">
    <path d="M 2.12333333984375 16.7625  C 1.5926666796875 16.95266666015625  1.25 17.3935  1.25 17.796  L 1.25 18.264166660156253  C 1.25 18.558666660156252  1.47633333984375 18.750000000000004  1.9545000000000001 18.750000000000004  L 18.024666660156253 18.750000000000004  C 18.503000000000004 18.750000000000004  18.7295 18.558666660156252  18.7295 18.264166660156253  L 18.7295 17.796  C 18.7295 17.3835  18.377166660156252 16.9225  17.899500000000003 16.7515  L 13.455666660156249 15.02433333984375  C 13.400333320312498 15.002833339843749  13.314 14.967666679687499  13.206 14.92066666015625  C 13.025244109446092 14.84252006174781  12.847557498172344 14.757457321268587  12.67333333984375 14.66566666015625  C 12.367333339843752 14.5033333203125  12.112833339843752 14.3383333203125  11.9025 14.142333339843749  C 11.883000000000001 14.123999999999999  11.883000000000001 14.123999999999999  11.86316666015625 14.104666660156248  C 11.21166666015625 13.465999999999998  11.2148333203125 12.5988333203125  11.532 11.540166660156249  C 11.62283333984375 11.236666660156247  11.75233333984375 11.018499999999998  12.11733333984375 10.466166660156249  C 12.17663916859044 10.376315825043882  12.236139307821972 10.286593395039498  12.29583333984375 10.197  C 12.370333339843748 10.084499999999998  12.427833339843751 9.997333339843749  12.485 9.909833339843749  C 12.61961361882008 9.704615416548291  12.750578641225726 9.497027242670388  12.87783333984375 9.287166660156249  C 13.4096666796875 8.4065  13.7495 7.645833320312498  13.876 6.978499999999999  C 13.911 6.794333339843749  13.92833333984375 6.621666660156249  13.92833333984375 6.460833339843749  C 13.92833333984375 3.559833339843749  12.090499999999999 1.298999999999999  9.96616666015625 1.298999999999999  C 7.8420000000000005 1.298999999999999  6.004333320312501 3.559833339843749  6.00433333984375 6.4609999999999985  C 6.00433333984375 6.70066666015625  6.041 6.970999999999999  6.11466666015625 7.267666660156249  C 6.2683333203125 7.888  6.57016666015625 8.5828333203125  6.99 9.332166660156249  C 7.292000000000001 9.87116666015625  8.0885 11.09766666015625  8.127 11.17116666015625  C 8.58216666015625 12.040833320312498  8.540666660156251 13.337  7.943000000000001 14.004999999999999  C 7.668833339843752 14.307999999999998  7.324833339843751 14.507833339843748  6.860333339843752 14.709999999999999  C 6.670333339843752 14.7925  6.4730000000000025 14.86833333984375  6.276166660156251 14.93716666015625  C 6.200666660156252 14.963499999999998  6.134833320312501 14.985499999999998  6.081666660156252 15.002833339843749  L 2.123666660156252 16.7625  Z M 18.32116666015625 15.57466666015625  C 19.251 15.907666660156252  19.979499999999998 16.809  19.979499999999998 17.796  L 19.979499999999998 18.264166660156253  C 19.979499999999998 19.341  19.10266666015625 20  18.02466666015625 20  L 1.9545000000000001 20  C 0.87666666015625 20  0 19.341  0 18.26416666015625  L 0 17.796  C 0 16.809333339843747  0.7283333398437499 15.93466666015625  1.6581666601562501 15.6015  L 5.637333339843751 13.83233333984375  C 5.637333339843751 13.83233333984375  6.716000000000001 13.501666679687501  7.01133333984375 13.1715  C 7.20783333984375 12.95183333984375  7.2684999999999995 12.226666660156251  7.019333339843751 11.750833339843751  C 6.7706666796875 11.275000000000002  4.754166679687501 8.657000000000002  4.75416666015625 6.461000000000001  C 4.75416666015625 2.920000000000001  7.0875 0.049000000000001265  9.965833339843751 0.049000000000001265  C 12.84466666015625 0.049  15.17833333984375 2.92  15.17833333984375 6.4608333398437505  C 15.17833333984375 8.7536666796875  12.915333339843752 11.2776666796875  12.729333339843748 11.89866666015625  C 12.54333333984375 12.51966666015625  12.5281666796875 13.006  12.738333339843749 13.212  C 13.065333339843747 13.532666660156249  13.9071666796875 13.85866666015625  13.907166660156246 13.85866666015625  L 18.321333339843747 15.574666660156248  Z " fill-rule="nonzero" fill="#000000" stroke="none" transform="matrix(1 0 0 1 1037 1332 )" />
  </g>
</svg>