<?xml version="1.0" encoding="utf-8"?>
<svg version="1.1" xmlns:xlink="http://www.w3.org/1999/xlink" width="8px" height="8px" xmlns="http://www.w3.org/2000/svg">
  <g transform="matrix(1 0 0 1 -575 -296 )">
    <path d="M 6.530625306122449 2.6666666666666665  L 5.2245028571428564 2.6666666666666665  L 5.2245028571428564 1.3333333333333333  C 5.2245028571428564 0.5969536668922757  4.6397319181463414 0  3.918380408163265 0  C 3.197028898180188 0  2.612257959183673 0.5969536668922757  2.612257959183673 1.3333333333333333  L 2.612257959183673 2.6666666666666665  L 1.306135510204081 2.6666666666666665  C 0.5847840002210043 2.6666666666666665  1.306122448930145E-05 3.263620333558942  1.306122448930145E-05 4  C 1.306122448930145E-05 4.736379666441057  0.5847840002210043 5.333333333333333  1.306135510204081 5.333333333333333  L 2.612257959183673 5.333333333333333  L 2.612257959183673 6.666666666666667  C 2.612257959183673 7.403046333107724  3.197028898180188 8  3.918380408163265 8  C 4.6397319181463414 8  5.2245028571428564 7.403046333107724  5.2245028571428564 6.666666666666667  L 5.2245028571428564 5.333333333333333  L 6.530625306122449 5.333333333333333  C 7.251976816105525 5.333333333333333  7.83674775510204 4.736379666441057  7.83674775510204 4  C 7.83674775510204 3.263620333558942  7.251976816105525 2.6666666666666665  6.530625306122449 2.6666666666666665  Z " fill-rule="nonzero" fill="#000000" stroke="none" transform="matrix(1 0 0 1 575 296 )" />
  </g>
</svg>