<?xml version="1.0" encoding="utf-8"?>
<svg version="1.1" xmlns:xlink="http://www.w3.org/1999/xlink" width="16px" height="20px" xmlns="http://www.w3.org/2000/svg">
  <g transform="matrix(1 0 0 1 -562 -283 )">
    <path d="M 5.44933281553398 4.675000000000001  C 5.44933281553398 7.25693120545896  7.530208976320413 9.350000000000001  10.097099805825243 9.350000000000001  C 12.663990635330073 9.350000000000001  14.744866796116504 7.25693120545896  14.744866796116504 4.675000000000001  C 14.744866796116504 2.0930687945410407  12.663990635330073 0  10.097099805825243 0  C 7.530208976320413 0  5.44933281553398 2.0930687945410407  5.44933281553398 4.675000000000001  Z M 11.355587750464345 16.235663674433507  C 11.355587750464345 13.621007176426186  13.358331442059356 11.44785727874783  15.950303689320389 11.25  C 14.249974692113552 10.004275469404874  12.200635391257077 9.333141494586734  10.097085678134345 9.333141494586734  C 4.60641010700102 9.333141494586734  0.15533810531881112 13.8102939962788  0.15533810531881112 19.333141494586734  C 0.15533810531881112 19.338760999385848  0.15534281455078394 19.34438050318647  0.15535223300970874 19.35  L 0.15535223300970874 20  L 13.054769708737865 20  C 11.975022863452086 19.05053174133965  11.355587750464345 17.678246633321926  11.355587750464345 16.235663674433507  Z " fill-rule="nonzero" fill="#000000" stroke="none" transform="matrix(1 0 0 1 562 283 )" />
  </g>
</svg>