<?xml version="1.0" encoding="utf-8"?>
<svg version="1.1" xmlns:xlink="http://www.w3.org/1999/xlink" width="9px" height="15px" xmlns="http://www.w3.org/2000/svg">
  <g transform="matrix(1 0 0 1 -1023 -2851 )">
    <path d="M 8.698660714285714 14.405691964285715  C 8.578125 14.455915178571429  8.457589285714286 14.506138392857144  8.3671875 14.506138392857144  C 8.246651785714288 14.506138392857144  8.126116071428573 14.481026785714285  8.035714285714286 14.405691964285715  L 0.23102678571428686 7.876674107142857  C 0.11049107142857201 7.776227678571429  0.050223214285715426 7.625558035714286  0.050223214285715426 7.5  C 0.050223214285715426 7.374441964285714  0.11049107142857201 7.223772321428572  0.23102678571428686 7.123325892857142  L 8.035714285714286 0.5943080357142857  C 8.216517857142858 0.44363839285714285  8.487723214285714 0.44363839285714285  8.668526785714286 0.5943080357142857  C 8.84933035714286 0.7449776785714285  8.84933035714286 0.9709821428571429  8.668526785714286 1.1216517857142856  L 1.0446428571428572 7.5  L 8.698660714285714 13.878348214285715  C 8.879464285714286 14.029017857142856  8.879464285714286 14.255022321428571  8.698660714285714 14.405691964285715  Z " fill-rule="nonzero" fill="#3e3a39" stroke="none" transform="matrix(1 0 0 1 1023 2851 )" />
  </g>
</svg>