<?xml version="1.0" encoding="utf-8"?>
<svg version="1.1" xmlns:xlink="http://www.w3.org/1999/xlink" width="18px" height="18px" xmlns="http://www.w3.org/2000/svg">
  <g transform="matrix(1 0 0 1 -3556 -286 )">
    <path d="M 5.341552734375 1.4743652343750027  C 6.185302734375 1.12939453125  7.0751953125 0.9580078125  7.9892578125 0.9580078125  C 8.9033203125 0.9580078125  9.793212890625 1.131591796875  10.634765625 1.47216796875  C 11.507080078125 1.825927734375  12.289306640624998 2.3444824218750004  12.959472656249998 3.016845703125  C 14.23828125 4.2978515625  14.969970703124998 5.99853515625  15.01611328125 7.806884765625  C 15.062255859375 9.608642578125002  14.42724609375 11.337890625  13.2275390625 12.676025390625  L 12.966064453125 12.968261718749998  L 12.673828125 13.229736328124998  C 11.388427734375 14.38330078125  9.722900390625 15.0205078125  7.987060546875 15.0205078125  C 7.072998046874999 15.0205078125  6.183105468749999 14.846923828125  5.341552734375 14.50634765625  C 4.46923828125 14.152587890625  3.68701171875 13.634033203125  3.016845703125 12.961669921875002  C 2.344482421875 12.289306640625  1.825927734375 11.507080078125  1.4721679687499993 10.636962890625002  C 1.1293945312499993 9.793212890625002  0.9580078124999993 8.901123046875004  0.9580078124999993 7.989257812500003  C 0.9580078124999993 7.075195312500003  1.1315917968749993 6.185302734375003  1.4721679687499993 5.343750000000003  C 1.8259277343749993 4.471435546875003  2.3444824218749996 3.6892089843750027  3.016845703125 3.0190429687500027  C 3.689208984375 2.3466796875000027  4.471435546875 1.8281250000000027  5.341552734375 1.4743652343750027  Z M 13.581298828125 2.39501953125  C 12.03662109375 0.850341796875  10.012939453125 0.0791015625  7.9892578125 0.0791015625  C 5.965576171875 0.0791015625  3.939697265625 0.850341796875  2.39501953125 2.39501953125  C -0.6943359374999997 5.484375  -0.6943359374999997 10.491943359375  2.39501953125 13.581298828125  C 3.939697265625 15.1259765625  5.96337890625 15.8994140625  7.987060546875 15.8994140625  C 9.87451171875 15.8994140625  11.761962890625 15.22705078125  13.260498046875 13.884521484375  L 17.30126953125 17.9208984375  L 17.923095703124996 17.299072265625  L 13.884521484375 13.2626953125  C 16.66845703125 10.157958984375  16.5673828125 5.381103515625  13.581298828125 2.39501953125  Z " fill-rule="nonzero" fill="#000000" stroke="none" transform="matrix(1 0 0 1 3556 286 )" />
  </g>
</svg>