<?xml version="1.0" encoding="utf-8"?>
<svg version="1.1" xmlns:xlink="http://www.w3.org/1999/xlink" width="63px" height="10px" preserveAspectRatio="xMinYMid meet" viewBox="673 632  63 8" xmlns="http://www.w3.org/2000/svg">
  <path d="M 623 284  L 673 284  A 5 5 0 0 1 678 289 L 678 631  A 5 5 0 0 0 683 636 L 734 636  " stroke-width="2" stroke="#0066ff" fill="none" />
  <path d="M 624.5 280.5  A 3.5 3.5 0 0 0 621 284 A 3.5 3.5 0 0 0 624.5 287.5 A 3.5 3.5 0 0 0 628 284 A 3.5 3.5 0 0 0 624.5 280.5 Z M 726.6 644  L 736 636  L 726.6 628  L 730.2 636  L 726.6 644  Z " fill-rule="nonzero" fill="#0066ff" stroke="none" />
</svg>