<?xml version="1.0" encoding="utf-8"?>
<svg version="1.1" xmlns:xlink="http://www.w3.org/1999/xlink" width="21px" height="20px" xmlns="http://www.w3.org/2000/svg">
  <g transform="matrix(1 0 0 1 -214 -827 )">
    <path d="M 21 2.2004444375  C 21 1.064  20.08868750683594 0.1391111041666666  18.96868749316406 0.1391111041666666  C 18.600312486328125 0.1391111041666666  18.236312493164064 0.2444444374999999  17.915625000000002 0.44399999999999995  L 8.820875006835939 4.445333333333333  L 2.0269374931640627 4.445333333333333  C 0.9091250068359374 4.445333333333333  0 5.368888895833333  0 6.504  L 0 11.345777770833333  C 0 12.481333333333334  0.9091250068359374 13.404888875000003  2.0269374931640627 13.404888875000003  L 2.648187486328125 13.404888875000003  L 2.648187486328125 17.801777770833336  C 2.648187486328125 18.937333333333335  3.5573124931640625 19.861777770833335  4.675124979492187 19.861777770833335  C 5.792062479492188 19.861777770833335  6.701624979492188 18.937333333333335  6.702062472656251 17.801777770833336  L 6.702062493164063 13.404444437499999  L 8.808624993164063 13.404444437499999  L 17.905562493164066 17.939111104166663  C 18.229312500000002 18.142222208333333  18.596374986328126 18.249777770833333  18.969562500000002 18.249777770833333  C 20.089562493164063 18.249777770833333  21 17.324444437500002  21 16.187111104166664  L 21 2.2004444375  Z M 2.0269374931640627 12.513777770833334  C 1.3925625 12.513777770833334  0.8763125068359374 11.989777770833332  0.8763125068359374 11.345333333333334  L 0.8763125068359374 6.504  C 0.8763125068359374 5.860000000000001  1.3925625 5.335555562500001  2.026937513671875 5.335555562500001  L 8.472625013671875 5.335555562500001  L 8.472625013671875 12.513777791666667  L 6.264125006835936 12.513777791666667  L 3.0865625068359375 12.513777770833334  L 2.0269374931640627 12.513777770833334  Z M 5.825312493164063 13.404444437499999  L 5.825312493164063 17.801333333333332  C 5.825312493164063 18.446222229166665  5.308624986328126 18.97066666666667  4.674687486328125 18.97066666666667  C 4.040749986328125 18.97066666666667  3.5244999931640626 18.44622222916667  3.5244999931640626 17.801333333333332  L 3.5244999931640626 13.404444437499999  L 5.825312493164063 13.404444437499999  Z M 20 2.2004444375000003  L 20 16.187555562500002  C 20.123687493164063 16.9115555625  19.52475 17.3595555625  18.9695625 17.3595555625  C 18.7516875 17.3595555625  18.546500006835938 17.29688889583333  18.35574999316406 17.173777791666666  C 18.341749986328125 17.164888895833336  18.327312486328125 17.157333354166663  18.3133125 17.150222229166665  L 9.349374993164062 12.682222229166666  L 9.349374993164062 5.1835555625000005  L 18.294499986328123 1.2480000000000004  C 18.31506249316406 1.2386666666666675  18.33606249316406 1.2275555625000003  18.35574999316406 1.2151111041666671  C 18.54606249316406 1.0915555416666671  18.7516875 1.0293333333333339  18.9695625 1.0293333333333339  C 19.52475 1.0293333333333339  20.123687493164063 1.476888895833334  20 2.2004444375000003  Z " fill-rule="nonzero" fill="#ffffff" stroke="none" transform="matrix(1 0 0 1 214 827 )" />
  </g>
</svg>