<?xml version="1.0" encoding="utf-8"?>
<svg version="1.1" xmlns:xlink="http://www.w3.org/1999/xlink" width="21px" height="20px" preserveAspectRatio="xMinYMid meet" viewBox="552 481  21 18" xmlns="http://www.w3.org/2000/svg">
  <path d="M 561 490  L 604 490  A 5 5 0 0 1 609 495 L 609 664  A 5 5 0 0 0 614 669 L 658 669  " stroke-width="2" stroke="#0066ff" fill="none" />
  <path d="M 562.5 486.5  A 3.5 3.5 0 0 0 559 490 A 3.5 3.5 0 0 0 562.5 493.5 A 3.5 3.5 0 0 0 566 490 A 3.5 3.5 0 0 0 562.5 486.5 Z M 650.6 677  L 660 669  L 650.6 661  L 654.2 669  L 650.6 677  Z " fill-rule="nonzero" fill="#0066ff" stroke="none" />
</svg>