<?xml version="1.0" encoding="utf-8"?>
<svg version="1.1" xmlns:xlink="http://www.w3.org/1999/xlink" width="34px" height="34px" preserveAspectRatio="xMinYMid meet" viewBox="3618 190  34 32" xmlns="http://www.w3.org/2000/svg">
  <path d="M 853 379  L 853 195  A 5 5 0 0 1 858 190 L 3630 190  A 5 5 0 0 1 3635 195 L 3635 206  " stroke-width="2" stroke="#0066ff" fill="none" />
  <path d="M 853 374  A 3.5 3.5 0 0 0 849.5 377.5 A 3.5 3.5 0 0 0 853 381 A 3.5 3.5 0 0 0 856.5 377.5 A 3.5 3.5 0 0 0 853 374 Z M 3627 198.6  L 3635 208  L 3643 198.6  L 3635 202.2  L 3627 198.6  Z " fill-rule="nonzero" fill="#0066ff" stroke="none" />
</svg>