<?xml version="1.0" encoding="utf-8"?>
<svg version="1.1" xmlns:xlink="http://www.w3.org/1999/xlink" width="10px" height="196px" preserveAspectRatio="xMidYMin meet" viewBox="849 185  8 196" xmlns="http://www.w3.org/2000/svg">
  <path d="M 853 379  L 853 195  A 5 5 0 0 1 858 190 L 2680 190  A 5 5 0 0 1 2685 195 L 2685 206  " stroke-width="2" stroke="#0066ff" fill="none" />
  <path d="M 853 374  A 3.5 3.5 0 0 0 849.5 377.5 A 3.5 3.5 0 0 0 853 381 A 3.5 3.5 0 0 0 856.5 377.5 A 3.5 3.5 0 0 0 853 374 Z M 2677 198.6  L 2685 208  L 2693 198.6  L 2685 202.2  L 2677 198.6  Z " fill-rule="nonzero" fill="#0066ff" stroke="none" />
</svg>