<?xml version="1.0" encoding="utf-8"?>
<svg version="1.1" xmlns:xlink="http://www.w3.org/1999/xlink" width="17px" height="20px" xmlns="http://www.w3.org/2000/svg">
  <g transform="matrix(1 0 0 1 -953 -696 )">
    <path d="M 16.895061734953707 17.083333339843747  C 16.895061734953707 13.45833333984375  13.662962962962965 10.458333339843747  10.095061734953706 9.75  C 12.109876549768519 9.08333333984375  13.537037037037036 7.20833333984375  13.537037037037036 5  C 13.537037037037036 2.25  11.270370370370369 0  8.5 0  C 5.72962962962963 0  3.462962962962963 2.25  3.462962962962963 5  C 3.462962962962963 7.20833333984375  4.8901234502314805 9.08333333984375  6.9049382650462965 9.75  C 3.337037037037037 10.458333339843751  0.10493826504629622 13.458333339843751  0.10493826504629622 17.083333339843747  C 0.10493826504629622 18.70833333984375  1.4061728263888884 20  3.043209883101852 20  L 13.95679011689815 20  C 15.593827153935187 20  16.89506171527778 18.70833333984375  16.895061734953707 17.083333339843747  Z " fill-rule="nonzero" fill="#7f7f7f" stroke="none" transform="matrix(1 0 0 1 953 696 )" />
  </g>
</svg>