<?xml version="1.0" encoding="utf-8"?>
<svg version="1.1" xmlns:xlink="http://www.w3.org/1999/xlink" width="20px" height="20px" xmlns="http://www.w3.org/2000/svg">
  <g transform="matrix(1 0 0 1 -950 -639 )">
    <path d="M 19.85826771653543 8.67716535433071  C 19.85826771653543 3.952755905511812  15.41732283464567 0.11023622047244094  9.937007874015748 0.11023622047244094  C 4.440944881889763 0.11023622047244094  0 3.952755905511811  0 8.67716535433071  C 0 11.133858267716537  1.1968503937007875 13.354330708661417  3.133858267716535 14.913385826771655  L 9.921259842519685 19.968503937007874  L 9.921259842519685 17.244094488188978  C 15.401574803149607 17.244094488188978  19.85826771653543 13.401574803149606  19.85826771653543 8.67716535433071  Z M 16.188976377952756 8.89763779527559  C 16.173228346456693 9.622047244094489  15.590551181102361 10.204724409448819  14.881889763779528 10.204724409448819  C 14.157480314960631 10.204724409448819  13.5748031496063 9.622047244094487  13.5748031496063 8.89763779527559  C 13.5748031496063 8.173228346456693  14.157480314960631 7.590551181102363  14.881889763779528 7.590551181102363  C 15.606299212598424 7.590551181102363  16.188976377952756 8.173228346456693  16.188976377952756 8.89763779527559  Z M 11.244094488188976 8.89763779527559  C 11.228346456692913 9.622047244094489  10.645669291338582 10.204724409448819  9.937007874015748 10.204724409448819  C 9.21259842519685 10.204724409448819  8.629921259842519 9.622047244094487  8.629921259842519 8.89763779527559  C 8.629921259842519 8.173228346456693  9.21259842519685 7.590551181102363  9.937007874015748 7.590551181102363  C 10.661417322834643 7.590551181102363  11.244094488188976 8.173228346456693  11.244094488188976 8.89763779527559  Z M 6.314960629921259 8.89763779527559  C 6.314960629921259 9.622047244094489  5.732283464566928 10.204724409448819  5.007874015748031 10.204724409448819  C 4.283464566929133 10.204724409448819  3.700787401574803 9.622047244094487  3.700787401574803 8.89763779527559  C 3.700787401574803 8.173228346456693  4.283464566929133 7.590551181102363  5.007874015748031 7.590551181102363  C 5.732283464566929 7.590551181102363  6.314960629921259 8.173228346456693  6.314960629921259 8.89763779527559  Z " fill-rule="nonzero" fill="#7f7f7f" stroke="none" transform="matrix(1 0 0 1 950 639 )" />
  </g>
</svg>