<?xml version="1.0" encoding="utf-8"?>
<svg version="1.1" xmlns:xlink="http://www.w3.org/1999/xlink" width="24px" height="24px" xmlns="http://www.w3.org/2000/svg">
  <g transform="matrix(1 0 0 1 -788 -240 )">
    <path d="M 15.9404296875 7.083984374999998  L 11.9443359375 10.9423828125  L 8.0859375 6.9462890625  C 7.78125 6.6328125  7.283203125 6.626953125  6.969726562499998 6.931640625  C 6.817382812499998 7.0751953125  6.729492187499998 7.2744140625  6.726562499999998 7.4853515625  C 6.720703124999998 7.696289062499998  6.802734374999998 7.8984375  6.946289062499998 8.047851562499998  L 10.804687499999998 12.0439453125  L 6.808593749999998 15.90234375  C 6.495117187499998 16.20703125  6.4892578125 16.705078125  6.793945312499998 17.018554687500004  C 6.937499999999998 17.170898437500004  7.136718749999998 17.258789062500004  7.347656249999998 17.26171875  C 7.558593749999998 17.267578125000004  7.760742187499998 17.185546875  7.910156249999998 17.0419921875  L 11.906249999999998 13.183593750000004  L 15.7646484375 17.179687500000004  C 16.0693359375 17.493164062500004  16.5673828125 17.4990234375  16.880859375 17.194335937500004  C 17.033203125000004 17.050781250000004  17.121093750000004 16.8515625  17.1240234375 16.640625000000004  C 17.1298828125 16.4296875  17.0478515625 16.227539062500004  16.904296875 16.078125  L 13.0458984375 12.082031249999996  L 17.0419921875 8.223632812499998  C 17.355468750000004 7.9189453125  17.361328125 7.4208984375  17.056640625 7.107421874999998  C 16.9130859375 6.955078124999998  16.7138671875 6.867187499999998  16.5029296875 6.864257812499998  C 16.2919921875 6.858398437499998  16.08984375 6.940429687499998  15.9404296875 7.083984374999998  Z M 20.2734375 20.53125  C 15.547851562499996 25.092773437500007  8.021484375 24.9638671875  3.45703125 20.23828125  C -1.1044921874999996 15.512695312500004  -0.9726562499999996 7.986328125000002  3.75 3.4218750000000018  C 8.475585937500002 -1.1396484374999982  16.001953125 -1.0078124999999982  20.56640625 3.7148437500000018  C 25.127929687499993 8.440429687500002  24.9990234375 15.966796875000004  20.2734375 20.53125  Z " fill-rule="nonzero" fill="#e3e2e4" stroke="none" transform="matrix(1 0 0 1 788 240 )" />
  </g>
</svg>