<?xml version="1.0" encoding="utf-8"?>
<svg version="1.1" xmlns:xlink="http://www.w3.org/1999/xlink" width="24px" height="20px" xmlns="http://www.w3.org/2000/svg">
  <g transform="matrix(1 0 0 1 -2383 -357 )">
    <path d="M 0 1.0144927445652177  C 0 0.5327536141304348  0.36857142857142866 0.14260869565217443  0.8222857232142855 0.14492752717391333  L 7.394285705357142 0.17971013586956552  C 7.584571419642856 0.18086956521739145  7.767999991071427 0.2521739130434783  7.914285723214285 0.38144926630434833  L 10.932571419642857 3  L 23.181714294642855 3  C 23.63371430357143 3.056231875  24 3.4452173913043476  24 3.9257970923913046  L 24 18.984927527173912  C 24 19.465507228260872  23.633714276785714 19.85449274456522  23.181714294642855 19.85449274456522  L 0.8182857053571428 19.85449274456522  C 0.36571427678571433 19.855072472826084  0 19.465507255434783  0 18.985507255434783  L 0 1.0144927445652177  Z M 1.7142857142857142 1.8881159510869563  L 2 1.8886956521739129  L 2 18  L 22 18  L 22 5  L 10.646857151785714 5  C 10.4565714375 4.795362309782608  10.27257144642857 4.723478260869566  10.126857133928569 4.593623179347826  L 7.129142866071426 1.9171014402173925  L 1.7142857142857142 1.8881159510869563  Z M 15.72800000892857 12.318840570652174  L 8.857142866071428 12.318840570652174  L 15.72800000892857 12.318840570652174  C 16.20146003773659 12.318840567489861  16.585215966453056 12.708158176332649  16.585215966453056 13.188405784881166  C 16.585215966453056 13.257345274443729  16.57713485890523 13.326040173826222  16.561142866071428 13.393043478260871  L 16.539999991071426 13.466666657608696  L 15.67142858035714 16.075362309782612  C 15.553629411263039 16.428523631670544  15.227018791334958 16.6662008136331  14.859511641479981 16.6662008136331  C 14.386124713053587 16.6662008136331  14.002368784337122 16.276883204790312  14.002368784337122 15.796635596241797  C 14.002368784337122 15.730446763437524  14.009817905059295 15.664474337846062  14.024571428571427 15.600000000000001  L 14.047428562499999 15.518840570652175  L 14.53314286607143 14.057971005434784  L 8.857142866071428 14.057971005434784  C 8.383921798637068 14.057733197534494  8.00042459565729 13.668485297400512  8.00042459565729 13.18840589472731  C 8.00042459565729 12.740658915345989  8.335566148976365 12.366104061799364  8.774857151785714 12.322898559782608  L 8.857142866071428 12.318840570652174  L 15.72800000892857 12.318840570652174  Z M 9.999999991071428 6.568115951086958  C 10.41821381103707 6.71110712536871  10.66104660084881 7.152885174418406  10.561142866071428 7.588985516304349  L 10.538285705357143 7.670144918478262  L 10.052000008928571 9.131014483695653  L 15.728571428571428 9.131014483695653  C 16.20179260341981 9.131252137687909  16.585289973872133 9.520500082973495  16.585289973872133 10.000579594541222  C 16.585289973872133 10.448326681243415  16.250148264682664 10.822881587741957  15.810857142857143 10.866086956521741  L 15.728571428571428 10.869565217391308  L 8.857142866071428 10.869565217391308  C 8.383682837263406 10.869565220553621  7.999926908546943 10.480247611710833  7.999926908546943 10.000000003162317  C 7.999926908546943 9.931060513599752  8.00800801609477 9.86236561421726  8.02400000892857 9.795362309782611  L 8.045142857142856 9.721739130434786  L 8.913714294642856 7.113043478260872  C 9.06547206972731 6.658652276088506  9.551313288871208 6.414805197894932  9.99942857142857 6.568115951086959  Z " fill-rule="nonzero" fill="#ffffff" stroke="none" transform="matrix(1 0 0 1 2383 357 )" />
  </g>
</svg>