<?xml version="1.0" encoding="utf-8"?>
<svg version="1.1" xmlns:xlink="http://www.w3.org/1999/xlink" width="55px" height="10px" preserveAspectRatio="xMinYMid meet" viewBox="1305 653  55 8" xmlns="http://www.w3.org/2000/svg">
  <path d="M 1307 657  L 1350 657  A 5 5 0 0 0 1355 652 L 1355 586  A 5 5 0 0 1 1360 581 L 1403 581  " stroke-width="2" stroke="#0066ff" fill="none" />
  <path d="M 1308.5 653.5  A 3.5 3.5 0 0 0 1305 657 A 3.5 3.5 0 0 0 1308.5 660.5 A 3.5 3.5 0 0 0 1312 657 A 3.5 3.5 0 0 0 1308.5 653.5 Z M 1395.6 589  L 1405 581  L 1395.6 573  L 1399.2 581  L 1395.6 589  Z " fill-rule="nonzero" fill="#0066ff" stroke="none" />
</svg>