<?xml version="1.0" encoding="utf-8"?>
<svg version="1.1" xmlns:xlink="http://www.w3.org/1999/xlink" width="10px" height="1052px" preserveAspectRatio="xMidYMin meet" viewBox="1346 704  8 1052" xmlns="http://www.w3.org/2000/svg">
  <path d="M 1307 709  L 1345 709  A 5 5 0 0 1 1350 714 L 1350 1746  A 5 5 0 0 0 1355 1751 L 1402 1751  " stroke-width="2" stroke="#0066ff" fill="none" />
  <path d="M 1308.5 705.5  A 3.5 3.5 0 0 0 1305 709 A 3.5 3.5 0 0 0 1308.5 712.5 A 3.5 3.5 0 0 0 1312 709 A 3.5 3.5 0 0 0 1308.5 705.5 Z M 1394.6 1759  L 1404 1751  L 1394.6 1743  L 1398.2 1751  L 1394.6 1759  Z " fill-rule="nonzero" fill="#0066ff" stroke="none" />
</svg>