<?xml version="1.0" encoding="utf-8"?>
<svg version="1.1" xmlns:xlink="http://www.w3.org/1999/xlink" width="21px" height="21px" xmlns="http://www.w3.org/2000/svg">
  <g transform="matrix(1 0 0 1 -2408 -2590 )">
    <path d="M 18.826500000000003 13.420067796610166  C 21.606301507939875 10.338445110633058  21.58758861481558 5.405853350142806  18.7845 2.3491525423728805  C 15.911427770340966 -0.6274046610310926  11.388572229659035 -0.6274046610310926  8.5155 2.349152542372882  L 2.3625000000000007 8.978033898305084  C -0.4706018971832999 12.055223568595403  -0.4706018971832999 17.040098465302897  2.3625000000000007 20.117288135593217  C 2.756966137045519 20.548218325936972  3.2936589193235326 20.79056913134664  3.853500000000002 20.79056913134664  C 5.013950177624881 20.79056913134664  5.954680917960187 19.77011544691512  5.954680917960187 18.511322033898303  C 5.954680917960187 17.909618463835656  5.73534052645062 17.332325364152325  5.344500000000004 16.90535593220339  C 4.153789768041857 15.60778614569968  4.153789768041855 13.510315549215573  5.344500000000001 12.212745762711863  L 11.539499999999997 5.492745762711865  C 12.749278452363075 4.237317661014377  14.655721547636922 4.237317661014378  15.8655 5.492745762711865  C 17.05621023195815 6.790315549215575  17.05621023195815 8.88778614569968  15.8655 10.18535593220339  L 14.374500000000003 11.802711864406778  C 13.977236230776855 12.230607335100222  13.753819082039819 12.812782556554339  13.753819082039819 13.42006779661017  C 13.753819082039819 14.678861209626985  14.694549822375125 15.699314894058505  15.855000000000002 15.699314894058505  C 16.409695478651507 15.699314894058505  16.941887554922076 15.461386333776947  17.335500000000003 15.03742372881356  L 18.826500000000003 13.420067796610166  Z " fill-rule="nonzero" fill="#ffffff" stroke="none" transform="matrix(1 0 0 1 2408 2590 )" />
  </g>
</svg>