<?xml version="1.0" encoding="utf-8"?>
<svg version="1.1" xmlns:xlink="http://www.w3.org/1999/xlink" width="21px" height="21px" xmlns="http://www.w3.org/2000/svg">
  <g transform="matrix(1 0 0 1 -2400 -2599 )">
    <path d="M 17.1871683076129 0.1641773562544266  C 16.643865562773602 0.1641773562544266  16.121032623393912 0.3855207036246742  15.725333333333333 0.7830508474576282  C 14.898189664616963 1.6715429467692926  14.898189664616963 3.1064909515357946  15.725333333333333 3.994983050847459  C 16.934943727703523 5.292552837351169  16.934943727703516 7.390023433835271  15.725333333333333 8.687593220338982  L 9.453333333333335 15.453152542372885  C 8.861845825620888 16.17684753327105  8.006220584646021 16.592135593220334  7.106666666666679 16.592135593220334  C 5.386483765860369 16.592135593220334  3.992000000000013 15.103110555098258  3.992000000000013 13.266305084745754  C 3.992000000000013 12.30576446046273  4.380920564079494 11.392130728574308  5.058666666666667 10.760542372881355  L 6.466666666666669 9.143186440677967  C 6.863711010997456 8.716217008729028  7.086532996023048 8.1389239090457  7.086532996023048 7.537220338983051  C 7.086532996023048 6.278426925966235  6.130870021714162 5.257973241534716  4.952000000000003 5.257973241534716  C 4.383272552963592 5.257973241534716  3.838060837633545 5.5003240469443835  3.437333333333335 5.931254237288137  L 2.029333333333335 7.616949152542375  C 0.7585487874816614 9.075423050873642  0.05210871561122588 10.993622373822593  0.05210871561122588 12.985714422313432  C 0.05210871561122588 17.33869176986114  3.356844215526862 20.86747713417784  7.433442048944559 20.86747713417784  C 9.299052062610581 20.86747713417784  11.095460952356435 20.113142820146702  12.461333333333332 18.756203389830507  L 18.754666666666665 12.03620338983051  C 21.632738435233826 8.959013719540188  21.632738435233826 3.9741388228326913  18.754666666666665 0.8969491525423765  C 18.350816232135532 0.4298365053901146  17.782535244183627 0.1641773562544266  17.1871683076129 0.1641773562544266  Z " fill-rule="nonzero" fill="#ffffff" stroke="none" transform="matrix(1 0 0 1 2400 2599 )" />
  </g>
</svg>