<?xml version="1.0" encoding="utf-8"?>
<svg version="1.1" xmlns:xlink="http://www.w3.org/1999/xlink" width="34px" height="34px" preserveAspectRatio="xMinYMid meet" viewBox="2337 561  34 32" xmlns="http://www.w3.org/2000/svg">
  <path d="M 2166 653  L 2295 653  A 5 5 0 0 0 2300 648 L 2300 582  A 5 5 0 0 1 2305 577 L 2354 577  " stroke-width="2" stroke="#0066ff" fill="none" />
  <path d="M 2167.5 649.5  A 3.5 3.5 0 0 0 2164 653 A 3.5 3.5 0 0 0 2167.5 656.5 A 3.5 3.5 0 0 0 2171 653 A 3.5 3.5 0 0 0 2167.5 649.5 Z M 2346.6 585  L 2356 577  L 2346.6 569  L 2350.2 577  L 2346.6 585  Z " fill-rule="nonzero" fill="#0066ff" stroke="none" />
</svg>