<?xml version="1.0" encoding="utf-8"?>
<svg version="1.1" xmlns:xlink="http://www.w3.org/1999/xlink" width="55px" height="10px" preserveAspectRatio="xMinYMid meet" viewBox="1825 573  55 8" xmlns="http://www.w3.org/2000/svg">
  <path d="M 1498 466  L 1825 466  A 5 5 0 0 1 1830 471 L 1830 572  A 5 5 0 0 0 1835 577 L 1878 577  " stroke-width="2" stroke="#0066ff" fill="none" />
  <path d="M 1499.5 462.5  A 3.5 3.5 0 0 0 1496 466 A 3.5 3.5 0 0 0 1499.5 469.5 A 3.5 3.5 0 0 0 1503 466 A 3.5 3.5 0 0 0 1499.5 462.5 Z M 1870.6 585  L 1880 577  L 1870.6 569  L 1874.2 577  L 1870.6 585  Z " fill-rule="nonzero" fill="#0066ff" stroke="none" />
</svg>