<?xml version="1.0" encoding="utf-8"?>
<svg version="1.1" xmlns:xlink="http://www.w3.org/1999/xlink" width="21px" height="20px" preserveAspectRatio="xMinYMid meet" viewBox="1278 2674  21 18" xmlns="http://www.w3.org/2000/svg">
  <path d="M 1287 2683  L 1355 2683  A 5 5 0 0 1 1360 2688 L 1360 2854  A 5 5 0 0 0 1365 2859 L 1403 2859  " stroke-width="2" stroke="#0066ff" fill="none" />
  <path d="M 1288.5 2679.5  A 3.5 3.5 0 0 0 1285 2683 A 3.5 3.5 0 0 0 1288.5 2686.5 A 3.5 3.5 0 0 0 1292 2683 A 3.5 3.5 0 0 0 1288.5 2679.5 Z M 1395.6 2867  L 1405 2859  L 1395.6 2851  L 1399.2 2859  L 1395.6 2867  Z " fill-rule="nonzero" fill="#0066ff" stroke="none" />
</svg>