<?xml version="1.0" encoding="utf-8"?>
<svg version="1.1" xmlns:xlink="http://www.w3.org/1999/xlink" width="65px" height="10px" preserveAspectRatio="xMinYMid meet" viewBox="1815 2855  65 8" xmlns="http://www.w3.org/2000/svg">
  <path d="M 1498 2744  L 1815 2744  A 5 5 0 0 1 1820 2749 L 1820 2854  A 5 5 0 0 0 1825 2859 L 1878 2859  " stroke-width="2" stroke="#0066ff" fill="none" />
  <path d="M 1499.5 2740.5  A 3.5 3.5 0 0 0 1496 2744 A 3.5 3.5 0 0 0 1499.5 2747.5 A 3.5 3.5 0 0 0 1503 2744 A 3.5 3.5 0 0 0 1499.5 2740.5 Z M 1870.6 2867  L 1880 2859  L 1870.6 2851  L 1874.2 2859  L 1870.6 2867  Z " fill-rule="nonzero" fill="#0066ff" stroke="none" />
</svg>