<?xml version="1.0" encoding="utf-8"?>
<svg version="1.1" xmlns:xlink="http://www.w3.org/1999/xlink" width="10px" height="92px" preserveAspectRatio="xMidYMin meet" viewBox="1816 1746  8 92" xmlns="http://www.w3.org/2000/svg">
  <path d="M 1739 1833  L 1815 1833  A 5 5 0 0 0 1820 1828 L 1820 1756  A 5 5 0 0 1 1825 1751 L 1878 1751  " stroke-width="2" stroke="#0066ff" fill="none" />
  <path d="M 1740.5 1829.5  A 3.5 3.5 0 0 0 1737 1833 A 3.5 3.5 0 0 0 1740.5 1836.5 A 3.5 3.5 0 0 0 1744 1833 A 3.5 3.5 0 0 0 1740.5 1829.5 Z M 1870.6 1759  L 1880 1751  L 1870.6 1743  L 1874.2 1751  L 1870.6 1759  Z " fill-rule="nonzero" fill="#0066ff" stroke="none" />
</svg>