<?xml version="1.0" encoding="utf-8"?>
<svg version="1.1" xmlns:xlink="http://www.w3.org/1999/xlink" width="10px" height="18px" preserveAspectRatio="xMidYMin meet" viewBox="576 3645  8 18" xmlns="http://www.w3.org/2000/svg">
  <path d="M 962 3761  L 962 3655  A 5 5 0 0 0 957 3650 L 585 3650  A 5 5 0 0 0 580 3655 L 580 3661  " stroke-width="2" stroke="#0066ff" fill="none" />
  <path d="M 962 3756  A 3.5 3.5 0 0 0 958.5 3759.5 A 3.5 3.5 0 0 0 962 3763 A 3.5 3.5 0 0 0 965.5 3759.5 A 3.5 3.5 0 0 0 962 3756 Z M 572 3653.6  L 580 3663  L 588 3653.6  L 580 3657.2  L 572 3653.6  Z " fill-rule="nonzero" fill="#0066ff" stroke="none" />
</svg>