<?xml version="1.0" encoding="utf-8"?>
<svg version="1.1" xmlns:xlink="http://www.w3.org/1999/xlink" width="34px" height="34px" preserveAspectRatio="xMinYMid meet" viewBox="1386 4108  34 32" xmlns="http://www.w3.org/2000/svg">
  <path d="M 1023 4009  L 1355 4009  A 5 5 0 0 1 1360 4014 L 1360 4119  A 5 5 0 0 0 1365 4124 L 1403 4124  " stroke-width="2" stroke="#0066ff" fill="none" />
  <path d="M 1024.5 4005.5  A 3.5 3.5 0 0 0 1021 4009 A 3.5 3.5 0 0 0 1024.5 4012.5 A 3.5 3.5 0 0 0 1028 4009 A 3.5 3.5 0 0 0 1024.5 4005.5 Z M 1395.6 4132  L 1405 4124  L 1395.6 4116  L 1399.2 4124  L 1395.6 4132  Z " fill-rule="nonzero" fill="#0066ff" stroke="none" />
</svg>