<?xml version="1.0" encoding="utf-8"?>
<svg version="1.1" xmlns:xlink="http://www.w3.org/1999/xlink" width="10px" height="22px" preserveAspectRatio="xMidYMin meet" viewBox="2249 1033  8 22" xmlns="http://www.w3.org/2000/svg">
  <path d="M 3163 1021  L 3163 1045  A 5 5 0 0 1 3158 1050 L 2258 1050  A 5 5 0 0 1 2253 1045 L 2253 1035  " stroke-width="2" stroke="#0066ff" fill="none" />
  <path d="M 3163 1019  A 3.5 3.5 0 0 0 3159.5 1022.5 A 3.5 3.5 0 0 0 3163 1026 A 3.5 3.5 0 0 0 3166.5 1022.5 A 3.5 3.5 0 0 0 3163 1019 Z M 2261 1042.4  L 2253 1033  L 2245 1042.4  L 2253 1038.8  L 2261 1042.4  Z " fill-rule="nonzero" fill="#0066ff" stroke="none" />
</svg>