<?xml version="1.0" encoding="utf-8"?>
<svg version="1.1" xmlns:xlink="http://www.w3.org/1999/xlink" width="21px" height="20px" preserveAspectRatio="xMinYMid meet" viewBox="698 462  21 18" xmlns="http://www.w3.org/2000/svg">
  <path d="M 707 471  L 750 471  A 5 5 0 0 1 755 476 L 755 622  A 5 5 0 0 0 760 627 L 803 627  " stroke-width="2" stroke="#0066ff" fill="none" />
  <path d="M 708.5 467.5  A 3.5 3.5 0 0 0 705 471 A 3.5 3.5 0 0 0 708.5 474.5 A 3.5 3.5 0 0 0 712 471 A 3.5 3.5 0 0 0 708.5 467.5 Z M 795.6 635  L 805 627  L 795.6 619  L 799.2 627  L 795.6 635  Z " fill-rule="nonzero" fill="#0066ff" stroke="none" />
</svg>