<?xml version="1.0" encoding="utf-8"?>
<svg version="1.1" xmlns:xlink="http://www.w3.org/1999/xlink" width="19px" height="19px" xmlns="http://www.w3.org/2000/svg">
  <g transform="matrix(1 0 0 1 -1620 -1490 )">
    <path d="M 18.873333333333335 19  C 18.721333333333334 14.155  12.945333333333334 15.366249999999999  12.083999999999998 13.1575  C 12.008000000000001 12.42125  12.033333333333333 11.875  12.033333333333333 11.18625  C 12.387999999999998 10.99625  13.654666666666667 9.856250000000001  13.756 8.90625  C 14.034666666666666 8.8825  14.490666666666666 8.62125  14.617333333333333 7.57625  C 14.693333333333333 7.03  14.414666666666665 6.6975  14.23733333333333 6.602499999999999  C 14.693333333333332 5.296249999999999  14.895999999999999 1.2112499999999995  11.703999999999997 0.8074999999999997  C 11.374666666666666 0.285  10.538666666666666 0  9.449333333333334 0  C 5.092 0.07125  3.8000000000000003 3.1350000000000002  4.762666666666666 6.62625  C 4.585333333333334 6.72125  4.306666666666667 7.03  4.382666666666666 7.6000000000000005  C 4.509333333333333 8.645  4.965333333333333 8.90625  5.244 8.93  C 5.3453333333333335 9.90375  6.611999999999999 11.043750000000001  6.966666666666666 11.21  C 6.966666666666666 11.898750000000001  6.992 12.42125  6.9159999999999995 13.181250000000002  C 6.054666666666668 15.366249999999999  0.40533333333333327 14.22625  0.12666666666666665 19  L 18.873333333333335 19  Z " fill-rule="nonzero" fill="#ffffff" stroke="none" transform="matrix(1 0 0 1 1620 1490 )" />
  </g>
</svg>