<?xml version="1.0" encoding="utf-8"?>
<svg version="1.1" xmlns:xlink="http://www.w3.org/1999/xlink" width="27px" height="27px" xmlns="http://www.w3.org/2000/svg">
  <g transform="matrix(1 0 0 1 -1371 -1292 )">
    <path d="M 26.156831791992186 13.478246015625002  C 26.156831791992186 6.487555682373046  20.4901675378418 0.8213973486328127  13.499983125 0.8213973486328127  C 6.509798712158203 0.8213973486328127  0.8431344580078118 6.487555682373046  0.8431344580078118 13.478246015625  C 0.8431344580078118 20.46785707397461  6.509832429199219 26.13509468261719  13.499983125 26.13509468261719  C 20.490133820800782 26.13509468261719  26.156831791992186 20.467857073974614  26.156831791992186 13.478246015625002  Z M 14.976253476562501 18.78227614379883  C 14.976253476562501 19.595100036621094  14.315201652832034 20.255106302490233  13.499983125 20.255106302490233  C 12.68476459716797 20.255106302490233  12.024252410888671 19.595100036621094  12.024252410888671 18.78227614379883  C 12.024252410888671 17.969317316894536  12.68476459716797 17.310491510009765  13.499983125 17.310491510009765  C 14.315201652832027 17.310491510009765  14.976253476562501 17.969317316894536  14.976253476562501 18.78227614379883  Z M 14.976253476562501 7.00378319091797  L 14.976253476562501 13.875012004394533  C 14.976253476562501 14.687903364257812  14.315167935791015 15.347268808593752  13.499983125 15.347268808593752  C 12.684798314208985 15.347268808593752  12.024252410888671 14.687869647216797  12.024252410888671 13.875012004394533  L 12.024252410888671 7.00378319091797  C 12.024252410888671 6.1908918310546905  12.68476459716797 5.532032274169922  13.499983125 5.532032274169922  C 14.315201652832027 5.532032274169922  14.976253476562501 6.1908918310546905  14.976253476562501 7.00378319091797  Z " fill-rule="nonzero" fill="#ffffff" stroke="none" transform="matrix(1 0 0 1 1371 1292 )" />
  </g>
</svg>