<?xml version="1.0" encoding="utf-8"?>
<svg version="1.1" xmlns:xlink="http://www.w3.org/1999/xlink" width="51px" height="51px" xmlns="http://www.w3.org/2000/svg">
  <g transform="matrix(1 0 0 1 -383 -2288 )">
    <path d="M 25.522216796875004 0.0978515625  C 24.236669921875002 0.10541992187499999  23.207324218750003 1.146484375  23.194287109375004 2.4771972656249996  C 23.181738281250002 3.7704101562499996  23.191601562500004 5.063818359375  23.191845703125004 6.35712890625  C 23.192041015625005 7.687988281249999  23.173974609375 9.019140624999999  23.197216796875004 10.349511718749998  C 23.220361328125 11.67119140625  24.272412109375 12.651367187499998  25.606787109375002 12.639843749999999  C 26.886962890625 12.62880859375  27.930029296875002 11.613964843749999  27.936865234375002 10.323046875  C 27.951025390625002 7.698876953124999  27.952099609375004 5.074658203124998  27.9357421875 2.450634765624998  C 27.927294921874996 1.0990722656249983  26.86787109375 0.08999023437499844  25.522167968750004 0.09785156249999816  Z M 19.907031250000003 11.257568359375002  C 18.615283203125003 8.956933593750001  17.2912109375 6.674365234375003  15.956689453125 4.398291015625  C 15.550195312500001 3.704931640625  14.899755859375 3.36015625  14.086376953125004 3.356103515625  C 12.370410156250001 3.356640625  11.323681640625002 5.1609863281249995  12.182714843750002 6.68515625  C 13.450634765625002 8.93486328125  14.740917968750002 11.1720703125  16.039501953125004 13.404345703125001  C 16.672216796875002 14.492041015624999  17.994921875000003 14.836279296875002  19.057958984375002 14.228759765625002  C 20.0986328125 13.633935546875001  20.507080078125 12.326318359375001  19.907031250000003 11.257568359375002  Z M 3.912060546874998 12.970800781249997  C 3.3161621093749982 14.008886718749997  3.669287109374998 15.198535156249998  4.789306640625 15.8501953125  C 6.953564453125 17.109521484375  9.124755859375 18.356787109375  11.293212890624998 19.608984375000002  C 11.621191406249999 19.798291015625004  11.961425781249998 19.946142578125002  12.352294921874998 19.921826171875  C 13.335595703124998 19.929394531249997  14.108837890624997 19.338964843750002  14.370068359374999 18.3814453125  C 14.613623046874999 17.489013671875  14.238867187499999 16.58701171875  13.381542968749999 16.086572265625  C 11.202880859374998 14.814746093749998  9.018505859374997 13.552880859375  6.833496093749998 12.292089843749997  C 5.733398437499997 11.657324218749997  4.4985839843749975 11.948974609374998  3.912060546874998 12.970800781249997  Z M 2.701904296875001 27.371093749999996  C 3.9537109375000012 27.377197265624996  5.205468750000001 27.372558593749996  6.45732421875 27.372021484374997  C 7.746484375000001 27.371435546875006  9.0357421875 27.38203125  10.324755859375001 27.368310546874998  C 11.467431640625 27.356103515624998  12.2365234375 26.566845703124997  12.218896484375001 25.457421874999998  C 12.202148437500002 24.402490234374994  11.393310546875002 23.632714843749998  10.286669921875001 23.631591796874993  C 7.764306640625001 23.629003906249995  5.2420898437500005 23.628759765625  2.719775390625001 23.633740234374994  C 1.539648437500001 23.636083984374995  0.7314941406250011 24.413671874999995  0.7386718750000011 25.522753906249996  C 0.745751953125001 26.604492187499996  1.548242187500001 27.365576171874995  2.701904296875001 27.371093749999996  Z M 13.86474609375 32.26513671874999  C 13.406884765625 31.469970703125  12.4029296875 31.162890625  11.576660156249998 31.633496093749997  C 9.304248046875 32.927685546875  7.045996093749999 34.247363281249996  4.788720703125 35.56806640625  C 4.246630859374998 35.88525390625  3.9922363281249993 36.391015625  3.984521484374999 36.806396484375  C 3.9869628906249988 38.298388671875  5.313623046875 39.14814453124999  6.445068359374999 38.519287109375  C 8.747021484374999 37.240185546875  11.020751953125 35.90893554687499  13.28759765625 34.567724609375  C 14.126123046875 34.0716796875  14.3369140625 33.08525390625  13.86474609375 32.265087890625  Z M 19.496875000000003 38.883105468749996  C 19.49775390625 38.013085937499994  19.044531250000002 37.425341796874996  18.35205078125 37.228613281250006  C 17.65498046875 37.030566406249996  17.0021484375 37.299560546875  16.60009765625 37.993798828124994  C 15.335423883254867 40.17831765410831  14.077702675479776 42.366854118650885  12.826953125000001 44.559374999999996  C 12.337988281250002 45.416259765625  12.540332031250001 46.301708984375  13.303515625000001 46.757861328125  C 14.086328125 47.225634765625  14.975830078125002 46.956103515624996  15.487109375000003 46.07431640625  C 16.734814453125 43.92294921875  17.972509765625002 41.765673828125  19.216162109375 39.6119140625  C 19.377685546875004 39.33212890624999  19.494140625 39.04140625  19.496875000000003 38.883105468749996  Z M 25.551757812499996 39.391796875000004  C 24.75078125 39.396191406250004  24.216796875 39.9734375  24.21142578125 40.864599609375  C 24.20390625 42.102294921875  24.20947265625 43.340087890625  24.20947265625 44.5779296875  L 24.206054687499996 44.5779296875  C 24.206054687499996 45.853125  24.199511718749996 47.128515625000006  24.208300781249996 48.403710937499994  C 24.21435546875 49.2958984375  24.748095703125 49.872119140624996  25.5484375 49.87880859375  C 26.375781249999996 49.885546875  26.918554687499995 49.301416015625  26.920703125 48.377685546875  C 26.926416015624998 45.883544921875  26.927294921875 43.389208984375  26.924121093750003 40.894921875  C 26.923046875 39.977587890625  26.375927734375004 39.387304687500006  25.551806640625003 39.391796875000004  Z M 38.083349609375006 44.87451171875001  C 36.81181640625 42.609521484375  35.511914062500004 40.3603515625  34.203320312500004 38.1166015625  C 33.838134765625 37.490478515625  33.1337890625 37.334179687500004  32.55361328125 37.683154296875  C 31.994140625000007 38.01977539062501  31.793945312500004 38.690234375  32.137890625000004 39.295605468750004  C 33.420996093750006 41.554248046875  34.72167968750001 43.80273437500001  36.025097656250004 46.049609375  C 36.245458984375006 46.42934570312501  36.594335937500006 46.63383789062501  37.04677734375 46.62685546875001  C 37.9529296875 46.620068359375004  38.537207031250006 45.68305664062501  38.083349609375006 44.87451171875001  Z M 45.919140625000004 36.10546875000001  C 43.707837615926806 34.82338911450183  41.495271436562966 33.54348940399252  39.2814453125 32.26577148437501  C 39.051660156249994 32.133154296875006  38.80566406249999 32.053857421875  38.5314453125 32.121240234375  C 38.085986328124996 32.230566406250006  37.801806640624996 32.513525390625006  37.72519531249999 32.956103515625  C 37.633203124999994 33.487060546875  37.912890624999996 33.8451171875  38.35458984374999 34.099853515625  C 39.80917968749999 34.938818359375  41.26274414062499 35.779296875  42.71689453124999 36.618896484375  C 43.460253906249996 37.048095703125  44.193261718749994 37.496630859375  44.95043945312499 37.899755859375  C 45.666845703125 38.28115234375  46.46606445312499 37.800439453125  46.466845703124996 37.019140625000006  C 46.463427734374996 36.607128906250004  46.266894531249996 36.30703125  45.919140625000004 36.105419921875004  Z M 48.305224609375 24.648779296875002  C 47.090869140625 24.644287109375  45.8765625 24.647558593750002  44.662158203125 24.647558593750002  L 44.662158203125 24.644970703125  C 43.429150390625004 24.644970703125  42.196044921875 24.641455078125002  40.963085937500004 24.646435546875  C 40.30634765625 24.648876953125  39.93945312500001 24.955664062500002  39.9296875 25.490527343750003  C 39.919824218749994 26.034130859375004  40.27490234375 26.346044921875  40.9384765625 26.347509765625006  C 43.404541015625 26.353027343750007  45.87060546875 26.354052734375006  48.336718749999996 26.351123046875003  C 48.989062499999996 26.350439453125002  49.370507812499994 26.035009765625  49.380859375 25.51455078125  C 49.39130859375 24.984912109375003  48.98471679687499 24.6513671875  48.305224609374996 24.648828125  Z M 38.1556640625 18.229150390625  C 38.391748046875 18.6126953125  38.74580078125 18.660302734374998  39.1279296875 18.439697265624996  C 41.32921919973084 17.168899356470497  43.52917158849431 15.89578667309034  45.727783203125 14.620361328124998  C 45.965234375 14.482519531249999  46.130126953125 14.285644531249996  46.124365234375 13.988281249999998  C 46.118310546874994 13.449560546874997  45.578271484375 13.137695312499996  45.07553710937499 13.425439453125001  C 42.853125 14.697265625  40.63916015624999 15.983496093749999  38.427734375 17.27421875  C 38.0537109375 17.492480468750003  37.91416015625 17.83671875  38.1556640625 18.229150390625  Z M 32.71562500000001 12.094824218749999  C 32.56298828125001 12.446240234375  32.79716796875001 12.810058593750002  33.156591796875 12.819433593749999  C 33.40966796875 12.807373046874998  33.556347656250004 12.652880859375  33.673876953125 12.44580078125  C 33.9138671875 12.02294921875  34.16337890625 11.605615234375  34.40600585937501 11.184228515625  C 35.40454101562501 9.449902343749999  36.40410156250001 7.71630859375  37.398291015625006 5.979541015625  C 37.646533203125 5.545947265625  37.545996093750006 5.16591796875  37.16557617187501 5.07470703125  C 36.79086914062501 4.98486328125  36.633007812500004 5.254882812500001  36.47939453125001 5.52197265625  C 35.36005859375001 7.4671875  34.23964843750001 9.411962890625  33.12065429687501 11.35751953125  C 32.980810546875006 11.60068359375  32.826708984375 11.83857421875  32.71562500000001 12.094824218749999  Z " fill-rule="nonzero" fill="#000000" stroke="none" transform="matrix(1 0 0 1 383 2288 )" />
  </g>
</svg>