<?xml version="1.0" encoding="utf-8"?>
<svg version="1.1" xmlns:xlink="http://www.w3.org/1999/xlink" width="14px" height="14px" xmlns="http://www.w3.org/2000/svg">
  <g transform="matrix(1 0 0 1 -2875 -1259 )">
    <path d="M 13.562801669921875 6.98872015625  C 13.562801669921875 3.3639177612304683  10.62453131591797 0.4259097363281251  6.99999125 0.4259097363281251  C 3.375451184082031 0.4259097363281251  0.4371808300781247 3.3639177612304683  0.4371808300781247 6.98872015625  C 0.4371808300781247 10.612962927246095  3.3754686669921874 13.551530576171878  6.99999125 13.551530576171878  C 10.624513833007814 13.551530576171878  13.562801669921875 10.612962927246096  13.562801669921875 6.98872015625  Z M 7.765464765625 9.738958000488282  C 7.765464765625 10.160422241210938  7.422697153320313 10.502647712402343  6.99999125 10.502647712402343  C 6.577285346679688 10.502647712402343  6.2347975463867185 10.160422241210938  6.2347975463867185 9.738958000488282  C 6.2347975463867185 9.317423793945315  6.577285346679688 8.975810412597657  6.99999125 8.975810412597657  C 7.4226971533203105 8.975810412597657  7.765464765625 9.317423793945315  7.765464765625 9.738958000488282  Z M 7.765464765625 3.631591284179688  L 7.765464765625 7.194450668945313  C 7.765464765625 7.615949892578125  7.422679670410156 7.9578430859375  6.99999125 7.9578430859375  C 6.577302829589844 7.9578430859375  6.2347975463867185 7.615932409667969  6.2347975463867185 7.194450668945313  L 6.2347975463867185 3.631591284179688  C 6.2347975463867185 3.2100920605468763  6.577285346679688 2.868461179199219  6.99999125 2.868461179199219  C 7.4226971533203105 2.868461179199219  7.765464765625 3.2100920605468763  7.765464765625 3.631591284179688  Z " fill-rule="nonzero" fill="#ff6666" stroke="none" transform="matrix(1 0 0 1 2875 1259 )" />
  </g>
</svg>