<?xml version="1.0" encoding="utf-8"?>
<svg version="1.1" xmlns:xlink="http://www.w3.org/1999/xlink" width="10px" height="14px" xmlns="http://www.w3.org/2000/svg">
  <g transform="matrix(1 0 0 1 -790 -335 )">
    <path d="M 9.665178571428571 13.4453125  C 9.53125 13.4921875  9.397321428571429 13.5390625  9.296875 13.5390625  C 9.16294642857143 13.5390625  9.02901785714286 13.515625  8.928571428571429 13.4453125  L 0.2566964285714298 7.351562499999999  C 0.12276785714285779 7.2578125  0.055803571428572694 7.1171875  0.055803571428572694 7  C 0.055803571428572694 6.8828125  0.12276785714285779 6.7421875  0.2566964285714298 6.6484375  L 8.928571428571429 0.5546875  C 9.129464285714286 0.4140625  9.430803571428571 0.4140625  9.631696428571429 0.5546875  C 9.832589285714288 0.6953125  9.832589285714288 0.9062500000000001  9.631696428571429 1.046875  L 1.1607142857142858 7  L 9.665178571428571 12.953125  C 9.866071428571429 13.09375  9.866071428571429 13.3046875  9.665178571428571 13.4453125  Z " fill-rule="nonzero" fill="#999999" stroke="none" transform="matrix(1 0 0 1 790 335 )" />
  </g>
</svg>