<?xml version="1.0" encoding="utf-8"?>
<svg version="1.1" xmlns:xlink="http://www.w3.org/1999/xlink" width="12px" height="12px" xmlns="http://www.w3.org/2000/svg">
  <g transform="matrix(1 0 0 1 -497 -392 )">
    <path d="M 11.986725663716815 5.960176991150442  C 11.986725663716815 9.240265486725663  9.318584070796462 11.9070796460177  6.039823008849558 11.9070796460177  C 2.7610619469026547 11.9070796460177  0.09292035398230089 9.238938053097344  0.09292035398230089 5.960176991150442  C 0.09292035398230089 2.6814159292035398  2.7610619469026547 0.01327433628318584  6.039823008849558 0.01327433628318584  C 9.318584070796462 0.01327433628318584  11.986725663716815 2.6814159292035398  11.986725663716815 5.960176991150442  Z M 11.28716814159292 5.960176991150442  C 11.28716814159292 3.067699115044248  8.93362831858407 0.7128318584070795  6.039823008849558 0.7128318584070803  C 3.146017699115044 0.7128318584070796  0.7924778761061947 3.066371681415929  0.7924778761061947 5.960176991150442  C 0.7924778761061947 8.853982300884956  3.146017699115044 11.207522123893805  6.039823008849558 11.207522123893805  C 8.93362831858407 11.207522123893805  11.28716814159292 8.853982300884956  11.28716814159292 5.960176991150442  Z M 10.704424778761062 5.960176991150442  C 10.704424778761062 3.38495575221239  8.616371681415929 1.2969026548672564  6.039823008849558 1.2969026548672564  C 3.4632743362831855 1.2969026548672564  1.3752212389380531 3.38495575221239  1.3752212389380531 5.960176991150442  C 1.3752212389380531 8.536725663716814  3.4632743362831855 10.624778761061947  6.039823008849558 10.624778761061947  C 8.61637168141593 10.624778761061947  10.704424778761062 8.536725663716814  10.704424778761062 5.960176991150442  Z M 4.780088495575222 4.642035398230087  C 4.780088495575222 3.94646017699115  5.34424778761062 3.382300884955752  6.039823008849558 3.382300884955752  C 6.735398230088495 3.382300884955752  7.2995575221238935 3.94646017699115  7.2995575221238935 4.642035398230087  C 7.2995575221238935 5.337610619469025  6.735398230088495 5.901769911504424  6.039823008849558 5.901769911504424  C 5.34424778761062 5.901769911504424  4.780088495575222 5.337610619469025  4.780088495575222 4.642035398230087  Z M 8.235398230088496 7.766814159292036  C 8.235398230088496 8.796902654867257  3.8442477876106187 8.796902654867257  3.8442477876106196 7.766814159292036  C 3.8442477876106196 6.736725663716814  4.827876106194691 6.118141592920354  6.039823008849558 6.118141592920354  C 7.251769911504424 6.118141592920354  8.235398230088496 6.738053097345133  8.235398230088496 7.766814159292036  Z " fill-rule="nonzero" fill="#000000" stroke="none" transform="matrix(1 0 0 1 497 392 )" />
  </g>
</svg>