<?xml version="1.0" encoding="utf-8"?>
<svg version="1.1" xmlns:xlink="http://www.w3.org/1999/xlink" width="12px" height="12px" xmlns="http://www.w3.org/2000/svg">
  <g transform="matrix(1 0 0 1 -497 -392 )">
    <path d="M 503 394  C 505.24 394  507 395.76  507 398  C 507 400.24  505.24 402  503 402  C 500.76 402  499 400.24  499 398  C 499 395.76  500.76 394  503 394  Z " fill-rule="nonzero" fill="#ffffff" stroke="none" />
    <path d="M 503 393.5  C 505.52 393.5  507.5 395.48  507.5 398  C 507.5 400.52  505.52 402.5  503 402.5  C 500.48 402.5  498.5 400.52  498.5 398  C 498.5 395.48  500.48 393.5  503 393.5  Z " stroke-width="3" stroke="#ffffff" fill="none" />
  </g>
</svg>