<?xml version="1.0" encoding="utf-8"?>
<svg version="1.1" xmlns:xlink="http://www.w3.org/1999/xlink" width="30px" height="30px" xmlns="http://www.w3.org/2000/svg">
  <g transform="matrix(1 0 0 1 -751 -661 )">
    <path d="M 14 1.250000009765625  C 13.749999990234375 0.5596440785248694  13.190355941006382 0  12.500000009765625 0  L 1.250000009765625 0  C 0.5596440670837274 0  0 0.5596440670837274  0 1.250000009765625  L 0 12.500000009765627  C 0 13.190355941006382  0.5596440785248694 13.749999990234375  1.250000009765625 14  L 12.500000009765627 14  C 13.190355929565241 13.749999974054159  13.749999974054159 13.190355929565241  14 12.500000009765625  L 14 1.250000009765625  Z M 11.25 2.499999990234375  L 11.25 11.25  L 2.499999990234375 11.25  L 2.499999990234375 2.499999990234375  L 11.25 2.499999990234375  Z M 14 17.499999990234375  C 13.749999974054159 16.809644070434764  13.190355929565241 16.250000025945845  12.500000009765625 16  L 1.250000009765625 16  C 0.5596440785248668 16.250000009765625  0 16.809644058993623  0 17.499999990234375  L 0 28.749999990234375  C 0 29.440355932916273  0.5596440670837274 30  1.250000009765625 30  L 12.500000009765627 30  C 13.190355941006382 29.999999983819784  13.749999990234375 29.44035592147513  14 28.749999990234375  L 14 17.499999990234375  Z M 11.25 18.75  L 11.25 27.500000009765625  L 2.499999990234375 27.500000009765625  L 2.499999990234375 18.75  L 11.25 18.75  Z M 30 1.250000009765625  C 30 0.5596440670837274  29.440355932916273 0  28.749999990234375 0  L 17.499999990234375 0  C 16.809644058993623 0  16.25000000976563 0.5596440785248694  16 1.250000009765625  L 16 12.500000009765627  C 16.250000025945845 13.190355929565241  16.809644070434764 13.749999974054159  17.499999990234375 14  L 28.749999990234375 14  C 29.44035592147513 13.749999990234375  29.999999983819784 13.190355941006382  30 12.500000009765625  L 30 1.250000009765625  Z M 27.500000009765625 2.499999990234375  L 27.500000009765625 11.25  L 18.75 11.25  L 18.75 2.499999990234375  L 27.500000009765625 2.499999990234375  Z M 5.000000009765625 8.750000009765625  L 5.000000009765625 5.000000009765625  L 8.750000009765625 5.000000009765625  L 8.750000009765625 8.750000009765625  L 5.000000009765625 8.750000009765625  Z M 5.000000009765625 24.999999990234375  L 5.000000009765625 21.24999999023437  L 8.750000009765625 21.24999999023437  L 8.750000009765625 24.999999990234375  L 5.000000009765625 24.999999990234375  Z M 26.25 20.000000009765625  L 26.25 16.250000009765625  L 30 16.250000009765625  L 30 20.000000009765625  L 26.25 20.000000009765625  Z M 26.25 23.750000009765625  L 26.25 26.25  L 23.750000009765625 26.25  L 23.750000009765625 30  L 30 30  L 30 23.750000009765625  L 26.25 23.750000009765625  Z M 16.250000009765625 30  L 16.250000009765625 26.25  L 20.000000009765625 26.25  L 20.000000009765625 30  L 16.250000009765625 30  Z M 21.249999990234375 8.750000009765625  L 21.24999999023437 5.000000009765624  L 24.999999990234375 5.000000009765624  L 24.999999990234375 8.750000009765625  L 21.249999990234375 8.750000009765625  Z M 16.250000009765625 20.000000009765625  L 16.250000009765625 16.250000009765625  L 20.000000009765625 16.250000009765625  L 20.000000009765625 20.000000009765625  L 16.250000009765625 20.000000009765625  Z M 20.000000009765625 26.25  L 20.000000009765625 20.000000009765625  L 23.750000009765625 20.000000009765625  L 23.750000009765625 26.25  L 20.000000009765625 26.25  Z " fill-rule="nonzero" fill="#666666" stroke="none" transform="matrix(1 0 0 1 751 661 )" />
  </g>
</svg>