<?xml version="1.0" encoding="utf-8"?>
<svg version="1.1" xmlns:xlink="http://www.w3.org/1999/xlink" width="40px" height="40px" xmlns="http://www.w3.org/2000/svg">
  <g transform="matrix(1 0 0 1 -702 -369 )">
    <path d="M 38.739411272321426 20  C 38.739411272321426 17.470758928571428  38.24379185267857 15.016517857142857  37.26628069196429 12.70537109375  C 36.322377232142856 10.473744419642854  34.97137276785714 8.469796316964285  33.25080915178572 6.749232700892857  C 31.530245535714286 5.028669084821428  29.526297433035715 3.677664620535714  27.294628906250004 2.733761160714285  C 24.98348214285714 1.7562081473214277  22.52924107142857 1.2605468749999993  20 1.2605468749999993  C 17.470758928571428 1.2605468749999993  15.016517857142857 1.7562081473214284  12.70537109375 2.733719308035714  C 10.473744419642854 3.6776227678571427  8.469796316964285 5.028627232142856  6.749232700892857 6.749190848214285  C 5.028669084821428 8.469754464285716  3.677664620535714 10.473702566964285  2.733761160714285 12.705329241071428  C 1.7562081473214277 15.016517857142857  1.2605468749999993 17.470758928571428  1.2605468749999993 20  C 1.2605468749999993 22.52924107142857  1.7562081473214277 24.98348214285714  2.733719308035713 27.294628906250004  C 3.6776227678571423 29.526255580357144  5.028627232142856 31.530203683035715  6.749190848214285 33.25080915178572  C 8.469754464285712 34.97137276785714  10.473702566964285 36.322419084821426  12.705329241071428 37.26628069196429  C 15.016476004464288 38.24379185267857  17.470758928571428 38.739453125  19.99995814732143 38.739453125  C 22.52915736607143 38.739453125  24.983440290178574 38.24379185267857  27.29458705357143 37.26628069196429  C 29.526213727678577 36.322377232142856  31.53016183035714 34.97137276785714  33.250767299107146 33.25080915178572  C 34.97137276785714 31.530245535714286  36.322377232142856 29.526297433035715  37.26623883928571 27.294628906250004  C 38.24375 24.98348214285714  38.739411272321426 22.52924107142857  38.739411272321426 20  Z M 36.081975446428565 20  C 36.081975446428565 28.867619977678565  28.867619977678565 36.081975446428565  20 36.081975446428565  C 11.132380022321428 36.081975446428565  3.918024553571428 28.867619977678565  3.918024553571428 19.999999999999996  C 3.918024553571428 11.132380022321426  11.132380022321428 3.9180245535714286  20 3.9180245535714286  C 28.867619977678565 3.9180245535714286  36.081975446428565 11.132380022321428  36.081975446428565 20  Z M 30.714285714285715 20  C 30.714285714285715 19.26033761160714  30.189620535714287 18.660714285714285  29.542410714285715 18.660714285714285  L 21.339285714285715 18.660714285714285  L 21.339285714285715 10.457589285714286  C 21.339285714285715 9.810379464285715  20.73966238839286 9.285714285714286  20 9.285714285714286  C 19.26033761160714 9.285714285714286  18.660714285714285 9.810379464285715  18.660714285714285 10.457589285714286  L 18.660714285714285 18.660714285714285  L 10.457589285714286 18.660714285714285  C 9.810379464285715 18.660714285714285  9.285714285714286 19.26033761160714  9.285714285714286 20  C 9.285714285714286 20.73966238839286  9.810379464285715 21.339285714285715  10.457589285714286 21.339285714285715  L 18.660714285714285 21.339285714285715  L 18.660714285714285 29.542410714285715  C 18.660714285714285 30.189620535714287  19.26033761160714 30.714285714285715  20 30.714285714285715  C 20.73966238839286 30.714285714285715  21.339285714285715 30.189620535714287  21.339285714285715 29.542410714285715  L 21.339285714285715 21.339285714285715  L 29.542410714285715 21.339285714285715  C 30.189620535714287 21.339285714285715  30.714285714285715 20.73966238839286  30.714285714285715 20  Z " fill-rule="nonzero" fill="#7f7f7f" stroke="none" transform="matrix(1 0 0 1 702 369 )" />
  </g>
</svg>