<?xml version="1.0" encoding="utf-8"?>
<svg version="1.1" xmlns:xlink="http://www.w3.org/1999/xlink" width="26px" height="18px" xmlns="http://www.w3.org/2000/svg">
  <g transform="matrix(1 0 0 1 -519 -900 )">
    <path d="M 25.62130434782609 2.570625  C 25.62130434782609 1.2712500000000009  24.57 0.2249999999999992  23.26434782608696 0.2249999999999992  L 8.410434782608696 0.2249999999999992  C 7.698260869565216 0.2249999999999992  7.019999999999999 0.5456250000000004  6.562173913043479 1.1025000000000005  L 0.7630434782608694 8.021249999999998  L 0.7460869565217393 8.038124999999999  C 0.5426086956521734 8.308125  0.4408695652173914 8.645625  0.4408695652173914 9  C 0.4408695652173914 9.37125  0.576521739130435 9.7425  0.8139130434782605 10.046250000000002  L 6.562173913043479 16.931250000000002  C 7.019999999999999 17.47125  7.698260869565216 17.791874999999997  8.410434782608696 17.791874999999997  L 23.26434782608696 17.791874999999997  C 24.57 17.791874999999997  25.62130434782609 16.745624999999997  25.62130434782609 15.446249999999996  L 25.62130434782609 2.570625  Z M 18.58434782608695 10.991249999999999  C 18.92347826086956 11.32875  18.92347826086956 11.885624999999997  18.584347826086958 12.223125000000003  C 18.414782608695653 12.391875  18.194347826086958 12.47625  17.97391304347826 12.47625  C 17.736521739130435 12.47625  17.516086956521743 12.391875  17.363478260869563 12.223125000000003  L 15.362608695652169 10.231874999999999  L 13.361739130434781 12.223124999999998  C 13.192173913043476 12.391874999999997  12.97173913043478 12.476249999999997  12.751304347826084 12.476249999999997  C 12.276521739130432 12.476249999999997  11.886521739130432 12.088124999999998  11.886521739130432 11.615624999999994  C 11.886521739130432 11.379374999999998  11.971304347826083 11.159999999999998  12.140869565217386 11.008124999999996  L 14.141739130434779 9.016874999999999  L 12.12391304347826 7.008749999999998  C 11.784782608695648 6.671249999999998  11.784782608695648 6.131249999999997  12.12391304347826 5.793749999999998  C 12.463043478260865 5.456250000000002  13.005652173913042 5.45625  13.344782608695647 5.793749999999998  L 15.34565217391304 7.784999999999998  L 17.34652173913043 5.793749999999998  C 17.68565217391304 5.45625  18.22826086956522 5.45625  18.567391304347826 5.810624999999997  C 18.730177201394298 5.9712732523519225  18.821744696667317 6.18997390686682  18.821744696667317 6.418124999999998  C 18.821744696667317 6.646276093133174  18.730177201394298 6.864976747648074  18.567391304347826 7.025624999999999  L 16.583478260869562 9  L 18.58434782608695 10.991249999999999  Z " fill-rule="nonzero" fill="#797979" stroke="none" transform="matrix(1 0 0 1 519 900 )" />
  </g>
</svg>