<?xml version="1.0" encoding="utf-8"?>
<svg version="1.1" xmlns:xlink="http://www.w3.org/1999/xlink" width="20px" height="20px" xmlns="http://www.w3.org/2000/svg">
  <g transform="matrix(1 0 0 1 -3765 -226 )">
    <path d="M 19.14733333984375 1.7993333300781247  L 10.944666660156251 10.002000009765625  L 19.168666650390627 18.225333349609375  C 19.429333310546877 18.485333359375  19.429333310546877 18.907333339843753  19.168666650390627 19.168000029296874  C 18.907999990234376 19.428666718749994  18.48666666015625 19.428666689453124  18.22599997070313 19.168000029296874  L 10.002000009765625 10.94533333984375  L 1.812000009765625 19.13533333984375  C 1.5520000000000005 19.395333349609377  1.131333349609375 19.395333349609377  0.8720000195312503 19.13533333984375  C 0.6126666894531247 18.876000009765626  0.6126666894531247 18.455333330078126  0.8720000195312503 18.196  L 9.062666699218749 10.005333320312499  L 0.8313333203125 1.774  C 0.5706666601562498 1.5133333398437498  0.5706666601562498 1.0913333300781245  0.8313333203125 0.8313333203125  C 1.0913333300781245 0.5706666601562498  1.5133333105468747 0.5706666601562498  1.774 0.8313333203125  L 10.005333320312499 9.062666640625  L 18.2086666796875 0.8593333398437499  C 18.468000009765625 0.6000000097656253  18.888666689453125 0.6000000097656253  19.14733333984375 0.8593333398437499  C 19.407333349609377 1.1186666699218755  19.407333349609377 1.54  19.14733333984375 1.7993333300781247  Z " fill-rule="nonzero" fill="#000000" stroke="none" transform="matrix(1 0 0 1 3765 226 )" />
  </g>
</svg>