<?xml version="1.0" encoding="utf-8"?>
<svg version="1.1" xmlns:xlink="http://www.w3.org/1999/xlink" width="153px" height="54px" xmlns="http://www.w3.org/2000/svg">
  <defs>
    <mask fill="white" id="clip6669">
      <path d="M 0 33  L 0 0  L 153 0  L 153 33  C 153 38.60000000000002  148.5999999999999 43  143 43  L 86.01073345259397 43  L 77.42397137745957 54  L 68.83720930232562 43  L 10 43  C 4.400000000000091 43  0 38.60000000000002  0 33  Z " fill-rule="evenodd" />
    </mask>
  </defs>
  <g transform="matrix(1 0 0 1 -3095 -689 )">
    <path d="M 0 33  L 0 0  L 153 0  L 153 33  C 153 38.60000000000002  148.5999999999999 43  143 43  L 86.01073345259397 43  L 77.42397137745957 54  L 68.83720930232562 43  L 10 43  C 4.400000000000091 43  0 38.60000000000002  0 33  Z " fill-rule="nonzero" fill="#ff6666" stroke="none" transform="matrix(1 0 0 1 3095 689 )" />
    <path d="M 0 33  L 0 0  L 153 0  L 153 33  C 153 38.60000000000002  148.5999999999999 43  143 43  L 86.01073345259397 43  L 77.42397137745957 54  L 68.83720930232562 43  L 10 43  C 4.400000000000091 43  0 38.60000000000002  0 33  Z " stroke-width="2" stroke="#ff6666" fill="none" transform="matrix(1 0 0 1 3095 689 )" mask="url(#clip6669)" />
  </g>
</svg>