<?xml version="1.0" encoding="utf-8"?>
<svg version="1.1" xmlns:xlink="http://www.w3.org/1999/xlink" width="10px" height="55px" preserveAspectRatio="xMidYMin meet" viewBox="1072 615  8 55" xmlns="http://www.w3.org/2000/svg">
  <path d="M 1005 665  L 1071 665  A 5 5 0 0 0 1076 660 L 1076 625  A 5 5 0 0 1 1081 620 L 1148 620  " stroke-width="2" stroke="#0066ff" fill="none" />
  <path d="M 1006.5 661.5  A 3.5 3.5 0 0 0 1003 665 A 3.5 3.5 0 0 0 1006.5 668.5 A 3.5 3.5 0 0 0 1010 665 A 3.5 3.5 0 0 0 1006.5 661.5 Z M 1140.6 628  L 1150 620  L 1140.6 612  L 1144.2 620  L 1140.6 628  Z " fill-rule="nonzero" fill="#0066ff" stroke="none" />
</svg>