<?xml version="1.0" encoding="utf-8"?>
<svg version="1.1" xmlns:xlink="http://www.w3.org/1999/xlink" width="10px" height="675px" preserveAspectRatio="xMidYMin meet" viewBox="616 615  8 675" xmlns="http://www.w3.org/2000/svg">
  <path d="M 577 1285  L 615 1285  A 5 5 0 0 0 620 1280 L 620 625  A 5 5 0 0 1 625 620 L 673 620  " stroke-width="2" stroke="#0066ff" fill="none" />
  <path d="M 578.5 1281.5  A 3.5 3.5 0 0 0 575 1285 A 3.5 3.5 0 0 0 578.5 1288.5 A 3.5 3.5 0 0 0 582 1285 A 3.5 3.5 0 0 0 578.5 1281.5 Z M 665.6 628  L 675 620  L 665.6 612  L 669.2 620  L 665.6 628  Z " fill-rule="nonzero" fill="#0066ff" stroke="none" />
</svg>