<?xml version="1.0" encoding="utf-8"?>
<svg version="1.1" xmlns:xlink="http://www.w3.org/1999/xlink" width="8px" height="16px" xmlns="http://www.w3.org/2000/svg">
  <g transform="matrix(1 0 0 1 -3689 -276 )">
    <path d="M 7.732142857142857 15.366071428571429  C 7.625 15.419642857142858  7.517857142857143 15.473214285714286  7.4375 15.473214285714286  C 7.330357142857145 15.473214285714286  7.223214285714287 15.446428571428571  7.142857142857143 15.366071428571429  L 0.20535714285714388 8.401785714285714  C 0.09821428571428623 8.294642857142858  0.04464285714285816 8.133928571428571  0.04464285714285816 8  C 0.04464285714285816 7.866071428571429  0.09821428571428623 7.705357142857143  0.20535714285714388 7.598214285714286  L 7.142857142857143 0.6339285714285714  C 7.303571428571429 0.4732142857142857  7.544642857142857 0.4732142857142857  7.705357142857143 0.6339285714285714  C 7.866071428571431 0.7946428571428571  7.866071428571431 1.0357142857142858  7.705357142857143 1.1964285714285714  L 0.9285714285714286 8  L 7.732142857142857 14.803571428571429  C 7.892857142857143 14.964285714285714  7.892857142857143 15.205357142857142  7.732142857142857 15.366071428571429  Z " fill-rule="nonzero" fill="#3e3a39" stroke="none" transform="matrix(1 0 0 1 3689 276 )" />
  </g>
</svg>