<?xml version="1.0" encoding="utf-8"?>
<svg version="1.1" xmlns:xlink="http://www.w3.org/1999/xlink" width="18px" height="18px" xmlns="http://www.w3.org/2000/svg">
  <g transform="matrix(1 0 0 1 -1163 -360 )">
    <path d="M 8.990557377049182 1.5984262254098347  C 4.934433309888781 1.5984262254098347  1.6462950768442621 4.8865644584543535  1.6462950768442621 8.942688525614754  C 1.6462950768442621 12.998812592775154  4.934433309888781 16.286950825819673  8.990557377049182 16.286950825819673  C 13.046681444209582 16.286950825819673  16.3348196772541 12.998812592775154  16.3348196772541 8.942688525614754  C 16.3348196772541 4.8865644584543535  13.046681444209582 1.5984262254098347  8.990557377049182 1.5984262254098347  Z M 0.07293013335673353 8.942688525614754  C 0.07293013335673353 4.017553391323504  4.065422247850556 0.024879712399545444  8.99055737704918 0.024655739754098217  C 13.916256439631585 0.024655730532786375  17.908995723498894 4.017395014400098  17.908995723498894 8.942688525614754  C 17.908995723498894 13.86798203682941  13.916256439631585 17.860721320696722  8.990962928416929 17.860721320696722  C 4.065422247850554 17.860497338829965  0.07293013335673353 13.867823659906005  0.07293013335673353 8.942688525614754  Z M 6.2175737766393455 7.667934380073421  C 5.514125990581143 7.667934380073421  4.9438688816201175 7.097677288107383  4.943868860655738 6.39422950204918  C 4.943868860655738 5.690781701166923  5.5141259757570875 5.120524586065573  6.217573776639345 5.120524586065573  C 6.921021577521603 5.120524586065573  7.49127869262295 5.690781701166923  7.49127869262295 6.39422950204918  C 7.491278692622954 7.097677264972074  6.9210215775216035 7.667934380073421  6.2175737766393455 7.667934380073421  Z M 11.763016386270492 7.668459009221313  C 11.059278861674917 7.668459009221313  10.488786879098361 7.097967026644756  10.488786879098361 6.39422950204918  C 10.48878687909836 5.690491977453602  11.059278861674917 5.119999994877048  11.763016386270492 5.119999994877048  C 12.466753910866068 5.119999994877048  13.037245893442625 5.690491977453603  13.037245893442625 6.39422950204918  C 13.037245893442625 7.097967026644757  12.466753910866068 7.668459009221313  11.763016386270492 7.668459009221313  Z M 8.972721313524591 13.884327866803279  C 6.38649180737705 13.884327866803279  4.6406557438524585 11.474360649590164  4.6406557438524585 9.467278690573773  L 13.40550818852459 9.467278690573773  C 13.40550818852459 11.474360649590164  11.559999983606557 13.884327866803279  8.972721313524591 13.884327866803279  Z " fill-rule="nonzero" fill="#333333" stroke="none" transform="matrix(1 0 0 1 1163 360 )" />
  </g>
</svg>