<?xml version="1.0" encoding="utf-8"?>
<svg version="1.1" xmlns:xlink="http://www.w3.org/1999/xlink" width="16px" height="16px" xmlns="http://www.w3.org/2000/svg">
  <g transform="matrix(1 0 0 1 -952 -460 )">
    <path d="M 4.94 0.9114285714285708  C 5.8714285714285745 0.5057142857142856  6.868571428571431 0.3028571428571426  7.931428571428571 0.30285714285714277  C 8.994285714285715 0.3028571428571429  9.994285714285715 0.5057142857142856  10.931428571428572 0.9114285714285713  C 11.86857142857143 1.317142857142857  12.682857142857145 1.8657142857142854  13.374285714285715 2.557142857142857  C 14.065714285714284 3.248571428571428  14.614285714285712 4.0600000000000005  15.02 4.991428571428571  C 15.425714285714287 5.922857142857143  15.62857142857143 6.920000000000001  15.628571428571428 7.982857142857143  C 15.628571428571428 9.045714285714284  15.425714285714287 10.045714285714284  15.02 10.982857142857142  C 14.614285714285716 11.919999999999998  14.065714285714288 12.734285714285715  13.374285714285715 13.425714285714283  C 12.682857142857143 14.117142857142856  11.868571428571428 14.665714285714285  10.931428571428572 15.07142857142857  C 9.994285714285718 15.477142857142855  8.994285714285718 15.679999999999998  7.9314285714285715 15.679999999999996  C 6.868571428571428 15.679999999999998  5.871428571428572 15.477142857142855  4.94 15.07142857142857  C 4.008571428571432 14.665714285714285  3.1971428571428606 14.117142857142856  2.505714285714287 13.425714285714283  C 1.8142857142857143 12.734285714285715  1.2657142857142856 11.919999999999998  0.8600000000000012 10.982857142857142  C 0.4542857142857172 10.045714285714284  0.25142857142857433 9.045714285714284  0.2514285714285728 7.982857142857142  C 0.25142857142857117 6.919999999999999  0.4542857142857141 5.922857142857142  0.8600000000000012 4.991428571428571  C 1.2657142857142885 4.0600000000000005  1.8142857142857172 3.248571428571428  2.505714285714287 2.5571428571428565  C 3.197142857142857 1.8657142857142845  4.008571428571429 1.3171428571428565  4.94 0.9114285714285708  Z M 4.177142857142856 9.028571428571428  L 11.754285714285714 9.028571428571428  C 12.097142857142858 9.028571428571428  12.405714285714287 8.940000000000001  12.680000000000001 8.762857142857145  C 12.954285714285717 8.585714285714287  13.091428571428574 8.320000000000004  13.09142857142857 7.965714285714287  C 13.091428571428574 7.622857142857145  12.954285714285717 7.368571428571431  12.680000000000001 7.2028571428571455  C 12.405714285714287 7.03714285714286  12.097142857142858 6.954285714285717  11.754285714285714 6.954285714285716  L 4.177142857142856 6.954285714285716  C 3.834285714285714 6.954285714285717  3.5199999999999996 7.03714285714286  3.234285714285714 7.2028571428571455  C 2.948571428571428 7.368571428571431  2.805714285714285 7.622857142857145  2.805714285714285 7.965714285714287  C 2.805714285714285 8.320000000000004  2.948571428571428 8.585714285714287  3.234285714285714 8.762857142857145  C 3.5199999999999996 8.940000000000001  3.834285714285714 9.028571428571428  4.177142857142856 9.028571428571428  Z " fill-rule="nonzero" fill="#fe5219" stroke="none" transform="matrix(1 0 0 1 952 460 )" />
  </g>
</svg>