<?xml version="1.0" encoding="utf-8"?>
<svg version="1.1" xmlns:xlink="http://www.w3.org/1999/xlink" width="18px" height="18px" xmlns="http://www.w3.org/2000/svg">
  <g transform="matrix(1 0 0 1 -992 -360 )">
    <path d="M 1001 360  C 1006.04 360  1010 363.96  1010 369  C 1010 374.04  1006.04 378  1001 378  C 995.96 378  992 374.04  992 369  C 992 363.96  995.96 360  1001 360  Z " fill-rule="nonzero" fill="#ffffff" stroke="none" fill-opacity="0" />
    <path d="M 1001 360.5  C 1005.76 360.5  1009.5 364.24  1009.5 369  C 1009.5 373.76  1005.76 377.5  1001 377.5  C 996.24 377.5  992.5 373.76  992.5 369  C 992.5 364.24  996.24 360.5  1001 360.5  Z " stroke-width="1" stroke="#000000" fill="none" />
  </g>
</svg>