<?xml version="1.0" encoding="utf-8"?>
<svg version="1.1" xmlns:xlink="http://www.w3.org/1999/xlink" width="7px" height="6px" xmlns="http://www.w3.org/2000/svg">
  <g transform="matrix(1 0 0 1 -998 -369 )">
    <path d="M 3.882905979166667 4.0254060568181815  C 5.603494009615384 3.831660602272726  6.946153846153846 2.351127272727272  6.946153846153846 0.5573818181818188  L 6.946153846153846 0.46041212500000095  C 6.9461538461538455 0.24619258462570054  6.774720997388734 0.07253333522727443  6.563247861378205 0.07253333522727443  C 6.351774725367678 0.07253333522727443  6.180341876602566 0.24619258462569993  6.180341876602566 0.46041212500000095  L 6.180341876602565 0.5573818181818188  C 6.180341876602565 2.0545939431818194  4.978017086538462 3.272533329545455  3.5 3.272533329545455  C 2.021982913461538 3.272533329545455  0.8196581233974358 2.0545939318181814  0.8196581233974358 0.5573818181818188  L 0.8196581233974358 0.46041212500000095  C 0.8196581233974358 0.24619258462569993  0.6482252746323242 0.07253333522727443  0.43675213862179524 0.07253333522727443  C 0.22527900261126665 0.07253333522727443  0.05384615384615429 0.24619258462569993  0.05384615384615429 0.46041212500000095  L 0.053846153846153974 0.5573818181818188  C 0.053846153846153974 2.3509333295454553  1.3965059791666667 3.831660602272728  3.1170940208333335 4.0254060568181815  L 3.1170940208333335 5.21212121590909  L 1.2025641025641032 5.21212121590909  C 0.9910909696513255 5.21212121590909  0.8196581233974358 5.385780462763679  0.8196581233974358 5.6  C 0.8196581233974358 5.81421953723632  0.9910909696513255 5.987878784090908  1.2025641025641032 5.987878784090908  L 5.797435897435897 5.987878784090908  C 6.008909030348674 5.987878784090908  6.180341876602565 5.81421953723632  6.180341876602565 5.6  C 6.180341876602565 5.385780462763679  6.008909030348674 5.21212121590909  5.797435897435897 5.21212121590909  L 3.882905979166667 5.21212121590909  L 3.882905979166667 4.0254060568181815  Z " fill-rule="nonzero" fill="#040000" stroke="none" transform="matrix(1 0 0 1 998 369 )" />
  </g>
</svg>