<?xml version="1.0" encoding="utf-8"?>
<svg version="1.1" xmlns:xlink="http://www.w3.org/1999/xlink" width="16px" height="16px" xmlns="http://www.w3.org/2000/svg">
  <g transform="matrix(1 0 0 1 -952 -838 )">
    <path d="M 16 8  C 16 3.6  12.4 0  8 0  C 3.6 0  0 3.6  0 8  C 0 12.4  3.6 16  8 16  C 12.4 16  16 12.4  16 8  Z M 12.000000000000002 7.999999999999999  C 12 8.48  11.68 8.8  11.2 8.8  L 8.799999999999999 8.8  L 8.799999999999999 11.200000000000001  C 8.799999999999999 11.680000000000001  8.479999999999999 12.000000000000002  7.999999999999999 12.000000000000002  C 7.52 12.000000000000002  7.199999999999999 11.680000000000001  7.199999999999999 11.200000000000001  L 7.199999999999999 8.8  L 4.8 8.8  C 4.320000000000001 8.8  4 8.48  4 8  C 4 7.52  4.320000000000001 7.2  4.8 7.2  L 7.199999999999999 7.2  L 7.2 4.8  C 7.2 4.320000000000001  7.5200000000000005 4  8 4  C 8.48 4  8.8 4.320000000000001  8.8 4.8  L 8.8 7.199999999999999  L 11.200000000000001 7.199999999999999  C 11.680000000000001 7.199999999999999  12.000000000000002 7.52  12.000000000000002 7.999999999999999  Z " fill-rule="nonzero" fill="#7f7f7f" stroke="none" transform="matrix(1 0 0 1 952 838 )" />
  </g>
</svg>