<?xml version="1.0" encoding="utf-8"?>
<svg version="1.1" xmlns:xlink="http://www.w3.org/1999/xlink" width="345px" height="50px" xmlns="http://www.w3.org/2000/svg">
  <g transform="matrix(1 0 0 1 -1733 -853 )">
    <path d="M 1734 863  A 9 9 0 0 1 1743 854 L 2068 854  A 9 9 0 0 1 2077 863 L 2077 893  A 9 9 0 0 1 2068 902 L 1743 902  A 9 9 0 0 1 1734 893 L 1734 863  Z " fill-rule="nonzero" fill="#ffffff" stroke="none" fill-opacity="0" />
    <path d="M 1733.5 863  A 9.5 9.5 0 0 1 1743 853.5 L 2068 853.5  A 9.5 9.5 0 0 1 2077.5 863 L 2077.5 893  A 9.5 9.5 0 0 1 2068 902.5 L 1743 902.5  A 9.5 9.5 0 0 1 1733.5 893 L 1733.5 863  Z " stroke-width="1" stroke-dasharray="9,4" stroke="#aaaaaa" fill="none" stroke-dashoffset="0.5" />
  </g>
</svg>