<?xml version="1.0" encoding="utf-8"?>
<svg version="1.1" xmlns:xlink="http://www.w3.org/1999/xlink" width="20px" height="21px" preserveAspectRatio="xMidYMin meet" viewBox="627 899  18 21" xmlns="http://www.w3.org/2000/svg">
  <path d="M 636 911  L 636 908  A 5 5 0 0 0 631 903 L 615 903  A 5 5 0 0 1 610 898 L 610 530  A 5 5 0 0 1 615 525 L 626 525  " stroke-width="2" stroke="#0066ff" fill="none" stroke-opacity="0.4980392156862745" />
  <path d="M 636 906  A 3.5 3.5 0 0 0 632.5 909.5 A 3.5 3.5 0 0 0 636 913 A 3.5 3.5 0 0 0 639.5 909.5 A 3.5 3.5 0 0 0 636 906 Z M 618.6 533  L 628 525  L 618.6 517  L 622.2 525  L 618.6 533  Z " fill-rule="nonzero" fill="#0066ff" stroke="none" fill-opacity="0.4980392156862745" />
</svg>