<?xml version="1.0" encoding="utf-8"?>
<svg version="1.1" xmlns:xlink="http://www.w3.org/1999/xlink" width="189px" height="10px" preserveAspectRatio="xMinYMid meet" viewBox="2731 578  189 8" xmlns="http://www.w3.org/2000/svg">
  <path d="M 2555 903  L 2731 903  A 5 5 0 0 0 2736 898 L 2736 587  A 5 5 0 0 1 2741 582 L 2918 582  " stroke-width="2" stroke="#0066ff" fill="none" />
  <path d="M 2556.5 899.5  A 3.5 3.5 0 0 0 2553 903 A 3.5 3.5 0 0 0 2556.5 906.5 A 3.5 3.5 0 0 0 2560 903 A 3.5 3.5 0 0 0 2556.5 899.5 Z M 2910.6 590  L 2920 582  L 2910.6 574  L 2914.2 582  L 2910.6 590  Z " fill-rule="nonzero" fill="#0066ff" stroke="none" />
</svg>