<?xml version="1.0" encoding="utf-8"?>
<svg version="1.1" xmlns:xlink="http://www.w3.org/1999/xlink" width="20px" height="20px" xmlns="http://www.w3.org/2000/svg">
  <g transform="matrix(1 0 0 1 -5 -5 )">
    <path d="M 15 5  C 20.6 5  25 9.399999999999999  25 15  C 25 20.6  20.6 25  15 25  C 9.399999999999999 25  5 20.6  5 15  C 5 9.399999999999999  9.399999999999999 5  15 5  Z " fill-rule="nonzero" fill="#ffffff" stroke="none" />
    <path d="M 15 5.5  C 20.32 5.5  24.5 9.68  24.5 15  C 24.5 20.32  20.32 24.5  15 24.5  C 9.68 24.5  5.5 20.32  5.5 15  C 5.5 9.68  9.68 5.5  15 5.5  Z " stroke-width="1" stroke="#ffffff" fill="none" />
  </g>
</svg>