<?xml version="1.0" encoding="utf-8"?>
<svg version="1.1" xmlns:xlink="http://www.w3.org/1999/xlink" width="14px" height="12px" xmlns="http://www.w3.org/2000/svg">
  <g transform="matrix(1 0 0 1 -1419 -288 )">
    <path d="M 13.924731187499999 6  C 13.924731187499999 5.876923067307693  13.864516129032259 5.692307697115385  13.744086026209677 5.569230764423077  L 8.204301070564515 0.21538461057692312  C 7.963440850806451 -0.030769240384615253  7.602150528225808 -0.030769240384615253  7.361290322580646 0.21538461057692312  C 7.120430102822581 0.46153846153846156  7.120430102822581 0.8307692307692307  7.361290322580646 1.0769230817307696  L 11.817204296370967 5.384615379807693  L 0.6774193548387096 5.384615379807693  C 0.3161290322580645 5.384615379807693  0.07526881250000005 5.630769230769231  0.07526881250000005 6  C 0.07526881250000005 6.369230769230768  0.3161290322580646 6.615384620192307  0.6774193548387096 6.615384620192307  L 11.817204296370967 6.615384620192307  L 7.361290322580646 10.923076918269231  C 7.120430102822581 11.16923076923077  7.120430102822581 11.538461538461538  7.361290322580646 11.784615389423077  C 7.481720425403226 11.907692307692308  7.662365586693548 11.969230774038461  7.7827957036290325 11.969230774038461  C 7.903225806451614 11.969230774038461  8.083870967741937 11.907692307692308  8.204301070564515 11.784615389423077  L 13.744086026209677 6.430769235576923  C 13.864516129032259 6.307692317307692  13.924731187499999 6.123076932692307  13.924731187499999 6  Z " fill-rule="nonzero" fill="#aaaaaa" stroke="none" transform="matrix(1 0 0 1 1419 288 )" />
  </g>
</svg>