<?xml version="1.0" encoding="utf-8"?>
<svg version="1.1" xmlns:xlink="http://www.w3.org/1999/xlink" width="21px" height="20px" preserveAspectRatio="xMinYMid meet" viewBox="1293 856  21 18" xmlns="http://www.w3.org/2000/svg">
  <path d="M 1302 865  L 1345 865  A 5 5 0 0 1 1350 870 L 1350 1303  A 5 5 0 0 0 1355 1308 L 1398 1308  " stroke-width="2" stroke="#0066ff" fill="none" />
  <path d="M 1303.5 861.5  A 3.5 3.5 0 0 0 1300 865 A 3.5 3.5 0 0 0 1303.5 868.5 A 3.5 3.5 0 0 0 1307 865 A 3.5 3.5 0 0 0 1303.5 861.5 Z M 1390.6 1316  L 1400 1308  L 1390.6 1300  L 1394.2 1308  L 1390.6 1316  Z " fill-rule="nonzero" fill="#0066ff" stroke="none" />
</svg>