<?xml version="1.0" encoding="utf-8"?>
<svg version="1.1" xmlns:xlink="http://www.w3.org/1999/xlink" width="55px" height="10px" preserveAspectRatio="xMinYMid meet" viewBox="515 837  55 8" xmlns="http://www.w3.org/2000/svg">
  <path d="M 517 841  L 560 841  A 5 5 0 0 0 565 836 L 565 579  A 5 5 0 0 1 570 574 L 613 574  " stroke-width="2" stroke="#0066ff" fill="none" />
  <path d="M 518.5 837.5  A 3.5 3.5 0 0 0 515 841 A 3.5 3.5 0 0 0 518.5 844.5 A 3.5 3.5 0 0 0 522 841 A 3.5 3.5 0 0 0 518.5 837.5 Z M 605.6 582  L 615 574  L 605.6 566  L 609.2 574  L 605.6 582  Z " fill-rule="nonzero" fill="#0066ff" stroke="none" />
</svg>