<?xml version="1.0" encoding="utf-8"?>
<svg version="1.1" xmlns:xlink="http://www.w3.org/1999/xlink" width="10px" height="633px" preserveAspectRatio="xMidYMin meet" viewBox="616 614  8 633" xmlns="http://www.w3.org/2000/svg">
  <path d="M 577 1242  L 615 1242  A 5 5 0 0 0 620 1237 L 620 624  A 5 5 0 0 1 625 619 L 673 619  " stroke-width="2" stroke="#0066ff" fill="none" />
  <path d="M 578.5 1238.5  A 3.5 3.5 0 0 0 575 1242 A 3.5 3.5 0 0 0 578.5 1245.5 A 3.5 3.5 0 0 0 582 1242 A 3.5 3.5 0 0 0 578.5 1238.5 Z M 665.6 627  L 675 619  L 665.6 611  L 669.2 619  L 665.6 627  Z " fill-rule="nonzero" fill="#0066ff" stroke="none" />
</svg>