<?xml version="1.0" encoding="utf-8"?>
<svg version="1.1" xmlns:xlink="http://www.w3.org/1999/xlink" width="25px" height="22px" xmlns="http://www.w3.org/2000/svg">
  <g transform="matrix(1 0 0 1 -1436 -544 )">
    <path d="M 24.933894230769226 20.98070652173913  C 24.933894230769226 21.53070652173913  24.486177884615383 21.976086956521737  23.933293269230766 22  L 1.0667067307692308 22  C 0.5138221153846152 21.97608695652174  0.06610576923076932 21.530706521739134  0.06610576923076932 20.980706521739133  L 0.06610576923076932 16.00679347826087  C 0.06610576923076932 15.45679347826087  0.5138221153846156 15.011413043478262  1.0667067307692308 15.011413043478262  L 1.9681490384615383 15.011413043478262  C 2.5210336538461537 15.011413043478262  2.96875 15.45679347826087  2.96875 16.00679347826087  C 2.96875 16.141304347826086  2.9417067307692313 16.27282608695652  2.8906250000000004 16.38940217391304  L 2.5000000000000004 18.32635869565217  C 2.5000000000000004 18.876358695652172  2.9477163461538467 19.32173913043478  3.5006009615384617 19  L 21.49939903846154 19  C 22.052283653846153 19.32173913043478  22.499999999999996 18.876358695652172  22.499999999999996 18.32635869565217  L 22.109374999999996 16.38940217391304  C 22.058293269230766 16.27282608695652  22.031249999999996 16.141304347826086  22.031249999999996 16.00679347826087  C 22.031249999999996 15.45679347826087  22.478966346153843 15.011413043478262  23.03185096153846 15.011413043478262  L 23.933293269230766 15.011413043478262  C 24.486177884615383 15.011413043478262  24.933894230769226 15.45679347826087  24.933894230769226 16.00679347826087  L 24.933894230769226 20.98070652173913  Z M 21.932091346153847 7.018478260869566  L 21.932091346153847 7.021467391304349  L 21.932091346153847 7.039402173913045  C 22.010216346153847 7.072282608695654  22.064302884615383 7.150000000000001  22.064302884615383 7.23967391304348  C 22.064302884615383 7.329347826086957  22.010216346153847 7.407065217391306  21.932091346153847 7.439945652173914  L 21.932091346153847 7.4519021739130435  L 12.76141826923077 16.801902173913042  L 12.74939903846154 16.801902173913042  C 12.716346153846155 16.879619565217393  12.638221153846155 16.933423913043477  12.548076923076923 16.933423913043477  C 12.457932692307692 16.933423913043477  12.379807692307693 16.879619565217393  12.346754807692308 16.801902173913042  L 12.334735576923078 16.801902173913042  L 3.1670673076923075 7.44891304347826  L 3.1670673076923075 7.4369565217391305  C 3.0889423076923084 7.404076086956521  3.034855769230769 7.326358695652175  3.034855769230769 7.2366847826086955  C 3.034855769230769 7.147010869565218  3.0889423076923084 7.069293478260869  3.1670673076923075 7.0364130434782615  L 3.1670673076923075 7.018478260869566  L 2.7493990384615383 7.018478260869566  L 8.969350961538462 7.018478260869566  L 8.969350961538462 5.494021739130435  C 8.969350961538462 4.944021739130436  9.417067307692308 4.498641304347826  9.969951923076923 4.498641304347826  L 15.036057692307692 4.498641304347826  C 15.588942307692305 4.498641304347826  16.036658653846153 4.944021739130434  16.036658653846153 5.494021739130435  L 16.036658653846153 7.018478260869566  L 22.355769230769234 7.018478260869566  L 21.932091346153847 7.018478260869566  Z M 16.03064903846154 2.744021739130435  C 16.03064903846154 3.201358695652174  15.661057692307695 3.5720108695652177  15.201322115384613 3.5720108695652177  L 9.798677884615385 3.5720108695652177  C 9.338942307692308 3.5720108695652177  8.966346153846155 3.201358695652174  8.966346153846155 2.744021739130435  C 8.966346153846155 2.2866847826086967  9.338942307692308 1.916032608695653  9.798677884615385 1.916032608695653  L 15.198317307692305 1.916032608695653  C 15.658052884615381 1.916032608695653  16.03064903846154 2.2866847826086967  16.03064903846154 2.744021739130435  Z M 16.033653846153847 0.555978260869565  C 16.033653846153847 0.8309782608695647  15.80829326923077 1.052173913043478  15.53185096153846 1.052173913043478  L 9.468149038461538 1.052173913043478  C 9.191706730769232 1.052173913043478  8.969350961538462 0.8279891304347823  8.969350961538462 0.555978260869565  C 8.969350961538462 0.2809782608695654  9.194711538461538 0.059782608695652176  9.468149038461538 0.059782608695652176  L 15.534855769230768 0.059782608695652176  C 15.811298076923078 0.059782608695652176  16.033653846153847 0.28396739130434784  16.033653846153847 0.555978260869565  Z " fill-rule="nonzero" fill="#7f7f7f" stroke="none" transform="matrix(1 0 0 1 1436 544 )" />
  </g>
</svg>