<?xml version="1.0" encoding="utf-8"?>
<svg version="1.1" xmlns:xlink="http://www.w3.org/1999/xlink" width="25px" height="25px" xmlns="http://www.w3.org/2000/svg">
  <g transform="matrix(1 0 0 1 -1128 -1760 )">
    <path d="M 18.79950495049505 0.6531250000000002  C 19.23267326732673 1.0906250000000002  19.449257425742577 1.6156250000000003  19.449257425742577 2.2281250000000004  L 19.449257425742577 4.4625  L 17.679455445544555 4.4625  L 17.679455445544555 2.2281250000000004  C 17.679455445544555 2.109375  17.636138613861384 2  17.54950495049505 1.9156250000000004  C 17.462871287128714 1.828125  17.357673267326728 1.7843750000000005  17.240099009900987 2  L 2.2091584158415842 2  C 2.0915841584158414 1.7843750000000005  1.9832920792079205 1.8281250000000009  1.899752475247525 1.9156250000000004  C 1.8162128712871293 2.0031250000000007  1.7698019801980203 2.109375  2 2.2281250000000004  L 2 17.4125  C 1.7698019801980203 17.53125  1.8131188118811887 17.640625  1.899752475247525 17.725  C 1.9863861386138617 17.8125  2.0915841584158414 17.856250000000003  2.2091584158415842 17.856250000000003  L 4.421410891089109 17.856250000000003  L 4.421410891089109 19.643750000000004  L 2.2091584158415842 19.643750000000004  C 1.6027227722772281 19.643750000000004  1.0798267326732673 19.425000000000004  0.6497524752475248 18.990625000000005  C 0.2165841584158416 18.553125000000005  0 18.025000000000006  0 17.412500000000005  L 0 2.2281250000000004  C 0 1.6156250000000003  0.2165841584158416 1.0875000000000004  0.6466584158415843 0.6531250000000002  C 1.0767326732673272 0.21875000000000003  1.5996287128712876 0  2.2060643564356437 0  L 17.24009900990099 0  C 17.846534653465348 0  18.369430693069308 0.2218749999999998  18.79950495049505 0.6531250000000002  Z M 24.10891089108911 6.012500000000001  C 24.53898514851485 6.450000000000002  24.755569306930692 6.975000000000002  24.755569306930695 7.5874999999999995  L 24.755569306930695 22.771875  C 24.755569306930695 23.384375000000002  24.53589108910891 23.9125  24.10891089108911 24.346875  C 23.675742574257427 24.784375  23.15594059405941 25  22.549504950495052 25  L 7.515470297029703 25  C 6.909034653465346 25  6.386138613861385 24.778125  5.956064356435643 24.346875  C 5.52289603960396 23.909375  5.30940594059406 23.384375000000002  5.30940594059406 22.771875  L 5.30940594059406 7.5874999999999995  C 5.30940594059406 6.975  5.525990099009902 6.446875  5.956064356435643 6.012500000000001  C 6.386138613861385 5.578125000000002  6.909034653465347 5.359375000000002  7.515470297029703 5.359375000000002  L 22.54950495049505 5.359375000000002  C 23.155940594059405 5.359375000000002  23.678836633663362 5.5812500000000025  24.10891089108911 6.012500000000001  Z " fill-rule="nonzero" fill="#7f7f7f" stroke="none" transform="matrix(1 0 0 1 1128 1760 )" />
  </g>
</svg>