<?xml version="1.0" encoding="utf-8"?>
<svg version="1.1" xmlns:xlink="http://www.w3.org/1999/xlink" width="20px" height="35px" xmlns="http://www.w3.org/2000/svg">
  <g transform="matrix(1 0 0 1 -1128 -1693 )">
    <path d="M 18.5237264516129 34.92222222222222  L 18.538921290322584 35  L 1.8517677419354834 35  C 0.8718658064516133 34.922222222222224  0.25548387096774244 34.15763555555556  0.25548387096774244 33.173197037037035  L 0.25548387096774244 2.0396859259259257  C 0.25548387096774244 1.0553303703703705  0.8717832258064518 0.07777777777777785  1.8517677419354834 0  L 18.53900387096774 0  C 19.518905806451613 0.07777777777777785  19.82709677419355 1.0553303703703705  19.82709677419355 2.0396859259259257  L 19.82709677419355 33.173197037037035  C 19.82709677419355 34.15763555555555  19.503793548387097 34.92222222222222  18.5237264516129 34.92222222222222  Z M 10.179034838709677 33.173197037037035  C 10.832660645161292 33.173197037037035  11.387272258064517 32.61477333333333  11.387272258064517 31.959365925925923  C 11.387272258064517 31.30271407407407  10.832660645161292 30.77822222222222  10.179034838709677 30.77822222222222  C 9.525409032258064 30.77822222222222  9.003334193548389 31.30271407407407  9.003334193548389 31.959365925925923  C 9.003334193548389 32.61477333333333  9.525409032258064 33.173197037037035  10.179034838709677 33.173197037037035  Z M 18.75354838709677 29.114814814814814  L 18.75354838709677 3.5622222222222226  L 17.950451612903226 4  L 2.440072258064517 4  L 1.4116129032258056 3.5622222222222226  L 1.4116129032258056 29.114814814814814  L 2.440072258064515 29  L 17.950451612903226 29  L 18.75354838709677 29.114814814814814  Z " fill-rule="nonzero" fill="#7f7f7f" stroke="none" transform="matrix(1 0 0 1 1128 1693 )" />
  </g>
</svg>