<?xml version="1.0" encoding="utf-8"?>
<svg version="1.1" xmlns:xlink="http://www.w3.org/1999/xlink" width="10px" height="16px" xmlns="http://www.w3.org/2000/svg">
  <g transform="matrix(1 0 0 1 -1933 -298 )">
    <path d="M 1.1722070312500001 15.654082031249999  C 1.3441796875000005 15.654082031249999  1.5169335937499993 15.598847656250001  1.6632226562499994 15.484453125000002  L 8.63412109375 10.021640625  C 9.26365234375 9.528261718750002  9.6255078125 8.785878906250002  9.6255078125 7.985156249999999  C 9.6255078125 7.183632812500001  9.26365234375 6.441269531250001  8.63333984375 5.947890625  L 1.7021484375000009 0.5154492187499997  C 1.3542773437500006 0.2438671874999998  0.8547265625000016 0.30533203124999986  0.5831250000000008 0.6508593749999996  C 0.3115429687500013 0.9971289062499995  0.3722460937500003 1.4982812499999998  0.7185351562500006 1.7698828124999997  L 7.650507812500001 7.20232421875  C 7.893281249999999 7.392207031249999  8.031816406250002 7.677031250000001  8.031816406250002 7.98517578125  C 8.031816406250002 8.292558593750002  7.893300781250002 8.5773828125  7.651289062500002 8.767265625  L 0.6796093750000018 14.230078124999999  C 0.3333398437500019 14.50166015625  0.27261718750000163 15.002011718750001  0.544199218750002 15.3491015625  C 0.7014062500000016 15.549082031250002  0.9356250000000017 15.654140625  1.1721875000000024 15.654140625  Z " fill-rule="nonzero" fill="#999999" stroke="none" transform="matrix(1 0 0 1 1933 298 )" />
  </g>
</svg>