<?xml version="1.0" encoding="utf-8"?>
<svg version="1.1" xmlns:xlink="http://www.w3.org/1999/xlink" width="20px" height="20px" xmlns="http://www.w3.org/2000/svg">
  <g transform="matrix(1 0 0 1 -1259 -1705 )">
    <path d="M 3.6571803278688524 16.342819672131146  L 0.9388590163934427 16.342819672131146  C 0.43844919003951144 16.342819672131146  0.03278687917144393 15.93715736126308  0.03278687917144393 15.436747540983607  C 0.03278687917144393 15.43671256830596  0.03278688119626316 15.436677595628232  0 15.43664262295082  L 0 0.9388590163934427  C 0.03278688524590167 0.4384491961139691  0.4384491961139691 0.03278688524590167  0.9388590163934427 0  L 15.43664262295082 0  C 15.436677595628232 0.03278688119626316  15.43671256830596 0.03278687917144393  15.436747540983607 0.03278687917144393  C 15.93715736126308 0.03278687917144393  16.342819672131146 0.43844919003951144  16.342819672131146 0.9388590103189849  L 16.34281967213115 3.65728524590164  L 19.06114098360656 3.65728524590164  C 19.561509833708943 3.6572852425470876  19.967155174868722 4.062883612268563  20 4.563252459016393  L 20 19.06103606557377  C 19.9672131147541 19.561445885853242  19.56155080388603 19.967108196721313  19.061140983606556 20  L 4.563357377049181 20  C 4.5633224043740865 19.967108200770948  4.563287431691723 19.96710820279577  4.563252459016393 19.96710820279577  C 4.06284263873692 19.96710820279577  3.657180327868852 19.561445891927704  3.657180327868852 19.06103607164823  L 3.6571803278688524 16.342609836065574  Z M 4.563357377049179 3.6571803278688537  L 14.530570491803282 3.6571803278688506  L 14.530570491803282 2  L 2 2  L 2 14.530570491803282  L 3.657180327868852 14.530570491803282  L 3.657180327868852 4.563357377049182  C 3.657180321793691 4.062842632661761  4.062842632661759 3.6571803217936925  4.563252452941232 3.6571803217936925  Z M 5.469429508196722 5.469429508196722  L 5.469429508196722 18  L 18 18  L 18 5.469324590163934  L 5.469324590163934 5.469324590163934  Z " fill-rule="nonzero" fill="#7f7f7f" stroke="none" transform="matrix(1 0 0 1 1259 1705 )" />
  </g>
</svg>