<?xml version="1.0" encoding="utf-8"?>
<svg version="1.1" xmlns:xlink="http://www.w3.org/1999/xlink" width="50px" height="50px" xmlns="http://www.w3.org/2000/svg">
  <g transform="matrix(1 0 0 1 -430 -660 )">
    <path d="M 50 25  C 49.9841418331858 11.19945525926572  38.800544740734274 0.015858166814195034  25 0  C 11.192881254230164 0  0 11.192881254230164  0 25  C 0 38.807118745769834  11.192881254230164 50  25 50  C 38.807118745769834 50  50 38.807118745769834  50 25  Z M 36.51079138997396 25.000000000000007  C 36.51079138997396 25.452888213510267  36.297562380522635 25.879346226382875  35.93525180664062 26.151079150390625  L 21.546762597656247 36.94244604492189  C 21.29770335160968 37.12924047505475  20.994777277573224 37.230215827355806  20.683453222656247 37.2302158203125  C 19.888798903636847 37.2302158203125  19.244604296874996 36.58602121355065  20 35.79136689453125  L 20 14.208633105468751  C 19.244604296874996 14.208633105468751  19.244604296874996 14.208633081054685  19.244604296874996 14.208633081054685  C 19.244604296874996 13.413978762035283  19.888798903636847 12.769784155273436  20.683453222656247 12.769784155273436  C 20.994777280357336 12.769784155273436  21.29770335466487 12.870759516231493  21.54676259765625 13.057553955078127  L 35.93525180664063 23.848920849609375  C 36.29756238052264 24.120653773617132  36.51079138997396 24.547111786489744  36.51079138997396 25.000000000000007  Z " fill-rule="nonzero" fill="#ffffff" stroke="none" transform="matrix(1 0 0 1 430 660 )" />
  </g>
</svg>