<?xml version="1.0" encoding="utf-8"?>
<svg version="1.1" xmlns:xlink="http://www.w3.org/1999/xlink" width="12px" height="13px" xmlns="http://www.w3.org/2000/svg">
  <g transform="matrix(1 0 0 1 -1750 -939 )">
    <path d="M 3.7199999999999998 7.58  C 3.88 7.74  4.16 7.74  4.28 7.58  L 5.6000000000000005 5.98  L 5.6000000000000005 10.9  C 5.6000000000000005 11.14  5.760000000000001 11.3  6 11.3  C 6.239999999999998 11.3  6.4 11.14  6.4 10.9  L 6.4 5.98  L 7.720000000000001 7.58  C 7.880000000000001 7.74  8.120000000000001 7.74  8.280000000000001 7.58  C 8.440000000000001 7.420000000000001  8.440000000000001 7.18  8.280000000000001 7.019999999999999  L 6.32 4.619999999999999  C 6.24 4.539999999999999  6.120000000000001 4.499999999999999  6 4.499999999999999  C 5.88 4.499999999999999  5.76 4.539999999999999  5.68 4.619999999999999  L 3.7199999999999998 7.019999999999999  C 3.5599999999999996 7.18  3.5599999999999996 7.420000000000001  3.7199999999999998 7.58  Z M 12 1.7000000000000002  C 12 0.8200000000000003  11.28 0.10000000000000009  10.4 0.10000000000000009  L 1.6 0.10000000000000009  C 0.7200000000000002 0.10000000000000009  0 0.8199999999999997  0 1.7000000000000002  L 0 11.3  C 0 12.180000000000001  0.7199999999999998 12.9  1.6 12.9  L 10.4 12.9  C 11.280000000000001 12.9  12 12.18  12 11.3  L 12 1.7000000000000002  Z M 11.2 3.3  L 11.200000000000001 11.299999999999999  C 11.200000000000001 11.739999999999998  10.840000000000002 12.1  10.4 12.1  L 1.6 12.1  C 1.1600000000000001 12.1  0.7999999999999998 11.74  0.7999999999999998 11.299999999999999  L 0.7999999999999998 3.3  L 11.2 3.3  Z M 11.200000000000001 1.7000000000000002  L 11.200000000000001 2.4999999999999982  L 0.7999999999999998 2.4999999999999982  L 0.7999999999999998 1.7000000000000002  C 0.7999999999999998 1.2600000000000002  1.1599999999999997 0.9000000000000004  1.5999999999999996 0.9000000000000004  L 10.4 0.9000000000000004  C 10.84 0.9000000000000004  11.200000000000001 1.2600000000000002  11.200000000000001 1.7000000000000002  Z " fill-rule="nonzero" fill="#ffffff" stroke="none" transform="matrix(1 0 0 1 1750 939 )" />
  </g>
</svg>