<?xml version="1.0" encoding="utf-8"?>
<svg version="1.1" xmlns:xlink="http://www.w3.org/1999/xlink" width="20px" height="2px" xmlns="http://www.w3.org/2000/svg">
  <g transform="matrix(1 0 0 1 -1070 -433 )">
    <path d="M 19.943502817796606 1.030303022727273  C 19.94350279661017 1.5636363409090912  19.536723156779658 2  19.039548029661017 2  L 12.711864406779661 2  C 12.214689258474575 2  11.807909597457629 1.5636363636363635  11.807909597457629 1.030303022727273  C 11.807909597457629 0.49696968181818235  12.214689258474579 0.06060604545454576  12.711864406779661 0.060606068181818434  L 19.039548029661017 0.060606068181818434  C 19.536723177966103 0.060606068181818434  19.94350283898305 0.4969697045454547  19.943502817796606 1.030303022727273  Z M 8.192090402542373 1.030303022727273  C 8.192090402542373 1.5636363409090912  7.785310741525424 2  7.288135593220338 2  L 0.960451970338983 2  C 0.4632768220338982 2  0.05649716101694914 1.5636363636363635  0.056497182203389756 1.030303022727273  C 0.05649720338983039 0.49696968181818235  0.4632768432203388 0.06060604545454576  0.960451970338983 0.060606068181818434  L 7.288135593220338 0.060606068181818434  C 7.785310741525424 0.060606068181818434  8.192090402542373 0.4969697045454547  8.192090402542373 1.030303022727273  Z " fill-rule="nonzero" fill="#ffffff" stroke="none" transform="matrix(1 0 0 1 1070 433 )" />
  </g>
</svg>