<?xml version="1.0" encoding="utf-8"?>
<svg version="1.1" xmlns:xlink="http://www.w3.org/1999/xlink" width="20px" height="20px" xmlns="http://www.w3.org/2000/svg">
  <g transform="matrix(1 0 0 1 -1070 -433 )">
    <path d="M 19.039548029661017 8.192090402542373  C 18.542372902542375 8.192090402542373  18.135593220338983 7.785310741525424  18.135593220338983 7.288135593220338  L 18.135593220338983 0.960451970338983  C 18.135593220338983 0.4632768220338982  18.542372881355934 0.05649716101694914  19.039548029661017 0.056497182203389756  C 19.5367231779661 0.05649720338983039  19.94350283898305 0.4632768432203388  19.943502817796606 0.960451970338983  L 19.943502817796606 7.288135593220338  C 19.943502817796606 7.785310741525424  19.536723156779658 8.192090402542373  19.039548029661017 8.192090402542373  Z M 0.9604519703389833 8.192090402542373  C 0.46327682203389886 8.192090402542373  0.05649716101694944 7.785310741525424  0.056497182203389756 7.288135593220338  L 0.056497182203389756 0.960451970338983  C 0.056497182203389756 0.4632768220338982  0.4632768432203388 0.05649716101694914  0.960451970338983 0.056497182203389756  C 1.4576270974576273 0.05649720338983039  1.8644067796610169 0.4632768432203388  1.8644067796610169 0.960451970338983  L 1.8644067796610169 7.288135593220338  C 1.8644067796610169 7.785310741525424  1.457627118644068 8.192090402542373  0.9604519703389833 8.192090402542373  Z M 0.056497182203389756 19.039548029661017  C 0.05649720338983039 18.542372902542375  0.4632768432203388 18.135593220338983  0.960451970338983 18.135593220338983  L 7.288135593220338 18.135593220338983  C 7.785310741525424 18.135593220338983  8.192090402542373 18.542372881355934  8.192090402542373 19.039548029661017  C 8.192090402542373 19.5367231779661  7.785310741525424 19.94350283898305  7.288135593220338 19.943502817796606  L 0.960451970338983 19.943502817796606  C 0.4632768220338982 19.943502817796606  0.05649716101694914 19.536723156779658  0.056497182203389756 19.039548029661017  Z M 11.807909597457629 19.039548029661017  C 11.807909597457629 18.542372902542375  12.214689258474579 18.135593220338983  12.711864406779661 18.135593220338983  L 19.039548029661017 18.135593220338983  C 19.536723177966103 18.135593220338983  19.94350283898305 18.542372881355934  19.943502817796606 19.039548029661017  C 19.94350279661017 19.5367231779661  19.536723156779658 19.94350283898305  19.039548029661017 19.943502817796606  L 12.711864406779661 19.943502817796606  C 12.214689258474575 19.943502817796606  11.807909597457629 19.536723156779658  11.807909597457629 19.039548029661017  Z " fill-rule="nonzero" fill="#ffffff" stroke="none" transform="matrix(1 0 0 1 1070 433 )" />
  </g>
</svg>