<?xml version="1.0" encoding="utf-8"?>
<svg version="1.1" xmlns:xlink="http://www.w3.org/1999/xlink" width="18px" height="5px" xmlns="http://www.w3.org/2000/svg">
  <g transform="matrix(1 0 0 1 -1797 -942 )">
    <path d="M 4.703342861505682 2.4980402050781247  C 4.703342861505682 3.705274651692707  3.741261091619318 4.685172750651043  2.5559763622159086 4.685172750651043  C 1.3706916328125 4.685172750651043  0.4086098629261362 3.7052746516927098  0.4086098629261362 2.4980402050781247  C 0.4086098629261362 1.290805758463541  1.3706916328125 0.31090765950520777  2.5559763622159086 0.31090765950520777  C 3.741261091619318 0.31090765950520777  4.703342861505682 1.2908057584635424  4.703342861505682 2.4980402050781247  Z M 11.14544233700284 2.4980402050781247  C 11.14544233700284 3.705274651692707  10.183360567116477 4.685172750651043  8.998075837713069 4.685172750651043  C 7.812791108309661 4.685172750651043  6.850709338423295 3.7052746516927098  6.850709338423295 2.4980402050781247  C 6.850709338423295 1.290805758463541  7.812791108309661 0.31090765950520777  8.998075837713069 0.31090765950520777  C 10.183360567116477 0.31090765950520777  11.14544233700284 1.2908057584635424  11.14544233700284 2.4980402050781247  Z M 17.591390137073866 2.4980402050781247  C 17.591390137073866 3.705274651692707  16.625460042613636 4.685172750651043  15.444023637784092 4.685172750651043  C 14.258738908380682 4.685172750651043  13.296657138494316 3.7052746516927098  13.296657138494316 2.4980402050781247  C 13.296657138494316 1.290805758463541  14.258738908380682 0.31090765950520777  15.444023637784092 0.31090765950520777  C 16.6293083671875 0.31090765950520777  17.591390137073866 1.2908057584635424  17.591390137073866 2.4980402050781247  Z " fill-rule="nonzero" fill="#ffffff" stroke="none" transform="matrix(1 0 0 1 1797 942 )" />
  </g>
</svg>