<?xml version="1.0" encoding="utf-8"?>
<svg version="1.1" xmlns:xlink="http://www.w3.org/1999/xlink" width="30px" height="30px" xmlns="http://www.w3.org/2000/svg">
  <g transform="matrix(1 0 0 1 -1497 -930 )">
    <path d="M 30 15  C 30 6.705882363281248  23.29411763671875 0  15 0  C 6.705882363281249 0  0 6.705882363281249  0 15  C 0 23.294117636718752  6.705882363281249 30  15 30  C 23.294117636718752 30  30 23.294117636718752  30 15  Z M 17.647058818359376 14.999999999999998  L 21.5294117578125 18.882352939453124  C 22.235294121093748 19.588235302734375  22.235294121093748 20.823529423828127  21.5294117578125 21.5294117578125  C 20.82352939453125 22.235294121093748  19.5882352734375 22.235294121093748  18.882352939453124 21.5294117578125  L 15 17.647058818359376  L 11.117647060546874 21.705882363281248  C 10.411764697265625 22.4117647265625  9.176470576171875 22.4117647265625  8.4705882421875 21.705882363281248  C 8.117647060546876 21.176470605468747  7.941176484375 20.823529423828123  7.941176484375 20.29411763671875  C 7.941176484375 19.764705849609378  8.117647060546876 19.23529412109375  8.4705882421875 18.882352939453124  L 12.352941181640626 15  L 8.4705882421875 11.294117636718749  C 8.117647060546876 10.76470587890625  7.941176484375 10.411764697265625  7.941176484375 9.882352939453124  C 7.941176484375 9.352941181640624  8.117647060546876 8.823529423828125  8.4705882421875 8.470588242187498  C 9.176470605468749 7.764705878906249  10.4117647265625 7.764705878906249  11.117647060546874 8.470588242187498  L 15 12.352941181640624  L 18.882352939453124 8.470588242187498  C 19.588235302734375 7.764705878906249  20.823529423828127 7.764705878906249  21.5294117578125 8.470588242187498  C 22.235294121093748 9.176470605468747  22.235294121093748 10.411764726562499  21.5294117578125 11.117647060546872  L 17.647058818359376 14.999999999999998  Z " fill-rule="nonzero" fill="#f2f2f2" stroke="none" transform="matrix(1 0 0 1 1497 930 )" />
  </g>
</svg>