<?xml version="1.0" encoding="utf-8"?>
<svg version="1.1" xmlns:xlink="http://www.w3.org/1999/xlink" width="20px" height="20px" xmlns="http://www.w3.org/2000/svg">
  <g transform="matrix(1 0 0 1 -1070 -433 )">
    <path d="M 1.8644067796610169 12.711864406779661  L 1.8644067796610169 19.039548029661017  C 1.8644067796610169 19.536723177966103  1.457627118644068 19.94350283898305  0.9604519703389833 19.943502817796606  C 0.46327682203389886 19.94350279661017  0.05649716101694944 19.536723156779658  0.05649718220339006 19.039548029661017  L 0.05649718220339006 12.711864406779661  C 0.05649718220339006 12.214689258474575  0.46327684322033913 11.807909597457629  0.9604519703389833 11.807909597457629  C 1.4576270974576275 11.807909597457629  1.8644067796610169 12.214689258474579  1.8644067796610169 12.711864406779661  Z M 19.94350281779661 12.711864406779661  L 19.94350281779661 19.039548029661017  C 19.94350281779661 19.536723177966103  19.53672315677966 19.94350283898305  19.039548029661017 19.943502817796606  C 18.542372902542375 19.94350279661017  18.135593220338986 19.536723156779658  18.135593220338986 19.039548029661017  L 18.135593220338986 12.711864406779661  C 18.135593220338986 12.214689258474575  18.542372881355934 11.807909597457629  19.039548029661017 11.807909597457629  C 19.536723177966103 11.807909597457629  19.94350283898305 12.214689258474579  19.94350281779661 12.711864406779661  Z M 12.337446334745765 6.384180783898304  L 18.401175148305086 0.320451970338983  C 18.752813559322036 -0.031186440677966127  19.328632775423728 -0.031186440677966127  19.680271186440677 0.320451970338983  C 20.031005656779662 0.6720903813559322  20.031005656779662 1.2470056355932204  19.680271186440677 1.5986440677966098  L 13.61563841101695 7.662372881355931  C 13.262110279540567 8.013968870883195  12.690974466222148 8.013968870883195  12.337446334745765 7.662372881355931  C 11.985850331171399 7.308844747411061  11.985850331171399 6.737708917843176  12.337446334745765 6.384180783898304  Z " fill-rule="nonzero" fill="#ffffff" stroke="none" transform="matrix(1 0 0 1 1070 433 )" />
  </g>
</svg>