<?xml version="1.0" encoding="utf-8"?>
<svg version="1.1" xmlns:xlink="http://www.w3.org/1999/xlink" width="10px" height="22px" preserveAspectRatio="xMidYMin meet" viewBox="1033 325  8 22" xmlns="http://www.w3.org/2000/svg">
  <path d="M 1037 345  L 1037 335  A 5 5 0 0 1 1042 330 L 1115 330  A 5 5 0 0 1 1120 335 L 1120 598  A 5 5 0 0 0 1125 603 L 1153 603  " stroke-width="2" stroke="#0066ff" fill="none" />
  <path d="M 1037 340  A 3.5 3.5 0 0 0 1033.5 343.5 A 3.5 3.5 0 0 0 1037 347 A 3.5 3.5 0 0 0 1040.5 343.5 A 3.5 3.5 0 0 0 1037 340 Z M 1145.6 611  L 1155 603  L 1145.6 595  L 1149.2 603  L 1145.6 611  Z " fill-rule="nonzero" fill="#0066ff" stroke="none" />
</svg>