<?xml version="1.0" encoding="utf-8"?>
<svg version="1.1" xmlns:xlink="http://www.w3.org/1999/xlink" width="55px" height="10px" preserveAspectRatio="xMinYMid meet" viewBox="580 808  55 8" xmlns="http://www.w3.org/2000/svg">
  <path d="M 582 812  L 625 812  A 5 5 0 0 0 630 807 L 630 608  A 5 5 0 0 1 635 603 L 678 603  " stroke-width="2" stroke="#0066ff" fill="none" />
  <path d="M 583.5 808.5  A 3.5 3.5 0 0 0 580 812 A 3.5 3.5 0 0 0 583.5 815.5 A 3.5 3.5 0 0 0 587 812 A 3.5 3.5 0 0 0 583.5 808.5 Z M 670.6 611  L 680 603  L 670.6 595  L 674.2 603  L 670.6 611  Z " fill-rule="nonzero" fill="#0066ff" stroke="none" />
</svg>