<?xml version="1.0" encoding="utf-8"?>
<svg version="1.1" xmlns:xlink="http://www.w3.org/1999/xlink" width="20px" height="21px" preserveAspectRatio="xMidYMin meet" viewBox="859 305  18 21" xmlns="http://www.w3.org/2000/svg">
  <path d="M 868 317  L 868 135  A 5 5 0 0 1 873 130 L 1750 130  A 5 5 0 0 1 1755 135 L 1755 140  " stroke-width="2" stroke="#0066ff" fill="none" />
  <path d="M 868 312  A 3.5 3.5 0 0 0 864.5 315.5 A 3.5 3.5 0 0 0 868 319 A 3.5 3.5 0 0 0 871.5 315.5 A 3.5 3.5 0 0 0 868 312 Z M 1747 132.6  L 1755 142  L 1763 132.6  L 1755 136.2  L 1747 132.6  Z " fill-rule="nonzero" fill="#0066ff" stroke="none" />
</svg>