<?xml version="1.0" encoding="utf-8"?>
<svg version="1.1" xmlns:xlink="http://www.w3.org/1999/xlink" width="34px" height="34px" preserveAspectRatio="xMinYMid meet" viewBox="1136 1674  34 32" xmlns="http://www.w3.org/2000/svg">
  <path d="M 1038 460  L 1085 460  A 5 5 0 0 1 1090 465 L 1090 1685  A 5 5 0 0 0 1095 1690 L 1153 1690  " stroke-width="2" stroke="#0066ff" fill="none" />
  <path d="M 1039.9292036732052 456.5  A 3.5 3.5 0 0 0 1036.4292036732052 460 A 3.5 3.5 0 0 0 1039.9292036732052 463.5 A 3.5 3.5 0 0 0 1043.4292036732052 460 A 3.5 3.5 0 0 0 1039.9292036732052 456.5 Z M 1145.6 1698  L 1155 1690  L 1145.6 1682  L 1149.2 1690  L 1145.6 1698  Z " fill-rule="nonzero" fill="#0066ff" stroke="none" />
</svg>