<?xml version="1.0" encoding="utf-8"?>
<svg version="1.1" xmlns:xlink="http://www.w3.org/1999/xlink" width="55px" height="10px" preserveAspectRatio="xMinYMid meet" viewBox="1575 1686  55 8" xmlns="http://www.w3.org/2000/svg">
  <path d="M 1532 1996  L 1575 1996  A 5 5 0 0 0 1580 1991 L 1580 1695  A 5 5 0 0 1 1585 1690 L 1628 1690  " stroke-width="2" stroke="#0066ff" fill="none" />
  <path d="M 1533.5 1992.5  A 3.5 3.5 0 0 0 1530 1996 A 3.5 3.5 0 0 0 1533.5 1999.5 A 3.5 3.5 0 0 0 1537 1996 A 3.5 3.5 0 0 0 1533.5 1992.5 Z M 1620.6 1698  L 1630 1690  L 1620.6 1682  L 1624.2 1690  L 1620.6 1698  Z " fill-rule="nonzero" fill="#0066ff" stroke="none" />
</svg>