<?xml version="1.0" encoding="utf-8"?>
<svg version="1.1" xmlns:xlink="http://www.w3.org/1999/xlink" width="29px" height="22px" xmlns="http://www.w3.org/2000/svg">
  <g transform="matrix(1 0 0 1 -584 -922 )">
    <path d="M 28.84736842105263 2.5473684210526293  C 28.84736842105263 1.235087719298244  27.855263157894736 0.23157894736841889  26.557894736842105 0.2315789473684216  L 2.289473684210526 0.2315789473684216  C 0.9921052631578952 0.2315789473684216  0 1.3122807017543854  0 2.5473684210526324  L 0 19.529824561403505  C 0 20.842105263157894  1.0684210526315792 21.845614035087717  2.289473684210526 21.845614035087717  L 7.707894736842107 21.845614035087717  L 7.707894736842107 19.91578947368421  L 2.289473684210526 19.91578947368421  C 2.060526315789473 19.91578947368421  1.907894736842105 19.761403508771924  2 19.529824561403505  L 2 2.5473684210526293  C 1.907894736842105 2.3157894736842075  2.060526315789473 2.1614035087719277  2.289473684210526 2.1614035087719277  L 26.557894736842105 2.1614035087719277  C 26.786842105263155 2.1614035087719277  26.939473684210522 2.3157894736842075  27 2.5473684210526293  L 27 19.529824561403505  C 26.939473684210522 19.761403508771924  26.786842105263155 19.91578947368421  26.557894736842105 19.91578947368421  L 20.68157894736842 19.91578947368421  L 20.68157894736842 21.845614035087717  L 26.557894736842105 21.845614035087717  C 27.855263157894736 21.845614035087717  28.84736842105263 20.764912280701754  28.84736842105263 19.529824561403505  L 28.84736842105263 2.5473684210526293  Z " fill-rule="nonzero" fill="#ffffff" stroke="none" transform="matrix(1 0 0 1 584 922 )" />
  </g>
</svg>