<?xml version="1.0" encoding="utf-8"?>
<svg version="1.1" xmlns:xlink="http://www.w3.org/1999/xlink" width="16px" height="20px" xmlns="http://www.w3.org/2000/svg">
  <g transform="matrix(1 0 0 1 -369 -279 )">
    <path d="M 15.91879732608696 3.7576799776785696  C 15.918914630434783 3.412012544642857  15.77774947826087 3.081914933035714  15.5299175 2.846360357142857  C 15.30309302173913 2.630145334821429  15.004339065217392 2.510918147321428  14.695613586956522 2.510918147321428  C 14.667458760869566 2.510918147321428  14.639499456521742 2.5120334598214282  14.611344630434784 2.513804575892857  C 14.594008565217393 2.5151429464285706  14.39751134782609 2.5271526785714284  14.089980717391306 2.5271526785714284  C 13.580456608695652 2.5271526785714284  12.585939586956524 2.4920113169642852  11.643947826086958 2.255774174107142  C 10.42716845652174 1.9512485044642849  9.022990043478261 0.5381128571428565  8.614423586956523 0.2594000446428565  C 8.408823847826088 0.11927183035714226  8.171810630434784 0.049207723214284974  7.934580173913044 0.049207723214284974  C 7.697914543478261 0.049207723214284974  7.460901326086957 0.11927183035714226  7.255414565217392 0.2587397767857134  C 7.205904652173914 0.2927791964285707  5.735753586956522 1.8958753348214281  4.297580847826087 2.255774174107142  C 3.3560496304347827 2.4920068749999995  2.342562869565217 2.5271526785714284  1.8335601521739127 2.5271526785714284  C 1.5259209130434777 2.5271526785714284  1.329532326086956 2.5151429687499993  1.3103713913043473 2.513804575892857  C 1.2834983043478254 2.512144977678571  1.2566252173913042 2.510918147321428  1.2296652391304344 2.510918147321428  C 0.9202880434782607 2.510918147321428  0.6204695869565214 2.630703013392857  0.39286736956521684 2.8475872098214285  C 0.14557849999999917 3.083141785714285  0.004652326086956108 3.412561294642857  0.004652326086956108 3.7576799776785705  L 0.004652326086956108 6.875570513392857  C 0.004652326086956108 18.402291116071428  7.404139826086956 19.886815848214283  7.718378934782609 19.944656093749998  C 7.789982565217391 19.957526830357143  7.862324826086956 19.963995669642856  7.934471565217392 19.963995669642856  C 8.006813826086956 19.963995669642856  8.079720913043479 19.957526830357143  8.15078143478261 19.944656093749998  C 8.464938 19.886815848214287  15.91879732608696 18.40229109375  15.91879732608696 6.875570513392856  L 15.91879732608696 3.7576799776785696  Z M 14.901109086956522 3.567050290178571  C 14.901109086956522 3.567050290178571  14.901109043478261 3.9756705580357146  14.901109043478261 6.780144129464285  C 14.901109043478261 17.720298125  7.933719891304347 18.982830535714285  7.933719891304347 18.982830535714285  C 7.933719891304347 18.982830535714285  1.0224448695652175 17.720302589285716  1.0224448695652175 6.780144129464285  C 1.0224448695652175 3.9756705580357137  1.0224448695652175 3.567050290178571  1.0224448695652175 3.567050290178571  C 1.0224448695652175 3.567050290178571  1.260761543478261 3.5840699999999996  1.6466086521739132 3.5840699999999996  C 2.3078125217391308 3.5840699999999996  3.419836847826087 3.534572299107142  4.486174739130434 3.267200022321428  C 6.231769478260869 2.8306790178571424  7.933719913043477 1.0303728348214283  7.933719913043477 1.0303728348214283  C 7.933719913043477 1.0303728348214283  9.711379869565215 2.830674553571428  11.455149782608695 3.267200022321428  C 12.522465282608694 3.534572321428571  13.615658869565216 3.5840699999999996  14.277075652173911 3.5840699999999996  C 14.66203204347826 3.5840699999999996  14.901109086956522 3.567050290178571  14.901109086956522 3.567050290178571  Z M 12.794784956521736 6.229628995535716  C 12.50297845652174 5.931781830357144  12.029690652173914 6.114515066964286  11.737784217391305 6.412362232142856  L 6.99902752173913 11.242810401785714  L 4.559668369565217 8.75510421875  C 4.267627239130434 8.457819174107144  3.883257413043477 8.366452544642858  3.5914378695652163 8.663737589285715  C 3.299613978260868 8.96158029017857  3.299613978260868 9.238258772321428  3.5914378695652163 9.535668750000001  C 3.5914378695652163 9.535668750000001  6.404869499999998 12.463317723214285  6.452424217391303 12.511789330357143  C 6.602887413043477 12.665279017857145  6.801643978260867 12.739358258928576  6.999031869565216 12.734696227678572  C 7.196267717391303 12.739358236607144  7.395045978260868 12.665279017857145  7.545617804347825 12.511789330357143  C 7.593281130434781 12.463317723214288  12.728047586956519 7.2157416517857165  12.728047586956519 7.2157416517857165  C 13.020088717391301 6.918345066964288  13.08682606521739 6.527012187500002  12.794784956521736 6.229628995535716  Z " fill-rule="nonzero" fill="#ffffff" stroke="none" transform="matrix(1 0 0 1 369 279 )" />
  </g>
</svg>