<?xml version="1.0" encoding="utf-8"?>
<svg version="1.1" xmlns:xlink="http://www.w3.org/1999/xlink" width="16px" height="14px" xmlns="http://www.w3.org/2000/svg">
  <g transform="matrix(1 0 0 1 -302 -934 )">
    <path d="M 8.875213666666667 9.392614132575757  C 12.807986307692305 8.940541405303028  15.876923076923077 5.485963636363635  15.876923076923077 1.3005575757575771  L 15.876923076923077 1.0742949583333354  C 15.876923076923076 0.5744493641266346  15.485076565459963 0.16924444886364032  15.001709397435897 0.16924444886364032  C 14.518342229411834 0.16924444886364032  14.126495717948723 0.5744493641266332  14.126495717948723 1.0742949583333354  L 14.12649571794872 1.3005575757575771  C 14.12649571794872 4.794052534090912  11.37832476923077 7.635911102272728  8 7.635911102272728  C 4.621675230769229 7.635911102272728  1.873504282051282 4.794052507575757  1.873504282051282 1.3005575757575771  L 1.873504282051282 1.0742949583333354  C 1.873504282051282 0.5744493641266332  1.4816577705881695 0.16924444886364032  0.9982906025641034 0.16924444886364032  C 0.5149234345400381 0.16924444886364032  0.1230769230769241 0.5744493641266332  0.1230769230769241 1.0742949583333354  L 0.12307692307692338 1.3005575757575771  C 0.12307692307692338 5.48551110227273  3.192013666666667 8.940541405303032  7.124786333333334 9.392614132575757  L 7.124786333333334 12.161616170454543  L 2.74871794871795 12.161616170454543  C 2.2653507877744583 12.161616170454543  1.873504282051282 12.566821079781919  1.873504282051282 13.066666666666665  C 1.873504282051282 13.566512253551412  2.2653507877744583 13.971717162878786  2.74871794871795 13.971717162878786  C 2.74871794871795 13.971717162878786  2.74871794871795 13.971717162878786  2.7487179487179483 14  L 13.25128205128205 14  C 13.25128205128205 13.971717162878786  13.25128205128205 13.971717162878786  13.25128205128205 13.971717162878786  C 13.734649212225541 13.971717162878786  14.12649571794872 13.566512253551412  14.12649571794872 13.066666666666665  C 14.12649571794872 12.566821079781919  13.734649212225541 12.161616170454543  13.25128205128205 12.161616170454543  L 8.875213666666667 12.161616170454543  L 8.875213666666667 9.392614132575757  Z " fill-rule="nonzero" fill="#ffffff" stroke="none" transform="matrix(1 0 0 1 302 934 )" />
  </g>
</svg>