<?xml version="1.0" encoding="utf-8"?>
<svg version="1.1" xmlns:xlink="http://www.w3.org/1999/xlink" width="30px" height="17px" xmlns="http://www.w3.org/2000/svg">
  <g transform="matrix(1 0 0 1 -511 -925 )">
    <path d="M 29.794843182756665 1.3977939650948499  C 29.795018225102496 0.9898001789713798  29.603214212429368 0.6062684940369966  29.27867536335791 0.36566376758807506  C 28.954231868947513 0.1250511381166004  28.53615640904675 0.05611452445285127  28.15338756211004 0.18011465539295418  L 20.786455784912086 2.5671154488888885  L 20.786455784912082 1.397793965094848  C 20.786455784912082 0.6918747510795323  20.222806502103104 0.11961415978319719  19.527509875439595 0.11961415978319719  L 1.323361956664776 0.11961415978319634  C 0.6280653413426359 0.11961417606736349  0.06441607623369258 0.6918747625941767  0 1.3977939650948499  L 0 15.615200882818423  C 0.06441609227281747 16.32112007380445  0.6280653526840103 16.893380642360814  1.323361956664776 16.893380658644986  L 19.527509875439595 16.893380658644986  C 20.222806490761734 16.89338065864499  20.78645576887296 16.321120085319098  20.78645578491209 15.615200882818426  L 20.78645578491209 14.446092428834685  L 28.153177737946688 16.832880163035227  C 28.276665161478583 16.87276146948165  28.405473959582793 16.893060292585893  28.535058505977783 16.893060292585893  C 29.230367700972483 16.893060292585893  29.794205778563793 16.32113256055673  29.794843182756665 15.615200882818423  L 29.794843182756665 1.3977939650948499  Z M 18 3  L 18 14  L 3 14  L 3 3  L 18 3  Z M 27 3.1474090649322495  L 27 13.865585753495935  L 20.974248556324447 11.823480517723578  L 20.974248556324447 5.189514330189702  L 27 3.1474090649322495  Z " fill-rule="nonzero" fill="#231815" stroke="none" transform="matrix(1 0 0 1 511 925 )" />
  </g>
</svg>