<?xml version="1.0" encoding="utf-8"?>
<svg version="1.1" xmlns:xlink="http://www.w3.org/1999/xlink" width="24px" height="25px" xmlns="http://www.w3.org/2000/svg">
  <g transform="matrix(1 0 0 1 -441 -921 )">
    <path d="M 23.70169605405405 20.937948041666672  C 24.00072275675676 21.245622125  24.00072275675676 21.74303420833333  23.70265025675676 22.05032454166667  L 22.58055352702703 23.203249541666672  C 22.122264445945945 23.674652583333337  21.55271160810811 24.05080291666667  20.883842716216215 24.323514000000003  C 20.1485972027027 24.62521879166667  19.322664648648647 24.769846041666668  18.44002155405405 24.769846041666668  C 15.051080351351347 24.771508916666665  9.695814770270268 21.514666375  6.146947378378375 17.86717670833334  C 1.6730388648648615 13.268737125000005  -1.007622364864869 6.94125116666667  0.40897913513513084 3.2812686250000027  C 0.6160326891891854 2.745354625000002  0.9035264189189149 2.2690056250000032  1.2454904594594556 1.8506439166666695  L 1.2445362972972944 1.8486825833333356  L 1.3173431351351326 1.727761916666669  C 1.3497017432432408 1.6731002916666686  1.38749493243243 1.6236831666666685  1.430183391891889 1.579851541666669  L 2.607704594594592 0.370602083333336  C 2.90602601351351 0.06130779166666874  3.3909901621621605 0.06130779166666874  3.689353094594591 0.370602083333336  L 4.219453378378375 0.915128875000003  L 8.838145905405401 5.663141708333337  C 9.136550270270266 5.96881179166667  9.136550270270266 6.466565000000004  8.837191743243242 6.7738552916666706  L 7.602296229729727 8.044716333333337  L 6.762590513513512 8.908088291666672  C 6.762590513513512 8.908088291666672  6.323177310810808 11.802936250000007  9.451299891891889 15.017567416666669  C 12.579380999999998 18.230919416666673  15.38312935135135 17.79311491666667  15.38312935135135 17.79311491666667  L 17.470508067567565 15.647071250000005  C 17.768870959459456 15.339738291666672  18.2544574054054 15.339738291666672  18.55186613513513 15.647071250000005  L 23.70169605405405 20.937948041666672  Z " fill-rule="nonzero" fill="#ffffff" stroke="none" transform="matrix(1 0 0 1 441 921 )" />
  </g>
</svg>