<?xml version="1.0" encoding="utf-8"?>
<svg version="1.1" xmlns:xlink="http://www.w3.org/1999/xlink" width="30px" height="24px" xmlns="http://www.w3.org/2000/svg">
  <g transform="matrix(1 0 0 1 -603 -787 )">
    <path d="M 3.3870967741935485 0  L 13.064516129032258 0  C 14.846079843731241 0  16.290322590725808 1.4471604091097117  16 3.2323232424242434  L 16 20.686868696969697  C 16.290322574023648 22.47203151845016  14.846079831921026 23.919191909090912  13.064516129032256 23.919191909090905  L 3.3870967741935485 23.919191909090912  C 1.605533071304782 23.919191909090912  0.16129032920215705 22.47203151845016  0.16129031249999987 20.686868696969697  L 0.16129031249999987 3.2323232424242434  C 0.16129031249999987 1.4471604091097117  1.60553305949457 0  3.3870967741935485 0  Z M 19.51612902217742 7.75757575757576  L 26.612903225806452 7.757575757575758  C 28.39446694050543 7.757575757575758  29.8387096875 9.204736166685468  29.8387096875 10.989899000000001  L 29.8387096875 20.686868696969697  C 29.83870967079784 22.47203151845016  28.39446692869522 23.919191909090912  26.612903225806452 23.919191909090905  L 19.51612902217742 23.919191909090905  C 18.803305993457442 23.919191924242423  18.22560889195166 23.340327757885113  18.22560889195166 22.626262621212117  C 18.22560889195166 21.912197484539128  18.803305993457442 21.33333331818182  19.515931482677466 21.33333331818182  L 26.612903225806452 21.33333333333333  C 26.969215962065384 21.33333333333333  27.258064506048385 21.04390125693824  27.258064506048385 20.686868696969697  C 27.258064506048385 21.117845121212113  27.258064506048385 20.255892272727262  27.258064506048388 20.68686869696969  L 27.25806450604839 10.989899000000001  C 27.25806450604839 10.632866409728424  26.969215962065388 10.343434333333333  26.612903225806456 10.343434333333333  C 26.39784946572581 10.343434333333333  26.82795698588709 10.343434333333333  26.612903225806452 10.343434333333335  L 19.51612902217742 10.343434333333335  C 18.803305993457442 10.34343434848485  18.22560889195166 9.764570182127539  18.22560889195166 9.050505045454546  C 18.22560889195166 8.336439908781553  18.803305993457442 7.757575742424244  19.515931482677466 7.757575742424244  Z M 13.064516129032258 2.5858585757575763  L 3.3870967741935485 2.5858585757575763  C 4.247311814516127 2.5858585757575785  2.5268817338709675 2.585858575757576  3.387096774193548 2.585858575757576  C 3.030784037934616 2.585858575757576  2.741935493951612 2.875290652152666  2.741935493951612 3.232323212121212  C 2.741935493951612 3.2323232202872703  2.741935493951612 3.2323232342581854  3 3.2323232424242434  L 3 20.04040403030303  C 2.741935493951612 20.04040403846909  2.741935493951612 20.040404052440003  2.741935493951612 20.04040406060606  C 2.741935493951612 20.39743662057461  3.030784037934616 20.6868686969697  3.387096774193548 20.6868686969697  L 13.064516129032258 20.6868686969697  C 13.420828865291188 20.6868686969697  13.709677409274194 20.39743662057461  13.709677409274194 20.04040406060606  C 13.709677409274194 20.04040406060606  13.709677409274194 20.04040403030303  14 20.04040403030303  L 14 3.2323232424242425  C 13.709677409274194 3.2323232260921273  13.709677409274194 3.2323232284533274  13.709677409274194 3.232323212121212  C 13.709677409274194 2.875290652152666  13.420828865291188 2.585858575757576  13.064516129032258 2.585858575757576  Z M 5.967741925403226 16.484848484848484  L 11.129032258064516 16.484848484848484  C 11.663501370803994 16.484848484848484  12.096774193548386 16.918996606224688  12.096774193548386 17.454545454545453  C 12.096774193548386 17.990094302866225  11.663501370803994 18.424242424242422  11.129032258064516 18.424242424242422  L 5.967741925403226 18.424242424242422  C 5.433272812663749 18.424242424242422  4.999999989919355 17.990094302866225  4.999999989919355 17.454545454545453  C 4.999999989919355 16.918996606224688  5.433272812663749 16.484848484848484  5.967741925403226 16.484848484848484  Z " fill-rule="nonzero" fill="#ffffff" stroke="none" transform="matrix(1 0 0 1 603 787 )" />
  </g>
</svg>