<?xml version="1.0" encoding="utf-8"?>
<svg version="1.1" xmlns:xlink="http://www.w3.org/1999/xlink" width="60px" height="30px" xmlns="http://www.w3.org/2000/svg">
  <g transform="matrix(1 0 0 1 -3555 -537 )">
    <path d="M 58.28470588235295 21.448  L 58.05882352941177 21.576  C 42.80615155880383 7.816500443593014  23.906269692176586 0.2857264619291833  4.411764705882353 0.1999999999999993  C 2.072676353657818 0.1999999999999993  0.1764705882352966 2.3490332008121904  0.1764705882352966 5  C 0.1764705882352966 7.650966799187805  2.072676353657818 9.799999999999997  4.411764705882353 9.799999999999997  C 22.084220350358507 9.792930153398558  39.239405308142906 16.559476424450416  53.089411764705886 29  C 53.78777107135096 29.531775830699473  54.61005575018716 29.81577198078451  55.451404351655114 29.81577198078451  C 57.79049270387965 29.81577198078451  59.68669846930217 27.666738779972313  59.68669846930217 25.015771980784507  C 59.68669846930217 23.655057544649637  59.17711743365645 22.35828254181446  58.28470588235295 21.448  Z " fill-rule="nonzero" fill="#ffffff" stroke="none" transform="matrix(1 0 0 1 3555 537 )" />
  </g>
</svg>