<?xml version="1.0" encoding="utf-8"?>
<svg version="1.1" xmlns:xlink="http://www.w3.org/1999/xlink" width="90px" height="100px" xmlns="http://www.w3.org/2000/svg">
  <g transform="matrix(1 0 0 1 -3505 -527 )">
    <path d="M 88.23567567567568 47.919999999999995  C 77.74184696437851 39.089608505385634  64.6423124378601 34.181856917761955  51.08108108108108 33.99999999999999  C 48.931321112158216 34.00806890820245  46.783471905213915 34.132686503318624  44.64648648648648 34.373333333333335  L 26.691891891891895 2.3733333333333326  C 25.971091279329542 1.169496199158017  24.694236898488615 0.4361766606736661  23.318918918918925 0.4361766606736661  C 21.13160800088246 0.4361766606736661  19.358442156331137 2.258597112018077  19.358442156331137 4.506666666666667  C 19.358442156331137 5.259950635463076  19.56182187031744 5.998459443134331  19.945945945945947 6.64  L 25.809729729729728 17.30666666666667  C 23.272311097752425 18.154096973677223  20.778302544067607 19.13313003825064  18.337297297297297 20.240000000000002  C 12.460296904372308 22.824759868409192  6.903400261192766 26.119026007974355  1.783783783783784 30.05333333333333  C 0.827828167619676 30.812920849071574  0.26812308155900944 31.984773364496306  0.26812308155900944 33.22666666666667  C 0.26812308155900944 35.44193366389025  2.015415894593273 37.237762388397684  4.170810810810812 37.237762388397684  C 5.0347766523268325 37.237762388397684  5.874320965156228 36.94311191284038  6.557837837837839 36.4  C 11.104158860628337 32.78947339713136  16.051156338783912 29.745986098852935  21.295135135135137 27.333333333333332  C 23.979937152674683 26.111332119489468  26.735424526715626 25.06045354899132  29.545945945945945 24.186666666666667  L 36.23999999999999 36.08  C 27.890792615031128 38.24149874681863  20.099555887964474 42.245328731561216  13.407567567567567 47.81333333333333  C 12.487593678717658 48.57298888542734  11.952433032699595 49.72044376026326  11.952433032699595 50.93333333333333  C 11.952433032699595 53.14369929137332  13.695860148934054 54.935554938614295  15.846486486486485 54.935554938614295  C 16.733495008385844 54.935554938614295  17.593922808671056 54.624315401576936  18.285405405405402 54.05333333333334  C 24.71272890645902 48.72324466892062  32.29561226944355 45.064315555326104  40.391351351351354 43.38666666666667  L 48.27891891891892 57.466666666666676  C 40.72637422106304 57.88684708994396  33.48125147410584 60.67923814866704  27.522162162162164 65.46666666666668  C 26.584276787435506 66.2263803141324  26.036934842400175 67.38600256911975  26.036934842400175 68.61333333333334  C 26.036934842400175 70.82605314494856  27.782218561671684 72.61981696753315  29.935135135135134 72.61981696753315  C 30.810579154971496 72.61981696753315  31.660539964253235 72.31694961935136  32.34810810810811 71.75999999999999  C 38.12101725412249 67.19916724350983  45.3236638113937 64.97835122168455  52.585945945945944 65.52  L 70.43675675675675 97.52  C 71.13219907335456 98.75891760845758  72.41807259737254 99.52222160528098  73.80972972972972 99.52222160528098  C 75.96035606728215 99.52222160528098  77.7037831835166 97.73036595803998  77.7037831835166 95.52  C 77.7037831835166 94.81789828677282  77.52407609909167 94.12815038393741  77.18270270270268 93.52000000000001  L 63.068108108108085 68.4  C 65.11430277203198 69.3182598587286  67.04771644754499 70.4818884597318  68.8281081081081 71.86666666666669  C 69.54276001919679 72.52773621292083  70.47020591581871 72.89352334934625  71.43168248766828 72.89352334934625  C 73.5811150275503 72.89352334934625  75.32357437956017 71.10266234866943  75.32357437956017 68.89352334934625  C 75.32357437956017 67.56121251140385  74.67815476435837 66.31635335397841  73.60216216216216 65.57333333333335  C 68.82753487969983 61.75157588319039  63.215807725018784 59.188194343397825  57.25621621621621 58.106666666666676  L 48.74594594594595 42.373333333333335  L 50.821621621621624 42.373333333333335  C 62.66397708482196 42.334644215764705  74.15642463449993 46.49793252046596  83.35783783783783 54.16000000000001  C 84.04932043457218 54.730982068243605  84.90974823485739 55.04222160528097  85.79675675675675 55.04222160528097  C 87.94738309430917 55.04222160528097  89.69081021054363 53.25036595803999  89.69081021054363 51.040000000000006  C 89.69081021054363 49.82711042692994  89.15564956452556 48.67965555209401  88.23567567567568 47.919999999999995  Z " fill-rule="nonzero" fill="#ffffff" stroke="none" transform="matrix(1 0 0 1 3505 527 )" />
  </g>
</svg>