<?xml version="1.0" encoding="utf-8"?>
<svg version="1.1" xmlns:xlink="http://www.w3.org/1999/xlink" width="40px" height="40px" xmlns="http://www.w3.org/2000/svg">
  <g transform="matrix(1 0 0 1 -3057 -547 )">
    <path d="M 39.994123671875 20.655082461538463  C 39.9427146484375 17.91326919230769  39.35722328125 15.178486153846153  38.277634296875 12.678514884615383  C 37.2009013671875 10.1771375  35.638638984375 7.910571846153847  33.720797734375 6.037702461538462  C 31.8043844921875 4.1634269999999995  29.530964296875002 2.6814417692307697  27.070472460937502 1.7042313846153845  C 24.611408671874997 0.722802846153846  21.96670125 0.2545855  19.3548384765625 0.3108278076923077  C 16.742975703125 0.3642580384615384  14.141109140624998 0.9421479230769231  11.7634429296875 2.0079399615384617  C 9.3829206640625 3.069513807692308  7.226598749999999 4.6105535  5.444420078125 6.501701615384615  C 3.6622414453125 8.39144373076923  2.25420609375 10.632700346153845  1.3259880468749998 13.056744499999999  C 0.3934858984375 15.479382615384615  -0.050630742187499994 18.081996153846156  0.006490390625 20.655082461538463  C 0.057899375 23.229574846153845  0.6091180859374999 25.788600576923074  1.6230178125 28.129687346153847  C 2.6354894921875 30.470774076923078  4.102073984375 32.59251573076923  5.901388984375 34.34446411538461  C 7.6992759374999995 36.09922465384615  9.8298933203125 37.4827858076923  12.133302109374998 38.393911461538465  C 14.435282851562501 39.30925526923077  16.9086269140625 39.74372723076923  19.3548384765625 39.68748492307692  C 21.802478046875 39.63405469230769  24.230125234375 39.08991023076923  26.4521364453125 38.09160896153846  C 28.6755756640625 37.094713769230765  30.6905228125 35.652098153846154  32.3527471484375 33.880464961538465  C 34.016399453125004 32.11164388461539  35.3287569921875 30.015211230769232  36.192713789062495 27.751457692307696  C 36.7182280078125 26.379145  37.0738069140625 24.946371807692312  37.2623065625 23.49391376923077  C 37.3122875390625 23.498131961538462  37.3636965234375 23.499537999999998  37.413677500000006 23.499537999999998  C 38.83884921875 23.499537999999998  39.994123671875 22.324073423076925  39.994123671875 20.87442753846154  C 39.994123671875 20.8013125  39.989839570312505 20.7281975  39.9841274609375 20.655082461538463  L 39.994123671875 20.655082461538463  Z M 37.135212109375 23.484071384615387  C 36.883879218749996 24.912626384615386  36.468323125 26.306029961538464  35.894255976562505 27.626318538461536  C 34.9489016015625 29.80852069230769  33.5779949609375 31.785438384615382  31.897206289062503 33.41646576923077  C 30.216417617187503 35.05030530769231  28.22860296875 36.336848461538466  26.082277265625 37.18188938461538  C 23.9359515234375 38.029742423076925  21.6368268359375 38.43046896153846  19.3548384765625 38.37422665384615  C 17.0728501171875 38.322202499999996  14.816566250000001 37.811803423076924  12.751638125 36.87818084615385  C 10.685281953125001 35.94877642307692  8.813137578125 34.60317880769231  7.2694395703125005 32.952466615384616  C 5.724313515625 31.304566538461536  4.506205859375 29.352957884615385  3.7093663671875 27.24949496153846  C 2.9082427734375 25.146032038461538  2.5312434765625005 22.892120923076927  2.5855085156250004 20.655082461538463  C 2.638345546875 18.418044038461538  3.122446953125 16.209126769230767  4.006396132812499 14.187215192307692  C 4.8874892578125 12.165303653846154  6.162718046875 10.333209961538461  7.7249804296875 8.821697499999999  C 9.285814765625 7.3101850384615386  11.1322546484375 6.120659884615385  13.1214973046875 5.341703692307692  C 15.11074 4.559935384615384  17.238501328125 4.192954230769231  19.3548384765625 4.249196538461539  C 21.471175625 4.302626769230769  23.5560961328125 4.779280461538462  25.4639412109375 5.645412230769232  C 27.373214335937497 6.508731923076923  29.1025559375 7.7573115  30.52772765625 9.285696653846154  C 31.9557554296875 10.814081807692308  33.0767571875 12.620866500000002  33.8093354296875 14.56403876923077  C 34.5447697265625 16.508617115384613  34.8889244140625 18.586771000000002  34.834659375 20.655082461538463  L 34.8432275390625 20.655082461538463  C 34.8375154296875 20.7281975  34.834659375 20.79990646153846  34.834659375 20.87442753846154  C 34.834659375 22.228461499999995  35.841418945312505 23.342059499999998  37.135212109375 23.484071384615387  Z " fill-rule="nonzero" fill="#ffffff" stroke="none" transform="matrix(1 0 0 1 3057 547 )" />
  </g>
</svg>