<?xml version="1.0" encoding="utf-8"?>
<svg version="1.1" xmlns:xlink="http://www.w3.org/1999/xlink" width="21px" height="20px" preserveAspectRatio="xMinYMid meet" viewBox="578 301  21 18" xmlns="http://www.w3.org/2000/svg">
  <path d="M 587 310  L 615 310  A 5 5 0 0 1 620 315 L 620 411  A 5 5 0 0 0 625 416 L 666 416  " stroke-width="2" stroke="#0066ff" fill="none" />
  <path d="M 588.5 306.5  A 3.5 3.5 0 0 0 585 310 A 3.5 3.5 0 0 0 588.5 313.5 A 3.5 3.5 0 0 0 592 310 A 3.5 3.5 0 0 0 588.5 306.5 Z M 658.6 424  L 668 416  L 658.6 408  L 662.2 416  L 658.6 424  Z " fill-rule="nonzero" fill="#0066ff" stroke="none" />
</svg>